<svg xmlns="http://www.w3.org/2000/svg" viewBox="0 0 564.91 224"><defs><style>.cls-1{fill:#737378;}.cls-2{fill:#00abb8;opacity:0.4;}.cls-3{fill:#fff;}</style></defs><title>budget3</title><g id="Calque_2" data-name="Calque 2"><g id="_0" data-name="0"><path class="cls-1" d="M265.56,74.81c0,.7,0,1.1,0,1.21a3,3,0,0,0,.26.79,4,4,0,0,0,1.85.5,2.43,2.43,0,0,0,1.43-.38,1.27,1.27,0,0,0,.53-1.07,1.73,1.73,0,0,0-.42-1.16,3.25,3.25,0,0,0-1.06-.78c-.43-.2-.89-.43-1.38-.7s-.95-.55-1.38-.84a3.45,3.45,0,0,1-1.06-1.2,3.62,3.62,0,0,1-.42-1.77,3.2,3.2,0,0,1,1.18-2.61,4.55,4.55,0,0,1,3-1,13.7,13.7,0,0,1,4,.65L271.86,70l-1.5-.09V68.53a2.94,2.94,0,0,0-.21-.61,3.15,3.15,0,0,0-1.53-.42,2,2,0,0,0-1.25.39,1.28,1.28,0,0,0-.48,1,1.5,1.5,0,0,0,.59,1.17,6.07,6.07,0,0,0,1.43.88c.56.26,1.12.54,1.68.85a4.41,4.41,0,0,1,1.43,1.3,3.34,3.34,0,0,1,.59,2A3.53,3.53,0,0,1,271.3,78,5.1,5.1,0,0,1,268,79.06a10.23,10.23,0,0,1-2.14-.22,8.5,8.5,0,0,1-1.55-.43l-.51-.22.27-3.47Z"/><path class="cls-1" d="M282.73,73.48v1.83q0,.63.12,1.77l0,.32,1.08.11-.11,1.37c-.59-.06-1.69-.09-3.31-.09l-.16-1.41a3.35,3.35,0,0,1-5,.66,3.28,3.28,0,0,1-.8-2.38V72.94l-.18-1.62-1-.25.16-1.34a16.47,16.47,0,0,0,2,.17l1.31,0,.38.34c-.12,1.59-.18,2.68-.18,3.28V75.4a2.07,2.07,0,0,0,.32,1.21,1.18,1.18,0,0,0,1,.45,1.52,1.52,0,0,0,1.22-.67,2.91,2.91,0,0,0,.52-1.81V72.94L280,71.37l-1.35-.3.16-1.34a18.71,18.71,0,0,0,2.11.17l1.58,0,.38.34C282.79,71.79,282.73,72.88,282.73,73.48Z"/><path class="cls-1" d="M288.22,68.76V71a3.19,3.19,0,0,1,2.65-1.26,2.83,2.83,0,0,1,2.5,1.24,6,6,0,0,1,.82,3.36A4.78,4.78,0,0,1,293,77.72,4.2,4.2,0,0,1,289.79,79a15.12,15.12,0,0,1-4.27-.65c.12-1.4.18-2.23.18-2.47V68.22l-.18-1.56-1.35-.31.16-1.35a17,17,0,0,0,2.11.18l1.58,0,.38.35Q288.22,67.86,288.22,68.76Zm1.58,3c-1,0-1.5.78-1.58,2.34v1.2c0,.21,0,.78,0,1.71a4.07,4.07,0,0,0,1.19.24,1.54,1.54,0,0,0,1.49-.72,4.43,4.43,0,0,0,.38-2,5.22,5.22,0,0,0-.31-2A1.2,1.2,0,0,0,289.8,71.77Z"/><path class="cls-1" d="M304,71.08l-.81.11c-.49,1-.77,1.66-.84,1.86l-2.16,5.74h-2.29c-1.34-3.87-2.08-6-2.2-6.35a12.58,12.58,0,0,0-.5-1.27L294.05,71l.09-1.25a23.37,23.37,0,0,0,2.68.17l1.87-.09.09,1.27-.81.08c.08.54.15,1,.22,1.26l1,3.7,1.22-3.7q.1-.33.33-1.26l-.81-.08.09-1.27c.7.06,1.48.09,2.32.09l1.58-.09Z"/><path class="cls-1" d="M304.08,74.41A4.8,4.8,0,0,1,305.25,71a4.15,4.15,0,0,1,3.13-1.24,3.6,3.6,0,0,1,2.88,1.1,4.23,4.23,0,0,1,.93,2.83c0,.14,0,.29,0,.45l-.38.7H307a3.11,3.11,0,0,0,.63,1.94,2.1,2.1,0,0,0,1.62.58,4.26,4.26,0,0,0,1.12-.15,3.39,3.39,0,0,0,.8-.3l.25-.14.63,1a5,5,0,0,1-3.51,1.28,4.3,4.3,0,0,1-3.25-1.22A4.74,4.74,0,0,1,304.08,74.41Zm4.14-3.25a1,1,0,0,0-.94.6,4.59,4.59,0,0,0-.34,1.74l2.39-.15c0-.07,0-.12,0-.14C309.35,71.84,309,71.16,308.22,71.16Z"/><path class="cls-1" d="M319.57,69.73a2.93,2.93,0,0,1,2.24.82,3.38,3.38,0,0,1,.77,2.39v2.37a15.86,15.86,0,0,0,.13,1.77l0,.32,1.17.11-.09,1.37c-.79-.06-1.86-.09-3.22-.09l-1.55.09L319,77.62l1-.22c0-.17,0-.38,0-.63s0-.45,0-.61,0-.26,0-.31V73.19a2,2,0,0,0-.33-1.2,1.22,1.22,0,0,0-1-.46,1.55,1.55,0,0,0-1.22.67A2.8,2.8,0,0,0,317,74v1.29a14.42,14.42,0,0,0,.1,1.77l.06.32,1.17.11-.09,1.37c-.79-.06-1.87-.09-3.22-.09l-1.8.09-.09-1.26,1.18-.22a15.24,15.24,0,0,0,.17-1.55V72.94l-.18-1.57-1.35-.3.16-1.34a18.74,18.74,0,0,0,2.1.17l.87,0,.38.34.18,1.3A3.49,3.49,0,0,1,319.57,69.73Z"/><path class="cls-1" d="M328.27,77a.81.81,0,0,0,.68.33,1.8,1.8,0,0,0,1-.36l.67,1a4,4,0,0,1-2.52,1,2.43,2.43,0,0,1-1.95-.73A3.46,3.46,0,0,1,325.5,76V71.25h-1.16l0-1.14a13.42,13.42,0,0,0,1.75-.75l1-1.57,1,.07v2h2.14L330,71.25h-2v5A1.3,1.3,0,0,0,328.27,77Z"/><path class="cls-1" d="M332.32,75.85V72.94l-.18-1.57-1.35-.3.16-1.34a18.71,18.71,0,0,0,2.11.17l1.58,0,.38.34c-.12,1.59-.18,2.68-.18,3.28v1.83a12.65,12.65,0,0,0,.11,1.77l.05.32,1.17.11-.09,1.37c-.79-.06-1.87-.09-3.22-.09l-1.8.09L331,77.62l1.19-.22C332.26,76.61,332.32,76.09,332.32,75.85Zm.16-9.9a1.6,1.6,0,0,1,2.09,0,1.41,1.41,0,0,1,.38,1,1.45,1.45,0,0,1-.37,1,1.43,1.43,0,0,1-2.48-1A1.49,1.49,0,0,1,332.48,66Z"/><path class="cls-1" d="M344.65,70.94a5.77,5.77,0,0,1,0,6.91,5.09,5.09,0,0,1-6.59,0,5.77,5.77,0,0,1,0-6.91,5.09,5.09,0,0,1,6.59,0Zm-2.08,5.85a7.94,7.94,0,0,0,0-4.79,1.27,1.27,0,0,0-1.22-.74,1.26,1.26,0,0,0-1.21.74,7.94,7.94,0,0,0,0,4.79,1.26,1.26,0,0,0,1.21.74A1.27,1.27,0,0,0,342.57,76.79Z"/><path class="cls-1" d="M353.23,69.73a2.93,2.93,0,0,1,2.24.82,3.38,3.38,0,0,1,.77,2.39v2.37a15.86,15.86,0,0,0,.13,1.77l0,.32,1.17.11-.09,1.37c-.79-.06-1.86-.09-3.22-.09l-1.55.09-.09-1.26,1-.22c0-.17,0-.38,0-.63s0-.45,0-.61,0-.26,0-.31V73.19a2,2,0,0,0-.33-1.2,1.22,1.22,0,0,0-1-.46,1.55,1.55,0,0,0-1.22.67,2.8,2.8,0,0,0-.53,1.82v1.29a14.42,14.42,0,0,0,.1,1.77l.06.32,1.17.11-.09,1.37c-.8-.06-1.87-.09-3.23-.09l-1.79.09-.1-1.26,1.19-.22a14.19,14.19,0,0,0,.16-1.55V72.94l-.18-1.57-1.35-.3.17-1.34a18.74,18.74,0,0,0,2.1.17l.87,0,.37.34.19,1.3A3.49,3.49,0,0,1,353.23,69.73Z"/><path class="cls-1" d="M364.73,71.52a3.23,3.23,0,0,1,2.82-1.79,3.09,3.09,0,0,1,2.63,1.17,5.53,5.53,0,0,1,.89,3.38,4.8,4.8,0,0,1-1.18,3.45A4.41,4.41,0,0,1,366.55,79a14.16,14.16,0,0,1-1.46-.09v.56a12.71,12.71,0,0,0,.15,1.83l0,.34,1.43.11L366.61,83c-.8-.06-1.87-.09-3.23-.09l-1.8.09-.09-1.17.9-.22a15.77,15.77,0,0,0,.18-1.63v-7l-.18-1.57-1.35-.3.17-1.34a16,16,0,0,0,2.1.17l.87,0,.37.34Zm1.95.25q-1.44,0-1.59,2.34V77a4.41,4.41,0,0,0,1.25.25,1.58,1.58,0,0,0,1.43-.67,4,4,0,0,0,.44-2.14C368.21,72.66,367.7,71.77,366.68,71.77Z"/><path class="cls-1" d="M378,69.73a7.49,7.49,0,0,1,1.26.13l.21,0-.27,3.62-1.33,0v-1s-.05-.36-.14-.94l-.11,0a1.57,1.57,0,0,0-1.25.67,2.8,2.8,0,0,0-.53,1.82v1.29a14.42,14.42,0,0,0,.1,1.77l.06.32,1.49.11-.09,1.37c-.91-.06-2-.09-3.4-.09l-2,.09L372,77.62l1.22-.22a15.24,15.24,0,0,0,.17-1.55V72.94l-.18-1.57-1.35-.3.16-1.35a17,17,0,0,0,2.1.18l.87,0,.38.34.16,1.19A3,3,0,0,1,378,69.73Z"/><path class="cls-1" d="M387.77,70.94a5.73,5.73,0,0,1,0,6.91,5.08,5.08,0,0,1-6.58,0,5.73,5.73,0,0,1,0-6.91,5.08,5.08,0,0,1,6.58,0Zm-2.07,5.85a8.15,8.15,0,0,0,0-4.79,1.28,1.28,0,0,0-1.22-.74,1.26,1.26,0,0,0-1.21.74,7.94,7.94,0,0,0,0,4.79,1.26,1.26,0,0,0,1.21.74A1.28,1.28,0,0,0,385.7,76.79Z"/><path class="cls-1" d="M393.52,73.48V79a3.46,3.46,0,0,1-.76,1.33c-.5.67-1,1.3-1.51,1.87l-.76.85-.84-.47A18.81,18.81,0,0,0,391,78.41V72.94l-.18-1.57-1.35-.3.16-1.34a18.74,18.74,0,0,0,2.1.17l1.59,0,.38.34C393.58,71.79,393.52,72.88,393.52,73.48ZM391.05,66a1.6,1.6,0,0,1,2.09,0,1.41,1.41,0,0,1,.38,1,1.45,1.45,0,0,1-.37,1,1.43,1.43,0,0,1-2.48-1A1.49,1.49,0,0,1,391.05,66Z"/><path class="cls-1" d="M395.37,74.41A4.76,4.76,0,0,1,396.55,71a4.13,4.13,0,0,1,3.12-1.24,3.57,3.57,0,0,1,2.88,1.1,4.19,4.19,0,0,1,.94,2.83c0,.14,0,.29,0,.45l-.38.7h-4.84a3.11,3.11,0,0,0,.63,1.94,2.1,2.1,0,0,0,1.62.58,4.2,4.2,0,0,0,1.12-.15,3.5,3.5,0,0,0,.81-.3l.25-.14.63,1a5.08,5.08,0,0,1-3.51,1.28,4.32,4.32,0,0,1-3.26-1.22A4.74,4.74,0,0,1,395.37,74.41Zm4.14-3.25a1,1,0,0,0-.94.6,4.8,4.8,0,0,0-.34,1.74l2.4-.15a1,1,0,0,0,0-.14C400.64,71.84,400.27,71.16,399.51,71.16Z"/><path class="cls-1" d="M408.11,77a.83.83,0,0,0,.69.33,1.8,1.8,0,0,0,1-.36l.67,1a4,4,0,0,1-2.52,1,2.43,2.43,0,0,1-1.95-.73,3.41,3.41,0,0,1-.63-2.26V71.25h-1.15l-.05-1.14a13.61,13.61,0,0,0,1.74-.75l1-1.57,1,.07v2H410l-.16,1.35h-2v5A1.37,1.37,0,0,0,408.11,77Z"/><path class="cls-1" d="M418.86,78.79,415.1,68.4a7.2,7.2,0,0,0-.49-1l-1.08-.16.09-1.26c.66.06,1.21.09,1.66.09L419,66l.09,1.31-1.17.16a3.34,3.34,0,0,0,.15.94l2.08,6.64,2.29-6.89.13-.69-1.16-.21.09-1.26q1.14.09,2,.09l2.65-.09.09,1.31-.9.13a9.48,9.48,0,0,0-.81,1.55l-3.6,9.79Z"/><path class="cls-1" d="M426.67,75.85V72.94l-.18-1.57-1.35-.3.16-1.34a18.88,18.88,0,0,0,2.11.17l1.58,0,.38.34c-.12,1.59-.18,2.68-.18,3.28v1.83a14.38,14.38,0,0,0,.11,1.77l.05.32,1.17.11-.09,1.37c-.79-.06-1.86-.09-3.22-.09l-1.8.09-.09-1.26,1.19-.22A14.19,14.19,0,0,0,426.67,75.85Zm.16-9.9a1.4,1.4,0,0,1,1.05-.39,1.38,1.38,0,0,1,1,.39,1.63,1.63,0,0,1,0,2.08,1.62,1.62,0,0,1-2.11,0,1.44,1.44,0,0,1-.36-1A1.48,1.48,0,0,1,426.83,66Z"/><path class="cls-1" d="M435.08,68.76v6.55q0,.63.12,1.77l0,.32,1.17.11-.09,1.37c-.79-.06-1.87-.09-3.22-.09l-1.8.09-.09-1.26,1.18-.22a8.59,8.59,0,0,0,.17-1.55V68.22l-.18-1.56L431,66.35l.16-1.35a17,17,0,0,0,2.1.18l1.59,0,.38.35Q435.08,67.41,435.08,68.76Z"/><path class="cls-1" d="M441,68.76v6.55q0,.63.12,1.77l0,.32,1.17.11-.09,1.37c-.79-.06-1.86-.09-3.22-.09l-1.8.09-.09-1.26,1.19-.22a9.48,9.48,0,0,0,.16-1.55V68.22l-.18-1.56L437,66.35l.16-1.35a17,17,0,0,0,2.11.18l1.58,0,.38.35Q441,67.41,441,68.76Z"/><path class="cls-1" d="M443.11,74.41A4.8,4.8,0,0,1,444.28,71a4.15,4.15,0,0,1,3.13-1.24,3.6,3.6,0,0,1,2.88,1.1,4.23,4.23,0,0,1,.93,2.83c0,.14,0,.29,0,.45l-.38.7H446a3,3,0,0,0,.64,1.94,2.06,2.06,0,0,0,1.61.58,4.28,4.28,0,0,0,1.13-.15,3.39,3.39,0,0,0,.8-.3l.25-.14.63,1a5.08,5.08,0,0,1-3.51,1.28,4.28,4.28,0,0,1-3.25-1.22A4.7,4.7,0,0,1,443.11,74.41Zm4.13-3.25a1,1,0,0,0-.93.6A4.59,4.59,0,0,0,446,73.5l2.39-.15c0-.07,0-.12,0-.14C448.38,71.84,448,71.16,447.24,71.16Z"/><path class="cls-1" d="M461.45,77.44A3.21,3.21,0,0,1,458.72,79a3,3,0,0,1-2.56-1.17,5.53,5.53,0,0,1-.89-3.38A4.8,4.8,0,0,1,456.45,71a4.39,4.39,0,0,1,3.34-1.25,14.49,14.49,0,0,1,1.46.09v-1.6l-.18-1.56-1.35-.31.16-1.35a17,17,0,0,0,2.11.18l1.58,0,.38.35q-.18,2.37-.18,3.27v6.55a12.65,12.65,0,0,0,.11,1.77l.05.32,1.08.11-.11,1.37c-.59-.06-1.69-.09-3.31-.09Zm-1.44-6a1.59,1.59,0,0,0-1.43.67,3.92,3.92,0,0,0-.45,2.14c0,1.79.51,2.68,1.53,2.68s1.49-.78,1.59-2.34V71.68A4.06,4.06,0,0,0,460,71.44Z"/><path class="cls-1" d="M465.88,74.41A4.8,4.8,0,0,1,467.05,71a4.15,4.15,0,0,1,3.13-1.24,3.6,3.6,0,0,1,2.88,1.1,4.23,4.23,0,0,1,.93,2.83,3.54,3.54,0,0,1,0,.45l-.37.7h-4.85a3.11,3.11,0,0,0,.63,1.94,2.1,2.1,0,0,0,1.62.58,4.28,4.28,0,0,0,1.13-.15,3.39,3.39,0,0,0,.8-.3l.25-.14.63,1a5.08,5.08,0,0,1-3.51,1.28A4.32,4.32,0,0,1,467,77.84,4.73,4.73,0,0,1,465.88,74.41ZM470,71.16a1,1,0,0,0-.93.6,4.59,4.59,0,0,0-.34,1.74l2.39-.15c0-.07,0-.12,0-.14C471.15,71.84,470.77,71.16,470,71.16Z"/><path class="cls-1" d="M480.31,66.1l3.87-.18a4.49,4.49,0,0,1,3.09,1,3.71,3.71,0,0,1,1.16,2.89,3.55,3.55,0,0,1-1.43,3,5.48,5.48,0,0,1-3.45,1.11h-1v1.4a14.45,14.45,0,0,0,.16,2.09l1.35.11L484,78.88c-1.09-.06-2.31-.09-3.67-.09l-1.8.09-.09-1.26,1.19-.22.16-1.55V69.57a16.87,16.87,0,0,0-.16-2l-1.17-.21.09-1.35C479.15,66.07,479.75,66.1,480.31,66.1Zm2.83,1.29-.51,0c-.05.63-.07,1.17-.07,1.62v3.4h.31a2.7,2.7,0,0,0,1.95-.68,2.58,2.58,0,0,0,.71-1.94A2.54,2.54,0,0,0,485,68,2.44,2.44,0,0,0,483.14,67.39Z"/><path class="cls-1" d="M491.13,79a2.68,2.68,0,0,1-1.94-.69,2.48,2.48,0,0,1-.71-1.87c0-1.4.79-2.23,2.38-2.48l2.55-.42V73a2,2,0,0,0-.3-1.25,1.32,1.32,0,0,0-1.05-.37,3.45,3.45,0,0,0-1.45.34l-.13.72,0,.78-1.35.05-.27-3a14.15,14.15,0,0,1,3.29-.49,4.1,4.1,0,0,1,2.77.86,3,3,0,0,1,1,2.38v2.34a14.38,14.38,0,0,0,.11,1.77l.06.32,1.08.11-.11,1.37c-.59-.06-1.69-.09-3.31-.09l-.15-1.3A2.65,2.65,0,0,1,491.13,79Zm0-3c0,.73.32,1.09,1,1.09a1.2,1.2,0,0,0,.81-.3,1.66,1.66,0,0,0,.48-.85V74.68l-1.33.22a1,1,0,0,0-.93,1.12Z"/><path class="cls-1" d="M503.91,69.73a7.49,7.49,0,0,1,1.26.13l.21,0-.27,3.62-1.33,0v-1s0-.36-.14-.94l-.11,0a1.57,1.57,0,0,0-1.25.67,2.8,2.8,0,0,0-.53,1.82v1.29a12.65,12.65,0,0,0,.11,1.77l.05.32,1.49.11-.09,1.37c-.91-.06-2-.09-3.4-.09l-2,.09-.09-1.26,1.23-.22c.1-.79.16-1.31.16-1.55V72.94l-.18-1.57-1.35-.3.16-1.35a17,17,0,0,0,2.11.18l.86,0,.38.34.16,1.19A3,3,0,0,1,503.91,69.73Z"/><path class="cls-1" d="M507.47,75.85V72.94l-.18-1.57-1.35-.3.16-1.34a18.88,18.88,0,0,0,2.11.17l1.58,0,.38.34c-.12,1.59-.18,2.68-.18,3.28v1.83a14.38,14.38,0,0,0,.11,1.77l0,.32,1.17.11-.09,1.37c-.79-.06-1.86-.09-3.22-.09l-1.8.09-.09-1.26,1.19-.22A14.19,14.19,0,0,0,507.47,75.85Zm.16-9.9a1.6,1.6,0,0,1,2.09,0,1.63,1.63,0,0,1,0,2.08,1.62,1.62,0,0,1-2.11,0,1.44,1.44,0,0,1-.36-1A1.48,1.48,0,0,1,507.63,66Z"/><path class="cls-1" d="M513.11,70.41a4,4,0,0,1,2.43-.68,9.53,9.53,0,0,1,2.91.44L518.23,73l-1.2-.09v-.77a2,2,0,0,0-.25-.69,3.19,3.19,0,0,0-1.26-.29q-1.17,0-1.17.69a.73.73,0,0,0,.46.62,8.8,8.8,0,0,0,1.13.5,13.66,13.66,0,0,1,1.31.57,3,3,0,0,1,1.13,1,2.74,2.74,0,0,1,.47,1.62,2.48,2.48,0,0,1-1,2.08,4.06,4.06,0,0,1-2.56.73,13.82,13.82,0,0,1-2.69-.33l-.5-.09.22-3,1.27.09v.81a1.16,1.16,0,0,0,.05.22c0,.11,0,.19.06.25a.89.89,0,0,0,.06.2,4.49,4.49,0,0,0,1.52.4,1.64,1.64,0,0,0,.88-.21.65.65,0,0,0,.33-.58.77.77,0,0,0-.45-.64A6,6,0,0,0,515,75.6a10.71,10.71,0,0,1-1.27-.56,3.22,3.22,0,0,1-1.09-1,2.93,2.93,0,0,1-.44-1.62A2.33,2.33,0,0,1,513.11,70.41Z"/><path class="cls-1" d="M523.71,70.42a1.43,1.43,0,0,1,2,0,1.74,1.74,0,0,1,0,2.09,1.25,1.25,0,0,1-1,.38,1.27,1.27,0,0,1-1-.38,1.72,1.72,0,0,1,0-2.08Zm0,6.17a1.45,1.45,0,0,1,2,0,1.53,1.53,0,0,1,.35,1,1.5,1.5,0,0,1-.35,1,1.26,1.26,0,0,1-1,.39,1.28,1.28,0,0,1-1-.39,1.49,1.49,0,0,1-.35-1A1.55,1.55,0,0,1,523.71,76.59Z"/><path class="cls-1" d="M530.4,67.39a10.94,10.94,0,0,1,3.39-.52,4.62,4.62,0,0,1,2.87.8,2.8,2.8,0,0,1,1,2.35,2.65,2.65,0,0,1-.52,1.58,4,4,0,0,1-1.48,1.21,3.32,3.32,0,0,1,1.79,1,2.65,2.65,0,0,1,.72,1.8A4.07,4.07,0,0,1,536.09,79a10.62,10.62,0,0,1-5.29,1.67l-.4-1.37a7.44,7.44,0,0,0,3.52-1.2,2.73,2.73,0,0,0,1.32-2.26q0-1.92-1.83-1.92l-1.12.07L532,72.69a4,4,0,0,0,2.17-1,2.4,2.4,0,0,0,.75-1.83,1.27,1.27,0,0,0-1.43-1.45,4.22,4.22,0,0,0-1.31.21,6,6,0,0,0-.14.7v1l-1.43.09Z"/><path class="cls-1" d="M539.82,75.94a10.36,10.36,0,0,1,0-6,4.53,4.53,0,0,1,1.53-2.17,4.19,4.19,0,0,1,2.69-.86,4.25,4.25,0,0,1,2.71.86,4.67,4.67,0,0,1,1.53,2.17,10.36,10.36,0,0,1,0,6,4.67,4.67,0,0,1-1.53,2.17A4.25,4.25,0,0,1,544,79a4.19,4.19,0,0,1-2.69-.86A4.53,4.53,0,0,1,539.82,75.94Zm4.22,1.5c1.16,0,1.73-1.51,1.73-4.52S545.2,68.4,544,68.4s-1.72,1.51-1.72,4.52S542.89,77.44,544,77.44Z"/><path class="cls-1" d="M550.29,72.05a4.09,4.09,0,0,1-.77-2.55,4,4,0,0,1,.77-2.54A3.31,3.31,0,0,1,555,67a4,4,0,0,1,.77,2.54,4.09,4.09,0,0,1-.77,2.55,3.28,3.28,0,0,1-4.72,0Zm2.37-.21c.75,0,1.12-.78,1.12-2.34s-.37-2.34-1.12-2.34-1.13.78-1.13,2.34S551.91,71.84,552.66,71.84Zm7.19-6,1.26.81-7.63,13-1.28-.81Zm1.78,13.1a3,3,0,0,1-2.47-1,4.69,4.69,0,0,1,0-5.24,3.49,3.49,0,0,1,5,0,4.69,4.69,0,0,1,0,5.24A3,3,0,0,1,561.63,78.93Zm-1.19-3.64c0,1.6.4,2.4,1.19,2.4s1.19-.8,1.19-2.4-.4-2.41-1.19-2.41S560.44,73.69,560.44,75.29Z"/><circle class="cls-2" cx="112" cy="112" r="112"/><path class="cls-3" d="M44.28,134.4a8.4,8.4,0,0,1,1.32-3.72c.88-1.58,1.75-2.36,2.6-2.36a5.82,5.82,0,0,1,2,.8,20.18,20.18,0,0,0,9,2.48q4.15,0,6.32-2a7.7,7.7,0,0,0,2.16-5.88q0-8-9.36-8H56.12c-1.6,0-2.4-1.34-2.4-4v-1.44q0-4,2.4-4h1.52a9.28,9.28,0,0,0,6-1.8,5.93,5.93,0,0,0,2.2-4.84,6.62,6.62,0,0,0-1.64-4.76q-1.63-1.73-5-1.72A15.35,15.35,0,0,0,53,94.36c-1.89.82-2.89,1.24-3,1.24-.8,0-1.67-.73-2.6-2.2A7.54,7.54,0,0,1,46,89.52q0-2.8,4.52-4.32A36.52,36.52,0,0,1,62,83.68q7,0,11.44,3.8a12.73,12.73,0,0,1,4.44,10.2,12.87,12.87,0,0,1-2,7.16,11.76,11.76,0,0,1-5.44,4.52v.32q9.28,3.51,9.28,14.32,0,7.83-5,12.4T61.64,141A42.12,42.12,0,0,1,50,139.32Q44.29,137.67,44.28,134.4Z"/><path class="cls-3" d="M122.68,133.36a16.55,16.55,0,0,1-27.84,0q-5-7.61-5-21t5-21a16.55,16.55,0,0,1,27.84,0q5,7.59,5,21T122.68,133.36Zm-20.88-21q0,19.28,7,19.28t7-19.28q0-19.29-7-19.28T101.8,112.32Z"/><path class="cls-3" d="M161,97.12q0,13.44-12,13.44T137,97.12q0-13.44,12-13.44T161,97.12Zm-15.84.16q0,6.72,3.8,6.72t3.8-6.72q0-6.72-3.8-6.72T145.16,97.28Zm.48,42.16a3,3,0,0,1,.4-1.2L174.6,86.4a3.9,3.9,0,0,1,3.52-2.24h3.52c1.12,0,1.68.37,1.68,1.12a3,3,0,0,1-.4,1.12l-28.56,51.84a3.92,3.92,0,0,1-3.52,2.24h-3.52C146.2,140.48,145.64,140.13,145.64,139.44ZM180,141q-12,0-12-13.44t12-13.44q12,0,12,13.44T180,141Zm0-20q-3.79,0-3.8,6.72t3.8,6.72q3.79,0,3.8-6.72T179.92,121Z"/></g></g></svg>