<svg xmlns="http://www.w3.org/2000/svg" viewBox="0 0 360.54 177.14"><defs><style>.cls-1{fill:#737378;}.cls-2{fill:#b5318a;opacity:0.4;}.cls-3{fill:#fff;}</style></defs><title>budget4</title><g id="Calque_2" data-name="Calque 2"><g id="_0" data-name="0"><path class="cls-1" d="M31.92,168.93c0,.69,0,1.1,0,1.21a3.23,3.23,0,0,0,.25.79,4.06,4.06,0,0,0,1.86.5,2.38,2.38,0,0,0,1.43-.39A1.25,1.25,0,0,0,36,170a1.71,1.71,0,0,0-.42-1.16,3.15,3.15,0,0,0-1.07-.78c-.42-.2-.88-.44-1.37-.71a14.81,14.81,0,0,1-1.38-.83,3.36,3.36,0,0,1-1.06-1.2,3.62,3.62,0,0,1-.43-1.77,3.23,3.23,0,0,1,1.18-2.61,4.6,4.6,0,0,1,3-1,14,14,0,0,1,4,.64l-.25,3.48L36.73,164v-1.33a2.82,2.82,0,0,0-.22-.62,3.18,3.18,0,0,0-1.52-.41,2,2,0,0,0-1.25.39,1.28,1.28,0,0,0-.48,1.05,1.5,1.5,0,0,0,.59,1.17,5.69,5.69,0,0,0,1.43.88c.56.25,1.12.54,1.67.85a4.29,4.29,0,0,1,1.43,1.29,3.32,3.32,0,0,1,.6,2,3.5,3.5,0,0,1-1.32,2.87,5,5,0,0,1-3.31,1.08,10.84,10.84,0,0,1-2.13-.22,8.91,8.91,0,0,1-1.56-.43l-.5-.22.27-3.47Z"/><path class="cls-1" d="M49.1,167.6v1.83q0,.63.12,1.77l0,.32,1.08.11L50.23,173c-.59-.06-1.69-.09-3.31-.09l-.16-1.41a3.35,3.35,0,0,1-5,.66,3.26,3.26,0,0,1-.8-2.39v-2.71l-.18-1.62-1-.26.16-1.33a16.13,16.13,0,0,0,2,.16l1.31,0,.38.34c-.12,1.58-.18,2.68-.18,3.28v1.92a2.07,2.07,0,0,0,.32,1.21,1.18,1.18,0,0,0,1,.45,1.5,1.5,0,0,0,1.21-.67,2.86,2.86,0,0,0,.53-1.82v-1.63l-.18-1.57L45,165.18l.17-1.33a18.27,18.27,0,0,0,2.1.16l1.59,0,.38.34C49.15,165.9,49.1,167,49.1,167.6Z"/><path class="cls-1" d="M54.59,162.88v2.23a3.18,3.18,0,0,1,2.65-1.26,2.8,2.8,0,0,1,2.49,1.23,6,6,0,0,1,.83,3.37,4.78,4.78,0,0,1-1.16,3.38,4.17,4.17,0,0,1-3.24,1.26,15.19,15.19,0,0,1-4.28-.65c.12-1.41.19-2.23.19-2.47v-7.63l-.19-1.57-1.35-.3.17-1.35a17,17,0,0,0,2.1.18l1.59,0,.38.34C54.64,161.19,54.59,162.28,54.59,162.88Zm1.58,3c-1,0-1.5.78-1.58,2.34v1.2c0,.21,0,.78,0,1.71a4.07,4.07,0,0,0,1.19.24,1.53,1.53,0,0,0,1.48-.72,4.31,4.31,0,0,0,.39-2,5.28,5.28,0,0,0-.32-2A1.19,1.19,0,0,0,56.17,165.89Z"/><path class="cls-1" d="M70.39,165.2l-.81.11c-.49,1-.78,1.66-.85,1.85l-2.16,5.75H64.29c-1.35-3.87-2.08-6-2.2-6.35s-.29-.79-.5-1.27l-1.17-.2.09-1.24a23.14,23.14,0,0,0,2.68.16l1.87-.09.09,1.28-.81.07c.07.54.15,1,.22,1.26l1,3.71,1.22-3.71c.07-.21.18-.63.32-1.26l-.81-.07.09-1.28c.71.06,1.48.09,2.32.09l1.59-.09Z"/><path class="cls-1" d="M70.44,168.53a4.84,4.84,0,0,1,1.18-3.45,4.13,4.13,0,0,1,3.12-1.23,3.57,3.57,0,0,1,2.88,1.1,4.17,4.17,0,0,1,.94,2.83c0,.14,0,.29,0,.45l-.38.7H73.32a3.11,3.11,0,0,0,.63,1.94,2.1,2.1,0,0,0,1.62.58,3.91,3.91,0,0,0,1.13-.16,4.26,4.26,0,0,0,.8-.29l.25-.15.63,1.05a5.08,5.08,0,0,1-3.51,1.28A4.32,4.32,0,0,1,71.61,172,4.74,4.74,0,0,1,70.44,168.53Zm4.14-3.26a1,1,0,0,0-.93.61,4.55,4.55,0,0,0-.35,1.73l2.4-.14c0-.07,0-.12,0-.14C75.72,166,75.34,165.27,74.58,165.27Z"/><path class="cls-1" d="M85.94,163.85a2.91,2.91,0,0,1,2.24.82,3.38,3.38,0,0,1,.77,2.39v2.37q0,.63.12,1.77l0,.32,1.17.11L90.19,173c-.79-.06-1.87-.09-3.22-.09l-1.55.09-.09-1.26,1-.22q0-.26,0-.63c0-.25,0-.46,0-.61s0-.26,0-.31v-2.66a2,2,0,0,0-.34-1.2,1.16,1.16,0,0,0-1-.46,1.55,1.55,0,0,0-1.23.67,2.86,2.86,0,0,0-.53,1.82v1.29a14.5,14.5,0,0,0,.11,1.77l0,.32,1.17.11L84.55,173c-.79-.06-1.86-.09-3.22-.09l-1.8.09-.09-1.26,1.19-.22a14.19,14.19,0,0,0,.16-1.55v-2.91l-.18-1.57-1.35-.31.16-1.33a18.41,18.41,0,0,0,2.11.16l.86,0,.38.34.18,1.3A3.51,3.51,0,0,1,85.94,163.85Z"/><path class="cls-1" d="M94.63,171.13a.83.83,0,0,0,.69.34,1.8,1.8,0,0,0,1-.36l.67,1a4,4,0,0,1-2.52,1,2.46,2.46,0,0,1-2-.73,3.41,3.41,0,0,1-.63-2.26v-4.74H90.71l0-1.13a12.71,12.71,0,0,0,1.74-.76l1-1.56,1,.07v2h2.15l-.17,1.35h-2v5A1.34,1.34,0,0,0,94.63,171.13Z"/><path class="cls-1" d="M98.68,170v-2.91l-.18-1.57-1.35-.31.17-1.33a18.27,18.27,0,0,0,2.1.16l1.59,0,.37.34c-.12,1.58-.18,2.68-.18,3.28v1.83a14.5,14.5,0,0,0,.11,1.77l.06.32,1.17.11-.09,1.37c-.8-.06-1.87-.09-3.23-.09l-1.8.09-.09-1.26,1.19-.22A14.19,14.19,0,0,0,98.68,170Zm.17-9.9a1.6,1.6,0,0,1,2.08,0,1.41,1.41,0,0,1,.38,1.05,1.44,1.44,0,0,1-.37,1,1.61,1.61,0,0,1-2.1,0,1.63,1.63,0,0,1,0-2.08Z"/><path class="cls-1" d="M111,165.06a5.73,5.73,0,0,1,0,6.91,5.08,5.08,0,0,1-6.58,0,5.73,5.73,0,0,1,0-6.91,5.08,5.08,0,0,1,6.58,0Zm-2.07,5.85a8.15,8.15,0,0,0,0-4.79,1.28,1.28,0,0,0-1.22-.74,1.26,1.26,0,0,0-1.21.74,7.94,7.94,0,0,0,0,4.79,1.26,1.26,0,0,0,1.21.74A1.28,1.28,0,0,0,108.94,170.91Z"/><path class="cls-1" d="M119.6,163.85a2.91,2.91,0,0,1,2.24.82,3.38,3.38,0,0,1,.77,2.39v2.37q0,.63.12,1.77l0,.32,1.17.11-.09,1.37c-.79-.06-1.87-.09-3.22-.09l-1.55.09-.09-1.26,1-.22q0-.26,0-.63c0-.25,0-.46,0-.61s0-.26,0-.31v-2.66a2,2,0,0,0-.34-1.2,1.16,1.16,0,0,0-1-.46,1.55,1.55,0,0,0-1.23.67,2.86,2.86,0,0,0-.53,1.82v1.29a14.5,14.5,0,0,0,.11,1.77l0,.32,1.17.11-.09,1.37c-.79-.06-1.86-.09-3.22-.09l-1.8.09-.09-1.26,1.19-.22a14.19,14.19,0,0,0,.16-1.55v-2.91l-.18-1.57-1.35-.31.16-1.33a18.41,18.41,0,0,0,2.11.16l.86,0,.38.34.18,1.3A3.51,3.51,0,0,1,119.6,163.85Z"/><path class="cls-1" d="M130,160.22h4.83l2-.18.34.32.13,2.81-1.3.09a10.38,10.38,0,0,0-.16-1.08,1.72,1.72,0,0,0-.18-.42c-.48,0-1-.07-1.42-.07h-2c-.05.87-.07,1.35-.07,1.46v2.57a3,3,0,0,0,.46,0h1a2.1,2.1,0,0,0,.79-.16l.17-1.15,1.11.09c0,.75,0,1.25,0,1.49l.06,2.29-1.15.11-.17-1.08a8.12,8.12,0,0,0-1.15-.11h-.56a3.44,3.44,0,0,0-.55,0v2.19c0,.55,0,1.19,0,1.91h2.25a7.7,7.7,0,0,0,1.39-.14,5.12,5.12,0,0,0,.55-1.8l1.26.09-.27,3.16-.34.33c-1.13,0-1.81-.07-2-.07H130l-1.81.09-.09-1.26,1.18-.22a5.64,5.64,0,0,0,.16-1.55v-6.28a9.18,9.18,0,0,0-.16-2l-1.17-.21.09-1.35Q129.36,160.22,130,160.22Z"/><path class="cls-1" d="M147.79,167.6v1.83q0,.63.12,1.77l0,.32,1.08.11-.11,1.37c-.59-.06-1.69-.09-3.31-.09l-.16-1.41a3.35,3.35,0,0,1-5,.66,3.3,3.3,0,0,1-.8-2.39v-2.71l-.18-1.62-1-.26.16-1.33a16.13,16.13,0,0,0,2,.16l1.31,0,.38.34c-.12,1.58-.18,2.68-.18,3.28v1.92a2.07,2.07,0,0,0,.32,1.21,1.18,1.18,0,0,0,1,.45,1.49,1.49,0,0,0,1.21-.67,2.86,2.86,0,0,0,.53-1.82v-1.63l-.18-1.57-1.35-.31.16-1.33A18.26,18.26,0,0,0,146,164l1.58,0,.38.34C147.85,165.9,147.79,167,147.79,167.6Z"/><path class="cls-1" d="M155.9,163.85a6.42,6.42,0,0,1,1.26.13l.22.05-.27,3.62-1.33-.05v-1c0-.05-.05-.36-.15-.94l-.1,0a1.55,1.55,0,0,0-1.25.67,2.8,2.8,0,0,0-.54,1.82v1.29a14.5,14.5,0,0,0,.11,1.77l.06.32,1.49.11-.09,1.37c-.91-.06-2-.09-3.4-.09l-2,.09-.09-1.26,1.22-.22a14.19,14.19,0,0,0,.16-1.55v-2.91l-.18-1.57-1.35-.31.17-1.35a17,17,0,0,0,2.1.18l.87,0,.37.34.17,1.19A3,3,0,0,1,155.9,163.85Z"/><path class="cls-1" d="M165.64,165.06a5.77,5.77,0,0,1,0,6.91,5.09,5.09,0,0,1-6.59,0,5.77,5.77,0,0,1,0-6.91,5.09,5.09,0,0,1,6.59,0Zm-2.08,5.85a7.94,7.94,0,0,0,0-4.79,1.26,1.26,0,0,0-1.21-.74,1.27,1.27,0,0,0-1.22.74,8.15,8.15,0,0,0,0,4.79,1.27,1.27,0,0,0,1.22.74A1.26,1.26,0,0,0,163.56,170.91Z"/><path class="cls-1" d="M171.06,165.63a3.23,3.23,0,0,1,2.82-1.78,3.11,3.11,0,0,1,2.63,1.17,5.53,5.53,0,0,1,.89,3.38,4.8,4.8,0,0,1-1.18,3.44,4.39,4.39,0,0,1-3.34,1.25,14,14,0,0,1-1.46-.09v.55a14.31,14.31,0,0,0,.14,1.84l0,.34,1.42.11-.09,1.28c-.79-.06-1.86-.09-3.22-.09l-1.8.09-.09-1.17.9-.22a15.85,15.85,0,0,0,.18-1.64v-7l-.18-1.57-1.35-.31.16-1.33a16.07,16.07,0,0,0,2.11.16l.86,0,.38.34Zm1.94.26c-1,0-1.48.78-1.58,2.34v2.89a4.15,4.15,0,0,0,1.24.26,1.59,1.59,0,0,0,1.43-.67,3.93,3.93,0,0,0,.44-2.14C174.53,166.78,174,165.89,173,165.89Z"/><path class="cls-1" d="M178.3,168.53a4.8,4.8,0,0,1,1.18-3.45,4.1,4.1,0,0,1,3.12-1.23,3.59,3.59,0,0,1,2.88,1.1,4.21,4.21,0,0,1,.93,2.83c0,.14,0,.29,0,.45l-.38.7h-4.84a3.11,3.11,0,0,0,.63,1.94,2.1,2.1,0,0,0,1.62.58,3.84,3.84,0,0,0,1.12-.16,3.77,3.77,0,0,0,.8-.29l.26-.15.63,1.05a5.08,5.08,0,0,1-3.52,1.28,4.3,4.3,0,0,1-3.25-1.22A4.74,4.74,0,0,1,178.3,168.53Zm4.14-3.26a1,1,0,0,0-.94.61,4.58,4.58,0,0,0-.34,1.73l2.39-.14c0-.07,0-.12,0-.14C183.57,166,183.19,165.27,182.44,165.27Z"/><path class="cls-1" d="M190.48,168.53a4.8,4.8,0,0,1,1.18-3.45,4.13,4.13,0,0,1,3.12-1.23,3.57,3.57,0,0,1,2.88,1.1,4.17,4.17,0,0,1,.94,2.83c0,.14,0,.29,0,.45l-.38.7h-4.84a3.11,3.11,0,0,0,.63,1.94,2.1,2.1,0,0,0,1.62.58,3.91,3.91,0,0,0,1.13-.16,4.26,4.26,0,0,0,.8-.29l.25-.15.63,1.05a5.08,5.08,0,0,1-3.51,1.28,4.32,4.32,0,0,1-3.26-1.22A4.74,4.74,0,0,1,190.48,168.53Zm4.14-3.26a1,1,0,0,0-.93.61,4.55,4.55,0,0,0-.35,1.73l2.4-.14c0-.07,0-.12,0-.14C195.76,166,195.38,165.27,194.62,165.27Z"/><path class="cls-1" d="M203.23,171.13a.8.8,0,0,0,.68.34,1.8,1.8,0,0,0,1-.36l.67,1a4,4,0,0,1-2.52,1,2.46,2.46,0,0,1-1.95-.73,3.41,3.41,0,0,1-.63-2.26v-4.74H199.3l-.05-1.13a12,12,0,0,0,1.74-.76l1-1.56,1,.07v2h2.15l-.17,1.35h-2v5A1.28,1.28,0,0,0,203.23,171.13Z"/><path class="cls-1" d="M211.81,173.09a2.65,2.65,0,0,1-1.93-.69,2.44,2.44,0,0,1-.71-1.87c0-1.4.79-2.23,2.37-2.48l2.56-.42v-.52a1.92,1.92,0,0,0-.31-1.25,1.26,1.26,0,0,0-1-.37,3.35,3.35,0,0,0-1.46.34l-.13.72,0,.78-1.35,0-.27-3a13.77,13.77,0,0,1,3.3-.49,4.12,4.12,0,0,1,2.77.86,3,3,0,0,1,1,2.38v2.34a12.75,12.75,0,0,0,.11,1.77l.05.32,1.08.11-.11,1.37c-.59-.06-1.69-.09-3.31-.09l-.14-1.3A2.67,2.67,0,0,1,211.81,173.09Zm0-3c0,.74.32,1.1,1,1.1a1.2,1.2,0,0,0,.81-.3,1.74,1.74,0,0,0,.49-.85V168.8l-1.33.22a1.12,1.12,0,0,0-.72.35A1.13,1.13,0,0,0,211.83,170.13Z"/><path class="cls-1" d="M227.67,167.6v1.83a15.86,15.86,0,0,0,.13,1.77l0,.32,1.08.11L228.8,173c-.58-.06-1.69-.09-3.31-.09l-.16-1.41a3.35,3.35,0,0,1-5,.66,3.3,3.3,0,0,1-.8-2.39v-2.71l-.18-1.62-1-.26.16-1.33a16.27,16.27,0,0,0,2,.16l1.31,0,.38.34c-.12,1.58-.18,2.68-.18,3.28v1.92a2,2,0,0,0,.33,1.21,1.15,1.15,0,0,0,1,.45,1.52,1.52,0,0,0,1.22-.67,2.86,2.86,0,0,0,.52-1.82v-1.63l-.18-1.57-1.35-.31.16-1.33a18.26,18.26,0,0,0,2.11.16l1.58,0,.38.34C227.73,165.9,227.67,167,227.67,167.6Z"/><path class="cls-1" d="M233.5,171.13a.83.83,0,0,0,.69.34,1.82,1.82,0,0,0,1-.36l.66,1a4,4,0,0,1-2.52,1,2.45,2.45,0,0,1-1.94-.73,3.41,3.41,0,0,1-.63-2.26v-4.74h-1.15l-.06-1.13a12.54,12.54,0,0,0,1.75-.76l1-1.56,1,.07v2h2.14l-.16,1.35h-2v5A1.27,1.27,0,0,0,233.5,171.13Z"/><path class="cls-1" d="M242.23,163.85a6.57,6.57,0,0,1,1.26.13l.22.05-.27,3.62-1.33-.05v-1c0-.05-.05-.36-.15-.94l-.11,0a1.56,1.56,0,0,0-1.25.67,2.86,2.86,0,0,0-.53,1.82v1.29a14.5,14.5,0,0,0,.11,1.77l0,.32,1.5.11-.09,1.37c-.91-.06-2-.09-3.4-.09l-2,.09-.09-1.26,1.22-.22a14.19,14.19,0,0,0,.16-1.55v-2.91l-.18-1.57-1.35-.31.16-1.35a17,17,0,0,0,2.11.18l.86,0,.38.34.16,1.19A3,3,0,0,1,242.23,163.85Z"/><path class="cls-1" d="M244.23,168.53a4.8,4.8,0,0,1,1.18-3.45,4.12,4.12,0,0,1,3.12-1.23,3.57,3.57,0,0,1,2.88,1.1,4.22,4.22,0,0,1,.94,2.83c0,.14,0,.29,0,.45l-.38.7h-4.84a3.11,3.11,0,0,0,.63,1.94,2.1,2.1,0,0,0,1.62.58,3.84,3.84,0,0,0,1.12-.16,3.77,3.77,0,0,0,.8-.29l.26-.15.63,1.05a5.08,5.08,0,0,1-3.51,1.28A4.32,4.32,0,0,1,245.4,172,4.74,4.74,0,0,1,244.23,168.53Zm4.14-3.26a1,1,0,0,0-.94.61,4.78,4.78,0,0,0-.34,1.73l2.4-.14a1,1,0,0,0,0-.14C249.5,166,249.12,165.27,248.37,165.27Z"/><path class="cls-1" d="M254.24,164.53a4,4,0,0,1,2.44-.68,9.83,9.83,0,0,1,2.9.43l-.21,2.85-1.21-.09v-.78a2,2,0,0,0-.25-.68,3.11,3.11,0,0,0-1.26-.29q-1.17,0-1.17.69c0,.24.15.44.47.62a8,8,0,0,0,1.12.5,12.52,12.52,0,0,1,1.32.57,2.92,2.92,0,0,1,1.12,1,2.74,2.74,0,0,1,.47,1.62,2.48,2.48,0,0,1-1,2.08,4.12,4.12,0,0,1-2.56.73,13.73,13.73,0,0,1-2.68-.33l-.51-.09.22-3,1.28.09v.81a.92.92,0,0,0,0,.22c0,.11.05.19.06.25s0,.13.06.2a4.42,4.42,0,0,0,1.52.39,1.71,1.71,0,0,0,.88-.2.66.66,0,0,0,.34-.58.78.78,0,0,0-.46-.65,6.44,6.44,0,0,0-1.08-.51,11.67,11.67,0,0,1-1.26-.57,2.88,2.88,0,0,1-1.09-1,2.81,2.81,0,0,1-.45-1.62A2.35,2.35,0,0,1,254.24,164.53Z"/><path class="cls-1" d="M267.5,165.63a3.23,3.23,0,0,1,2.82-1.78A3.11,3.11,0,0,1,273,165a5.53,5.53,0,0,1,.89,3.38,4.8,4.8,0,0,1-1.18,3.44,4.39,4.39,0,0,1-3.34,1.25,14.16,14.16,0,0,1-1.46-.09v.55a12.84,12.84,0,0,0,.15,1.84l0,.34,1.42.11-.09,1.28c-.79-.06-1.86-.09-3.22-.09l-1.8.09-.09-1.17.9-.22a15.85,15.85,0,0,0,.18-1.64v-7l-.18-1.57-1.35-.31.16-1.33a16.07,16.07,0,0,0,2.11.16l.86,0,.38.34Zm1.95.26q-1.44,0-1.59,2.34v2.89a4.15,4.15,0,0,0,1.24.26,1.59,1.59,0,0,0,1.43-.67,3.92,3.92,0,0,0,.45-2.14C271,166.78,270.47,165.89,269.45,165.89Z"/><path class="cls-1" d="M280.8,163.85a6.42,6.42,0,0,1,1.26.13l.22.05-.27,3.62-1.33-.05v-1c0-.05-.05-.36-.15-.94l-.1,0a1.53,1.53,0,0,0-1.25.67,2.8,2.8,0,0,0-.54,1.82v1.29a14.5,14.5,0,0,0,.11,1.77l.06.32,1.49.11-.09,1.37c-.91-.06-2-.09-3.4-.09l-2,.09-.09-1.26,1.22-.22a14.19,14.19,0,0,0,.16-1.55v-2.91l-.18-1.57-1.35-.31.17-1.35a17,17,0,0,0,2.1.18l.87,0,.37.34.17,1.19A3,3,0,0,1,280.8,163.85Z"/><path class="cls-1" d="M290.54,165.06a5.77,5.77,0,0,1,0,6.91,5.09,5.09,0,0,1-6.59,0,5.77,5.77,0,0,1,0-6.91,5.09,5.09,0,0,1,6.59,0Zm-2.08,5.85a7.94,7.94,0,0,0,0-4.79,1.26,1.26,0,0,0-1.21-.74,1.27,1.27,0,0,0-1.22.74,7.94,7.94,0,0,0,0,4.79,1.27,1.27,0,0,0,1.22.74A1.26,1.26,0,0,0,288.46,170.91Z"/><path class="cls-1" d="M296.28,167.6v5.49a3.38,3.38,0,0,1-.75,1.33c-.51.67-1,1.29-1.51,1.87l-.76.85-.85-.47a18.81,18.81,0,0,0,1.35-4.14v-5.47l-.18-1.57-1.35-.31.17-1.33a18.27,18.27,0,0,0,2.1.16l1.59,0,.37.34C296.34,165.9,296.28,167,296.28,167.6Zm-2.46-7.53a1.38,1.38,0,0,1,1-.39,1.4,1.4,0,0,1,1.05.38,1.66,1.66,0,0,1,0,2.09,1.36,1.36,0,0,1-1.05.39,1.37,1.37,0,0,1-1.05-.39,1.42,1.42,0,0,1-.37-1A1.47,1.47,0,0,1,293.82,160.07Z"/><path class="cls-1" d="M298.14,168.53a4.8,4.8,0,0,1,1.18-3.45,4.1,4.1,0,0,1,3.12-1.23,3.59,3.59,0,0,1,2.88,1.1,4.22,4.22,0,0,1,.94,2.83c0,.14,0,.29,0,.45l-.38.7H301a3.11,3.11,0,0,0,.63,1.94,2.1,2.1,0,0,0,1.62.58,3.84,3.84,0,0,0,1.12-.16,3.77,3.77,0,0,0,.8-.29l.25-.15.64,1.05a5.08,5.08,0,0,1-3.51,1.28,4.31,4.31,0,0,1-3.26-1.22A4.74,4.74,0,0,1,298.14,168.53Zm4.14-3.26a1,1,0,0,0-.94.61,4.78,4.78,0,0,0-.34,1.73l2.39-.14a.49.49,0,0,0,0-.14C303.41,166,303,165.27,302.28,165.27Z"/><path class="cls-1" d="M310.88,171.13a.83.83,0,0,0,.69.34,1.82,1.82,0,0,0,1-.36l.66,1a4,4,0,0,1-2.52,1,2.45,2.45,0,0,1-1.94-.73,3.41,3.41,0,0,1-.63-2.26v-4.74H307l-.06-1.13a12.54,12.54,0,0,0,1.75-.76l1-1.56,1,.07v2h2.14l-.16,1.35h-2v5A1.27,1.27,0,0,0,310.88,171.13Z"/><path class="cls-1" d="M314.59,164.53a4,4,0,0,1,2.44-.68,9.94,9.94,0,0,1,2.91.43l-.22,2.85-1.21-.09v-.78a2,2,0,0,0-.25-.68,3.11,3.11,0,0,0-1.26-.29q-1.17,0-1.17.69c0,.24.16.44.47.62a8.61,8.61,0,0,0,1.12.5,12.52,12.52,0,0,1,1.32.57,2.85,2.85,0,0,1,1.12,1,2.68,2.68,0,0,1,.47,1.62,2.47,2.47,0,0,1-.94,2.08,4.15,4.15,0,0,1-2.57.73,13.73,13.73,0,0,1-2.68-.33l-.5-.09.21-3,1.28.09v.81a.92.92,0,0,0,0,.22c0,.11.06.19.07.25a1.94,1.94,0,0,0,.05.2,4.48,4.48,0,0,0,1.52.39,1.71,1.71,0,0,0,.88-.2.64.64,0,0,0,.34-.58.79.79,0,0,0-.45-.65,6.84,6.84,0,0,0-1.08-.51,11.81,11.81,0,0,1-1.27-.57,2.88,2.88,0,0,1-1.09-1,2.81,2.81,0,0,1-.45-1.62A2.35,2.35,0,0,1,314.59,164.53Z"/><path class="cls-1" d="M322,164.54a1.22,1.22,0,0,1,1-.4,1.24,1.24,0,0,1,1,.39,1.5,1.5,0,0,1,.35,1,1.49,1.49,0,0,1-.35,1,1.43,1.43,0,0,1-2,0,1.43,1.43,0,0,1-.35-1A1.47,1.47,0,0,1,322,164.54Zm0,6.17a1.41,1.41,0,0,1,2,0,1.74,1.74,0,0,1,0,2.09,1.43,1.43,0,0,1-2,0,1.46,1.46,0,0,1-.35-1A1.47,1.47,0,0,1,322,170.71Z"/><path class="cls-1" d="M331.49,170v-5.78l-1.85.71-.67-1.12,2.54-1.94.88-1,1.85.22c-.09,2.2-.14,3.61-.14,4.21v4.19a13.49,13.49,0,0,0,.08,1.36c.06.49.09.73.1.73l1.4.11-.1,1.37c-.93-.06-2.07-.09-3.44-.09l-2.32.09-.09-1.26,1.6-.22A14.19,14.19,0,0,0,331.49,170Z"/><path class="cls-1" d="M336.33,161.51a10.67,10.67,0,0,1,3.4-.52,4.61,4.61,0,0,1,2.86.8,2.79,2.79,0,0,1,1,2.35,2.62,2.62,0,0,1-.52,1.57,3.94,3.94,0,0,1-1.48,1.22,3.3,3.3,0,0,1,1.79,1,2.65,2.65,0,0,1,.72,1.8,4.07,4.07,0,0,1-2.11,3.36,10.72,10.72,0,0,1-5.29,1.67l-.4-1.37a7.44,7.44,0,0,0,3.52-1.2,2.73,2.73,0,0,0,1.32-2.26q0-1.92-1.83-1.92l-1.12.07L338,166.8a4,4,0,0,0,2.17-.94,2.41,2.41,0,0,0,.75-1.83,1.28,1.28,0,0,0-1.43-1.46,4.24,4.24,0,0,0-1.31.22,5.59,5.59,0,0,0-.14.7v1l-1.43.09Z"/><path class="cls-1" d="M345.93,166.16a4.53,4.53,0,0,1,0-5.08,3.3,3.3,0,0,1,4.71,0,4.53,4.53,0,0,1,0,5.08,3.27,3.27,0,0,1-4.71,0Zm2.36-.2c.75,0,1.13-.78,1.13-2.34s-.38-2.34-1.13-2.34-1.12.78-1.12,2.34S347.54,166,348.29,166Zm7.19-6,1.26.81-7.63,13-1.28-.81Zm1.79,13.1a2.93,2.93,0,0,1-2.48-1,4.67,4.67,0,0,1,0-5.23,3.49,3.49,0,0,1,4.95,0,4.67,4.67,0,0,1,0,5.23A2.92,2.92,0,0,1,357.27,173.05Zm-1.19-3.65c0,1.61.39,2.41,1.19,2.41s1.18-.8,1.18-2.41-.39-2.4-1.18-2.4S356.08,167.8,356.08,169.4Z"/><circle class="cls-2" cx="63.48" cy="63.48" r="63.48"/><path class="cls-3" d="M26.72,77.26v-.77c0-1.51.46-2.27,1.36-2.27h6V53.87l-6.16.9c-.52,0-.89-.41-1.11-1.24a9.12,9.12,0,0,1-.34-2.43,1.3,1.3,0,0,1,1.18-1.41L39,47.61a2.54,2.54,0,0,1,1.22.34c.42.23.64.47.64.75V74.22h4.85c.9,0,1.36.76,1.36,2.27v.77c0,1.51-.46,2.27-1.36,2.27H28.08C27.18,79.53,26.72,78.77,26.72,77.26Z"/><path class="cls-3" d="M52.52,76.17a4.75,4.75,0,0,1,.75-2.1c.5-.9,1-1.34,1.48-1.34a3.47,3.47,0,0,1,1.13.45A11.36,11.36,0,0,0,61,74.59a5,5,0,0,0,3.58-1.16,4.35,4.35,0,0,0,1.23-3.33c0-3-1.77-4.54-5.31-4.54H59.23c-.9,0-1.36-.75-1.36-2.26v-.82c0-1.51.46-2.27,1.36-2.27h.87a5.24,5.24,0,0,0,3.42-1,3.36,3.36,0,0,0,1.25-2.74,3.75,3.75,0,0,0-.93-2.7,3.79,3.79,0,0,0-2.86-1,8.74,8.74,0,0,0-3.54.7,17.89,17.89,0,0,1-1.7.7c-.45,0-.94-.41-1.47-1.24a4.28,4.28,0,0,1-.79-2.2c0-1.06.85-1.88,2.56-2.45a20.62,20.62,0,0,1,6.53-.86,9.65,9.65,0,0,1,6.48,2.15,7.85,7.85,0,0,1,1.38,9.84A6.61,6.61,0,0,1,67.35,62v.18q5.27,2,5.26,8.12a9.09,9.09,0,0,1-2.83,7,10.59,10.59,0,0,1-7.42,2.58A23.79,23.79,0,0,1,55.77,79Q52.52,78,52.52,76.17Z"/><path class="cls-3" d="M92.61,55q0,7.62-6.81,7.62T79,55q0-7.6,6.8-7.61T92.61,55Zm-9,.1c0,2.53.72,3.8,2.15,3.8s2.16-1.27,2.16-3.8-.72-3.81-2.16-3.81S83.63,52.6,83.63,55.14ZM83.9,79a1.77,1.77,0,0,1,.23-.68L100.31,49a2.22,2.22,0,0,1,2-1.27h2q1,0,1,.63A1.76,1.76,0,0,1,105,49L88.84,78.35a2.21,2.21,0,0,1-2,1.27h-2C84.22,79.62,83.9,79.42,83.9,79Zm19.45.86q-6.8,0-6.8-7.62t6.8-7.61q6.81,0,6.8,7.61T103.35,79.89Zm0-11.33c-1.44,0-2.15,1.27-2.15,3.81s.71,3.8,2.15,3.8,2.15-1.27,2.15-3.8S104.76,68.56,103.33,68.56Z"/></g></g></svg>