<svg xmlns="http://www.w3.org/2000/svg" viewBox="0 0 496.86 187.35"><defs><style>.cls-1{fill:#737378;}.cls-2{fill:#c4d459;opacity:0.4;}.cls-3{fill:#fff;}</style></defs><title>budget1</title><g id="Calque_2" data-name="Calque 2"><g id="_0" data-name="0"><path class="cls-1" d="M1.76,109.1c0,.7,0,1.1,0,1.22a3.35,3.35,0,0,0,.25.78,4.06,4.06,0,0,0,1.86.5,2.45,2.45,0,0,0,1.43-.38,1.27,1.27,0,0,0,.53-1.07A1.73,1.73,0,0,0,5.43,109a3.25,3.25,0,0,0-1.06-.78c-.43-.2-.89-.43-1.38-.7s-1-.55-1.38-.84a3.45,3.45,0,0,1-1.06-1.2,3.62,3.62,0,0,1-.42-1.77,3.2,3.2,0,0,1,1.18-2.61,4.55,4.55,0,0,1,3-1,13.76,13.76,0,0,1,4,.65l-.26,3.47-1.49-.09v-1.33a2.83,2.83,0,0,0-.22-.61,3.09,3.09,0,0,0-1.52-.42,2,2,0,0,0-1.25.39,1.28,1.28,0,0,0-.48,1,1.47,1.47,0,0,0,.59,1.17,6.22,6.22,0,0,0,1.43.89c.56.25,1.12.53,1.67.84a4.45,4.45,0,0,1,1.44,1.3,3.34,3.34,0,0,1,.59,2,3.53,3.53,0,0,1-1.31,2.87,5.11,5.11,0,0,1-3.32,1.07,10.13,10.13,0,0,1-2.13-.22A8.1,8.1,0,0,1,.5,112.7l-.5-.22L.27,109Z"/><path class="cls-1" d="M18.94,107.77v1.83c0,.43,0,1,.12,1.77l0,.32,1.08.11-.11,1.37c-.59-.06-1.69-.09-3.31-.09l-.16-1.4A3.15,3.15,0,0,1,14,113.15a3.14,3.14,0,0,1-2.36-.82,3.23,3.23,0,0,1-.8-2.38v-2.72l-.18-1.62-1-.25L9.81,104a16.47,16.47,0,0,0,2,.17l1.31,0,.38.34c-.12,1.59-.18,2.68-.18,3.28v1.93a2.05,2.05,0,0,0,.32,1.2,1.18,1.18,0,0,0,1,.45,1.49,1.49,0,0,0,1.21-.67,2.83,2.83,0,0,0,.53-1.81v-1.64l-.18-1.57-1.35-.3.16-1.34a18.74,18.74,0,0,0,2.1.17l1.59,0,.38.34C19,106.08,18.94,107.17,18.94,107.77Z"/><path class="cls-1" d="M24.43,103.05v2.24A3.2,3.2,0,0,1,27.08,104a2.8,2.8,0,0,1,2.49,1.24,5.88,5.88,0,0,1,.83,3.36A4.76,4.76,0,0,1,29.24,112,4.2,4.2,0,0,1,26,113.26a15.12,15.12,0,0,1-4.27-.65c.12-1.4.18-2.22.18-2.47v-7.63L21.73,101l-1.35-.31.16-1.35a17,17,0,0,0,2.1.18l1.59,0,.38.35Q24.43,102.15,24.43,103.05Zm1.58,3c-1,0-1.5.78-1.58,2.34v1.2c0,.21,0,.78.05,1.71a4.07,4.07,0,0,0,1.19.24,1.52,1.52,0,0,0,1.48-.72,4.29,4.29,0,0,0,.39-2,5.22,5.22,0,0,0-.31-2A1.2,1.2,0,0,0,26,106.06Z"/><path class="cls-1" d="M40.23,105.37l-.81.11c-.49,1-.77,1.67-.85,1.86l-2.16,5.74H34.13q-2-5.79-2.2-6.35c-.12-.36-.29-.78-.5-1.26l-1.17-.2.09-1.25a23.37,23.37,0,0,0,2.68.17l1.87-.09.09,1.27-.81.08c.07.54.15,1,.22,1.26l1,3.7,1.22-3.7c.07-.22.18-.64.32-1.26l-.81-.08.09-1.27c.71.06,1.49.09,2.33.09l1.58-.09Z"/><path class="cls-1" d="M40.28,108.7a4.8,4.8,0,0,1,1.18-3.44A4.15,4.15,0,0,1,44.59,104a3.6,3.6,0,0,1,2.88,1.1A4.23,4.23,0,0,1,48.4,108a3.54,3.54,0,0,1,0,.45l-.37.7H43.16a3.11,3.11,0,0,0,.63,1.94,2.1,2.1,0,0,0,1.62.58,4.28,4.28,0,0,0,1.13-.15,3.57,3.57,0,0,0,.8-.3l.25-.14.63,1a5.08,5.08,0,0,1-3.51,1.28,4.32,4.32,0,0,1-3.26-1.22A4.74,4.74,0,0,1,40.28,108.7Zm4.14-3.25a1,1,0,0,0-.93.6,4.59,4.59,0,0,0-.34,1.74l2.39-.15c0-.07,0-.12,0-.14C45.56,106.13,45.18,105.45,44.42,105.45Z"/><path class="cls-1" d="M55.78,104a2.93,2.93,0,0,1,2.24.82,3.38,3.38,0,0,1,.77,2.39v2.37c0,.43,0,1,.12,1.77l0,.32,1.17.11L60,113.17c-.79-.06-1.87-.09-3.22-.09l-1.55.09-.09-1.26,1-.22c0-.16,0-.38,0-.63s0-.45,0-.61,0-.26,0-.31v-2.66a2,2,0,0,0-.33-1.2,1.21,1.21,0,0,0-1-.45,1.54,1.54,0,0,0-1.22.66,2.8,2.8,0,0,0-.54,1.82v1.29a14.25,14.25,0,0,0,.11,1.77l.06.32,1.17.11-.09,1.37c-.8-.06-1.87-.09-3.23-.09l-1.8.09-.09-1.26,1.19-.22a14,14,0,0,0,.16-1.55v-2.91l-.18-1.57-1.35-.3.17-1.34a18.74,18.74,0,0,0,2.1.17l.87,0,.37.34.18,1.3A3.52,3.52,0,0,1,55.78,104Z"/><path class="cls-1" d="M64.48,111.31a.8.8,0,0,0,.68.33,1.8,1.8,0,0,0,1-.36l.67,1a4.07,4.07,0,0,1-2.52,1,2.43,2.43,0,0,1-2-.73,3.41,3.41,0,0,1-.63-2.26v-4.73H60.55l0-1.14a12.84,12.84,0,0,0,1.74-.75l1-1.57,1,.07v2h2.15l-.17,1.35h-2v5A1.31,1.31,0,0,0,64.48,111.31Z"/><path class="cls-1" d="M68.53,110.14v-2.91l-.18-1.57-1.35-.3.16-1.34a18.74,18.74,0,0,0,2.1.17l1.59,0,.38.34c-.12,1.59-.18,2.68-.18,3.28v1.83a14.3,14.3,0,0,0,.1,1.77l.06.32,1.17.11-.09,1.37c-.79-.06-1.87-.09-3.22-.09l-1.8.09-.09-1.26,1.18-.22A15,15,0,0,0,68.53,110.14Zm.16-9.89a1.35,1.35,0,0,1,1-.4,1.49,1.49,0,0,1,1,2.47,1.36,1.36,0,0,1-1,.39,1.37,1.37,0,0,1-1-.39,1.4,1.4,0,0,1-.37-1A1.45,1.45,0,0,1,68.69,100.25Z"/><path class="cls-1" d="M80.85,105.23a5.73,5.73,0,0,1,0,6.91,5.08,5.08,0,0,1-6.58,0,5.77,5.77,0,0,1,0-6.91,5.08,5.08,0,0,1,6.58,0Zm-2.07,5.85a7.94,7.94,0,0,0,0-4.79,1.27,1.27,0,0,0-1.22-.73,1.25,1.25,0,0,0-1.21.73,7.94,7.94,0,0,0,0,4.79,1.26,1.26,0,0,0,1.21.74A1.28,1.28,0,0,0,78.78,111.08Z"/><path class="cls-1" d="M89.44,104a3,3,0,0,1,2.24.82,3.38,3.38,0,0,1,.77,2.39v2.37c0,.43,0,1,.12,1.77l0,.32,1.17.11-.09,1.37c-.79-.06-1.87-.09-3.22-.09l-1.55.09-.09-1.26,1-.22c0-.16,0-.38,0-.63s0-.45,0-.61,0-.26,0-.31v-2.66a2,2,0,0,0-.34-1.2,1.18,1.18,0,0,0-1-.45,1.57,1.57,0,0,0-1.23.66,2.86,2.86,0,0,0-.53,1.82v1.29a14.25,14.25,0,0,0,.11,1.77l.06.32,1.17.11-.09,1.37c-.8-.06-1.87-.09-3.23-.09l-1.8.09-.09-1.26,1.19-.22a14,14,0,0,0,.16-1.55v-2.91l-.18-1.57-1.35-.3.16-1.34a19.06,19.06,0,0,0,2.11.17l.87,0,.37.34.18,1.3A3.52,3.52,0,0,1,89.44,104Z"/><path class="cls-1" d="M100.94,105.81a3.22,3.22,0,0,1,2.82-1.79,3.09,3.09,0,0,1,2.63,1.18,5.48,5.48,0,0,1,.89,3.37A4.8,4.8,0,0,1,106.1,112a4.38,4.38,0,0,1-3.34,1.24,14.16,14.16,0,0,1-1.46-.09v.56a12.71,12.71,0,0,0,.15,1.83l0,.35,1.42.1-.09,1.28c-.79-.06-1.86-.09-3.22-.09l-1.8.09-.09-1.17.9-.21a16.14,16.14,0,0,0,.18-1.64v-7l-.18-1.57-1.35-.3.16-1.34a16.28,16.28,0,0,0,2.11.17l.86,0,.38.34Zm2,.25q-1.44,0-1.59,2.34v2.9a4.09,4.09,0,0,0,1.24.25,1.6,1.6,0,0,0,1.44-.67,4,4,0,0,0,.44-2.14C104.42,107,103.91,106.06,102.89,106.06Z"/><path class="cls-1" d="M114.24,104a7.29,7.29,0,0,1,1.26.13l.22,0-.27,3.62-1.33,0v-1s-.05-.36-.15-.94h-.1a1.56,1.56,0,0,0-1.25.66,2.8,2.8,0,0,0-.54,1.82v1.29a14.25,14.25,0,0,0,.11,1.77l.06.32,1.49.11-.09,1.37c-.91-.06-2.05-.09-3.4-.09l-2,.09-.09-1.26,1.22-.22a14,14,0,0,0,.16-1.55v-2.91l-.18-1.57-1.35-.3.17-1.35a17,17,0,0,0,2.1.18l.87,0,.37.34.17,1.19A3,3,0,0,1,114.24,104Z"/><path class="cls-1" d="M124,105.23a5.77,5.77,0,0,1,0,6.91,5.09,5.09,0,0,1-6.59,0,5.77,5.77,0,0,1,0-6.91,5.09,5.09,0,0,1,6.59,0Zm-2.08,5.85a7.94,7.94,0,0,0,0-4.79,1.25,1.25,0,0,0-1.21-.73,1.26,1.26,0,0,0-1.22.73,7.94,7.94,0,0,0,0,4.79,1.27,1.27,0,0,0,1.22.74A1.26,1.26,0,0,0,121.9,111.08Z"/><path class="cls-1" d="M129.72,107.77v5.49a3.38,3.38,0,0,1-.75,1.33c-.51.67-1,1.3-1.51,1.87l-.76.85-.85-.47a18.81,18.81,0,0,0,1.35-4.14v-5.47l-.18-1.57-1.35-.3.17-1.34a18.74,18.74,0,0,0,2.1.17l1.59,0,.37.34C129.78,106.08,129.72,107.17,129.72,107.77Zm-2.46-7.52a1.35,1.35,0,0,1,1-.4,1.49,1.49,0,0,1,1,2.47,1.36,1.36,0,0,1-1,.39,1.37,1.37,0,0,1-1.05-.39,1.4,1.4,0,0,1-.37-1A1.45,1.45,0,0,1,127.26,100.25Z"/><path class="cls-1" d="M131.58,108.7a4.76,4.76,0,0,1,1.18-3.44,4.11,4.11,0,0,1,3.12-1.24,3.57,3.57,0,0,1,2.88,1.1,4.24,4.24,0,0,1,.94,2.83c0,.14,0,.29,0,.45l-.38.7h-4.84a3.11,3.11,0,0,0,.63,1.94,2.1,2.1,0,0,0,1.62.58,4.2,4.2,0,0,0,1.12-.15,3.22,3.22,0,0,0,.8-.3l.26-.14.63,1a5.08,5.08,0,0,1-3.51,1.28,4.31,4.31,0,0,1-3.26-1.22A4.74,4.74,0,0,1,131.58,108.7Zm4.14-3.25a1,1,0,0,0-.94.6,4.8,4.8,0,0,0-.34,1.74l2.39-.15a.49.49,0,0,0,0-.14C136.85,106.13,136.47,105.45,135.72,105.45Z"/><path class="cls-1" d="M144.32,111.31a.83.83,0,0,0,.69.33,1.82,1.82,0,0,0,1-.36l.66,1a4,4,0,0,1-2.52,1,2.42,2.42,0,0,1-1.94-.73,3.41,3.41,0,0,1-.63-2.26v-4.73H140.4l-.06-1.14a13.42,13.42,0,0,0,1.75-.75l1-1.57,1,.07v2h2.14l-.16,1.35h-2v5A1.3,1.3,0,0,0,144.32,111.31Z"/><path class="cls-1" d="M161.78,111.91l-.09,1.26c-.59-.06-1.09-.09-1.51-.09l-3.67.09-.09-1.32,1.06-.16-.09-.93-.25-.9h-3.4l-.31,1.15-.11.68,1.05.22-.09,1.26c-.71-.06-1.35-.09-1.91-.09l-2.5.09-.09-1.32.81-.12.75-1.55,3.4-9.79,2-.2,3.6,10.58.41,1Zm-6.26-7.79-1.3,4.26,2.45,0Z"/><path class="cls-1" d="M164.48,100.39l3.76-.18a6.09,6.09,0,0,1,4.7,1.77,6.71,6.71,0,0,1,1.64,4.74,6.64,6.64,0,0,1-1.64,4.71,6.12,6.12,0,0,1-4.7,1.76l-3.78-.11-1.8.09-.09-1.26,1.19-.22a14,14,0,0,0,.16-1.55v-6.28a11,11,0,0,0-.11-1.69l-.05-.3-1.17-.22.09-1.35Q163.64,100.39,164.48,100.39ZM168,101.7a7.58,7.58,0,0,0-1.2.15c0,.81-.08,1.31-.08,1.47v6.28c0,.79,0,1.46.08,2a11.45,11.45,0,0,0,1.17,0,3,3,0,0,0,2.76-1.35,6.73,6.73,0,0,0,.85-3.63,6.91,6.91,0,0,0-.79-3.53A3,3,0,0,0,168,101.7Z"/><path class="cls-1" d="M177.78,100.39h4.83l2-.18.34.32.13,2.81-1.3.09a10.89,10.89,0,0,0-.16-1.08,1.65,1.65,0,0,0-.18-.41,13.63,13.63,0,0,0-1.42-.07h-2c-.05.86-.07,1.35-.07,1.45v2.58h1.47a2.1,2.1,0,0,0,.79-.16l.16-1.15,1.12.09c0,.76,0,1.26,0,1.49l.06,2.29-1.16.11-.16-1.08a10.19,10.19,0,0,0-1.15-.11h-.56a5.42,5.42,0,0,0-.55,0v2.19c0,.56,0,1.19,0,1.91h2.25a6.9,6.9,0,0,0,1.39-.14,5.12,5.12,0,0,0,.55-1.8l1.26.09-.27,3.17-.34.32c-1.13-.05-1.81-.07-2-.07h-5.08l-1.82.09-.08-1.26,1.18-.22a5.53,5.53,0,0,0,.17-1.55v-6.28a9,9,0,0,0-.17-2l-1.17-.22.09-1.35Q177.14,100.39,177.78,100.39Z"/><path class="cls-1" d="M189.48,100.39H192l.36.36c.37,1.37.63,2.27.77,2.72L195,109.1l2-5.9.74-2.45.36-.36h1.75l2.37-.09.08,1.3-1.15.19a8.74,8.74,0,0,0-.06,1l.58,7.86a5,5,0,0,0,.13.65,2.76,2.76,0,0,1,.1.4l1.21.1-.09,1.32q-1.31-.09-3.24-.09l-1.86.09-.09-1.21,1.21-.21c.05-.55.07-1.08.07-1.59l-.29-6.41-3.31,9.33h-1.65l-3.23-9.33-.34,6.41c0,.51,0,1,.07,1.59l1.23.1-.11,1.32c-.55-.06-1.48-.09-2.77-.09l-1.82.09-.09-1.21,1.22-.21c.05-.16.13-.51.25-1l.51-7.86a6.83,6.83,0,0,0-.11-1l-1.21-.21.09-1.3C188.33,100.36,189,100.39,189.48,100.39Z"/><path class="cls-1" d="M206.51,100.39h4.82l2.06-.18.34.32.12,2.81-1.29.09c-.07-.58-.13-.93-.16-1.08a1.65,1.65,0,0,0-.18-.41,13.83,13.83,0,0,0-1.43-.07h-2c0,.86-.07,1.35-.07,1.45v2.58h1.48a2.14,2.14,0,0,0,.79-.16l.16-1.15,1.12.09c0,.76,0,1.26,0,1.49l.06,2.29-1.16.11L211,107.5a10.19,10.19,0,0,0-1.15-.11h-.56c-.29,0-.47,0-.56,0v2.19c0,.56,0,1.19.06,1.91h2.25a6.73,6.73,0,0,0,1.38-.14,4.93,4.93,0,0,0,.56-1.8l1.26.09-.27,3.17-.34.32c-1.13-.05-1.81-.07-2-.07h-5.08l-1.82.09-.09-1.26,1.19-.22a5.59,5.59,0,0,0,.16-1.55v-6.28a9.08,9.08,0,0,0-.16-2l-1.17-.22.09-1.35Q205.86,100.39,206.51,100.39Z"/><path class="cls-1" d="M219.26,104.71a1.26,1.26,0,0,1,1-.4,1.28,1.28,0,0,1,1,.39,1.74,1.74,0,0,1,0,2.09,1.28,1.28,0,0,1-1,.39,1.26,1.26,0,0,1-1-.39,1.72,1.72,0,0,1,0-2.08Zm0,6.17a1.26,1.26,0,0,1,1-.39,1.31,1.31,0,0,1,1,.38,1.53,1.53,0,0,1,.35,1,1.5,1.5,0,0,1-.35,1,1.28,1.28,0,0,1-1,.39,1.26,1.26,0,0,1-1-.39,1.49,1.49,0,0,1-.35-1A1.57,1.57,0,0,1,219.26,110.88Z"/><path class="cls-1" d="M226.36,101.79a10.94,10.94,0,0,1,3.7-.63,4.92,4.92,0,0,1,3,.81,2.67,2.67,0,0,1,1.07,2.25,4.83,4.83,0,0,1-1,2.86,25.17,25.17,0,0,1-3.94,3.87h2.16a6.45,6.45,0,0,0,1.57-.18l.29-.91.12-.67,1.41.11-.15,3.47-.54.36-2,0H226.2L226,111.3a40.16,40.16,0,0,0,4.22-4.22,4.34,4.34,0,0,0,1.07-2.59,1.51,1.51,0,0,0-.44-1.16,1.69,1.69,0,0,0-1.2-.4,3.16,3.16,0,0,0-1.54.43,2.41,2.41,0,0,0-.15.68v.78l-1.42.09Z"/><path class="cls-1" d="M240.22,103.7h-1.69l-.16,2.56a7.35,7.35,0,0,1,1.12-.08,4.41,4.41,0,0,1,3,.94,3.3,3.3,0,0,1,1.05,2.59q0,4.2-6.93,5.26l-.39-1.33a9.16,9.16,0,0,0,3.45-1.36,2.59,2.59,0,0,0,1.07-2.15,1.85,1.85,0,0,0-2.09-2.09,5.63,5.63,0,0,0-1.6.25l-.85-1,.45-5.65.34-.33h1.59l4.37-.18.11,2.29C241.53,103.62,240.58,103.7,240.22,103.7Z"/><path class="cls-1" d="M245.3,106.34a4,4,0,0,1-.77-2.55,4,4,0,0,1,.77-2.54,3.31,3.31,0,0,1,4.72,0,4,4,0,0,1,.77,2.54,4.09,4.09,0,0,1-.77,2.55,3.28,3.28,0,0,1-4.72,0Zm2.37-.21c.75,0,1.12-.78,1.12-2.34s-.37-2.34-1.12-2.34-1.13.78-1.13,2.34S246.92,106.13,247.67,106.13Zm7.19-6,1.26.81-7.63,13-1.28-.81Zm1.78,13.1a3,3,0,0,1-2.48-1,4.69,4.69,0,0,1,0-5.24,2.94,2.94,0,0,1,2.48-1,2.91,2.91,0,0,1,2.47,1,4.64,4.64,0,0,1,0,5.24A2.93,2.93,0,0,1,256.64,113.22Zm-1.19-3.64c0,1.6.4,2.4,1.19,2.4s1.19-.8,1.19-2.4-.4-2.4-1.19-2.4S255.45,108,255.45,109.58Z"/><circle class="cls-2" cx="403.19" cy="93.67" r="93.67"/><path class="cls-3" d="M350.22,117.36c-.44,0-.87-.71-1.27-2.11a13,13,0,0,1-.6-3.28,3.63,3.63,0,0,1,.2-1.51l16.93-20.74A9.8,9.8,0,0,0,368,83.63a5.23,5.23,0,0,0-1.74-4.34,6.24,6.24,0,0,0-4-1.41,9.88,9.88,0,0,0-4,.74,21.81,21.81,0,0,0-2.77,1.43,3.84,3.84,0,0,1-1.51.71,3.3,3.3,0,0,1-2.64-1.61,5.2,5.2,0,0,1-1.17-3c0-1.87,1.36-3.37,4.08-4.48A24.06,24.06,0,0,1,363.47,70q6.9,0,10.74,3.62a12.4,12.4,0,0,1,3.85,9.5A17,17,0,0,1,374,94L361.4,109.53h15.45c1.34,0,2,1.11,2,3.34V114c0,2.23-.67,3.35-2,3.35Z"/><path class="cls-3" d="M387.16,113.07a7.09,7.09,0,0,1,1.27-3.17c.85-1.41,1.63-2.11,2.34-2.11a7.3,7.3,0,0,1,1.47.6,18.58,18.58,0,0,0,7.53,1.67,7.88,7.88,0,0,0,5.65-1.84,6.89,6.89,0,0,0,1.94-5.28,7,7,0,0,0-1.94-5.32q-1.94-1.87-6.42-1.88h-7.29a2.51,2.51,0,0,1-1.94-.6,3.1,3.1,0,0,1-.54-2.07L390.5,73.2a3.26,3.26,0,0,1,.77-2,2.79,2.79,0,0,1,2-.64h19.74c1.34,0,2,1.12,2,3.35v1.8c0,1.79-.67,2.68-2,2.68H399.54l-.67,9.57h1.74q8.16,0,12.47,3.41t4.32,11.57a15.61,15.61,0,0,1-1.51,7.1,11.74,11.74,0,0,1-4,4.68,19.67,19.67,0,0,1-11,3.21,29,29,0,0,1-9.91-1.4Q387.17,115.08,387.16,113.07Z"/><path class="cls-3" d="M446.17,81.23q0,11.24-10,11.24t-10-11.24q0-11.25,10-11.25T446.17,81.23Zm-13.25.13q0,5.63,3.18,5.62t3.18-5.62q0-5.62-3.18-5.62T432.92,81.36Zm.4,35.26a2.46,2.46,0,0,1,.34-1l23.88-43.36a3.28,3.28,0,0,1,2.95-1.87h2.94q1.41,0,1.41.93a2.54,2.54,0,0,1-.34.94l-23.88,43.36a3.28,3.28,0,0,1-2.95,1.87h-2.94Q433.32,117.49,433.32,116.62ZM462,117.89q-10,0-10-11.24t10-11.24q10,0,10,11.24T462,117.89Zm0-16.73c-2.11,0-3.17,1.88-3.17,5.62s1.06,5.63,3.17,5.63,3.18-1.88,3.18-5.63S464.11,101.16,462,101.16Z"/></g></g></svg>