<svg xmlns="http://www.w3.org/2000/svg" viewBox="0 0 446.7 174.47"><defs><style>.cls-1{fill:#737378;}.cls-2{fill:#4fb6ab;opacity:0.4;}.cls-3{fill:#fff;}</style></defs><title>budget5</title><g id="Calque_2" data-name="Calque 2"><g id="_0" data-name="0"><path class="cls-1" d="M6.3,150.35a6,6,0,0,1-4.68-1.79,8,8,0,0,1,0-9.64,6,6,0,0,1,4.68-1.8,17.28,17.28,0,0,1,3.89.61L10,141l-1.38-.07-.06-1.1a2.73,2.73,0,0,0-.21-.73,9.55,9.55,0,0,0-2-.26A2.46,2.46,0,0,0,4,140.14a7.4,7.4,0,0,0-.75,3.59A7.57,7.57,0,0,0,4,147.32a2.45,2.45,0,0,0,2.3,1.36,10.39,10.39,0,0,0,2.23-.27,1.16,1.16,0,0,0,.09-.25c.05-.14.1-.26.14-.39a.86.86,0,0,0,.06-.25l.06-.84,1.35,0,.14,3.1A17.65,17.65,0,0,1,6.3,150.35Z"/><path class="cls-1" d="M19.17,142.23a5.77,5.77,0,0,1,0,6.91,4.33,4.33,0,0,1-3.29,1.21,4.33,4.33,0,0,1-3.3-1.21,5.77,5.77,0,0,1,0-6.91,4.37,4.37,0,0,1,3.3-1.21A4.36,4.36,0,0,1,19.17,142.23Zm-2.08,5.85a7.94,7.94,0,0,0,0-4.79,1.38,1.38,0,0,0-2.43,0,7.94,7.94,0,0,0,0,4.79,1.37,1.37,0,0,0,2.43,0Z"/><path class="cls-1" d="M25,148.31a.83.83,0,0,0,.69.33,1.82,1.82,0,0,0,1-.36l.66,1a4,4,0,0,1-2.52.95,2.42,2.42,0,0,1-1.94-.73,3.41,3.41,0,0,1-.63-2.26v-4.73H21.08L21,141.4a13.42,13.42,0,0,0,1.75-.75l1-1.57,1,.07v2h2.14l-.16,1.35h-2v5A1.3,1.3,0,0,0,25,148.31Z"/><path class="cls-1" d="M29.05,147.15v-2.92l-.18-1.57-1.35-.3.16-1.34a18.88,18.88,0,0,0,2.11.17l1.58,0,.38.34c-.12,1.59-.18,2.68-.18,3.28v1.84a14.21,14.21,0,0,0,.11,1.76l.05.32,1.17.11-.09,1.37c-.79-.06-1.86-.09-3.22-.09l-1.8.09-.09-1.26,1.19-.22A14.1,14.1,0,0,0,29.05,147.15Zm.16-9.9a1.58,1.58,0,0,1,2.09,0,1.63,1.63,0,0,1,0,2.08,1.62,1.62,0,0,1-2.11,0,1.65,1.65,0,0,1,0-2.07Z"/><path class="cls-1" d="M34.69,141.7a4,4,0,0,1,2.43-.68,9.53,9.53,0,0,1,2.91.44l-.21,2.84-1.21-.09v-.77a2,2,0,0,0-.25-.69,3.1,3.1,0,0,0-1.26-.28c-.78,0-1.17.22-1.17.68a.72.72,0,0,0,.47.62,8,8,0,0,0,1.12.5c.44.17.88.36,1.31.57a3,3,0,0,1,1.13,1,2.79,2.79,0,0,1,.47,1.62,2.48,2.48,0,0,1-1,2.08,4.06,4.06,0,0,1-2.56.73,14.32,14.32,0,0,1-2.68-.32l-.51-.09.22-3,1.28.09v.8a.92.92,0,0,0,0,.22c0,.11,0,.19.06.25s0,.13.06.2a4.26,4.26,0,0,0,1.52.4,1.64,1.64,0,0,0,.88-.21.65.65,0,0,0,.33-.58.77.77,0,0,0-.45-.64,6,6,0,0,0-1.08-.52,10.71,10.71,0,0,1-1.27-.56,3.11,3.11,0,0,1-1.08-1,2.85,2.85,0,0,1-.45-1.62A2.35,2.35,0,0,1,34.69,141.7Z"/><path class="cls-1" d="M44.06,150.26a2.69,2.69,0,0,1-1.93-.68,2.47,2.47,0,0,1-.71-1.88c0-1.4.79-2.23,2.37-2.48l2.56-.41v-.53A2,2,0,0,0,46,143a1.3,1.3,0,0,0-1-.37,3.5,3.5,0,0,0-1.46.34l-.12.73v.77l-1.35.05-.27-3a14.3,14.3,0,0,1,3.3-.49,4.12,4.12,0,0,1,2.77.86,3,3,0,0,1,1,2.39v2.34a14.21,14.21,0,0,0,.11,1.76l.05.32,1.08.11L50,150.17c-.58-.06-1.69-.09-3.31-.09l-.14-1.3A2.65,2.65,0,0,1,44.06,150.26Zm0-2.95c0,.73.33,1.1,1,1.1a1.19,1.19,0,0,0,.81-.31,1.7,1.7,0,0,0,.49-.85V146l-1.33.21a1,1,0,0,0-.94,1.12Z"/><path class="cls-1" d="M54.56,148.31a.81.81,0,0,0,.68.33,1.8,1.8,0,0,0,1-.36l.67,1a4,4,0,0,1-2.52.95,2.39,2.39,0,0,1-1.94-.73,3.41,3.41,0,0,1-.63-2.26v-4.73H50.63l-.05-1.14a13.42,13.42,0,0,0,1.75-.75l1-1.57,1,.07v2h2.14l-.16,1.35h-2v5A1.3,1.3,0,0,0,54.56,148.31Z"/><path class="cls-1" d="M58.61,147.15v-2.92l-.18-1.57-1.35-.3.16-1.34a18.71,18.71,0,0,0,2.11.17l1.58,0,.38.34c-.12,1.59-.18,2.68-.18,3.28v1.84a14.25,14.25,0,0,0,.1,1.76l.06.32,1.17.11-.09,1.37c-.79-.06-1.87-.09-3.22-.09l-1.8.09-.09-1.26,1.18-.22A15.15,15.15,0,0,0,58.61,147.15Zm.16-9.9a1.35,1.35,0,0,1,1-.4,1.31,1.31,0,0,1,1.42,1.43,1.45,1.45,0,0,1-.36,1,1.43,1.43,0,0,1-2.48-1A1.45,1.45,0,0,1,58.77,137.25Z"/><path class="cls-1" d="M70.94,142.23a5.77,5.77,0,0,1,0,6.91,5.09,5.09,0,0,1-6.59,0,5.77,5.77,0,0,1,0-6.91,5.09,5.09,0,0,1,6.59,0Zm-2.08,5.85a7.94,7.94,0,0,0,0-4.79,1.26,1.26,0,0,0-1.22-.73,1.25,1.25,0,0,0-1.21.73,7.94,7.94,0,0,0,0,4.79,1.26,1.26,0,0,0,1.21.74A1.27,1.27,0,0,0,68.86,148.08Z"/><path class="cls-1" d="M79.52,141a2.93,2.93,0,0,1,2.24.82,3.4,3.4,0,0,1,.77,2.39v2.38c0,.42,0,1,.12,1.76l0,.32,1.17.11-.09,1.37c-.79-.06-1.87-.09-3.22-.09l-1.55.09-.09-1.26,1-.22q0-.24,0-.63c0-.25,0-.45,0-.61s0-.26,0-.3v-2.67a2,2,0,0,0-.33-1.2,1.21,1.21,0,0,0-1-.45,1.54,1.54,0,0,0-1.22.66,2.82,2.82,0,0,0-.54,1.82v1.3a14.21,14.21,0,0,0,.11,1.76l.06.32,1.17.11-.09,1.37c-.8-.06-1.87-.09-3.23-.09l-1.8.09L73,148.91l1.19-.22a14.1,14.1,0,0,0,.16-1.54v-2.92l-.18-1.57-1.35-.3L73,141a18.74,18.74,0,0,0,2.1.17l.87,0,.37.34.18,1.3A3.52,3.52,0,0,1,79.52,141Z"/><path class="cls-1" d="M85.48,141.7a4,4,0,0,1,2.44-.68,9.58,9.58,0,0,1,2.91.44l-.22,2.84-1.21-.09v-.77a2,2,0,0,0-.25-.69,3.1,3.1,0,0,0-1.26-.28c-.78,0-1.17.22-1.17.68a.74.74,0,0,0,.47.62,8.21,8.21,0,0,0,1.13.5c.43.17.87.36,1.31.57a3,3,0,0,1,1.12,1,2.72,2.72,0,0,1,.47,1.62,2.47,2.47,0,0,1-.94,2.08,4.09,4.09,0,0,1-2.57.73,14.41,14.41,0,0,1-2.68-.32l-.5-.09.21-3L86,147v.8a1.16,1.16,0,0,0,0,.22c0,.11.05.19.06.25a1.94,1.94,0,0,0,.05.2,4.31,4.31,0,0,0,1.52.4,1.68,1.68,0,0,0,.89-.21.65.65,0,0,0,.33-.58.77.77,0,0,0-.45-.64,6,6,0,0,0-1.08-.52,10,10,0,0,1-1.27-.56,3.05,3.05,0,0,1-1.09-1,2.85,2.85,0,0,1-.45-1.62A2.35,2.35,0,0,1,85.48,141.7Z"/><path class="cls-1" d="M98.08,150.26a2.71,2.71,0,0,1-1.94-.68,2.5,2.5,0,0,1-.71-1.88c0-1.4.8-2.23,2.38-2.48l2.56-.41v-.53a2,2,0,0,0-.31-1.25,1.3,1.3,0,0,0-1-.37,3.46,3.46,0,0,0-1.46.34l-.13.73,0,.77-1.35.05-.27-3a14.22,14.22,0,0,1,3.29-.49,4.13,4.13,0,0,1,2.78.86,3,3,0,0,1,1,2.39v2.34a14.25,14.25,0,0,0,.1,1.76l.06.32,1.08.11-.11,1.37c-.59-.06-1.69-.09-3.31-.09l-.15-1.3A2.64,2.64,0,0,1,98.08,150.26Zm0-2.95c0,.73.32,1.1,1,1.1a1.2,1.2,0,0,0,.81-.31,1.7,1.7,0,0,0,.49-.85V146l-1.34.21a1,1,0,0,0-.93,1.12Z"/><path class="cls-1" d="M111,148.73a3.21,3.21,0,0,1-2.73,1.53,3,3,0,0,1-2.55-1.17,5.47,5.47,0,0,1-.89-3.38,4.81,4.81,0,0,1,1.17-3.44,4.39,4.39,0,0,1,3.34-1.25c.4,0,.89,0,1.46.1v-1.61l-.18-1.56-1.35-.31.16-1.35a17.12,17.12,0,0,0,2.11.18l1.58,0,.38.34q-.18,2.37-.18,3.27v6.56a14.21,14.21,0,0,0,.11,1.76l.05.32,1.08.11-.1,1.37c-.59-.06-1.7-.09-3.32-.09Zm-1.44-6a1.59,1.59,0,0,0-1.43.67,4,4,0,0,0-.44,2.14c0,1.79.51,2.69,1.53,2.69s1.49-.78,1.58-2.34V143A4,4,0,0,0,109.51,142.73Z"/><path class="cls-1" d="M119.19,140.05v2.2A3.09,3.09,0,0,1,121.7,141a3.15,3.15,0,0,1,2.32.82,3.28,3.28,0,0,1,.81,2.39v2.38a12.51,12.51,0,0,0,.11,1.76l0,.32,1.17.11-.09,1.37c-.79-.06-1.87-.09-3.22-.09l-1.55.09-.09-1.26,1-.22q0-.24,0-.63c0-.25,0-.45,0-.61s0-.26,0-.3v-2.67a2,2,0,0,0-.34-1.2,1.18,1.18,0,0,0-1-.45,1.57,1.57,0,0,0-1.23.66,2.88,2.88,0,0,0-.53,1.82v1.3c0,.42,0,1,.13,1.76l0,.32,1.17.11-.09,1.37c-.8-.06-1.87-.09-3.23-.09l-1.8.09-.09-1.26,1.19-.22a8.39,8.39,0,0,0,.16-1.54v-7.64l-.18-1.56-1.35-.31.17-1.35a17,17,0,0,0,2.1.18l1.59,0,.37.34Q119.19,138.7,119.19,140.05Z"/><path class="cls-1" d="M126.74,145.71a4.81,4.81,0,0,1,1.17-3.45A4.15,4.15,0,0,1,131,141a3.6,3.6,0,0,1,2.88,1.1,4.25,4.25,0,0,1,.93,2.83c0,.14,0,.29,0,.45l-.38.7h-4.84a3.16,3.16,0,0,0,.63,2,2.13,2.13,0,0,0,1.62.57,4.26,4.26,0,0,0,1.12-.15,3.39,3.39,0,0,0,.8-.3L134,148l.63,1a5,5,0,0,1-3.51,1.28,4.3,4.3,0,0,1-3.25-1.22A4.73,4.73,0,0,1,126.74,145.71Zm6-9.22.85,1.37L131.11,139l-1.21.88-.84-1Zm-1.9,6a1,1,0,0,0-.94.6,4.59,4.59,0,0,0-.34,1.74l2.39-.15c0-.07,0-.12,0-.14C132,143.13,131.63,142.45,130.88,142.45Z"/><path class="cls-1" d="M141.82,141a7.49,7.49,0,0,1,1.26.13l.22.06-.27,3.61-1.34,0v-1c0-.05,0-.36-.14-.94h-.11a1.56,1.56,0,0,0-1.25.66,2.88,2.88,0,0,0-.53,1.82v1.3a14.21,14.21,0,0,0,.11,1.76l0,.32,1.5.11-.09,1.37c-.92-.06-2-.09-3.41-.09l-2,.09-.09-1.26,1.23-.22a14.1,14.1,0,0,0,.16-1.54v-2.92l-.18-1.57-1.35-.3.16-1.35a17,17,0,0,0,2.11.18l.86,0,.38.34.16,1.19A3.05,3.05,0,0,1,141.82,141Z"/><path class="cls-1" d="M143.82,145.71a4.77,4.77,0,0,1,1.18-3.45,4.11,4.11,0,0,1,3.12-1.24,3.57,3.57,0,0,1,2.88,1.1,4.26,4.26,0,0,1,.94,2.83c0,.14,0,.29,0,.45l-.38.7H146.7a3.16,3.16,0,0,0,.63,2,2.13,2.13,0,0,0,1.62.57,4.2,4.2,0,0,0,1.12-.15,3.22,3.22,0,0,0,.8-.3l.26-.14.63,1a5.08,5.08,0,0,1-3.51,1.28,4.31,4.31,0,0,1-3.26-1.22A4.73,4.73,0,0,1,143.82,145.71Zm4.14-3.26a1,1,0,0,0-.94.6,4.8,4.8,0,0,0-.34,1.74l2.39-.15a.49.49,0,0,0,0-.14C149.09,143.13,148.71,142.45,148,142.45Z"/><path class="cls-1" d="M159.32,141a3,3,0,0,1,2.24.82,3.4,3.4,0,0,1,.76,2.39v2.38a15.71,15.71,0,0,0,.13,1.76l0,.32,1.17.11-.09,1.37c-.79-.06-1.86-.09-3.22-.09l-1.55.09-.09-1.26,1-.22c0-.16,0-.37,0-.63s0-.45,0-.61a2.2,2.2,0,0,0,0-.3v-2.67a2,2,0,0,0-.33-1.2,1.2,1.2,0,0,0-1-.45,1.54,1.54,0,0,0-1.22.66,2.82,2.82,0,0,0-.53,1.82v1.3a12.51,12.51,0,0,0,.11,1.76l0,.32,1.17.11-.09,1.37c-.79-.06-1.87-.09-3.22-.09l-1.8.09-.09-1.26,1.19-.22c.1-.79.16-1.3.16-1.54v-2.92l-.18-1.57-1.35-.3.16-1.34a18.71,18.71,0,0,0,2.11.17l.86,0,.38.34.18,1.3A3.51,3.51,0,0,1,159.32,141Z"/><path class="cls-1" d="M168,148.31a.82.82,0,0,0,.68.33,1.82,1.82,0,0,0,1-.36l.66,1a4,4,0,0,1-2.52.95,2.42,2.42,0,0,1-1.94-.73,3.41,3.41,0,0,1-.63-2.26v-4.73h-1.15L164,141.4a13.42,13.42,0,0,0,1.75-.75l1-1.57,1,.07v2h2.14l-.16,1.35h-2v5A1.3,1.3,0,0,0,168,148.31Z"/><path class="cls-1" d="M171.72,141.7a4,4,0,0,1,2.44-.68,9.51,9.51,0,0,1,2.9.44l-.21,2.84-1.21-.09v-.77a2,2,0,0,0-.25-.69,3.1,3.1,0,0,0-1.26-.28c-.78,0-1.17.22-1.17.68a.72.72,0,0,0,.47.62,8,8,0,0,0,1.12.5q.66.25,1.32.57a3.09,3.09,0,0,1,1.12,1,2.79,2.79,0,0,1,.47,1.62,2.48,2.48,0,0,1-1,2.08,4.06,4.06,0,0,1-2.56.73,14.32,14.32,0,0,1-2.68-.32l-.51-.09.22-3,1.28.09v.8a.92.92,0,0,0,0,.22c0,.11,0,.19.07.25a1.94,1.94,0,0,0,0,.2,4.26,4.26,0,0,0,1.52.4,1.61,1.61,0,0,0,.88-.21.66.66,0,0,0,.34-.58.79.79,0,0,0-.45-.64,6.17,6.17,0,0,0-1.09-.52,10.59,10.59,0,0,1-1.26-.56,3.05,3.05,0,0,1-1.09-1,2.85,2.85,0,0,1-.45-1.62A2.35,2.35,0,0,1,171.72,141.7Z"/><path class="cls-1" d="M182.33,141.71a1.41,1.41,0,0,1,2,0,1.74,1.74,0,0,1,0,2.09,1.43,1.43,0,0,1-2,0,1.46,1.46,0,0,1-.35-1A1.47,1.47,0,0,1,182.33,141.71Zm0,6.17a1.24,1.24,0,0,1,1-.39,1.27,1.27,0,0,1,1,.38,1.53,1.53,0,0,1,.35,1,1.5,1.5,0,0,1-.35,1,1.43,1.43,0,0,1-2,0,1.45,1.45,0,0,1-.35-1A1.52,1.52,0,0,1,182.33,147.88Z"/><path class="cls-1" d="M189.43,138.79a10.9,10.9,0,0,1,3.7-.63,4.87,4.87,0,0,1,3,.81,2.65,2.65,0,0,1,1.07,2.25,4.88,4.88,0,0,1-1,2.86,26.56,26.56,0,0,1-3.94,3.88h2.16a6,6,0,0,0,1.56-.19l.29-.91.13-.67,1.4.11-.14,3.47-.54.36-2,0h-5.86L189,148.3a40.16,40.16,0,0,0,4.22-4.22,4.29,4.29,0,0,0,1.08-2.59,1.48,1.48,0,0,0-.45-1.16,1.68,1.68,0,0,0-1.19-.4,3.19,3.19,0,0,0-1.55.43,2.31,2.31,0,0,0-.14.68v.78l-1.43.09Z"/><path class="cls-1" d="M199.27,138.79a10.94,10.94,0,0,1,3.7-.63,4.9,4.9,0,0,1,3,.81,2.67,2.67,0,0,1,1.07,2.25,4.83,4.83,0,0,1-1,2.86,25.58,25.58,0,0,1-3.94,3.88h2.16a6,6,0,0,0,1.57-.19l.29-.91.12-.67,1.41.11-.15,3.47-.54.36-2,0h-5.87l-.25-1.78a40.16,40.16,0,0,0,4.22-4.22,4.34,4.34,0,0,0,1.07-2.59,1.51,1.51,0,0,0-.44-1.16,1.69,1.69,0,0,0-1.2-.4,3.16,3.16,0,0,0-1.54.43,2.41,2.41,0,0,0-.15.68v.78l-1.42.09Z"/><path class="cls-1" d="M209.46,143.34a4.09,4.09,0,0,1-.77-2.55,4,4,0,0,1,.77-2.54,3.31,3.31,0,0,1,4.72,0,4,4,0,0,1,.77,2.54,4.09,4.09,0,0,1-.77,2.55,3.28,3.28,0,0,1-4.72,0Zm2.37-.21c.75,0,1.12-.78,1.12-2.34s-.37-2.34-1.12-2.34-1.13.78-1.13,2.34S211.08,143.13,211.83,143.13Zm7.19-6,1.26.81-7.63,13-1.28-.81Zm1.78,13.1a3,3,0,0,1-2.47-1,4.69,4.69,0,0,1,0-5.24,3.49,3.49,0,0,1,4.95,0,4.69,4.69,0,0,1,0,5.24A3,3,0,0,1,220.8,150.22Zm-1.19-3.64c0,1.6.4,2.4,1.19,2.4s1.19-.8,1.19-2.4-.4-2.4-1.19-2.4S219.61,145,219.61,146.58Z"/><circle class="cls-2" cx="359.46" cy="87.24" r="87.24"/><path class="cls-3" d="M310.13,109.29c-.41,0-.81-.65-1.18-2a12.2,12.2,0,0,1-.56-3,3.13,3.13,0,0,1,.19-1.4l15.76-19.32a9.12,9.12,0,0,0,2.37-5.67,4.89,4.89,0,0,0-1.62-4,5.84,5.84,0,0,0-3.77-1.31,9.31,9.31,0,0,0-3.71.68A20.1,20.1,0,0,0,315,74.55a3.56,3.56,0,0,1-1.41.66,3.07,3.07,0,0,1-2.46-1.5,4.87,4.87,0,0,1-1.09-2.8q0-2.62,3.8-4.18a22.69,22.69,0,0,1,8.6-1.55q6.42,0,10,3.36a11.57,11.57,0,0,1,3.59,8.85,15.8,15.8,0,0,1-3.8,10.16L320.54,102h14.39c1.25,0,1.87,1,1.87,3.12v1.06c0,2.07-.62,3.11-1.87,3.11Z"/><path class="cls-3" d="M346,109.29c-.41,0-.81-.65-1.18-2a12.2,12.2,0,0,1-.56-3,3.13,3.13,0,0,1,.19-1.4l15.76-19.32a9.12,9.12,0,0,0,2.37-5.67,4.89,4.89,0,0,0-1.62-4,5.84,5.84,0,0,0-3.77-1.31,9.31,9.31,0,0,0-3.71.68,21,21,0,0,0-2.59,1.34,3.48,3.48,0,0,1-1.4.66,3.07,3.07,0,0,1-2.46-1.5,4.81,4.81,0,0,1-1.09-2.8q0-2.62,3.8-4.18a22.69,22.69,0,0,1,8.6-1.55q6.42,0,10,3.36a11.57,11.57,0,0,1,3.59,8.85,15.76,15.76,0,0,1-3.81,10.16L356.37,102h14.39c1.25,0,1.87,1,1.87,3.12v1.06c0,2.07-.62,3.11-1.87,3.11Z"/><path class="cls-3" d="M399.49,75.64q0,10.47-9.35,10.47t-9.35-10.47q0-10.45,9.35-10.46T399.49,75.64Zm-12.34.13q0,5.24,3,5.23t3-5.23q0-5.23-3-5.23T387.15,75.77Zm.37,32.84a2.43,2.43,0,0,1,.32-.94L410.08,67.3a3,3,0,0,1,2.74-1.75h2.74c.88,0,1.31.29,1.31.87a2.4,2.4,0,0,1-.31.88l-22.24,40.37a3.05,3.05,0,0,1-2.75,1.75h-2.74C388,109.42,387.52,109.15,387.52,108.61Zm26.74,1.18q-9.36,0-9.35-10.47t9.35-10.47q9.35,0,9.34,10.47T414.26,109.79Zm0-15.58c-2,0-3,1.75-3,5.24s1,5.23,3,5.23,3-1.74,3-5.23S416.2,94.21,414.23,94.21Z"/></g></g></svg>