<svg xmlns="http://www.w3.org/2000/svg" viewBox="0 0 226.6 102.45"><defs><style>.cls-1{fill:#737378;}.cls-2{fill:#00abb8;opacity:0.4;}.cls-3{fill:#fff;}</style></defs><title>budget6</title><g id="Calque_2" data-name="Calque 2"><g id="_0" data-name="0"><path class="cls-1" d="M1.89,87.87l3.87-.18a4.45,4.45,0,0,1,3.09,1A3.67,3.67,0,0,1,10,91.62a3.57,3.57,0,0,1-1.43,3,5.54,5.54,0,0,1-3.45,1.1h-1v1.41a14.66,14.66,0,0,0,.16,2.09l1.35.1-.09,1.37c-1.09-.06-2.31-.09-3.67-.09l-1.8.09L0,99.39l1.19-.21.16-1.55V91.35a16.72,16.72,0,0,0-.16-2L0,89.13l.09-1.35C.73,87.84,1.33,87.87,1.89,87.87Zm2.83,1.3-.51,0c0,.62-.07,1.16-.07,1.62v3.4h.31a2.7,2.7,0,0,0,2-.69,3.1,3.1,0,0,0,.14-3.77A2.42,2.42,0,0,0,4.72,89.17Z"/><path class="cls-1" d="M16.61,91.51a7.22,7.22,0,0,1,1.26.12l.22.06-.27,3.62-1.33-.06v-1q0-.08-.15-.93a.15.15,0,0,0-.1,0A1.56,1.56,0,0,0,15,94a2.82,2.82,0,0,0-.54,1.82v1.3a14.21,14.21,0,0,0,.11,1.76l.06.33,1.49.1L16,100.65c-.91-.06-2-.09-3.4-.09l-2,.09-.09-1.26,1.22-.21a14.43,14.43,0,0,0,.16-1.55V94.71l-.18-1.56-1.35-.31.17-1.35a17,17,0,0,0,2.1.18l.87,0,.37.35.17,1.18A3,3,0,0,1,16.61,91.51Z"/><path class="cls-1" d="M18.61,96.19a4.77,4.77,0,0,1,1.18-3.45,4.13,4.13,0,0,1,3.12-1.23,3.54,3.54,0,0,1,2.88,1.1,4.16,4.16,0,0,1,.94,2.82c0,.15,0,.3,0,.45l-.38.7H21.49a3.14,3.14,0,0,0,.63,2,2.13,2.13,0,0,0,1.62.57A4.28,4.28,0,0,0,24.87,99a3.57,3.57,0,0,0,.8-.3l.25-.14.63,1A5,5,0,0,1,23,100.83a4.32,4.32,0,0,1-3.26-1.21A4.76,4.76,0,0,1,18.61,96.19Zm4.14-3.26a1,1,0,0,0-.93.6,4.61,4.61,0,0,0-.35,1.74l2.4-.14c0-.08,0-.12,0-.15C23.89,93.61,23.51,92.93,22.75,92.93Z"/><path class="cls-1" d="M28.62,92.18a4,4,0,0,1,2.44-.67,9.62,9.62,0,0,1,2.91.43l-.22,2.84-1.21-.09v-.77a1.89,1.89,0,0,0-.25-.68A3,3,0,0,0,31,93c-.78,0-1.17.23-1.17.68a.74.74,0,0,0,.47.62,7.42,7.42,0,0,0,1.12.51c.44.16.88.35,1.32.56a3,3,0,0,1,1.12,1,2.72,2.72,0,0,1,.47,1.62,2.46,2.46,0,0,1-.94,2.08,4.09,4.09,0,0,1-2.57.73,14.41,14.41,0,0,1-2.68-.32l-.5-.09.21-3,1.28.09v.81a.87.87,0,0,0,0,.21c0,.11.06.2.07.26a1.8,1.8,0,0,0,.05.19,4.31,4.31,0,0,0,1.52.4,1.61,1.61,0,0,0,.88-.21.63.63,0,0,0,.34-.57.79.79,0,0,0-.45-.65,5.44,5.44,0,0,0-1.08-.51,11.81,11.81,0,0,1-1.27-.57,3,3,0,0,1-1.09-1,2.81,2.81,0,0,1-.45-1.62A2.35,2.35,0,0,1,28.62,92.18Z"/><path class="cls-1" d="M39.08,98.79a.81.81,0,0,0,.68.33,1.8,1.8,0,0,0,1-.36l.67,1a4,4,0,0,1-2.52.95,2.39,2.39,0,0,1-1.94-.73,3.39,3.39,0,0,1-.63-2.26V93H35.15l0-1.13a14.19,14.19,0,0,0,1.75-.76l1-1.57,1,.08v2H41L40.81,93h-2v5A1.27,1.27,0,0,0,39.08,98.79Z"/><path class="cls-1" d="M44.44,100.74a2.67,2.67,0,0,1-1.93-.68,2.46,2.46,0,0,1-.72-1.87c0-1.41.8-2.24,2.38-2.49l2.56-.41v-.52a2,2,0,0,0-.31-1.25,1.26,1.26,0,0,0-1-.37,3.32,3.32,0,0,0-1.46.34l-.13.72,0,.77L42.46,95,42.19,92a14.14,14.14,0,0,1,3.29-.48,4.13,4.13,0,0,1,2.78.85,3,3,0,0,1,1,2.39v2.34a14.25,14.25,0,0,0,.1,1.76l.06.33,1.08.1-.11,1.37c-.59-.06-1.69-.09-3.31-.09l-.15-1.29A2.64,2.64,0,0,1,44.44,100.74Zm0-2.95c0,.73.32,1.1,1,1.1a1.16,1.16,0,0,0,.81-.31,1.67,1.67,0,0,0,.49-.84V96.46l-1.33.21a1,1,0,0,0-.94,1.12Z"/><path class="cls-1" d="M54.94,98.79a.8.8,0,0,0,.68.33,1.8,1.8,0,0,0,1-.36l.67,1a4.07,4.07,0,0,1-2.52.95,2.43,2.43,0,0,1-2-.73,3.39,3.39,0,0,1-.63-2.26V93H51l0-1.13a14.42,14.42,0,0,0,1.74-.76l1-1.57,1,.08v2h2.15L56.66,93h-2v5A1.28,1.28,0,0,0,54.94,98.79Z"/><path class="cls-1" d="M59,97.63V94.71l-.18-1.56-1.34-.31.16-1.33a18.27,18.27,0,0,0,2.1.16l1.59,0,.38.35c-.13,1.58-.19,2.67-.19,3.27v1.84a14.21,14.21,0,0,0,.11,1.76l.06.33,1.17.1-.09,1.37c-.79-.06-1.87-.09-3.23-.09l-1.79.09-.1-1.26,1.19-.21A14.43,14.43,0,0,0,59,97.63Zm.17-9.9a1.35,1.35,0,0,1,1-.4,1.38,1.38,0,0,1,1,.39,1.4,1.4,0,0,1,.38,1,1.45,1.45,0,0,1-.37,1,1.64,1.64,0,0,1-2.1,0,1.63,1.63,0,0,1,0-2.08Z"/><path class="cls-1" d="M71.31,92.71a5.74,5.74,0,0,1,0,6.92,5.11,5.11,0,0,1-6.58,0,5.74,5.74,0,0,1,0-6.92,5.11,5.11,0,0,1,6.58,0Zm-2.07,5.85a8.11,8.11,0,0,0,0-4.78A1.26,1.26,0,0,0,68,93a1.24,1.24,0,0,0-1.21.74,7.9,7.9,0,0,0,0,4.78A1.24,1.24,0,0,0,68,99.3,1.26,1.26,0,0,0,69.24,98.56Z"/><path class="cls-1" d="M79.9,91.51a2.91,2.91,0,0,1,2.24.82,3.36,3.36,0,0,1,.77,2.38v2.38c0,.42,0,1,.12,1.76l0,.33,1.17.1-.09,1.37c-.79-.06-1.87-.09-3.22-.09l-1.55.09-.09-1.26,1-.21q0-.25,0-.63c0-.26,0-.46,0-.62s0-.25,0-.3V95a1.91,1.91,0,0,0-.34-1.19,1.16,1.16,0,0,0-1-.46A1.57,1.57,0,0,0,77.8,94a2.88,2.88,0,0,0-.53,1.82v1.3a14.21,14.21,0,0,0,.11,1.76l.05.33,1.17.1-.09,1.37c-.79-.06-1.86-.09-3.22-.09l-1.8.09-.09-1.26,1.19-.21a14.43,14.43,0,0,0,.16-1.55V94.71l-.18-1.56-1.35-.31.16-1.33a18.41,18.41,0,0,0,2.11.16l.86,0,.38.35.18,1.29A3.52,3.52,0,0,1,79.9,91.51Z"/><path class="cls-1" d="M85.86,92.18a4,4,0,0,1,2.44-.67,9.51,9.51,0,0,1,2.9.43L91,94.78l-1.21-.09v-.77a1.89,1.89,0,0,0-.25-.68A3,3,0,0,0,88.27,93c-.78,0-1.17.23-1.17.68a.74.74,0,0,0,.47.62,7,7,0,0,0,1.12.51c.44.16.88.35,1.32.56a3,3,0,0,1,1.12,1,2.79,2.79,0,0,1,.47,1.62,2.46,2.46,0,0,1-.94,2.08,4.09,4.09,0,0,1-2.57.73,14.41,14.41,0,0,1-2.68-.32l-.51-.09.22-3,1.28.09v.81a.87.87,0,0,0,0,.21c0,.11,0,.2.07.26a1.8,1.8,0,0,0,0,.19,4.26,4.26,0,0,0,1.52.4,1.61,1.61,0,0,0,.88-.21.63.63,0,0,0,.34-.57.79.79,0,0,0-.45-.65,5.44,5.44,0,0,0-1.08-.51,11.81,11.81,0,0,1-1.27-.57,3,3,0,0,1-1.09-1A2.81,2.81,0,0,1,85,94.19,2.35,2.35,0,0,1,85.86,92.18Z"/><path class="cls-1" d="M96.47,92.19a1.24,1.24,0,0,1,1-.39,1.27,1.27,0,0,1,1,.38,1.53,1.53,0,0,1,.35,1,1.5,1.5,0,0,1-.35,1,1.43,1.43,0,0,1-2,0,1.45,1.45,0,0,1-.35-1A1.5,1.5,0,0,1,96.47,92.19Zm0,6.18a1.22,1.22,0,0,1,1-.4,1.24,1.24,0,0,1,1,.39,1.5,1.5,0,0,1,.35,1,1.49,1.49,0,0,1-.35,1,1.43,1.43,0,0,1-2,0,1.43,1.43,0,0,1-.35-1A1.47,1.47,0,0,1,96.47,98.37Z"/><path class="cls-1" d="M107.58,91.18h-1.69l-.16,2.56a7.37,7.37,0,0,1,1.12-.07,4.41,4.41,0,0,1,3,.93,3.31,3.31,0,0,1,1,2.6q0,4.18-6.93,5.25l-.39-1.33A9.06,9.06,0,0,0,107,99.76a2.57,2.57,0,0,0,1.06-2.15A1.84,1.84,0,0,0,106,95.52a6,6,0,0,0-1.6.25l-.85-1,.45-5.65.34-.32h1.58l4.38-.18.11,2.28C108.89,91.1,107.94,91.18,107.58,91.18Z"/><path class="cls-1" d="M112.66,93.82a4,4,0,0,1-.77-2.55,4,4,0,0,1,.77-2.53,3.31,3.31,0,0,1,4.72,0,4,4,0,0,1,.77,2.53,4.07,4.07,0,0,1-.77,2.55,3.28,3.28,0,0,1-4.72,0Zm2.37-.21c.75,0,1.12-.78,1.12-2.34s-.37-2.34-1.12-2.34-1.13.78-1.13,2.34S114.28,93.61,115,93.61Zm7.19-6,1.26.81-7.63,13-1.28-.81ZM124,100.71a3,3,0,0,1-2.48-1,4.69,4.69,0,0,1,0-5.24,3,3,0,0,1,2.48-1,2.93,2.93,0,0,1,2.47,1,4.69,4.69,0,0,1,0,5.24A2.94,2.94,0,0,1,124,100.71Zm-1.19-3.65c0,1.6.4,2.4,1.19,2.4s1.19-.8,1.19-2.4-.4-2.4-1.19-2.4S122.81,95.46,122.81,97.06Z"/><circle class="cls-2" cx="187.22" cy="39.38" r="39.38"/><path class="cls-3" d="M172.39,47.54a3,3,0,0,1,.54-1.34c.35-.59.68-.88,1-.88a2.62,2.62,0,0,1,.62.25,7.84,7.84,0,0,0,3.17.7,3.28,3.28,0,0,0,2.37-.77,2.91,2.91,0,0,0,.82-2.22,3,3,0,0,0-.82-2.24,3.82,3.82,0,0,0-2.7-.79h-3.06a1.06,1.06,0,0,1-.82-.25,1.32,1.32,0,0,1-.22-.87l.53-8.36a1.4,1.4,0,0,1,.32-.85,1.18,1.18,0,0,1,.86-.27h8.3c.56,0,.84.47.84,1.4v.76c0,.75-.28,1.13-.84,1.13H177.6l-.28,4h.73a8.26,8.26,0,0,1,5.24,1.44c1.21,1,1.82,2.58,1.82,4.86a6.65,6.65,0,0,1-.63,3,4.9,4.9,0,0,1-1.71,2,8.25,8.25,0,0,1-4.64,1.35A12,12,0,0,1,174,49C172.92,48.58,172.39,48.1,172.39,47.54Z"/><path class="cls-3" d="M197.2,34.15c0,3.15-1.4,4.72-4.22,4.72s-4.21-1.57-4.21-4.72,1.4-4.73,4.21-4.73S197.2,31,197.2,34.15Zm-5.57.06c0,1.57.45,2.36,1.34,2.36s1.34-.79,1.34-2.36-.45-2.37-1.34-2.37S191.63,32.63,191.63,34.21ZM191.8,49a1.17,1.17,0,0,1,.14-.42L202,30.38a1.36,1.36,0,0,1,1.23-.79h1.24c.4,0,.59.13.59.4a1,1,0,0,1-.14.39l-10,18.23a1.39,1.39,0,0,1-1.24.79h-1.24C192,49.4,191.8,49.27,191.8,49Zm12.07.53q-4.22,0-4.22-4.72t4.22-4.73q4.22,0,4.22,4.73T203.87,49.56Zm0-7c-.89,0-1.34.79-1.34,2.36s.45,2.37,1.34,2.37,1.33-.79,1.33-2.37S204.75,42.53,203.86,42.53Z"/></g></g></svg>