<svg xmlns="http://www.w3.org/2000/svg" viewBox="0 0 239.78 78.76"><defs><style>.cls-1{fill:#737378;}.cls-2{fill:#b5318a;opacity:0.4;}.cls-3{fill:#fff;}</style></defs><title>budget2</title><g id="Calque_2" data-name="Calque 2"><g id="_0" data-name="0"><path class="cls-1" d="M1.89,21.87l3.87-.18a4.45,4.45,0,0,1,3.09,1A3.67,3.67,0,0,1,10,25.62a3.57,3.57,0,0,1-1.43,3,5.54,5.54,0,0,1-3.45,1.1h-1v1.41a14.66,14.66,0,0,0,.16,2.09l1.35.1-.09,1.37c-1.09-.06-2.31-.09-3.67-.09l-1.8.09L0,33.39l1.19-.21.16-1.55V25.35a16.72,16.72,0,0,0-.16-2L0,23.13l.09-1.35C.73,21.84,1.33,21.87,1.89,21.87Zm2.83,1.3-.51,0c0,.62-.07,1.16-.07,1.62v3.4h.31a2.7,2.7,0,0,0,2-.69,2.56,2.56,0,0,0,.71-1.93,2.55,2.55,0,0,0-.57-1.84A2.42,2.42,0,0,0,4.72,23.17Z"/><path class="cls-1" d="M16.61,25.51a7.22,7.22,0,0,1,1.26.12l.22.06-.27,3.62-1.33-.06v-1q0-.07-.15-.93a.15.15,0,0,0-.1,0A1.56,1.56,0,0,0,15,28a2.82,2.82,0,0,0-.54,1.82v1.3a14.21,14.21,0,0,0,.11,1.76l.06.33,1.49.1L16,34.65c-.91-.06-2-.09-3.4-.09l-2,.09-.09-1.26,1.22-.21a14.43,14.43,0,0,0,.16-1.55V28.71l-.18-1.56-1.35-.31.17-1.35a17,17,0,0,0,2.1.18l.87,0,.37.35.17,1.18A3,3,0,0,1,16.61,25.51Z"/><path class="cls-1" d="M26.35,26.71a4.82,4.82,0,0,1,1.15,3.46,4.82,4.82,0,0,1-1.15,3.46,4.34,4.34,0,0,1-3.29,1.2,4.37,4.37,0,0,1-3.3-1.2,4.86,4.86,0,0,1-1.15-3.46,4.86,4.86,0,0,1,1.15-3.46,4.37,4.37,0,0,1,3.3-1.2A4.34,4.34,0,0,1,26.35,26.71Zm-2.08,5.85a5.62,5.62,0,0,0,.37-2.39,5.62,5.62,0,0,0-.37-2.39A1.24,1.24,0,0,0,23.06,27a1.25,1.25,0,0,0-1.22.74,5.78,5.78,0,0,0-.37,2.39,5.78,5.78,0,0,0,.37,2.39,1.25,1.25,0,0,0,1.22.74A1.24,1.24,0,0,0,24.27,32.56Z"/><path class="cls-1" d="M37.33,26.86l-.81.11c-.49,1-.77,1.66-.84,1.85l-2.16,5.74H31.23c-1.34-3.86-2.08-6-2.2-6.34a11.71,11.71,0,0,0-.5-1.27l-1.17-.2.09-1.24a23.27,23.27,0,0,0,2.68.16L32,25.58l.09,1.28-.81.07c.08.54.15,1,.22,1.26l1,3.71,1.22-3.71q.1-.33.33-1.26l-.81-.07.09-1.28c.7.06,1.48.09,2.32.09l1.58-.09Z"/><path class="cls-1" d="M39.31,31.63V28.71l-.18-1.56-1.35-.31.16-1.33a18.41,18.41,0,0,0,2.11.16l1.58,0L42,26q-.18,2.37-.18,3.27v1.84a14.21,14.21,0,0,0,.11,1.76l.05.33,1.17.1-.09,1.37c-.79-.06-1.86-.09-3.22-.09l-1.8.09L38,33.39l1.19-.21A14.43,14.43,0,0,0,39.31,31.63Zm.16-9.9a1.58,1.58,0,0,1,2.09,0,1.64,1.64,0,0,1,0,2.09,1.65,1.65,0,0,1-2.11,0,1.48,1.48,0,0,1-.36-1A1.44,1.44,0,0,1,39.47,21.73Z"/><path class="cls-1" d="M45,26.18a3.94,3.94,0,0,1,2.43-.67,9.53,9.53,0,0,1,2.91.43l-.21,2.84-1.21-.09v-.77a1.89,1.89,0,0,0-.25-.68A3,3,0,0,0,47.36,27c-.78,0-1.17.23-1.17.68a.72.72,0,0,0,.47.62,7,7,0,0,0,1.12.51,13.57,13.57,0,0,1,1.31.56,3,3,0,0,1,1.13,1,2.79,2.79,0,0,1,.47,1.62A2.47,2.47,0,0,1,49.74,34a4.06,4.06,0,0,1-2.56.73,14.32,14.32,0,0,1-2.68-.32L44,34.33l.22-3,1.28.09v.81a.87.87,0,0,0,0,.21c0,.11,0,.2.06.26a.82.82,0,0,0,.06.19,4.26,4.26,0,0,0,1.52.4,1.64,1.64,0,0,0,.88-.21.63.63,0,0,0,.33-.57.79.79,0,0,0-.45-.65,5.44,5.44,0,0,0-1.08-.51,12.76,12.76,0,0,1-1.27-.57,2.94,2.94,0,0,1-1.08-1,2.81,2.81,0,0,1-.45-1.62A2.35,2.35,0,0,1,45,26.18Z"/><path class="cls-1" d="M53,31.63V28.71l-.18-1.56-1.35-.31.16-1.33a18.26,18.26,0,0,0,2.11.16l1.58,0,.38.35q-.18,2.37-.18,3.27v1.84a12.51,12.51,0,0,0,.11,1.76l0,.33,1.17.1-.09,1.37c-.79-.06-1.87-.09-3.22-.09l-1.8.09-.09-1.26,1.19-.21A14.43,14.43,0,0,0,53,31.63Zm.16-9.9a1.35,1.35,0,0,1,1-.4,1.39,1.39,0,0,1,1,.39,1.45,1.45,0,0,1,.38,1,1.49,1.49,0,0,1-.37,1,1.65,1.65,0,0,1-2.11,0,1.48,1.48,0,0,1-.37-1A1.45,1.45,0,0,1,53.17,21.73Z"/><path class="cls-1" d="M65.34,26.71a4.82,4.82,0,0,1,1.15,3.46,4.82,4.82,0,0,1-1.15,3.46,5.12,5.12,0,0,1-6.59,0,4.82,4.82,0,0,1-1.15-3.46,4.82,4.82,0,0,1,1.15-3.46,5.12,5.12,0,0,1,6.59,0Zm-2.08,5.85a5.62,5.62,0,0,0,.37-2.39,5.62,5.62,0,0,0-.37-2.39,1.37,1.37,0,0,0-2.43,0,5.62,5.62,0,0,0-.37,2.39,5.62,5.62,0,0,0,.37,2.39,1.37,1.37,0,0,0,2.43,0Z"/><path class="cls-1" d="M73.92,25.51a2.92,2.92,0,0,1,2.25.82,3.35,3.35,0,0,1,.76,2.38v2.38a15.55,15.55,0,0,0,.13,1.76l0,.33,1.17.1-.09,1.37c-.79-.06-1.86-.09-3.22-.09l-1.55.09-.09-1.26,1-.21c0-.17,0-.38,0-.63s0-.46,0-.62,0-.25,0-.3V29a2,2,0,0,0-.33-1.19,1.18,1.18,0,0,0-1-.46,1.54,1.54,0,0,0-1.22.66,2.82,2.82,0,0,0-.53,1.82v1.3a14.25,14.25,0,0,0,.1,1.76l.06.33,1.17.1-.09,1.37c-.79-.06-1.87-.09-3.22-.09l-1.8.09-.09-1.26,1.18-.21a15.54,15.54,0,0,0,.17-1.55V28.71l-.18-1.56-1.35-.31.16-1.33a18.27,18.27,0,0,0,2.1.16l.87,0,.38.35.18,1.29A3.5,3.5,0,0,1,73.92,25.51Z"/><path class="cls-1" d="M79.88,26.18a4,4,0,0,1,2.44-.67,9.53,9.53,0,0,1,2.91.43L85,28.78l-1.2-.09v-.77a2,2,0,0,0-.26-.68A3,3,0,0,0,82.29,27c-.78,0-1.17.23-1.17.68a.74.74,0,0,0,.47.62,7.13,7.13,0,0,0,1.13.51c.44.16.87.35,1.31.56a3.12,3.12,0,0,1,1.13,1,2.78,2.78,0,0,1,.46,1.62A2.46,2.46,0,0,1,84.68,34a4.09,4.09,0,0,1-2.57.73,14.41,14.41,0,0,1-2.68-.32l-.5-.09.21-3,1.28.09v.81a1.12,1.12,0,0,0,0,.21c0,.11,0,.2.06.26a1.8,1.8,0,0,0,0,.19,4.31,4.31,0,0,0,1.52.4,1.65,1.65,0,0,0,.89-.21.63.63,0,0,0,.33-.57.79.79,0,0,0-.45-.65,5.44,5.44,0,0,0-1.08-.51,12.76,12.76,0,0,1-1.27-.57,3,3,0,0,1-1.09-1A2.81,2.81,0,0,1,79,28.19,2.35,2.35,0,0,1,79.88,26.18Z"/><path class="cls-1" d="M90.49,26.19a1.26,1.26,0,0,1,1-.39,1.27,1.27,0,0,1,1,.38,1.49,1.49,0,0,1,.36,1.05,1.46,1.46,0,0,1-.36,1,1.24,1.24,0,0,1-1,.39,1.26,1.26,0,0,1-1-.39,1.49,1.49,0,0,1-.35-1A1.55,1.55,0,0,1,90.49,26.19Zm0,6.18a1.41,1.41,0,0,1,2,0,1.46,1.46,0,0,1,.36,1,1.45,1.45,0,0,1-.36,1,1.24,1.24,0,0,1-1,.39,1.26,1.26,0,0,1-1-.39,1.48,1.48,0,0,1-.35-1A1.52,1.52,0,0,1,90.49,32.37Z"/><path class="cls-1" d="M101.61,25.18H99.92l-.17,2.56a7.55,7.55,0,0,1,1.12-.07,4.39,4.39,0,0,1,3,.93,3.28,3.28,0,0,1,1.06,2.6q0,4.19-6.93,5.25l-.4-1.33a9.05,9.05,0,0,0,3.46-1.36,2.59,2.59,0,0,0,1.06-2.15A1.85,1.85,0,0,0,100,29.52a6.07,6.07,0,0,0-1.6.25l-.85-1L98,23.15l.34-.32H100l4.37-.18.11,2.28C102.91,25.1,102,25.18,101.61,25.18Z"/><path class="cls-1" d="M106.68,27.82a4.07,4.07,0,0,1-.77-2.55,4,4,0,0,1,.77-2.53,3.31,3.31,0,0,1,4.72,0,4,4,0,0,1,.77,2.53,4.07,4.07,0,0,1-.77,2.55,3.28,3.28,0,0,1-4.72,0Zm2.37-.21c.75,0,1.12-.78,1.12-2.34s-.37-2.34-1.12-2.34-1.13.78-1.13,2.34S108.3,27.61,109.05,27.61Zm7.19-6,1.26.81-7.63,13-1.28-.81ZM118,34.71a3,3,0,0,1-2.47-1,4.09,4.09,0,0,1-.8-2.62,4.11,4.11,0,0,1,.8-2.62,3.51,3.51,0,0,1,5,0,4.17,4.17,0,0,1,.8,2.62,4.15,4.15,0,0,1-.8,2.62A3,3,0,0,1,118,34.71Zm-1.19-3.65c0,1.6.4,2.4,1.19,2.4s1.19-.8,1.19-2.4-.4-2.4-1.19-2.4S116.83,29.46,116.83,31.06Z"/><circle class="cls-2" cx="200.4" cy="39.38" r="39.38"/><path class="cls-3" d="M185.57,47.54a3.07,3.07,0,0,1,.53-1.34c.36-.59.69-.88,1-.88a2.81,2.81,0,0,1,.62.25,7.8,7.8,0,0,0,3.16.7,3.31,3.31,0,0,0,2.38-.77,2.94,2.94,0,0,0,.82-2.22,3,3,0,0,0-.82-2.24,3.82,3.82,0,0,0-2.7-.79h-3.07a1,1,0,0,1-.81-.25,1.31,1.31,0,0,1-.23-.87l.54-8.36a1.28,1.28,0,0,1,.32-.85,1.17,1.17,0,0,1,.86-.27h8.3c.56,0,.84.47.84,1.4v.76c0,.75-.28,1.13-.84,1.13h-5.69l-.28,4h.73a8.29,8.29,0,0,1,5.25,1.44c1.21,1,1.82,2.58,1.82,4.86a6.65,6.65,0,0,1-.64,3,4.88,4.88,0,0,1-1.7,2,8.27,8.27,0,0,1-4.64,1.35,11.92,11.92,0,0,1-4.16-.59C186.1,48.58,185.57,48.1,185.57,47.54Z"/><path class="cls-3" d="M210.38,34.15q0,4.73-4.22,4.72t-4.22-4.72q0-4.72,4.22-4.73T210.38,34.15Zm-5.57.06c0,1.57.45,2.36,1.34,2.36s1.33-.79,1.33-2.36-.44-2.37-1.33-2.37S204.81,32.63,204.81,34.21ZM205,49a1.17,1.17,0,0,1,.14-.42l10-18.23a1.38,1.38,0,0,1,1.24-.79h1.24c.39,0,.59.13.59.4a1.22,1.22,0,0,1-.14.39l-10,18.23a1.4,1.4,0,0,1-1.24.79h-1.24C205.18,49.4,205,49.27,205,49Zm12.07.53c-2.82,0-4.22-1.57-4.22-4.72s1.4-4.73,4.22-4.73,4.22,1.58,4.22,4.73S219.86,49.56,217.05,49.56Zm0-7c-.89,0-1.33.79-1.33,2.36s.44,2.37,1.33,2.37,1.34-.79,1.34-2.37S217.92,42.53,217,42.53Z"/></g></g></svg>