<?xml version="1.0" encoding="utf-8"?>
<!-- Generator: Adobe Illustrator 22.1.0, SVG Export Plug-In . SVG Version: 6.00 Build 0)  -->
<svg version="1.1" id="Calque_1" xmlns="http://www.w3.org/2000/svg" xmlns:xlink="http://www.w3.org/1999/xlink" x="0px" y="0px"
	 viewBox="0 0 1112 440" style="enable-background:new 0 0 1112 440;" xml:space="preserve">
<style type="text/css">
	.st0{fill:#00C4D5;}
	.st1{fill:#737378;}
	.st2{fill:none;stroke:#00C2D3;stroke-width:4;stroke-miterlimit:10;}
	.st3{fill:#00BCD4;}
</style>
<title>chiffres_cles</title>
<path class="st0" d="M87.6,213.9c0-3.2,0.7-5.7,1.8-7.5c1.4-1.9,3.2-3.4,5.3-4.3c-3.6-2.1-5.5-5.4-5.6-10c0-3.6,1.1-6.4,3.4-8.4
	c2.5-2,5.7-3.2,8.9-3c3.3-0.2,6.5,0.9,9,2.9c2.4,2,3.6,4.8,3.6,8.4c0.2,4.3-2.3,8.4-6.3,10c2.2,0.9,4.3,2.4,5.8,4.2
	c1.4,1.7,2.1,4.2,2.1,7.5c0,4.4-1.2,7.9-3.9,10.2c-2.6,2.4-6,3.5-10.2,3.6s-7.6-1.1-10.2-3.4C88.9,221.7,87.7,218.4,87.6,213.9z
	 M93.3,213.9c0,2.9,0.8,5,2.5,6.6s3.9,2.4,6.1,2.3c2.3,0.1,4.5-0.8,6.1-2.4c1.6-1.6,2.5-3.8,2.4-6.6c0.1-1.6-0.4-3.2-1.3-4.4
	c-0.4-0.5-0.9-1.1-1.4-1.5c-0.6-0.5-1.1-0.9-1.8-1.1c-0.8-0.4-1.5-0.7-2-0.9s-1.3-0.5-2.3-0.8c-1-0.3-1.8-0.7-2.2-0.8
	C95.2,206.5,93.3,209.8,93.3,213.9L93.3,213.9z M108.8,192c0-2.2-0.7-3.9-2-5c-1.5-1.1-3.3-1.7-5.1-1.6c-1.8-0.1-3.6,0.5-5,1.7
	c-1.3,1.1-1.9,2.8-1.9,5c-0.2,2.2,0.9,4.3,2.6,5.6c1.8,1.1,3.8,2,5.8,2.5C107,198.1,108.8,195.3,108.8,192L108.8,192z"/>
<path class="st0" d="M122.4,223.5c0.1-0.7,0.3-1.5,0.8-2.1c0.6-0.8,1.1-1.1,1.5-1.1c0.1,0,1.2,0.3,3.4,1.1c2,0.7,4.2,1.1,6.3,1.1
	c1.6,0,3.3-0.2,4.8-0.7c1.5-0.6,2.7-1.6,3.6-2.9c1.1-1.6,1.6-3.5,1.6-5.5c0-3.1-0.9-5.4-2.5-6.6c-1.6-1.2-4.2-2-7.3-1.9h-2.1
	c-0.9,0-1.3-0.7-1.3-2v-0.7c0-1.3,0.4-2,1.3-2h1.9c3,0,5.2-1,6.6-2.8c1.3-1.6,2-3.5,2-5.5c0-1.7-0.7-3.4-1.8-4.7
	c-1.2-1.3-3.2-1.9-6.1-1.9c-2.8-0.1-5.5,0.5-8,1.6c-0.4,0.2-0.9,0.5-1.5,0.6c-0.3,0-0.8-0.4-1.4-1.3c-0.5-0.6-0.7-1.3-0.8-2.1
	c0-0.9,1.4-1.7,4.1-2.5c2.5-0.7,5-1.1,7.6-1.1c4,0,7.2,0.9,9.7,2.9c2.5,2,3.6,4.8,3.7,8.6c0.1,2-0.6,4-1.9,5.6
	c-1.2,1.6-2.9,2.8-4.8,3.5v0.2c2.3,0.7,4.3,2,5.8,4c1.6,2.1,2.5,4.7,2.5,7.4c0.1,2.4-0.3,4.8-1.3,7c-0.8,1.7-2,3.2-3.5,4.3
	c-2.9,2-6.2,3.1-9.7,3.1c-3.1,0.1-6.3-0.3-9.3-1.1C123.7,225.2,122.5,224.4,122.4,223.5z"/>
<path class="st0" d="M186.8,203.3c0.1,7.7-1.3,13.5-4.2,17.5c-2.9,3.9-6.4,6-10.7,6c-4.3,0.1-7.9-1.9-10.7-5.8
	c-2.9-3.9-4.3-9.8-4.4-17.4c-0.1-7.7,1.3-13.5,4.1-17.5s6.3-6,10.6-6s7.9,1.9,10.7,5.8C185.3,189.8,186.7,195.6,186.8,203.3z
	 M162.5,203.5c0.1,6.4,1,11.1,2.8,14.1s4,4.5,6.7,4.4c2.7-0.1,4.8-1.6,6.6-4.6s2.6-7.7,2.6-14.1s-1-11.1-2.9-14.1
	c-1.9-3-4.1-4.5-6.7-4.4c-2.6,0.1-4.8,1.6-6.6,4.6S162.5,197.2,162.5,203.5L162.5,203.5z"/>
<path class="st0" d="M221.9,203.1c0.1,7.7-1.3,13.5-4.2,17.5c-2.8,3.9-6.4,6-10.7,6s-7.9-1.9-10.7-5.8c-2.9-3.9-4.3-9.7-4.4-17.4
	s1.3-13.5,4.1-17.5s6.3-6,10.6-6s7.9,1.9,10.7,5.8C220.3,189.5,221.8,195.4,221.9,203.1z M197.6,203.2c0.1,6.4,1,11.1,2.8,14.1
	c1.8,3,4,4.5,6.7,4.4c2.6,0,4.8-1.6,6.6-4.6c1.8-3,2.6-7.8,2.5-14.1c-0.1-6.4-1-11.1-2.9-14.1c-1.8-3-4.1-4.5-6.7-4.4
	c-2.6,0-4.8,1.6-6.6,4.6C198.2,192.2,197.6,196.9,197.6,203.2z"/>
<path class="st0" d="M257,202.7c0.1,7.7-1.3,13.5-4.2,17.5c-2.9,3.9-6.4,6-10.7,6c-4.3,0-7.9-1.9-10.7-5.8
	c-2.9-3.9-4.3-9.7-4.4-17.4c-0.1-7.7,1.3-13.5,4.1-17.5s6.3-6,10.7-6c4.3-0.1,7.9,1.9,10.7,5.8C255.4,189.3,256.9,195,257,202.7z
	 M232.7,202.9c0.1,6.4,1,11.1,2.8,14.1s4,4.5,6.7,4.4c2.6,0,4.8-1.6,6.6-4.6c1.8-3,2.6-7.8,2.6-14.1c-0.1-6.4-1-11.1-2.9-14.1
	c-1.8-3-4.1-4.5-6.7-4.4c-2.6,0-4.8,1.6-6.6,4.6C233.5,191.8,232.6,196.6,232.7,202.9L232.7,202.9z"/>
<path class="st0" d="M517.4,136.1c0.1-0.2,0.1-0.4,0.2-0.6l14.3-30.4l-15.9,0.2c-0.7,0-1-0.5-1-1.5v-0.6c0-1,0.3-1.5,1-1.5l19.9-0.2
	c0.2,0,0.4,0.3,0.7,0.9c0.2,0.4,0.3,0.9,0.3,1.4c0,0.3,0,0.6-0.1,0.8l-14.6,31.5c-0.3,0.5-0.9,0.8-2,0.8h-0.6
	C518.2,137,517.4,136.8,517.4,136.1z"/>
<path class="st0" d="M541.8,134.2c0-0.6,0.3-1.2,0.7-1.6c0.4-0.6,0.8-0.9,1.1-0.9c0,0,0.8,0.3,2.5,0.9c1.8,0.7,3.6,0.9,5.5,0.9
	c1.9,0,3.8-0.7,5.2-2c1.5-1.3,2.3-3.4,2.3-5.4c0.1-2-0.8-3.9-2.3-5.2c-1.5-1.2-3.8-1.7-6.8-1.7h-4.3c-0.4,0.1-0.8-0.1-1.1-0.3
	c-0.3-0.3-0.3-0.8-0.3-1.2l0.8-14.6c-0.1-0.8,0.5-1.4,1.3-1.5c0.1,0,0.3,0,0.3,0l13.4-0.1c0.7,0,1,0.5,1,1.5v0.6c0,1-0.3,1.5-1,1.5
	l-10.9,0.1l-0.6,10.4h2.6c2.9-0.1,5.7,0.7,8.1,2.2c1.3,0.8,2.3,1.8,3,3.2c0.8,1.6,1.2,3.4,1.2,5.1c0.1,1.8-0.3,3.6-1,5.3
	c-0.6,1.4-1.6,2.6-2.9,3.4c-2.3,1.5-5,2.3-7.7,2.3c-2.4,0.1-4.8-0.3-7-0.9C542.8,135.5,541.8,134.8,541.8,134.2z"/>
<path class="st0" d="M568.8,134.2c0-0.6,0.3-1.2,0.7-1.6c0.4-0.6,0.8-0.9,1.1-0.9c0,0,0.8,0.3,2.5,0.9c1.8,0.7,3.6,0.9,5.5,0.9
	c1.9,0,3.8-0.7,5.2-2c1.5-1.3,2.3-3.4,2.2-5.4c0.1-2-0.8-3.9-2.3-5.2c-1.6-1.2-3.8-1.7-6.8-1.7h-4.3c-0.4,0.1-0.8-0.1-1.1-0.3
	c-0.3-0.3-0.3-0.8-0.3-1.2l0.8-14.6c-0.1-0.8,0.5-1.4,1.3-1.5c0.1,0,0.3,0,0.3,0l13.4-0.1c0.7,0,1,0.5,1,1.5v0.6c0,1-0.3,1.5-1,1.5
	l-10.9,0.1l-0.6,10.4h2.6c2.9-0.1,5.6,0.7,8.1,2.1c1.3,0.8,2.3,1.8,3,3.2c0.8,1.6,1.2,3.4,1.2,5.1c0.1,1.8-0.3,3.6-1,5.3
	c-0.6,1.4-1.6,2.6-2.9,3.4c-2.3,1.5-5,2.3-7.7,2.3c-2.4,0.1-4.8-0.3-7-0.9C569.7,135.6,568.8,134.9,568.8,134.2z"/>
<path class="st0" d="M618.1,119.3c0.1,5.9-1,10.4-3.2,13.4c-2.2,3-4.9,4.6-8.1,4.6c-3.3,0-6-1.5-8.2-4.4c-2.2-2.9-3.4-7.5-3.4-13.3
	c-0.1-5.9,1-10.4,3.2-13.4s4.9-4.6,8.1-4.6s6,1.5,8.2,4.4C616.9,109,618.1,113.4,618.1,119.3z M599.4,119.5c0,4.9,0.8,8.5,2.2,10.8
	c1.4,2.3,3.1,3.4,5.1,3.4c2,0,3.7-1.2,5.1-3.5c1.3-2.3,2-6,2-10.8c0-4.9-0.8-8.5-2.2-10.8c-1.4-2.3-3.1-3.4-5.2-3.4
	c-2,0-3.7,1.2-5,3.5C600.2,111,599.5,114.6,599.4,119.5z"/>
<path class="st0" d="M871,135.4v-0.6c0-1,0.3-1.5,1-1.5l8.7-0.1l-0.3-27.1l-8.9,1.6c-0.3,0-0.6-0.3-0.8-0.8
	c-0.2-0.5-0.3-1.1-0.3-1.7c0-0.5,0.3-0.8,0.9-1l11.7-2.7c0.4,0,0.8,0.1,1.1,0.3c0.3,0.2,0.5,0.4,0.5,0.8l0.3,30.6l7.5-0.1
	c0.7,0,1,0.5,1,1.5v0.6c0,1-0.3,1.5-1,1.5l-20.5,0.2C871.3,136.9,871,136.4,871,135.4z"/>
<path class="st0" d="M898.1,134.2c0-0.6,0.3-1.2,0.7-1.6c0.4-0.6,0.8-0.9,1.1-0.9c0,0,0.8,0.3,2.5,0.9c1.8,0.7,3.6,0.9,5.5,0.9
	c1.9,0,3.8-0.7,5.2-2c1.5-1.3,2.3-3.4,2.2-5.4c0.1-2-0.8-3.9-2.3-5.2c-1.6-1.2-3.8-1.7-6.8-1.7h-4.3c-0.4,0.1-0.8-0.1-1.1-0.3
	c-0.3-0.3-0.3-0.8-0.3-1.2l0.8-14.6c-0.1-0.8,0.5-1.4,1.3-1.5c0.1,0,0.3,0,0.3,0l13.4-0.1c0.7,0,1,0.5,1,1.5v0.6c0,1-0.3,1.5-1,1.5
	l-10.9,0.1l-0.5,10.3h2.6c2.9-0.1,5.7,0.7,8.1,2.2c1.3,0.8,2.3,1.8,3,3.2c0.8,1.6,1.2,3.4,1.2,5.1c0.1,1.8-0.3,3.6-1,5.3
	c-0.6,1.4-1.6,2.6-2.9,3.4c-2.3,1.5-5,2.3-7.7,2.3c-2.4,0.1-4.8-0.3-7-0.9C899,135.5,898.1,134.8,898.1,134.2z"/>
<path class="st0" d="M947.5,119.3c0.1,5.9-1,10.4-3.2,13.4c-2.2,3-4.9,4.6-8.2,4.6c-3.3,0-6-1.5-8.2-4.4c-2.2-2.9-3.4-7.5-3.4-13.3
	c-0.1-5.9,1-10.4,3.2-13.4s4.9-4.6,8.1-4.6c3.3,0,6,1.5,8.2,4.4C946.4,108.9,947.4,113.3,947.5,119.3z M928.8,119.5
	c0,4.9,0.8,8.5,2.2,10.8c1.4,2.3,3.1,3.4,5.1,3.4c2,0,3.7-1.2,5.1-3.5c1.4-2.3,2-6,2-10.8c-0.1-4.9-0.8-8.5-2.2-10.8
	c-1.4-2.3-3.1-3.4-5.2-3.4c-2,0-3.7,1.2-5,3.5C929.5,111,928.8,114.6,928.8,119.5L928.8,119.5z"/>
<path class="st1" d="M101.1,278.2v-15.5c0-0.6,0.5-0.8,1.5-0.8h0.8c1,0,1.5,0.2,1.5,0.8V276h5.5c0.5,0,0.7,0.4,0.7,1.2v0.7
	c0,0.8-0.2,1.2-0.7,1.2H102c-0.5,0.1-0.9-0.2-1-0.7C101.1,278.4,101.1,278.3,101.1,278.2z"/>
<path class="st1" d="M115.4,277.2c-1.4-1.5-2-3.7-2-6.6c0-2.9,0.7-5,2-6.6c1.6-1.6,3.7-2.4,5.8-2.3c2.5,0,4.5,0.7,5.8,2.3
	c1.3,1.6,2,3.7,2,6.6c0,2.9-0.7,5-2,6.6c-1.4,1.6-3.3,2.3-5.8,2.3S116.8,278.7,115.4,277.2z M118.3,274.8c1.3,1.6,3.8,1.9,5.4,0.6
	c0.2-0.2,0.4-0.3,0.6-0.6c1.3-2.6,1.3-5.7,0-8.3c-1.3-1.6-3.8-1.9-5.4-0.6c-0.2,0.2-0.4,0.3-0.6,0.6
	C116.9,269.1,116.9,272.2,118.3,274.8z"/>
<path class="st1" d="M132.4,270.6c0-5.8,2.7-8.8,8.2-8.8c1.2,0,2.4,0.2,3.5,0.5s1.7,0.7,1.7,1.2c-0.1,0.5-0.2,1-0.6,1.4
	c-0.4,0.6-0.7,0.9-1,0.9c-0.2-0.1-0.3-0.1-0.6-0.2c-1-0.4-2.1-0.7-3.2-0.6c-2.9,0-4.3,1.9-4.3,5.6c0,3.7,1.4,5.6,4.2,5.6
	c0.7,0,1.3-0.1,1.9-0.2V273h-2.1c-0.5,0-0.7-0.4-0.7-1.2v-0.8c0-0.8,0.2-1.2,0.7-1.2h5c0.5-0.1,0.9,0.2,1,0.7c0,0.1,0,0.2,0,0.2v6.8
	c0,0.4-0.2,0.8-0.7,1c-0.5,0.3-1.1,0.5-1.6,0.6c-1.1,0.2-2.3,0.3-3.5,0.3c-2.8,0-4.8-0.7-6.1-2.1
	C132.9,275.9,132.4,273.7,132.4,270.6z"/>
<path class="st1" d="M150.4,278.2V263c-0.1-0.5,0.2-0.9,0.7-1c0.1,0,0.2,0,0.2,0h9c0.5,0,0.7,0.4,0.7,1.2v0.7c0,0.8-0.2,1.2-0.7,1.2
	h-6.2v3.6h5.5c0.5,0,0.7,0.4,0.7,1.2v0.7c0,0.8-0.2,1.2-0.7,1.2h-5.6v4h6.2c0.5,0,0.7,0.4,0.7,1.2v0.7c0,0.8-0.2,1.2-0.7,1.2h-9
	c-0.5,0.1-0.9-0.2-1-0.7C150.4,278.4,150.4,278.3,150.4,278.2z"/>
<path class="st1" d="M164.8,278.5v-15.7c0-0.6,0.5-0.8,1.5-0.8h1.3c0.6-0.1,1.2,0.2,1.6,0.7l4.3,7.7l4.3-7.7c0.3-0.5,1-0.7,1.6-0.7
	h1.3c1,0,1.5,0.2,1.5,0.8v15.7c0,0.6-0.5,0.8-1.5,0.8H180c-1,0-1.5-0.2-1.5-0.8v-10.2h-0.1l-3.6,6.3c-0.2,0.3-0.6,0.5-1,0.5h-0.7
	c-0.4,0-0.7-0.2-1-0.5l-3.6-6.4h-0.1v10.2c0,0.6-0.5,0.8-1.5,0.8h-0.7C165.3,279.3,164.8,279.1,164.8,278.5z"/>
<path class="st1" d="M186.6,278.2V263c-0.1-0.5,0.2-0.9,0.7-1c0.1,0,0.2,0,0.2,0h9c0.5,0,0.7,0.4,0.7,1.2v0.7c0,0.8-0.2,1.2-0.7,1.2
	h-6.2v3.6h5.6c0.5,0,0.7,0.4,0.7,1.2v0.7c0,0.8-0.2,1.2-0.7,1.2h-5.6v4h6.2c0.5,0,0.7,0.4,0.7,1.2v0.7c0,0.8-0.2,1.2-0.7,1.2h-9
	c-0.5,0.1-0.9-0.2-1-0.7C186.6,278.4,186.6,278.3,186.6,278.2z"/>
<path class="st1" d="M201,278.5v-15.7c0-0.6,0.5-0.8,1.5-0.8h1.1c0.7-0.1,1.2,0.2,1.6,0.7l6.5,9.9v-9.8c0-0.6,0.5-0.8,1.5-0.8h0.7
	c1,0,1.5,0.2,1.5,0.8v15.7c0,0.6-0.5,0.8-1.5,0.8H213c-0.7,0.1-1.2-0.2-1.6-0.7l-6.6-10.1v10c0,0.6-0.5,0.8-1.5,0.8h-0.7
	C201.5,279.3,201,279.1,201,278.5z"/>
<path class="st1" d="M222.8,278.5v-13.3h-3.9c-0.5,0-0.7-0.4-0.7-1.2v-0.7c0-0.8,0.2-1.2,0.7-1.2h11.6c0.5,0,0.7,0.4,0.7,1.2v0.7
	c0,0.8-0.2,1.2-0.7,1.2h-3.9v13.3c0,0.6-0.5,0.8-1.5,0.8h-0.9C223.3,279.3,222.8,279.1,222.8,278.5z"/>
<path class="st1" d="M233,277.3c0.1-0.5,0.2-1,0.6-1.4c0.4-0.6,0.7-0.8,1-0.8c0.2,0.1,0.4,0.2,0.7,0.2c0.9,0.6,1.9,0.8,3,0.9
	c1.6,0,2.3-0.6,2.3-1.8c0-0.6-0.3-1.1-0.7-1.3c-0.6-0.4-1.1-0.7-1.8-1c-0.7-0.2-1.4-0.6-2-0.9c-0.7-0.4-1.3-1-1.8-1.6
	c-0.5-0.8-0.7-1.8-0.7-2.8c0-1,0.2-2,0.9-2.9c1.1-1.4,2.7-2.1,4.9-2.1c1.1,0,2.1,0.2,3.1,0.6c0.8,0.3,1.3,0.7,1.3,1.1
	c0,0.5-0.2,0.9-0.5,1.3c-0.3,0.6-0.6,0.8-0.9,0.8c-0.2,0-0.3-0.1-0.4-0.2c-0.7-0.3-1.5-0.5-2.3-0.4c-0.7-0.1-1.2,0.1-1.8,0.4
	c-0.3,0.2-0.5,0.7-0.5,1.1s0.3,0.9,0.7,1.1c0.6,0.4,1.1,0.7,1.8,0.9c0.7,0.2,1.4,0.6,2,0.9c0.7,0.4,1.3,1,1.8,1.6
	c0.5,0.8,0.7,1.7,0.7,2.6c0,0.9-0.2,1.8-0.5,2.6c-0.2,0.7-0.7,1.3-1.3,1.7c-1.1,0.8-2.5,1.2-4,1.1c-1.4,0.1-2.7-0.2-3.9-0.7
	C233.5,278.2,233,277.8,233,277.3z"/>
<path class="st1" d="M107.9,306.8c0-0.1,0-0.2,0.1-0.3l3.8-11.1c0.1-0.2,0.4-0.3,1-0.3h0.9c0.6,0,0.9,0.1,1,0.3l3.8,11.1
	c0,0.1,0.1,0.2,0.1,0.3c0,0.2-0.2,0.4-0.8,0.4H117c-0.6,0-0.9-0.1-1-0.3l-0.7-2.1h-4.1l-0.7,2.1c-0.1,0.2-0.3,0.3-0.8,0.3h-0.7
	C108.3,307.2,107.9,307,107.9,306.8z M112,302.4h2.6l-1-3l-0.2-1.1h-0.1c-0.1,0.4-0.2,0.7-0.2,1.1L112,302.4z"/>
<path class="st1" d="M120,301c0-4.1,1.9-6.1,5.7-6.1c0.8,0,1.6,0.1,2.5,0.3c0.8,0.2,1.1,0.5,1.1,0.8c-0.1,0.3-0.2,0.7-0.4,1
	c-0.2,0.4-0.5,0.7-0.7,0.7c-0.2,0-0.2-0.1-0.3-0.2c-0.7-0.3-1.4-0.4-2.1-0.4c-2,0-3,1.3-3,3.9c0,2.6,1,3.9,3,3.9
	c0.8,0,1.6-0.2,2.4-0.5c0.2-0.1,0.3-0.2,0.5-0.2c0.2,0,0.5,0.2,0.7,0.6c0.2,0.2,0.3,0.6,0.3,0.9c0,0.5-0.4,0.8-1.3,1.1
	c-0.8,0.2-1.7,0.4-2.5,0.4c-2,0-3.4-0.5-4.3-1.5C120.5,304.7,120,303.2,120,301z"/>
<path class="st1" d="M131.3,301c0-4.1,1.9-6.1,5.7-6.1c0.8,0,1.6,0.1,2.5,0.3c0.7,0.2,1.1,0.5,1.1,0.8c-0.1,0.3-0.2,0.7-0.4,1
	c-0.2,0.4-0.5,0.7-0.7,0.7c-0.2,0-0.2-0.1-0.3-0.2c-0.7-0.3-1.4-0.4-2.1-0.4c-2,0-3,1.3-3,3.9c0,2.6,1,3.9,3,3.9
	c0.8,0,1.6-0.2,2.4-0.5c0.2-0.1,0.3-0.2,0.5-0.2c0.2,0,0.5,0.2,0.7,0.6c0.2,0.2,0.2,0.6,0.3,0.9c0,0.5-0.4,0.8-1.3,1.1
	c-0.8,0.2-1.7,0.4-2.5,0.4c-1.9,0-3.4-0.5-4.3-1.5C131.8,304.7,131.3,303.2,131.3,301z"/>
<path class="st1" d="M144.1,305.7c-1.9-2.8-1.9-6.4,0-9.2c2.3-2.1,5.9-2.1,8.2,0c1.9,2.8,1.9,6.4,0,9.2
	C150,307.8,146.4,307.8,144.1,305.7z M146.1,304.1c0.9,1.1,2.6,1.3,3.8,0.4c0.2-0.1,0.3-0.2,0.4-0.4c0.9-1.8,0.9-4,0-5.8
	c-0.9-1.1-2.6-1.3-3.8-0.4c-0.2,0.1-0.2,0.2-0.4,0.4C145.2,300.1,145.2,302.2,146.1,304.1z"/>
<path class="st1" d="M156.4,306.6v-11.1c0-0.4,0.3-0.6,1.1-0.6h0.9c0.4-0.1,0.8,0.1,1.1,0.5l3,5.4l3-5.4c0.2-0.3,0.7-0.5,1.1-0.5
	h0.9c0.7,0,1.1,0.2,1.1,0.6v11.1c0,0.4-0.3,0.6-1.1,0.6H167c-0.7,0-1.1-0.2-1.1-0.6v-7.1h-0.1l-2.5,4.4c-0.2,0.2-0.4,0.3-0.7,0.3
	h-0.4c-0.2,0-0.5-0.1-0.7-0.3l-2.5-4.4h-0.1v7.1c0,0.4-0.3,0.6-1.1,0.6h-0.5C156.7,307.2,156.4,306.9,156.4,306.6z"/>
<path class="st1" d="M171.6,306.6v-10.8c-0.1-0.3,0.2-0.7,0.5-0.7c0.1,0,0.1,0,0.2,0h3.6c1.1-0.1,2.2,0.2,3.1,1
	c0.3,0.3,0.6,0.7,0.7,1.1c0.2,0.5,0.3,1.1,0.3,1.6s-0.1,1.1-0.3,1.6c-0.2,0.4-0.5,0.8-0.8,1.1c-0.3,0.2-0.7,0.5-1.1,0.7
	c-0.6,0.2-1.1,0.3-1.8,0.4h-1.8v4c0,0.4-0.3,0.6-1.1,0.6h-0.6C171.9,307.2,171.6,306.9,171.6,306.6z M174.2,300.4h1.6
	c0.4,0,0.7-0.1,1.1-0.3c0.6-0.7,0.6-1.6,0-2.4c-0.3-0.2-0.7-0.3-1.1-0.3h-1.6V300.4z"/>
<path class="st1" d="M180.9,306.8c0-0.1,0-0.2,0.1-0.3l3.8-11.1c0.1-0.2,0.4-0.3,1-0.3h0.9c0.6,0,0.9,0.1,1,0.3l3.8,11.1
	c0,0.1,0.1,0.2,0.1,0.3c0,0.2-0.3,0.4-0.8,0.4h-0.7c-0.6,0-0.9-0.1-1-0.3l-0.7-2.1h-4l-0.7,2.1c-0.1,0.2-0.3,0.3-0.8,0.3h-0.9
	C181.2,307.2,180.9,307,180.9,306.8z M184.8,302.4h2.5l-1-3l-0.2-1.1h-0.1c-0.1,0.4-0.2,0.7-0.2,1.1L184.8,302.4z"/>
<path class="st1" d="M192.9,301c0-4.1,1.9-6.1,5.7-6.1c0.8,0,1.6,0.1,2.5,0.3s1.2,0.5,1.2,0.8c-0.1,0.3-0.2,0.7-0.4,1
	c-0.2,0.4-0.5,0.7-0.7,0.7c-0.2,0-0.2-0.1-0.4-0.2c-0.7-0.3-1.5-0.4-2.2-0.4c-2,0-3,1.3-3,3.9c0,2.6,1,3.9,3,3.9
	c0.5,0,0.9,0,1.3-0.1v-2.2h-1.6c-0.3,0-0.5-0.3-0.5-0.8v-0.6c0-0.6,0.2-0.8,0.5-0.8h3.5c0.3-0.1,0.7,0.2,0.7,0.5c0,0.1,0,0.1,0,0.2
	v4.8c0,0.3-0.2,0.6-0.4,0.7c-0.3,0.2-0.7,0.3-1.1,0.4c-0.8,0.2-1.6,0.2-2.5,0.2c-2,0-3.4-0.5-4.3-1.5
	C193.3,304.7,192.9,303.2,192.9,301z"/>
<path class="st1" d="M205.6,306.6v-11.1c0-0.4,0.3-0.6,1.1-0.6h0.7c0.4-0.1,0.8,0.2,1.1,0.5l4.6,7.1v-6.9c0-0.4,0.3-0.6,1.1-0.6h0.5
	c0.7,0,1.1,0.2,1.1,0.6v11c0,0.4-0.3,0.6-1.1,0.6h-0.8c-0.4,0.1-0.9-0.2-1.1-0.5l-4.6-7.1v7c0,0.4-0.3,0.6-1.1,0.6h-0.5
	C205.9,307.2,205.6,306.9,205.6,306.6z"/>
<path class="st1" d="M218.6,306.5v-10.7c-0.1-0.3,0.2-0.7,0.5-0.7c0.1,0,0.1,0,0.2,0h6.3c0.3,0,0.5,0.3,0.5,0.8v0.5
	c0,0.6-0.2,0.8-0.5,0.8h-4.3v2.5h3.9c0.3,0,0.5,0.2,0.5,0.8v0.5c0,0.6-0.2,0.8-0.5,0.8h-3.9v2.8h4.3c0.3,0,0.5,0.3,0.5,0.8v0.5
	c0,0.6-0.2,0.8-0.5,0.8h-6.3c-0.3,0.1-0.7-0.2-0.7-0.5C218.6,306.5,218.6,306.5,218.6,306.5z M221.7,293.7c-0.3,0-0.5-0.1-0.5-0.2
	c0-0.2,0.2-0.4,0.2-0.6c0.2-0.2,0.3-0.5,0.5-0.7l0.4-0.7c0.2-0.3,0.7-0.5,1.4-0.5c0.7,0,1.1,0.1,1.1,0.2c0,0.1-0.1,0.2-0.1,0.2
	c-0.1,0.1-0.2,0.2-0.4,0.5c-0.2,0.2-0.3,0.3-0.4,0.4c-0.1,0.1-0.2,0.2-0.3,0.4l-0.5,0.5C222.6,293.7,222.2,293.8,221.7,293.7z"/>
<path class="st1" d="M227.9,305.7c0-0.3,0.2-0.7,0.4-1c0.2-0.4,0.5-0.6,0.7-0.6c0.2,0,0.3,0.1,0.4,0.2c0.7,0.4,1.3,0.6,2,0.6
	c1.1,0,1.6-0.4,1.6-1.2c0-0.4-0.2-0.7-0.5-0.9c-0.4-0.2-0.8-0.5-1.2-0.7c-0.5-0.2-1-0.4-1.5-0.7c-0.5-0.2-0.9-0.7-1.2-1.1
	c-0.3-0.6-0.6-1.2-0.5-2c0-0.7,0.2-1.4,0.7-2c0.8-1.1,2.1-1.6,3.4-1.5c0.7,0,1.5,0.1,2.2,0.4c0.6,0.2,0.9,0.5,0.9,0.8
	c0,0.3-0.2,0.7-0.3,0.9c-0.2,0.4-0.4,0.6-0.7,0.6c-0.1,0-0.2-0.1-0.3-0.1c-0.5-0.2-1.1-0.3-1.6-0.3c-0.4-0.1-0.9,0.1-1.2,0.3
	c-0.2,0.2-0.4,0.5-0.3,0.8c0,0.3,0.2,0.7,0.5,0.8c0.4,0.2,0.8,0.5,1.2,0.7c0.5,0.2,1,0.4,1.5,0.7c1.1,0.6,1.8,1.7,1.7,3
	c0,0.7-0.1,1.2-0.3,1.8c-0.2,0.5-0.5,0.9-0.9,1.2c-0.8,0.6-1.8,0.8-2.8,0.8c-1,0-1.9-0.2-2.8-0.5
	C228.3,306.5,227.9,306.1,227.9,305.7z"/>
<path class="st1" d="M90.5,333.6c0-0.3,0.2-0.7,0.4-1c0.2-0.4,0.5-0.6,0.7-0.6c0.2,0,0.3,0.1,0.4,0.2c0.7,0.4,1.3,0.6,2,0.6
	c1.1,0,1.6-0.4,1.6-1.2c0-0.4-0.2-0.7-0.5-0.9c-0.4-0.2-0.8-0.5-1.2-0.7c-0.5-0.2-1-0.4-1.5-0.7c-0.5-0.2-0.9-0.7-1.2-1.1
	c-0.3-0.6-0.6-1.2-0.5-2c0-0.7,0.2-1.4,0.7-2c0.8-1.1,2.1-1.6,3.4-1.5c0.7,0,1.5,0.1,2.2,0.4c0.6,0.2,0.9,0.5,0.9,0.8
	c0,0.3-0.2,0.7-0.3,0.9c-0.2,0.4-0.4,0.6-0.7,0.6c-0.1,0-0.2-0.1-0.3-0.1c-0.5-0.2-1.1-0.3-1.6-0.3c-0.4-0.1-0.9,0.1-1.2,0.3
	c-0.2,0.2-0.4,0.5-0.3,0.8c0,0.3,0.2,0.7,0.5,0.8c0.4,0.2,0.8,0.5,1.2,0.7c0.5,0.2,1,0.4,1.5,0.7c1.1,0.6,1.8,1.7,1.8,3
	c0,0.7-0.1,1.2-0.3,1.8c-0.2,0.5-0.5,0.9-0.9,1.2c-0.8,0.6-1.8,0.8-2.8,0.8c-1,0-1.9-0.2-2.8-0.5C90.9,334.3,90.5,334,90.5,333.6z"
	/>
<path class="st1" d="M100.6,331v-7.5c0-0.4,0.3-0.6,1.1-0.6h0.6c0.7,0,1.1,0.2,1.1,0.6v7.4c0,0.6,0.2,1.1,0.7,1.5
	c0.5,0.4,1.1,0.6,1.7,0.6c0.7,0,1.2-0.2,1.7-0.6c0.4-0.4,0.7-0.9,0.7-1.5v-7.4c0-0.4,0.3-0.6,1.1-0.6h0.6c0.7,0,1.1,0.2,1.1,0.6v7.5
	c0.1,1.1-0.4,2.3-1.3,3c-2.2,1.5-5.2,1.5-7.4,0C101,333.3,100.5,332.1,100.6,331z"/>
<path class="st1" d="M113.5,334.5v-10.8c-0.1-0.3,0.2-0.7,0.5-0.7c0.1,0,0.1,0,0.2,0h3.4c2.9,0,4.3,1.1,4.3,3.3
	c0,0.6-0.2,1.2-0.6,1.6c-0.4,0.5-0.9,0.8-1.5,1.1v0.1c0.2,0.2,0.5,0.3,0.7,0.6c0.2,0.3,0.4,0.7,0.6,1l1.5,3.8
	c0.1,0.1,0.1,0.2,0.1,0.3c0,0.2-0.3,0.3-1.1,0.3h-0.7c-0.6,0-0.9-0.1-1-0.3l-1.4-3.4c-0.2-0.3-0.3-0.6-0.7-0.8
	c-0.3-0.2-0.7-0.2-1.1-0.2H116v4.2c0,0.4-0.3,0.6-1.1,0.6h-0.6C113.9,335.1,113.5,334.8,113.5,334.5z M116.2,328h1.6
	c0.3,0,0.7-0.2,0.9-0.4c0.2-0.2,0.4-0.7,0.4-1.1c0-0.3-0.2-0.7-0.4-1c-0.3-0.2-0.7-0.4-1.1-0.3h-1.5L116.2,328z"/>
<path class="st1" d="M129.2,328.9c0-4.1,1.9-6.1,5.7-6.1c0.8,0,1.6,0.1,2.5,0.3c0.8,0.2,1.1,0.5,1.1,0.8c0,0.3-0.2,0.7-0.4,1
	c-0.2,0.4-0.5,0.7-0.7,0.7c-0.2,0-0.2-0.1-0.3-0.2c-0.7-0.3-1.4-0.4-2.2-0.4c-2,0-3,1.3-3,3.9s1,3.9,3,3.9c0.8,0,1.6-0.2,2.4-0.5
	c0.2-0.1,0.3-0.2,0.4-0.2c0.2,0,0.5,0.2,0.7,0.6c0.2,0.2,0.3,0.6,0.3,0.9c0,0.5-0.4,0.8-1.3,1.1c-0.8,0.2-1.7,0.4-2.5,0.4
	c-1.9,0-3.4-0.5-4.3-1.5C129.7,332.6,129.2,331,129.2,328.9z"/>
<path class="st1" d="M141.9,333.6c-1.9-2.8-1.9-6.4,0-9.2c2.3-2.1,5.9-2.1,8.2,0c1.9,2.8,1.9,6.4,0,9.2
	C147.8,335.6,144.3,335.6,141.9,333.6z M143.9,332c0.9,1.1,2.6,1.3,3.8,0.4c0.2-0.2,0.3-0.2,0.4-0.4c0.9-1.8,0.9-4,0-5.8
	c-0.9-1.1-2.6-1.3-3.8-0.4c-0.2,0.1-0.2,0.2-0.4,0.4C142.9,327.9,142.9,330.1,143.9,332z"/>
<path class="st1" d="M153,334.7c0-0.1,0-0.2,0.1-0.3l3.8-11.1c0.1-0.2,0.4-0.3,1-0.3h0.9c0.6,0,0.9,0.1,1,0.3l3.8,11.1
	c0,0.1,0.1,0.2,0.1,0.3c0,0.2-0.3,0.4-0.8,0.4h-0.7c-0.6,0-0.9-0.1-1-0.3l-0.7-2.1h-4.1l-0.7,2.1c-0.1,0.2-0.3,0.3-0.8,0.3H154
	C153.4,335.1,153,334.9,153,334.7z M157,330.3h2.5l-1-3l-0.2-1.1h-0.1c-0.1,0.4-0.2,0.7-0.2,1.1L157,330.3z"/>
<path class="st1" d="M165,328.9c0-4.1,1.9-6.1,5.7-6.1c0.8,0,1.6,0.1,2.5,0.3c0.8,0.2,1.1,0.5,1.1,0.8c0,0.3-0.2,0.7-0.4,1
	c-0.2,0.4-0.5,0.7-0.7,0.7c-0.2,0-0.2-0.1-0.4-0.2c-0.7-0.3-1.4-0.4-2.1-0.4c-2,0-3,1.3-3,3.9c0,2.6,1,3.9,3,3.9
	c0.8,0,1.6-0.2,2.4-0.5c0.2-0.1,0.3-0.2,0.4-0.2c0.2,0,0.5,0.2,0.7,0.6c0.2,0.2,0.3,0.6,0.3,0.9c0,0.5-0.4,0.8-1.3,1.1
	c-0.8,0.2-1.7,0.4-2.5,0.4c-1.9,0-3.4-0.5-4.3-1.5C165.5,332.6,165,331,165,328.9z"/>
<path class="st1" d="M177.1,334.5v-11.1c0-0.4,0.3-0.6,1.1-0.6h0.6c0.7,0,1.1,0.2,1.1,0.6v4.3h4.7v-4.3c0-0.4,0.3-0.6,1.1-0.6h0.6
	c0.7,0,1.1,0.2,1.1,0.6v11.1c0,0.4-0.3,0.6-1.1,0.6h-0.6c-0.7,0-1.1-0.2-1.1-0.6V330h-4.7v4.5c0,0.4-0.3,0.6-1.1,0.6h-0.6
	C177.4,335.1,177.1,334.8,177.1,334.5z"/>
<path class="st1" d="M190.1,328.9c0-4.1,1.9-6.1,5.7-6.1c0.8,0,1.6,0.1,2.5,0.3c0.7,0.2,1.1,0.5,1.1,0.8c0,0.3-0.2,0.7-0.4,1
	c-0.2,0.4-0.5,0.7-0.7,0.7c-0.2,0-0.2-0.1-0.3-0.2c-0.7-0.3-1.4-0.4-2.1-0.4c-2,0-3,1.3-3,3.9s1,3.9,3,3.9c0.8,0,1.6-0.2,2.4-0.5
	c0.2-0.1,0.3-0.2,0.4-0.2c0.2,0,0.5,0.2,0.7,0.6c0.2,0.2,0.3,0.6,0.3,0.9c0,0.5-0.4,0.8-1.3,1.1c-0.8,0.2-1.7,0.4-2.5,0.4
	c-1.9,0-3.4-0.5-4.3-1.5C190.6,332.6,190.2,331,190.1,328.9z"/>
<path class="st1" d="M202.9,333.6c-1.9-2.8-1.9-6.4,0-9.2c2.3-2.1,5.9-2.1,8.2,0c1.9,2.8,1.9,6.4,0,9.2
	C208.8,335.6,205.2,335.6,202.9,333.6z M204.9,332c0.5,0.7,1.2,1.1,2.1,1c0.8,0.1,1.6-0.3,2-1c0.9-1.8,0.9-4,0-5.8
	c-0.5-0.7-1.2-1.1-2-1c-0.8,0-1.6,0.3-2.1,1C203.9,327.9,203.9,330.1,204.9,332z"/>
<path class="st1" d="M215.2,334.5v-10.8c-0.1-0.3,0.2-0.7,0.5-0.7c0.1,0,0.1,0,0.2,0h3.6c1.1-0.1,2.2,0.2,3.1,1
	c0.3,0.3,0.6,0.7,0.7,1.1c0.2,0.5,0.3,1.1,0.2,1.6c0,0.6-0.1,1.1-0.3,1.6c-0.2,0.4-0.4,0.8-0.7,1.1c-0.3,0.2-0.7,0.5-1.1,0.7
	c-0.6,0.2-1.1,0.3-1.8,0.4h-1.8v4c0,0.4-0.3,0.6-1.1,0.6h-0.6C215.5,335.1,215.2,334.8,215.2,334.5z M217.8,328.3h1.6
	c0.4,0,0.7-0.1,1.1-0.3c0.6-0.7,0.6-1.6,0-2.4c-0.3-0.2-0.7-0.3-1.1-0.3h-1.6V328.3z"/>
<path class="st1" d="M225.7,334.5v-10.8c-0.1-0.3,0.2-0.7,0.5-0.7c0.1,0,0.1,0,0.2,0h3.4c2.9,0,4.3,1.1,4.3,3.3
	c0,0.6-0.2,1.2-0.6,1.6c-0.4,0.5-0.9,0.8-1.5,1.1v0.1c0.2,0.2,0.5,0.3,0.7,0.6c0.2,0.3,0.4,0.7,0.6,1l1.6,3.8
	c0.1,0.1,0.1,0.2,0.1,0.3c0,0.2-0.3,0.3-1.1,0.3H233c-0.6,0-0.9-0.1-1-0.3l-1.4-3.4c-0.2-0.3-0.3-0.6-0.7-0.8
	c-0.3-0.2-0.7-0.2-1.1-0.2h-0.7v4.2c0,0.4-0.3,0.6-1.1,0.6h-0.6C226,335.1,225.7,334.8,225.7,334.5z M228.3,328h1.6
	c0.3,0,0.7-0.2,0.9-0.4c0.2-0.2,0.4-0.7,0.4-1.1c0-0.3-0.2-0.7-0.4-1c-0.3-0.2-0.7-0.4-1.1-0.3h-1.6L228.3,328z"/>
<path class="st1" d="M237.9,333.6c-1.9-2.8-1.9-6.4,0-9.2c2.3-2.1,5.9-2.1,8.2,0c1.9,2.8,1.9,6.4,0,9.2
	C243.7,335.6,240.2,335.6,237.9,333.6z M239.9,332c0.5,0.7,1.2,1.1,2,1c0.8,0.1,1.6-0.3,2-1c0.9-1.8,0.9-4,0-5.8
	c-0.5-0.7-1.2-1.1-2-1c-0.8,0-1.6,0.3-2,1C239,327.9,239,330.1,239.9,332z"/>
<path class="st1" d="M484.2,166.2v-9.6c0-0.3,0.2-0.6,0.4-0.6c0.1,0,0.1,0,0.2,0h3.2c1-0.1,1.9,0.3,2.8,0.8c0.3,0.3,0.5,0.6,0.6,1
	c0.2,0.5,0.3,0.9,0.3,1.4s-0.1,1-0.3,1.4c-0.2,0.3-0.4,0.7-0.7,0.9s-0.6,0.4-0.9,0.6c-0.5,0.2-1,0.3-1.6,0.3h-1.6v3.5
	c0,0.3-0.3,0.5-0.9,0.5h-0.5C484.5,166.7,484.2,166.5,484.2,166.2z M486.5,160.7h1.3c0.3,0,0.7-0.1,0.9-0.3c0.5-0.6,0.5-1.4,0-2.1
	c-0.3-0.2-0.6-0.3-0.9-0.3h-1.3V160.7z"/>
<path class="st1" d="M492.3,166.3c0-0.1,0-0.2,0.1-0.3l3.4-9.7c0.1-0.2,0.3-0.3,0.8-0.3h0.8c0.5,0,0.8,0.1,0.8,0.3l3.4,9.7
	c0,0.1,0.1,0.2,0.1,0.3c0,0.3-0.3,0.3-0.8,0.3h-0.7c-0.5,0-0.8-0.1-0.8-0.3l-0.6-1.8h-3.5l-0.6,1.8c-0.1,0.2-0.3,0.3-0.7,0.3h-0.6
	C492.7,166.6,492.3,166.5,492.3,166.3z M495.8,162.4h2.3l-0.8-2.7l-0.3-0.9h-0.1c-0.1,0.3-0.1,0.7-0.3,0.9L495.8,162.4z"/>
<path class="st1" d="M503.3,166v-9.6c0-0.3,0.2-0.6,0.4-0.6c0.1,0,0.1,0,0.2,0h2.9c2.5,0,3.8,0.9,3.8,2.9c0,0.5-0.2,1.1-0.5,1.5
	c-0.3,0.4-0.8,0.8-1.3,0.9v0.1c0.3,0.1,0.4,0.3,0.6,0.5c0.2,0.3,0.3,0.5,0.5,0.8l1.3,3.4c0,0.1,0.1,0.2,0.1,0.3
	c0,0.2-0.3,0.3-0.9,0.3h-0.6c-0.5,0-0.8-0.1-0.8-0.3l-1.2-2.9c-0.3-0.7-0.8-1-1.5-0.9h-0.6v3.7c0,0.3-0.3,0.5-0.9,0.5h-0.5
	C503.6,166.5,503.3,166.4,503.3,166z M505.6,160.3h1.4c0.3,0,0.7-0.2,0.8-0.3c0.3-0.3,0.3-0.6,0.3-0.9c0-0.3-0.1-0.6-0.3-0.8
	c-0.3-0.3-0.6-0.3-0.9-0.3h-1.3V160.3z"/>
<path class="st1" d="M513,166.1v-9.6c0-0.3,0.3-0.5,0.9-0.5h0.5c0.6,0,0.9,0.2,0.9,0.5v9.6c0,0.3-0.3,0.5-0.9,0.5h-0.5
	C513.2,166.6,513,166.5,513,166.1z"/>
<path class="st1" d="M517.3,165.3c0-0.3,0.2-0.6,0.3-0.8c0.3-0.3,0.4-0.5,0.6-0.5c0.2,0,0.3,0.1,0.4,0.2c0.6,0.3,1.2,0.5,1.8,0.5
	c0.9,0,1.4-0.3,1.4-1.1c0-0.3-0.2-0.7-0.4-0.8c-0.3-0.3-0.7-0.4-1.1-0.6c-0.4-0.2-0.8-0.3-1.3-0.6s-0.8-0.6-1.1-1
	c-0.3-0.5-0.5-1.1-0.4-1.7c0-0.6,0.2-1.3,0.5-1.8c0.8-0.9,1.8-1.4,3-1.3c0.7,0,1.3,0.1,1.9,0.3c0.5,0.3,0.8,0.5,0.8,0.8
	c0,0.3-0.1,0.6-0.3,0.8c-0.2,0.3-0.3,0.5-0.5,0.5c-0.1,0-0.2-0.1-0.3-0.1c-0.4-0.2-0.9-0.3-1.4-0.3c-0.4,0-0.8,0.1-1.1,0.3
	c-0.2,0.2-0.3,0.4-0.3,0.7c0,0.3,0.2,0.6,0.4,0.8c0.3,0.3,0.7,0.4,1.1,0.6c0.4,0.2,0.8,0.3,1.3,0.6c0.4,0.3,0.8,0.6,1.1,1
	c0.3,0.5,0.5,1,0.4,1.6c0,0.6-0.1,1.1-0.3,1.6c-0.2,0.4-0.5,0.8-0.8,1c-0.8,0.5-1.6,0.8-2.4,0.8s-1.7-0.1-2.4-0.4
	C517.5,165.9,517.3,165.5,517.3,165.3z"/>
<path class="st1" d="M526,166.1v-9.6c0-0.3,0.3-0.5,0.9-0.5h0.5c0.6,0,0.9,0.2,0.9,0.5v9.6c0,0.3-0.3,0.5-0.9,0.5h-0.5
	C526.3,166.6,526,166.5,526,166.1z"/>
<path class="st1" d="M530.9,166v-9.4c0-0.3,0.2-0.6,0.4-0.6c0.1,0,0.1,0,0.2,0h5.5c0.3,0,0.4,0.3,0.4,0.8v0.5c0,0.5-0.2,0.8-0.4,0.8
	h-3.8v2.2h3.4c0.3,0,0.4,0.3,0.4,0.8v0.5c0,0.5-0.2,0.8-0.4,0.8h-3.4v2.4h3.9c0.3,0,0.4,0.3,0.4,0.8v0.5c0,0.5-0.2,0.8-0.4,0.8h-5.5
	c-0.3,0-0.6-0.2-0.6-0.4C530.9,166,530.9,166,530.9,166z"/>
<path class="st1" d="M539.8,166.1v-9.6c0-0.3,0.3-0.5,0.9-0.5h0.7c0.4-0.1,0.8,0.1,1,0.4l3.9,6.1v-6c0-0.3,0.3-0.5,0.9-0.5h0.4
	c0.6,0,0.9,0.2,0.9,0.5v9.6c0,0.3-0.3,0.5-0.9,0.5h-0.6c-0.4,0-0.8-0.1-1-0.4l-4-6.2v6.1c0,0.3-0.3,0.5-0.9,0.5h-0.4
	C540.1,166.6,539.8,166.5,539.8,166.1z"/>
<path class="st1" d="M550.6,165.3c0-0.3,0.2-0.6,0.3-0.8c0.3-0.3,0.4-0.5,0.6-0.5c0.2,0,0.3,0.1,0.4,0.2c0.6,0.3,1.2,0.5,1.8,0.5
	c0.9,0,1.4-0.3,1.4-1.1c0-0.3-0.2-0.7-0.4-0.8c-0.3-0.3-0.7-0.4-1.1-0.6c-0.4-0.2-0.8-0.3-1.3-0.6s-0.8-0.6-1.1-1
	c-0.3-0.5-0.5-1.1-0.4-1.7c0-0.6,0.2-1.3,0.5-1.8c0.8-0.9,1.8-1.4,3-1.3c0.7,0,1.3,0.1,1.9,0.3c0.5,0.3,0.8,0.5,0.8,0.8
	c0,0.3-0.1,0.6-0.3,0.8c-0.2,0.3-0.4,0.5-0.6,0.5c-0.1,0-0.2-0.1-0.3-0.1c-0.4-0.2-0.9-0.3-1.4-0.3c-0.4,0-0.8,0.1-1.1,0.3
	c-0.2,0.2-0.3,0.4-0.3,0.7c0,0.3,0.2,0.6,0.4,0.8c0.3,0.3,0.7,0.4,1.1,0.6c0.4,0.2,0.8,0.3,1.3,0.6s0.8,0.6,1.1,1
	c0.3,0.5,0.5,1,0.4,1.6c0,0.6-0.1,1.1-0.3,1.6c-0.2,0.4-0.5,0.8-0.8,1c-0.8,0.5-1.6,0.8-2.4,0.8s-1.7-0.1-2.4-0.4
	C550.9,165.9,550.6,165.5,550.6,165.3z"/>
<path class="st1" d="M563.3,161.2c0-3.6,1.7-5.4,5-5.4c0.8,0,1.4,0.1,2.1,0.3c0.7,0.2,1,0.4,1,0.8c-0.1,0.3-0.2,0.6-0.3,0.8
	c-0.3,0.3-0.4,0.5-0.7,0.5c-0.1,0-0.3-0.1-0.3-0.1c-0.6-0.3-1.3-0.3-1.9-0.3c-1.8,0-2.6,1.2-2.6,3.4s0.8,3.4,2.6,3.4
	c0.8,0,1.4-0.2,2.1-0.4c0.1-0.1,0.3-0.1,0.4-0.2c0.2,0,0.4,0.2,0.6,0.5c0.2,0.3,0.3,0.5,0.3,0.8c0,0.4-0.3,0.8-1.1,0.9
	c-0.8,0.3-1.5,0.3-2.3,0.3c-1.3,0.1-2.8-0.3-3.8-1.3C563.7,164.4,563.3,163,563.3,161.2z"/>
<path class="st1" d="M574.5,165.2c-1.7-2.4-1.7-5.6,0-8.1c0.9-1,2.3-1.5,3.6-1.4c1.3-0.1,2.7,0.4,3.6,1.4c1.7,2.4,1.7,5.6,0,8.1
	c-0.9,1-2.3,1.5-3.6,1.4C576.7,166.7,575.4,166.2,574.5,165.2z M576.2,163.8c0.4,0.6,1.1,0.9,1.8,0.9c0.8,0.1,1.4-0.3,1.8-0.9
	c0.8-1.6,0.8-3.5,0-5.1c-0.4-0.6-1.1-0.9-1.8-0.8c-0.8-0.1-1.4,0.3-1.8,0.8C575.4,160.2,575.4,162.2,576.2,163.8z"/>
<path class="st1" d="M585.2,166.1v-9.6c0-0.3,0.3-0.5,0.9-0.5h0.7c0.4-0.1,0.8,0.1,1,0.4l3.9,6.1v-6c0-0.3,0.3-0.5,0.9-0.5h0.4
	c0.6,0,0.9,0.2,0.9,0.5v9.6c0,0.3-0.3,0.5-0.9,0.5h-0.6c-0.4,0-0.8-0.1-1-0.4l-4-6.2v6.1c0,0.3-0.3,0.5-0.9,0.5h-0.4
	C585.6,166.6,585.2,166.5,585.2,166.1z"/>
<path class="st1" d="M596,165.3c0-0.3,0.2-0.6,0.3-0.8c0.3-0.3,0.4-0.5,0.6-0.5c0.2,0,0.3,0.1,0.4,0.2c0.6,0.3,1.2,0.5,1.8,0.5
	c0.9,0,1.4-0.3,1.4-1.1c0-0.3-0.2-0.7-0.4-0.8c-0.3-0.3-0.7-0.4-1.1-0.6c-0.4-0.2-0.8-0.3-1.3-0.6s-0.8-0.6-1.1-1
	c-0.3-0.5-0.5-1.1-0.4-1.7c0-0.6,0.2-1.3,0.5-1.8c0.8-0.9,1.8-1.4,3-1.3c0.7,0,1.3,0.1,1.9,0.3c0.5,0.3,0.8,0.5,0.8,0.8
	c0,0.3-0.1,0.6-0.3,0.8c-0.2,0.3-0.3,0.5-0.6,0.5c-0.1,0-0.2-0.1-0.3-0.1c-0.4-0.2-0.9-0.3-1.4-0.3c-0.4,0-0.8,0.1-1.1,0.3
	c-0.2,0.2-0.3,0.4-0.3,0.7c0,0.3,0.2,0.6,0.4,0.8c0.3,0.3,0.7,0.4,1.1,0.6c0.4,0.2,0.8,0.3,1.3,0.6s0.8,0.6,1.1,1
	c0.3,0.5,0.5,1,0.4,1.6c0,0.6-0.1,1.1-0.3,1.6c-0.2,0.4-0.5,0.8-0.8,1c-0.8,0.5-1.6,0.8-2.4,0.8s-1.7-0.1-2.4-0.4
	C596.3,165.9,596,165.5,596,165.3z"/>
<path class="st1" d="M604.9,165.9v-9.4c0-0.3,0.2-0.6,0.4-0.6c0.1,0,0.1,0,0.2,0h5.5c0.3,0,0.4,0.3,0.4,0.8v0.5
	c0,0.5-0.2,0.8-0.4,0.8h-3.8v2.2h3.4c0.3,0,0.4,0.3,0.4,0.8v0.5c0,0.5-0.2,0.8-0.4,0.8h-3.4v2.4h3.9c0.3,0,0.4,0.3,0.4,0.8v0.5
	c0,0.5-0.2,0.8-0.4,0.8h-5.5c-0.3,0.1-0.6-0.2-0.6-0.4C604.9,166,604.9,166,604.9,165.9z"/>
<path class="st1" d="M613.6,166.1v-9.6c0-0.3,0.3-0.5,0.9-0.5h0.5c0.6,0,0.9,0.2,0.9,0.5v9.6c0,0.3-0.3,0.5-0.9,0.5h-0.5
	C613.9,166.6,613.6,166.5,613.6,166.1z"/>
<path class="st1" d="M618.5,166v-9.5c0-0.3,0.3-0.5,0.9-0.5h0.5c0.6,0,0.9,0.2,0.9,0.5v8.1h3.4c0.3,0,0.4,0.3,0.4,0.8v0.5
	c0,0.5-0.2,0.8-0.4,0.8h-5.1c-0.3,0-0.6-0.2-0.6-0.5C618.5,166,618.5,166,618.5,166z"/>
<path class="st1" d="M626.5,166v-9.5c0-0.3,0.3-0.5,0.9-0.5h0.5c0.6,0,0.9,0.2,0.9,0.5v8.1h3.4c0.3,0,0.4,0.3,0.4,0.8v0.5
	c0,0.5-0.2,0.8-0.4,0.8h-5.1c-0.3,0-0.6-0.2-0.6-0.5C626.5,166,626.5,166,626.5,166z"/>
<path class="st1" d="M634.4,166v-9.4c0-0.3,0.2-0.6,0.4-0.6c0.1,0,0.1,0,0.2,0h5.5c0.3,0,0.4,0.3,0.4,0.8v0.5c0,0.5-0.2,0.8-0.4,0.8
	h-3.8v2.2h3.4c0.3,0,0.4,0.3,0.4,0.8v0.5c0,0.5-0.2,0.8-0.4,0.8h-3.4v2.4h3.8c0.3,0,0.4,0.3,0.4,0.8v0.5c0,0.5-0.2,0.8-0.4,0.8H635
	c-0.3,0-0.6-0.2-0.6-0.4C634.4,166,634.4,166,634.4,166z M637.1,154.9c-0.3,0-0.5-0.1-0.5-0.3c0-0.2,0.1-0.3,0.3-0.5
	c0.2-0.3,0.3-0.4,0.4-0.7c0.2-0.3,0.3-0.4,0.3-0.7c0.1-0.3,0.6-0.4,1.2-0.4s1,0.1,1,0.2c0,0.1,0,0.2-0.1,0.2
	c-0.1,0.2-0.3,0.3-0.3,0.4l-0.4,0.4c-0.1,0.1-0.2,0.2-0.3,0.3l-0.4,0.5C637.9,154.8,637.5,154.9,637.1,154.9z"/>
<path class="st1" d="M642.5,165.3c0-0.3,0.2-0.6,0.3-0.8c0.3-0.3,0.4-0.5,0.6-0.5c0.2,0,0.3,0.1,0.4,0.2c0.6,0.3,1.2,0.5,1.8,0.5
	c0.9,0,1.4-0.3,1.4-1.1c0-0.3-0.2-0.7-0.4-0.8c-0.3-0.3-0.7-0.4-1.1-0.6c-0.4-0.2-0.8-0.3-1.3-0.6s-0.8-0.6-1.1-1
	c-0.3-0.5-0.5-1.1-0.4-1.7c0-0.6,0.2-1.3,0.6-1.8c0.8-0.9,1.8-1.4,3-1.3c0.7,0,1.3,0.1,1.9,0.3c0.5,0.3,0.8,0.5,0.8,0.8
	c0,0.3-0.1,0.6-0.3,0.8c-0.2,0.3-0.4,0.5-0.6,0.5c-0.1,0-0.2-0.1-0.3-0.1c-0.4-0.2-0.9-0.3-1.4-0.3c-0.4,0-0.8,0.1-1.1,0.3
	c-0.2,0.2-0.3,0.4-0.3,0.7c0,0.3,0.2,0.6,0.4,0.8c0.3,0.3,0.7,0.4,1.1,0.6c0.4,0.2,0.8,0.3,1.3,0.6s0.8,0.6,1.1,1
	c0.3,0.5,0.5,1,0.4,1.6c0,0.6-0.1,1.1-0.3,1.6c-0.2,0.4-0.5,0.8-0.8,1c-0.8,0.5-1.6,0.8-2.4,0.8s-1.7-0.1-2.4-0.4
	C642.9,165.9,642.5,165.5,642.5,165.3z"/>
<path class="st1" d="M861.3,165.9v-9.4c0-0.3,0.2-0.6,0.4-0.6c0.1,0,0.1,0,0.2,0h5.5c0.3,0,0.4,0.3,0.4,0.8v0.5
	c0,0.5-0.2,0.8-0.4,0.8h-3.8v2.2h3.4c0.3,0,0.4,0.3,0.4,0.8v0.5c0,0.5-0.2,0.8-0.4,0.8h-3.4v2.4h3.9c0.3,0,0.4,0.3,0.4,0.8v0.5
	c0,0.5-0.2,0.8-0.4,0.8h-5.5c-0.3,0.1-0.6-0.2-0.7-0.4C861.3,166,861.3,166,861.3,165.9z M864,154.9c-0.3,0-0.5-0.1-0.5-0.3
	c0-0.2,0.1-0.3,0.3-0.5c0.2-0.3,0.3-0.4,0.4-0.7l0.3-0.7c0.2-0.3,0.6-0.4,1.2-0.4c0.7,0,1,0.1,1,0.2s0,0.2-0.1,0.2
	c-0.1,0.2-0.3,0.3-0.3,0.4l-0.4,0.4l-0.3,0.3l-0.4,0.5C864.8,154.8,864.4,154.9,864,154.9z"/>
<path class="st1" d="M869.2,156.3c0-0.3,0.3-0.3,0.9-0.3h0.5c0.5,0,0.8,0.2,0.9,0.4l2.2,7h0.1l2.3-7c0.1-0.3,0.4-0.4,0.9-0.4h0.5
	c0.6,0,0.9,0.1,0.9,0.3c0,0.1,0,0.2,0,0.3l-3.3,9.7c-0.1,0.2-0.3,0.3-0.8,0.3h-0.8c-0.5,0-0.8-0.1-0.8-0.3l-3.3-9.7
	C869.2,156.5,869.2,156.4,869.2,156.3z"/>
<path class="st1" d="M880.1,166v-9.4c-0.1-0.3,0.2-0.6,0.4-0.6c0.1,0,0.1,0,0.2,0h5.5c0.3,0,0.4,0.3,0.4,0.8v0.5
	c0,0.5-0.2,0.8-0.4,0.8h-3.8v2.2h3.4c0.3,0,0.4,0.3,0.4,0.8v0.5c0,0.5-0.2,0.8-0.4,0.8h-3.4v2.4h3.8c0.3,0,0.4,0.3,0.4,0.8v0.5
	c0,0.5-0.2,0.8-0.4,0.8h-5.5c-0.3,0-0.6-0.2-0.6-0.4C880.1,166,880.1,166,880.1,166z M882.8,154.9c-0.3,0-0.5-0.1-0.5-0.3
	c0-0.2,0.1-0.3,0.3-0.5c0.2-0.3,0.3-0.4,0.4-0.7c0.2-0.3,0.3-0.4,0.3-0.7c0.1-0.3,0.6-0.4,1.2-0.4c0.6,0,1,0.1,1,0.2
	c0,0.1,0,0.2-0.1,0.2c-0.1,0.2-0.3,0.3-0.3,0.4l-0.4,0.4l-0.3,0.3l-0.4,0.5C883.6,154.8,883.2,154.9,882.8,154.9z"/>
<path class="st1" d="M889,166.1v-9.6c0-0.3,0.3-0.5,0.9-0.5h0.7c0.4,0,0.8,0.1,1,0.4l3.9,6.1v-6c0-0.3,0.3-0.5,0.9-0.5h0.4
	c0.6,0,0.9,0.2,0.9,0.5v9.6c0,0.3-0.3,0.5-0.9,0.5h-0.6c-0.4,0.1-0.8-0.1-1-0.4l-4-6.2v6.1c0,0.3-0.3,0.5-0.9,0.5h-0.4
	C889.2,166.6,889,166.4,889,166.1z"/>
<path class="st1" d="M900.4,166v-9.4c0-0.3,0.2-0.6,0.4-0.6c0.1,0,0.1,0,0.2,0h5.5c0.3,0,0.4,0.3,0.4,0.8v0.5c0,0.5-0.2,0.8-0.4,0.8
	h-3.8v2.2h3.4c0.3,0,0.4,0.3,0.4,0.8v0.5c0,0.5-0.2,0.8-0.4,0.8h-3.4v2.4h3.8c0.3,0,0.4,0.3,0.4,0.8v0.5c0,0.5-0.2,0.8-0.4,0.8H901
	c-0.3,0-0.6-0.2-0.6-0.4C900.4,166,900.4,166,900.4,166z"/>
<path class="st1" d="M909.3,166.1v-9.6c0-0.3,0.3-0.5,0.9-0.5h0.8c0.3-0.1,0.8,0.1,0.9,0.4l2.7,4.7l2.7-4.7c0.3-0.3,0.6-0.5,0.9-0.4
	h0.8c0.6,0,0.9,0.2,0.9,0.5v9.6c0,0.3-0.3,0.5-0.9,0.5h-0.4c-0.6,0-0.9-0.2-0.9-0.5v-6.2h-0.1l-2.2,3.9c-0.2,0.2-0.3,0.3-0.6,0.3
	h-0.4c-0.3,0-0.5-0.1-0.6-0.3l-2.2-3.9h-0.1v6.2c0,0.3-0.3,0.5-0.9,0.5h-0.4C909.5,166.6,909.3,166.5,909.3,166.1z"/>
<path class="st1" d="M922.6,165.9v-9.4c0-0.3,0.2-0.6,0.4-0.6c0.1,0,0.1,0,0.2,0h5.5c0.3,0,0.4,0.3,0.4,0.8v0.5
	c0,0.5-0.2,0.8-0.4,0.8h-3.9v2.2h3.4c0.3,0,0.4,0.3,0.4,0.8v0.5c0,0.5-0.2,0.8-0.4,0.8h-3.4v2.4h3.8c0.3,0,0.4,0.3,0.4,0.8v0.5
	c0,0.5-0.2,0.8-0.4,0.8h-5.5c-0.3,0.1-0.6-0.2-0.6-0.4C922.6,166,922.6,166,922.6,165.9z"/>
<path class="st1" d="M931.4,166.1v-9.6c0-0.3,0.3-0.5,0.9-0.5h0.7c0.4,0,0.8,0.1,1,0.4l3.9,6.1v-6c0-0.3,0.3-0.5,0.9-0.5h0.4
	c0.6,0,0.9,0.2,0.9,0.5v9.6c0,0.3-0.3,0.5-0.9,0.5h-0.6c-0.4,0.1-0.8-0.1-1-0.4l-4-6.2v6.1c0,0.3-0.3,0.5-0.9,0.5h-0.4
	C931.8,166.6,931.4,166.4,931.4,166.1z"/>
<path class="st1" d="M944.8,166.1V158h-2.4c-0.3,0-0.4-0.3-0.4-0.8v-0.5c0-0.5,0.2-0.8,0.4-0.8h7.1c0.3,0,0.4,0.3,0.4,0.8v0.5
	c0,0.5-0.2,0.8-0.4,0.8h-2.4v8.1c0,0.3-0.3,0.5-0.9,0.5h-0.5C945.1,166.6,944.8,166.5,944.8,166.1z"/>
<path class="st1" d="M951,165.3c0-0.3,0.2-0.6,0.3-0.8c0.3-0.3,0.4-0.5,0.6-0.5c0.2,0,0.3,0.1,0.4,0.2c0.6,0.3,1.2,0.5,1.8,0.5
	c0.9,0,1.4-0.3,1.4-1.1c0-0.3-0.2-0.7-0.4-0.8c-0.3-0.3-0.7-0.4-1.1-0.6c-0.4-0.2-0.8-0.3-1.3-0.6s-0.8-0.6-1.1-1
	c-0.3-0.5-0.5-1.1-0.4-1.7c0-0.6,0.2-1.3,0.6-1.8c0.8-0.9,1.8-1.4,3-1.3c0.7,0,1.3,0.1,1.9,0.3c0.5,0.3,0.8,0.5,0.8,0.8
	c0,0.3-0.1,0.6-0.3,0.8c-0.2,0.3-0.4,0.5-0.6,0.5c-0.1,0-0.2-0.1-0.3-0.1c-0.4-0.2-0.9-0.3-1.4-0.3c-0.4,0-0.8,0.1-1.1,0.3
	c-0.2,0.2-0.3,0.4-0.3,0.7c0,0.3,0.2,0.6,0.4,0.8c0.3,0.3,0.7,0.4,1.1,0.6c0.4,0.2,0.8,0.3,1.3,0.6s0.8,0.6,1.1,1
	c0.3,0.5,0.5,1,0.4,1.6c0,0.6-0.1,1.1-0.3,1.6c-0.2,0.4-0.5,0.8-0.8,1c-0.8,0.5-1.6,0.8-2.4,0.8s-1.7-0.1-2.4-0.4
	C951.4,165.9,951,165.5,951,165.3z"/>
<path class="st0" d="M528.3,341.7c0.1-0.6,0.3-1.2,0.7-1.6c0.4-0.6,0.8-0.9,1.1-0.9c0,0,0.9,0.3,2.7,0.8c1.5,0.5,3.2,0.8,4.8,0.8
	c1.3,0,2.5-0.2,3.7-0.6c1.1-0.4,2.1-1.3,2.8-2.2c0.8-1.3,1.3-2.7,1.2-4.2c0-2.4-0.7-4.1-2-5.1c-1.3-1-3.2-1.5-5.6-1.5h-1.7
	c-0.7,0-1-0.5-1-1.5v-0.6c0-1,0.3-1.5,1-1.5h1.4c2.3,0,4-0.8,5-2.2c1-1.2,1.5-2.7,1.6-4.3c0-1.3-0.5-2.6-1.4-3.6
	c-0.9-1-2.4-1.4-4.6-1.4c-2.1,0-4.2,0.4-6.1,1.3c-0.3,0.3-0.8,0.3-1.1,0.4c-0.3,0-0.6-0.3-1-1c-0.3-0.5-0.6-1-0.7-1.6
	c0-0.7,1.1-1.3,3.2-1.9c1.9-0.5,3.9-0.8,5.9-0.8c3.1,0,5.5,0.8,7.4,2.2c1.8,1.5,2.8,3.7,2.9,6.6c0.1,1.6-0.5,3.1-1.4,4.3
	c-1,1.2-2.3,2.2-3.7,2.7v0.2c1.8,0.5,3.4,1.6,4.4,3.1c1.3,1.6,2,3.6,1.9,5.7c0.1,1.8-0.3,3.7-1,5.4c-0.6,1.3-1.5,2.5-2.7,3.4
	c-2.2,1.6-4.8,2.3-7.5,2.3c-2.4,0.1-4.8-0.2-7.1-0.8C529.3,343,528.3,342.3,528.3,341.7z"/>
<path class="st0" d="M555.2,341.5c0.1-0.6,0.3-1.2,0.7-1.6c0.4-0.6,0.8-0.9,1.1-0.9c0,0,0.9,0.3,2.7,0.8c1.5,0.5,3.2,0.8,4.8,0.8
	c1.3,0,2.5-0.2,3.7-0.6c1.1-0.4,2.1-1.3,2.8-2.2c0.8-1.3,1.3-2.7,1.2-4.2c0-2.4-0.7-4.1-2-5.1s-3.2-1.5-5.6-1.4h-1.7
	c-0.7,0-1-0.5-1-1.5v-0.6c0-1,0.3-1.5,1-1.5h1.4c2.3,0,4-0.8,5-2.2c1-1.2,1.5-2.7,1.6-4.3c0-1.3-0.5-2.6-1.4-3.6
	c-0.9-1-2.4-1.5-4.6-1.4c-2.1,0-4.2,0.4-6.1,1.3c-0.3,0.3-0.8,0.3-1.1,0.4c-0.3,0-0.6-0.3-1-1c-0.3-0.5-0.6-1-0.7-1.6
	c0-0.7,1.1-1.3,3.2-1.9c1.9-0.5,3.9-0.8,5.9-0.8c2.7-0.2,5.3,0.6,7.4,2.2c1.8,1.5,2.8,3.7,2.9,6.6c0.1,1.6-0.5,3.1-1.4,4.3
	c-0.9,1.2-2.3,2.2-3.7,2.7v0.2c1.8,0.5,3.4,1.5,4.4,3c1.3,1.6,1.9,3.6,1.9,5.7c0.1,1.8-0.3,3.7-1,5.4c-0.6,1.3-1.5,2.5-2.7,3.4
	c-2.2,1.6-4.8,2.3-7.5,2.3c-2.4,0.1-4.8-0.2-7.1-0.8C556.2,342.8,555.2,342.2,555.2,341.5z"/>
<path class="st0" d="M582,342.3v-0.6c0-1,0.3-1.5,1-1.5l8.7-0.1l-0.3-27.1l-8.9,1.6c-0.3,0-0.6-0.3-0.8-0.8
	c-0.2-0.5-0.3-1.1-0.3-1.7c0-0.5,0.4-0.9,0.9-1l11.7-2.7c0.4,0,0.8,0.1,1.1,0.3c0.3,0.2,0.5,0.4,0.5,0.8l0.3,30.6l7.5-0.1
	c0.7,0,1,0.5,1,1.5v0.6c0,1-0.3,1.5-1,1.5l-20.5,0.2C582.4,343.8,582,343.3,582,342.3z"/>
<path class="st0" d="M838,346.2c-0.2-0.4-0.3-0.9-0.3-1.4c-0.1-0.3,0-0.7,0.2-0.9l7.7-9.8c3.7-4.7,6-7.8,7-9.3
	c0.9-1.3,1.4-3,1.4-4.6c0.1-1.4-0.6-2.9-1.7-3.8c-1.2-0.9-2.7-1.4-4.2-1.3c-1.4,0-2.9,0.3-4.1,0.7c-0.9,0.3-1.8,0.8-2.6,1.3
	c-0.3,0.3-0.8,0.5-1.3,0.7c-0.2,0-0.5-0.3-0.9-1c-0.3-0.4-0.6-1-0.7-1.5c0-1,1.1-1.8,3.2-2.6c1.8-0.7,3.9-1.1,5.9-1.2
	c3.3,0,5.9,0.7,7.9,2.2c1.9,1.5,3,3.8,2.9,6.2c0,1.6-0.3,3.2-0.9,4.6c-0.8,1.7-1.7,3.2-2.9,4.7c-1.3,1.7-3.9,4.9-7.6,9.7l-3.6,4.5
	l14.5-0.1c0.7,0,1,0.5,1,1.5v0.6c0,1-0.3,1.5-1,1.5l-19.2,0.2C838.4,346.9,838.1,346.7,838,346.2z"/>
<path class="st0" d="M864.7,342.9c0-1.1,0.7-1.6,2-1.6h0.4c1.3,0,2,0.4,2,1.3c0.1,2.4-0.5,4.9-1.8,7c-1.2,1.9-2.3,2.9-3.3,2.9
	s-1.5-0.3-1.5-0.8c0.1-0.4,0.3-0.8,0.4-1.2C864.2,348.2,864.8,345.6,864.7,342.9z"/>
<path class="st0" d="M874.1,345.1v-0.6c0-1,0.3-1.5,1-1.5l8.7-0.1l-0.3-27.1l-8.9,1.6c-0.3,0-0.6-0.3-0.8-0.8
	c-0.2-0.5-0.3-1.1-0.3-1.6c0-0.5,0.4-1,0.9-1l11.7-2.9c0.4,0,0.8,0.1,1.1,0.3c0.3,0.2,0.5,0.4,0.5,0.8l0.3,30.6l7.5-0.1
	c0.7,0,1,0.5,1,1.5v0.6c0,1-0.3,1.5-1,1.5l-20.5,0.2C874.4,346.6,874.1,346.1,874.1,345.1z"/>
<path class="st0" d="M915.5,345.2l-0.3-33.2c0-0.8,0.7-1.1,2-1.1h1.8c0.8-0.1,1.6,0.3,2.1,0.8l9.6,16.4l1.3,3.2l1.3-2.9l9.4-16.9
	c0.5-0.7,1.3-1,2.1-0.9h1.7c1.3,0,2,0.3,2,1.1l0.3,33.2c0,0.8-0.7,1.1-2,1.1h-0.3c-1.3,0-2-0.3-2-1.1l-0.3-27.1l-10,17.7
	c-0.2,0.4-0.7,0.7-1.1,0.7h-2c-0.5,0-0.9-0.3-1.1-0.7l-10.4-17.8l0.3,27.4c0,0.8-0.7,1.1-2,1.1h-0.3
	C916.1,346.3,915.5,346,915.5,345.2z"/>
<path class="st0" d="M954.3,334.1c-0.7,0-1-0.5-1-1.5v-0.4c0-1,0.3-1.5,1-1.5h2.4c0-0.5-0.1-1.3-0.1-2.3s0-1.8,0-2.3h-2.4
	c-0.7,0-1-0.5-1-1.5v-0.3c0-1,0.3-1.5,1-1.5h2.9c0.7-4,2.2-7.1,4.7-9.1c2.8-2.2,6.1-3.3,9.6-3.2c2,0,4,0.3,6,1
	c1.8,0.7,2.7,1.3,2.7,2.1c-0.1,0.6-0.3,1.2-0.6,1.7c-0.4,0.7-0.8,1-1.1,1c-0.3-0.2-0.7-0.3-1-0.5c-0.8-0.4-1.7-0.8-2.5-1.1
	c-1.2-0.3-2.3-0.6-3.5-0.5c-2.3-0.1-4.7,0.7-6.5,2.1c-1.6,1.3-2.7,3.6-3.3,6.6l14-0.1c0.7,0,1,0.5,1,1.5v0.3c0,1-0.3,1.5-1,1.5
	l-14.4,0.1c0,0.5,0,1.3,0,2.3s0,1.8,0.1,2.3l14.4-0.2c0.7,0,1,0.5,1,1.5v0.3c0,1-0.3,1.5-1,1.5l-14,0.1c0.6,2.9,1.8,5,3.4,6.5
	c1.8,1.4,3.9,2.1,6.1,2c1.3,0,2.7-0.3,3.9-0.7c1-0.3,2-0.8,2.9-1.3c0.3-0.3,0.8-0.4,1.2-0.7c0.3,0,0.7,0.3,1.1,1
	c0.3,0.4,0.6,0.9,0.7,1.5c0,0.8-0.9,1.6-2.9,2.4c-2.1,0.8-4.3,1.3-6.5,1.3c-8.4,0.1-13.3-3.9-14.6-12.1L954.3,334.1z"/>
<path class="st1" d="M468.1,369.4c0-3.6,1.7-5.4,5-5.4c0.8,0,1.4,0.1,2.1,0.3c0.7,0.2,1,0.4,1,0.8c-0.1,0.3-0.2,0.6-0.3,0.8
	c-0.3,0.3-0.4,0.5-0.7,0.5c-0.1,0-0.3-0.1-0.3-0.1c-0.6-0.3-1.3-0.3-1.9-0.3c-1.8,0-2.6,1.2-2.6,3.4s0.8,3.4,2.6,3.4
	c0.8,0,1.4-0.2,2.1-0.4c0.1-0.1,0.3-0.1,0.4-0.2c0.2,0,0.4,0.2,0.6,0.5c0.2,0.3,0.3,0.5,0.3,0.8c0,0.4-0.3,0.8-1.1,0.9
	c-0.8,0.3-1.5,0.3-2.3,0.3c-1.3,0.1-2.8-0.3-3.8-1.3C468.5,372.6,468.1,371.2,468.1,369.4z"/>
<path class="st1" d="M479.3,373.4c-1.7-2.4-1.7-5.6,0-8.1c0.9-1,2.3-1.5,3.6-1.4c1.3-0.1,2.7,0.4,3.6,1.4c1.7,2.4,1.7,5.6,0,8.1
	c-0.9,1-2.3,1.5-3.6,1.4C481.5,374.9,480.2,374.4,479.3,373.4z M481,372c0.4,0.6,1.1,0.9,1.8,0.8c0.8,0.1,1.4-0.3,1.8-0.8
	c0.8-1.6,0.8-3.5,0-5.1c-0.4-0.6-1.1-0.9-1.8-0.8c-0.8-0.1-1.4,0.3-1.8,0.8C480.2,368.4,480.2,370.4,481,372z"/>
<path class="st1" d="M490.1,374.2v-9.6c0-0.3,0.2-0.6,0.4-0.6c0.1,0,0.1,0,0.2,0h3.2c1-0.1,1.9,0.3,2.8,0.8c0.3,0.3,0.5,0.6,0.6,1
	c0.2,0.5,0.3,0.9,0.3,1.4c0,0.5-0.1,1-0.3,1.4c-0.2,0.3-0.4,0.7-0.7,0.9c-0.3,0.3-0.6,0.4-0.9,0.6c-0.5,0.3-1,0.3-1.6,0.3h-1.6v3.5
	c0,0.3-0.3,0.5-0.9,0.5H491C490.3,374.7,490.1,374.6,490.1,374.2z M492.3,368.8h1.3c0.3,0,0.7-0.1,0.9-0.3c0.5-0.6,0.5-1.5,0-2.1
	c-0.3-0.2-0.6-0.3-0.9-0.3h-1.3V368.8z"/>
<path class="st1" d="M499.2,374.2v-9.6c0-0.3,0.2-0.6,0.4-0.6c0.1,0,0.1,0,0.2,0h2.9c2.5,0,3.8,0.9,3.8,2.9c0,0.5-0.2,1.1-0.5,1.5
	c-0.3,0.4-0.8,0.8-1.3,0.9v0.1c0.3,0.1,0.4,0.3,0.6,0.5c0.2,0.3,0.3,0.6,0.5,0.8l1.3,3.4c0,0.1,0.1,0.2,0.1,0.3
	c0,0.2-0.3,0.3-0.9,0.3h-0.6c-0.5,0-0.8-0.1-0.8-0.3l-1.2-2.9c-0.3-0.7-0.8-1-1.5-0.9h-0.6v3.7c0,0.3-0.3,0.5-0.9,0.5h-0.5
	C499.6,374.7,499.2,374.6,499.2,374.2z M501.6,368.5h1.4c0.3,0,0.7-0.2,0.8-0.4c0.3-0.3,0.3-0.6,0.3-0.9c0-0.3-0.1-0.6-0.3-0.8
	s-0.6-0.3-0.9-0.3h-1.3V368.5z"/>
<path class="st1" d="M510,373.4c-1.7-2.4-1.7-5.6,0-8.1c2-1.8,5.1-1.8,7.2,0c1.7,2.4,1.7,5.6,0,8.1C515.1,375.2,512,375.2,510,373.4
	z M511.7,372c0.8,1,2.3,1.2,3.3,0.3c0.2-0.1,0.3-0.3,0.3-0.3c0.8-1.6,0.8-3.5,0-5.1c-0.8-1-2.3-1.2-3.3-0.3
	c-0.2,0.1-0.3,0.3-0.3,0.3C510.9,368.4,510.9,370.4,511.7,372z"/>
<path class="st1" d="M520.7,374.2v-9.6c-0.1-0.3,0.2-0.6,0.4-0.6c0.1,0,0.1,0,0.2,0h3.2c1-0.1,1.9,0.3,2.7,0.8
	c0.3,0.3,0.5,0.6,0.6,1c0.2,0.5,0.3,0.9,0.3,1.4c0,0.5-0.1,1-0.3,1.4c-0.2,0.3-0.4,0.7-0.7,0.9c-0.3,0.3-0.6,0.4-0.9,0.6
	c-0.5,0.3-1,0.3-1.6,0.3H523v3.5c0,0.3-0.3,0.5-0.9,0.5h-0.4C521,374.7,520.7,374.6,520.7,374.2z M523.1,368.8h1.3
	c0.3,0,0.7-0.1,0.9-0.3c0.5-0.6,0.5-1.5,0-2.1c-0.3-0.2-0.6-0.3-0.9-0.3h-1.3V368.8z"/>
<path class="st1" d="M529.9,374.2v-9.6c0-0.3,0.2-0.6,0.4-0.6c0.1,0,0.1,0,0.2,0h2.9c2.5,0,3.8,0.9,3.8,2.9c0,0.5-0.2,1.1-0.5,1.5
	c-0.3,0.4-0.8,0.8-1.3,0.9v0.1c0.3,0.1,0.4,0.3,0.6,0.5c0.2,0.3,0.3,0.6,0.5,0.8l1.3,3.4c0,0.1,0.1,0.2,0.1,0.3
	c0,0.2-0.3,0.3-0.9,0.3h-0.6c-0.5,0-0.8-0.1-0.8-0.3l-1.2-2.9c-0.2-0.3-0.3-0.5-0.6-0.7c-0.3-0.2-0.7-0.3-1-0.2h-0.6v3.7
	c0,0.3-0.3,0.5-0.9,0.5h-0.5C530.2,374.7,529.9,374.6,529.9,374.2z M532.3,368.5h1.4c0.3,0,0.7-0.2,0.8-0.4c0.3-0.3,0.3-0.6,0.3-0.9
	c0-0.3-0.1-0.6-0.3-0.8s-0.6-0.3-0.9-0.3h-1.3L532.3,368.5z"/>
<path class="st1" d="M539.7,374.2v-9.6c0-0.3,0.3-0.5,0.9-0.5h0.5c0.6,0,0.9,0.2,0.9,0.5v9.6c0,0.3-0.3,0.5-0.9,0.5h-0.5
	C539.9,374.7,539.7,374.6,539.7,374.2z"/>
<path class="st1" d="M544.6,374.1v-9.4c0-0.3,0.2-0.6,0.4-0.6c0.1,0,0.1,0,0.2,0h5.5c0.3,0,0.4,0.3,0.4,0.8v0.5
	c0,0.5-0.2,0.8-0.4,0.8H547v2.2h3.4c0.3,0,0.4,0.3,0.4,0.8v0.5c0,0.5-0.2,0.8-0.4,0.8H547v2.4h3.9c0.3,0,0.4,0.3,0.4,0.8v0.5
	c0,0.5-0.2,0.8-0.4,0.8h-5.5c-0.3,0-0.6-0.2-0.6-0.4C544.6,374.1,544.6,374.1,544.6,374.1z M547.3,363c-0.3,0-0.4-0.1-0.4-0.3
	c0-0.2,0.1-0.3,0.3-0.5c0.2-0.3,0.3-0.4,0.4-0.7l0.3-0.7c0.2-0.3,0.6-0.4,1.2-0.4c0.7,0,1,0.1,1,0.2s0,0.2-0.1,0.2
	c-0.1,0.2-0.3,0.3-0.3,0.4l-0.4,0.4l-0.3,0.3l-0.4,0.4C548.1,362.9,547.7,363,547.3,363L547.3,363z"/>
<path class="st1" d="M555.4,374.2v-8.1h-2.4c-0.3,0-0.4-0.3-0.4-0.8v-0.5c0-0.5,0.2-0.8,0.4-0.8h7.1c0.3,0,0.4,0.3,0.4,0.8v0.5
	c0,0.5-0.2,0.8-0.4,0.8h-2.3v8.1c0,0.3-0.3,0.5-0.9,0.5h-0.5C555.7,374.7,555.4,374.6,555.4,374.2z"/>
<path class="st1" d="M562.3,374.1v-9.4c0-0.3,0.2-0.6,0.4-0.6c0.1,0,0.1,0,0.2,0h5.5c0.3,0,0.4,0.3,0.4,0.8v0.5
	c0,0.5-0.2,0.8-0.4,0.8h-3.8v2.2h3.4c0.3,0,0.4,0.3,0.4,0.8v0.5c0,0.5-0.2,0.8-0.4,0.8h-3.4v2.4h3.9c0.3,0,0.4,0.3,0.4,0.8v0.5
	c0,0.5-0.2,0.8-0.4,0.8H563c-0.3,0-0.6-0.2-0.6-0.4C562.3,374.1,562.3,374.1,562.3,374.1z M565,363c-0.3,0-0.4-0.1-0.4-0.3
	c0-0.2,0.1-0.3,0.3-0.5c0.2-0.3,0.3-0.4,0.4-0.7l0.3-0.7c0.2-0.3,0.6-0.4,1.2-0.4c0.7,0,1,0.1,1,0.2s0,0.2-0.1,0.2
	c-0.1,0.2-0.3,0.3-0.3,0.4l-0.4,0.4l-0.3,0.3l-0.4,0.4C565.8,362.9,565.4,363,565,363L565,363z"/>
<path class="st1" d="M570.5,373.5c0-0.3,0.2-0.6,0.3-0.8c0.3-0.3,0.4-0.5,0.6-0.5c0.2,0,0.3,0.1,0.4,0.2c0.6,0.3,1.2,0.5,1.8,0.5
	c0.9,0,1.4-0.3,1.4-1.1c0-0.3-0.2-0.7-0.4-0.8c-0.3-0.3-0.7-0.4-1.1-0.6c-0.4-0.2-0.8-0.3-1.3-0.6c-0.4-0.3-0.8-0.6-1.1-1
	c-0.3-0.5-0.5-1.1-0.4-1.7c0-0.6,0.2-1.3,0.6-1.8c0.8-0.9,1.8-1.4,3-1.3c0.7,0,1.3,0.1,1.9,0.3c0.5,0.3,0.8,0.4,0.8,0.8
	c0,0.3-0.1,0.6-0.3,0.8c-0.2,0.3-0.4,0.5-0.6,0.5c-0.1,0-0.2-0.1-0.3-0.1c-0.4-0.2-0.9-0.3-1.4-0.3c-0.4,0-0.8,0.1-1.1,0.3
	c-0.2,0.2-0.3,0.4-0.3,0.7c0,0.3,0.2,0.6,0.4,0.8c0.3,0.3,0.7,0.4,1.1,0.6c0.4,0.2,0.8,0.3,1.3,0.6s0.8,0.6,1.1,1
	c0.3,0.5,0.5,1,0.4,1.6c0,0.6-0.1,1.1-0.3,1.6c-0.2,0.4-0.5,0.8-0.8,1c-0.8,0.5-1.6,0.8-2.4,0.8s-1.7-0.1-2.4-0.4
	C570.8,374.1,570.5,373.7,570.5,373.5z"/>
<path class="st1" d="M583.5,374.1v-9.5c0-0.3,0.3-0.5,0.9-0.5h0.5c0.6,0,0.9,0.2,0.9,0.5v8.1h3.4c0.3,0,0.4,0.3,0.4,0.8v0.5
	c0,0.5-0.2,0.8-0.4,0.8h-5.1c-0.3,0-0.6-0.2-0.6-0.5C583.5,374.1,583.5,374.1,583.5,374.1z"/>
<path class="st1" d="M590.4,374.4c0-0.1,0-0.2,0.1-0.3l3.4-9.7c0.1-0.2,0.3-0.3,0.8-0.3h0.8c0.5,0,0.8,0.1,0.8,0.3l3.4,9.7
	c0,0.1,0,0.2,0,0.3c0,0.3-0.3,0.3-0.8,0.3h-0.7c-0.5,0-0.8-0.1-0.8-0.3l-0.6-1.8h-3.5l-0.6,1.8c-0.1,0.2-0.3,0.3-0.7,0.3h-0.6
	C590.8,374.7,590.4,374.6,590.4,374.4z M593.9,370.5h2.3l-0.8-2.7l-0.3-0.9H595c-0.1,0.3-0.2,0.7-0.3,0.9L593.9,370.5z"/>
<path class="st1" d="M601.3,371.1v-6.6c0-0.3,0.3-0.5,0.9-0.5h0.5c0.6,0,0.9,0.2,0.9,0.5v6.5c0,0.5,0.2,1,0.6,1.3
	c0.8,0.7,2.1,0.7,2.9,0c0.4-0.3,0.6-0.8,0.6-1.3v-6.5c0-0.3,0.3-0.5,0.9-0.5h0.5c0.6,0,0.9,0.2,0.9,0.5v6.6c0.1,1-0.3,2-1.2,2.7
	c-1.9,1.3-4.5,1.3-6.5,0C601.7,373.1,601.2,372.1,601.3,371.1z"/>
<path class="st1" d="M612.7,374.2v-9.6c0-0.3,0.2-0.6,0.4-0.6c0.1,0,0.1,0,0.2,0h2.9c2.5,0,3.8,0.9,3.8,2.9c0,0.5-0.2,1.1-0.5,1.5
	c-0.3,0.4-0.8,0.8-1.3,0.9v0.1c0.3,0.1,0.4,0.3,0.6,0.5c0.2,0.3,0.3,0.6,0.5,0.8l1.3,3.4c0.1,0.1,0.1,0.2,0.1,0.3
	c0,0.2-0.3,0.3-0.9,0.3h-0.6c-0.5,0-0.8-0.1-0.8-0.3l-1.2-2.9c-0.3-0.7-0.8-1-1.5-0.9h-0.6v3.7c0,0.3-0.3,0.5-0.9,0.5h-0.5
	C613,374.7,612.7,374.6,612.7,374.2z M615,368.5h1.4c0.3,0,0.7-0.2,0.8-0.4c0.3-0.3,0.3-0.6,0.3-0.9c0-0.3-0.1-0.6-0.3-0.8
	s-0.6-0.3-0.9-0.3H615L615,368.5z"/>
<path class="st1" d="M622.6,374.1v-9.4c0-0.3,0.2-0.6,0.4-0.6c0.1,0,0.1,0,0.2,0h5.5c0.3,0,0.4,0.3,0.4,0.8v0.5
	c0,0.5-0.2,0.8-0.4,0.8h-3.9v2.2h3.4c0.3,0,0.4,0.3,0.4,0.8v0.5c0,0.5-0.2,0.8-0.4,0.8h-3.4v2.4h3.8c0.3,0,0.4,0.3,0.4,0.8v0.5
	c0,0.5-0.2,0.8-0.4,0.8h-5.5c-0.3,0.1-0.6-0.2-0.6-0.4C622.6,374.1,622.6,374.1,622.6,374.1z M625.2,363c-0.3,0-0.4-0.1-0.4-0.3
	c0-0.2,0.1-0.3,0.3-0.5c0.2-0.3,0.3-0.4,0.4-0.7l0.3-0.7c0.2-0.3,0.6-0.4,1.2-0.4c0.6,0,1,0.1,1,0.2s0,0.2-0.1,0.2
	c-0.1,0.1-0.2,0.3-0.3,0.4l-0.4,0.4l-0.3,0.3l-0.4,0.4C626,362.9,625.7,363,625.2,363L625.2,363z"/>
<path class="st1" d="M630.4,374.4c0-0.1,0-0.2,0.1-0.3l3.4-9.7c0.1-0.2,0.3-0.3,0.8-0.3h0.8c0.5,0,0.8,0.1,0.8,0.3l3.4,9.7
	c0,0.1,0.1,0.2,0.1,0.3c0,0.3-0.3,0.3-0.8,0.3h-0.7c-0.5,0-0.8-0.1-0.8-0.3l-0.6-1.8h-3.6l-0.6,1.8c-0.1,0.2-0.3,0.3-0.7,0.3h-0.6
	C630.6,374.7,630.4,374.6,630.4,374.4z M633.8,370.5h2.3l-0.8-2.7l-0.3-0.9h-0.1c-0.1,0.3-0.2,0.7-0.3,0.9L633.8,370.5z"/>
<path class="st1" d="M643.2,374.2v-8.1h-2.4c-0.3,0-0.4-0.3-0.4-0.8v-0.5c0-0.5,0.2-0.8,0.4-0.8h7.1c0.3,0,0.4,0.3,0.4,0.8v0.5
	c0,0.5-0.2,0.8-0.4,0.8h-2.4v8.1c0,0.3-0.3,0.5-0.9,0.5H644C643.4,374.7,643.2,374.6,643.2,374.2z"/>
<path class="st1" d="M650.2,374.1v-9.4c0-0.3,0.2-0.6,0.4-0.6c0.1,0,0.1,0,0.2,0h5.5c0.3,0,0.4,0.3,0.4,0.8v0.5
	c0,0.5-0.2,0.8-0.4,0.8h-3.8v2.2h3.4c0.3,0,0.4,0.3,0.4,0.8v0.5c0,0.5-0.2,0.8-0.4,0.8h-3.4v2.4h3.9c0.3,0,0.4,0.3,0.4,0.8v0.5
	c0,0.5-0.2,0.8-0.4,0.8h-5.5c-0.3,0.1-0.6-0.2-0.6-0.4C650.2,374.1,650.2,374.1,650.2,374.1z"/>
<path class="st1" d="M658.3,373.5c0-0.3,0.2-0.6,0.3-0.8c0.3-0.3,0.4-0.5,0.6-0.5c0.2,0,0.3,0.1,0.4,0.2c0.6,0.3,1.2,0.5,1.8,0.5
	c0.9,0,1.4-0.3,1.4-1.1c0-0.3-0.2-0.7-0.4-0.8c-0.3-0.3-0.7-0.4-1.1-0.6c-0.4-0.2-0.8-0.3-1.3-0.6c-0.4-0.3-0.8-0.6-1.1-1
	c-0.3-0.5-0.5-1.1-0.4-1.7c0-0.6,0.2-1.3,0.5-1.8c0.8-0.9,1.8-1.4,3-1.3c0.7,0,1.3,0.1,1.9,0.3c0.5,0.3,0.8,0.4,0.8,0.8
	c0,0.3-0.1,0.6-0.3,0.8c-0.2,0.3-0.3,0.5-0.6,0.5c-0.1,0-0.2-0.1-0.3-0.1c-0.4-0.2-0.9-0.3-1.4-0.3c-0.4,0-0.8,0.1-1.1,0.3
	c-0.2,0.2-0.3,0.4-0.3,0.7c0,0.3,0.2,0.6,0.4,0.8c0.3,0.3,0.7,0.4,1.1,0.6c0.4,0.2,0.8,0.3,1.3,0.6s0.8,0.6,1.1,1
	c0.3,0.5,0.5,1,0.4,1.6c0,0.6-0.1,1.1-0.3,1.6c-0.2,0.4-0.5,0.8-0.8,1c-0.8,0.5-1.6,0.8-2.4,0.8s-1.7-0.1-2.4-0.4
	C658.5,374.1,658.3,373.7,658.3,373.5z"/>
<path class="st1" d="M477.2,397.1c0-0.1,0-0.2,0.1-0.3l3.4-9.7c0.1-0.2,0.3-0.3,0.8-0.3h0.8c0.5,0,0.8,0.1,0.8,0.3l3.4,9.7
	c0,0.1,0,0.2,0,0.3c0,0.3-0.3,0.3-0.8,0.3H485c-0.5,0-0.8-0.1-0.8-0.3l-0.6-1.8h-3.5l-0.6,1.8c-0.1,0.2-0.3,0.3-0.7,0.3h-0.6
	C477.5,397.4,477.2,397.2,477.2,397.1z M482.7,385.6c-0.4,0-0.8-0.2-1.2-0.4c-0.3-0.3-0.6-0.6-0.8-0.9c-0.3-0.3-0.5-0.5-0.6-0.6
	c-0.1-0.1-0.1-0.1-0.1-0.2c0-0.2,0.3-0.2,1-0.2s1.1,0.2,1.2,0.4l0.3,0.7c0.1,0.2,0.3,0.3,0.3,0.5l0.2,0.3c0.1,0.1,0.1,0.3,0.2,0.3
	C483.2,385.6,483,385.6,482.7,385.6z M480.7,393.2h2.3l-0.8-2.7l-0.3-0.9h-0.1c-0.1,0.3-0.2,0.7-0.3,0.9L480.7,393.2z"/>
<path class="st1" d="M492.3,396.7v-9.4c0-0.3,0.2-0.6,0.4-0.6c0.1,0,0.1,0,0.2,0h5.5c0.3,0,0.4,0.3,0.4,0.8v0.5
	c0,0.5-0.2,0.8-0.4,0.8h-3.8v2.2h3.4c0.3,0,0.4,0.3,0.4,0.8v0.5c0,0.5-0.2,0.8-0.4,0.8h-3.4v2.4h3.9c0.3,0,0.4,0.3,0.4,0.8v0.5
	c0,0.5-0.2,0.8-0.4,0.8H493c-0.3,0-0.6-0.2-0.6-0.4C492.3,396.8,492.3,396.8,492.3,396.7z"/>
<path class="st1" d="M500.8,392c0-3.6,1.7-5.4,5-5.4c0.8,0,1.4,0.1,2.1,0.3c0.7,0.2,1,0.4,1,0.8c-0.1,0.3-0.2,0.6-0.3,0.8
	c-0.3,0.3-0.4,0.5-0.7,0.5c-0.1,0-0.3-0.1-0.3-0.1c-0.6-0.3-1.3-0.3-1.9-0.3c-1.8,0-2.6,1.2-2.6,3.4s0.8,3.4,2.6,3.4
	c0.8,0,1.4-0.2,2.1-0.4c0.1-0.1,0.3-0.1,0.4-0.2c0.2,0,0.4,0.2,0.6,0.5c0.2,0.3,0.3,0.5,0.3,0.8c0,0.4-0.3,0.8-1.1,0.9
	c-0.8,0.3-1.5,0.3-2.3,0.3c-1.3,0.1-2.8-0.3-3.8-1.3C501.2,395.2,500.8,393.9,500.8,392z"/>
<path class="st1" d="M512.1,396c-1.7-2.4-1.7-5.6,0-8.1c0.9-1,2.3-1.5,3.6-1.4c1.3-0.1,2.7,0.4,3.6,1.4c1.7,2.4,1.7,5.6,0,8.1
	c-0.9,1-2.3,1.5-3.6,1.4C514.3,397.6,513,397.1,512.1,396z M513.8,394.6c0.8,1,2.3,1.2,3.3,0.3c0.2-0.1,0.3-0.3,0.3-0.3
	c0.8-1.6,0.8-3.5,0-5.1c-0.8-1-2.3-1.2-3.4-0.3c-0.1,0.1-0.3,0.3-0.3,0.3C513,391.1,513,393,513.8,394.6z"/>
<path class="st1" d="M522.6,394.1c-0.3,0-0.4-0.3-0.4-0.8v-0.1c0-0.5,0.2-0.8,0.4-0.8h3.1c0.3,0,0.4,0.3,0.4,0.8v0.1
	c0,0.5-0.2,0.8-0.4,0.8H522.6z"/>
<path class="st1" d="M528.3,396.9v-9.6c0-0.3,0.2-0.6,0.4-0.6c0.1,0,0.1,0,0.2,0h2.9c2.5,0,3.8,0.9,3.8,2.9c0,0.5-0.2,1.1-0.5,1.5
	c-0.3,0.4-0.8,0.8-1.3,0.9v0.1c0.3,0.1,0.4,0.3,0.6,0.5c0.2,0.3,0.3,0.6,0.5,0.8l1.3,3.4c0,0.1,0.1,0.2,0.1,0.3
	c0,0.2-0.3,0.3-0.9,0.3h-0.6c-0.5,0-0.8-0.1-0.8-0.3l-1.2-2.9c-0.3-0.7-0.8-1-1.5-0.9h-0.6v3.7c0,0.3-0.3,0.5-0.9,0.5h-0.6
	C528.5,397.4,528.3,397.2,528.3,396.9z M530.5,391.2h1.4c0.3,0,0.7-0.2,0.8-0.4c0.3-0.3,0.3-0.6,0.3-0.9c0-0.3-0.1-0.6-0.3-0.8
	c-0.3-0.3-0.6-0.3-0.9-0.3h-1.3L530.5,391.2z"/>
<path class="st1" d="M538.1,396.7v-9.4c0-0.3,0.2-0.6,0.4-0.6c0.1,0,0.1,0,0.2,0h5.5c0.3,0,0.4,0.3,0.4,0.8v0.5
	c0,0.5-0.2,0.8-0.4,0.8h-3.8v2.2h3.4c0.3,0,0.4,0.3,0.4,0.8v0.5c0,0.5-0.2,0.8-0.4,0.8h-3.4v2.4h3.8c0.3,0,0.4,0.3,0.4,0.8v0.5
	c0,0.5-0.2,0.8-0.4,0.8h-5.5c-0.3,0-0.6-0.2-0.6-0.4C538.1,396.8,538.1,396.8,538.1,396.7z M540.8,385.6c-0.3,0-0.5-0.1-0.5-0.3
	c0-0.2,0.1-0.3,0.3-0.5c0.2-0.3,0.3-0.4,0.4-0.7l0.3-0.7c0.2-0.3,0.6-0.4,1.2-0.4c0.7,0,1,0.1,1,0.2c0,0.1,0,0.2-0.1,0.2
	c-0.1,0.2-0.3,0.3-0.3,0.4l-0.4,0.4c-0.1,0.1-0.2,0.2-0.3,0.3l-0.4,0.4C541.6,385.6,541.2,385.6,540.8,385.6L540.8,385.6z"/>
<path class="st1" d="M546.9,396.9v-9.6c0-0.3,0.3-0.5,0.9-0.5h0.7c0.4-0.1,0.8,0.1,1,0.4l3.9,6.1v-6c0-0.3,0.3-0.5,0.9-0.5h0.4
	c0.6,0,0.9,0.2,0.9,0.5v9.6c0,0.3-0.3,0.5-0.9,0.5h-0.6c-0.4,0.1-0.8-0.1-1-0.4l-4-6.2v6.1c0,0.3-0.3,0.5-0.9,0.5h-0.4
	C547.2,397.4,546.9,397.2,546.9,396.9z"/>
<path class="st1" d="M559.2,396c-1.7-2.4-1.7-5.6,0-8.1c2-1.8,5.1-1.8,7.2,0c1.7,2.4,1.7,5.6,0,8.1
	C564.4,397.9,561.3,397.9,559.2,396z M561,394.6c0.8,1,2.3,1.2,3.3,0.3c0.2-0.1,0.3-0.3,0.3-0.3c0.8-1.6,0.8-3.5,0-5.1
	c-0.8-1-2.3-1.2-3.3-0.3c-0.2,0.1-0.3,0.3-0.3,0.3C560.1,391.1,560.1,393,561,394.6z"/>
<path class="st1" d="M569,387.1c0-0.3,0.3-0.3,0.9-0.3h0.5c0.5,0,0.8,0.2,0.9,0.4l2.2,7h0.1l2.3-7c0.1-0.3,0.4-0.4,0.9-0.4h0.5
	c0.6,0,0.9,0.1,0.9,0.3c0,0.1,0,0.2-0.1,0.3l-3.3,9.7c-0.1,0.2-0.3,0.3-0.8,0.3h-0.8c-0.5,0-0.8-0.1-0.8-0.3l-3.3-9.7
	C569.1,387.2,569,387.2,569,387.1z"/>
<path class="st1" d="M580.8,396c-1.7-2.4-1.7-5.6,0-8.1c0.9-1,2.3-1.5,3.6-1.4c1.3-0.1,2.7,0.4,3.6,1.4c1.7,2.4,1.7,5.6,0,8.1
	c-0.9,1-2.3,1.5-3.6,1.4C583,397.6,581.8,397.1,580.8,396z M582.5,394.6c0.4,0.6,1.1,0.9,1.8,0.8c0.8,0.1,1.4-0.3,1.8-0.8
	c0.8-1.6,0.8-3.5,0-5.1c-0.4-0.6-1.1-0.9-1.8-0.8c-0.8-0.1-1.4,0.3-1.8,0.8C581.7,391.1,581.7,393,582.5,394.6z"/>
<path class="st1" d="M591.6,396.9v-9.6c0-0.3,0.3-0.5,0.9-0.5h0.7c0.4-0.1,0.8,0.1,1,0.4l3.9,6.1v-6c0-0.3,0.3-0.5,0.9-0.5h0.4
	c0.6,0,0.9,0.2,0.9,0.5v9.6c0,0.3-0.3,0.5-0.9,0.5h-0.6c-0.4,0.1-0.8-0.1-1-0.4l-4.1-6.2v6.1c0,0.3-0.3,0.5-0.9,0.5h-0.4
	C591.8,397.4,591.6,397.2,591.6,396.9z"/>
<path class="st1" d="M602.3,396.1c0-0.3,0.2-0.6,0.3-0.8c0.3-0.3,0.4-0.5,0.6-0.5c0.2,0,0.3,0.1,0.4,0.2c0.6,0.3,1.2,0.5,1.8,0.5
	c0.9,0,1.4-0.3,1.4-1.1c0-0.3-0.2-0.7-0.4-0.8c-0.3-0.3-0.7-0.4-1.1-0.6s-0.8-0.3-1.3-0.6c-0.4-0.3-0.8-0.6-1.1-1
	c-0.3-0.5-0.5-1.1-0.4-1.7c0-0.6,0.2-1.3,0.5-1.8c0.8-0.9,1.8-1.4,3-1.3c0.7,0,1.3,0.1,1.9,0.3c0.5,0.3,0.8,0.4,0.8,0.8
	c0,0.3-0.1,0.6-0.3,0.8c-0.2,0.3-0.3,0.5-0.6,0.5c-0.1,0-0.2-0.1-0.3-0.1c-0.4-0.2-0.9-0.3-1.4-0.3c-0.4,0-0.8,0.1-1.1,0.3
	c-0.2,0.2-0.3,0.4-0.3,0.7c0,0.3,0.2,0.6,0.4,0.8c0.3,0.3,0.7,0.4,1.1,0.6c0.4,0.2,0.8,0.3,1.3,0.6c0.4,0.3,0.8,0.6,1.1,1
	c0.3,0.5,0.5,1,0.4,1.6c0,0.6-0.1,1.1-0.3,1.6c-0.2,0.4-0.5,0.8-0.8,1c-0.8,0.5-1.6,0.8-2.4,0.8s-1.7-0.1-2.4-0.4
	C602.7,396.7,602.3,396.4,602.3,396.1z"/>
<path class="st1" d="M615.4,396.9v-9.6c0-0.3,0.2-0.6,0.4-0.6c0.1,0,0.1,0,0.2,0h3.2c1-0.1,1.9,0.3,2.8,0.8c0.3,0.3,0.5,0.6,0.6,1
	c0.2,0.5,0.3,0.9,0.3,1.4s-0.1,1-0.3,1.4c-0.2,0.3-0.4,0.7-0.7,0.9c-0.3,0.3-0.6,0.4-0.9,0.6c-0.5,0.3-1,0.3-1.5,0.3h-1.6v3.5
	c0,0.3-0.3,0.5-0.9,0.5h-0.5C615.7,397.4,615.4,397.2,615.4,396.9z M617.8,391.4h1.3c0.3,0,0.7-0.1,0.9-0.3c0.5-0.6,0.5-1.5,0-2.1
	c-0.3-0.2-0.6-0.3-0.9-0.3h-1.3V391.4z"/>
<path class="st1" d="M623.6,397.1c0-0.1,0-0.2,0.1-0.3l3.4-9.7c0.1-0.2,0.3-0.3,0.8-0.3h0.8c0.5,0,0.8,0.1,0.8,0.3l3.4,9.7
	c0,0.1,0,0.2,0,0.3c0,0.3-0.3,0.3-0.8,0.3h-0.7c-0.5,0-0.8-0.1-0.8-0.3l-0.6-1.8h-3.5l-0.6,1.8c-0.1,0.2-0.3,0.3-0.7,0.3h-0.6
	C623.9,397.4,623.6,397.2,623.6,397.1z M627.1,393.2h2.3l-0.8-2.7l-0.3-0.9h-0.1c-0.1,0.3-0.2,0.7-0.3,0.9L627.1,393.2z"/>
<path class="st1" d="M634.5,396.9v-9.6c0-0.3,0.2-0.6,0.4-0.6c0.1,0,0.1,0,0.2,0h2.9c2.5,0,3.8,0.9,3.8,2.9c0,0.5-0.2,1.1-0.5,1.5
	c-0.3,0.4-0.8,0.8-1.3,0.9v0.1c0.3,0.1,0.4,0.3,0.6,0.5c0.2,0.3,0.3,0.6,0.5,0.8l1.3,3.4c0,0.1,0.1,0.2,0.1,0.3
	c0,0.2-0.3,0.3-0.9,0.3H641c-0.5,0-0.8-0.1-0.8-0.3l-1.2-2.9c-0.2-0.3-0.3-0.5-0.6-0.7c-0.3-0.2-0.7-0.3-1-0.2h-0.6v3.7
	c0,0.3-0.3,0.5-0.9,0.5h-0.5C634.8,397.4,634.5,397.2,634.5,396.9z M636.8,391.2h1.4c0.3,0,0.7-0.2,0.8-0.4c0.3-0.3,0.3-0.6,0.3-0.9
	c0-0.3-0.1-0.6-0.3-0.8c-0.3-0.3-0.6-0.3-0.9-0.3h-1.3L636.8,391.2z"/>
<path class="st1" d="M644.2,396.9v-9.6c0-0.3,0.3-0.5,0.9-0.5h0.5c0.6,0,0.9,0.2,0.9,0.5v9.6c0,0.3-0.3,0.5-0.9,0.5h-0.5
	C644.5,397.4,644.2,397.2,644.2,396.9z"/>
<path class="st1" d="M648.5,396.1c0-0.3,0.2-0.6,0.3-0.8c0.3-0.3,0.4-0.5,0.6-0.5s0.3,0.1,0.4,0.2c0.6,0.3,1.2,0.5,1.8,0.5
	c0.9,0,1.4-0.3,1.4-1.1c0-0.3-0.2-0.7-0.4-0.8c-0.3-0.3-0.7-0.4-1.1-0.6s-0.8-0.3-1.3-0.6c-0.4-0.3-0.8-0.6-1.1-1
	c-0.3-0.5-0.5-1.1-0.4-1.7c0-0.6,0.2-1.3,0.5-1.8c0.8-0.9,1.8-1.4,3-1.3c0.7,0,1.3,0.1,1.9,0.3c0.5,0.3,0.8,0.4,0.8,0.8
	c0,0.3-0.1,0.6-0.3,0.8c-0.2,0.3-0.3,0.5-0.6,0.5c-0.1,0-0.2-0.1-0.3-0.1c-0.4-0.2-0.9-0.3-1.4-0.3c-0.4,0-0.8,0.1-1.1,0.3
	c-0.2,0.2-0.3,0.4-0.3,0.7c0,0.3,0.2,0.6,0.4,0.8c0.3,0.3,0.7,0.4,1.1,0.6c0.4,0.2,0.8,0.3,1.3,0.6c0.4,0.3,0.8,0.6,1.1,1
	c0.3,0.5,0.5,1,0.4,1.6c0,0.6-0.1,1.1-0.3,1.6c-0.2,0.4-0.5,0.8-0.8,1c-0.8,0.5-1.6,0.8-2.4,0.8c-0.8,0-1.7-0.1-2.4-0.4
	C648.7,396.7,648.5,396.4,648.5,396.1z"/>
<path class="st1" d="M868.2,376.4V367c0-0.3,0.2-0.6,0.4-0.6c0.1,0,0.1,0,0.2,0h3.4c1.3-0.1,2.7,0.4,3.6,1.3c1.7,2.3,1.7,5.5,0,7.8
	c-0.9,0.9-2.3,1.4-3.6,1.3h-3.4C868.5,376.9,868.2,376.8,868.2,376.4C868.2,376.5,868.2,376.5,868.2,376.4z M870.6,375.1h1.7
	c0.7,0.1,1.4-0.3,1.8-0.8c0.8-1.5,0.8-3.4,0-5c-0.4-0.6-1.1-0.9-1.8-0.8h-1.7V375.1z"/>
<path class="st1" d="M879.4,376.4V367c0-0.3,0.2-0.6,0.4-0.6c0.1,0,0.1,0,0.2,0h5.5c0.3,0,0.4,0.3,0.4,0.8v0.5
	c0,0.5-0.2,0.8-0.4,0.8h-3.8v2.2h3.4c0.3,0,0.4,0.3,0.4,0.8v0.5c0,0.5-0.2,0.8-0.4,0.8h-3.4v2.4h3.8c0.3,0,0.4,0.3,0.4,0.8v0.5
	c0,0.5-0.2,0.8-0.4,0.8H880c-0.3,0-0.6-0.2-0.6-0.4C879.4,376.5,879.4,376.5,879.4,376.4z"/>
<path class="st1" d="M892.5,376.4V367c0-0.3,0.2-0.6,0.4-0.6c0.1,0,0.1,0,0.2,0h3c0.9-0.1,1.9,0.2,2.7,0.8c0.6,0.5,0.9,1.2,0.8,1.9
	c0,0.5-0.2,1-0.4,1.3c-0.3,0.4-0.7,0.8-1.2,0.9v0.1c1.2,0.3,2,1.3,2,2.5c0.1,0.8-0.3,1.7-0.9,2.3c-0.8,0.6-1.8,0.8-2.9,0.8H893
	c-0.3,0-0.6-0.2-0.6-0.5C892.5,376.5,892.5,376.5,892.5,376.4z M894.8,370.6h1c0.3,0,0.8-0.1,1-0.3c0.3-0.2,0.4-0.5,0.3-0.8
	c0-0.8-0.4-1.1-1.3-1.1h-1.1L894.8,370.6z M894.8,375.1h1.5c0.3,0,0.8-0.1,1-0.3c0.3-0.3,0.4-0.6,0.3-0.9c0-0.8-0.6-1.2-1.7-1.2
	h-1.3L894.8,375.1L894.8,375.1z"/>
<path class="st1" d="M902,373.5v-6.6c0-0.3,0.3-0.5,0.9-0.5h0.5c0.6,0,0.9,0.2,0.9,0.5v6.5c0,0.5,0.2,1,0.6,1.3
	c0.8,0.7,2.1,0.7,2.9,0c0.4-0.3,0.6-0.8,0.6-1.3v-6.5c0-0.3,0.3-0.5,0.9-0.5h0.5c0.6,0,0.9,0.2,0.9,0.5v6.6c0.1,1-0.3,2-1.2,2.7
	c-1.9,1.3-4.5,1.3-6.5,0C902.3,375.5,901.9,374.5,902,373.5z"/>
<path class="st1" d="M913.4,376.4V367c0-0.3,0.2-0.6,0.4-0.6c0.1,0,0.1,0,0.2,0h3.4c1.3-0.1,2.7,0.4,3.6,1.3c1.7,2.3,1.7,5.5,0,7.8
	c-0.9,0.9-2.3,1.4-3.6,1.3H914C913.6,376.9,913.4,376.8,913.4,376.4C913.4,376.5,913.4,376.5,913.4,376.4z M915.7,375.1h1.7
	c0.7,0.1,1.4-0.3,1.8-0.8c0.8-1.5,0.8-3.4,0-5c-0.4-0.6-1.1-0.9-1.8-0.8h-1.7V375.1z"/>
<path class="st1" d="M924.1,371.7c0-3.6,1.7-5.4,5-5.4c0.8,0,1.4,0.1,2.2,0.3c0.7,0.2,1.1,0.4,1.1,0.8c-0.1,0.3-0.2,0.6-0.3,0.8
	c-0.3,0.3-0.4,0.5-0.6,0.5c-0.1,0-0.3-0.1-0.3-0.1c-0.6-0.3-1.3-0.3-1.9-0.3c-1.8,0-2.6,1.2-2.6,3.4s0.8,3.4,2.6,3.4
	c0.4,0,0.8,0,1.2-0.1v-1.9h-1.3c-0.3,0-0.4-0.3-0.4-0.8V372c0-0.5,0.2-0.8,0.4-0.8h3.1c0.3,0,0.6,0.2,0.6,0.4c0,0.1,0,0.1,0,0.2v4.2
	c0,0.3-0.2,0.5-0.4,0.6c-0.3,0.2-0.7,0.3-1,0.3c-0.7,0.2-1.4,0.3-2.2,0.2c-1.3,0.1-2.8-0.3-3.8-1.3
	C924.5,374.7,924,373.2,924.1,371.7z"/>
<path class="st1" d="M935.2,376.4V367c0-0.3,0.2-0.6,0.4-0.6c0.1,0,0.1,0,0.2,0h5.5c0.3,0,0.4,0.3,0.4,0.8v0.5
	c0,0.5-0.2,0.8-0.4,0.8h-3.8v2.2h3.4c0.3,0,0.4,0.3,0.4,0.8v0.5c0,0.5-0.2,0.8-0.4,0.8h-3.4v2.4h3.9c0.3,0,0.4,0.3,0.4,0.8v0.5
	c0,0.5-0.2,0.8-0.4,0.8h-5.5c-0.3,0-0.6-0.2-0.6-0.4C935.2,376.5,935.2,376.5,935.2,376.4z"/>
<path class="st1" d="M946,376.6v-8.1h-2.4c-0.3,0-0.4-0.3-0.4-0.8v-0.5c0-0.5,0.2-0.8,0.4-0.8h7.1c0.3,0,0.4,0.3,0.4,0.8v0.5
	c0,0.5-0.2,0.8-0.4,0.8h-2.3v8.1c0,0.3-0.3,0.5-0.9,0.5h-0.5C946.3,377.1,946,376.9,946,376.6z"/>
<rect x="2" y="51" class="st2" width="350" height="350"/>
<path class="st3" d="M191.7,110c0,1.6-1.2,2.8-2.8,2.8c-1.6,0-2.8-1.2-2.8-2.8v-5.4c0-1.6,1.2-2.8,2.8-2.8c1.6,0,2.8,1.2,2.8,2.8
	V110z M191.7,124.4c0,1.6-1.2,2.8-2.8,2.8c-1.6,0-2.8-1.2-2.8-2.8V119c0-1.6,1.2-2.8,2.8-2.8c1.6,0,2.8,1.2,2.8,2.8V124.4z
	 M191.7,139.3c0,1.6-1.2,2.8-2.8,2.8c-1.6,0-2.8-1.2-2.8-2.8v-5.4c0-1.6,1.2-2.8,2.8-2.8c1.6,0,2.8,1.2,2.8,2.8V139.3z M182,110
	c0,1.6-1.2,2.8-2.8,2.8c-1.6,0-2.8-1.2-2.8-2.8v-5.4c0-1.6,1.2-2.8,2.8-2.8c1.6,0,2.8,1.2,2.8,2.8V110z M182,124.4
	c0,1.6-1.2,2.8-2.8,2.8c-1.6,0-2.8-1.2-2.8-2.8V119c0-1.6,1.2-2.8,2.8-2.8c1.6,0,2.8,1.2,2.8,2.8V124.4z M172.1,110
	c0,1.6-1.2,2.8-2.8,2.8c-1.6,0-2.8-1.2-2.8-2.8v-5.4c0-1.6,1.2-2.8,2.8-2.8c1.6,0,2.8,1.2,2.8,2.8V110z M172.1,124.4
	c0,1.6-1.2,2.8-2.8,2.8c-1.6,0-2.8-1.2-2.8-2.8V119c0-1.6,1.2-2.8,2.8-2.8c1.6,0,2.8,1.2,2.8,2.8V124.4z M172.1,139.3
	c0,1.6-1.2,2.8-2.8,2.8c-1.6,0-2.8-1.2-2.8-2.8v-5.4c0-1.6,1.2-2.8,2.8-2.8c1.6,0,2.8,1.2,2.8,2.8V139.3z M196.1,95.9h-33.7
	c-2.4,0-4.3,1.9-4.3,4.3v43.6c0,2.4,1.9,4.3,4.3,4.3h14.1v-14.4c0-1.6,1.2-2.8,2.8-2.8c1.6,0,2.8,1.2,2.8,2.8v14.4h14.2
	c2.4,0,4.3-1.9,4.3-4.3v-43.6C200.4,97.8,198.5,95.9,196.1,95.9"/>
<path class="st3" d="M146.6,121.4c0,1.1-0.9,2-2,2s-2-0.9-2-2v-3.8c0-1.1,0.9-2,2-2s2,0.9,2,2V121.4z M146.6,131.5c0,1.1-0.9,2-2,2
	s-2-0.9-2-2v-3.8c0-1.1,0.9-2,2-2s2,0.9,2,2V131.5z M146.6,142c0,1.1-0.9,2-2,2s-2-0.9-2-2v-3.8c0-1.1,0.9-2,2-2s2,0.9,2,2V142z
	 M139.8,121.4c0,1.1-0.9,2-2,2c-1.1,0-2-0.9-2-2v-3.8c0-1.1,0.9-2,2-2c1.1,0,2,0.9,2,2V121.4z M139.8,131.5c0,1.1-0.9,2-2,2
	c-1.1,0-2-0.9-2-2v-3.8c0-1.1,0.9-2,2-2c1.1,0,2,0.9,2,2V131.5z M132.9,121.4c0,1.1-0.9,2-2,2s-2-0.9-2-2v-3.8c0-1.1,0.9-2,2-2
	s2,0.9,2,2V121.4z M132.9,131.5c0,1.1-0.9,2-2,2s-2-0.9-2-2v-3.8c0-1.1,0.9-2,2-2s2,0.9,2,2V131.5z M132.9,142c0,1.1-0.9,2-2,2
	s-2-0.9-2-2v-3.8c0-1.1,0.9-2,2-2s2,0.9,2,2V142z M149.7,111.5H126c-1.7,0-3,1.3-3,3v30.6c0,1.7,1.3,3,3,3h9.9v-10.1
	c0-1.1,0.9-2,2-2c1.1,0,2,0.9,2,2v10.1h10c1.7,0,3-1.3,3-3v-30.6C152.7,112.8,151.4,111.5,149.7,111.5"/>
<path class="st3" d="M552.7,79c6.1,2.8,13.3,4.3,20.4,4.3c2.3,0,4.6-0.1,6.8-0.5c0.9-0.1,2-0.5,2.5-0.8c0.7-0.5,1.1-1.3,1.1-2.3
	c0-0.9-0.4-1.6-1-2.1h0.2c1.6,0,2.9-1.3,2.9-2.9c0-1.6-1.3-2.9-2.9-2.9h1.4c1.6,0,2.9-1.3,2.9-2.9c0-1.6-1.3-2.9-2.9-2.9
	c1.6,0,2.9-1.3,2.9-2.9c0-1.6-1.3-2.9-2.9-2.9h-12.8c-1,0-1.8-0.8-1.8-1.8l0.9-5.9c0.1-0.3,0.1-0.6,0.1-0.9c0-1.6-1.3-2.9-2.9-2.9
	c-1.3,0-2.4,0.9-2.8,2.1l-0.1,0.4c-1.8,5.8-6,11.2-12.1,14.6V79z"/>
<g>
	<path class="st3" d="M906.7,65.5c-0.6-0.1-1-0.6-1-1.2c0-0.7,0.5-1.2,1.2-1.2c1,0,2.1,0.7,3.1,1.7c1,1,1.7,2.3,1.7,3.2
		c0,0.7-0.5,1.2-1.2,1.2c-0.6,0-1.1-0.4-1.2-1C909.1,66.9,908.1,65.8,906.7,65.5 M900.3,82.6v1.8c0,0.9,0.4,1.6,0.9,2.2l1.8,1.8
		c1.2,1.2,3.1,1.2,4.3,0l1.8-1.8c0.6-0.6,0.9-1.3,0.9-2.2v-1.2h-5.4c-0.7,0-1.3-0.5-1.3-1.2c0-0.7,0.6-1.2,1.3-1.2h5.6
		c0.8-4.7,4.7-6.7,4.7-11.2c0-5.2-4.4-9.5-9.8-9.5c-5.4,0-9.8,4.3-9.8,9.5C895.4,74.7,900.3,76.5,900.3,82.6"/>
	<g>
		<path class="st3" d="M905.1,45.7c-1,0-1.7,0.8-1.7,1.7v1.2v1.2v3.7c0,1,0.8,1.7,1.7,1.7c1,0,1.7-0.8,1.7-1.7v-3.7v-1.2v-1.2
			C906.9,46.5,906.1,45.7,905.1,45.7z"/>
		<path class="st3" d="M886.9,52.6c-0.7,0.7-0.7,1.8,0,2.4l0.8,0.8l0.8,0.8l2.6,2.6c0.7,0.7,1.8,0.7,2.4,0c0.7-0.7,0.7-1.8,0-2.4
			l-2.6-2.6l-0.8-0.8l-0.8-0.8C888.6,51.9,887.5,51.9,886.9,52.6z"/>
		<path class="st3" d="M879.9,70.9c0,1,0.8,1.7,1.7,1.7h1.2h1.2h3.7c1,0,1.7-0.8,1.7-1.7c0-1-0.8-1.7-1.7-1.7H884h-1.2h-1.2
			C880.7,69.1,879.9,69.9,879.9,70.9z"/>
		<path class="st3" d="M920.8,70.9c0,1,0.8,1.7,1.7,1.7h1.2h1.2h3.7c1,0,1.7-0.8,1.7-1.7c0-1-0.8-1.7-1.7-1.7h-3.7h-1.2h-1.2
			C921.6,69.1,920.8,69.9,920.8,70.9z"/>
		<path class="st3" d="M916.7,59.3c0.7,0.7,1.8,0.7,2.4,0l0.8-0.8l0.8-0.8l2.6-2.6c0.7-0.7,0.7-1.8,0-2.4c-0.7-0.7-1.8-0.7-2.4,0
			l-2.6,2.6l-0.8,0.8l-0.8,0.8C916,57.5,916,58.6,916.7,59.3z"/>
	</g>
</g>
<path class="st3" d="M577.6,257.5v6.4c0,1-0.8,1.8-1.8,1.8c-1,0-1.8-0.8-1.8-1.8v-6.4c0-1,0.8-1.8,1.8-1.8
	C576.8,255.6,577.6,256.5,577.6,257.5 M569.4,257.5v8.2c0,1-0.8,1.8-1.8,1.8c-1,0-1.8-0.8-1.8-1.8v-8.2c0-1,0.8-1.8,1.8-1.8
	C568.5,255.6,569.4,256.5,569.4,257.5 M561.2,257.5v6.4c0,1-0.8,1.8-1.8,1.8c-1,0-1.8-0.8-1.8-1.8v-6.4c0-1,0.8-1.8,1.8-1.8
	C560.3,255.6,561.2,256.5,561.2,257.5 M567.5,273.9c0.3,0,0.6,0.2,0.7,0.5l1.7,4.1h4.3c0.4,0,0.7,0.4,0.7,0.8c0,0.2-0.1,0.4-0.3,0.5
	l-3.6,2.4c0,0,1.1,4.3,1.2,4.5c0,0.1,0,0.1,0,0.2c0,0.4-0.3,0.7-0.7,0.7c-0.2,0-0.3-0.1-0.5-0.2l-3.5-2.7l-3.5,2.7
	c-0.1,0.1-0.3,0.2-0.5,0.2c-0.4,0-0.7-0.3-0.7-0.7c0-0.1,0-0.1,0-0.2c0-0.1,1.2-4.4,1.2-4.4l-3.6-2.5c-0.2-0.1-0.3-0.3-0.3-0.5
	c0-0.4,0.3-0.8,0.7-0.8h4.3l1.7-4.1C567,274.1,567.2,273.9,567.5,273.9 M556.6,251.1c-2,0-3.6,1.6-3.6,3.6v9.1
	c0,1.3,0.5,2.4,1.4,3.3l4,4c-2.7,2.5-4.4,6.1-4.4,10.1c0,7.6,6.1,13.7,13.7,13.7c7.6,0,13.7-6.1,13.7-13.7c0-4-1.7-7.6-4.4-10.1l4-4
	c0.8-0.8,1.4-2,1.4-3.3v-9.1c0-2-1.6-3.6-3.6-3.6H556.6z"/>
<g>
	<path class="st3" d="M914.1,265.8c0,1.2-1.7,4.1-2.8,4.1c-0.4,0-2-1.4-5.5-1.4c-3.3,0-5.2,1.7-6.1,5.1H910c0.9,0,1.3,0.4,1.3,1.5
		v0.3c0,1-0.4,1.5-1.3,1.5h-10.8c0,0.5,0,1,0,1.4c0,0.7,0,1.3,0,1.9H910c0.9,0,1.3,0.4,1.3,1.5v0.3c0,1-0.4,1.5-1.3,1.5h-10.3
		c0.9,3.2,2.9,4.8,5.9,4.8c3.6,0,5.7-1.7,6.2-1.7c1.4,0,2.6,3,2.6,3.8c0,2.6-5.7,3.6-8.8,3.6c-7.4,0-11.6-3.3-12.9-10.5h-1.6
		c-0.9,0-1.3-0.4-1.3-1.5v-0.3c0-1,0.4-1.5,1.3-1.5h1.3c0-0.6,0-1.3,0-1.9c0-0.5,0-0.9,0-1.4h-1.3c-0.9,0-1.3-0.4-1.3-1.5V275
		c0-1,0.4-1.5,1.3-1.5h1.6c1.3-7.2,5.7-10.8,13.1-10.8C909.3,262.7,914.1,264,914.1,265.8z"/>
</g>
</svg>
