<?xml version="1.0" encoding="utf-8"?>
<!-- Generator: Adobe Illustrator 22.0.1, SVG Export Plug-In . SVG Version: 6.00 Build 0)  -->
<svg version="1.1" id="Calque_1" xmlns="http://www.w3.org/2000/svg" xmlns:xlink="http://www.w3.org/1999/xlink" x="0px" y="0px"
	 viewBox="0 0 1112 440" style="enable-background:new 0 0 1112 440;" xml:space="preserve">
<style type="text/css">
	.st0{fill:#FFFFFF;}
	.st1{fill:#00C4D5;}
	.st2{fill:#737378;}
	.st3{fill:none;stroke:#00C2D3;stroke-width:4;stroke-miterlimit:10;}
</style>
<title>chiffres_cles</title>
<g id="Calque_2_1_">
	<g id="_0">
		<rect x="2" class="st0" width="1110" height="440"/>
		<path class="st1" d="M69,179.9c0-3.9,0.8-6.9,2.2-9.1c1.7-2.3,3.9-4.1,6.5-5.3c-4.4-2.6-6.7-6.6-6.8-12.2c0-4.4,1.4-7.8,4.2-10.2
			c3.1-2.5,6.9-3.9,10.9-3.7c4-0.2,7.9,1.1,11,3.5c2.9,2.4,4.4,5.8,4.4,10.2c0.3,5.3-2.8,10.2-7.7,12.2c2.7,1.1,5.2,2.9,7.1,5.1
			c1.7,2.1,2.6,5.1,2.6,9.1c0,5.4-1.5,9.6-4.7,12.4c-3.2,2.9-7.3,4.3-12.4,4.4s-9.3-1.3-12.5-4.1S69.1,185.4,69,179.9z M75.9,179.9
			c0,3.5,1,6.1,3,8c2,1.9,4.7,2.9,7.5,2.8c2.8,0.1,5.5-1,7.4-2.9c2-1.9,3-4.6,2.9-8.1c0.1-1.9-0.5-3.9-1.6-5.4
			c-0.5-0.6-1.1-1.3-1.7-1.8c-0.7-0.6-1.4-1.1-2.2-1.4c-1-0.5-1.8-0.8-2.4-1.1s-1.6-0.6-2.8-1s-2.2-0.8-2.7-1
			C78.3,170.9,75.9,174.9,75.9,179.9L75.9,179.9z M94.9,153.2c0-2.7-0.8-4.7-2.4-6.1c-1.8-1.4-4-2.1-6.2-1.9
			c-2.2-0.1-4.4,0.6-6.1,2.1c-1.6,1.3-2.3,3.4-2.3,6.1c-0.2,2.7,1.1,5.2,3.2,6.8c2.2,1.3,4.6,2.4,7.1,3.1
			C92.6,160.6,94.9,157.2,94.9,153.2L94.9,153.2z"/>
		<path class="st1" d="M111.4,191.6c0.1-0.9,0.4-1.8,1-2.6c0.7-1,1.3-1.4,1.8-1.4c0.1,0,1.5,0.4,4.2,1.4c2.5,0.9,5.1,1.3,7.7,1.3
			c2,0,4-0.3,5.9-0.9c1.8-0.7,3.3-1.9,4.4-3.5c1.4-2,2-4.3,1.9-6.7c0-3.8-1.1-6.6-3.1-8.1s-5.1-2.4-8.9-2.3h-2.6
			c-1.1,0-1.6-0.8-1.6-2.4v-0.9c0-1.6,0.5-2.4,1.6-2.4h2.3c3.7,0,6.4-1.2,8-3.4c1.6-1.9,2.4-4.3,2.5-6.7c0-2.1-0.8-4.2-2.2-5.7
			c-1.5-1.6-3.9-2.3-7.4-2.3c-3.4-0.1-6.7,0.6-9.7,2c-0.5,0.3-1.1,0.6-1.8,0.7c-0.4,0-1-0.5-1.7-1.6c-0.6-0.7-0.9-1.6-1-2.6
			c0-1.1,1.7-2.1,5-3c3-0.8,6.1-1.3,9.3-1.4c4.9,0,8.8,1.1,11.8,3.5c3,2.4,4.4,5.9,4.5,10.5c0.1,2.5-0.7,4.9-2.3,6.8
			c-1.5,1.9-3.5,3.4-5.8,4.3v0.3c2.8,0.8,5.3,2.5,7.1,4.9c2,2.6,3.1,5.7,3.1,9c0.1,2.9-0.4,5.8-1.6,8.5c-1,2.1-2.5,3.9-4.3,5.3
			c-3.5,2.5-7.6,3.8-11.8,3.8c-3.8,0.1-7.7-0.4-11.3-1.4C113,193.7,111.5,192.7,111.4,191.6z"/>
		<path class="st1" d="M190,167c0.1,9.4-1.6,16.5-5.1,21.3c-3.5,4.8-7.8,7.3-13,7.3c-5.2,0.1-9.6-2.3-13.1-7.1
			c-3.5-4.8-5.3-11.9-5.4-21.2c-0.1-9.4,1.6-16.5,5-21.3c3.4-4.8,7.7-7.3,12.9-7.3c5.2,0,9.6,2.3,13.1,7.1
			C188.1,150.5,189.9,157.6,190,167z M160.3,167.2c0.1,7.8,1.2,13.5,3.4,17.2c2.2,3.7,4.9,5.5,8.2,5.4s5.9-1.9,8.1-5.6
			s3.2-9.4,3.2-17.2s-1.2-13.5-3.5-17.2s-5-5.5-8.2-5.4s-5.9,1.9-8.1,5.6S160.3,159.5,160.3,167.2L160.3,167.2z"/>
		<path class="st1" d="M232.8,166.7c0.1,9.4-1.6,16.5-5.1,21.3c-3.4,4.8-7.8,7.3-13,7.3c-5.2,0-9.6-2.3-13.1-7.1
			c-3.5-4.8-5.3-11.8-5.4-21.2c-0.1-9.4,1.6-16.5,5-21.3c3.4-4.8,7.7-7.3,12.9-7.3c5.2,0,9.6,2.3,13.1,7.1
			C230.9,150.2,232.7,157.3,232.8,166.7z M203.1,166.9c0.1,7.8,1.2,13.5,3.4,17.2c2.2,3.7,4.9,5.5,8.2,5.4c3.2,0,5.9-1.9,8.1-5.6
			c2.2-3.7,3.2-9.5,3.1-17.2c-0.1-7.8-1.2-13.5-3.5-17.2c-2.2-3.7-5-5.5-8.2-5.4c-3.2,0-5.9,1.9-8.1,5.6S203.1,159.2,203.1,166.9z"
			/>
		<path class="st1" d="M275.6,166.3c0.1,9.4-1.6,16.5-5.1,21.3s-7.8,7.3-13,7.3c-5.2,0-9.6-2.3-13.1-7.1c-3.5-4.8-5.3-11.8-5.4-21.2
			c-0.1-9.4,1.6-16.5,5-21.3s7.7-7.3,13-7.3c5.2-0.1,9.6,2.3,13.1,7.1C273.7,149.9,275.5,156.9,275.6,166.3z M246,166.5
			c0.1,7.8,1.2,13.5,3.4,17.2c2.2,3.7,4.9,5.5,8.2,5.4c3.2,0,5.9-1.9,8.1-5.6c2.2-3.7,3.2-9.5,3.2-17.2c-0.1-7.8-1.2-13.5-3.5-17.2
			c-2.2-3.7-5-5.5-8.2-5.4c-3.2,0-5.9,1.9-8.1,5.6C246.9,153,245.9,158.8,246,166.5L246,166.5z"/>
		<path class="st1" d="M497,120.4c0.1-0.2,0.1-0.5,0.2-0.7l17-36.2l-18.9,0.2c-0.8,0-1.2-0.6-1.2-1.8v-0.7c0-1.2,0.4-1.8,1.2-1.8
			l23.7-0.2c0.2,0,0.5,0.4,0.8,1.1c0.2,0.5,0.4,1.1,0.4,1.7c0,0.3,0,0.7-0.1,1l-17.4,37.6c-0.3,0.6-1.1,1-2.4,1h-0.7
			C497.9,121.5,497,121.2,497,120.4z"/>
		<path class="st1" d="M526.1,117.9c0-0.7,0.3-1.4,0.8-1.9c0.5-0.7,1-1.1,1.3-1.1c0,0,1,0.4,3,1.1c2.1,0.8,4.3,1.1,6.5,1.1
			c2.3,0,4.5-0.8,6.2-2.4c1.8-1.6,2.8-4,2.7-6.4c0.1-2.4-0.9-4.7-2.8-6.2c-1.8-1.4-4.5-2-8.1-2h-5.1c-0.5,0.1-1-0.1-1.3-0.4
			c-0.3-0.4-0.4-0.9-0.4-1.4l0.9-17.4c-0.1-0.9,0.6-1.7,1.5-1.8c0.1,0,0.3,0,0.4,0l16-0.1c0.8,0,1.2,0.6,1.2,1.8v0.7
			c0,1.2-0.4,1.8-1.2,1.8l-13,0.1l-0.7,12.4h3.1c3.4-0.1,6.8,0.8,9.7,2.6c1.5,0.9,2.8,2.2,3.6,3.8c0.9,1.9,1.4,4,1.4,6.1
			c0.1,2.2-0.3,4.3-1.2,6.3c-0.7,1.7-1.9,3.1-3.4,4.1c-2.7,1.8-5.9,2.7-9.2,2.7c-2.9,0.1-5.7-0.3-8.4-1.1
			C527.2,119.5,526.1,118.7,526.1,117.9z"/>
		<path class="st1" d="M558.2,117.6c0-0.7,0.3-1.4,0.8-1.9c0.5-0.7,1-1.1,1.3-1.1c0,0,1,0.4,3,1.1c2.1,0.8,4.3,1.1,6.5,1.1
			c2.3,0,4.5-0.8,6.2-2.4c1.8-1.6,2.8-4,2.6-6.4c0.1-2.4-0.9-4.7-2.8-6.2c-1.9-1.4-4.5-2-8.1-2h-5.1c-0.5,0.1-1-0.1-1.3-0.4
			c-0.3-0.4-0.4-0.9-0.4-1.4l0.9-17.4c-0.1-0.9,0.6-1.7,1.5-1.8c0.1,0,0.3,0,0.4,0l16-0.1c0.8,0,1.2,0.6,1.2,1.8v0.7
			c0,1.2-0.4,1.8-1.2,1.8l-13,0.1L566,95.5h3.1c3.4-0.1,6.7,0.8,9.7,2.5c1.5,0.9,2.8,2.2,3.6,3.8c0.9,1.9,1.4,4,1.4,6.1
			c0.1,2.2-0.3,4.3-1.2,6.3c-0.7,1.7-1.9,3.1-3.4,4.1c-2.7,1.8-5.9,2.7-9.2,2.7c-2.9,0.1-5.7-0.3-8.4-1.1
			C559.3,119.3,558.2,118.5,558.2,117.6z"/>
		<path class="st1" d="M617,99.3c0.1,7-1.2,12.4-3.8,16c-2.6,3.6-5.8,5.5-9.7,5.5c-3.9,0-7.2-1.8-9.8-5.3c-2.6-3.5-4-8.9-4-15.9
			c-0.1-7,1.2-12.4,3.8-16c2.6-3.6,5.8-5.5,9.7-5.5c3.9,0,7.2,1.8,9.8,5.3C615.6,87,617,92.3,617,99.3z M594.7,99.5
			c0,5.8,0.9,10.1,2.6,12.9c1.7,2.7,3.7,4.1,6.1,4.1c2.4,0,4.4-1.4,6.1-4.2c1.6-2.8,2.4-7.1,2.4-12.9c0-5.8-0.9-10.1-2.6-12.9
			c-1.7-2.7-3.7-4.1-6.2-4.1c-2.4,0-4.4,1.4-6,4.2C595.6,89.4,594.8,93.7,594.7,99.5z"/>
		<path class="st1" d="M864.8,119.5v-0.7c0-1.2,0.4-1.8,1.2-1.8l10.4-0.1l-0.3-32.3l-10.6,1.9c-0.4,0-0.7-0.3-0.9-1
			c-0.2-0.6-0.3-1.3-0.3-2c0-0.6,0.3-1,1.1-1.2l13.9-3.2c0.5,0,0.9,0.1,1.3,0.3c0.3,0.2,0.6,0.5,0.6,0.9l0.3,36.5l8.9-0.1
			c0.8,0,1.2,0.6,1.2,1.8v0.7c0,1.2-0.4,1.8-1.2,1.8l-24.4,0.2C865.2,121.3,864.8,120.7,864.8,119.5z"/>
		<path class="st1" d="M897.1,117.8c0-0.7,0.3-1.4,0.8-1.9c0.5-0.7,1-1.1,1.3-1.1c0,0,1,0.4,3,1.1c2.1,0.8,4.3,1.1,6.5,1.1
			c2.3,0,4.5-0.8,6.2-2.4c1.8-1.6,2.8-4,2.6-6.4c0.1-2.4-0.9-4.7-2.8-6.2c-1.9-1.4-4.5-2-8.1-2h-5.1c-0.5,0.1-1-0.1-1.3-0.4
			c-0.3-0.4-0.4-0.9-0.4-1.4l0.9-17.4c-0.1-0.9,0.6-1.7,1.5-1.8c0.1,0,0.3,0,0.4,0l16-0.1c0.8,0,1.2,0.6,1.2,1.8v0.7
			c0,1.2-0.4,1.8-1.2,1.8l-13,0.1L905,95.6h3.1c3.4-0.1,6.8,0.8,9.7,2.6c1.5,0.9,2.8,2.2,3.6,3.8c0.9,1.9,1.4,4,1.4,6.1
			c0.1,2.2-0.3,4.3-1.2,6.3c-0.7,1.7-1.9,3.1-3.4,4.1c-2.7,1.8-5.9,2.7-9.2,2.7c-2.9,0.1-5.7-0.3-8.4-1.1
			C898.2,119.4,897.1,118.6,897.1,117.8z"/>
		<path class="st1" d="M956,99.5c0.1,7-1.2,12.4-3.8,16c-2.6,3.6-5.8,5.5-9.8,5.5c-3.9,0-7.2-1.8-9.8-5.3c-2.6-3.5-4-8.9-4-15.9
			c-0.1-7,1.2-12.4,3.8-16c2.6-3.6,5.8-5.5,9.7-5.5c3.9,0,7.2,1.8,9.8,5.3C954.6,87.1,955.9,92.4,956,99.5z M933.7,99.7
			c0,5.8,0.9,10.1,2.6,12.9c1.7,2.7,3.7,4.1,6.1,4.1c2.4,0,4.4-1.4,6.1-4.2s2.4-7.1,2.4-12.9c-0.1-5.8-0.9-10.1-2.6-12.9
			c-1.7-2.7-3.7-4.1-6.2-4.1c-2.4,0-4.4,1.4-6,4.2C934.5,89.6,933.7,93.9,933.7,99.7L933.7,99.7z"/>
		<path class="st2" d="M85.4,258.4v-18.9c0-0.7,0.6-1,1.8-1h1c1.2,0,1.8,0.3,1.8,1v16.2h6.7c0.6,0,0.9,0.5,0.9,1.5v0.9
			c0,1-0.3,1.5-0.9,1.5H86.6c-0.6,0.1-1.1-0.3-1.2-0.9C85.4,258.6,85.4,258.5,85.4,258.4z"/>
		<path class="st2" d="M102.9,257.1c-1.7-1.8-2.5-4.5-2.5-8s0.8-6.1,2.5-8c1.9-1.9,4.5-2.9,7.1-2.8c3.1,0,5.5,0.9,7.1,2.8
			s2.5,4.5,2.5,8s-0.8,6.1-2.5,8s-4,2.8-7.1,2.8S104.6,258.9,102.9,257.1z M106.4,254.2c1.6,2,4.6,2.3,6.6,0.7
			c0.3-0.2,0.5-0.4,0.7-0.7c1.6-3.2,1.6-7,0-10.1c-1.6-2-4.6-2.3-6.6-0.7c-0.2,0.2-0.5,0.4-0.7,0.7
			C104.7,247.2,104.7,251,106.4,254.2z"/>
		<path class="st2" d="M123.6,249.1c0-7.1,3.3-10.7,10-10.7c1.5,0,2.9,0.2,4.3,0.6c1.4,0.4,2.1,0.9,2.1,1.5
			c-0.1,0.6-0.3,1.2-0.7,1.7c-0.5,0.7-0.9,1.1-1.2,1.1c-0.2-0.1-0.4-0.1-0.7-0.2c-1.2-0.5-2.6-0.8-3.9-0.7c-3.5,0-5.2,2.3-5.2,6.8
			s1.7,6.8,5.1,6.8c0.8,0,1.6-0.1,2.3-0.2v-3.8h-2.6c-0.6,0-0.9-0.5-0.9-1.5v-1c0-1,0.3-1.5,0.9-1.5h6.1c0.6-0.1,1.1,0.3,1.2,0.9
			c0,0.1,0,0.2,0,0.3v8.3c0,0.5-0.3,1-0.8,1.2c-0.6,0.4-1.3,0.6-2,0.7c-1.4,0.3-2.8,0.4-4.3,0.4c-3.4,0-5.8-0.9-7.4-2.6
			S123.6,252.8,123.6,249.1z"/>
		<path class="st2" d="M145.6,258.4v-18.6c-0.1-0.6,0.3-1.1,0.9-1.2c0.1,0,0.2,0,0.3,0h11c0.6,0,0.9,0.5,0.9,1.5v0.9
			c0,1-0.3,1.5-0.9,1.5h-7.6v4.4h6.7c0.6,0,0.9,0.5,0.9,1.5v0.9c0,1-0.3,1.5-0.9,1.5h-6.8v4.9h7.6c0.6,0,0.9,0.5,0.9,1.5v0.9
			c0,1-0.3,1.5-0.9,1.5h-11c-0.6,0.1-1.1-0.3-1.2-0.9C145.6,258.6,145.6,258.5,145.6,258.4z"/>
		<path class="st2" d="M163.2,258.7v-19.2c0-0.7,0.6-1,1.8-1h1.6c0.7-0.1,1.5,0.2,1.9,0.8l5.3,9.4l5.3-9.4c0.4-0.6,1.2-0.9,1.9-0.8
			h1.6c1.2,0,1.8,0.3,1.8,1v19.2c0,0.7-0.6,1-1.8,1h-0.9c-1.2,0-1.8-0.3-1.8-1v-12.4h-0.1l-4.4,7.7c-0.3,0.4-0.7,0.6-1.2,0.6h-0.9
			c-0.5,0-0.9-0.2-1.2-0.6l-4.4-7.8h-0.1v12.4c0,0.7-0.6,1-1.8,1H165C163.8,259.7,163.2,259.4,163.2,258.7z"/>
		<path class="st2" d="M189.7,258.4v-18.6c-0.1-0.6,0.3-1.1,0.9-1.2c0.1,0,0.2,0,0.3,0h11c0.6,0,0.9,0.5,0.9,1.5v0.9
			c0,1-0.3,1.5-0.9,1.5h-7.6v4.4h6.8c0.6,0,0.9,0.5,0.9,1.5v0.9c0,1-0.3,1.5-0.9,1.5h-6.8v4.9h7.6c0.6,0,0.9,0.5,0.9,1.5v0.9
			c0,1-0.3,1.5-0.9,1.5h-11c-0.6,0.1-1.1-0.3-1.2-0.9C189.7,258.6,189.7,258.5,189.7,258.4z"/>
		<path class="st2" d="M207.3,258.7v-19.2c0-0.7,0.6-1,1.8-1h1.3c0.8-0.1,1.5,0.2,2,0.8l7.9,12.1v-12c0-0.7,0.6-1,1.8-1h0.9
			c1.2,0,1.8,0.3,1.8,1v19.2c0,0.7-0.6,1-1.8,1h-1.1c-0.8,0.1-1.5-0.2-2-0.8l-8-12.3v12.2c0,0.7-0.6,1-1.8,1h-0.9
			C207.9,259.7,207.3,259.4,207.3,258.7z"/>
		<path class="st2" d="M233.9,258.7v-16.2h-4.8c-0.6,0-0.9-0.5-0.9-1.5v-0.9c0-1,0.3-1.5,0.9-1.5h14.2c0.6,0,0.9,0.5,0.9,1.5v0.9
			c0,1-0.3,1.5-0.9,1.5h-4.8v16.2c0,0.7-0.6,1-1.8,1h-1.1C234.5,259.7,233.9,259.4,233.9,258.7z"/>
		<path class="st2" d="M246.3,257.2c0.1-0.6,0.3-1.2,0.7-1.7c0.5-0.7,0.8-1,1.2-1c0.3,0.1,0.5,0.2,0.8,0.3c1.1,0.7,2.3,1,3.6,1.1
			c1.9,0,2.8-0.7,2.8-2.2c0-0.7-0.4-1.3-0.9-1.6c-0.7-0.5-1.4-0.9-2.2-1.2c-0.9-0.3-1.7-0.7-2.5-1.1c-0.9-0.5-1.6-1.2-2.2-2
			c-0.6-1-0.9-2.2-0.9-3.4c0-1.2,0.3-2.5,1.1-3.5c1.3-1.7,3.3-2.6,6-2.6c1.3,0,2.6,0.2,3.8,0.7c1,0.4,1.6,0.9,1.6,1.4
			c0,0.6-0.2,1.1-0.6,1.6c-0.4,0.7-0.7,1-1.1,1c-0.2,0-0.4-0.1-0.5-0.2c-0.9-0.4-1.8-0.6-2.8-0.5c-0.8-0.1-1.5,0.1-2.2,0.5
			c-0.4,0.3-0.6,0.8-0.6,1.4c0,0.6,0.4,1.1,0.9,1.4c0.7,0.5,1.4,0.8,2.2,1.1c0.9,0.3,1.7,0.7,2.5,1.1c0.9,0.5,1.6,1.2,2.2,2
			c0.6,1,0.9,2.1,0.9,3.2c0,1.1-0.2,2.2-0.6,3.2c-0.3,0.8-0.9,1.6-1.6,2.1c-1.4,1-3.1,1.5-4.9,1.4c-1.7,0.1-3.3-0.2-4.8-0.9
			C246.9,258.4,246.3,257.8,246.3,257.2z"/>
		<path class="st2" d="M93.8,293.2c0-0.1,0-0.3,0.1-0.4l4.6-13.5c0.1-0.3,0.5-0.4,1.2-0.4h1.1c0.7,0,1.1,0.1,1.2,0.4l4.6,13.5
			c0,0.1,0.1,0.3,0.1,0.4c0,0.3-0.3,0.5-1,0.5h-0.9c-0.7,0-1.1-0.1-1.2-0.4l-0.8-2.6h-5l-0.8,2.6c-0.1,0.3-0.4,0.4-1,0.4h-0.8
			C94.3,293.7,93.8,293.5,93.8,293.2z M98.7,287.9h3.2l-1.2-3.7l-0.3-1.4h-0.1c-0.1,0.5-0.2,0.9-0.3,1.4L98.7,287.9z"/>
		<path class="st2" d="M108.5,286.2c0-5,2.3-7.5,7-7.5c1,0,2,0.1,3,0.4c1,0.3,1.4,0.6,1.4,1c-0.1,0.4-0.2,0.9-0.5,1.2
			c-0.3,0.5-0.6,0.8-0.9,0.8c-0.2,0-0.3-0.1-0.4-0.2c-0.8-0.4-1.7-0.5-2.6-0.5c-2.4,0-3.6,1.6-3.6,4.8s1.2,4.7,3.6,4.7
			c1,0,2-0.2,2.9-0.6c0.2-0.1,0.4-0.2,0.6-0.2c0.3,0,0.6,0.2,0.8,0.7c0.2,0.3,0.4,0.7,0.4,1.1c0,0.6-0.5,1-1.6,1.3
			c-1,0.3-2.1,0.5-3.1,0.5c-2.4,0-4.1-0.6-5.2-1.8C109.1,290.7,108.5,288.8,108.5,286.2z"/>
		<path class="st2" d="M122.3,286.2c0-5,2.3-7.5,7-7.5c1,0,2,0.1,3,0.4c0.9,0.3,1.4,0.6,1.4,1c-0.1,0.4-0.2,0.9-0.5,1.2
			c-0.3,0.5-0.6,0.8-0.9,0.8c-0.2,0-0.3-0.1-0.4-0.2c-0.8-0.4-1.7-0.5-2.6-0.5c-2.4,0-3.6,1.6-3.6,4.8s1.2,4.8,3.6,4.8
			c1,0,2-0.2,2.9-0.6c0.2-0.1,0.4-0.2,0.6-0.2c0.3,0,0.6,0.2,0.8,0.7c0.2,0.3,0.3,0.7,0.4,1.1c0,0.6-0.5,1-1.6,1.3
			c-1,0.3-2.1,0.5-3.1,0.5c-2.3,0-4.1-0.6-5.2-1.8C122.9,290.7,122.3,288.8,122.3,286.2z"/>
		<path class="st2" d="M137.9,291.9c-2.3-3.4-2.3-7.8,0-11.2c2.8-2.6,7.2-2.6,10,0c2.3,3.4,2.3,7.8,0,11.2
			C145.1,294.4,140.7,294.4,137.9,291.9z M140.4,289.9c1.1,1.4,3.2,1.6,4.6,0.5c0.2-0.1,0.4-0.3,0.5-0.5c1.1-2.2,1.1-4.9,0-7.1
			c-1.1-1.4-3.2-1.6-4.6-0.5c-0.2,0.1-0.3,0.3-0.5,0.5C139.2,285,139.2,287.6,140.4,289.9z"/>
		<path class="st2" d="M152.9,293v-13.5c0-0.5,0.4-0.7,1.3-0.7h1.1c0.5-0.1,1,0.1,1.3,0.6l3.7,6.6l3.7-6.6c0.3-0.4,0.8-0.6,1.3-0.6
			h1.1c0.8,0,1.3,0.2,1.3,0.7V293c0,0.5-0.4,0.7-1.3,0.7h-0.6c-0.8,0-1.3-0.2-1.3-0.7v-8.7h-0.1l-3,5.4c-0.2,0.3-0.5,0.4-0.9,0.4
			H160c-0.3,0-0.6-0.1-0.8-0.4l-3.1-5.4H156v8.7c0,0.5-0.4,0.7-1.3,0.7h-0.6C153.3,293.7,152.9,293.4,152.9,293z"/>
		<path class="st2" d="M171.4,293v-13.2c-0.1-0.4,0.2-0.8,0.6-0.8c0.1,0,0.1,0,0.2,0h4.4c1.4-0.1,2.7,0.3,3.8,1.2
			c0.4,0.4,0.7,0.8,0.9,1.4c0.2,0.6,0.4,1.3,0.4,2c0,0.7-0.1,1.4-0.4,2c-0.2,0.5-0.6,1-1,1.3c-0.4,0.3-0.8,0.6-1.3,0.8
			c-0.7,0.3-1.4,0.4-2.2,0.5h-2.2v4.9c0,0.5-0.4,0.7-1.3,0.7h-0.7C171.8,293.7,171.4,293.4,171.4,293z M174.6,285.4h1.9
			c0.5,0,0.9-0.1,1.3-0.4c0.7-0.8,0.7-2,0-2.9c-0.4-0.3-0.8-0.4-1.3-0.4h-1.9V285.4z"/>
		<path class="st2" d="M182.8,293.2c0-0.1,0-0.3,0.1-0.4l4.6-13.5c0.1-0.3,0.5-0.4,1.2-0.4h1.1c0.7,0,1.1,0.1,1.2,0.4l4.6,13.5
			c0,0.1,0.1,0.3,0.1,0.4c0,0.3-0.4,0.5-1,0.5h-0.9c-0.7,0-1.1-0.1-1.2-0.4l-0.8-2.6h-4.9l-0.8,2.6c-0.1,0.3-0.4,0.4-1,0.4H184
			C183.2,293.7,182.8,293.5,182.8,293.2z M187.6,287.9h3.1l-1.2-3.7l-0.3-1.4h-0.1c-0.1,0.5-0.2,0.9-0.3,1.4L187.6,287.9z"/>
		<path class="st2" d="M197.4,286.2c0-5,2.3-7.5,7-7.5c1,0,2,0.1,3,0.4c1,0.3,1.5,0.6,1.5,1c-0.1,0.4-0.2,0.9-0.5,1.2
			c-0.3,0.5-0.6,0.8-0.9,0.8c-0.2,0-0.3-0.1-0.5-0.2c-0.9-0.4-1.8-0.5-2.7-0.5c-2.4,0-3.6,1.6-3.6,4.8c0,3.2,1.2,4.8,3.6,4.8
			c0.6,0,1.1,0,1.6-0.1v-2.7h-1.9c-0.4,0-0.6-0.4-0.6-1v-0.7c0-0.7,0.2-1,0.6-1h4.3c0.4-0.1,0.8,0.2,0.8,0.6c0,0.1,0,0.1,0,0.2v5.8
			c0,0.4-0.2,0.7-0.5,0.9c-0.4,0.3-0.9,0.4-1.4,0.5c-1,0.2-2,0.3-3,0.3c-2.4,0-4.1-0.6-5.2-1.8C197.9,290.7,197.4,288.8,197.4,286.2
			z"/>
		<path class="st2" d="M212.9,293v-13.5c0-0.5,0.4-0.7,1.3-0.7h0.9c0.5-0.1,1,0.2,1.4,0.6l5.6,8.6v-8.4c0-0.5,0.4-0.7,1.3-0.7h0.6
			c0.8,0,1.3,0.2,1.3,0.7V293c0,0.5-0.4,0.7-1.3,0.7H223c-0.5,0.1-1.1-0.2-1.4-0.6l-5.6-8.6v8.5c0,0.5-0.4,0.7-1.3,0.7h-0.6
			C213.3,293.7,212.9,293.4,212.9,293z"/>
		<path class="st2" d="M228.8,292.8v-13c-0.1-0.4,0.2-0.8,0.6-0.8c0.1,0,0.1,0,0.2,0h7.7c0.4,0,0.6,0.4,0.6,1v0.6c0,0.7-0.2,1-0.6,1
			h-5.3v3h4.7c0.4,0,0.6,0.3,0.6,1v0.6c0,0.7-0.2,1-0.6,1h-4.7v3.4h5.3c0.4,0,0.6,0.4,0.6,1v0.6c0,0.7-0.2,1-0.6,1h-7.7
			c-0.4,0.1-0.8-0.2-0.8-0.6C228.8,292.9,228.8,292.8,228.8,292.8z M232.6,277.3c-0.4,0-0.6-0.1-0.6-0.3c0-0.2,0.2-0.5,0.3-0.7
			c0.2-0.3,0.4-0.6,0.6-0.9l0.5-0.9c0.2-0.4,0.8-0.6,1.7-0.6s1.4,0.1,1.4,0.3c0,0.1-0.1,0.2-0.1,0.3c-0.1,0.1-0.3,0.3-0.5,0.6
			s-0.4,0.4-0.5,0.5s-0.2,0.3-0.4,0.5l-0.6,0.6C233.7,277.2,233.1,277.4,232.6,277.3z"/>
		<path class="st2" d="M240.1,291.9c0-0.4,0.2-0.8,0.5-1.2c0.3-0.5,0.6-0.7,0.8-0.7c0.2,0,0.4,0.1,0.5,0.2c0.8,0.5,1.6,0.7,2.5,0.7
			c1.3,0,2-0.5,2-1.5c0-0.5-0.2-0.9-0.6-1.1c-0.5-0.3-1-0.6-1.5-0.8c-0.6-0.2-1.2-0.5-1.8-0.8c-0.6-0.3-1.1-0.8-1.5-1.4
			c-0.4-0.7-0.7-1.5-0.6-2.4c0-0.9,0.2-1.7,0.8-2.4c1-1.3,2.6-2,4.2-1.8c0.9,0,1.8,0.1,2.7,0.5c0.7,0.3,1.1,0.6,1.1,1
			c0,0.4-0.2,0.8-0.4,1.1c-0.3,0.5-0.5,0.7-0.8,0.7c-0.1,0-0.3-0.1-0.4-0.1c-0.6-0.3-1.3-0.4-1.9-0.4c-0.5-0.1-1.1,0.1-1.5,0.4
			c-0.3,0.2-0.5,0.6-0.4,1c0,0.4,0.3,0.8,0.6,1c0.5,0.3,1,0.6,1.5,0.8c0.6,0.2,1.2,0.5,1.8,0.8c1.4,0.7,2.2,2.1,2.1,3.6
			c0,0.8-0.1,1.5-0.4,2.2c-0.2,0.6-0.6,1.1-1.1,1.5c-1,0.7-2.2,1-3.4,1c-1.2,0-2.3-0.2-3.4-0.6C240.6,292.8,240.1,292.4,240.1,291.9
			z"/>
		<path class="st2" d="M72.5,325.9c0-0.4,0.2-0.8,0.5-1.2c0.3-0.5,0.6-0.7,0.8-0.7c0.2,0,0.4,0.1,0.5,0.2c0.8,0.5,1.6,0.7,2.5,0.7
			c1.3,0,2-0.5,2-1.5c0-0.5-0.2-0.9-0.6-1.1c-0.5-0.3-1-0.6-1.5-0.8c-0.6-0.2-1.2-0.5-1.8-0.8c-0.6-0.3-1.1-0.8-1.5-1.4
			c-0.4-0.7-0.7-1.5-0.6-2.4c0-0.9,0.2-1.7,0.8-2.4c1-1.3,2.6-2,4.2-1.8c0.9,0,1.8,0.1,2.7,0.5c0.7,0.3,1.1,0.6,1.1,1
			c0,0.4-0.2,0.8-0.4,1.1c-0.3,0.5-0.5,0.7-0.8,0.7c-0.1,0-0.3-0.1-0.4-0.1c-0.6-0.3-1.3-0.4-1.9-0.4c-0.5-0.1-1.1,0.1-1.5,0.4
			c-0.3,0.2-0.5,0.6-0.4,1c0,0.4,0.3,0.8,0.6,1c0.5,0.3,1,0.6,1.5,0.8c0.6,0.2,1.2,0.5,1.8,0.8c1.4,0.7,2.2,2.1,2.2,3.6
			c0,0.8-0.1,1.5-0.4,2.2c-0.2,0.6-0.6,1.1-1.1,1.5c-1,0.7-2.2,1-3.4,1c-1.2,0-2.3-0.2-3.4-0.6C73,326.8,72.5,326.4,72.5,325.9z"/>
		<path class="st2" d="M84.8,322.7v-9.2c0-0.5,0.4-0.7,1.3-0.7h0.7c0.8,0,1.3,0.2,1.3,0.7v9c0,0.7,0.3,1.4,0.8,1.8
			c0.6,0.5,1.3,0.7,2.1,0.7c0.8,0,1.5-0.2,2.1-0.7c0.5-0.5,0.8-1.1,0.8-1.8v-9c0-0.5,0.4-0.7,1.3-0.7h0.7c0.8,0,1.3,0.2,1.3,0.7v9.2
			c0.1,1.4-0.5,2.8-1.6,3.7c-2.7,1.8-6.3,1.8-9,0C85.3,325.5,84.7,324.1,84.8,322.7z"/>
		<path class="st2" d="M100.6,327v-13.2c-0.1-0.4,0.2-0.8,0.6-0.8c0.1,0,0.1,0,0.2,0h4.1c3.5,0,5.2,1.3,5.2,4c0,0.7-0.2,1.5-0.7,2
			c-0.5,0.6-1.1,1-1.8,1.3v0.1c0.3,0.2,0.6,0.4,0.8,0.7c0.3,0.4,0.5,0.8,0.7,1.2l1.8,4.6c0.1,0.1,0.1,0.3,0.1,0.4
			c0,0.3-0.4,0.4-1.3,0.4h-0.9c-0.7,0-1.1-0.1-1.2-0.4l-1.7-4.1c-0.2-0.4-0.4-0.7-0.8-1c-0.4-0.2-0.9-0.3-1.3-0.3h-0.8v5.1
			c0,0.5-0.4,0.7-1.3,0.7h-0.7C101.1,327.7,100.6,327.4,100.6,327z M103.9,319.1h2c0.4,0,0.9-0.2,1.1-0.5c0.3-0.3,0.5-0.8,0.5-1.3
			c0-0.4-0.2-0.9-0.5-1.2c-0.4-0.3-0.8-0.5-1.3-0.4h-1.8L103.9,319.1z"/>
		<path class="st2" d="M119.7,320.2c0-5,2.3-7.5,7-7.5c1,0,2,0.1,3,0.4c1,0.3,1.4,0.6,1.4,1c0,0.4-0.2,0.9-0.5,1.2
			c-0.3,0.5-0.6,0.8-0.9,0.8c-0.2,0-0.3-0.1-0.4-0.2c-0.8-0.4-1.7-0.5-2.7-0.5c-2.4,0-3.6,1.6-3.6,4.8c0,3.2,1.2,4.8,3.6,4.8
			c1,0,2-0.2,2.9-0.6c0.2-0.1,0.4-0.2,0.5-0.2c0.3,0,0.6,0.2,0.8,0.7c0.2,0.3,0.4,0.7,0.4,1.1c0,0.6-0.5,1-1.6,1.3
			c-1,0.3-2.1,0.5-3.1,0.5c-2.3,0-4.1-0.6-5.2-1.8C120.3,324.7,119.7,322.8,119.7,320.2z"/>
		<path class="st2" d="M135.2,325.9c-2.3-3.4-2.3-7.8,0-11.2c2.8-2.6,7.2-2.6,10,0c2.3,3.4,2.3,7.8,0,11.2
			C142.4,328.4,138.1,328.4,135.2,325.9z M137.7,323.9c1.1,1.4,3.2,1.6,4.6,0.5c0.2-0.2,0.4-0.3,0.5-0.5c1.1-2.2,1.1-4.9,0-7.1
			c-1.1-1.4-3.2-1.6-4.6-0.5c-0.2,0.1-0.3,0.3-0.5,0.5C136.5,319,136.5,321.6,137.7,323.9z"/>
		<path class="st2" d="M148.8,327.2c0-0.1,0-0.3,0.1-0.4l4.6-13.5c0.1-0.3,0.5-0.4,1.2-0.4h1.1c0.7,0,1.1,0.1,1.2,0.4l4.6,13.5
			c0,0.1,0.1,0.3,0.1,0.4c0,0.3-0.4,0.5-1,0.5h-0.9c-0.7,0-1.1-0.1-1.2-0.4l-0.8-2.6h-5l-0.8,2.6c-0.1,0.3-0.4,0.4-1,0.4H150
			C149.2,327.7,148.8,327.5,148.8,327.2z M153.6,321.9h3.1l-1.2-3.7l-0.3-1.4h-0.1c-0.1,0.5-0.2,0.9-0.3,1.4L153.6,321.9z"/>
		<path class="st2" d="M163.4,320.2c0-5,2.3-7.5,7-7.5c1,0,2,0.1,3,0.4c1,0.3,1.4,0.6,1.4,1c0,0.4-0.2,0.9-0.5,1.2
			c-0.3,0.5-0.6,0.8-0.9,0.8c-0.2,0-0.3-0.1-0.5-0.2c-0.8-0.4-1.7-0.5-2.6-0.5c-2.4,0-3.6,1.6-3.6,4.8s1.2,4.8,3.6,4.8
			c1,0,2-0.2,2.9-0.6c0.2-0.1,0.4-0.2,0.5-0.2c0.3,0,0.6,0.2,0.8,0.7c0.2,0.3,0.4,0.7,0.4,1.1c0,0.6-0.5,1-1.6,1.3
			c-1,0.3-2.1,0.5-3.1,0.5c-2.3,0-4.1-0.6-5.2-1.8C164,324.7,163.4,322.8,163.4,320.2z"/>
		<path class="st2" d="M178.1,327v-13.5c0-0.5,0.4-0.7,1.3-0.7h0.7c0.8,0,1.3,0.2,1.3,0.7v5.2h5.7v-5.2c0-0.5,0.4-0.7,1.3-0.7h0.7
			c0.8,0,1.3,0.2,1.3,0.7V327c0,0.5-0.4,0.7-1.3,0.7h-0.7c-0.8,0-1.3-0.2-1.3-0.7v-5.5h-5.7v5.5c0,0.5-0.4,0.7-1.3,0.7h-0.7
			C178.5,327.7,178.1,327.4,178.1,327z"/>
		<path class="st2" d="M194,320.2c0-5,2.3-7.5,7-7.5c1,0,2,0.1,3,0.4c0.9,0.3,1.4,0.6,1.4,1c0,0.4-0.2,0.9-0.5,1.2
			c-0.3,0.5-0.6,0.8-0.9,0.8c-0.2,0-0.3-0.1-0.4-0.2c-0.8-0.4-1.7-0.5-2.6-0.5c-2.4,0-3.6,1.6-3.6,4.8c0,3.2,1.2,4.7,3.7,4.7
			c1,0,2-0.2,2.9-0.6c0.2-0.1,0.4-0.2,0.5-0.2c0.3,0,0.6,0.2,0.8,0.7c0.2,0.3,0.4,0.7,0.4,1.1c0,0.6-0.5,1-1.6,1.3
			c-1,0.3-2.1,0.5-3.1,0.5c-2.3,0-4.1-0.6-5.2-1.8C194.6,324.7,194.1,322.8,194,320.2z"/>
		<path class="st2" d="M209.6,325.9c-2.3-3.4-2.3-7.8,0-11.2c2.8-2.6,7.2-2.6,10,0c2.3,3.4,2.3,7.8,0,11.2
			C216.8,328.4,212.4,328.4,209.6,325.9z M212.1,323.9c0.6,0.8,1.5,1.3,2.6,1.2c1,0.1,2-0.4,2.5-1.2c1.1-2.2,1.1-4.9,0-7.1
			c-0.6-0.8-1.5-1.3-2.5-1.2c-1,0-2,0.4-2.6,1.2C210.9,319,210.9,321.6,212.1,323.9z"/>
		<path class="st2" d="M224.6,327v-13.2c-0.1-0.4,0.2-0.8,0.6-0.8c0.1,0,0.1,0,0.2,0h4.4c1.4-0.1,2.7,0.3,3.8,1.2
			c0.4,0.4,0.7,0.8,0.9,1.4c0.2,0.6,0.4,1.3,0.3,2c0,0.7-0.1,1.4-0.4,2c-0.2,0.5-0.5,1-0.9,1.3c-0.4,0.3-0.8,0.6-1.3,0.8
			c-0.7,0.3-1.4,0.4-2.2,0.5h-2.2v4.9c0,0.5-0.4,0.7-1.3,0.7h-0.7C225,327.7,224.6,327.4,224.6,327z M227.8,319.4h1.9
			c0.5,0,0.9-0.1,1.3-0.4c0.7-0.8,0.7-2,0-2.9c-0.4-0.3-0.8-0.4-1.3-0.4h-1.9L227.8,319.4z"/>
		<path class="st2" d="M237.4,327v-13.2c-0.1-0.4,0.2-0.8,0.6-0.8c0.1,0,0.1,0,0.2,0h4.1c3.5,0,5.2,1.3,5.2,4c0,0.7-0.2,1.5-0.7,2
			c-0.5,0.6-1.1,1-1.8,1.3v0.1c0.3,0.2,0.6,0.4,0.8,0.7c0.3,0.4,0.5,0.8,0.7,1.2l1.9,4.6c0.1,0.1,0.1,0.3,0.1,0.4
			c0,0.3-0.4,0.4-1.3,0.4h-0.9c-0.7,0-1.1-0.1-1.2-0.4l-1.7-4.1c-0.2-0.4-0.4-0.7-0.8-1c-0.4-0.2-0.9-0.3-1.4-0.3h-0.8v5.1
			c0,0.5-0.4,0.7-1.3,0.7h-0.7C237.8,327.7,237.4,327.4,237.4,327z M240.6,319.1h2c0.4,0,0.9-0.2,1.1-0.5c0.3-0.3,0.5-0.8,0.5-1.3
			c0-0.4-0.2-0.9-0.5-1.2c-0.4-0.3-0.8-0.5-1.3-0.4h-1.9L240.6,319.1z"/>
		<path class="st2" d="M252.3,325.9c-2.3-3.4-2.3-7.8,0-11.2c2.8-2.6,7.2-2.6,10,0c2.3,3.4,2.3,7.8,0,11.2
			C259.4,328.4,255.1,328.4,252.3,325.9z M254.7,323.9c0.6,0.8,1.5,1.3,2.5,1.2c1,0.1,2-0.4,2.5-1.2c1.1-2.2,1.1-4.9,0-7.1
			c-0.6-0.8-1.5-1.3-2.5-1.2c-1,0-2,0.4-2.5,1.2C253.6,319,253.6,321.6,254.7,323.9z"/>
		<path class="st2" d="M457.4,153v-11.4c0-0.4,0.2-0.7,0.5-0.7c0.1,0,0.1,0,0.2,0h3.8c1.2-0.1,2.3,0.3,3.3,1
			c0.3,0.3,0.6,0.7,0.7,1.2c0.2,0.6,0.3,1.1,0.3,1.7c0,0.6-0.1,1.2-0.3,1.7c-0.2,0.4-0.5,0.8-0.8,1.1c-0.3,0.3-0.7,0.5-1.1,0.7
			c-0.6,0.2-1.2,0.4-1.9,0.4h-1.9v4.2c0,0.4-0.4,0.6-1.1,0.6h-0.6C457.7,153.6,457.4,153.4,457.4,153z M460.1,146.4h1.6
			c0.4,0,0.8-0.1,1.1-0.3c0.6-0.7,0.6-1.7,0-2.5c-0.3-0.2-0.7-0.4-1.1-0.4h-1.6V146.4z"/>
		<path class="st2" d="M467.1,153.2c0-0.1,0-0.2,0.1-0.3l4-11.6c0.1-0.2,0.4-0.4,1-0.4h0.9c0.6,0,0.9,0.1,1,0.4l4,11.6
			c0,0.1,0.1,0.2,0.1,0.3c0,0.3-0.3,0.4-0.9,0.4h-0.8c-0.6,0-0.9-0.1-1-0.4l-0.7-2.2h-4.2l-0.7,2.2c-0.1,0.2-0.4,0.4-0.8,0.4h-0.7
			C467.5,153.6,467.1,153.4,467.1,153.2z M471.2,148.6h2.7l-1-3.2l-0.3-1.1h-0.1c-0.1,0.4-0.1,0.8-0.3,1.1L471.2,148.6z"/>
		<path class="st2" d="M480.1,153v-11.4c0-0.4,0.2-0.7,0.5-0.7c0.1,0,0.1,0,0.2,0h3.5c3,0,4.5,1.1,4.5,3.4c0,0.6-0.2,1.3-0.6,1.8
			c-0.4,0.5-0.9,0.9-1.5,1.1v0.1c0.3,0.1,0.5,0.3,0.7,0.6c0.2,0.3,0.4,0.6,0.6,1l1.6,4c0,0.1,0.1,0.2,0.1,0.4c0,0.2-0.4,0.4-1.1,0.4
			h-0.7c-0.6,0-1-0.1-1-0.4l-1.4-3.5c-0.3-0.8-1-1.2-1.8-1.1h-0.7v4.4c0,0.4-0.4,0.6-1.1,0.6h-0.6
			C480.5,153.6,480.1,153.4,480.1,153z M482.9,146.2h1.7c0.4,0,0.8-0.2,1-0.4c0.3-0.3,0.4-0.7,0.4-1.1c0-0.4-0.1-0.7-0.4-1
			c-0.3-0.3-0.7-0.4-1.1-0.4h-1.6L482.9,146.2z"/>
		<path class="st2" d="M491.7,153v-11.5c0-0.4,0.4-0.6,1.1-0.6h0.6c0.7,0,1.1,0.2,1.1,0.6V153c0,0.4-0.4,0.6-1.1,0.6h-0.6
			C492,153.6,491.7,153.4,491.7,153z"/>
		<path class="st2" d="M496.8,152.1c0-0.4,0.2-0.7,0.4-1c0.3-0.4,0.5-0.6,0.7-0.6c0.2,0,0.3,0.1,0.5,0.2c0.7,0.4,1.4,0.6,2.2,0.6
			c1.1,0,1.7-0.4,1.7-1.3c0-0.4-0.2-0.8-0.5-1c-0.4-0.3-0.8-0.5-1.3-0.7c-0.5-0.2-1-0.4-1.5-0.7c-0.5-0.3-1-0.7-1.3-1.2
			c-0.4-0.6-0.6-1.3-0.5-2c0-0.7,0.2-1.5,0.6-2.1c0.9-1.1,2.2-1.7,3.6-1.6c0.8,0,1.6,0.1,2.3,0.4c0.6,0.3,0.9,0.6,0.9,0.9
			c0,0.4-0.1,0.7-0.4,1c-0.2,0.4-0.4,0.6-0.6,0.6c-0.1,0-0.2-0.1-0.3-0.1c-0.5-0.2-1.1-0.3-1.7-0.3c-0.5,0-0.9,0.1-1.3,0.3
			c-0.2,0.2-0.4,0.5-0.4,0.8c0,0.4,0.2,0.7,0.5,0.9c0.4,0.3,0.8,0.5,1.3,0.7c0.5,0.2,1,0.4,1.5,0.7c0.5,0.3,1,0.7,1.3,1.2
			c0.4,0.6,0.6,1.2,0.5,1.9c0,0.7-0.1,1.3-0.4,1.9c-0.2,0.5-0.6,0.9-1,1.2c-0.9,0.6-1.9,0.9-2.9,0.9c-1,0-2-0.1-2.9-0.5
			C497.1,152.8,496.8,152.4,496.8,152.1z"/>
		<path class="st2" d="M507.2,153v-11.5c0-0.4,0.4-0.6,1.1-0.6h0.6c0.7,0,1.1,0.2,1.1,0.6V153c0,0.4-0.4,0.6-1.1,0.6h-0.6
			C507.6,153.6,507.2,153.4,507.2,153z"/>
		<path class="st2" d="M513.1,152.8v-11.2c0-0.4,0.2-0.7,0.5-0.7c0.1,0,0.1,0,0.2,0h6.6c0.4,0,0.5,0.3,0.5,0.9v0.6
			c0,0.6-0.2,0.9-0.5,0.9h-4.5v2.6h4c0.4,0,0.5,0.3,0.5,0.9v0.6c0,0.6-0.2,0.9-0.5,0.9h-4v2.9h4.6c0.4,0,0.5,0.3,0.5,0.9v0.6
			c0,0.6-0.2,0.9-0.5,0.9h-6.6c-0.4,0-0.7-0.2-0.7-0.5C513.1,152.9,513.1,152.9,513.1,152.8z"/>
		<path class="st2" d="M523.7,153v-11.5c0-0.4,0.4-0.6,1.1-0.6h0.8c0.5-0.1,0.9,0.1,1.2,0.5l4.7,7.3v-7.2c0-0.4,0.4-0.6,1.1-0.6h0.5
			c0.7,0,1.1,0.2,1.1,0.6V153c0,0.4-0.4,0.6-1.1,0.6h-0.7c-0.5,0-0.9-0.1-1.2-0.5l-4.8-7.4v7.3c0,0.4-0.4,0.6-1.1,0.6h-0.5
			C524,153.6,523.7,153.4,523.7,153z"/>
		<path class="st2" d="M536.5,152.1c0-0.4,0.2-0.7,0.4-1c0.3-0.4,0.5-0.6,0.7-0.6c0.2,0,0.3,0.1,0.5,0.2c0.7,0.4,1.4,0.6,2.2,0.6
			c1.1,0,1.7-0.4,1.7-1.3c0-0.4-0.2-0.8-0.5-1c-0.4-0.3-0.8-0.5-1.3-0.7c-0.5-0.2-1-0.4-1.5-0.7c-0.5-0.3-1-0.7-1.3-1.2
			c-0.4-0.6-0.6-1.3-0.5-2c0-0.7,0.2-1.5,0.6-2.1c0.9-1.1,2.2-1.7,3.6-1.6c0.8,0,1.6,0.1,2.3,0.4c0.6,0.3,0.9,0.6,0.9,0.9
			c0,0.4-0.1,0.7-0.3,1c-0.2,0.4-0.5,0.6-0.7,0.6c-0.1,0-0.2-0.1-0.3-0.1c-0.5-0.2-1.1-0.3-1.7-0.3c-0.5,0-0.9,0.1-1.3,0.3
			c-0.2,0.2-0.4,0.5-0.4,0.8c0,0.4,0.2,0.7,0.5,0.9c0.4,0.3,0.8,0.5,1.3,0.7c0.5,0.2,1,0.4,1.5,0.7c0.5,0.3,1,0.7,1.3,1.2
			c0.4,0.6,0.6,1.2,0.5,1.9c0,0.7-0.1,1.3-0.3,1.9c-0.2,0.5-0.6,0.9-1,1.2c-0.9,0.6-1.9,0.9-2.9,0.9c-1,0-2-0.1-2.9-0.5
			C536.9,152.8,536.5,152.4,536.5,152.1z"/>
		<path class="st2" d="M551.7,147.2c0-4.3,2-6.4,6-6.4c0.9,0,1.7,0.1,2.5,0.4c0.8,0.2,1.2,0.5,1.2,0.9c-0.1,0.4-0.2,0.7-0.4,1
			c-0.3,0.4-0.5,0.6-0.8,0.6c-0.1,0-0.3-0.1-0.4-0.1c-0.7-0.3-1.5-0.4-2.3-0.4c-2.1,0-3.1,1.4-3.1,4.1s1,4.1,3.1,4.1
			c0.9,0,1.7-0.2,2.5-0.5c0.1-0.1,0.3-0.1,0.5-0.2c0.2,0,0.5,0.2,0.7,0.6c0.2,0.3,0.3,0.6,0.3,0.9c0,0.5-0.4,0.9-1.3,1.1
			c-0.9,0.3-1.8,0.4-2.7,0.4c-1.6,0.1-3.3-0.4-4.5-1.6C552.1,151,551.7,149.4,551.7,147.2z"/>
		<path class="st2" d="M565,152c-2-2.9-2-6.7,0-9.6c1.1-1.2,2.7-1.8,4.3-1.7c1.6-0.1,3.2,0.5,4.3,1.7c2,2.9,2,6.7,0,9.6
			c-1.1,1.2-2.7,1.8-4.3,1.7C567.7,153.8,566.1,153.2,565,152z M567.1,150.3c0.5,0.7,1.3,1.1,2.2,1.1c0.9,0.1,1.7-0.3,2.2-1.1
			c1-1.9,1-4.2,0-6.1c-0.5-0.7-1.3-1.1-2.2-1c-0.9-0.1-1.7,0.3-2.2,1C566.1,146.1,566.1,148.4,567.1,150.3z"/>
		<path class="st2" d="M577.8,153v-11.5c0-0.4,0.4-0.6,1.1-0.6h0.8c0.5-0.1,0.9,0.1,1.2,0.5l4.7,7.3v-7.2c0-0.4,0.4-0.6,1.1-0.6h0.5
			c0.7,0,1.1,0.2,1.1,0.6V153c0,0.4-0.4,0.6-1.1,0.6h-0.7c-0.5,0-0.9-0.1-1.2-0.5l-4.8-7.4v7.3c0,0.4-0.4,0.6-1.1,0.6h-0.5
			C578.2,153.6,577.8,153.4,577.8,153z"/>
		<path class="st2" d="M590.6,152.1c0-0.4,0.2-0.7,0.4-1c0.3-0.4,0.5-0.6,0.7-0.6c0.2,0,0.3,0.1,0.5,0.2c0.7,0.4,1.4,0.6,2.2,0.6
			c1.1,0,1.7-0.4,1.7-1.3c0-0.4-0.2-0.8-0.5-1c-0.4-0.3-0.8-0.5-1.3-0.7c-0.5-0.2-1-0.4-1.5-0.7c-0.5-0.3-1-0.7-1.3-1.2
			c-0.4-0.6-0.6-1.3-0.5-2c0-0.7,0.2-1.5,0.6-2.1c0.9-1.1,2.2-1.7,3.6-1.6c0.8,0,1.6,0.1,2.3,0.4c0.6,0.3,0.9,0.6,0.9,0.9
			c0,0.4-0.1,0.7-0.3,1c-0.2,0.4-0.4,0.6-0.7,0.6c-0.1,0-0.2-0.1-0.3-0.1c-0.5-0.2-1.1-0.3-1.7-0.3c-0.5,0-0.9,0.1-1.3,0.3
			c-0.2,0.2-0.4,0.5-0.4,0.8c0,0.4,0.2,0.7,0.5,0.9c0.4,0.3,0.8,0.5,1.3,0.7c0.5,0.2,1,0.4,1.5,0.7c0.5,0.3,1,0.7,1.3,1.2
			c0.4,0.6,0.6,1.2,0.5,1.9c0,0.7-0.1,1.3-0.3,1.9c-0.2,0.5-0.6,0.9-1,1.2c-0.9,0.6-1.9,0.9-2.9,0.9c-1,0-2-0.1-2.9-0.5
			C591,152.8,590.6,152.4,590.6,152.1z"/>
		<path class="st2" d="M601.2,152.8v-11.2c0-0.4,0.2-0.7,0.5-0.7c0.1,0,0.1,0,0.2,0h6.6c0.4,0,0.5,0.3,0.5,0.9v0.6
			c0,0.6-0.2,0.9-0.5,0.9H604v2.6h4c0.4,0,0.5,0.3,0.5,0.9v0.6c0,0.6-0.2,0.9-0.5,0.9h-4v2.9h4.6c0.4,0,0.5,0.3,0.5,0.9v0.6
			c0,0.6-0.2,0.9-0.5,0.9H602c-0.3,0.1-0.7-0.2-0.7-0.5C601.2,152.9,601.2,152.9,601.2,152.8z"/>
		<path class="st2" d="M611.6,153v-11.5c0-0.4,0.4-0.6,1.1-0.6h0.6c0.7,0,1.1,0.2,1.1,0.6V153c0,0.4-0.4,0.6-1.1,0.6h-0.6
			C612,153.6,611.6,153.4,611.6,153z"/>
		<path class="st2" d="M617.5,152.8v-11.3c0-0.4,0.4-0.6,1.1-0.6h0.6c0.7,0,1.1,0.2,1.1,0.6v9.7h4c0.4,0,0.5,0.3,0.5,0.9v0.6
			c0,0.6-0.2,0.9-0.5,0.9h-6.1c-0.4,0-0.7-0.2-0.7-0.6C617.5,152.9,617.5,152.9,617.5,152.8z"/>
		<path class="st2" d="M627,152.8v-11.3c0-0.4,0.4-0.6,1.1-0.6h0.6c0.7,0,1.1,0.2,1.1,0.6v9.7h4c0.4,0,0.5,0.3,0.5,0.9v0.6
			c0,0.6-0.2,0.9-0.5,0.9h-6.1c-0.4,0-0.7-0.2-0.7-0.6C627,152.9,627,152.8,627,152.8z"/>
		<path class="st2" d="M636.4,152.8v-11.2c0-0.4,0.2-0.7,0.5-0.7c0.1,0,0.1,0,0.2,0h6.6c0.4,0,0.5,0.3,0.5,0.9v0.6
			c0,0.6-0.2,0.9-0.5,0.9h-4.5v2.6h4c0.4,0,0.5,0.3,0.5,0.9v0.6c0,0.6-0.2,0.9-0.5,0.9h-4v2.9h4.5c0.4,0,0.5,0.3,0.5,0.9v0.6
			c0,0.6-0.2,0.9-0.5,0.9h-6.6c-0.4,0-0.7-0.2-0.7-0.5C636.4,152.9,636.4,152.9,636.4,152.8z M639.6,139.6c-0.4,0-0.6-0.1-0.6-0.3
			c0-0.2,0.1-0.4,0.3-0.6c0.2-0.3,0.3-0.5,0.5-0.8s0.3-0.5,0.4-0.8s0.7-0.5,1.4-0.5s1.2,0.1,1.2,0.2c0,0.1,0,0.2-0.1,0.2
			c-0.1,0.2-0.3,0.3-0.4,0.5l-0.5,0.5c-0.1,0.1-0.2,0.2-0.4,0.4l-0.5,0.6C640.6,139.5,640.1,139.6,639.6,139.6z"/>
		<path class="st2" d="M646.1,152.1c0-0.4,0.2-0.7,0.4-1c0.3-0.4,0.5-0.6,0.7-0.6c0.2,0,0.3,0.1,0.5,0.2c0.7,0.4,1.4,0.6,2.2,0.6
			c1.1,0,1.7-0.4,1.7-1.3c0-0.4-0.2-0.8-0.5-1c-0.4-0.3-0.8-0.5-1.3-0.7c-0.5-0.2-1-0.4-1.5-0.7c-0.5-0.3-1-0.7-1.3-1.2
			c-0.4-0.6-0.6-1.3-0.5-2c0-0.7,0.2-1.5,0.7-2.1c0.9-1.1,2.2-1.7,3.6-1.6c0.8,0,1.6,0.1,2.3,0.4c0.6,0.3,0.9,0.6,0.9,0.9
			c0,0.4-0.1,0.7-0.3,1c-0.2,0.4-0.5,0.6-0.7,0.6c-0.1,0-0.2-0.1-0.3-0.1c-0.5-0.2-1.1-0.3-1.7-0.3c-0.5,0-0.9,0.1-1.3,0.3
			c-0.2,0.2-0.4,0.5-0.4,0.8c0,0.4,0.2,0.7,0.5,0.9c0.4,0.3,0.8,0.5,1.3,0.7c0.5,0.2,1,0.4,1.5,0.7c0.5,0.3,1,0.7,1.3,1.2
			c0.4,0.6,0.6,1.2,0.5,1.9c0,0.7-0.1,1.3-0.3,1.9c-0.2,0.5-0.6,0.9-1,1.2c-0.9,0.6-1.9,0.9-2.9,0.9c-1,0-2-0.1-2.9-0.5
			C646.5,152.8,646.1,152.4,646.1,152.1z"/>
		<path class="st2" d="M853.2,152.8v-11.2c0-0.4,0.2-0.7,0.5-0.7c0.1,0,0.1,0,0.2,0h6.6c0.4,0,0.5,0.3,0.5,0.9v0.6
			c0,0.6-0.2,0.9-0.5,0.9H856v2.6h4c0.4,0,0.5,0.3,0.5,0.9v0.6c0,0.6-0.2,0.9-0.5,0.9h-4v2.9h4.6c0.4,0,0.5,0.3,0.5,0.9v0.6
			c0,0.6-0.2,0.9-0.5,0.9H854c-0.3,0.1-0.7-0.2-0.8-0.5C853.2,152.9,853.2,152.9,853.2,152.8z M856.5,139.6c-0.4,0-0.6-0.1-0.6-0.3
			c0-0.2,0.1-0.4,0.3-0.6c0.2-0.3,0.3-0.5,0.5-0.8l0.4-0.8c0.2-0.3,0.7-0.5,1.4-0.5c0.8,0,1.2,0.1,1.2,0.2c0,0.1,0,0.2-0.1,0.2
			c-0.1,0.2-0.3,0.3-0.4,0.5l-0.5,0.5l-0.4,0.4l-0.5,0.6C857.4,139.5,856.9,139.6,856.5,139.6z"/>
		<path class="st2" d="M862.6,141.3c0-0.3,0.4-0.4,1.1-0.4h0.6c0.6,0,1,0.2,1.1,0.5l2.6,8.4h0.1l2.7-8.4c0.1-0.4,0.5-0.5,1.1-0.5
			h0.6c0.7,0,1.1,0.1,1.1,0.4c0,0.1,0,0.2,0,0.3l-3.9,11.6c-0.1,0.2-0.4,0.4-1,0.4h-0.9c-0.6,0-0.9-0.1-1-0.4l-3.9-11.6
			C862.7,141.5,862.7,141.4,862.6,141.3z"/>
		<path class="st2" d="M875.6,152.8v-11.2c-0.1-0.3,0.2-0.7,0.5-0.7c0.1,0,0.1,0,0.2,0h6.6c0.4,0,0.5,0.3,0.5,0.9v0.6
			c0,0.6-0.2,0.9-0.5,0.9h-4.5v2.6h4c0.4,0,0.5,0.3,0.5,0.9v0.6c0,0.6-0.2,0.9-0.5,0.9h-4v2.9h4.5c0.4,0,0.5,0.3,0.5,0.9v0.6
			c0,0.6-0.2,0.9-0.5,0.9h-6.6c-0.3,0-0.7-0.2-0.7-0.5C875.6,152.9,875.6,152.9,875.6,152.8z M878.8,139.6c-0.4,0-0.6-0.1-0.6-0.3
			c0-0.2,0.1-0.4,0.3-0.6c0.2-0.3,0.3-0.5,0.5-0.8s0.3-0.5,0.4-0.8s0.7-0.5,1.4-0.5s1.2,0.1,1.2,0.2c0,0.1,0,0.2-0.1,0.2
			c-0.1,0.2-0.3,0.3-0.4,0.5l-0.5,0.5l-0.4,0.4l-0.5,0.6C879.8,139.5,879.3,139.6,878.8,139.6z"/>
		<path class="st2" d="M886.2,153v-11.5c0-0.4,0.4-0.6,1.1-0.6h0.8c0.5,0,0.9,0.1,1.2,0.5l4.7,7.3v-7.2c0-0.4,0.4-0.6,1.1-0.6h0.5
			c0.7,0,1.1,0.2,1.1,0.6V153c0,0.4-0.4,0.6-1.1,0.6h-0.7c-0.5,0.1-0.9-0.1-1.2-0.5l-4.8-7.4v7.3c0,0.4-0.4,0.6-1.1,0.6h-0.5
			C886.5,153.6,886.2,153.4,886.2,153z"/>
		<path class="st2" d="M899.8,152.8v-11.2c0-0.4,0.2-0.7,0.5-0.7c0.1,0,0.1,0,0.2,0h6.6c0.4,0,0.5,0.3,0.5,0.9v0.6
			c0,0.6-0.2,0.9-0.5,0.9h-4.5v2.6h4c0.4,0,0.5,0.3,0.5,0.9v0.6c0,0.6-0.2,0.9-0.5,0.9h-4v2.9h4.5c0.4,0,0.5,0.3,0.5,0.9v0.6
			c0,0.6-0.2,0.9-0.5,0.9h-6.6c-0.4,0-0.7-0.2-0.7-0.5C899.8,152.9,899.8,152.9,899.8,152.8z"/>
		<path class="st2" d="M910.4,153v-11.5c0-0.4,0.4-0.6,1.1-0.6h1c0.4-0.1,0.9,0.1,1.1,0.5l3.2,5.6l3.2-5.6c0.3-0.4,0.7-0.6,1.1-0.5
			h0.9c0.7,0,1.1,0.2,1.1,0.6V153c0,0.4-0.4,0.6-1.1,0.6h-0.5c-0.7,0-1.1-0.2-1.1-0.6v-7.4h-0.1l-2.6,4.7c-0.2,0.2-0.4,0.4-0.7,0.3
			h-0.5c-0.3,0-0.6-0.1-0.7-0.3l-2.6-4.7h-0.1v7.4c0,0.4-0.4,0.6-1.1,0.6h-0.5C910.7,153.6,910.4,153.4,910.4,153z"/>
		<path class="st2" d="M926.3,152.8v-11.2c0-0.4,0.2-0.7,0.5-0.7c0.1,0,0.1,0,0.2,0h6.6c0.4,0,0.5,0.3,0.5,0.9v0.6
			c0,0.6-0.2,0.9-0.5,0.9H929v2.6h4c0.4,0,0.5,0.3,0.5,0.9v0.6c0,0.6-0.2,0.9-0.5,0.9h-4v2.9h4.5c0.4,0,0.5,0.3,0.5,0.9v0.6
			c0,0.6-0.2,0.9-0.5,0.9H927c-0.3,0.1-0.7-0.2-0.7-0.5C926.3,152.9,926.3,152.9,926.3,152.8z"/>
		<path class="st2" d="M936.8,153v-11.5c0-0.4,0.4-0.6,1.1-0.6h0.8c0.5,0,0.9,0.1,1.2,0.5l4.7,7.3v-7.2c0-0.4,0.4-0.6,1.1-0.6h0.5
			c0.7,0,1.1,0.2,1.1,0.6V153c0,0.4-0.4,0.6-1.1,0.6h-0.7c-0.5,0.1-0.9-0.1-1.2-0.5l-4.8-7.4v7.3c0,0.4-0.4,0.6-1.1,0.6h-0.5
			C937.2,153.6,936.8,153.4,936.8,153z"/>
		<path class="st2" d="M952.8,153v-9.7h-2.9c-0.4,0-0.5-0.3-0.5-0.9v-0.6c0-0.6,0.2-0.9,0.5-0.9h8.5c0.4,0,0.5,0.3,0.5,0.9v0.6
			c0,0.6-0.2,0.9-0.5,0.9h-2.9v9.7c0,0.4-0.4,0.6-1.1,0.6h-0.6C953.1,153.6,952.8,153.4,952.8,153z"/>
		<path class="st2" d="M960.2,152.1c0-0.4,0.2-0.7,0.4-1c0.3-0.4,0.5-0.6,0.7-0.6c0.2,0,0.3,0.1,0.5,0.2c0.7,0.4,1.4,0.6,2.2,0.6
			c1.1,0,1.7-0.4,1.7-1.3c0-0.4-0.2-0.8-0.5-1c-0.4-0.3-0.8-0.5-1.3-0.7c-0.5-0.2-1-0.4-1.5-0.7c-0.5-0.3-1-0.7-1.3-1.2
			c-0.4-0.6-0.6-1.3-0.5-2c0-0.7,0.2-1.5,0.7-2.1c0.9-1.1,2.2-1.7,3.6-1.6c0.8,0,1.6,0.1,2.3,0.4c0.6,0.3,0.9,0.6,0.9,0.9
			c0,0.4-0.1,0.7-0.3,1c-0.2,0.4-0.5,0.6-0.7,0.6c-0.1,0-0.2-0.1-0.3-0.1c-0.5-0.2-1.1-0.3-1.7-0.3c-0.5,0-0.9,0.1-1.3,0.3
			c-0.2,0.2-0.4,0.5-0.4,0.8c0,0.4,0.2,0.7,0.5,0.9c0.4,0.3,0.8,0.5,1.3,0.7c0.5,0.2,1,0.4,1.5,0.7c0.5,0.3,1,0.7,1.3,1.2
			c0.4,0.6,0.6,1.2,0.5,1.9c0,0.7-0.1,1.3-0.3,1.9c-0.2,0.5-0.6,0.9-1,1.2c-0.9,0.6-1.9,0.9-2.9,0.9c-1,0-2-0.1-2.9-0.5
			C960.6,152.8,960.2,152.4,960.2,152.1z"/>
		<path class="st1" d="M509.9,304.2c0.1-0.7,0.3-1.4,0.8-1.9c0.5-0.7,1-1.1,1.3-1.1c0,0,1.1,0.3,3.2,1c1.8,0.6,3.8,1,5.7,1
			c1.5,0,3-0.2,4.4-0.7c1.3-0.5,2.5-1.5,3.3-2.6c1-1.5,1.5-3.2,1.4-5c0-2.9-0.8-4.9-2.4-6.1c-1.6-1.2-3.8-1.8-6.7-1.8h-2
			c-0.8,0-1.2-0.6-1.2-1.8v-0.7c0-1.2,0.4-1.8,1.2-1.8h1.7c2.8,0,4.8-0.9,6-2.6c1.2-1.4,1.8-3.2,1.9-5.1c0-1.6-0.6-3.1-1.7-4.3
			c-1.1-1.2-2.9-1.7-5.5-1.7c-2.5,0-5,0.5-7.3,1.5c-0.4,0.3-0.9,0.4-1.3,0.5c-0.3,0-0.7-0.4-1.2-1.2c-0.4-0.6-0.7-1.2-0.8-1.9
			c0-0.8,1.3-1.6,3.8-2.3c2.3-0.6,4.6-1,7-1c3.7,0,6.6,0.9,8.8,2.6c2.2,1.8,3.3,4.4,3.4,7.9c0.1,1.9-0.6,3.7-1.7,5.1
			c-1.2,1.4-2.7,2.6-4.4,3.2v0.2c2.1,0.6,4,1.9,5.3,3.7c1.5,1.9,2.4,4.3,2.3,6.8c0.1,2.2-0.3,4.4-1.2,6.4c-0.7,1.6-1.8,3-3.2,4
			c-2.6,1.9-5.7,2.8-8.9,2.8c-2.9,0.1-5.7-0.2-8.5-1C511.1,305.8,509.9,305,509.9,304.2z"/>
		<path class="st1" d="M542,304c0.1-0.7,0.3-1.4,0.8-1.9c0.5-0.7,1-1.1,1.3-1.1c0,0,1.1,0.3,3.2,1c1.8,0.6,3.8,1,5.7,1
			c1.5,0,3-0.2,4.4-0.7c1.3-0.5,2.5-1.5,3.3-2.6c1-1.5,1.5-3.2,1.4-5c0-2.9-0.8-4.9-2.4-6.1s-3.8-1.8-6.7-1.7h-2
			c-0.8,0-1.2-0.6-1.2-1.8v-0.7c0-1.2,0.4-1.8,1.2-1.8h1.7c2.8,0,4.8-0.9,6-2.6c1.2-1.4,1.8-3.2,1.9-5.1c0-1.6-0.6-3.1-1.7-4.3
			c-1.1-1.2-2.9-1.8-5.5-1.7c-2.5,0-5,0.5-7.3,1.5c-0.4,0.3-0.9,0.4-1.3,0.5c-0.3,0-0.7-0.4-1.2-1.2c-0.4-0.6-0.7-1.2-0.8-1.9
			c0-0.8,1.3-1.6,3.8-2.3c2.3-0.6,4.6-1,7-1c3.2-0.2,6.3,0.7,8.8,2.6c2.2,1.8,3.3,4.4,3.4,7.9c0.1,1.9-0.6,3.7-1.7,5.1
			c-1.1,1.4-2.7,2.6-4.4,3.2v0.2c2.1,0.6,4,1.8,5.3,3.6c1.5,1.9,2.3,4.3,2.3,6.8c0.1,2.2-0.3,4.4-1.2,6.4c-0.7,1.6-1.8,3-3.2,4
			c-2.6,1.9-5.7,2.8-8.9,2.8c-2.9,0.1-5.7-0.2-8.5-1C543.2,305.5,542,304.8,542,304z"/>
		<path class="st1" d="M574,304.9v-0.7c0-1.2,0.4-1.8,1.2-1.8l10.4-0.1l-0.3-32.3l-10.6,1.9c-0.4,0-0.7-0.3-0.9-1
			c-0.2-0.6-0.3-1.3-0.3-2c0-0.6,0.5-1.1,1.1-1.2l13.9-3.2c0.5,0,0.9,0.1,1.3,0.4c0.3,0.2,0.6,0.5,0.6,0.9l0.3,36.5l8.9-0.1
			c0.8,0,1.2,0.6,1.2,1.8v0.7c0,1.2-0.4,1.8-1.2,1.8l-24.4,0.2C574.4,306.7,574,306.1,574,304.9z"/>
		<path class="st1" d="M825.4,306.8c-0.2-0.5-0.4-1.1-0.4-1.7c-0.1-0.4,0-0.8,0.2-1.1l9.2-11.7c4.4-5.6,7.2-9.3,8.4-11.1
			c1.1-1.6,1.7-3.6,1.7-5.5c0.1-1.7-0.7-3.4-2-4.5c-1.4-1.1-3.2-1.7-5-1.6c-1.7,0-3.4,0.3-4.9,0.8c-1.1,0.4-2.1,0.9-3.1,1.5
			c-0.4,0.4-0.9,0.6-1.5,0.8c-0.2,0-0.6-0.4-1.1-1.2c-0.4-0.5-0.7-1.2-0.8-1.8c0-1.2,1.3-2.2,3.8-3.1c2.2-0.8,4.6-1.3,7-1.4
			c3.9,0,7,0.8,9.4,2.6c2.3,1.8,3.6,4.5,3.5,7.4c0,1.9-0.3,3.8-1.1,5.5c-0.9,2-2,3.8-3.4,5.6c-1.5,2-4.6,5.9-9.1,11.6l-4.3,5.4
			l17.3-0.1c0.8,0,1.2,0.6,1.2,1.8v0.7c0,1.2-0.4,1.8-1.2,1.8l-22.9,0.2C825.9,307.6,825.6,307.4,825.4,306.8z"/>
		<path class="st1" d="M857.3,302.8c0-1.3,0.8-1.9,2.4-1.9h0.5c1.6,0,2.4,0.5,2.4,1.6c0.1,2.9-0.6,5.8-2.1,8.3
			c-1.4,2.3-2.7,3.5-3.9,3.5c-1.2,0-1.8-0.3-1.8-0.9c0.1-0.5,0.3-1,0.5-1.4C856.7,309.1,857.4,306,857.3,302.8z"/>
		<path class="st1" d="M868.5,305.5v-0.7c0-1.2,0.4-1.8,1.2-1.8l10.4-0.1l-0.3-32.3l-10.6,1.9c-0.4,0-0.7-0.3-0.9-1
			c-0.2-0.6-0.3-1.3-0.3-1.9c0-0.6,0.5-1.2,1.1-1.2L883,265c0.5,0,0.9,0.1,1.3,0.4c0.3,0.2,0.6,0.5,0.6,0.9l0.3,36.5l8.9-0.1
			c0.8,0,1.2,0.6,1.2,1.8v0.7c0,1.2-0.4,1.8-1.2,1.8l-24.4,0.2C868.9,307.2,868.5,306.6,868.5,305.5z"/>
		<path class="st1" d="M917.8,305.6l-0.4-39.6c0-0.9,0.8-1.3,2.4-1.3h2.2c1-0.1,1.9,0.3,2.5,1l11.5,19.6l1.6,3.8l1.5-3.4l11.2-20.1
			c0.6-0.8,1.5-1.2,2.5-1.1h2c1.6,0,2.4,0.4,2.4,1.3l0.3,39.6c0,0.9-0.8,1.3-2.4,1.3h-0.4c-1.6,0-2.4-0.4-2.4-1.3l-0.3-32.3
			l-11.9,21.1c-0.2,0.5-0.8,0.8-1.3,0.8h-2.4c-0.6,0-1.1-0.3-1.3-0.8l-12.4-21.2l0.3,32.6c0,0.9-0.8,1.3-2.4,1.3h-0.4
			C918.6,306.9,917.8,306.5,917.8,305.6z"/>
		<path class="st1" d="M964.1,292.3c-0.8,0-1.2-0.6-1.2-1.8V290c0-1.2,0.4-1.8,1.2-1.8h2.9c0-0.6-0.1-1.5-0.1-2.8c0-1.3,0-2.2,0-2.8
			H964c-0.8,0-1.2-0.6-1.2-1.8v-0.4c0-1.2,0.4-1.8,1.2-1.8h3.4c0.8-4.8,2.6-8.5,5.6-10.9c3.3-2.6,7.3-3.9,11.5-3.8
			c2.4,0,4.8,0.4,7.1,1.2c2.1,0.8,3.2,1.6,3.2,2.5c-0.1,0.7-0.3,1.4-0.7,2c-0.5,0.8-0.9,1.2-1.3,1.2c-0.4-0.2-0.8-0.4-1.2-0.6
			c-0.9-0.5-2-1-3-1.3c-1.4-0.4-2.8-0.7-4.2-0.6c-2.8-0.1-5.6,0.8-7.8,2.5c-1.9,1.6-3.2,4.3-3.9,7.9l16.7-0.1c0.8,0,1.2,0.6,1.2,1.8
			v0.4c0,1.2-0.4,1.8-1.2,1.8l-17.2,0.1c0,0.6,0,1.5,0,2.8s0,2.2,0.1,2.8l17.2-0.2c0.8,0,1.2,0.6,1.2,1.8v0.4c0,1.2-0.4,1.8-1.2,1.8
			l-16.7,0.1c0.7,3.5,2.1,6,4.1,7.7c2.1,1.7,4.7,2.5,7.3,2.4c1.6,0,3.2-0.3,4.7-0.8c1.2-0.4,2.4-0.9,3.5-1.5
			c0.4-0.3,0.9-0.5,1.4-0.8c0.4,0,0.8,0.4,1.3,1.2c0.4,0.5,0.7,1.1,0.8,1.8c0,0.9-1.1,1.9-3.4,2.9c-2.5,1-5.1,1.6-7.8,1.5
			c-10,0.1-15.8-4.7-17.4-14.4L964.1,292.3z"/>
		<path class="st2" d="M438.2,337.2c0-4.3,2-6.4,6-6.4c0.9,0,1.7,0.1,2.5,0.4c0.8,0.2,1.2,0.5,1.2,0.9c-0.1,0.4-0.2,0.7-0.4,1
			c-0.3,0.4-0.5,0.6-0.8,0.6c-0.1,0-0.3-0.1-0.4-0.1c-0.7-0.3-1.5-0.4-2.3-0.4c-2.1,0-3.1,1.4-3.1,4.1c0,2.7,1,4.1,3.1,4.1
			c0.9,0,1.7-0.2,2.5-0.5c0.1-0.1,0.3-0.1,0.5-0.2c0.2,0,0.5,0.2,0.7,0.6c0.2,0.3,0.3,0.6,0.3,0.9c0,0.5-0.4,0.9-1.3,1.1
			c-0.9,0.3-1.8,0.4-2.7,0.4c-1.6,0.1-3.3-0.4-4.5-1.6C438.7,341,438.2,339.4,438.2,337.2z"/>
		<path class="st2" d="M451.5,342c-2-2.9-2-6.7,0-9.6c1.1-1.2,2.7-1.8,4.3-1.7c1.6-0.1,3.2,0.5,4.3,1.7c2,2.9,2,6.7,0,9.6
			c-1.1,1.2-2.7,1.8-4.3,1.7C454.2,343.8,452.6,343.2,451.5,342z M453.6,340.3c0.5,0.7,1.3,1.1,2.2,1c0.9,0.1,1.7-0.3,2.2-1
			c1-1.9,1-4.2,0-6.1c-0.5-0.7-1.3-1.1-2.2-1c-0.9-0.1-1.7,0.3-2.2,1C452.6,336.1,452.6,338.4,453.6,340.3z"/>
		<path class="st2" d="M464.4,343v-11.4c0-0.4,0.2-0.7,0.5-0.7c0.1,0,0.1,0,0.2,0h3.8c1.2-0.1,2.3,0.3,3.3,1
			c0.3,0.3,0.6,0.7,0.7,1.2c0.2,0.6,0.3,1.1,0.3,1.7c0,0.6-0.1,1.2-0.3,1.7c-0.2,0.4-0.5,0.8-0.8,1.1c-0.3,0.3-0.7,0.5-1.1,0.7
			c-0.6,0.3-1.2,0.4-1.9,0.4h-1.9v4.2c0,0.4-0.4,0.6-1.1,0.6h-0.6C464.7,343.6,464.4,343.4,464.4,343z M467.1,336.5h1.6
			c0.4,0,0.8-0.1,1.1-0.3c0.6-0.7,0.6-1.8,0-2.5c-0.3-0.2-0.7-0.4-1.1-0.4h-1.6V336.5z"/>
		<path class="st2" d="M475.3,343v-11.4c0-0.4,0.2-0.7,0.5-0.7c0.1,0,0.1,0,0.2,0h3.5c3,0,4.5,1.1,4.5,3.4c0,0.6-0.2,1.3-0.6,1.8
			c-0.4,0.5-0.9,0.9-1.5,1.1v0.1c0.3,0.1,0.5,0.3,0.7,0.6c0.2,0.3,0.4,0.7,0.6,1l1.6,4c0,0.1,0.1,0.2,0.1,0.4c0,0.2-0.4,0.4-1.1,0.4
			h-0.7c-0.6,0-1-0.1-1-0.4l-1.4-3.5c-0.3-0.8-1-1.2-1.8-1.1h-0.7v4.4c0,0.4-0.4,0.6-1.1,0.6h-0.6
			C475.7,343.6,475.3,343.4,475.3,343z M478.1,336.2h1.7c0.4,0,0.8-0.2,1-0.5c0.3-0.3,0.4-0.7,0.4-1.1c0-0.4-0.1-0.7-0.4-1
			c-0.3-0.3-0.7-0.4-1.1-0.4h-1.6L478.1,336.2z"/>
		<path class="st2" d="M488.1,342c-2-2.9-2-6.7,0-9.6c2.4-2.2,6.1-2.2,8.6,0c2,2.9,2,6.7,0,9.6C494.2,344.2,490.5,344.2,488.1,342z
			 M490.2,340.3c1,1.2,2.7,1.4,3.9,0.4c0.2-0.1,0.3-0.3,0.4-0.4c1-1.9,1-4.2,0-6.1c-1-1.2-2.7-1.4-3.9-0.4c-0.2,0.1-0.3,0.3-0.4,0.4
			C489.2,336.1,489.2,338.4,490.2,340.3z"/>
		<path class="st2" d="M500.9,343v-11.4c-0.1-0.3,0.2-0.7,0.5-0.7c0.1,0,0.1,0,0.2,0h3.8c1.2-0.1,2.3,0.3,3.2,1
			c0.3,0.3,0.6,0.7,0.7,1.2c0.2,0.6,0.3,1.1,0.3,1.7c0,0.6-0.1,1.2-0.3,1.7c-0.2,0.4-0.5,0.8-0.8,1.1c-0.3,0.3-0.7,0.5-1.1,0.7
			c-0.6,0.3-1.2,0.4-1.9,0.4h-1.9v4.2c0,0.4-0.4,0.6-1.1,0.6H502C501.3,343.6,500.9,343.4,500.9,343z M503.7,336.5h1.6
			c0.4,0,0.8-0.1,1.1-0.3c0.6-0.7,0.6-1.8,0-2.5c-0.3-0.2-0.7-0.4-1.1-0.4h-1.6V336.5z"/>
		<path class="st2" d="M511.9,343v-11.4c0-0.4,0.2-0.7,0.5-0.7c0.1,0,0.1,0,0.2,0h3.5c3,0,4.5,1.1,4.5,3.4c0,0.6-0.2,1.3-0.6,1.8
			c-0.4,0.5-0.9,0.9-1.5,1.1v0.1c0.3,0.1,0.5,0.3,0.7,0.6c0.2,0.3,0.4,0.7,0.6,1l1.6,4c0,0.1,0.1,0.2,0.1,0.4c0,0.2-0.4,0.4-1.1,0.4
			h-0.7c-0.6,0-1-0.1-1-0.4l-1.4-3.5c-0.2-0.3-0.4-0.6-0.7-0.8c-0.4-0.2-0.8-0.3-1.2-0.2h-0.7v4.4c0,0.4-0.4,0.6-1.1,0.6H513
			C512.2,343.6,511.9,343.4,511.9,343z M514.7,336.2h1.7c0.4,0,0.8-0.2,1-0.5c0.3-0.3,0.4-0.7,0.4-1.1c0-0.4-0.1-0.7-0.4-1
			c-0.3-0.3-0.7-0.4-1.1-0.4h-1.6L514.7,336.2z"/>
		<path class="st2" d="M523.5,343v-11.5c0-0.4,0.4-0.6,1.1-0.6h0.6c0.7,0,1.1,0.2,1.1,0.6V343c0,0.4-0.4,0.6-1.1,0.6h-0.6
			C523.8,343.6,523.5,343.4,523.5,343z"/>
		<path class="st2" d="M529.4,342.8v-11.2c0-0.4,0.2-0.7,0.5-0.7c0.1,0,0.1,0,0.2,0h6.6c0.4,0,0.5,0.3,0.5,0.9v0.6
			c0,0.6-0.2,0.9-0.5,0.9h-4.5v2.6h4c0.4,0,0.5,0.3,0.5,0.9v0.6c0,0.6-0.2,0.9-0.5,0.9h-4v2.9h4.6c0.4,0,0.5,0.3,0.5,0.9v0.6
			c0,0.6-0.2,0.9-0.5,0.9h-6.6c-0.4,0-0.7-0.2-0.7-0.5C529.4,342.9,529.4,342.9,529.4,342.8z M532.6,329.6c-0.4,0-0.5-0.1-0.5-0.3
			c0-0.2,0.1-0.4,0.3-0.6c0.2-0.3,0.3-0.5,0.5-0.8l0.4-0.8c0.2-0.3,0.7-0.5,1.4-0.5c0.8,0,1.2,0.1,1.2,0.2c0,0.1,0,0.2-0.1,0.2
			c-0.1,0.2-0.3,0.3-0.4,0.5l-0.5,0.5l-0.4,0.4l-0.5,0.5C533.6,329.5,533.1,329.6,532.6,329.6L532.6,329.6z"/>
		<path class="st2" d="M542.2,343v-9.7h-2.9c-0.4,0-0.5-0.3-0.5-0.9v-0.6c0-0.6,0.2-0.9,0.5-0.9h8.5c0.4,0,0.5,0.3,0.5,0.9v0.6
			c0,0.6-0.2,0.9-0.5,0.9H545v9.7c0,0.4-0.4,0.6-1.1,0.6h-0.6C542.6,343.6,542.2,343.4,542.2,343z"/>
		<path class="st2" d="M550.5,342.8v-11.2c0-0.4,0.2-0.7,0.5-0.7c0.1,0,0.1,0,0.2,0h6.6c0.4,0,0.5,0.3,0.5,0.9v0.6
			c0,0.6-0.2,0.9-0.5,0.9h-4.5v2.6h4c0.4,0,0.5,0.3,0.5,0.9v0.6c0,0.6-0.2,0.9-0.5,0.9h-4v2.9h4.6c0.4,0,0.5,0.3,0.5,0.9v0.6
			c0,0.6-0.2,0.9-0.5,0.9h-6.6c-0.4,0-0.7-0.2-0.7-0.5C550.5,342.9,550.5,342.9,550.5,342.8z M553.7,329.6c-0.4,0-0.5-0.1-0.5-0.3
			c0-0.2,0.1-0.4,0.3-0.6c0.2-0.3,0.3-0.5,0.5-0.8l0.4-0.8c0.2-0.3,0.7-0.5,1.4-0.5c0.8,0,1.2,0.1,1.2,0.2c0,0.1,0,0.2-0.1,0.2
			c-0.1,0.2-0.3,0.3-0.4,0.5l-0.5,0.5l-0.4,0.4l-0.5,0.5C554.7,329.5,554.2,329.6,553.7,329.6L553.7,329.6z"/>
		<path class="st2" d="M560.2,342.1c0-0.4,0.2-0.7,0.4-1c0.3-0.4,0.5-0.6,0.7-0.6c0.2,0,0.3,0.1,0.5,0.2c0.7,0.4,1.4,0.6,2.2,0.6
			c1.1,0,1.7-0.4,1.7-1.3c0-0.4-0.2-0.8-0.5-1c-0.4-0.3-0.8-0.5-1.3-0.7c-0.5-0.2-1-0.4-1.5-0.7c-0.5-0.3-1-0.7-1.3-1.2
			c-0.4-0.6-0.6-1.3-0.5-2c0-0.7,0.2-1.5,0.7-2.1c0.9-1.1,2.2-1.7,3.6-1.6c0.8,0,1.6,0.1,2.3,0.4c0.6,0.3,0.9,0.5,0.9,0.9
			c0,0.4-0.1,0.7-0.3,1c-0.2,0.4-0.5,0.6-0.7,0.6c-0.1,0-0.2-0.1-0.3-0.1c-0.5-0.2-1.1-0.3-1.7-0.3c-0.5,0-0.9,0.1-1.3,0.3
			c-0.2,0.2-0.4,0.5-0.4,0.8c0,0.4,0.2,0.7,0.5,0.9c0.4,0.3,0.8,0.5,1.3,0.7c0.5,0.2,1,0.4,1.5,0.7c0.5,0.3,1,0.7,1.3,1.2
			c0.4,0.6,0.6,1.2,0.5,1.9c0,0.7-0.1,1.3-0.3,1.9c-0.2,0.5-0.6,0.9-1,1.2c-0.9,0.6-1.9,0.9-2.9,0.9c-1,0-2-0.1-2.9-0.5
			C560.6,342.8,560.2,342.4,560.2,342.1z"/>
		<path class="st2" d="M575.8,342.8v-11.3c0-0.4,0.4-0.6,1.1-0.6h0.6c0.7,0,1.1,0.2,1.1,0.6v9.7h4c0.4,0,0.5,0.3,0.5,0.9v0.6
			c0,0.6-0.2,0.9-0.5,0.9h-6.1c-0.4,0-0.7-0.2-0.7-0.6C575.8,342.9,575.8,342.9,575.8,342.8z"/>
		<path class="st2" d="M584,343.2c0-0.1,0-0.2,0.1-0.3l4-11.6c0.1-0.2,0.4-0.4,1-0.4h0.9c0.6,0,0.9,0.1,1,0.4l4,11.6
			c0,0.1,0,0.2,0,0.3c0,0.3-0.3,0.4-0.9,0.4h-0.8c-0.6,0-0.9-0.1-1-0.4l-0.7-2.2h-4.2l-0.7,2.2c-0.1,0.2-0.4,0.4-0.8,0.4h-0.7
			C584.4,343.6,584,343.4,584,343.2z M588.1,338.6h2.7l-1-3.2l-0.3-1.1h-0.1c-0.1,0.4-0.2,0.8-0.3,1.1L588.1,338.6z"/>
		<path class="st2" d="M597,339.3v-7.9c0-0.4,0.4-0.6,1.1-0.6h0.6c0.7,0,1.1,0.2,1.1,0.6v7.7c0,0.6,0.2,1.2,0.7,1.6
			c1,0.8,2.5,0.8,3.5,0c0.5-0.4,0.7-1,0.7-1.6v-7.7c0-0.4,0.3-0.6,1.1-0.6h0.6c0.7,0,1.1,0.2,1.1,0.6v7.9c0.1,1.2-0.4,2.4-1.4,3.2
			c-2.3,1.5-5.4,1.5-7.7,0C597.4,341.7,596.9,340.5,597,339.3z"/>
		<path class="st2" d="M610.6,343v-11.4c0-0.4,0.2-0.7,0.5-0.7c0.1,0,0.1,0,0.2,0h3.5c3,0,4.5,1.1,4.5,3.4c0,0.6-0.2,1.3-0.6,1.8
			c-0.4,0.5-0.9,0.9-1.5,1.1v0.1c0.3,0.1,0.5,0.3,0.7,0.6c0.2,0.3,0.4,0.7,0.6,1l1.6,4c0.1,0.1,0.1,0.2,0.1,0.4
			c0,0.2-0.3,0.4-1.1,0.4h-0.7c-0.6,0-1-0.1-1-0.4l-1.4-3.5c-0.3-0.8-1-1.2-1.8-1.1h-0.7v4.4c0,0.4-0.4,0.6-1.1,0.6h-0.6
			C610.9,343.6,610.6,343.4,610.6,343z M613.3,336.2h1.7c0.4,0,0.8-0.2,1-0.5c0.3-0.3,0.4-0.7,0.4-1.1c0-0.4-0.1-0.7-0.4-1
			c-0.3-0.3-0.7-0.4-1.1-0.4h-1.6L613.3,336.2z"/>
		<path class="st2" d="M622.3,342.8v-11.2c0-0.4,0.2-0.7,0.5-0.7c0.1,0,0.1,0,0.2,0h6.6c0.4,0,0.5,0.3,0.5,0.9v0.6
			c0,0.6-0.2,0.9-0.5,0.9H625v2.6h4c0.4,0,0.5,0.3,0.5,0.9v0.6c0,0.6-0.2,0.9-0.5,0.9h-4v2.9h4.5c0.4,0,0.5,0.3,0.5,0.9v0.6
			c0,0.6-0.2,0.9-0.5,0.9H623c-0.3,0.1-0.7-0.2-0.7-0.5C622.3,342.9,622.3,342.9,622.3,342.8z M625.5,329.6c-0.4,0-0.5-0.1-0.5-0.3
			c0-0.2,0.1-0.4,0.3-0.6c0.2-0.3,0.3-0.5,0.5-0.8l0.4-0.8c0.2-0.3,0.7-0.5,1.4-0.5s1.2,0.1,1.2,0.2c0,0.1,0,0.2-0.1,0.2
			c-0.1,0.1-0.2,0.3-0.4,0.5l-0.5,0.5l-0.4,0.4l-0.5,0.5C626.4,329.5,626,329.6,625.5,329.6L625.5,329.6z"/>
		<path class="st2" d="M631.6,343.2c0-0.1,0-0.2,0.1-0.3l4-11.6c0.1-0.2,0.4-0.4,1-0.4h0.9c0.6,0,0.9,0.1,1,0.4l4,11.6
			c0,0.1,0.1,0.2,0.1,0.3c0,0.3-0.3,0.4-0.9,0.4H641c-0.6,0-0.9-0.1-1-0.4l-0.7-2.2H635l-0.7,2.2c-0.1,0.2-0.4,0.4-0.8,0.4h-0.7
			C631.9,343.6,631.6,343.4,631.6,343.2z M635.7,338.6h2.7l-1-3.2l-0.3-1.1H637c-0.1,0.4-0.2,0.8-0.3,1.1L635.7,338.6z"/>
		<path class="st2" d="M646.9,343v-9.7H644c-0.4,0-0.5-0.3-0.5-0.9v-0.6c0-0.6,0.2-0.9,0.5-0.9h8.5c0.4,0,0.5,0.3,0.5,0.9v0.6
			c0,0.6-0.2,0.9-0.5,0.9h-2.9v9.7c0,0.4-0.4,0.6-1.1,0.6h-0.6C647.2,343.6,646.9,343.4,646.9,343z"/>
		<path class="st2" d="M655.2,342.8v-11.2c0-0.4,0.2-0.7,0.5-0.7c0.1,0,0.1,0,0.2,0h6.6c0.4,0,0.5,0.3,0.5,0.9v0.6
			c0,0.6-0.2,0.9-0.5,0.9h-4.5v2.6h4.1c0.4,0,0.5,0.3,0.5,0.9v0.6c0,0.6-0.2,0.9-0.5,0.9h-4v2.9h4.6c0.4,0,0.5,0.3,0.5,0.9v0.6
			c0,0.6-0.2,0.9-0.5,0.9h-6.6c-0.3,0.1-0.7-0.2-0.7-0.5C655.2,342.9,655.2,342.9,655.2,342.8z"/>
		<path class="st2" d="M664.9,342.1c0-0.4,0.2-0.7,0.4-1c0.3-0.4,0.5-0.6,0.7-0.6c0.2,0,0.3,0.1,0.5,0.2c0.7,0.4,1.4,0.6,2.2,0.6
			c1.1,0,1.7-0.4,1.7-1.3c0-0.4-0.2-0.8-0.5-1c-0.4-0.3-0.8-0.5-1.3-0.7c-0.5-0.2-1-0.4-1.5-0.7c-0.5-0.3-1-0.7-1.3-1.2
			c-0.4-0.6-0.6-1.3-0.5-2c0-0.7,0.2-1.5,0.6-2.1c0.9-1.1,2.2-1.7,3.6-1.6c0.8,0,1.6,0.1,2.3,0.4c0.6,0.3,0.9,0.5,0.9,0.9
			c0,0.4-0.1,0.7-0.3,1c-0.2,0.4-0.4,0.6-0.7,0.6c-0.1,0-0.2-0.1-0.3-0.1c-0.5-0.2-1.1-0.3-1.7-0.3c-0.5,0-0.9,0.1-1.3,0.3
			c-0.2,0.2-0.4,0.5-0.4,0.8c0,0.4,0.2,0.7,0.5,0.9c0.4,0.3,0.8,0.5,1.3,0.7c0.5,0.2,1,0.4,1.5,0.7c0.5,0.3,1,0.7,1.3,1.2
			c0.4,0.6,0.6,1.2,0.5,1.9c0,0.7-0.1,1.3-0.3,1.9c-0.2,0.5-0.6,0.9-1,1.2c-0.9,0.6-1.9,0.9-2.9,0.9c-1,0-2-0.1-2.9-0.5
			C665.2,342.8,664.9,342.4,664.9,342.1z"/>
		<path class="st2" d="M449.1,370.2c0-0.1,0-0.2,0.1-0.3l4-11.6c0.1-0.2,0.4-0.4,1-0.4h0.9c0.6,0,0.9,0.1,1,0.4l4,11.6
			c0,0.1,0,0.2,0,0.3c0,0.3-0.3,0.4-0.9,0.4h-0.8c-0.6,0-0.9-0.1-1-0.4l-0.7-2.2h-4.2l-0.7,2.2c-0.1,0.2-0.4,0.4-0.8,0.4h-0.7
			C449.4,370.6,449.1,370.4,449.1,370.2z M455.6,356.6c-0.5,0-1-0.2-1.4-0.5c-0.3-0.4-0.7-0.7-1-1.1s-0.6-0.6-0.7-0.7
			c-0.1-0.1-0.1-0.1-0.1-0.2c0-0.2,0.4-0.2,1.2-0.2s1.3,0.2,1.4,0.5l0.4,0.8c0.1,0.2,0.3,0.4,0.4,0.6l0.2,0.4
			c0.1,0.1,0.1,0.3,0.2,0.4C456.2,356.5,456,356.6,455.6,356.6z M453.2,365.6h2.7l-1-3.2l-0.3-1.1h-0.1c-0.1,0.4-0.2,0.8-0.3,1.1
			L453.2,365.6z"/>
		<path class="st2" d="M467.1,369.8v-11.2c0-0.4,0.2-0.7,0.5-0.7c0.1,0,0.1,0,0.2,0h6.6c0.4,0,0.5,0.3,0.5,0.9v0.6
			c0,0.6-0.2,0.9-0.5,0.9h-4.5v2.6h4c0.4,0,0.5,0.3,0.5,0.9v0.6c0,0.6-0.2,0.9-0.5,0.9h-4v2.9h4.6c0.4,0,0.5,0.3,0.5,0.9v0.6
			c0,0.6-0.2,0.9-0.5,0.9h-6.6c-0.4,0-0.7-0.2-0.7-0.5C467.1,369.9,467.1,369.9,467.1,369.8z"/>
		<path class="st2" d="M477.2,364.2c0-4.3,2-6.4,6-6.4c0.9,0,1.7,0.1,2.5,0.4c0.8,0.2,1.2,0.5,1.2,0.9c-0.1,0.4-0.2,0.7-0.4,1
			c-0.3,0.4-0.5,0.6-0.8,0.6c-0.1,0-0.3-0.1-0.4-0.1c-0.7-0.3-1.5-0.4-2.3-0.4c-2.1,0-3.1,1.4-3.1,4.1c0,2.7,1,4.1,3.1,4.1
			c0.9,0,1.7-0.2,2.5-0.5c0.1-0.1,0.3-0.1,0.5-0.2c0.2,0,0.5,0.2,0.7,0.6c0.2,0.3,0.3,0.6,0.3,0.9c0,0.5-0.4,0.9-1.3,1.1
			c-0.9,0.3-1.8,0.4-2.7,0.4c-1.6,0.1-3.3-0.4-4.5-1.6C477.7,368,477.2,366.4,477.2,364.2z"/>
		<path class="st2" d="M490.6,369c-2-2.9-2-6.7,0-9.6c1.1-1.2,2.7-1.8,4.3-1.7c1.6-0.1,3.2,0.5,4.3,1.7c2,2.9,2,6.7,0,9.6
			c-1.1,1.2-2.7,1.8-4.3,1.7C493.3,370.8,491.7,370.2,490.6,369z M492.7,367.3c1,1.2,2.7,1.4,3.9,0.4c0.2-0.1,0.3-0.3,0.4-0.4
			c1-1.9,1-4.2,0-6.1c-1-1.2-2.8-1.4-4-0.4c-0.1,0.1-0.3,0.3-0.4,0.4C491.7,363.1,491.7,365.4,492.7,367.3z"/>
		<path class="st2" d="M503.2,366.7c-0.4,0-0.5-0.3-0.5-0.9v-0.1c0-0.6,0.2-0.9,0.5-0.9h3.7c0.4,0,0.5,0.3,0.5,0.9v0.1
			c0,0.6-0.2,0.9-0.5,0.9H503.2z"/>
		<path class="st2" d="M509.9,370v-11.4c0-0.4,0.2-0.7,0.5-0.7c0.1,0,0.1,0,0.2,0h3.5c3,0,4.5,1.1,4.5,3.4c0,0.6-0.2,1.3-0.6,1.8
			c-0.4,0.5-0.9,0.9-1.5,1.1v0.1c0.3,0.1,0.5,0.3,0.7,0.6c0.2,0.3,0.4,0.7,0.6,1l1.6,4c0,0.1,0.1,0.2,0.1,0.4c0,0.2-0.4,0.4-1.1,0.4
			h-0.7c-0.6,0-1-0.1-1-0.4l-1.4-3.5c-0.3-0.8-1-1.2-1.8-1.1h-0.7v4.4c0,0.4-0.4,0.6-1.1,0.6H511C510.2,370.6,509.9,370.4,509.9,370
			z M512.6,363.2h1.7c0.4,0,0.8-0.2,1-0.5c0.3-0.3,0.4-0.7,0.4-1.1c0-0.4-0.1-0.7-0.4-1c-0.3-0.3-0.7-0.4-1.1-0.4h-1.6L512.6,363.2z
			"/>
		<path class="st2" d="M521.6,369.8v-11.2c0-0.4,0.2-0.7,0.5-0.7c0.1,0,0.1,0,0.2,0h6.6c0.4,0,0.5,0.3,0.5,0.9v0.6
			c0,0.6-0.2,0.9-0.5,0.9h-4.5v2.6h4c0.4,0,0.5,0.3,0.5,0.9v0.6c0,0.6-0.2,0.9-0.5,0.9h-4v2.9h4.5c0.4,0,0.5,0.3,0.5,0.9v0.6
			c0,0.6-0.2,0.9-0.5,0.9h-6.6c-0.4,0-0.7-0.2-0.7-0.5C521.6,369.9,521.6,369.9,521.6,369.8z M524.8,356.6c-0.4,0-0.6-0.1-0.6-0.3
			c0-0.2,0.1-0.4,0.3-0.6c0.2-0.3,0.3-0.5,0.5-0.8l0.4-0.8c0.2-0.3,0.7-0.5,1.4-0.5c0.8,0,1.2,0.1,1.2,0.2c0,0.1,0,0.2-0.1,0.2
			c-0.1,0.2-0.3,0.3-0.4,0.5l-0.5,0.5c-0.1,0.1-0.2,0.2-0.4,0.4l-0.5,0.5C525.8,356.5,525.3,356.6,524.8,356.6L524.8,356.6z"/>
		<path class="st2" d="M532.1,370v-11.5c0-0.4,0.4-0.6,1.1-0.6h0.8c0.5-0.1,0.9,0.1,1.2,0.5l4.7,7.3v-7.2c0-0.4,0.4-0.6,1.1-0.6h0.5
			c0.7,0,1.1,0.2,1.1,0.6V370c0,0.4-0.4,0.6-1.1,0.6h-0.7c-0.5,0.1-0.9-0.1-1.2-0.5l-4.8-7.4v7.3c0,0.4-0.4,0.6-1.1,0.6h-0.5
			C532.5,370.6,532.1,370.4,532.1,370z"/>
		<path class="st2" d="M546.8,369c-2-2.9-2-6.7,0-9.6c2.4-2.2,6.1-2.2,8.6,0c2,2.9,2,6.7,0,9.6C553,371.2,549.3,371.2,546.8,369z
			 M548.9,367.3c1,1.2,2.7,1.4,3.9,0.4c0.2-0.1,0.3-0.3,0.4-0.4c1-1.9,1-4.2,0-6.1c-1-1.2-2.7-1.4-3.9-0.4c-0.2,0.1-0.3,0.3-0.4,0.4
			C547.9,363.1,547.9,365.4,548.9,367.3z"/>
		<path class="st2" d="M558.5,358.3c0-0.3,0.4-0.4,1.1-0.4h0.6c0.6,0,1,0.2,1.1,0.5l2.6,8.4h0.1l2.7-8.4c0.1-0.4,0.5-0.5,1.1-0.5
			h0.6c0.7,0,1.1,0.1,1.1,0.4c0,0.1,0,0.2-0.1,0.3l-3.9,11.6c-0.1,0.2-0.4,0.4-1,0.4h-0.9c-0.6,0-0.9-0.1-1-0.4l-3.9-11.6
			C558.6,358.5,558.5,358.4,558.5,358.3z"/>
		<path class="st2" d="M572.5,369c-2-2.9-2-6.7,0-9.6c1.1-1.2,2.7-1.8,4.3-1.7c1.6-0.1,3.2,0.5,4.3,1.7c2,2.9,2,6.7,0,9.6
			c-1.1,1.2-2.7,1.8-4.3,1.7C575.2,370.8,573.7,370.2,572.5,369z M574.6,367.3c0.5,0.7,1.3,1.1,2.2,1c0.9,0.1,1.7-0.3,2.2-1
			c1-1.9,1-4.2,0-6.1c-0.5-0.7-1.3-1.1-2.2-1c-0.9-0.1-1.7,0.3-2.2,1C573.6,363.1,573.6,365.4,574.6,367.3z"/>
		<path class="st2" d="M585.4,370v-11.5c0-0.4,0.4-0.6,1.1-0.6h0.8c0.5-0.1,0.9,0.1,1.2,0.5l4.7,7.3v-7.2c0-0.4,0.4-0.6,1.1-0.6h0.5
			c0.7,0,1.1,0.2,1.1,0.6V370c0,0.4-0.4,0.6-1.1,0.6h-0.7c-0.5,0.1-0.9-0.1-1.2-0.5l-4.9-7.4v7.3c0,0.4-0.4,0.6-1.1,0.6h-0.5
			C585.7,370.6,585.4,370.4,585.4,370z"/>
		<path class="st2" d="M598.2,369.1c0-0.4,0.2-0.7,0.4-1c0.3-0.4,0.5-0.6,0.7-0.6c0.2,0,0.3,0.1,0.5,0.2c0.7,0.4,1.4,0.6,2.2,0.6
			c1.1,0,1.7-0.4,1.7-1.3c0-0.4-0.2-0.8-0.5-1c-0.4-0.3-0.8-0.5-1.3-0.7c-0.5-0.2-1-0.4-1.5-0.7c-0.5-0.3-1-0.7-1.3-1.2
			c-0.4-0.6-0.6-1.3-0.5-2c0-0.7,0.2-1.5,0.6-2.1c0.9-1.1,2.2-1.7,3.6-1.6c0.8,0,1.6,0.1,2.3,0.4c0.6,0.3,0.9,0.5,0.9,0.9
			c0,0.4-0.1,0.7-0.3,1c-0.2,0.4-0.4,0.6-0.7,0.6c-0.1,0-0.2-0.1-0.3-0.1c-0.5-0.2-1.1-0.3-1.7-0.3c-0.5,0-0.9,0.1-1.3,0.3
			c-0.2,0.2-0.4,0.5-0.4,0.8c0,0.4,0.2,0.7,0.5,0.9c0.4,0.3,0.8,0.5,1.3,0.7c0.5,0.2,1,0.4,1.5,0.7c0.5,0.3,1,0.7,1.3,1.2
			c0.4,0.6,0.6,1.2,0.5,1.9c0,0.7-0.1,1.3-0.3,1.9c-0.2,0.5-0.6,0.9-1,1.2c-0.9,0.6-1.9,0.9-2.9,0.9c-1,0-2-0.1-2.9-0.5
			C598.6,369.8,598.2,369.4,598.2,369.1z"/>
		<path class="st2" d="M613.8,370v-11.4c0-0.4,0.2-0.7,0.5-0.7c0.1,0,0.1,0,0.2,0h3.8c1.2-0.1,2.3,0.3,3.3,1
			c0.3,0.3,0.6,0.7,0.7,1.2c0.2,0.6,0.3,1.1,0.3,1.7c0,0.6-0.1,1.2-0.3,1.7c-0.2,0.4-0.5,0.8-0.8,1.1c-0.3,0.3-0.7,0.5-1.1,0.7
			c-0.6,0.3-1.2,0.4-1.8,0.4h-1.9v4.2c0,0.4-0.4,0.6-1.1,0.6h-0.6C614.1,370.6,613.8,370.4,613.8,370z M616.6,363.5h1.6
			c0.4,0,0.8-0.1,1.1-0.3c0.6-0.7,0.6-1.8,0-2.5c-0.3-0.2-0.7-0.4-1.1-0.4h-1.6V363.5z"/>
		<path class="st2" d="M623.5,370.2c0-0.1,0-0.2,0.1-0.3l4-11.6c0.1-0.2,0.4-0.4,1-0.4h0.9c0.6,0,0.9,0.1,1,0.4l4,11.6
			c0,0.1,0,0.2,0,0.3c0,0.3-0.3,0.4-0.9,0.4h-0.8c-0.6,0-0.9-0.1-1-0.4l-0.7-2.2h-4.2l-0.7,2.2c-0.1,0.2-0.4,0.4-0.8,0.4h-0.7
			C623.9,370.6,623.5,370.4,623.5,370.2z M627.7,365.6h2.7l-1-3.2l-0.3-1.1H629c-0.1,0.4-0.2,0.8-0.3,1.1L627.7,365.6z"/>
		<path class="st2" d="M636.5,370v-11.4c0-0.4,0.2-0.7,0.5-0.7c0.1,0,0.1,0,0.2,0h3.5c3,0,4.5,1.1,4.5,3.4c0,0.6-0.2,1.3-0.6,1.8
			c-0.4,0.5-0.9,0.9-1.5,1.1v0.1c0.3,0.1,0.5,0.3,0.7,0.6c0.2,0.3,0.4,0.7,0.6,1l1.6,4c0,0.1,0.1,0.2,0.1,0.4c0,0.2-0.4,0.4-1.1,0.4
			h-0.7c-0.6,0-1-0.1-1-0.4l-1.4-3.5c-0.2-0.3-0.4-0.6-0.7-0.8c-0.4-0.2-0.8-0.3-1.2-0.2h-0.7v4.4c0,0.4-0.4,0.6-1.1,0.6h-0.6
			C636.9,370.6,636.5,370.4,636.5,370z M639.3,363.2h1.7c0.4,0,0.8-0.2,1-0.5c0.3-0.3,0.4-0.7,0.4-1.1c0-0.4-0.1-0.7-0.4-1
			c-0.3-0.3-0.7-0.4-1.1-0.4h-1.6L639.3,363.2z"/>
		<path class="st2" d="M648.1,370v-11.5c0-0.4,0.4-0.6,1.1-0.6h0.6c0.7,0,1.1,0.2,1.1,0.6V370c0,0.4-0.4,0.6-1.1,0.6h-0.6
			C648.5,370.6,648.1,370.4,648.1,370z"/>
		<path class="st2" d="M653.2,369.1c0-0.4,0.2-0.7,0.4-1c0.3-0.4,0.5-0.6,0.7-0.6c0.2,0,0.3,0.1,0.5,0.2c0.7,0.4,1.4,0.6,2.2,0.6
			c1.1,0,1.7-0.4,1.7-1.3c0-0.4-0.2-0.8-0.5-1c-0.4-0.3-0.8-0.5-1.3-0.7c-0.5-0.2-1-0.4-1.5-0.7c-0.5-0.3-1-0.7-1.3-1.2
			c-0.4-0.6-0.6-1.3-0.5-2c0-0.7,0.2-1.5,0.6-2.1c0.9-1.1,2.2-1.7,3.6-1.6c0.8,0,1.6,0.1,2.3,0.4c0.6,0.3,0.9,0.5,0.9,0.9
			c0,0.4-0.1,0.7-0.3,1c-0.2,0.4-0.4,0.6-0.7,0.6c-0.1,0-0.2-0.1-0.3-0.1c-0.5-0.2-1.1-0.3-1.7-0.3c-0.5,0-0.9,0.1-1.3,0.3
			c-0.2,0.2-0.4,0.5-0.4,0.8c0,0.4,0.2,0.7,0.5,0.9c0.4,0.3,0.8,0.5,1.3,0.7c0.5,0.2,1,0.4,1.5,0.7c0.5,0.3,1,0.7,1.3,1.2
			c0.4,0.6,0.6,1.2,0.5,1.9c0,0.7-0.1,1.3-0.3,1.9c-0.2,0.5-0.6,0.9-1,1.2c-0.9,0.6-1.9,0.9-2.9,0.9c-1,0-2-0.1-2.9-0.5
			C653.5,369.8,653.2,369.4,653.2,369.1z"/>
		<path class="st2" d="M861.5,342.8v-11.2c0-0.4,0.2-0.7,0.5-0.7c0.1,0,0.1,0,0.2,0h4c1.6-0.1,3.2,0.5,4.3,1.6c2,2.8,2,6.5,0,9.3
			c-1.1,1.1-2.7,1.7-4.3,1.6h-4c-0.4,0-0.7-0.2-0.7-0.5C861.5,342.9,861.5,342.9,861.5,342.8z M864.3,341.2h2c0.8,0.1,1.7-0.3,2.2-1
			c1-1.8,1-4,0-5.9c-0.5-0.7-1.3-1.1-2.2-1h-2V341.2z"/>
		<path class="st2" d="M874.8,342.8v-11.2c0-0.4,0.2-0.7,0.5-0.7c0.1,0,0.1,0,0.2,0h6.6c0.4,0,0.5,0.3,0.5,0.9v0.6
			c0,0.6-0.2,0.9-0.5,0.9h-4.5v2.6h4c0.4,0,0.5,0.3,0.5,0.9v0.6c0,0.6-0.2,0.9-0.5,0.9h-4v2.9h4.5c0.4,0,0.5,0.3,0.5,0.9v0.6
			c0,0.6-0.2,0.9-0.5,0.9h-6.6c-0.4,0-0.7-0.2-0.7-0.5C874.8,342.9,874.8,342.9,874.8,342.8z"/>
		<path class="st2" d="M890.4,342.8v-11.2c0-0.4,0.2-0.7,0.5-0.7c0.1,0,0.1,0,0.2,0h3.6c1.1-0.1,2.3,0.2,3.2,0.9
			c0.7,0.6,1.1,1.4,1,2.3c0,0.6-0.2,1.2-0.5,1.6c-0.4,0.5-0.8,0.9-1.4,1.1v0.1c1.4,0.3,2.4,1.6,2.4,3c0.1,1-0.4,2-1.1,2.7
			c-1,0.7-2.2,1-3.4,1H891c-0.4,0-0.7-0.2-0.7-0.6C890.4,342.9,890.4,342.9,890.4,342.8z M893.1,335.9h1.2c0.4,0,0.9-0.1,1.2-0.4
			c0.3-0.2,0.5-0.6,0.4-1c0-0.9-0.5-1.3-1.6-1.3h-1.3L893.1,335.9z M893.1,341.2h1.8c0.4,0,0.9-0.1,1.2-0.4c0.3-0.3,0.5-0.7,0.4-1.1
			c0-0.9-0.7-1.4-2-1.4h-1.5V341.2z"/>
		<path class="st2" d="M901.7,339.3v-7.9c0-0.4,0.4-0.6,1.1-0.6h0.6c0.7,0,1.1,0.2,1.1,0.6v7.7c0,0.6,0.2,1.2,0.7,1.6
			c1,0.8,2.5,0.8,3.5,0c0.5-0.4,0.7-1,0.7-1.6v-7.7c0-0.4,0.4-0.6,1.1-0.6h0.6c0.7,0,1.1,0.2,1.1,0.6v7.9c0.1,1.2-0.4,2.4-1.4,3.2
			c-2.3,1.5-5.4,1.5-7.7,0C902.1,341.7,901.6,340.5,901.7,339.3z"/>
		<path class="st2" d="M915.3,342.8v-11.2c0-0.4,0.2-0.7,0.5-0.7c0.1,0,0.1,0,0.2,0h4c1.6-0.1,3.2,0.5,4.3,1.6c2,2.8,2,6.5,0,9.3
			c-1.1,1.1-2.7,1.7-4.3,1.6h-4c-0.4,0-0.7-0.2-0.7-0.5C915.3,342.9,915.3,342.9,915.3,342.8z M918.1,341.2h2c0.8,0.1,1.7-0.3,2.2-1
			c1-1.8,1-4,0-5.9c-0.5-0.7-1.3-1.1-2.2-1h-2V341.2z"/>
		<path class="st2" d="M928.1,337.2c0-4.3,2-6.4,6-6.4c0.9,0,1.7,0.1,2.6,0.4c0.8,0.2,1.3,0.5,1.3,0.9c-0.1,0.4-0.2,0.7-0.4,1
			c-0.3,0.4-0.5,0.6-0.7,0.6c-0.1,0-0.3-0.1-0.4-0.1c-0.7-0.3-1.5-0.4-2.3-0.4c-2.1,0-3.1,1.4-3.1,4.1s1,4.1,3.1,4.1
			c0.5,0,0.9,0,1.4-0.1v-2.3h-1.6c-0.4,0-0.5-0.3-0.5-0.9v-0.6c0-0.6,0.2-0.9,0.5-0.9h3.7c0.4,0,0.7,0.2,0.7,0.5c0,0.1,0,0.1,0,0.2
			v5c0,0.3-0.2,0.6-0.5,0.7c-0.4,0.2-0.8,0.4-1.2,0.4c-0.8,0.2-1.7,0.3-2.6,0.2c-1.6,0.1-3.3-0.4-4.5-1.6
			C928.5,340.7,928,338.9,928.1,337.2z"/>
		<path class="st2" d="M941.3,342.8v-11.2c0-0.4,0.2-0.7,0.5-0.7c0.1,0,0.1,0,0.2,0h6.6c0.4,0,0.5,0.3,0.5,0.9v0.6
			c0,0.6-0.2,0.9-0.5,0.9h-4.5v2.6h4c0.4,0,0.5,0.3,0.5,0.9v0.6c0,0.6-0.2,0.9-0.5,0.9h-4v2.9h4.6c0.4,0,0.5,0.3,0.5,0.9v0.6
			c0,0.6-0.2,0.9-0.5,0.9h-6.6c-0.4,0-0.7-0.2-0.7-0.5C941.3,342.9,941.3,342.9,941.3,342.8z"/>
		<path class="st2" d="M954.2,343v-9.7h-2.9c-0.4,0-0.5-0.3-0.5-0.9v-0.6c0-0.6,0.2-0.9,0.5-0.9h8.5c0.4,0,0.5,0.3,0.5,0.9v0.6
			c0,0.6-0.2,0.9-0.5,0.9H957v9.7c0,0.4-0.4,0.6-1.1,0.6h-0.6C954.5,343.6,954.2,343.4,954.2,343z"/>
		<rect x="2" y="51" class="st3" width="350" height="350"/>
	</g>
</g>
</svg>
