<svg xmlns="http://www.w3.org/2000/svg" viewBox="0 0 431.7 302.37"><defs><style>.cls-1{fill:#737378;}.cls-2{fill:#4fb6ab;}.cls-3{fill:#eb841e;}.cls-4{fill:#b5318a;}.cls-5{fill:#c1cd42;}</style></defs><title>metiers</title><g id="Calque_2" data-name="Calque 2"><g id="ressources"><path class="cls-1" d="M38.15,65.76V56.94c0-.29.28-.44.84-.44h.48c.56,0,.84.15.84.44v7.55h3.12c.28,0,.42.23.42.7v.43c0,.47-.14.7-.42.7H38.71A.49.49,0,0,1,38.15,65.76Z"/><path class="cls-1" d="M47,57.88a4.79,4.79,0,0,1-.81,1.27c-.3.32-.55.48-.72.48a1.33,1.33,0,0,1-.47-.07c-.14-.06-.2-.13-.2-.23a1.59,1.59,0,0,1,.15-.51,6.13,6.13,0,0,0,.46-2.48c0-.41.28-.61.84-.61h.27c.56,0,.84.2.84.61A3.71,3.71,0,0,1,47,57.88Z"/><path class="cls-1" d="M48.93,65.9v-9c0-.3.28-.46.84-.46h.49c.56,0,.84.16.84.46v9c0,.31-.28.47-.84.47h-.49C49.21,66.37,48.93,66.21,48.93,65.9Z"/><path class="cls-1" d="M53.52,65.9v-9c0-.29.28-.44.84-.44H55a1,1,0,0,1,.93.37l3.68,5.67v-5.6c0-.29.28-.44.84-.44h.41c.56,0,.84.15.84.44v9q0,.45-.84.45h-.54a1,1,0,0,1-.92-.38l-3.75-5.74V65.9q0,.45-.84.45h-.41Q53.52,66.35,53.52,65.9Z"/><path class="cls-1" d="M64.15,65.9V57.08a.49.49,0,0,1,.56-.56h4.67c.28,0,.42.24.42.7v.44c0,.47-.14.7-.42.7H66.3v2h3c.28,0,.42.24.42.7v.44c0,.46-.14.7-.42.7h-3V65.9q0,.45-.84.45H65Q64.15,66.35,64.15,65.9Z"/><path class="cls-1" d="M72.58,65.14a5.35,5.35,0,0,1-1.17-3.72,5.34,5.34,0,0,1,1.17-3.71,4.9,4.9,0,0,1,6.65,0,5.39,5.39,0,0,1,1.16,3.71,5.4,5.4,0,0,1-1.16,3.72,4.9,4.9,0,0,1-6.65,0Zm1.63-1.35a2.18,2.18,0,0,0,3.39,0,4.11,4.11,0,0,0,.57-2.37,4,4,0,0,0-.57-2.35,2.18,2.18,0,0,0-3.39,0,4,4,0,0,0-.59,2.35A4,4,0,0,0,74.21,63.79Z"/><path class="cls-1" d="M82.54,65.9V57.08a.5.5,0,0,1,.56-.56h2.73q3.49,0,3.49,2.64a2.21,2.21,0,0,1-.44,1.36,2.58,2.58,0,0,1-1.2.86v.06a1.27,1.27,0,0,1,.55.47,3.62,3.62,0,0,1,.46.82l1.23,3.08a.77.77,0,0,1,.07.26c0,.19-.28.28-.84.28h-.57c-.47,0-.74-.1-.82-.29l-1.1-2.73a1.71,1.71,0,0,0-.51-.65,1.58,1.58,0,0,0-.9-.19H84.7V65.9q0,.45-.84.45h-.48Q82.54,66.35,82.54,65.9Zm2.16-5.27H86a1,1,0,0,0,.75-.35,1.21,1.21,0,0,0,.33-.85,1,1,0,0,0-.32-.78,1.2,1.2,0,0,0-.86-.29H84.7Z"/><path class="cls-1" d="M91.64,65.9v-9c0-.29.28-.44.84-.44h.74a.93.93,0,0,1,.89.37l2.46,4.39,2.49-4.39a.93.93,0,0,1,.88-.37h.73c.56,0,.84.15.84.44v9q0,.45-.84.45h-.4q-.84,0-.84-.45V60.11l-.06,0-2,3.63a.65.65,0,0,1-.56.27h-.41a.65.65,0,0,1-.56-.27l-2-3.63,0,0V65.9q0,.45-.84.45h-.41Q91.64,66.35,91.64,65.9Z"/><path class="cls-1" d="M103,66a2,2,0,0,1,0-.25l3.08-9c.08-.2.34-.29.8-.29h.73c.46,0,.72.09.8.29l3.08,9a.85.85,0,0,1,0,.25c0,.21-.23.31-.7.31h-.62c-.45,0-.72-.1-.78-.29L109,64.35h-3.3l-.56,1.71c-.07.19-.28.29-.65.29h-.56C103.32,66.35,103,66.25,103,66Zm3.22-3.54h2.1l-.8-2.49-.21-.9h-.06a6.13,6.13,0,0,1-.21.9Z"/><path class="cls-1" d="M114.94,65.9V58.36h-2.23c-.28,0-.42-.23-.42-.7v-.44c0-.46.14-.7.42-.7h6.62c.28,0,.42.24.42.7v.44c0,.47-.14.7-.42.7h-2.22V65.9q0,.45-.84.45h-.49Q114.94,66.35,114.94,65.9Z"/><path class="cls-1" d="M121.31,65.9v-9c0-.3.28-.46.84-.46h.49c.56,0,.84.16.84.46v9c0,.31-.28.47-.84.47h-.49C121.59,66.37,121.31,66.21,121.31,65.9Z"/><path class="cls-1" d="M126.73,65.14a5.35,5.35,0,0,1-1.17-3.72,5.34,5.34,0,0,1,1.17-3.71,4.9,4.9,0,0,1,6.65,0,5.39,5.39,0,0,1,1.16,3.71,5.4,5.4,0,0,1-1.16,3.72,4.9,4.9,0,0,1-6.65,0Zm1.63-1.35a2.18,2.18,0,0,0,3.39,0,4.1,4.1,0,0,0,.58-2.37,4,4,0,0,0-.58-2.35,2.18,2.18,0,0,0-3.39,0,4,4,0,0,0-.58,2.35A4,4,0,0,0,128.36,63.79Z"/><path class="cls-1" d="M136.69,65.9v-9c0-.29.28-.44.84-.44h.61a1,1,0,0,1,.92.37l3.68,5.67v-5.6c0-.29.28-.44.84-.44H144c.56,0,.84.15.84.44v9q0,.45-.84.45h-.53a1,1,0,0,1-.93-.38l-3.75-5.74V65.9q0,.45-.84.45h-.41Q136.69,66.35,136.69,65.9Z"/><path class="cls-1" d="M41.65,86.76V78.08a.5.5,0,0,1,.56-.56h5.12c.28,0,.42.24.42.7v.44c0,.47-.14.7-.42.7H43.81v2H47c.28,0,.42.23.42.7v.43c0,.47-.14.7-.42.7H43.81v2.27h3.54c.28,0,.42.23.42.7v.43c0,.47-.14.7-.42.7H42.21A.49.49,0,0,1,41.65,86.76Z"/><path class="cls-1" d="M51.65,86.9V79.36H49.42c-.28,0-.42-.23-.42-.7v-.44c0-.46.14-.7.42-.7H56c.28,0,.42.24.42.7v.44c0,.47-.14.7-.42.7H53.82V86.9q0,.45-.84.45h-.49Q51.65,87.35,51.65,86.9Z"/><path class="cls-1" d="M62,86.76V77.94c0-.29.28-.44.84-.44h.48c.56,0,.84.15.84.44v7.55H67.3c.28,0,.42.23.42.7v.43c0,.47-.14.7-.42.7H62.58A.49.49,0,0,1,62,86.76Z"/><path class="cls-1" d="M69.36,86.76V78.08a.49.49,0,0,1,.56-.56H75c.28,0,.42.24.42.7v.44c0,.47-.14.7-.42.7H71.51v2h3.15c.28,0,.42.23.42.7v.43c0,.47-.14.7-.42.7H71.51v2.27h3.54c.28,0,.42.23.42.7v.43c0,.47-.14.7-.42.7H69.92A.49.49,0,0,1,69.36,86.76Z"/><path class="cls-1" d="M81.48,86.9V78.08a.5.5,0,0,1,.56-.56H85a3.63,3.63,0,0,1,2.53.82,2.33,2.33,0,0,1,.57.9,3.74,3.74,0,0,1,.23,1.35,3.35,3.35,0,0,1-.26,1.35,2.54,2.54,0,0,1-.64.9,3.15,3.15,0,0,1-.85.51,3.81,3.81,0,0,1-1.44.31H83.64V86.9c0,.3-.29.45-.84.45h-.48Q81.48,87.35,81.48,86.9Zm2.16-5.09h1.24a1.38,1.38,0,0,0,.86-.27,1.1,1.1,0,0,0,.36-1,1.13,1.13,0,0,0-.36-1,1.38,1.38,0,0,0-.86-.27H83.64Z"/><path class="cls-1" d="M89.05,87a1.28,1.28,0,0,1,.06-.25l3.08-9c.07-.2.34-.29.8-.29h.73c.45,0,.72.09.79.29l3.08,9a.92.92,0,0,1,0,.25c0,.21-.24.31-.71.31h-.61c-.46,0-.72-.1-.78-.29L95,85.35H91.67l-.56,1.71c-.06.19-.28.29-.64.29h-.56C89.34,87.35,89.05,87.25,89.05,87Zm3.22-3.54h2.1L93.58,81l-.21-.9h-.06a6.13,6.13,0,0,1-.21.9Z"/><path class="cls-1" d="M99.16,86.9V78.08a.5.5,0,0,1,.56-.56h2.73q3.49,0,3.49,2.64a2.21,2.21,0,0,1-.44,1.36,2.58,2.58,0,0,1-1.2.86v.06a1.2,1.2,0,0,1,.54.47,3.3,3.3,0,0,1,.47.82l1.23,3.08a.77.77,0,0,1,.07.26c0,.19-.28.28-.84.28h-.57c-.47,0-.74-.1-.82-.29l-1.1-2.73a1.71,1.71,0,0,0-.51-.65,1.64,1.64,0,0,0-.91-.19h-.54V86.9q0,.45-.84.45H100Q99.16,87.35,99.16,86.9Zm2.16-5.27h1.33a1,1,0,0,0,.75-.35,1.21,1.21,0,0,0,.33-.85,1,1,0,0,0-.32-.78,1.2,1.2,0,0,0-.86-.29h-1.23Z"/><path class="cls-1" d="M110.05,86.9V79.36h-2.22c-.28,0-.42-.23-.42-.7v-.44c0-.46.14-.7.42-.7h6.62c.28,0,.42.24.42.7v.44c0,.47-.14.7-.42.7h-2.23V86.9q0,.45-.84.45h-.49Q110.05,87.35,110.05,86.9Z"/><path class="cls-1" d="M115.54,87a1.28,1.28,0,0,1,.06-.25l3.08-9c.07-.2.34-.29.8-.29h.72c.46,0,.73.09.8.29l3.08,9a.85.85,0,0,1,0,.25c0,.21-.23.31-.7.31h-.61c-.46,0-.72-.1-.79-.29l-.56-1.71h-3.3l-.56,1.71c-.07.19-.28.29-.64.29h-.56C115.83,87.35,115.54,87.25,115.54,87Zm3.22-3.54h2.1l-.8-2.49-.21-.9h0q-.14.66-.21.9Z"/><path class="cls-1" d="M125.31,82.4q0-5,4.68-5a7.24,7.24,0,0,1,2,.29q1,.28,1,.69a1.6,1.6,0,0,1-.33.81c-.22.34-.42.51-.58.51a1.65,1.65,0,0,1-.31-.11,4.45,4.45,0,0,0-1.82-.34c-1.62,0-2.42,1.06-2.42,3.17s.79,3.17,2.39,3.17a5.6,5.6,0,0,0,1.09-.1V83.73h-1.23c-.28,0-.42-.24-.42-.7v-.45c0-.47.14-.7.42-.7h2.84a.49.49,0,0,1,.56.56v3.89a.68.68,0,0,1-.35.57,2.49,2.49,0,0,1-.92.34,10.49,10.49,0,0,1-2,.2,4.5,4.5,0,0,1-3.48-1.23A5.51,5.51,0,0,1,125.31,82.4Z"/><path class="cls-1" d="M135.62,86.76V78.08a.49.49,0,0,1,.56-.56h5.12c.28,0,.42.24.42.7v.44c0,.47-.14.7-.42.7h-3.53v2h3.15c.28,0,.42.23.42.7v.43c0,.47-.14.7-.42.7h-3.15v2.27h3.55c.27,0,.42.23.42.7v.43c0,.47-.15.7-.42.7h-5.14A.49.49,0,0,1,135.62,86.76Z"/><path class="cls-1" d="M12.92,107.76V99.08a.5.5,0,0,1,.56-.56h3.14a4.29,4.29,0,0,1,3.32,1.27,6.28,6.28,0,0,1,0,7.27,4.28,4.28,0,0,1-3.32,1.26H13.48A.49.49,0,0,1,12.92,107.76Zm2.17-1.27h1.53a2,2,0,0,0,1.69-.78,4.79,4.79,0,0,0,0-4.57,2,2,0,0,0-1.69-.78H15.09Z"/><path class="cls-1" d="M23.21,107.76V99.08a.5.5,0,0,1,.56-.56H28.9c.28,0,.42.24.42.7v.44c0,.47-.14.7-.42.7H25.37v2h3.15c.28,0,.42.23.42.7v.43c0,.47-.14.7-.42.7H25.37v2.27h3.54c.28,0,.42.23.42.7v.43c0,.47-.14.7-.42.7H23.77A.49.49,0,0,1,23.21,107.76Z"/><path class="cls-1" d="M35.34,107.76V99.08a.49.49,0,0,1,.56-.56h2.77a3.87,3.87,0,0,1,2.5.66A2.22,2.22,0,0,1,42,101a2.06,2.06,0,0,1-.43,1.28,2.43,2.43,0,0,1-1.08.85v.06a2.35,2.35,0,0,1,1.89,2.29,2.6,2.6,0,0,1-.87,2.11,4,4,0,0,1-2.63.73h-3A.49.49,0,0,1,35.34,107.76Zm2.15-5.33h1a1.47,1.47,0,0,0,1-.29,1,1,0,0,0,.34-.76c0-.69-.43-1-1.27-1h-1Zm0,4.06h1.37a1.47,1.47,0,0,0,1-.29,1.08,1.08,0,0,0,.33-.84c0-.73-.5-1.1-1.51-1.1H37.49Z"/><path class="cls-1" d="M45,107.14a6.53,6.53,0,0,1,0-7.43,4.25,4.25,0,0,1,3.34-1.3,4.2,4.2,0,0,1,3.32,1.3,6.53,6.53,0,0,1,0,7.43,4.23,4.23,0,0,1-3.32,1.3A4.28,4.28,0,0,1,45,107.14Zm1.64-1.35a2.18,2.18,0,0,0,3.39,0,4.11,4.11,0,0,0,.57-2.37,4,4,0,0,0-.57-2.35,2.18,2.18,0,0,0-3.39,0,4,4,0,0,0-.59,2.35A4,4,0,0,0,46.66,105.79Z"/><path class="cls-1" d="M55,107.9v-9c0-.29.28-.44.84-.44h.6a1,1,0,0,1,.93.37L61,104.54v-5.6c0-.29.28-.44.84-.44h.41c.55,0,.84.15.84.44v9c0,.3-.29.45-.84.45h-.54a1,1,0,0,1-.92-.38l-3.75-5.74v5.67q0,.45-.84.45h-.41Q55,108.35,55,107.9Z"/><path class="cls-1" d="M65.62,107.9v-9c0-.29.28-.44.84-.44h.6a1,1,0,0,1,.92.37l3.69,5.67v-5.6c0-.29.28-.44.83-.44h.41c.56,0,.84.15.84.44v9q0,.45-.84.45h-.53a1,1,0,0,1-.92-.38l-3.76-5.74v5.67q0,.45-.84.45h-.4Q65.62,108.35,65.62,107.9Z"/><path class="cls-1" d="M76.24,107.76V99.08a.5.5,0,0,1,.56-.56h5.13c.28,0,.42.24.42.7v.44c0,.47-.14.7-.42.7H78.4v2h3.15c.28,0,.42.23.42.7v.43c0,.47-.14.7-.42.7H78.4v2.27h3.54c.28,0,.42.23.42.7v.43c0,.47-.14.7-.42.7H76.8A.49.49,0,0,1,76.24,107.76Z"/><path class="cls-1" d="M83.79,107.2a1.51,1.51,0,0,1,.32-.78c.22-.31.4-.46.55-.46a1.19,1.19,0,0,1,.36.15,3.43,3.43,0,0,0,1.7.49c.87,0,1.31-.34,1.31-1a.92.92,0,0,0-.42-.76,4.55,4.55,0,0,0-1-.53c-.4-.16-.79-.34-1.19-.54a2.67,2.67,0,0,1-1-.93,2.76,2.76,0,0,1-.42-1.57,2.6,2.6,0,0,1,.5-1.62,3.29,3.29,0,0,1,2.81-1.22,4.67,4.67,0,0,1,1.79.31c.49.21.73.43.73.67a1.58,1.58,0,0,1-.26.77q-.27.45-.51.45a.78.78,0,0,1-.25-.1,3.06,3.06,0,0,0-1.29-.25,1.6,1.6,0,0,0-1,.25.81.81,0,0,0-.28.63.82.82,0,0,0,.42.67,4.33,4.33,0,0,0,1,.52c.39.15.78.33,1.18.53a2.68,2.68,0,0,1,1.43,2.43,3.72,3.72,0,0,1-.27,1.5,2.25,2.25,0,0,1-.75,1,3.73,3.73,0,0,1-2.27.68A5.55,5.55,0,0,1,84.7,108C84.09,107.76,83.79,107.48,83.79,107.2Z"/><path class="cls-1" d="M95.93,107.9V99.08a.49.49,0,0,1,.56-.56h2.94a3.65,3.65,0,0,1,2.53.82,2.45,2.45,0,0,1,.57.9,3.74,3.74,0,0,1,.23,1.35,3.19,3.19,0,0,1-.27,1.35,2.52,2.52,0,0,1-.63.9,3.15,3.15,0,0,1-.85.51,3.89,3.89,0,0,1-1.44.31H98.08v3.24q0,.45-.84.45h-.47Q95.93,108.35,95.93,107.9Zm2.15-5.09h1.25a1.38,1.38,0,0,0,.86-.27,1.1,1.1,0,0,0,.36-1,1.13,1.13,0,0,0-.36-1,1.38,1.38,0,0,0-.86-.27H98.08Z"/><path class="cls-1" d="M104.47,107.9V99.08a.49.49,0,0,1,.56-.56h2.73q3.48,0,3.48,2.64a2.15,2.15,0,0,1-.44,1.36,2.5,2.5,0,0,1-1.19.86v.06a1.31,1.31,0,0,1,.54.47,3.28,3.28,0,0,1,.46.82l1.24,3.08a1.13,1.13,0,0,1,.07.26c0,.19-.28.28-.84.28h-.58c-.47,0-.74-.1-.81-.29l-1.11-2.73a1.71,1.71,0,0,0-.51-.65,1.58,1.58,0,0,0-.9-.19h-.55v3.41q0,.45-.84.45h-.47Q104.47,108.35,104.47,107.9Zm2.15-5.27H108a1,1,0,0,0,.76-.35,1.25,1.25,0,0,0,.32-.85,1,1,0,0,0-.31-.78,1.2,1.2,0,0,0-.86-.29h-1.24Z"/><path class="cls-1" d="M112.6,108a1.28,1.28,0,0,1,.06-.25l3.08-9c.07-.2.34-.29.8-.29h.72c.46,0,.73.09.8.29l3.08,9a.85.85,0,0,1,0,.25c0,.21-.23.31-.7.31h-.61c-.46,0-.72-.1-.79-.29l-.56-1.71h-3.3l-.56,1.71c-.07.19-.28.29-.64.29h-.56C112.89,108.35,112.6,108.25,112.6,108Zm3.22-3.54h2.1l-.8-2.49-.21-.9h0q-.14.66-.21.9Z"/><path class="cls-1" d="M124.5,107.9v-7.54h-2.22c-.28,0-.43-.23-.43-.7v-.44c0-.46.15-.7.43-.7h6.62c.28,0,.42.24.42.7v.44c0,.47-.14.7-.42.7h-2.23v7.54q0,.45-.84.45h-.49Q124.5,108.35,124.5,107.9Z"/><path class="cls-1" d="M130.87,107.9v-9c0-.3.28-.46.84-.46h.49c.56,0,.84.16.84.46v9c0,.31-.28.47-.84.47h-.49C131.15,108.37,130.87,108.21,130.87,107.9Z"/><path class="cls-1" d="M135.13,103.42a5.34,5.34,0,0,1,1.16-3.71,4.91,4.91,0,0,1,6.66,0,5.39,5.39,0,0,1,1.15,3.71c0,2.23-.73,3.71-2.2,4.47V108l2.14.77a.26.26,0,0,1,.2.28,2.5,2.5,0,0,1-.24.79c-.16.39-.33.58-.53.58s-.7-.25-1.92-.74l-3.88-1.53a3.61,3.61,0,0,1-1.89-1.68A6.11,6.11,0,0,1,135.13,103.42Zm2.79,2.41a2.16,2.16,0,0,0,3.4,0,4.2,4.2,0,0,0,.57-2.39,4.06,4.06,0,0,0-.57-2.37,2.19,2.19,0,0,0-3.4,0,4,4,0,0,0-.58,2.37A4.12,4.12,0,0,0,137.92,105.83Z"/><path class="cls-1" d="M146.21,105.05V98.94c0-.29.29-.44.85-.44h.47c.56,0,.84.15.84.44v6a1.59,1.59,0,0,0,.53,1.22,2,2,0,0,0,1.37.47,2,2,0,0,0,1.38-.47,1.57,1.57,0,0,0,.54-1.22v-6c0-.29.28-.44.84-.44h.47c.56,0,.83.15.83.44v6.11a3.09,3.09,0,0,1-1.06,2.5,5.48,5.48,0,0,1-6,0A3.1,3.1,0,0,1,146.21,105.05Z"/><path class="cls-1" d="M156.78,107.76V99.08a.5.5,0,0,1,.56-.56h5.13c.28,0,.42.24.42.7v.44c0,.47-.14.7-.42.7h-3.53v2h3.15c.28,0,.42.23.42.7v.43c0,.47-.14.7-.42.7h-3.15v2.27h3.54c.28,0,.42.23.42.7v.43c0,.47-.14.7-.42.7h-5.14A.49.49,0,0,1,156.78,107.76Z"/><path class="cls-1" d="M164.33,107.2a1.51,1.51,0,0,1,.32-.78c.22-.31.4-.46.55-.46a1.1,1.1,0,0,1,.36.15,3.43,3.43,0,0,0,1.7.49c.87,0,1.31-.34,1.31-1a.92.92,0,0,0-.42-.76,4.55,4.55,0,0,0-1-.53c-.4-.16-.79-.34-1.18-.54a2.63,2.63,0,0,1-1-.93,2.76,2.76,0,0,1-.42-1.57,2.6,2.6,0,0,1,.5-1.62,3.3,3.3,0,0,1,2.81-1.22,4.76,4.76,0,0,1,1.8.31c.48.21.72.43.72.67a1.58,1.58,0,0,1-.26.77q-.27.45-.51.45a.78.78,0,0,1-.25-.1,3.06,3.06,0,0,0-1.29-.25,1.55,1.55,0,0,0-1,.25.79.79,0,0,0-.29.63.82.82,0,0,0,.42.67,4.33,4.33,0,0,0,1,.52c.39.15.78.33,1.18.53a2.63,2.63,0,0,1,1,.93,2.57,2.57,0,0,1,.43,1.5,3.72,3.72,0,0,1-.28,1.5,2.25,2.25,0,0,1-.75,1,3.72,3.72,0,0,1-2.26.68,5.57,5.57,0,0,1-2.26-.41C164.63,107.76,164.33,107.48,164.33,107.2Z"/><path class="cls-1" d="M3.84,258.76v-8.82q0-.45.84-.45h.48q.84,0,.84.45v7.55H9.12c.28,0,.42.23.42.7v.43c0,.47-.14.7-.42.7H4.4A.49.49,0,0,1,3.84,258.76Z"/><path class="cls-1" d="M10.21,259a1.28,1.28,0,0,1,.06-.25l3.08-9c.07-.2.34-.3.8-.3h.73c.45,0,.72.1.79.3l3.08,9a.81.81,0,0,1,0,.25c0,.21-.23.31-.7.31h-.61c-.46,0-.72-.1-.79-.29l-.56-1.71h-3.3l-.56,1.71c-.06.19-.28.29-.64.29h-.56C10.5,259.35,10.21,259.25,10.21,259Zm3.22-3.54h2.1L14.74,253l-.22-.9h0a7.86,7.86,0,0,1-.21.9Z"/><path class="cls-1" d="M23.91,254.4c0-3.33,1.55-5,4.67-5a6.8,6.8,0,0,1,2,.28c.64.19,1,.42,1,.7a1.6,1.6,0,0,1-.33.81c-.22.34-.42.51-.58.51a1.69,1.69,0,0,1-.3-.11,4.06,4.06,0,0,0-1.76-.34c-1.62,0-2.42,1.06-2.42,3.17s.8,3.17,2.39,3.17a4.6,4.6,0,0,0,1.93-.42,1.89,1.89,0,0,1,.37-.14c.19,0,.38.16.56.48a1.86,1.86,0,0,1,.26.74c0,.37-.34.66-1,.87a7.5,7.5,0,0,1-2.09.31A4.5,4.5,0,0,1,25,258.21,5.51,5.51,0,0,1,23.91,254.4Z"/><path class="cls-1" d="M34.29,258.14a6.53,6.53,0,0,1,0-7.43,4.24,4.24,0,0,1,3.33-1.3,4.21,4.21,0,0,1,3.33,1.3,6.58,6.58,0,0,1,0,7.43,4.24,4.24,0,0,1-3.33,1.3A4.27,4.27,0,0,1,34.29,258.14Zm1.63-1.35a2,2,0,0,0,1.7.81,2,2,0,0,0,1.7-.81,5.19,5.19,0,0,0,0-4.73,2,2,0,0,0-1.7-.8,2,2,0,0,0-1.7.8,5.11,5.11,0,0,0,0,4.73Z"/><path class="cls-1" d="M44.26,258.9v-9q0-.45.84-.45h.6a1,1,0,0,1,.93.38l3.68,5.67v-5.6q0-.45.84-.45h.4q.84,0,.84.45v9q0,.45-.84.45H51a1,1,0,0,1-.92-.38l-3.75-5.74v5.67q0,.45-.84.45H45.1Q44.26,259.35,44.26,258.9Z"/><path class="cls-1" d="M54.89,258.76v-8.68a.49.49,0,0,1,.56-.56h3.13a4.3,4.3,0,0,1,3.33,1.27,6.32,6.32,0,0,1,0,7.27,4.29,4.29,0,0,1-3.33,1.26H55.45A.49.49,0,0,1,54.89,258.76Zm2.17-1.27h1.52a2,2,0,0,0,1.7-.79,4.85,4.85,0,0,0,0-4.56,2,2,0,0,0-1.7-.78H57.06Z"/><path class="cls-1" d="M65.13,256.05v-6.11c0-.3.29-.45.84-.45h.48q.84,0,.84.45v6a1.55,1.55,0,0,0,.53,1.21,2,2,0,0,0,1.37.48,2,2,0,0,0,1.38-.48,1.53,1.53,0,0,0,.54-1.21v-6q0-.45.84-.45h.47c.55,0,.83.15.83.45v6.11a3.09,3.09,0,0,1-1.06,2.5,5.48,5.48,0,0,1-6,0A3.1,3.1,0,0,1,65.13,256.05Z"/><path class="cls-1" d="M75.62,258.9v-9c0-.3.28-.46.84-.46H77c.56,0,.84.16.84.46v9c0,.31-.28.46-.84.46h-.49C75.9,259.36,75.62,259.21,75.62,258.9Z"/><path class="cls-1" d="M82,258.9v-7.54H79.78c-.28,0-.42-.24-.42-.7v-.44c0-.46.14-.7.42-.7H86.4c.28,0,.42.24.42.7v.44c0,.46-.14.7-.42.7H84.17v7.54q0,.45-.84.45h-.49Q82,259.35,82,258.9Z"/><path class="cls-1" d="M88.46,258.76v-8.68a.5.5,0,0,1,.56-.56h5.12c.28,0,.42.24.42.7v.44c0,.46-.14.7-.42.7H90.61v2h3.15c.28,0,.42.23.42.7v.43c0,.47-.14.7-.42.7H90.61v2.27h3.55c.28,0,.42.23.42.7v.43c0,.47-.14.7-.42.7H89A.49.49,0,0,1,88.46,258.76Z"/><path class="cls-1" d="M100.58,258.76v-8.68a.5.5,0,0,1,.56-.56h3.14a4.29,4.29,0,0,1,3.32,1.27,6.28,6.28,0,0,1,0,7.27,4.28,4.28,0,0,1-3.32,1.26h-3.14A.49.49,0,0,1,100.58,258.76Zm2.17-1.27h1.53a2,2,0,0,0,1.69-.79,4.77,4.77,0,0,0,0-4.56,2,2,0,0,0-1.69-.78h-1.53Z"/><path class="cls-1" d="M110.87,258.76v-8.68a.5.5,0,0,1,.56-.56h5.13c.28,0,.42.24.42.7v.44c0,.46-.14.7-.42.7H113v2h3.15c.28,0,.42.23.42.7v.43c0,.47-.14.7-.42.7H113v2.27h3.54c.28,0,.42.23.42.7v.43c0,.47-.14.7-.42.7h-5.14A.49.49,0,0,1,110.87,258.76Z"/><path class="cls-1" d="M123,258.9v-8.82a.49.49,0,0,1,.56-.56h2.94a3.6,3.6,0,0,1,2.53.82,2.58,2.58,0,0,1,.57.9,3.74,3.74,0,0,1,.23,1.35,3.19,3.19,0,0,1-.27,1.35,2.54,2.54,0,0,1-.64.9,3,3,0,0,1-.84.51,3.87,3.87,0,0,1-1.44.3h-1.49v3.25q0,.45-.84.45h-.47Q123,259.35,123,258.9Zm2.15-5.09h1.25a1.4,1.4,0,0,0,.86-.27,1.11,1.11,0,0,0,.36-.95,1.13,1.13,0,0,0-.36-1,1.4,1.4,0,0,0-.86-.27h-1.25Z"/><path class="cls-1" d="M131.54,258.9v-8.82a.49.49,0,0,1,.56-.56h2.73q3.48,0,3.48,2.63a2.16,2.16,0,0,1-.44,1.37,2.55,2.55,0,0,1-1.2.86v.06a1.27,1.27,0,0,1,.55.47,3.28,3.28,0,0,1,.46.82l1.23,3.08a.77.77,0,0,1,.07.26c0,.19-.28.28-.84.28h-.57c-.47,0-.74-.1-.81-.29l-1.11-2.73a1.71,1.71,0,0,0-.51-.65,1.58,1.58,0,0,0-.9-.19h-.55v3.41q0,.45-.84.45h-.47Q131.54,259.35,131.54,258.9Zm2.15-5.28H135a1,1,0,0,0,.76-.34,1.25,1.25,0,0,0,.32-.85,1,1,0,0,0-.32-.79,1.2,1.2,0,0,0-.86-.28h-1.23Z"/><path class="cls-1" d="M141.46,258.14a6.53,6.53,0,0,1,0-7.43,4.91,4.91,0,0,1,6.66,0,6.58,6.58,0,0,1,0,7.43,4.91,4.91,0,0,1-6.66,0Zm1.63-1.35a2.19,2.19,0,0,0,3.4,0,5.19,5.19,0,0,0,0-4.73,2.21,2.21,0,0,0-3.4,0,5.11,5.11,0,0,0,0,4.73Z"/><path class="cls-1" d="M151.34,259.36a1.86,1.86,0,0,1-.67-.22.46.46,0,0,1-.21-.41,2.72,2.72,0,0,1,.15-.74c.1-.31.24-.48.43-.5l.27.06a2.76,2.76,0,0,0,.51.05,1.11,1.11,0,0,0,.91-.34,1.81,1.81,0,0,0,.27-1.11v-6.21c0-.3.28-.46.84-.46h.49c.56,0,.84.16.84.46v6.55a3.08,3.08,0,0,1-.73,2.17,2.93,2.93,0,0,1-2.24.78A5.29,5.29,0,0,1,151.34,259.36Z"/><path class="cls-1" d="M157.62,258.76v-8.68a.49.49,0,0,1,.56-.56h5.12c.28,0,.42.24.42.7v.44c0,.46-.14.7-.42.7h-3.53v2h3.15c.28,0,.42.23.42.7v.43c0,.47-.14.7-.42.7h-3.15v2.27h3.55c.28,0,.42.23.42.7v.43c0,.47-.14.7-.42.7h-5.14A.49.49,0,0,1,157.62,258.76Z"/><path class="cls-1" d="M167.61,258.9v-7.54h-2.22c-.28,0-.42-.24-.42-.7v-.44c0-.46.14-.7.42-.7H172c.28,0,.42.24.42.7v.44c0,.46-.14.7-.42.7h-2.23v7.54q0,.45-.84.45h-.49Q167.61,259.35,167.61,258.9Z"/><path class="cls-1" d="M173.41,258.2a1.51,1.51,0,0,1,.32-.78c.22-.31.4-.46.55-.46a1.19,1.19,0,0,1,.36.15,3.39,3.39,0,0,0,1.69.49q1.32,0,1.32-1a.92.92,0,0,0-.42-.76,5,5,0,0,0-1-.54,12.39,12.39,0,0,1-1.19-.53,2.67,2.67,0,0,1-1-.93,2.76,2.76,0,0,1-.42-1.57,2.6,2.6,0,0,1,.5-1.62,3.29,3.29,0,0,1,2.81-1.22,4.57,4.57,0,0,1,1.8.31c.48.2.72.43.72.67a1.63,1.63,0,0,1-.26.76c-.18.31-.35.46-.51.46a.78.78,0,0,1-.25-.1,3.06,3.06,0,0,0-1.29-.25,1.6,1.6,0,0,0-1,.25.81.81,0,0,0-.28.63.82.82,0,0,0,.42.67,4.33,4.33,0,0,0,1,.52c.39.15.78.33,1.18.53a2.68,2.68,0,0,1,1.43,2.43,3.76,3.76,0,0,1-.27,1.5,2.25,2.25,0,0,1-.75,1,3.73,3.73,0,0,1-2.27.68,5.55,5.55,0,0,1-2.25-.41C173.71,258.76,173.41,258.48,173.41,258.2Z"/><path class="cls-1" d="M24.16,279.76v-8.68a.5.5,0,0,1,.56-.56h5.13c.28,0,.42.24.42.7v.44c0,.46-.14.7-.42.7H26.32v2h3.15c.28,0,.42.23.42.7v.43c0,.47-.14.7-.42.7H26.32v2.27h3.54c.28,0,.42.23.42.7v.43c0,.47-.14.7-.42.7H24.72A.49.49,0,0,1,24.16,279.76Z"/><path class="cls-1" d="M34.16,279.9v-7.54H31.93c-.28,0-.42-.24-.42-.7v-.44c0-.46.14-.7.42-.7h6.63c.28,0,.42.24.42.7v.44c0,.46-.14.7-.42.7H36.33v7.54q0,.45-.84.45H35Q34.16,280.35,34.16,279.9Z"/><path class="cls-1" d="M44.53,279.76v-8.82q0-.45.84-.45h.48q.84,0,.84.45v7.55h3.12c.28,0,.42.23.42.7v.43c0,.47-.14.7-.42.7H45.09A.49.49,0,0,1,44.53,279.76Z"/><path class="cls-1" d="M51.87,279.76v-8.68a.5.5,0,0,1,.56-.56h5.12c.28,0,.42.24.42.7v.44c0,.46-.14.7-.42.7H54v2h3.15c.28,0,.42.23.42.7v.43c0,.47-.14.7-.42.7H54v2.27h3.54c.28,0,.42.23.42.7v.43c0,.47-.14.7-.42.7H52.43A.49.49,0,0,1,51.87,279.76Z"/><path class="cls-1" d="M64,279.76v-8.68a.5.5,0,0,1,.56-.56h3.14A4.27,4.27,0,0,1,71,271.79a6.28,6.28,0,0,1,0,7.27,4.27,4.27,0,0,1-3.32,1.26H64.55A.49.49,0,0,1,64,279.76Zm2.17-1.27h1.53a1.94,1.94,0,0,0,1.69-.79,4.77,4.77,0,0,0,0-4.56,2,2,0,0,0-1.69-.78H66.16Z"/><path class="cls-1" d="M74.28,279.76v-8.68a.5.5,0,0,1,.56-.56H80c.28,0,.42.24.42.7v.44c0,.46-.14.7-.42.7H76.44v2h3.15c.28,0,.42.23.42.7v.43c0,.47-.14.7-.42.7H76.44v2.27H80c.28,0,.42.23.42.7v.43c0,.47-.14.7-.42.7H74.84A.49.49,0,0,1,74.28,279.76Z"/><path class="cls-1" d="M82.49,279.9v-8.82a.49.49,0,0,1,.56-.56H86a3.6,3.6,0,0,1,2.53.82,2.45,2.45,0,0,1,.57.9,3.74,3.74,0,0,1,.23,1.35,3.19,3.19,0,0,1-.27,1.35,2.52,2.52,0,0,1-.63.9,3.15,3.15,0,0,1-.85.51,3.83,3.83,0,0,1-1.44.3H84.64v3.25q0,.45-.84.45h-.47Q82.49,280.35,82.49,279.9Zm2.15-5.09h1.25a1.38,1.38,0,0,0,.86-.27,1.11,1.11,0,0,0,.36-1,1.13,1.13,0,0,0-.36-1,1.38,1.38,0,0,0-.86-.27H84.64Z"/><path class="cls-1" d="M91,279.76v-8.82q0-.45.84-.45h.47q.84,0,.84.45v7.55h3.13c.27,0,.42.23.42.7v.43c0,.47-.15.7-.42.7H91.59A.49.49,0,0,1,91,279.76Z"/><path class="cls-1" d="M99.19,279.14a6.53,6.53,0,0,1,0-7.43,4.91,4.91,0,0,1,6.66,0,6.58,6.58,0,0,1,0,7.43,4.91,4.91,0,0,1-6.66,0Zm1.63-1.35a2.19,2.19,0,0,0,3.4,0,5.19,5.19,0,0,0,0-4.73,2.21,2.21,0,0,0-3.4,0,5.11,5.11,0,0,0,0,4.73Z"/><path class="cls-1" d="M109.07,279.9v-9c0-.3.28-.46.84-.46h.49c.56,0,.84.16.84.46v9c0,.31-.28.46-.84.46h-.49C109.35,280.36,109.07,280.21,109.07,279.9Z"/><path class="cls-1" d="M113.67,279.76v-8.68a.49.49,0,0,1,.56-.56h5.12c.28,0,.42.24.42.7v.44c0,.46-.14.7-.42.7h-3.53v2H119c.28,0,.42.23.42.7v.43c0,.47-.14.7-.42.7h-3.15v2.27h3.54c.28,0,.42.23.42.7v.43c0,.47-.14.7-.42.7h-5.13A.49.49,0,0,1,113.67,279.76Z"/><path class="cls-1" d="M121.87,279.9v-9q0-.45.84-.45h.74a.92.92,0,0,1,.88.38l2.47,4.39,2.49-4.39a.92.92,0,0,1,.88-.38h.73q.84,0,.84.45v9q0,.45-.84.45h-.41q-.84,0-.84-.45v-5.79l-.05,0-2,3.63a.65.65,0,0,1-.56.26h-.41a.65.65,0,0,1-.56-.26l-2-3.63-.06,0v5.79q0,.45-.84.45h-.4Q121.87,280.35,121.87,279.9Z"/><path class="cls-1" d="M134.23,279.76v-8.68a.5.5,0,0,1,.56-.56h5.13c.27,0,.41.24.41.7v.44c0,.46-.14.7-.41.7h-3.53v2h3.15c.28,0,.42.23.42.7v.43c0,.47-.14.7-.42.7h-3.15v2.27h3.54c.28,0,.42.23.42.7v.43c0,.47-.14.7-.42.7h-5.14A.49.49,0,0,1,134.23,279.76Z"/><path class="cls-1" d="M142.43,279.9v-9q0-.45.84-.45h.61a1,1,0,0,1,.92.38l3.68,5.67v-5.6q0-.45.84-.45h.41q.84,0,.84.45v9q0,.45-.84.45h-.53a1,1,0,0,1-.93-.38l-3.75-5.74v5.67q0,.45-.84.45h-.41Q142.43,280.35,142.43,279.9Z"/><path class="cls-1" d="M154.85,279.9v-7.54h-2.22c-.28,0-.42-.24-.42-.7v-.44c0-.46.14-.7.42-.7h6.62c.28,0,.42.24.42.7v.44c0,.46-.14.7-.42.7H157v7.54q0,.45-.84.45h-.49Q154.85,280.35,154.85,279.9Z"/><path class="cls-1" d="M0,300.76v-8.68a.5.5,0,0,1,.56-.56H3.7A4.29,4.29,0,0,1,7,292.79a6.28,6.28,0,0,1,0,7.27,4.28,4.28,0,0,1-3.32,1.26H.56A.49.49,0,0,1,0,300.76Zm2.17-1.27H3.7a2,2,0,0,0,1.69-.79,4.85,4.85,0,0,0,0-4.56,2,2,0,0,0-1.69-.78H2.17Z"/><path class="cls-1" d="M10.29,300.76v-8.68a.5.5,0,0,1,.56-.56H16c.28,0,.42.24.42.7v.44c0,.46-.14.7-.42.7H12.45v2H15.6c.28,0,.42.23.42.7v.43c0,.47-.14.7-.42.7H12.45v2.27H16c.28,0,.42.23.42.7v.43c0,.47-.14.7-.42.7H10.85A.49.49,0,0,1,10.29,300.76Z"/><path class="cls-1" d="M21.76,300.2a1.43,1.43,0,0,1,.32-.78c.21-.31.39-.46.54-.46a1.12,1.12,0,0,1,.37.15,3.39,3.39,0,0,0,1.69.49q1.32,0,1.32-1a.92.92,0,0,0-.42-.76,4.85,4.85,0,0,0-1-.54,12.24,12.24,0,0,1-1.18-.53,2.7,2.7,0,0,1-1-.93,2.76,2.76,0,0,1-.42-1.57,2.61,2.61,0,0,1,.51-1.62,3.27,3.27,0,0,1,2.81-1.22,4.49,4.49,0,0,1,1.79.31c.49.2.73.43.73.67a1.55,1.55,0,0,1-.27.76c-.17.31-.34.46-.5.46a.7.7,0,0,1-.25-.1,3.11,3.11,0,0,0-1.3-.25,1.55,1.55,0,0,0-1,.25.78.78,0,0,0,.13,1.3,4.54,4.54,0,0,0,1,.52c.39.15.79.33,1.19.53a2.7,2.7,0,0,1,1,.93,2.64,2.64,0,0,1,.42,1.5,3.76,3.76,0,0,1-.27,1.5,2.41,2.41,0,0,1-.75,1,3.75,3.75,0,0,1-2.27.68,5.48,5.48,0,0,1-2.25-.41C22.06,300.76,21.76,300.48,21.76,300.2Z"/><path class="cls-1" d="M30.8,300.14a6.53,6.53,0,0,1,0-7.43,4.24,4.24,0,0,1,3.33-1.3,4.21,4.21,0,0,1,3.33,1.3,6.58,6.58,0,0,1,0,7.43,4.24,4.24,0,0,1-3.33,1.3A4.27,4.27,0,0,1,30.8,300.14Zm1.63-1.35a2.19,2.19,0,0,0,3.4,0,5.19,5.19,0,0,0,0-4.73,2.21,2.21,0,0,0-3.4,0,5.11,5.11,0,0,0,0,4.73Z"/><path class="cls-1" d="M40.77,300.76v-8.82q0-.45.84-.45h.47q.84,0,.84.45v7.55h3.13c.28,0,.42.23.42.7v.43c0,.47-.14.7-.42.7H41.33A.49.49,0,0,1,40.77,300.76Z"/><path class="cls-1" d="M48.06,298.05v-6.11q0-.45.84-.45h.48q.84,0,.84.45v6a1.55,1.55,0,0,0,.53,1.21,2,2,0,0,0,1.37.48,2,2,0,0,0,1.38-.48,1.53,1.53,0,0,0,.54-1.21v-6q0-.45.84-.45h.46q.84,0,.84.45v6.11a3.09,3.09,0,0,1-1.06,2.5,4.57,4.57,0,0,1-3,.89,4.52,4.52,0,0,1-3-.89A3.1,3.1,0,0,1,48.06,298.05Z"/><path class="cls-1" d="M60.42,300.9v-7.54H58.2c-.28,0-.42-.24-.42-.7v-.44c0-.46.14-.7.42-.7h6.62c.28,0,.42.24.42.7v.44c0,.46-.14.7-.42.7H62.59v7.54q0,.45-.84.45h-.49Q60.42,301.35,60.42,300.9Z"/><path class="cls-1" d="M66.79,300.9v-9c0-.3.28-.46.84-.46h.49c.56,0,.84.16.84.46v9c0,.31-.28.46-.84.46h-.49C67.07,301.36,66.79,301.21,66.79,300.9Z"/><path class="cls-1" d="M72.21,300.14a6.53,6.53,0,0,1,0-7.43,4.91,4.91,0,0,1,6.66,0,6.58,6.58,0,0,1,0,7.43,4.91,4.91,0,0,1-6.66,0Zm1.63-1.35a2.19,2.19,0,0,0,3.4,0,5.19,5.19,0,0,0,0-4.73,2.21,2.21,0,0,0-3.4,0,5.11,5.11,0,0,0,0,4.73Z"/><path class="cls-1" d="M82.18,300.9v-9q0-.45.84-.45h.6a1,1,0,0,1,.93.38l3.68,5.67v-5.6q0-.45.84-.45h.4q.84,0,.84.45v9q0,.45-.84.45h-.53A1,1,0,0,1,88,301l-3.76-5.74v5.67c0,.3-.27.45-.84.45H83Q82.18,301.35,82.18,300.9Z"/><path class="cls-1" d="M92.15,300.2a1.43,1.43,0,0,1,.32-.78c.21-.31.4-.46.54-.46a1.12,1.12,0,0,1,.37.15,3.39,3.39,0,0,0,1.69.49q1.32,0,1.32-1a.92.92,0,0,0-.42-.76,4.85,4.85,0,0,0-1-.54,12.24,12.24,0,0,1-1.18-.53,2.7,2.7,0,0,1-1-.93,2.76,2.76,0,0,1-.42-1.57,2.61,2.61,0,0,1,.51-1.62,3.27,3.27,0,0,1,2.81-1.22,4.49,4.49,0,0,1,1.79.31c.49.2.73.43.73.67a1.63,1.63,0,0,1-.26.76c-.18.31-.35.46-.51.46a.7.7,0,0,1-.25-.1,3.11,3.11,0,0,0-1.3-.25,1.55,1.55,0,0,0-1,.25.81.81,0,0,0-.28.63.82.82,0,0,0,.42.67,4.25,4.25,0,0,0,1,.52,12.39,12.39,0,0,1,1.19.53,2.7,2.7,0,0,1,1,.93,2.64,2.64,0,0,1,.42,1.5,3.76,3.76,0,0,1-.27,1.5,2.25,2.25,0,0,1-.75,1,3.75,3.75,0,0,1-2.27.68,5.52,5.52,0,0,1-2.25-.41C92.45,300.76,92.15,300.48,92.15,300.2Z"/><path class="cls-1" d="M104,296.4q0-5,4.67-5a6.87,6.87,0,0,1,2,.28c.63.19,1,.42,1,.7a1.6,1.6,0,0,1-.33.81c-.22.34-.41.51-.58.51a1.45,1.45,0,0,1-.29-.11,4.14,4.14,0,0,0-1.77-.34c-1.61,0-2.42,1.06-2.42,3.17s.8,3.17,2.39,3.17a4.64,4.64,0,0,0,1.94-.42,1.69,1.69,0,0,1,.36-.14c.2,0,.38.16.56.48a1.76,1.76,0,0,1,.27.74c0,.37-.35.66-1,.87a7.5,7.5,0,0,1-2.09.31,4.49,4.49,0,0,1-3.47-1.23A5.46,5.46,0,0,1,104,296.4Z"/><path class="cls-1" d="M114.34,300.14a6.48,6.48,0,0,1,0-7.43,4.9,4.9,0,0,1,6.65,0,6.53,6.53,0,0,1,0,7.43,4.9,4.9,0,0,1-6.65,0Zm1.63-1.35a2.18,2.18,0,0,0,3.39,0,5.11,5.11,0,0,0,0-4.73,2.2,2.2,0,0,0-3.39,0,5.11,5.11,0,0,0,0,4.73Z"/><path class="cls-1" d="M124.3,300.9v-9c0-.3.28-.45.85-.45h.6a1,1,0,0,1,.92.38l3.68,5.67v-5.6q0-.45.84-.45h.41q.84,0,.84.45v9q0,.45-.84.45h-.53a1,1,0,0,1-.93-.38l-3.75-5.74v5.67q0,.45-.84.45h-.4C124.58,301.35,124.3,301.2,124.3,300.9Z"/><path class="cls-1" d="M134.59,296.4q0-5,4.68-5a6.92,6.92,0,0,1,2,.28c.63.19.95.42.95.7a1.6,1.6,0,0,1-.33.81c-.22.34-.41.51-.58.51a1.69,1.69,0,0,1-.3-.11,4.06,4.06,0,0,0-1.76-.34c-1.62,0-2.42,1.06-2.42,3.17s.79,3.17,2.39,3.17a4.6,4.6,0,0,0,1.93-.42,1.89,1.89,0,0,1,.37-.14c.19,0,.38.16.56.48a1.86,1.86,0,0,1,.26.74c0,.37-.34.66-1,.87a7.5,7.5,0,0,1-2.09.31,4.5,4.5,0,0,1-3.48-1.23A5.51,5.51,0,0,1,134.59,296.4Z"/><path class="cls-1" d="M144.16,300.9v-8.82a.49.49,0,0,1,.56-.56h2.73q3.48,0,3.48,2.63a2.16,2.16,0,0,1-.44,1.37,2.55,2.55,0,0,1-1.2.86v.06a1.27,1.27,0,0,1,.55.47,3.28,3.28,0,0,1,.46.82l1.24,3.08a1,1,0,0,1,.06.26c0,.19-.27.28-.84.28h-.57c-.47,0-.74-.1-.81-.29l-1.11-2.73a1.71,1.71,0,0,0-.51-.65,1.58,1.58,0,0,0-.9-.19h-.55v3.41q0,.45-.84.45H145Q144.16,301.35,144.16,300.9Zm2.15-5.28h1.33a1,1,0,0,0,.76-.34,1.25,1.25,0,0,0,.32-.85,1,1,0,0,0-.31-.79,1.25,1.25,0,0,0-.87-.28h-1.23Z"/><path class="cls-1" d="M153.26,300.76v-8.68a.49.49,0,0,1,.56-.56h5.12c.28,0,.42.24.42.7v.44c0,.46-.14.7-.42.7h-3.53v2h3.15c.28,0,.42.23.42.7v.43c0,.47-.14.7-.42.7h-3.15v2.27H159c.28,0,.42.23.42.7v.43c0,.47-.14.7-.42.7h-5.13A.49.49,0,0,1,153.26,300.76Zm4-10.29a1.43,1.43,0,0,1-1.1-.4c-.24-.27-.51-.57-.81-.88s-.47-.5-.52-.57a.27.27,0,0,1-.07-.18c0-.13.3-.19.91-.19s1,.12,1.12.37l.33.59a3.69,3.69,0,0,0,.27.44l.17.29a1,1,0,0,1,.14.32C157.67,290.4,157.52,290.47,157.23,290.47Z"/><path class="cls-1" d="M163.25,300.9v-7.54H161c-.28,0-.42-.24-.42-.7v-.44c0-.46.14-.7.42-.7h6.62c.28,0,.42.24.42.7v.44c0,.46-.14.7-.42.7h-2.23v7.54q0,.45-.84.45h-.49Q163.25,301.35,163.25,300.9Z"/><path class="cls-1" d="M169.71,300.76v-8.68a.49.49,0,0,1,.56-.56h5.12c.28,0,.42.24.42.7v.44c0,.46-.14.7-.42.7h-3.53v2H175c.28,0,.42.23.42.7v.43c0,.47-.14.7-.42.7h-3.15v2.27h3.55c.27,0,.42.23.42.7v.43c0,.47-.15.7-.42.7h-5.14A.49.49,0,0,1,169.71,300.76Z"/><path class="cls-1" d="M177.25,300.2a1.51,1.51,0,0,1,.32-.78c.22-.31.4-.46.55-.46a1,1,0,0,1,.36.15,3.43,3.43,0,0,0,1.7.49c.88,0,1.31-.34,1.31-1a.92.92,0,0,0-.42-.76,4.76,4.76,0,0,0-1-.54,11.23,11.23,0,0,1-1.18-.53,2.63,2.63,0,0,1-1-.93,2.76,2.76,0,0,1-.42-1.57,2.67,2.67,0,0,1,.5-1.62,3.3,3.3,0,0,1,2.82-1.22,4.52,4.52,0,0,1,1.79.31c.48.2.73.43.73.67a1.55,1.55,0,0,1-.27.76c-.18.31-.35.46-.5.46a.8.8,0,0,1-.26-.1,3.06,3.06,0,0,0-1.29-.25,1.55,1.55,0,0,0-1,.25.78.78,0,0,0,.13,1.3,4.54,4.54,0,0,0,1,.52c.39.15.78.33,1.18.53a2.67,2.67,0,0,1,1.44,2.43,3.59,3.59,0,0,1-.28,1.5,2.25,2.25,0,0,1-.75,1,3.72,3.72,0,0,1-2.26.68,5.57,5.57,0,0,1-2.26-.41C177.56,300.76,177.25,300.48,177.25,300.2Z"/><path class="cls-1" d="M220.28,257.76v-8.82c0-.29.28-.44.84-.44h.47c.56,0,.84.15.84.44v7.55h3.12c.28,0,.42.23.42.7v.43c0,.47-.14.7-.42.7h-4.71A.49.49,0,0,1,220.28,257.76Z"/><path class="cls-1" d="M227.61,257.76v-8.68a.5.5,0,0,1,.56-.56h5.13c.28,0,.42.24.42.7v.44c0,.47-.14.7-.42.7h-3.53v2h3.15c.28,0,.42.23.42.7v.43c0,.47-.14.7-.42.7h-3.15v2.27h3.54c.28,0,.42.23.42.7v.43c0,.47-.14.7-.42.7h-5.14A.49.49,0,0,1,227.61,257.76Z"/><path class="cls-1" d="M235.16,257.2a1.43,1.43,0,0,1,.32-.78c.21-.31.4-.46.55-.46a1.19,1.19,0,0,1,.36.15,3.39,3.39,0,0,0,1.69.49q1.32,0,1.32-1a.92.92,0,0,0-.42-.76,4.42,4.42,0,0,0-1-.53c-.39-.16-.79-.34-1.18-.54a2.7,2.7,0,0,1-1-.93,2.76,2.76,0,0,1-.42-1.57,2.61,2.61,0,0,1,.51-1.62,3.27,3.27,0,0,1,2.81-1.22,4.67,4.67,0,0,1,1.79.31c.49.21.73.43.73.67a1.7,1.7,0,0,1-.26.77q-.27.45-.51.45a.7.7,0,0,1-.25-.1,3.06,3.06,0,0,0-1.29-.25,1.57,1.57,0,0,0-1,.25.81.81,0,0,0-.28.63.82.82,0,0,0,.42.67,4.46,4.46,0,0,0,1,.52,12.39,12.39,0,0,1,1.19.53,2.7,2.7,0,0,1,1,.93,2.64,2.64,0,0,1,.42,1.5,3.72,3.72,0,0,1-.27,1.5,2.25,2.25,0,0,1-.75,1,3.75,3.75,0,0,1-2.27.68,5.52,5.52,0,0,1-2.25-.41C235.46,257.76,235.16,257.48,235.16,257.2Z"/><path class="cls-1" d="M247.3,257.76v-8.68a.49.49,0,0,1,.56-.56H253c.28,0,.42.24.42.7v.44c0,.47-.14.7-.42.7h-3.53v2h3.15c.28,0,.42.23.42.7v.43c0,.47-.14.7-.42.7h-3.15v2.27H253c.28,0,.42.23.42.7v.43c0,.47-.14.7-.42.7h-5.13A.49.49,0,0,1,247.3,257.76Zm2.49-10.29c-.29,0-.44-.07-.44-.21a1,1,0,0,1,.21-.44c.13-.21.26-.41.37-.61l.33-.58c.14-.26.52-.38,1.12-.38s.91.06.91.19a.3.3,0,0,1-.08.2c-.06.07-.17.2-.34.37l-.35.37-.29.32-.39.42A1.36,1.36,0,0,1,249.79,247.47Z"/><path class="cls-1" d="M257.29,257.9v-7.54h-2.22c-.28,0-.42-.23-.42-.7v-.44c0-.46.14-.7.42-.7h6.62c.28,0,.42.24.42.7v.44c0,.47-.14.7-.42.7h-2.23v7.54q0,.45-.84.45h-.49Q257.29,258.35,257.29,257.9Z"/><path class="cls-1" d="M263.7,255.05v-6.11c0-.29.28-.44.84-.44H265c.56,0,.84.15.84.44v6a1.59,1.59,0,0,0,.53,1.22,2,2,0,0,0,1.37.47,2,2,0,0,0,1.38-.47,1.57,1.57,0,0,0,.54-1.22v-6c0-.29.28-.44.84-.44H271c.56,0,.84.15.84.44v6.11a3.09,3.09,0,0,1-1.06,2.5,5.48,5.48,0,0,1-6,0A3.1,3.1,0,0,1,263.7,255.05Z"/><path class="cls-1" d="M274.27,257.76v-8.68a.5.5,0,0,1,.56-.56H278a4.27,4.27,0,0,1,3.32,1.27,6.28,6.28,0,0,1,0,7.27,4.27,4.27,0,0,1-3.32,1.26h-3.14A.49.49,0,0,1,274.27,257.76Zm2.17-1.27H278a2,2,0,0,0,1.69-.78,4.79,4.79,0,0,0,0-4.57,2,2,0,0,0-1.69-.78h-1.53Z"/><path class="cls-1" d="M284.56,257.76v-8.68a.5.5,0,0,1,.56-.56h5.13c.28,0,.42.24.42.7v.44c0,.47-.14.7-.42.7h-3.53v2h3.15c.28,0,.42.23.42.7v.43c0,.47-.14.7-.42.7h-3.15v2.27h3.54c.28,0,.42.23.42.7v.43c0,.47-.14.7-.42.7h-5.14A.49.49,0,0,1,284.56,257.76Z"/><path class="cls-1" d="M292.11,257.2a1.51,1.51,0,0,1,.32-.78c.22-.31.4-.46.55-.46a1.19,1.19,0,0,1,.36.15,3.4,3.4,0,0,0,1.7.49c.87,0,1.31-.34,1.31-1a.92.92,0,0,0-.42-.76,4.55,4.55,0,0,0-1-.53c-.4-.16-.79-.34-1.19-.54a2.67,2.67,0,0,1-1-.93,2.76,2.76,0,0,1-.42-1.57,2.6,2.6,0,0,1,.5-1.62,3.29,3.29,0,0,1,2.81-1.22,4.76,4.76,0,0,1,1.8.31c.48.21.72.43.72.67a1.7,1.7,0,0,1-.26.77q-.27.45-.51.45a.78.78,0,0,1-.25-.1,3.06,3.06,0,0,0-1.29-.25,1.6,1.6,0,0,0-1,.25.81.81,0,0,0-.28.63.82.82,0,0,0,.42.67,4.33,4.33,0,0,0,1,.52c.39.15.78.33,1.18.53a2.68,2.68,0,0,1,1.43,2.43,3.72,3.72,0,0,1-.27,1.5,2.25,2.25,0,0,1-.75,1,3.73,3.73,0,0,1-2.27.68A5.55,5.55,0,0,1,293,258C292.41,257.76,292.11,257.48,292.11,257.2Z"/><path class="cls-1" d="M305.07,257.14a6.53,6.53,0,0,1,0-7.43,4.25,4.25,0,0,1,3.34-1.3,4.2,4.2,0,0,1,3.32,1.3,6.53,6.53,0,0,1,0,7.43,4.23,4.23,0,0,1-3.32,1.3A4.28,4.28,0,0,1,305.07,257.14Zm1.63-1.35a2,2,0,0,0,1.71.81,1.94,1.94,0,0,0,1.69-.81,4.11,4.11,0,0,0,.57-2.37,4,4,0,0,0-.57-2.35,1.94,1.94,0,0,0-1.69-.81,2,2,0,0,0-1.71.81,4,4,0,0,0-.58,2.35A4.1,4.1,0,0,0,306.7,255.79Z"/><path class="cls-1" d="M315,257.9v-8.82a.5.5,0,0,1,.56-.56h2.94a3.67,3.67,0,0,1,2.54.82,2.44,2.44,0,0,1,.56.9,3.54,3.54,0,0,1,.23,1.35,3.35,3.35,0,0,1-.26,1.35,2.54,2.54,0,0,1-.64.9,3.15,3.15,0,0,1-.85.51,3.81,3.81,0,0,1-1.44.31H317.2v3.24q0,.45-.84.45h-.48Q315,258.35,315,257.9Zm2.16-5.09h1.24a1.36,1.36,0,0,0,.86-.27,1.1,1.1,0,0,0,.36-.95,1.13,1.13,0,0,0-.36-1,1.36,1.36,0,0,0-.86-.27H317.2Z"/><path class="cls-1" d="M323.58,257.76v-8.68a.5.5,0,0,1,.56-.56h5.12c.28,0,.42.24.42.7v.44c0,.47-.14.7-.42.7h-3.52v2h3.15c.28,0,.42.23.42.7v.43c0,.47-.14.7-.42.7h-3.15v2.27h3.54c.28,0,.42.23.42.7v.43c0,.47-.14.7-.42.7h-5.14A.49.49,0,0,1,323.58,257.76Zm2.49-10.29c-.29,0-.43-.07-.43-.21a1,1,0,0,1,.2-.44c.14-.21.26-.41.37-.61s.23-.39.34-.58.51-.38,1.12-.38.91.06.91.19a.37.37,0,0,1-.08.2c-.06.07-.17.2-.34.37l-.35.37-.3.32-.39.42A1.33,1.33,0,0,1,326.07,247.47Z"/><path class="cls-1" d="M331.79,257.9v-8.82a.49.49,0,0,1,.55-.56h2.74q3.48,0,3.48,2.64a2.21,2.21,0,0,1-.44,1.36,2.49,2.49,0,0,1-1.2.86v.06a1.27,1.27,0,0,1,.55.47,3.28,3.28,0,0,1,.46.82l1.23,3.08a.77.77,0,0,1,.07.26c0,.19-.28.28-.84.28h-.57c-.47,0-.74-.1-.81-.29l-1.11-2.73a1.71,1.71,0,0,0-.51-.65,1.58,1.58,0,0,0-.9-.19h-.55v3.41q0,.45-.84.45h-.48C332.07,258.35,331.79,258.2,331.79,257.9Zm2.15-5.27h1.33a1,1,0,0,0,.76-.35,1.25,1.25,0,0,0,.32-.85,1,1,0,0,0-.32-.78,1.18,1.18,0,0,0-.86-.29h-1.23Z"/><path class="cls-1" d="M339.92,258a2,2,0,0,1,.05-.25l3.08-9c.08-.2.35-.29.8-.29h.73c.46,0,.72.09.8.29l3.08,9a.85.85,0,0,1,0,.25c0,.21-.23.31-.7.31h-.62c-.45,0-.71-.1-.78-.29l-.56-1.71h-3.3l-.56,1.71c-.07.19-.28.29-.65.29h-.56C340.2,258.35,339.92,258.25,339.92,258Zm3.22-3.54h2.1l-.8-2.49-.21-.9h-.06a6.13,6.13,0,0,1-.21.9Z"/><path class="cls-1" d="M351.82,257.9v-7.54h-2.23c-.28,0-.42-.23-.42-.7v-.44c0-.46.14-.7.42-.7h6.62c.29,0,.42.24.42.7v.44c0,.47-.13.7-.42.7H354v7.54q0,.45-.84.45h-.49Q351.82,258.35,351.82,257.9Z"/><path class="cls-1" d="M358.19,257.9v-9c0-.3.28-.46.84-.46h.49c.56,0,.84.16.84.46v9c0,.31-.28.47-.84.47H359C358.47,258.37,358.19,258.21,358.19,257.9Z"/><path class="cls-1" d="M363.61,257.14a6.48,6.48,0,0,1,0-7.43,4.9,4.9,0,0,1,6.65,0,6.53,6.53,0,0,1,0,7.43,4.9,4.9,0,0,1-6.65,0Zm1.63-1.35a2.18,2.18,0,0,0,3.39,0,4,4,0,0,0,.58-2.37,4,4,0,0,0-.58-2.35,2.18,2.18,0,0,0-3.39,0,4,4,0,0,0-.58,2.35A4,4,0,0,0,365.24,255.79Z"/><path class="cls-1" d="M373.57,257.9v-9c0-.29.28-.44.85-.44h.6a1,1,0,0,1,.92.37l3.68,5.67v-5.6c0-.29.28-.44.84-.44h.41c.56,0,.84.15.84.44v9q0,.45-.84.45h-.53a1,1,0,0,1-.93-.38l-3.75-5.74v5.67q0,.45-.84.45h-.4C373.85,258.35,373.57,258.2,373.57,257.9Z"/><path class="cls-1" d="M384.2,257.9v-9c0-.29.28-.44.84-.44h.6a1,1,0,0,1,.93.37l3.68,5.67v-5.6c0-.29.28-.44.84-.44h.4c.56,0,.84.15.84.44v9q0,.45-.84.45H391A1,1,0,0,1,390,258l-3.75-5.74v5.67q0,.45-.84.45H385Q384.2,258.35,384.2,257.9Z"/><path class="cls-1" d="M394.83,257.76v-8.68a.49.49,0,0,1,.56-.56h5.12c.28,0,.42.24.42.7v.44c0,.47-.14.7-.42.7H397v2h3.15c.28,0,.42.23.42.7v.43c0,.47-.14.7-.42.7H397v2.27h3.54c.28,0,.42.23.42.7v.43c0,.47-.14.7-.42.7h-5.13A.49.49,0,0,1,394.83,257.76Z"/><path class="cls-1" d="M403,257.76v-8.82c0-.29.28-.44.84-.44h.48c.56,0,.84.15.84.44v7.55h3.12c.28,0,.42.23.42.7v.43c0,.47-.14.7-.42.7h-4.72A.49.49,0,0,1,403,257.76Z"/><path class="cls-1" d="M410.37,257.76v-8.82c0-.29.28-.44.84-.44h.47c.56,0,.84.15.84.44v7.55h3.12c.28,0,.42.23.42.7v.43c0,.47-.14.7-.42.7h-4.71A.49.49,0,0,1,410.37,257.76Z"/><path class="cls-1" d="M417.7,257.76v-8.68a.5.5,0,0,1,.56-.56h5.13c.28,0,.42.24.42.7v.44c0,.47-.14.7-.42.7h-3.53v2H423c.28,0,.42.23.42.7v.43c0,.47-.14.7-.42.7h-3.15v2.27h3.54c.28,0,.42.23.42.7v.43c0,.47-.14.7-.42.7h-5.14A.49.49,0,0,1,417.7,257.76Z"/><path class="cls-1" d="M425.25,257.2a1.51,1.51,0,0,1,.32-.78c.22-.31.4-.46.55-.46a1.19,1.19,0,0,1,.36.15,3.39,3.39,0,0,0,1.69.49q1.32,0,1.32-1a.92.92,0,0,0-.42-.76,4.55,4.55,0,0,0-1-.53c-.4-.16-.8-.34-1.19-.54a2.7,2.7,0,0,1-1-.93,2.76,2.76,0,0,1-.42-1.57,2.61,2.61,0,0,1,.51-1.62,3.27,3.27,0,0,1,2.81-1.22,4.67,4.67,0,0,1,1.79.31c.49.21.73.43.73.67a1.7,1.7,0,0,1-.26.77q-.27.45-.51.45a.7.7,0,0,1-.25-.1,3.08,3.08,0,0,0-1.3-.25,1.57,1.57,0,0,0-1,.25.81.81,0,0,0-.28.63.82.82,0,0,0,.42.67,4.46,4.46,0,0,0,1,.52,12.39,12.39,0,0,1,1.19.53,2.7,2.7,0,0,1,1,.93,2.64,2.64,0,0,1,.42,1.5,3.72,3.72,0,0,1-.27,1.5,2.25,2.25,0,0,1-.75,1,3.75,3.75,0,0,1-2.27.68,5.52,5.52,0,0,1-2.25-.41C425.55,257.76,425.25,257.48,425.25,257.2Z"/><path class="cls-1" d="M250.49,278.76v-8.68a.49.49,0,0,1,.56-.56h5.12c.28,0,.42.24.42.7v.44c0,.47-.14.7-.42.7h-3.53v2h3.15c.28,0,.42.23.42.7v.43c0,.47-.14.7-.42.7h-3.15v2.27h3.55c.27,0,.42.23.42.7v.43c0,.47-.15.7-.42.7h-5.14A.49.49,0,0,1,250.49,278.76Z"/><path class="cls-1" d="M260.48,278.9v-7.54h-2.22c-.28,0-.42-.23-.42-.7v-.44c0-.46.14-.7.42-.7h6.62c.28,0,.42.24.42.7v.44c0,.47-.14.7-.42.7h-2.23v7.54q0,.45-.84.45h-.49Q260.48,279.35,260.48,278.9Z"/><path class="cls-1" d="M270.86,278.76v-8.82c0-.29.28-.44.84-.44h.47c.56,0,.84.15.84.44v7.55h3.13c.28,0,.42.23.42.7v.43c0,.47-.14.7-.42.7h-4.72A.49.49,0,0,1,270.86,278.76Z"/><path class="cls-1" d="M278.19,278.76v-8.68a.5.5,0,0,1,.56-.56h5.13c.28,0,.42.24.42.7v.44c0,.47-.14.7-.42.7h-3.53v2h3.15c.28,0,.42.23.42.7v.43c0,.47-.14.7-.42.7h-3.15v2.27h3.54c.28,0,.42.23.42.7v.43c0,.47-.14.7-.42.7h-5.14A.49.49,0,0,1,278.19,278.76Z"/><path class="cls-1" d="M285.74,278.2a1.51,1.51,0,0,1,.32-.78c.22-.31.4-.46.55-.46a1.19,1.19,0,0,1,.36.15,3.4,3.4,0,0,0,1.7.49c.87,0,1.31-.34,1.31-1a.92.92,0,0,0-.42-.76,4.55,4.55,0,0,0-1-.53c-.4-.16-.8-.34-1.19-.54a2.7,2.7,0,0,1-1-.93,2.84,2.84,0,0,1-.42-1.57,2.61,2.61,0,0,1,.51-1.62,3.29,3.29,0,0,1,2.81-1.22,4.67,4.67,0,0,1,1.79.31c.49.21.73.43.73.67a1.7,1.7,0,0,1-.26.77q-.27.45-.51.45a.78.78,0,0,1-.25-.1,3.06,3.06,0,0,0-1.29-.25,1.58,1.58,0,0,0-1,.25.81.81,0,0,0-.28.63.82.82,0,0,0,.42.67,4.33,4.33,0,0,0,1,.52c.39.15.78.33,1.18.53a2.7,2.7,0,0,1,1,.93,2.64,2.64,0,0,1,.42,1.5,3.72,3.72,0,0,1-.27,1.5,2.25,2.25,0,0,1-.75,1,3.75,3.75,0,0,1-2.27.68,5.55,5.55,0,0,1-2.25-.41C286,278.76,285.74,278.48,285.74,278.2Z"/><path class="cls-1" d="M297.54,274.4q0-5,4.68-5a7.16,7.16,0,0,1,2,.28c.64.19.95.42.95.7a1.6,1.6,0,0,1-.33.81c-.22.34-.41.51-.58.51l-.29-.11a4.11,4.11,0,0,0-1.77-.34c-1.61,0-2.42,1.06-2.42,3.17s.8,3.17,2.4,3.17a4.63,4.63,0,0,0,1.93-.42,1.93,1.93,0,0,1,.36-.14c.2,0,.39.16.56.49a1.69,1.69,0,0,1,.27.73c0,.37-.35.66-1,.87a7.43,7.43,0,0,1-2.08.31,4.5,4.5,0,0,1-3.48-1.23A5.51,5.51,0,0,1,297.54,274.4Z"/><path class="cls-1" d="M307.93,278.14a6.53,6.53,0,0,1,0-7.43,4.91,4.91,0,0,1,6.66,0,6.58,6.58,0,0,1,0,7.43,4.91,4.91,0,0,1-6.66,0Zm1.63-1.35a2.19,2.19,0,0,0,3.4,0,4.11,4.11,0,0,0,.57-2.37,4,4,0,0,0-.57-2.35,2.19,2.19,0,0,0-3.4,0,4,4,0,0,0-.58,2.35A4,4,0,0,0,309.56,276.79Z"/><path class="cls-1" d="M317.9,278.9v-9c0-.29.28-.44.84-.44h.6a1,1,0,0,1,.92.37l3.69,5.67v-5.6c0-.29.27-.44.84-.44h.4c.56,0,.84.15.84.44v9q0,.45-.84.45h-.53a1,1,0,0,1-.92-.38L320,273.23v5.67q0,.45-.84.45h-.4Q317.9,279.35,317.9,278.9Z"/><path class="cls-1" d="M328.52,278.9v-8.82a.5.5,0,0,1,.56-.56h2.73q3.49,0,3.49,2.64a2.21,2.21,0,0,1-.44,1.36,2.53,2.53,0,0,1-1.2.86v.06a1.27,1.27,0,0,1,.55.47,3.62,3.62,0,0,1,.46.82l1.23,3.08a.77.77,0,0,1,.07.26c0,.19-.28.28-.84.28h-.57c-.47,0-.74-.1-.81-.29l-1.11-2.73a1.71,1.71,0,0,0-.51-.65,1.62,1.62,0,0,0-.91-.19h-.54v3.41q0,.45-.84.45h-.48Q328.52,279.35,328.52,278.9Zm2.16-5.27H332a1,1,0,0,0,.75-.35,1.21,1.21,0,0,0,.33-.85,1,1,0,0,0-.32-.78,1.2,1.2,0,0,0-.86-.29h-1.23Z"/><path class="cls-1" d="M337.54,278.9v-9c0-.3.28-.46.84-.46h.49c.56,0,.84.16.84.46v9c0,.31-.28.47-.84.47h-.49C337.82,279.37,337.54,279.21,337.54,278.9Z"/><path class="cls-1" d="M342.13,278.76v-8.68a.5.5,0,0,1,.56-.56h2.77a3.91,3.91,0,0,1,2.51.66,2.25,2.25,0,0,1,.8,1.82,2.12,2.12,0,0,1-.43,1.28,2.52,2.52,0,0,1-1.09.85l0,.06a2.28,2.28,0,0,1,1.36.82,2.31,2.31,0,0,1,.53,1.47,2.58,2.58,0,0,1-.88,2.11,4,4,0,0,1-2.62.73h-3A.49.49,0,0,1,342.13,278.76Zm2.16-5.33h1a1.47,1.47,0,0,0,1-.29,1,1,0,0,0,.34-.76c0-.69-.42-1-1.27-1h-1Zm0,4.06h1.37a1.42,1.42,0,0,0,.95-.29,1.08,1.08,0,0,0,.34-.84c0-.73-.51-1.1-1.52-1.1h-1.14Z"/><path class="cls-1" d="M351,276.05v-6.11c0-.29.28-.44.84-.44h.48c.56,0,.84.15.84.44v6a1.56,1.56,0,0,0,.53,1.22,2,2,0,0,0,1.37.47,2,2,0,0,0,1.38-.47,1.57,1.57,0,0,0,.54-1.22v-6c0-.29.28-.44.84-.44h.46c.56,0,.84.15.84.44v6.11a3.12,3.12,0,0,1-1.06,2.5,5.5,5.5,0,0,1-6,0A3.09,3.09,0,0,1,351,276.05Z"/><path class="cls-1" d="M363.31,278.9v-7.54h-2.22c-.28,0-.42-.23-.42-.7v-.44c0-.46.14-.7.42-.7h6.62c.28,0,.42.24.42.7v.44c0,.47-.14.7-.42.7h-2.23v7.54q0,.45-.84.45h-.49Q363.31,279.35,363.31,278.9Z"/><path class="cls-1" d="M369.68,278.9v-9c0-.3.28-.46.84-.46H371c.56,0,.84.16.84.46v9c0,.31-.28.47-.84.47h-.49C370,279.37,369.68,279.21,369.68,278.9Z"/><path class="cls-1" d="M375.1,278.14a6.53,6.53,0,0,1,0-7.43,4.91,4.91,0,0,1,6.66,0,6.58,6.58,0,0,1,0,7.43,4.91,4.91,0,0,1-6.66,0Zm1.63-1.35a2,2,0,0,0,1.7.81,1.93,1.93,0,0,0,1.69-.81,4,4,0,0,0,.58-2.37,4,4,0,0,0-.58-2.35,1.93,1.93,0,0,0-1.69-.81,2,2,0,0,0-1.7.81,4,4,0,0,0-.58,2.35A4,4,0,0,0,376.73,276.79Z"/><path class="cls-1" d="M385.07,278.9v-9c0-.29.28-.44.84-.44h.6a1,1,0,0,1,.92.37l3.69,5.67v-5.6c0-.29.28-.44.84-.44h.4c.56,0,.84.15.84.44v9q0,.45-.84.45h-.53a1,1,0,0,1-.92-.38l-3.76-5.74v5.67q0,.45-.84.45h-.4Q385.07,279.35,385.07,278.9Z"/><path class="cls-1" d="M395,278.2a1.43,1.43,0,0,1,.32-.78c.21-.31.39-.46.54-.46a1.12,1.12,0,0,1,.37.15,3.39,3.39,0,0,0,1.69.49q1.32,0,1.32-1a.92.92,0,0,0-.42-.76,4.42,4.42,0,0,0-1-.53c-.39-.16-.79-.34-1.18-.54a2.7,2.7,0,0,1-1-.93,2.76,2.76,0,0,1-.42-1.57,2.61,2.61,0,0,1,.51-1.62,3.27,3.27,0,0,1,2.81-1.22,4.67,4.67,0,0,1,1.79.31c.49.21.73.43.73.67a1.62,1.62,0,0,1-.27.77c-.17.3-.34.45-.5.45a.7.7,0,0,1-.25-.1,3.14,3.14,0,0,0-1.3-.25,1.55,1.55,0,0,0-1,.25.78.78,0,0,0,.13,1.3,4.54,4.54,0,0,0,1,.52,12.24,12.24,0,0,1,1.18.53,2.67,2.67,0,0,1,1.44,2.43,3.72,3.72,0,0,1-.27,1.5,2.41,2.41,0,0,1-.75,1,3.75,3.75,0,0,1-2.27.68A5.48,5.48,0,0,1,396,279C395.34,278.76,395,278.48,395,278.2Z"/><path class="cls-1" d="M228.65,300a1.28,1.28,0,0,1,.06-.25l3.08-9c.08-.2.34-.29.8-.29h.73c.45,0,.72.09.79.29l3.08,9a.92.92,0,0,1,.05.25c0,.21-.24.31-.7.31h-.62c-.46,0-.72-.1-.78-.29l-.56-1.71h-3.31l-.56,1.71c-.06.19-.28.29-.64.29h-.56C228.94,300.35,228.65,300.25,228.65,300Zm3.23-3.54H234l-.79-2.49-.21-.9h-.06a6.13,6.13,0,0,1-.21.9Z"/><path class="cls-1" d="M238.72,297.05v-6.11c0-.29.28-.44.84-.44H240c.56,0,.84.15.84.44v6a1.56,1.56,0,0,0,.53,1.22,2,2,0,0,0,1.37.47,2,2,0,0,0,1.38-.47,1.57,1.57,0,0,0,.54-1.22v-6c0-.29.28-.44.84-.44H246c.56,0,.84.15.84.44v6.11a3.09,3.09,0,0,1-1.06,2.5,5.5,5.5,0,0,1-6,0A3.12,3.12,0,0,1,238.72,297.05Z"/><path class="cls-1" d="M248.44,300.09a.66.66,0,0,1,.14-.35l2.88-4.53-2.56-4.1a.73.73,0,0,1-.14-.35c0-.17.3-.26.89-.26h.58c.46,0,.74.09.84.26l1.59,2.61,1.68-2.61c.12-.17.4-.26.86-.26h.54c.59,0,.89.09.89.26a.63.63,0,0,1-.14.35l-2.65,4.13,2.8,4.5a.76.76,0,0,1,.13.35c0,.17-.3.26-.89.26h-.54c-.46,0-.74-.09-.84-.26l-1.86-3-1.94,3c-.12.17-.4.26-.85.26h-.53C248.73,300.35,248.44,300.26,248.44,300.09Z"/><path class="cls-1" d="M262.32,299.9v-8.82a.5.5,0,0,1,.56-.56h2.94a3.66,3.66,0,0,1,2.54.82,2.44,2.44,0,0,1,.56.9,3.54,3.54,0,0,1,.24,1.35,3.19,3.19,0,0,1-.27,1.35,2.54,2.54,0,0,1-.64.9,3.09,3.09,0,0,1-.84.51,3.9,3.9,0,0,1-1.45.31h-1.48v3.24q0,.45-.84.45h-.48Q262.32,300.35,262.32,299.9Zm2.16-5.09h1.25a1.4,1.4,0,0,0,.86-.27,1.09,1.09,0,0,0,.35-1,1.13,1.13,0,0,0-.35-1,1.4,1.4,0,0,0-.86-.27h-1.25Z"/><path class="cls-1" d="M271.69,299.14a6.53,6.53,0,0,1,0-7.43,4.91,4.91,0,0,1,6.66,0,6.58,6.58,0,0,1,0,7.43,4.91,4.91,0,0,1-6.66,0Zm1.63-1.35a2.19,2.19,0,0,0,3.4,0,4.11,4.11,0,0,0,.57-2.37,4,4,0,0,0-.57-2.35,2.19,2.19,0,0,0-3.4,0,4,4,0,0,0-.58,2.35A4,4,0,0,0,273.32,297.79Z"/><path class="cls-1" d="M281.66,299.76v-8.82c0-.29.28-.44.84-.44H283c.56,0,.84.15.84.44v7.55h3.13c.28,0,.42.23.42.7v.43c0,.47-.14.7-.42.7h-4.72A.49.49,0,0,1,281.66,299.76Z"/><path class="cls-1" d="M288.91,299.9v-9c0-.3.28-.46.84-.46h.49c.56,0,.84.16.84.46v9c0,.31-.28.47-.84.47h-.49C289.19,300.37,288.91,300.21,288.91,299.9Z"/><path class="cls-1" d="M295.29,299.9v-7.54h-2.22c-.28,0-.42-.23-.42-.7v-.44c0-.46.14-.7.42-.7h6.62c.28,0,.42.24.42.7v.44c0,.47-.14.7-.42.7h-2.23v7.54q0,.45-.84.45h-.49Q295.29,300.35,295.29,299.9Z"/><path class="cls-1" d="M301.66,299.9v-9c0-.3.28-.46.84-.46H303c.56,0,.84.16.84.46v9c0,.31-.28.47-.84.47h-.49C301.94,300.37,301.66,300.21,301.66,299.9Z"/><path class="cls-1" d="M305.92,295.42a5.39,5.39,0,0,1,1.16-3.71,4.91,4.91,0,0,1,6.66,0,5.39,5.39,0,0,1,1.15,3.71c0,2.23-.73,3.71-2.19,4.47V300l2.14.77a.26.26,0,0,1,.19.28,2.5,2.5,0,0,1-.24.79c-.15.39-.33.58-.53.58s-.69-.25-1.92-.74l-3.87-1.53a3.63,3.63,0,0,1-1.9-1.68A6.23,6.23,0,0,1,305.92,295.42Zm2.79,2.41a2.16,2.16,0,0,0,3.4,0,4.2,4.2,0,0,0,.57-2.39,4.06,4.06,0,0,0-.57-2.37,2.19,2.19,0,0,0-3.4,0,4.06,4.06,0,0,0-.58,2.37A4.19,4.19,0,0,0,308.71,297.83Z"/><path class="cls-1" d="M317,297.05v-6.11c0-.29.28-.44.84-.44h.47c.56,0,.84.15.84.44v6a1.57,1.57,0,0,0,.54,1.22,2,2,0,0,0,1.37.47,2,2,0,0,0,1.38-.47,1.57,1.57,0,0,0,.54-1.22v-6c0-.29.28-.44.84-.44h.46c.56,0,.84.15.84.44v6.11a3.1,3.1,0,0,1-1.07,2.5,5.48,5.48,0,0,1-6,0A3.09,3.09,0,0,1,317,297.05Z"/><path class="cls-1" d="M327.58,299.76v-8.68a.49.49,0,0,1,.56-.56h5.12c.28,0,.42.24.42.7v.44c0,.47-.14.7-.42.7h-3.53v2h3.15c.28,0,.42.23.42.7v.43c0,.47-.14.7-.42.7h-3.15v2.27h3.55c.27,0,.42.23.42.7v.43c0,.47-.15.7-.42.7h-5.14A.49.49,0,0,1,327.58,299.76Z"/><path class="cls-1" d="M335.12,299.2a1.51,1.51,0,0,1,.32-.78c.22-.31.4-.46.55-.46a1,1,0,0,1,.36.15,3.43,3.43,0,0,0,1.7.49c.88,0,1.31-.34,1.31-1a.92.92,0,0,0-.42-.76,4.15,4.15,0,0,0-1-.53c-.4-.16-.79-.34-1.18-.54a2.63,2.63,0,0,1-1-.93,2.76,2.76,0,0,1-.42-1.57,2.67,2.67,0,0,1,.5-1.62,3.3,3.3,0,0,1,2.82-1.22,4.71,4.71,0,0,1,1.79.31c.48.21.73.43.73.67a1.62,1.62,0,0,1-.27.77c-.18.3-.35.45-.5.45a.8.8,0,0,1-.26-.1,3.06,3.06,0,0,0-1.29-.25,1.55,1.55,0,0,0-1,.25.78.78,0,0,0,.13,1.3,4.54,4.54,0,0,0,1,.52,12.24,12.24,0,0,1,1.18.53,2.67,2.67,0,0,1,1.44,2.43,3.56,3.56,0,0,1-.28,1.5,2.25,2.25,0,0,1-.75,1,3.72,3.72,0,0,1-2.26.68A5.57,5.57,0,0,1,336,300C335.43,299.76,335.12,299.48,335.12,299.2Z"/><path class="cls-1" d="M347.26,299.9v-8.82a.5.5,0,0,1,.56-.56h2.94a3.63,3.63,0,0,1,2.53.82,2.33,2.33,0,0,1,.57.9,3.54,3.54,0,0,1,.23,1.35,3.35,3.35,0,0,1-.26,1.35,2.54,2.54,0,0,1-.64.9,3.15,3.15,0,0,1-.85.51,3.81,3.81,0,0,1-1.44.31h-1.48v3.24q0,.45-.84.45h-.48Q347.26,300.35,347.26,299.9Zm2.16-5.09h1.24a1.36,1.36,0,0,0,.86-.27,1.1,1.1,0,0,0,.36-1,1.13,1.13,0,0,0-.36-1,1.36,1.36,0,0,0-.86-.27h-1.24Z"/><path class="cls-1" d="M355.76,297.05v-6.11c0-.29.28-.44.84-.44h.48c.55,0,.84.15.84.44v6a1.56,1.56,0,0,0,.53,1.22,2,2,0,0,0,1.37.47,2,2,0,0,0,1.38-.47,1.57,1.57,0,0,0,.54-1.22v-6c0-.29.28-.44.84-.44H363c.56,0,.84.15.84.44v6.11a3.1,3.1,0,0,1-1.07,2.5,4.52,4.52,0,0,1-3,.89,4.57,4.57,0,0,1-3-.89A3.09,3.09,0,0,1,355.76,297.05Z"/><path class="cls-1" d="M366.33,299.76v-8.68a.5.5,0,0,1,.56-.56h2.77a3.92,3.92,0,0,1,2.51.66A2.24,2.24,0,0,1,373,293a2.11,2.11,0,0,1-.42,1.28,2.52,2.52,0,0,1-1.09.85l0,.06a2.23,2.23,0,0,1,1.35.82,2.26,2.26,0,0,1,.54,1.47,2.61,2.61,0,0,1-.88,2.11,4,4,0,0,1-2.62.73h-3A.49.49,0,0,1,366.33,299.76Zm2.15-5.33h1a1.47,1.47,0,0,0,1-.29,1,1,0,0,0,.34-.76c0-.69-.42-1-1.27-1h-1Zm0,4.06h1.38a1.44,1.44,0,0,0,.95-.29,1.08,1.08,0,0,0,.33-.84c0-.73-.5-1.1-1.51-1.1h-1.15Z"/><path class="cls-1" d="M375.19,299.76v-8.82c0-.29.28-.44.84-.44h.48c.56,0,.84.15.84.44v7.55h3.12c.28,0,.42.23.42.7v.43c0,.47-.14.7-.42.7h-4.72A.49.49,0,0,1,375.19,299.76Z"/><path class="cls-1" d="M382.44,299.9v-9c0-.3.28-.46.84-.46h.49c.56,0,.84.16.84.46v9c0,.31-.28.47-.84.47h-.49C382.72,300.37,382.44,300.21,382.44,299.9Z"/><path class="cls-1" d="M386.7,295.42a5.34,5.34,0,0,1,1.16-3.71,4.91,4.91,0,0,1,6.66,0,5.39,5.39,0,0,1,1.15,3.71c0,2.23-.73,3.71-2.2,4.47V300l2.15.77a.26.26,0,0,1,.19.28,2.5,2.5,0,0,1-.24.79c-.15.39-.33.58-.53.58s-.7-.25-1.92-.74l-3.87-1.53a3.63,3.63,0,0,1-1.9-1.68A6.23,6.23,0,0,1,386.7,295.42Zm2.79,2.41a2.16,2.16,0,0,0,3.4,0,4.2,4.2,0,0,0,.57-2.39,4.06,4.06,0,0,0-.57-2.37,2.19,2.19,0,0,0-3.4,0,4,4,0,0,0-.58,2.37A4.12,4.12,0,0,0,389.49,297.83Z"/><path class="cls-1" d="M397.79,297.05v-6.11c0-.29.28-.44.84-.44h.47c.56,0,.84.15.84.44v6a1.59,1.59,0,0,0,.53,1.22,2,2,0,0,0,1.38.47,2,2,0,0,0,1.37-.47,1.57,1.57,0,0,0,.54-1.22v-6c0-.29.28-.44.84-.44h.47c.56,0,.84.15.84.44v6.11a3.1,3.1,0,0,1-1.07,2.5,5.48,5.48,0,0,1-6,0A3.09,3.09,0,0,1,397.79,297.05Z"/><path class="cls-1" d="M408.36,299.76v-8.68a.49.49,0,0,1,.56-.56H414c.28,0,.42.24.42.7v.44c0,.47-.14.7-.42.7h-3.53v2h3.15c.28,0,.42.23.42.7v.43c0,.47-.14.7-.42.7h-3.15v2.27h3.54c.28,0,.42.23.42.7v.43c0,.47-.14.7-.42.7h-5.13A.49.49,0,0,1,408.36,299.76Z"/><path class="cls-1" d="M415.9,299.2a1.51,1.51,0,0,1,.32-.78c.22-.31.4-.46.55-.46a1,1,0,0,1,.36.15,3.43,3.43,0,0,0,1.7.49c.88,0,1.31-.34,1.31-1a.92.92,0,0,0-.42-.76,4.34,4.34,0,0,0-1-.53c-.4-.16-.79-.34-1.18-.54a2.63,2.63,0,0,1-1-.93,2.76,2.76,0,0,1-.42-1.57,2.67,2.67,0,0,1,.5-1.62,3.3,3.3,0,0,1,2.82-1.22,4.74,4.74,0,0,1,1.79.31c.48.21.73.43.73.67a1.62,1.62,0,0,1-.27.77c-.18.3-.35.45-.5.45a.72.72,0,0,1-.26-.1,3.06,3.06,0,0,0-1.29-.25,1.55,1.55,0,0,0-1,.25.78.78,0,0,0,.13,1.3,4.54,4.54,0,0,0,1,.52c.39.15.78.33,1.18.53a2.67,2.67,0,0,1,1.44,2.43,3.72,3.72,0,0,1-.28,1.5,2.25,2.25,0,0,1-.75,1,3.72,3.72,0,0,1-2.26.68,5.57,5.57,0,0,1-2.26-.41C416.21,299.76,415.9,299.48,415.9,299.2Z"/><path class="cls-1" d="M236.06,80.76V71.94c0-.29.28-.44.84-.44h.47c.56,0,.84.15.84.44v7.55h3.12c.28,0,.42.23.42.7v.43c0,.47-.14.7-.42.7h-4.71A.49.49,0,0,1,236.06,80.76Z"/><path class="cls-1" d="M243.39,80.76V72.08a.5.5,0,0,1,.56-.56h5.13c.28,0,.42.24.42.7v.44c0,.47-.14.7-.42.7h-3.53v2h3.15c.28,0,.42.23.42.7v.43c0,.47-.14.7-.42.7h-3.15v2.27h3.54c.28,0,.42.23.42.7v.43c0,.47-.14.7-.42.7H244A.49.49,0,0,1,243.39,80.76Z"/><path class="cls-1" d="M255.18,76.4q0-5,4.68-5a7.16,7.16,0,0,1,2,.28c.63.19.95.42.95.7a1.6,1.6,0,0,1-.33.81c-.22.34-.41.51-.58.51a1.75,1.75,0,0,1-.29-.11,4.14,4.14,0,0,0-1.77-.34c-1.61,0-2.42,1.06-2.42,3.17s.8,3.17,2.4,3.17a4.63,4.63,0,0,0,1.93-.42,1.69,1.69,0,0,1,.36-.14c.2,0,.38.16.56.49a1.69,1.69,0,0,1,.27.73c0,.37-.35.66-1,.87a7.43,7.43,0,0,1-2.08.31,4.5,4.5,0,0,1-3.48-1.23A5.51,5.51,0,0,1,255.18,76.4Z"/><path class="cls-1" d="M265.57,80.14a6.53,6.53,0,0,1,0-7.43,4.91,4.91,0,0,1,6.66,0,6.58,6.58,0,0,1,0,7.43,4.91,4.91,0,0,1-6.66,0Zm1.63-1.35a2,2,0,0,0,1.7.81,1.93,1.93,0,0,0,1.69-.81,4,4,0,0,0,.58-2.37,4,4,0,0,0-.58-2.35,1.93,1.93,0,0,0-1.69-.81,2,2,0,0,0-1.7.81,4,4,0,0,0-.58,2.35A4,4,0,0,0,267.2,78.79Z"/><path class="cls-1" d="M275.54,80.9v-9c0-.29.28-.44.84-.44h.6a1,1,0,0,1,.92.37l3.68,5.67v-5.6c0-.29.28-.44.84-.44h.41c.56,0,.84.15.84.44v9q0,.45-.84.45h-.53a1,1,0,0,1-.93-.38l-3.75-5.74V80.9q0,.45-.84.45h-.4Q275.54,81.35,275.54,80.9Z"/><path class="cls-1" d="M285.5,80.2a1.46,1.46,0,0,1,.33-.78c.21-.31.39-.46.54-.46a1.12,1.12,0,0,1,.37.15,3.37,3.37,0,0,0,1.69.49q1.32,0,1.32-1a.92.92,0,0,0-.42-.76,4.42,4.42,0,0,0-1-.53c-.4-.16-.79-.34-1.18-.54a2.7,2.7,0,0,1-1-.93,2.76,2.76,0,0,1-.42-1.57,2.67,2.67,0,0,1,.5-1.62A3.3,3.3,0,0,1,289,71.41a4.71,4.71,0,0,1,1.79.31c.48.21.73.43.73.67a1.62,1.62,0,0,1-.27.77c-.18.3-.34.45-.5.45a.7.7,0,0,1-.25-.1,3.14,3.14,0,0,0-1.3-.25,1.55,1.55,0,0,0-1,.25.78.78,0,0,0,.13,1.3,4.54,4.54,0,0,0,1,.52,12.24,12.24,0,0,1,1.18.53A2.67,2.67,0,0,1,292,78.29a3.56,3.56,0,0,1-.28,1.5,2.31,2.31,0,0,1-.74,1,3.77,3.77,0,0,1-2.27.68,5.57,5.57,0,0,1-2.26-.41C285.81,80.76,285.5,80.48,285.5,80.2Z"/><path class="cls-1" d="M293.72,80.76V72.08a.5.5,0,0,1,.56-.56h5.13c.28,0,.42.24.42.7v.44c0,.47-.14.7-.42.7h-3.53v2H299c.28,0,.42.23.42.7v.43c0,.47-.14.7-.42.7h-3.15v2.27h3.54c.28,0,.42.23.42.7v.43c0,.47-.14.7-.42.7h-5.14A.49.49,0,0,1,293.72,80.76Z"/><path class="cls-1" d="M301.84,80.9v-9c0-.3.28-.46.84-.46h.49c.56,0,.84.16.84.46v9c0,.31-.28.47-.84.47h-.49C302.12,81.37,301.84,81.21,301.84,80.9Z"/><path class="cls-1" d="M306.43,80.76V71.94c0-.29.28-.44.84-.44h.48c.56,0,.84.15.84.44v7.55h3.12c.28,0,.42.23.42.7v.43c0,.47-.14.7-.42.7H307A.49.49,0,0,1,306.43,80.76Z"/><path class="cls-1" d="M317.61,80.9v-9c0-.3.28-.46.84-.46h.49c.56,0,.84.16.84.46v9c0,.31-.28.47-.84.47h-.49C317.89,81.37,317.61,81.21,317.61,80.9Z"/><path class="cls-1" d="M322.2,80.9v-9c0-.29.28-.44.84-.44h.6a1,1,0,0,1,.92.37l3.69,5.67v-5.6c0-.29.28-.44.83-.44h.41c.56,0,.84.15.84.44v9q0,.45-.84.45H329A1,1,0,0,1,328,81l-3.76-5.74V80.9q0,.45-.84.45H323Q322.2,81.35,322.2,80.9Z"/><path class="cls-1" d="M332.82,80.76V72.08a.5.5,0,0,1,.56-.56h3.14a4.29,4.29,0,0,1,3.32,1.27,6.28,6.28,0,0,1,0,7.27,4.28,4.28,0,0,1-3.32,1.26h-3.14A.49.49,0,0,1,332.82,80.76ZM335,79.49h1.53a2,2,0,0,0,1.69-.78,4.79,4.79,0,0,0,0-4.57,2,2,0,0,0-1.69-.78H335Z"/><path class="cls-1" d="M343,80.9v-9c0-.3.28-.46.84-.46h.49c.56,0,.84.16.84.46v9c0,.31-.28.47-.84.47h-.49C343.31,81.37,343,81.21,343,80.9Z"/><path class="cls-1" d="M346.72,71.8c0-.2.29-.3.86-.3H348c.47,0,.74.13.83.4l2,6.55H351l2.1-6.55c.09-.27.37-.4.82-.4h.44q.84,0,.84.3a.91.91,0,0,1-.05.26l-3,9c-.06.19-.33.29-.78.29h-.73c-.46,0-.72-.1-.79-.29l-3-9A1.18,1.18,0,0,1,346.72,71.8Z"/><path class="cls-1" d="M356.73,80.9v-9c0-.3.28-.46.84-.46h.49c.56,0,.84.16.84.46v9c0,.31-.28.47-.84.47h-.49C357,81.37,356.73,81.21,356.73,80.9Z"/><path class="cls-1" d="M361.33,80.76V72.08a.49.49,0,0,1,.56-.56H365a4.3,4.3,0,0,1,3.33,1.27,6.32,6.32,0,0,1,0,7.27A4.29,4.29,0,0,1,365,81.32h-3.13A.49.49,0,0,1,361.33,80.76Zm2.17-1.27H365a2,2,0,0,0,1.7-.78,4.87,4.87,0,0,0,0-4.57,2,2,0,0,0-1.7-.78H363.5Z"/><path class="cls-1" d="M371.57,78.05V71.94c0-.29.28-.44.84-.44h.48c.56,0,.84.15.84.44v6a1.59,1.59,0,0,0,.53,1.22,2,2,0,0,0,1.37.47,2,2,0,0,0,1.38-.47,1.57,1.57,0,0,0,.54-1.22v-6c0-.29.28-.44.84-.44h.46c.56,0,.84.15.84.44v6.11a3.09,3.09,0,0,1-1.06,2.5,5.48,5.48,0,0,1-6,0A3.1,3.1,0,0,1,371.57,78.05Z"/><path class="cls-1" d="M382.14,80.76V72.08a.5.5,0,0,1,.56-.56h5.13c.28,0,.42.24.42.7v.44c0,.47-.14.7-.42.7H384.3v2h3.15c.28,0,.42.23.42.7v.43c0,.47-.14.7-.42.7H384.3v2.27h3.54c.28,0,.42.23.42.7v.43c0,.47-.14.7-.42.7H382.7A.49.49,0,0,1,382.14,80.76Z"/><path class="cls-1" d="M390.35,80.76V71.94c0-.29.28-.44.84-.44h.47c.56,0,.84.15.84.44v7.55h3.13c.28,0,.42.23.42.7v.43c0,.47-.14.7-.42.7h-4.72A.49.49,0,0,1,390.35,80.76Z"/><path class="cls-1" d="M268.84,101.14a6.48,6.48,0,0,1,0-7.43,4.9,4.9,0,0,1,6.65,0,6.53,6.53,0,0,1,0,7.43,4.9,4.9,0,0,1-6.65,0Zm1.63-1.35a2,2,0,0,0,1.7.81,1.93,1.93,0,0,0,1.69-.81,4,4,0,0,0,.58-2.37,4,4,0,0,0-.58-2.35,1.93,1.93,0,0,0-1.69-.81,2,2,0,0,0-1.7.81,4,4,0,0,0-.58,2.35A4,4,0,0,0,270.47,99.79Z"/><path class="cls-1" d="M278.76,99.05V92.94c0-.29.28-.44.84-.44h.48c.56,0,.84.15.84.44v6a1.59,1.59,0,0,0,.53,1.22,2,2,0,0,0,1.37.47,2,2,0,0,0,1.38-.47,1.57,1.57,0,0,0,.54-1.22v-6c0-.29.28-.44.84-.44H286c.56,0,.84.15.84.44v6.11a3.09,3.09,0,0,1-1.06,2.5,5.48,5.48,0,0,1-6,0A3.1,3.1,0,0,1,278.76,99.05Z"/><path class="cls-1" d="M292.92,97.4q0-5,4.67-5a7.29,7.29,0,0,1,2,.28c.63.19.95.42.95.7a1.6,1.6,0,0,1-.33.81c-.22.34-.41.51-.58.51a1.69,1.69,0,0,1-.3-.11,4.06,4.06,0,0,0-1.76-.34c-1.61,0-2.42,1.06-2.42,3.17s.8,3.17,2.39,3.17a4.64,4.64,0,0,0,1.94-.42,1.69,1.69,0,0,1,.36-.14c.19,0,.38.16.56.49a1.64,1.64,0,0,1,.26.73c0,.37-.34.66-1,.87a7.5,7.5,0,0,1-2.09.31,4.51,4.51,0,0,1-3.48-1.23A5.51,5.51,0,0,1,292.92,97.4Z"/><path class="cls-1" d="M303.3,101.14a6.53,6.53,0,0,1,0-7.43,4.25,4.25,0,0,1,3.34-1.3,4.2,4.2,0,0,1,3.32,1.3,6.53,6.53,0,0,1,0,7.43,4.23,4.23,0,0,1-3.32,1.3A4.28,4.28,0,0,1,303.3,101.14Zm1.64-1.35a2.18,2.18,0,0,0,3.39,0,4.1,4.1,0,0,0,.58-2.37,4,4,0,0,0-.58-2.35,2.18,2.18,0,0,0-3.39,0,4,4,0,0,0-.59,2.35A4,4,0,0,0,304.94,99.79Z"/><path class="cls-1" d="M313.27,101.76V92.94c0-.29.28-.44.84-.44h.48c.56,0,.84.15.84.44v7.55h3.12c.28,0,.42.23.42.7v.43c0,.47-.14.7-.42.7h-4.72A.49.49,0,0,1,313.27,101.76Z"/><path class="cls-1" d="M320.61,101.76V92.94c0-.29.28-.44.84-.44h.47c.56,0,.84.15.84.44v7.55h3.13c.28,0,.42.23.42.7v.43c0,.47-.14.7-.42.7h-4.72A.49.49,0,0,1,320.61,101.76Z"/><path class="cls-1" d="M327.94,101.76V93.08a.5.5,0,0,1,.56-.56h5.13c.28,0,.42.24.42.7v.44c0,.47-.14.7-.42.7H330.1v2h3.15c.28,0,.42.23.42.7v.43c0,.47-.14.7-.42.7H330.1v2.27h3.54c.28,0,.42.23.42.7v.43c0,.47-.14.7-.42.7H328.5A.49.49,0,0,1,327.94,101.76Z"/><path class="cls-1" d="M335.81,97.4q0-5,4.68-5a7.16,7.16,0,0,1,2,.28c.64.19,1,.42,1,.7a1.6,1.6,0,0,1-.33.81c-.21.34-.41.51-.58.51l-.29-.11a4.09,4.09,0,0,0-1.76-.34c-1.62,0-2.43,1.06-2.43,3.17s.8,3.17,2.4,3.17a4.63,4.63,0,0,0,1.93-.42,2.27,2.27,0,0,1,.36-.14c.2,0,.39.16.56.49a1.69,1.69,0,0,1,.27.73c0,.37-.34.66-1,.87a7.43,7.43,0,0,1-2.08.31,4.5,4.5,0,0,1-3.48-1.23A5.51,5.51,0,0,1,335.81,97.4Z"/><path class="cls-1" d="M347.17,101.9V94.36h-2.23c-.28,0-.42-.23-.42-.7v-.44c0-.46.14-.7.42-.7h6.62c.28,0,.42.24.42.7v.44c0,.47-.14.7-.42.7h-2.22v7.54q0,.45-.84.45H348Q347.17,102.35,347.17,101.9Z"/><path class="cls-1" d="M353.54,101.9v-9c0-.3.28-.46.84-.46h.49c.56,0,.84.16.84.46v9c0,.31-.28.47-.84.47h-.49C353.82,102.37,353.54,102.21,353.54,101.9Z"/><path class="cls-1" d="M358.13,101.9V93.08a.5.5,0,0,1,.56-.56h4.67c.28,0,.42.24.42.7v.44c0,.47-.14.7-.42.7h-3.08v2h3c.28,0,.42.24.42.7v.44c0,.46-.14.7-.42.7h-3v3.66q0,.45-.84.45H359Q358.13,102.35,358.13,101.9Z"/><path class="cls-2" d="M325,204.76l-12.9,12.9a1.47,1.47,0,0,0-.44,1.07,1.51,1.51,0,0,0,1.52,1.52,1.39,1.39,0,0,0,.61-.13l21.74-9.42a1.9,1.9,0,0,0,1-1.22L340,196.94l.7.7a1.87,1.87,0,0,0,2.64-2.64l-10.72-10.73a1.87,1.87,0,0,0-2.64,2.64l.69.7-12.56,3.49a1.91,1.91,0,0,0-1.22,1.07l-9.41,21.72a1.69,1.69,0,0,0-.12.6,1.52,1.52,0,0,0,2.62,1l12.87-12.87a4,4,0,0,1-.27-1.44,3.81,3.81,0,1,1,3.8,3.8,4,4,0,0,1-1.43-.27"/><path class="cls-3" d="M101.36,23a7.71,7.71,0,0,0,0-10.85,1.83,1.83,0,0,0-2.6,2.59,4,4,0,0,1,0,5.67,1.83,1.83,0,1,0,2.6,2.59m1.55-15a1.81,1.81,0,0,0,0,2.58,9.89,9.89,0,0,1,0,14,1.83,1.83,0,1,0,2.59,2.59,13.52,13.52,0,0,0,0-19.12h0a1.81,1.81,0,0,0-2.59,0M82.41,24.71,91.93,34a1.5,1.5,0,0,0,2.55-1V1.48a1.5,1.5,0,0,0-2.57-1L82.42,9.73H76.51a3,3,0,0,0-3,3v9a3,3,0,0,0,3,3Z"/><path class="cls-4" d="M77.78,198.84A8.79,8.79,0,1,1,69,207.63a8.79,8.79,0,0,1,8.79-8.79m-14.1,12.79a14.34,14.34,0,0,0,1.34,3.2l-2.51,2.75a1.83,1.83,0,0,0,0,2.6l2.72,2.72a1.85,1.85,0,0,0,2.61,0l2.74-2.51a14.34,14.34,0,0,0,3.2,1.34l.24,3.74a1.84,1.84,0,0,0,1.84,1.84h3.85a1.84,1.84,0,0,0,1.84-1.84l.24-3.74A14.07,14.07,0,0,0,85,220.39l2.75,2.51a1.85,1.85,0,0,0,2.61,0l2.72-2.72a1.83,1.83,0,0,0,0-2.6l-2.51-2.75a14.82,14.82,0,0,0,1.34-3.2l3.73-.23a1.84,1.84,0,0,0,1.84-1.84V205.7a1.84,1.84,0,0,0-1.84-1.84l-3.73-.23a14.82,14.82,0,0,0-1.34-3.2l2.51-2.75a1.83,1.83,0,0,0,0-2.6l-2.72-2.73a1.87,1.87,0,0,0-2.61,0L85,194.87a14.07,14.07,0,0,0-3.19-1.34l-.24-3.74A1.84,1.84,0,0,0,79.71,188H75.86A1.84,1.84,0,0,0,74,189.79l-.24,3.74a14.34,14.34,0,0,0-3.2,1.34l-2.74-2.52a1.87,1.87,0,0,0-2.61,0l-2.72,2.73a1.83,1.83,0,0,0,0,2.6L65,200.43a14.34,14.34,0,0,0-1.34,3.2l-3.73.23a1.84,1.84,0,0,0-1.85,1.84v3.86A1.84,1.84,0,0,0,60,211.4Zm14.1-9.44a5.44,5.44,0,1,0,5.45,5.44,5.44,5.44,0,0,0-5.45-5.44m-2.09,5.44a2.1,2.1,0,1,1,2.09,2.09,2.09,2.09,0,0,1-2.09-2.09"/><path class="cls-4" d="M110.53,180.34a6.41,6.41,0,1,1-6.41,6.41,6.41,6.41,0,0,1,6.41-6.41m-10.28,9.33a10.61,10.61,0,0,0,1,2.33l-1.83,2a1.35,1.35,0,0,0,0,1.9l2,2a1.33,1.33,0,0,0,1.9,0l2-1.83a10.18,10.18,0,0,0,2.33,1l.17,2.72a1.33,1.33,0,0,0,1.34,1.34h2.81a1.34,1.34,0,0,0,1.35-1.34l.17-2.72a10.18,10.18,0,0,0,2.33-1l2,1.83a1.33,1.33,0,0,0,1.9,0l2-2a1.33,1.33,0,0,0,0-1.9l-1.83-2a10.18,10.18,0,0,0,1-2.33l2.72-.17a1.34,1.34,0,0,0,1.34-1.35v-2.8a1.34,1.34,0,0,0-1.34-1.35l-2.72-.17a10.18,10.18,0,0,0-1-2.33l1.83-2a1.33,1.33,0,0,0,0-1.9l-2-2a1.35,1.35,0,0,0-1.9,0l-2,1.84a10.18,10.18,0,0,0-2.33-1l-.17-2.72a1.34,1.34,0,0,0-1.35-1.34h-2.81a1.33,1.33,0,0,0-1.34,1.34l-.17,2.72a10.18,10.18,0,0,0-2.33,1l-2-1.84a1.35,1.35,0,0,0-1.9,0l-2,2a1.35,1.35,0,0,0,0,1.9l1.83,2a10.61,10.61,0,0,0-1,2.33l-2.72.17a1.34,1.34,0,0,0-1.35,1.35v2.8a1.34,1.34,0,0,0,1.35,1.35Zm10.28-6.89a4,4,0,1,0,4,4,4,4,0,0,0-4-4m-1.53,4a1.53,1.53,0,1,1,1.53,1.53,1.54,1.54,0,0,1-1.53-1.53"/><path class="cls-4" d="M83.89,168.71a4.72,4.72,0,1,1-4.72,4.72,4.72,4.72,0,0,1,4.72-4.72m-7.57,6.87A7.45,7.45,0,0,0,77,177.3l-1.35,1.47a1,1,0,0,0,0,1.4l1.46,1.46a1,1,0,0,0,1.4,0L80,180.28a7.45,7.45,0,0,0,1.72.72l.13,2a1,1,0,0,0,1,1h2.06a1,1,0,0,0,1-1l.13-2a7.45,7.45,0,0,0,1.72-.72l1.47,1.35a1,1,0,0,0,1.4,0l1.46-1.46a1,1,0,0,0,0-1.4l-1.35-1.47a7.45,7.45,0,0,0,.72-1.72l2-.13a1,1,0,0,0,1-1V172.4a1,1,0,0,0-1-1l-2-.13a7.45,7.45,0,0,0-.72-1.72l1.35-1.47a1,1,0,0,0,0-1.4l-1.46-1.46a1,1,0,0,0-1.4,0l-1.47,1.35a7.45,7.45,0,0,0-1.72-.72l-.13-2a1,1,0,0,0-1-1H82.86a1,1,0,0,0-1,1l-.13,2a7.45,7.45,0,0,0-1.72.72l-1.47-1.35a1,1,0,0,0-1.4,0l-1.46,1.46a1,1,0,0,0,0,1.4L77,169.56a7.45,7.45,0,0,0-.72,1.72l-2,.13a1,1,0,0,0-1,1v2.06a1,1,0,0,0,1,1Zm7.57-5.07a2.92,2.92,0,1,0,2.92,2.92,2.92,2.92,0,0,0-2.92-2.92m-1.12,2.92a1.12,1.12,0,1,1,1.12,1.12,1.12,1.12,0,0,1-1.12-1.12"/><path class="cls-5" d="M304.86,28.45A1.56,1.56,0,1,1,306.42,30a1.56,1.56,0,0,1-1.56-1.55m-5.59,0A1.55,1.55,0,1,1,300.82,30a1.55,1.55,0,0,1-1.55-1.55m-5.6,0A1.56,1.56,0,1,1,295.22,30a1.56,1.56,0,0,1-1.55-1.55m-7.46,7.15a2.48,2.48,0,0,0,2.49,2.48h3.73v3.84a1.24,1.24,0,0,0,2.13.87l4.71-4.71h13.67a2.48,2.48,0,0,0,2.49-2.48V20.05a2.48,2.48,0,0,0-2.49-2.48H288.7a2.48,2.48,0,0,0-2.49,2.48Z"/><path class="cls-5" d="M329.17,19.89a1.33,1.33,0,1,1-1.32-1.32,1.32,1.32,0,0,1,1.32,1.32m4.76,0a1.33,1.33,0,1,1-1.32-1.32,1.32,1.32,0,0,1,1.32,1.32m4.76,0a1.32,1.32,0,1,1-1.32-1.32,1.32,1.32,0,0,1,1.32,1.32M345,12.75a2.12,2.12,0,0,0-2.12-2.12H322.29a2.11,2.11,0,0,0-2.11,2.12V26a2.1,2.1,0,0,0,2.11,2.11h11.64l4,4a1,1,0,0,0,.76.32,1.06,1.06,0,0,0,1.06-1V28.09h3.17A2.11,2.11,0,0,0,345,26Z"/></g></g></svg>