<?xml version="1.0" encoding="utf-8"?>
<!-- Generator: Adobe Illustrator 22.0.1, SVG Export Plug-In . SVG Version: 6.00 Build 0)  -->
<svg version="1.1" id="Calque_1" xmlns="http://www.w3.org/2000/svg" xmlns:xlink="http://www.w3.org/1999/xlink" x="0px" y="0px"
	 viewBox="0 0 345.9 304" style="enable-background:new 0 0 345.9 304;" xml:space="preserve">
<style type="text/css">
	.st0{fill:#737378;}
	.st1{fill:#00BCD4;}
	.st2{fill:#FFFFFF;}
</style>
<title>publics</title>
<path class="st0" d="M55.1,53.9c0-2.8,1.3-4.2,3.9-4.2c0.6,0,1.1,0.1,1.7,0.2c0.6,0.2,0.8,0.4,0.8,0.6c0,0.3-0.1,0.5-0.3,0.7
	c-0.2,0.3-0.3,0.4-0.5,0.4c-0.1,0-0.2-0.1-0.3-0.1c-0.5-0.2-1-0.3-1.5-0.3c-1.4,0-2,0.9-2,2.7s0.7,2.7,2,2.7c0.3,0,0.6,0,0.9-0.1
	v-1.5h-1c-0.2,0-0.4-0.2-0.4-0.6v-0.4c0-0.4,0.1-0.6,0.4-0.6h2.4c0.2,0,0.4,0.1,0.5,0.4c0,0,0,0.1,0,0.1v3.3c0,0.2-0.1,0.4-0.3,0.5
	c-0.2,0.1-0.5,0.2-0.8,0.3c-0.6,0.1-1.1,0.2-1.7,0.2c-1.1,0.1-2.2-0.3-2.9-1C55.3,56.3,55,55.1,55.1,53.9z"/>
<path class="st0" d="M63.8,57.8v-7.5c0-0.2,0.1-0.4,0.3-0.5c0,0,0.1,0,0.1,0h2.3c2,0,2.9,0.7,2.9,2.2c0,0.4-0.1,0.8-0.4,1.1
	c-0.3,0.3-0.6,0.6-1,0.7V54c0.2,0.1,0.3,0.2,0.5,0.4c0.2,0.2,0.3,0.5,0.4,0.7l1,2.5c0,0.1,0.1,0.1,0.1,0.2c0,0.2-0.2,0.2-0.7,0.2
	h-0.5c-0.4,0-0.6-0.1-0.7-0.2l-0.9-2.3c-0.1-0.2-0.2-0.4-0.4-0.5c-0.2-0.1-0.5-0.2-0.8-0.2h-0.4v2.9c0,0.3-0.2,0.4-0.7,0.4h-0.4
	C64,58.1,63.8,58,63.8,57.8z M65.6,53.3h1.1c0.2,0,0.5-0.1,0.6-0.3c0.2-0.2,0.3-0.5,0.3-0.7c0-0.2-0.1-0.5-0.3-0.7
	c-0.2-0.2-0.5-0.3-0.7-0.2h-1V53.3z"/>
<path class="st0" d="M70.7,57.9c0-0.1,0-0.2,0-0.2l2.6-7.6c0.1-0.2,0.3-0.2,0.7-0.2h0.6c0.4,0,0.6,0.1,0.7,0.2l2.6,7.6
	c0,0.1,0,0.1,0,0.2c0,0.2-0.2,0.3-0.6,0.3h-0.5c-0.4,0-0.6-0.1-0.7-0.2l-0.5-1.4h-2.8l-0.5,1.5c-0.1,0.2-0.2,0.2-0.5,0.2h-0.5
	C70.9,58.1,70.7,58,70.7,57.9z M73.4,54.9h1.8l-0.7-2.1L74.4,52h-0.1c0,0.3-0.1,0.5-0.2,0.8L73.4,54.9z"/>
<path class="st0" d="M79.2,57.8v-7.6c0-0.3,0.2-0.4,0.7-0.4h0.5c0.3,0,0.6,0.1,0.8,0.3l3.1,4.8v-4.7c0-0.3,0.2-0.4,0.7-0.4h0.3
	c0.5,0,0.7,0.1,0.7,0.4v7.6c0,0.3-0.2,0.4-0.7,0.4h-0.4c-0.3,0-0.6-0.1-0.8-0.3L81,53v4.8c0,0.3-0.2,0.4-0.7,0.4h-0.3
	C79.5,58.1,79.2,58,79.2,57.8z"/>
<path class="st0" d="M88.2,57.6v-7.3c0-0.2,0.1-0.4,0.3-0.5c0,0,0.1,0,0.1,0h2.7c1-0.1,2.1,0.3,2.8,1c0.7,0.9,1.1,2,1,3.1
	c0.1,1.1-0.3,2.2-1,3.1c-0.7,0.7-1.8,1.1-2.8,1.1h-2.7C88.4,58.1,88.2,58,88.2,57.6C88.2,57.7,88.2,57.7,88.2,57.6z M90,56.6h1.3
	c0.6,0,1.1-0.2,1.4-0.7c0.6-1.2,0.6-2.7,0-3.9c-0.3-0.4-0.9-0.7-1.4-0.7H90V56.6z"/>
<path class="st0" d="M100.2,57.8v-7.5c0-0.2,0.1-0.4,0.3-0.5c0,0,0.1,0,0.1,0h2.5c0.8-0.1,1.5,0.2,2.1,0.7c0.2,0.2,0.4,0.5,0.5,0.8
	c0.1,0.4,0.2,0.8,0.2,1.1c0,0.4-0.1,0.8-0.2,1.1c-0.1,0.3-0.3,0.5-0.5,0.8c-0.2,0.2-0.5,0.3-0.7,0.4c-0.4,0.2-0.8,0.3-1.2,0.3H102
	v2.7c0,0.3-0.2,0.4-0.7,0.4h-0.4C100.5,58.1,100.2,58,100.2,57.8z M102,53.4h1c0.3,0,0.5-0.1,0.7-0.2c0.2-0.2,0.4-0.5,0.3-0.8
	c0-0.3-0.1-0.6-0.3-0.8c-0.2-0.2-0.5-0.2-0.7-0.2h-1V53.4z"/>
<path class="st0" d="M107.4,55.3v-5.2c0-0.3,0.2-0.4,0.7-0.4h0.4c0.5,0,0.7,0.1,0.7,0.4v5.1c0,0.4,0.2,0.8,0.4,1
	c0.7,0.5,1.6,0.5,2.3,0c0.3-0.3,0.5-0.6,0.5-1v-5.1c0-0.3,0.2-0.4,0.7-0.4h0.4c0.5,0,0.7,0.1,0.7,0.4v5.2c0,0.8-0.3,1.6-0.9,2.1
	c-1.5,1-3.5,1-5.1,0C107.7,56.9,107.3,56.1,107.4,55.3z"/>
<path class="st0" d="M116.4,57.6v-7.3c0-0.2,0.1-0.4,0.3-0.5c0,0,0.1,0,0.1,0h2.3c0.7-0.1,1.5,0.1,2.1,0.5c0.4,0.4,0.7,0.9,0.7,1.5
	c0,0.4-0.1,0.8-0.4,1.1c-0.2,0.3-0.6,0.6-0.9,0.7v0.1c0.9,0.2,1.6,1,1.6,1.9c0,0.7-0.2,1.3-0.7,1.8c-0.6,0.5-1.4,0.7-2.2,0.6h-2.5
	C116.6,58.1,116.4,58,116.4,57.6C116.4,57.7,116.4,57.7,116.4,57.6z M118.2,53.1h0.8c0.3,0,0.6-0.1,0.8-0.2c0.2-0.2,0.3-0.4,0.3-0.6
	c0-0.6-0.4-0.8-1.1-0.8h-0.8L118.2,53.1z M118.2,56.6h1.2c0.3,0,0.6-0.1,0.8-0.2c0.2-0.2,0.3-0.4,0.3-0.7c0-0.6-0.4-0.9-1.3-0.9h-1
	L118.2,56.6z"/>
<path class="st0" d="M123.8,57.6v-7.5c0-0.3,0.2-0.4,0.7-0.4h0.4c0.5,0,0.7,0.1,0.7,0.4v6.4h2.6c0.2,0,0.4,0.2,0.4,0.6v0.4
	c0,0.4-0.1,0.6-0.4,0.6h-4c-0.2,0-0.4-0.1-0.5-0.4C123.8,57.7,123.8,57.7,123.8,57.6z"/>
<path class="st0" d="M129.9,57.8v-7.6c0-0.3,0.2-0.4,0.7-0.4h0.4c0.5,0,0.7,0.1,0.7,0.4v7.6c0,0.3-0.2,0.4-0.7,0.4h-0.4
	C130.2,58.1,129.9,58,129.9,57.8z"/>
<path class="st0" d="M133.5,53.9c0-2.8,1.3-4.2,3.9-4.2c0.6,0,1.1,0.1,1.7,0.2c0.5,0.2,0.8,0.4,0.8,0.6c0,0.3-0.1,0.5-0.3,0.7
	c-0.2,0.3-0.3,0.4-0.5,0.4c-0.1,0-0.2-0.1-0.3-0.1c-0.5-0.2-1-0.3-1.5-0.3c-1.4,0-2,0.9-2,2.7s0.7,2.7,2,2.7c0.6,0,1.1-0.1,1.6-0.4
	c0.1-0.1,0.2-0.1,0.3-0.1c0.2,0,0.3,0.1,0.5,0.4c0.1,0.2,0.2,0.4,0.2,0.6c0,0.3-0.3,0.6-0.8,0.7c-0.6,0.2-1.2,0.3-1.8,0.3
	c-1.1,0.1-2.2-0.3-2.9-1C133.8,56.2,133.5,55.1,133.5,53.9z"/>
<path class="st0" d="M57.6,75.4v-7.5c0-0.3,0.2-0.4,0.7-0.4h0.4c0.5,0,0.7,0.1,0.7,0.4v6.4h2.6c0.2,0,0.4,0.2,0.4,0.6v0.4
	c0,0.4-0.1,0.6-0.4,0.6h-4c-0.2,0-0.4-0.1-0.5-0.4C57.6,75.5,57.6,75.4,57.6,75.4z"/>
<path class="st0" d="M63.8,75.4v-7.3c0-0.2,0.1-0.4,0.3-0.5c0,0,0.1,0,0.1,0h4.3c0.2,0,0.4,0.2,0.4,0.6v0.4c0,0.4-0.1,0.6-0.4,0.6
	h-3v1.7h2.7c0.2,0,0.4,0.2,0.4,0.6v0.4c0,0.4-0.1,0.6-0.4,0.6h-2.7v1.9h3c0.2,0,0.4,0.2,0.4,0.6v0.4c0,0.4-0.1,0.6-0.4,0.6h-4.4
	C64.1,75.9,63.8,75.7,63.8,75.4C63.8,75.5,63.8,75.4,63.8,75.4z"/>
<path class="st0" d="M70.2,74.9c0-0.2,0.1-0.5,0.3-0.7c0.2-0.3,0.3-0.4,0.5-0.4c0.1,0,0.2,0.1,0.3,0.1c0.4,0.3,0.9,0.4,1.4,0.4
	c0.7,0,1.1-0.3,1.1-0.8c0-0.3-0.1-0.5-0.4-0.6c-0.3-0.2-0.5-0.3-0.8-0.5c-0.3-0.1-0.7-0.3-1-0.4c-0.3-0.2-0.6-0.5-0.8-0.8
	c-0.2-0.4-0.4-0.9-0.4-1.3c0-0.5,0.1-1,0.4-1.4c0.6-0.7,1.5-1.1,2.4-1c0.5,0,1,0.1,1.5,0.3c0.4,0.2,0.6,0.4,0.6,0.6
	c0,0.2-0.1,0.5-0.2,0.7c-0.2,0.3-0.3,0.4-0.4,0.4c-0.1,0-0.1,0-0.2-0.1c-0.3-0.1-0.7-0.2-1.1-0.2c-0.3,0-0.6,0.1-0.8,0.2
	c-0.2,0.1-0.2,0.3-0.2,0.5c0,0.2,0.1,0.5,0.4,0.6c0.3,0.2,0.5,0.3,0.8,0.4c0.3,0.1,0.7,0.3,1,0.4c0.8,0.4,1.2,1.2,1.2,2.1
	c0,0.4-0.1,0.8-0.3,1.2c-0.1,0.3-0.3,0.6-0.6,0.8c-0.6,0.4-1.2,0.6-1.9,0.6c-0.7,0-1.3-0.1-1.9-0.3C70.4,75.4,70.2,75.2,70.2,74.9z"
	/>
<path class="st0" d="M80.4,75.5v-7.5c0-0.2,0.1-0.4,0.3-0.5c0,0,0.1,0,0.1,0h2.5c0.8,0,1.5,0.2,2.1,0.7c0.2,0.2,0.4,0.5,0.5,0.8
	c0.1,0.4,0.2,0.8,0.2,1.1c0,0.4-0.1,0.8-0.2,1.1c-0.1,0.3-0.3,0.5-0.5,0.8c-0.2,0.2-0.5,0.3-0.7,0.4c-0.4,0.2-0.8,0.3-1.2,0.3h-1.2
	v2.7c0,0.3-0.2,0.4-0.7,0.4h-0.4C80.7,75.9,80.4,75.8,80.4,75.5z M82.3,71.2h1c0.3,0,0.5-0.1,0.7-0.2c0.2-0.2,0.4-0.5,0.3-0.8
	c0-0.3-0.1-0.6-0.3-0.8c-0.2-0.2-0.5-0.2-0.7-0.2h-1V71.2z"/>
<path class="st0" d="M86.9,75.6c0-0.1,0-0.1,0-0.2l2.6-7.6c0.1-0.2,0.3-0.2,0.7-0.2h0.6c0.4,0,0.6,0.1,0.7,0.2l2.6,7.6
	c0,0.1,0,0.1,0,0.2c0,0.2-0.2,0.3-0.6,0.3h-0.5c-0.4,0-0.6-0.1-0.7-0.2l-0.4-1.4h-2.8l-0.5,1.4c-0.1,0.2-0.2,0.2-0.5,0.2h-0.5
	C87.1,75.9,86.9,75.8,86.9,75.6z M89.6,72.6h1.8l-0.7-2.1l-0.2-0.8h-0.1c0,0.3-0.1,0.5-0.2,0.8L89.6,72.6z"/>
<path class="st0" d="M95.4,75.5v-7.5c0-0.2,0.1-0.4,0.3-0.5c0,0,0.1,0,0.1,0h2.3c2,0,2.9,0.7,2.9,2.2c0,0.4-0.1,0.8-0.4,1.1
	c-0.3,0.3-0.6,0.6-1,0.7v0.1c0.2,0.1,0.3,0.2,0.5,0.4c0.2,0.2,0.3,0.4,0.4,0.7l1,2.6c0,0.1,0.1,0.1,0.1,0.2c0,0.2-0.2,0.2-0.7,0.2
	h-0.5c-0.4,0-0.6-0.1-0.7-0.2l-0.9-2.3c-0.1-0.2-0.2-0.4-0.4-0.5c-0.2-0.1-0.5-0.2-0.8-0.2h-0.5v2.9c0,0.3-0.2,0.4-0.7,0.4h-0.4
	C95.6,75.9,95.4,75.8,95.4,75.5z M97.2,71h1.1c0.2,0,0.5-0.1,0.6-0.3c0.2-0.2,0.3-0.5,0.3-0.7c0-0.2-0.1-0.5-0.3-0.7
	c-0.2-0.2-0.5-0.3-0.7-0.2h-1L97.2,71z"/>
<path class="st0" d="M103,75.5v-7.6c0-0.3,0.2-0.4,0.7-0.4h0.4c0.5,0,0.7,0.1,0.7,0.4v7.6c0,0.3-0.2,0.4-0.7,0.4h-0.4
	C103.2,75.9,103,75.8,103,75.5z"/>
<path class="st0" d="M106.3,74.9c0-0.2,0.1-0.5,0.3-0.7c0.2-0.3,0.3-0.4,0.5-0.4c0.1,0,0.2,0.1,0.3,0.1c0.4,0.3,0.9,0.4,1.4,0.4
	c0.7,0,1.1-0.3,1.1-0.8c0-0.3-0.1-0.5-0.4-0.6c-0.3-0.2-0.5-0.3-0.8-0.5c-0.3-0.1-0.7-0.3-1-0.4c-0.3-0.2-0.6-0.5-0.8-0.8
	c-0.2-0.4-0.4-0.9-0.4-1.3c0-0.5,0.1-1,0.4-1.4c0.6-0.7,1.5-1.1,2.4-1c0.5,0,1,0.1,1.5,0.3c0.4,0.2,0.6,0.4,0.6,0.6
	c0,0.2-0.1,0.5-0.2,0.7c-0.2,0.3-0.3,0.4-0.4,0.4c-0.1,0-0.1,0-0.2-0.1c-0.3-0.1-0.7-0.2-1.1-0.2c-0.3,0-0.6,0.1-0.8,0.2
	c-0.2,0.1-0.2,0.3-0.2,0.5c0,0.2,0.1,0.5,0.4,0.6c0.3,0.2,0.5,0.3,0.8,0.4c0.3,0.1,0.7,0.3,1,0.4c0.8,0.4,1.2,1.2,1.2,2.1
	c0,0.4-0.1,0.9-0.2,1.3c-0.1,0.3-0.3,0.6-0.6,0.8c-0.6,0.4-1.2,0.6-1.9,0.6c-0.7,0-1.3-0.1-1.9-0.3
	C106.6,75.4,106.3,75.2,106.3,74.9z"/>
<path class="st0" d="M113.2,75.5v-7.6c0-0.3,0.2-0.4,0.7-0.4h0.4c0.5,0,0.7,0.1,0.7,0.4v7.6c0,0.3-0.2,0.4-0.7,0.4h-0.4
	C113.4,75.9,113.2,75.8,113.2,75.5z"/>
<path class="st0" d="M117.1,75.4v-7.3c0-0.2,0.1-0.4,0.3-0.5c0,0,0.1,0,0.1,0h4.3c0.2,0,0.4,0.2,0.4,0.6v0.4c0,0.4-0.1,0.6-0.4,0.6
	h-3v1.7h2.7c0.2,0,0.4,0.2,0.4,0.6v0.4c0,0.4-0.1,0.6-0.4,0.6h-2.7v1.9h3c0.2,0,0.4,0.2,0.4,0.6v0.4c0,0.4-0.1,0.6-0.4,0.6h-4.3
	C117.3,75.9,117.1,75.7,117.1,75.4C117.1,75.4,117.1,75.4,117.1,75.4z"/>
<path class="st0" d="M124,75.5v-7.6c0-0.3,0.2-0.4,0.7-0.4h0.5c0.3,0,0.6,0.1,0.8,0.3l3.1,4.8v-4.7c0-0.3,0.2-0.4,0.7-0.4h0.3
	c0.5,0,0.7,0.1,0.7,0.4v7.6c0,0.3-0.2,0.4-0.7,0.4h-0.4c-0.3,0-0.6-0.1-0.8-0.3l-3.2-4.9v4.8c0,0.3-0.2,0.4-0.7,0.4h-0.3
	C124.3,75.9,124,75.8,124,75.5z"/>
<path class="st0" d="M132.4,74.9c0-0.2,0.1-0.5,0.3-0.7c0.2-0.3,0.3-0.4,0.5-0.4c0.1,0,0.2,0.1,0.3,0.1c0.4,0.3,0.9,0.4,1.4,0.4
	c0.7,0,1.1-0.3,1.1-0.8c0-0.3-0.1-0.5-0.4-0.6c-0.3-0.2-0.5-0.3-0.8-0.5c-0.3-0.1-0.7-0.3-1-0.4c-0.8-0.4-1.2-1.2-1.2-2.1
	c0-0.5,0.1-1,0.4-1.4c0.6-0.7,1.5-1.1,2.4-1c0.5,0,1,0.1,1.5,0.3c0.4,0.2,0.6,0.4,0.6,0.6c0,0.2-0.1,0.5-0.2,0.7
	c-0.2,0.3-0.3,0.4-0.4,0.4c-0.1,0-0.2,0-0.2-0.1c-0.3-0.1-0.7-0.2-1.1-0.2c-0.3,0-0.6,0.1-0.8,0.2c-0.2,0.1-0.2,0.3-0.2,0.5
	c0,0.2,0.1,0.5,0.4,0.6c0.3,0.2,0.5,0.3,0.8,0.4c0.3,0.1,0.7,0.3,1,0.4c0.8,0.4,1.2,1.2,1.2,2.1c0,0.4-0.1,0.9-0.2,1.3
	c-0.1,0.3-0.3,0.6-0.6,0.8c-0.6,0.4-1.2,0.6-1.9,0.6c-0.7,0-1.3-0.1-1.9-0.3C132.7,75.4,132.4,75.2,132.4,74.9z"/>
<path class="st0" d="M65.8,90.5c0-0.5,0.1-1,0.2-1.5c0.1-0.4,0.4-0.7,0.7-1c0.5-0.4,1.2-0.6,1.9-0.6c0.4,0,0.8,0.1,1.2,0.2
	c0.4,0.1,0.5,0.2,0.5,0.4c0,0.1-0.1,0.3-0.1,0.4c-0.1,0.2-0.2,0.2-0.2,0.2l0,0l0,0h0c-0.4-0.2-0.8-0.3-1.3-0.3
	c-1.1,0-1.7,0.8-1.7,2.3c-0.1,0.6,0,1.2,0.3,1.8c0.4,0.4,0.9,0.6,1.4,0.6c0.5,0,0.9-0.1,1.3-0.3h0.1h0.1c0.1,0,0.2,0.1,0.3,0.2
	c0.1,0.1,0.1,0.2,0.1,0.4c0,0.1-0.2,0.3-0.5,0.4c-0.4,0.1-0.9,0.2-1.3,0.2c-0.8,0.1-1.6-0.2-2.2-0.8C66,92.3,65.7,91.4,65.8,90.5z"
	/>
<path class="st0" d="M74.3,93.7c-0.8,0-1.5-0.3-2-0.8c-0.5-0.7-0.8-1.5-0.7-2.3c-0.1-0.8,0.2-1.7,0.7-2.4c0.5-0.6,1.3-0.9,2-0.8
	c0.8,0,1.5,0.3,2,0.8c0.9,1.4,0.9,3.3,0,4.7C75.8,93.4,75.1,93.7,74.3,93.7z M73.1,92.3c0.3,0.4,0.8,0.6,1.3,0.6
	c0.5,0,1-0.2,1.3-0.6c0.6-1.1,0.6-2.4,0-3.5c-0.6-0.7-1.7-0.8-2.4-0.1c-0.1,0-0.1,0.1-0.1,0.1C72.5,89.9,72.5,91.2,73.1,92.3
	L73.1,92.3z"/>
<path class="st0" d="M78.7,93.4v-4.2c0-0.3,0-0.7-0.1-1c-0.1-0.3-0.1-0.4-0.1-0.5c0-0.1,0.1-0.2,0.2-0.2c0.1,0,0.2-0.1,0.3-0.1h0.2
	c0,0,0.1,0.1,0.1,0.1c0,0,0.1,0.1,0.1,0.1c0,0,0,0.1,0.1,0.1c0,0.1,0,0.1,0,0.1c0,0.1,0,0.1,0,0.2c0,0,0,0.1,0,0.1
	c0.4-0.5,1.1-0.8,1.8-0.8c0.5,0,1.1,0.1,1.5,0.5c0.4,0.4,0.5,0.9,0.5,1.4v4.1c0,0.2-0.2,0.3-0.5,0.3h-0.1c-0.3,0-0.5-0.1-0.5-0.3v-4
	c0-0.3-0.1-0.6-0.3-0.8c-0.2-0.2-0.6-0.3-0.9-0.3c-0.6,0-1.2,0.3-1.5,0.8v4.3c0,0.2-0.2,0.3-0.5,0.3h0
	C78.9,93.6,78.7,93.5,78.7,93.4z"/>
<path class="st0" d="M84.7,93c0-0.1,0.1-0.2,0.1-0.4c0.1-0.2,0.2-0.2,0.3-0.2l0.2,0.1c0.2,0.1,0.3,0.2,0.5,0.2
	c0.3,0.1,0.6,0.1,0.8,0.1c0.3,0,0.6-0.1,0.8-0.3c0.2-0.2,0.3-0.5,0.3-0.7c0-0.3-0.1-0.5-0.3-0.7c-0.3-0.2-0.7-0.4-1.1-0.5
	c-0.4-0.1-0.8-0.3-1.1-0.6c-0.3-0.3-0.4-0.7-0.4-1.1c0-0.5,0.2-0.9,0.5-1.2c0.4-0.3,0.9-0.5,1.3-0.5c0.4,0,0.7,0,1.1,0.2
	c0.3,0.1,0.5,0.2,0.5,0.3c0,0.1-0.1,0.3-0.1,0.4c-0.1,0.2-0.2,0.2-0.2,0.2c-0.1,0-0.1,0-0.2-0.1c-0.3-0.1-0.6-0.2-0.9-0.2
	c-0.3,0-0.6,0.1-0.8,0.2c-0.2,0.1-0.3,0.3-0.3,0.5c0,0.2,0.1,0.4,0.2,0.5c0.2,0.2,0.4,0.3,0.7,0.3c0.6,0.1,1.1,0.4,1.5,0.8
	c0.3,0.3,0.4,0.8,0.4,1.2c0,0.5-0.2,1-0.6,1.4c-0.4,0.4-0.9,0.5-1.4,0.5c-0.5,0-1-0.1-1.4-0.2C84.9,93.3,84.7,93.1,84.7,93z"/>
<path class="st0" d="M90.5,92.9c-0.5-0.7-0.8-1.5-0.7-2.3c-0.1-0.9,0.2-1.7,0.7-2.4c0.5-0.6,1.2-0.9,2-0.8c1.7,0,2.5,1,2.5,3.1
	c0,0.1-0.1,0.2-0.1,0.3c-0.1,0.1-0.2,0.2-0.3,0.2h-3.8c0,0.5,0.2,1,0.5,1.4c0.4,0.3,0.8,0.5,1.3,0.5c0.5,0,1-0.1,1.5-0.4l0.2-0.1
	c0.1,0,0.2,0.1,0.3,0.2c0.1,0.1,0.1,0.2,0.2,0.4c0,0.2-0.2,0.3-0.6,0.5c-0.5,0.2-1,0.3-1.5,0.3C91.9,93.8,91.1,93.5,90.5,92.9z
	 M94,90.1c0-1.2-0.5-1.9-1.4-1.9s-1.6,0.6-1.7,1.9H94z"/>
<path class="st0" d="M97,85.9c-0.3,0-0.5-0.1-0.5-0.3V85c0-0.2,0.2-0.3,0.5-0.3h0.1c0.3,0,0.5,0.1,0.5,0.3v0.7
	c0,0.2-0.2,0.3-0.5,0.3H97z M96.6,93.4v-5.7c0-0.2,0.2-0.3,0.5-0.3h0.1c0.3,0,0.5,0.1,0.5,0.3v5.7c0,0.2-0.2,0.3-0.5,0.3h-0.1
	C96.8,93.6,96.6,93.5,96.6,93.4z"/>
<path class="st0" d="M99.6,92V85c0-0.2,0.2-0.3,0.5-0.3h0.1c0.3,0,0.5,0.1,0.5,0.3v7c0,0.6,0.2,0.8,0.6,0.8c0.1,0,0.2,0,0.3,0h0.2
	c0.1,0,0.1,0.1,0.2,0.2c0,0.1,0.1,0.2,0.1,0.3c0,0.2-0.3,0.4-0.8,0.4c-0.4,0-0.8-0.1-1.1-0.4C99.8,93,99.6,92.5,99.6,92z"/>
<path class="st0" d="M103.2,92V85c0-0.2,0.2-0.3,0.5-0.3h0c0.3,0,0.5,0.1,0.5,0.3v7c0,0.6,0.2,0.8,0.6,0.8c0.1,0,0.2,0,0.3,0h0.2
	c0.1,0,0.1,0.1,0.2,0.2c0,0.1,0.1,0.2,0.1,0.3c0,0.2-0.3,0.4-0.8,0.4c-0.4,0-0.8-0.1-1.1-0.4C103.3,93,103.1,92.5,103.2,92z"/>
<path class="st0" d="M107.1,92.9c-0.5-0.7-0.8-1.5-0.7-2.3c-0.1-0.9,0.2-1.7,0.7-2.4c0.5-0.6,1.2-0.9,2-0.8c1.7,0,2.5,1,2.5,3.1
	c0,0.1-0.1,0.2-0.1,0.3c-0.1,0.1-0.2,0.2-0.3,0.2h-3.8c0,0.5,0.2,1,0.5,1.4c0.4,0.3,0.8,0.5,1.3,0.5c0.5,0,1-0.1,1.5-0.4l0.2-0.1
	c0.1,0,0.2,0.1,0.3,0.2c0.1,0.1,0.1,0.2,0.1,0.4c0,0.2-0.2,0.3-0.6,0.5c-0.5,0.2-1,0.3-1.5,0.3C108.5,93.7,107.7,93.5,107.1,92.9z
	 M110.5,90.1c0-1.2-0.5-1.9-1.4-1.9s-1.6,0.6-1.7,1.9H110.5z"/>
<path class="st0" d="M113.2,93.4v-4.2c0-0.3,0-0.7-0.1-1c-0.1-0.3-0.1-0.4-0.1-0.5s0.1-0.2,0.2-0.2c0.1,0,0.2-0.1,0.4-0.1h0.2
	c0,0,0.1,0,0.1,0.1c0,0,0,0.1,0.1,0.1c0,0,0,0.1,0.1,0.1c0,0.1,0,0.1,0,0.1c0,0.1,0,0.1,0,0.2c0,0.1,0,0.1,0,0.1
	c0.3-0.5,0.8-0.8,1.4-0.8c0.2,0,0.4,0,0.5,0.1c0.1,0.1,0.2,0.2,0.2,0.3c0,0.1,0,0.3-0.1,0.4c-0.1,0.2-0.1,0.2-0.2,0.2
	c-0.1,0-0.2,0-0.2-0.1c-0.1-0.1-0.3-0.1-0.4-0.1c-0.2,0-0.4,0.1-0.5,0.2c-0.2,0.1-0.3,0.2-0.4,0.4l-0.1,0.2v4.3
	c0,0.2-0.2,0.3-0.5,0.3l0,0C113.3,93.6,113.2,93.5,113.2,93.4z"/>
<path class="st0" d="M120.6,92.9c-0.5-0.7-0.8-1.5-0.7-2.3c-0.1-0.9,0.2-1.7,0.7-2.4c0.5-0.6,1.2-0.9,2-0.8c1.7,0,2.5,1,2.5,3.1
	c0,0.1-0.1,0.2-0.1,0.3c-0.1,0.1-0.2,0.2-0.3,0.2H121c0,0.5,0.2,1,0.5,1.4c0.4,0.3,0.8,0.5,1.3,0.5c0.5,0,1-0.1,1.5-0.4l0.2-0.1
	c0.1,0,0.2,0.1,0.3,0.2c0.1,0.1,0.1,0.2,0.1,0.4c0,0.2-0.2,0.3-0.6,0.5c-0.5,0.2-1,0.3-1.5,0.3C122,93.7,121.2,93.5,120.6,92.9z
	 M124,90.1c0-1.2-0.5-1.9-1.4-1.9s-1.6,0.6-1.7,1.9H124z"/>
<path class="st0" d="M126.9,92v-3.8h-0.6c-0.2,0-0.2-0.1-0.2-0.4v-0.1c0-0.2,0.1-0.4,0.2-0.4h0.6l0.1-1.2c0-0.2,0.1-0.3,0.4-0.3h0.1
	c0.2,0,0.4,0.1,0.4,0.3v1.2h1c0.2,0,0.2,0.1,0.2,0.4v0.1c0,0.2-0.1,0.4-0.2,0.4h-1V92c0,0.6,0.2,0.8,0.6,0.8c0.1,0,0.2,0,0.3,0h0.2
	c0.1,0,0.1,0.1,0.2,0.2c0,0.1,0.1,0.2,0.1,0.3c0,0.2-0.3,0.4-0.8,0.4c-0.4,0-0.8-0.1-1.1-0.4C127,93,126.8,92.5,126.9,92z"/>
<path class="st0" d="M66.1,107.5v-0.6c0-0.7-0.4-1-1.3-1c-0.5,0-1.1,0.1-1.6,0.4l-0.3,0.1c-0.1,0-0.2-0.1-0.3-0.2
	c-0.1-0.1-0.1-0.2-0.2-0.4c0-0.2,0.2-0.3,0.7-0.5c0.5-0.2,1.1-0.3,1.7-0.3c0.6,0,1.1,0.1,1.6,0.5c0.4,0.3,0.6,0.8,0.6,1.4v2.6
	c0,0.3,0,0.7,0.1,1c0.1,0.3,0.1,0.4,0.1,0.5s-0.1,0.2-0.2,0.2c-0.1,0-0.2,0.1-0.4,0.1c-0.1,0-0.1,0-0.2,0c0,0-0.1,0-0.1-0.1
	c0,0-0.1-0.1-0.1-0.1c0,0,0-0.1-0.1-0.1c0-0.1,0-0.1,0-0.2c0,0,0-0.1,0-0.2c0-0.1,0-0.1,0-0.2c-0.5,0.6-1.2,0.9-2,0.8
	c-0.5,0-1-0.1-1.5-0.4c-0.4-0.4-0.6-0.9-0.6-1.4c0-0.5,0.2-1.1,0.6-1.4c0.4-0.3,0.9-0.5,1.5-0.6C64.8,107.6,65.4,107.5,66.1,107.5z
	 M63.3,109.6c-0.1,0.5,0.2,0.9,0.7,1c0.1,0,0.2,0,0.3,0c0.3,0,0.7-0.1,1-0.2c0.3-0.2,0.6-0.4,0.8-0.6v-1.4c-0.6,0-1.3,0-1.9,0.2
	c-0.2,0.1-0.3,0.1-0.5,0.2C63.4,108.9,63.2,109.2,63.3,109.6L63.3,109.6z"/>
<path class="st0" d="M68.7,108.2c0-0.5,0.1-1,0.2-1.5c0.1-0.4,0.4-0.7,0.7-1c0.5-0.4,1.2-0.6,1.9-0.6c0.4,0,0.8,0.1,1.2,0.2
	c0.4,0.1,0.5,0.2,0.5,0.4c0,0.1-0.1,0.3-0.1,0.4c-0.1,0.2-0.2,0.2-0.2,0.2l0,0l0,0h0c-0.4-0.2-0.8-0.3-1.3-0.3
	c-1.1,0-1.7,0.8-1.7,2.3c-0.1,0.6,0.1,1.3,0.4,1.8c0.4,0.4,0.9,0.6,1.4,0.6c0.5,0,0.9-0.1,1.3-0.3h0.1h0.1c0.1,0,0.2,0.1,0.3,0.2
	c0.1,0.1,0.1,0.2,0.1,0.4c0,0.1-0.2,0.3-0.5,0.4c-0.4,0.1-0.9,0.2-1.3,0.2c-0.8,0.1-1.6-0.2-2.2-0.8
	C68.9,110.1,68.6,109.2,68.7,108.2z"/>
<path class="st0" d="M74.4,108.2c0-0.5,0.1-1,0.2-1.5c0.1-0.4,0.4-0.7,0.7-1c0.5-0.4,1.2-0.6,1.9-0.6c0.4,0,0.8,0.1,1.2,0.2
	c0.4,0.1,0.5,0.2,0.5,0.4c0,0.1-0.1,0.3-0.1,0.4c-0.1,0.2-0.2,0.2-0.2,0.2h0l0,0h0c-0.4-0.2-0.8-0.3-1.3-0.3c-1.1,0-1.7,0.8-1.7,2.3
	c-0.1,0.6,0.1,1.3,0.4,1.8c0.4,0.4,0.9,0.6,1.4,0.6c0.5,0,0.9-0.1,1.3-0.3h0.1h0.1c0.1,0,0.2,0.1,0.3,0.2c0.1,0.1,0.1,0.2,0.1,0.4
	c0,0.1-0.2,0.3-0.5,0.4c-0.4,0.1-0.9,0.2-1.3,0.2c-0.8,0.1-1.6-0.2-2.2-0.8C74.6,110.1,74.3,109.1,74.4,108.2z"/>
<path class="st0" d="M82.9,111.4c-0.8,0-1.5-0.3-2-0.8c-0.5-0.7-0.8-1.5-0.7-2.3c-0.1-0.8,0.2-1.7,0.7-2.4c0.5-0.6,1.3-0.9,2-0.8
	c0.8,0,1.5,0.3,2,0.8c0.9,1.4,0.9,3.3,0,4.7C84.4,111.2,83.7,111.5,82.9,111.4z M81.6,110c0.3,0.4,0.8,0.6,1.3,0.6
	c0.5,0,1-0.2,1.3-0.6c0.6-1.1,0.6-2.4,0-3.5c-0.6-0.7-1.7-0.8-2.4-0.1c-0.1,0-0.1,0.1-0.1,0.1C81.1,107.6,81.1,108.9,81.6,110
	L81.6,110z"/>
<path class="st0" d="M87.3,111.1V107c0-0.3,0-0.7-0.1-1c-0.1-0.3-0.1-0.4-0.1-0.5c0,0,0.1-0.2,0.2-0.2c0.1,0,0.2-0.1,0.3-0.1
	c0.1,0,0.1,0,0.2,0c0,0,0.1,0,0.1,0.1c0,0,0,0.1,0.1,0.1l0,0.1c0,0.1,0,0.1,0,0.1c0,0.1,0,0.1,0,0.2c0,0.1,0,0.1,0,0.1
	c0.4-0.5,1.1-0.8,1.8-0.8c0.7-0.1,1.4,0.3,1.7,1c0.5-0.6,1.2-1,2-1c0.4,0,0.8,0.1,1.2,0.3c0.2,0.1,0.4,0.4,0.5,0.6
	c0.1,0.3,0.2,0.6,0.2,1v4.1c0,0.2-0.2,0.3-0.5,0.3l0,0c-0.3,0-0.5-0.1-0.5-0.3v-4c0-0.3-0.1-0.6-0.3-0.8c-0.2-0.2-0.5-0.3-0.8-0.3
	c-0.6,0.1-1.1,0.4-1.5,0.8c0,0.1,0,0.2,0,0.2v4.1c0,0.2-0.2,0.3-0.5,0.3h0c-0.3,0-0.5-0.1-0.5-0.3v-4c0-0.3-0.1-0.6-0.3-0.8
	c-0.2-0.2-0.5-0.3-0.8-0.3c-0.5,0-1,0.2-1.4,0.6l-0.2,0.2v4.3c0,0.2-0.2,0.3-0.5,0.3h-0.1C87.4,111.4,87.3,111.3,87.3,111.1z"/>
<path class="st0" d="M98.3,113.6c0,0.2-0.2,0.3-0.5,0.3l0,0c-0.3,0-0.5-0.1-0.5-0.3V107c0-0.3,0-0.7-0.1-1c-0.1-0.3-0.1-0.4-0.1-0.5
	c0,0,0.1-0.2,0.2-0.2c0.1,0,0.2-0.1,0.4-0.1H98c0,0,0.1,0,0.1,0.1c0,0,0.1,0.1,0.1,0.1c0,0,0,0.1,0.1,0.1c0,0.1,0,0.1,0,0.1v0.2
	c0,0,0,0.1,0,0.1c0.5-0.5,1.2-0.8,1.9-0.8c0.7,0,1.3,0.3,1.7,0.8c0.4,0.7,0.7,1.5,0.6,2.2v0.1c0,0.8-0.2,1.6-0.7,2.3
	c-0.4,0.5-1,0.9-1.7,0.8c-0.6,0-1.3-0.2-1.8-0.6L98.3,113.6z M99.7,110.5L99.7,110.5c0.5,0,1-0.2,1.2-0.6c0.3-0.5,0.4-1.1,0.4-1.7
	c0-0.6-0.1-1.2-0.4-1.7c-0.2-0.4-0.7-0.6-1.2-0.6c-0.6,0-1.2,0.4-1.5,0.8v3.2C98.7,110.4,99.2,110.6,99.7,110.5z"/>
<path class="st0" d="M107.6,107.5v-0.6c0-0.7-0.4-1-1.3-1c-0.5,0-1.1,0.1-1.6,0.4l-0.3,0.1c-0.1,0-0.2-0.1-0.3-0.2
	c-0.1-0.1-0.1-0.2-0.2-0.4c0-0.2,0.2-0.3,0.7-0.5c0.5-0.2,1.1-0.3,1.7-0.3c0.6,0,1.1,0.1,1.6,0.5c0.4,0.3,0.6,0.8,0.6,1.4v2.6
	c0,0.3,0,0.7,0.1,1c0.1,0.3,0.1,0.4,0.1,0.5s-0.1,0.2-0.2,0.2c-0.1,0-0.2,0.1-0.4,0.1c-0.1,0-0.1,0-0.2,0c0,0-0.1,0-0.1-0.1
	c0,0,0-0.1-0.1-0.1c0,0,0-0.1-0.1-0.1c0-0.1,0-0.1,0-0.2c0-0.1,0-0.1,0-0.2c0-0.1,0-0.1,0-0.2c-0.5,0.6-1.2,0.9-2,0.8
	c-0.5,0-1-0.1-1.5-0.4c-0.4-0.4-0.6-0.9-0.6-1.4c0-0.5,0.2-1.1,0.6-1.4c0.4-0.3,0.9-0.5,1.5-0.6
	C106.3,107.6,106.9,107.5,107.6,107.5z M104.7,109.6c-0.1,0.5,0.2,0.9,0.7,1c0.1,0,0.2,0,0.3,0c0.3,0,0.7-0.1,1-0.2
	c0.3-0.2,0.6-0.4,0.8-0.6v-1.4c-0.6,0-1.3,0-1.9,0.2c-0.2,0.1-0.3,0.1-0.5,0.2C104.9,108.9,104.7,109.2,104.7,109.6L104.7,109.6z"/>
<path class="st0" d="M109.9,112.3c0-0.7,0.4-1.1,1.3-1.4c-0.4-0.1-0.7-0.5-0.8-1c0-0.4,0.3-0.8,0.9-1c-0.3-0.1-0.6-0.4-0.8-0.7
	c-0.2-0.3-0.3-0.7-0.3-1c0-0.6,0.2-1.1,0.6-1.5c0.5-0.4,1.1-0.6,1.7-0.6c0.3,0,0.5,0,0.8,0.1h2.1c0.2,0,0.2,0.1,0.2,0.4v0.1
	c0,0.2-0.1,0.4-0.2,0.4h-0.8c0.3,0.3,0.4,0.7,0.4,1.1c0,0.6-0.2,1.1-0.6,1.5c-0.5,0.4-1.1,0.6-1.7,0.6h-0.1c-0.7,0-1,0.2-1,0.5
	c0,0.2,0.1,0.3,0.4,0.4c0.3,0.1,0.7,0.2,1,0.2c0.4,0.1,0.8,0.1,1.2,0.2c0.4,0.1,0.7,0.3,1,0.5c0.3,0.3,0.4,0.6,0.4,1
	c0,0.6-0.3,1.1-0.8,1.3c-0.6,0.4-1.4,0.6-2.1,0.5c-0.7,0-1.4-0.1-2-0.3C110.2,113.3,109.9,112.8,109.9,112.3z M111,112.2
	c0,0.6,0.6,0.8,1.8,0.8c0.4,0,0.9-0.1,1.3-0.3c0.3-0.1,0.5-0.4,0.5-0.7c0-0.2-0.1-0.4-0.3-0.5c-0.5-0.2-1.1-0.4-1.6-0.4l-0.5-0.1
	c-0.3,0.1-0.6,0.3-0.8,0.5C111.1,111.7,111,112,111,112.2z M111.4,107.1c0,0.8,0.4,1.2,1.3,1.2c0.9,0,1.3-0.4,1.3-1.2
	s-0.4-1.2-1.3-1.2C111.8,105.9,111.4,106.3,111.4,107.1z"/>
<path class="st0" d="M117,111.1V107c0-0.3,0-0.7-0.1-1c-0.1-0.3-0.1-0.4-0.1-0.5c0,0,0.1-0.2,0.2-0.2c0.1,0,0.2-0.1,0.3-0.1h0.2
	c0,0,0.1,0.1,0.1,0.1c0,0,0,0.1,0.1,0.1c0,0,0,0.1,0,0.1c0,0.1,0,0.1,0,0.1c0,0.1,0,0.1,0,0.2v0.1c0.4-0.5,1.1-0.8,1.8-0.8
	c0.5,0,1.1,0.1,1.5,0.5c0.4,0.4,0.5,0.9,0.5,1.4v4.1c0,0.2-0.2,0.3-0.5,0.3H121c-0.3,0-0.5-0.1-0.5-0.3v-4c0-0.3-0.1-0.6-0.3-0.8
	c-0.2-0.2-0.6-0.3-0.9-0.3c-0.6,0-1.2,0.3-1.5,0.8v4.3c0,0.2-0.2,0.3-0.5,0.3h-0.1C117.2,111.4,117,111.3,117,111.1z"/>
<path class="st0" d="M124,110.7c-0.5-0.7-0.8-1.5-0.7-2.3c-0.1-0.9,0.2-1.7,0.7-2.4c0.5-0.6,1.2-0.9,2-0.8c1.7,0,2.5,1,2.5,3.1
	c0,0.1-0.1,0.2-0.1,0.3c-0.1,0.1-0.2,0.2-0.2,0.2h-3.8c0,0.5,0.2,1,0.5,1.4c0.4,0.3,0.8,0.5,1.3,0.5c0.5,0,1-0.1,1.5-0.4l0.3-0.1
	c0.1,0,0.2,0.1,0.3,0.2c0.1,0.1,0.1,0.2,0.2,0.4c0,0.2-0.2,0.3-0.7,0.5c-0.5,0.2-1,0.3-1.5,0.3C125.3,111.5,124.5,111.2,124,110.7z
	 M127.4,107.8c0-1.2-0.5-1.9-1.4-1.9s-1.6,0.6-1.7,1.9H127.4z"/>
<path class="st0" d="M130,111.1V107c0-0.3,0-0.7-0.1-1c-0.1-0.3-0.1-0.4-0.1-0.5c0,0,0.1-0.2,0.2-0.2c0.1,0,0.2-0.1,0.3-0.1h0.2
	c0,0,0.1,0.1,0.1,0.1c0,0,0,0.1,0.1,0.1c0,0,0,0.1,0,0.1c0,0.1,0,0.1,0,0.1c0,0.1,0,0.1,0,0.2c0,0.1,0,0.1,0,0.1
	c0.3-0.5,0.8-0.8,1.4-0.8c0.2,0,0.4,0,0.5,0.1c0.1,0.1,0.2,0.2,0.2,0.3c0,0.1,0,0.3-0.1,0.4c0,0.2-0.1,0.2-0.2,0.2
	c-0.1,0-0.2,0-0.2-0.1c-0.1-0.1-0.3-0.1-0.4-0.1c-0.2,0-0.4,0.1-0.5,0.2c-0.2,0.1-0.3,0.2-0.4,0.4l-0.1,0.2v4.3
	c0,0.2-0.2,0.3-0.5,0.3h-0.1C130.2,111.4,130,111.3,130,111.1z"/>
<path class="st1" d="M106.4,25.8c-1.9-2.4-4.3-3.7-8.4-4.1c-0.7-0.1-1.3-0.8-1.3-1.6c0-0.6,1.8-2.3,1.8-2.3c1.8-2.1,2.9-4.7,2.9-7.5
	c0-3.7-3-6.8-6.8-6.8s-6.8,3-6.8,6.8c0,2.8,1,5.5,2.9,7.5c0,0,1.8,1.7,1.8,2.2c0,0.8-0.6,1.5-1.4,1.6c-4,0.4-6.4,1.7-8.2,4.1
	c-0.5,0.9-0.8,1.8-0.8,2.8c0,0.2,0,3.2,0,3.2c0,1.4,1.2,2.6,2.6,2.6h20c1.4,0,2.5-1.2,2.5-2.6c0,0,0-3,0-3.2
	C107.1,27.7,106.9,26.7,106.4,25.8"/>
<path class="st1" d="M118.8,27.9c-1.4-1.9-3.3-2.8-6.4-3.2c-0.6-0.1-1-0.6-1-1.2c0-0.4,1.4-1.7,1.4-1.7c1.4-1.6,2.2-3.6,2.2-5.8
	c0.1-2.9-2.1-5.3-5-5.4c-2.9-0.1-5.3,2.1-5.4,5c0,0.1,0,0.3,0,0.4c0,2.1,0.8,4.2,2.2,5.8c0,0,1.4,1.3,1.4,1.7c0,0.6-0.5,1.2-1.1,1.2
	c-3.1,0.3-4.9,1.3-6.3,3.1c-0.4,0.7-0.6,1.4-0.7,2.2c0,0.2,0,2.5,0,2.5c0,1.1,0.9,2,2,2h15.3c1.1,0,2-0.9,2-2c0,0,0,0,0,0V30
	C119.4,29.3,119.2,28.5,118.8,27.9"/>
<path class="st1" d="M88.5,27.9C87,26,85.2,25,82.1,24.7c-0.6-0.1-1-0.6-1-1.2c0-0.4,1.4-1.7,1.4-1.7c1.4-1.6,2.2-3.6,2.2-5.8
	c0.1-2.9-2.1-5.3-5-5.4c-2.9-0.1-5.3,2.1-5.4,5c0,0.1,0,0.3,0,0.4c0,2.1,0.8,4.2,2.2,5.8c0,0,1.4,1.3,1.4,1.7c0,0.6-0.5,1.1-1.1,1.2
	c-3.1,0.3-4.9,1.3-6.3,3.1c-0.4,0.7-0.6,1.4-0.6,2.2v2.5c0,1.1,0.9,2,2,2c0,0,0,0,0,0h15.3c1.1,0,2-0.9,2-2c0,0,0-2.3,0-2.5
	C89.1,29.3,88.9,28.5,88.5,27.9"/>
<path class="st0" d="M235.4,57.9c0-0.1,0-0.2,0.1-0.2l2.5-7.6c0.1-0.2,0.3-0.2,0.7-0.2h0.6c0.4,0,0.6,0.1,0.7,0.2l2.6,7.6
	c0,0.1,0,0.1,0,0.2c0,0.2-0.2,0.3-0.6,0.3h-0.5c-0.4,0-0.6-0.1-0.7-0.2l-0.5-1.4h-2.8l-0.4,1.5c-0.1,0.2-0.2,0.2-0.5,0.2h-0.5
	C235.7,58.1,235.4,58,235.4,57.9z M238.2,54.9h1.8l-0.7-2.1l-0.2-0.8H239c0,0.3-0.1,0.5-0.2,0.8L238.2,54.9z"/>
<path class="st0" d="M243.7,53.9c0-2.8,1.3-4.2,3.9-4.2c0.6,0,1.1,0.1,1.7,0.2c0.5,0.2,0.8,0.4,0.8,0.6c0,0.3-0.1,0.5-0.3,0.7
	c-0.2,0.3-0.3,0.4-0.5,0.4c-0.1,0-0.2-0.1-0.2-0.1c-0.5-0.2-1-0.3-1.5-0.3c-1.4,0-2,0.9-2,2.7s0.7,2.7,2,2.7c0.6,0,1.1-0.1,1.6-0.4
	c0.1-0.1,0.2-0.1,0.3-0.1c0.2,0,0.3,0.1,0.5,0.4c0.1,0.2,0.2,0.4,0.2,0.6c0,0.3-0.3,0.6-0.8,0.7c-0.6,0.2-1.2,0.3-1.8,0.3
	c-1.1,0.1-2.1-0.3-2.9-1C244,56.3,243.6,55.1,243.7,53.9z"/>
<path class="st0" d="M253.3,57.8v-6.4h-1.9c-0.2,0-0.4-0.2-0.4-0.6v-0.4c0-0.4,0.1-0.6,0.4-0.6h5.6c0.2,0,0.4,0.2,0.4,0.6v0.4
	c0,0.4-0.1,0.6-0.4,0.6h-1.9v6.4c0,0.3-0.2,0.4-0.7,0.4H254C253.5,58.1,253.3,58,253.3,57.8z"/>
<path class="st0" d="M258.8,57.6v-7.3c0-0.2,0.1-0.4,0.3-0.5c0,0,0.1,0,0.1,0h4.3c0.2,0,0.4,0.2,0.4,0.6v0.4c0,0.4-0.1,0.6-0.4,0.6
	h-3v1.7h2.7c0.2,0,0.4,0.2,0.4,0.6V54c0,0.4-0.1,0.6-0.4,0.6h-2.7v1.9h3c0.2,0,0.3,0.2,0.3,0.6v0.4c0,0.4-0.1,0.6-0.3,0.6h-4.3
	C259,58.1,258.8,58,258.8,57.6C258.8,57.7,258.8,57.7,258.8,57.6z"/>
<path class="st0" d="M265.7,55.3v-5.2c0-0.3,0.2-0.4,0.7-0.4h0.4c0.5,0,0.7,0.1,0.7,0.4v5.1c0,0.4,0.2,0.8,0.4,1
	c0.3,0.3,0.7,0.4,1.2,0.4c0.4,0,0.8-0.1,1.2-0.4c0.3-0.3,0.5-0.6,0.5-1v-5.1c0-0.3,0.2-0.4,0.7-0.4h0.4c0.5,0,0.7,0.1,0.7,0.4v5.2
	c0,0.8-0.3,1.6-0.9,2.1c-1.5,1-3.5,1-5.1,0C266,56.9,265.6,56.2,265.7,55.3z"/>
<path class="st0" d="M274.6,57.8v-7.5c0-0.2,0.1-0.4,0.3-0.5c0,0,0.1,0,0.1,0h2.3c2,0,2.9,0.7,2.9,2.2c0,0.4-0.1,0.8-0.4,1.1
	c-0.3,0.3-0.6,0.6-1,0.7V54c0.2,0.1,0.3,0.2,0.5,0.4c0.2,0.2,0.3,0.4,0.4,0.7l1,2.6c0,0.1,0,0.1,0.1,0.2c0,0.2-0.2,0.2-0.7,0.2h-0.5
	c-0.4,0-0.6-0.1-0.7-0.2l-0.9-2.3c-0.1-0.2-0.2-0.4-0.4-0.5c-0.2-0.1-0.5-0.2-0.8-0.2h-0.5v2.9c0,0.3-0.2,0.4-0.7,0.4h-0.4
	C274.8,58.1,274.6,58,274.6,57.8z M276.4,53.3h1.1c0.2,0,0.5-0.1,0.6-0.3c0.2-0.2,0.3-0.5,0.3-0.7c0-0.2-0.1-0.5-0.3-0.7
	c-0.2-0.2-0.5-0.3-0.7-0.2h-1L276.4,53.3z"/>
<path class="st0" d="M281.7,57.2c0-0.2,0.1-0.5,0.3-0.7c0.2-0.3,0.3-0.4,0.5-0.4c0.1,0,0.2,0.1,0.3,0.1c0.4,0.3,0.9,0.4,1.4,0.4
	c0.7,0,1.1-0.3,1.1-0.8c0-0.3-0.1-0.5-0.4-0.6c-0.3-0.2-0.5-0.3-0.8-0.5c-0.3-0.1-0.7-0.3-1-0.4c-0.8-0.4-1.2-1.2-1.2-2.1
	c0-0.5,0.1-1,0.4-1.4c0.6-0.7,1.5-1.1,2.4-1c0.5,0,1,0.1,1.5,0.3c0.4,0.2,0.6,0.4,0.6,0.6c0,0.2-0.1,0.5-0.2,0.7
	c-0.2,0.3-0.3,0.4-0.4,0.4c-0.1,0-0.1,0-0.2-0.1c-0.3-0.1-0.7-0.2-1.1-0.2c-0.3,0-0.6,0.1-0.8,0.2c-0.2,0.1-0.2,0.3-0.2,0.5
	c0,0.2,0.1,0.5,0.4,0.6c0.3,0.2,0.5,0.3,0.8,0.4c0.3,0.1,0.7,0.3,1,0.4c0.8,0.4,1.2,1.2,1.2,2.1c0,0.4-0.1,0.9-0.2,1.3
	c-0.1,0.3-0.3,0.6-0.6,0.8c-0.6,0.4-1.2,0.6-1.9,0.6c-0.7,0-1.3-0.1-1.9-0.3C282,57.6,281.7,57.4,281.7,57.2z"/>
<path class="st0" d="M218.7,75.4v-7.3c0-0.2,0.1-0.4,0.3-0.5c0,0,0.1,0,0.1,0h4.3c0.2,0,0.4,0.2,0.4,0.6v0.4c0,0.4-0.1,0.6-0.4,0.6
	h-3v1.7h2.7c0.2,0,0.4,0.2,0.4,0.6v0.4c0,0.4-0.1,0.6-0.4,0.6h-2.7v1.9h3c0.2,0,0.4,0.2,0.4,0.6v0.4c0,0.4-0.1,0.6-0.4,0.6h-4.3
	C218.9,75.9,218.7,75.7,218.7,75.4C218.7,75.5,218.7,75.4,218.7,75.4z M220.8,66.7c-0.2,0-0.4-0.1-0.4-0.2c0-0.1,0.1-0.3,0.2-0.4
	c0.1-0.2,0.2-0.3,0.3-0.5l0.3-0.5c0.1-0.2,0.4-0.3,0.9-0.3c0.5,0,0.8,0.1,0.8,0.2c0,0.1,0,0.1-0.1,0.2c-0.1,0.1-0.2,0.2-0.3,0.3
	c-0.1,0.2-0.2,0.3-0.3,0.3L222,66l-0.3,0.4C221.4,66.6,221.1,66.7,220.8,66.7z"/>
<path class="st0" d="M225.3,71.7c0-2.8,1.3-4.2,4-4.2c0.6,0,1.1,0.1,1.7,0.2c0.5,0.2,0.8,0.4,0.8,0.6c0,0.3-0.1,0.5-0.3,0.7
	c-0.2,0.3-0.4,0.4-0.5,0.4c-0.1,0-0.2-0.1-0.3-0.1c-0.5-0.2-1-0.3-1.5-0.3c-1.4,0-2,0.9-2,2.7s0.7,2.7,2,2.7c0.6,0,1.1-0.1,1.6-0.4
	c0.1-0.1,0.2-0.1,0.3-0.1c0.2,0,0.3,0.1,0.5,0.4c0.1,0.2,0.2,0.4,0.2,0.6c0,0.3-0.3,0.6-0.8,0.7c-0.6,0.2-1.2,0.3-1.8,0.3
	c-1.1,0.1-2.2-0.3-2.9-1C225.6,74,225.3,72.9,225.3,71.7z"/>
<path class="st0" d="M234.1,74.9c-1.3-1.9-1.3-4.4,0-6.3c1.6-1.5,4-1.5,5.6,0c1.3,1.9,1.3,4.4,0,6.3
	C238.2,76.3,235.7,76.3,234.1,74.9z M235.5,73.7c0.3,0.5,0.9,0.7,1.4,0.7c0.6,0,1.1-0.2,1.4-0.7c0.4-0.6,0.5-1.3,0.5-2
	c0-0.7-0.1-1.4-0.5-2c-0.3-0.5-0.9-0.7-1.4-0.7c-0.6,0-1.1,0.2-1.4,0.7c-0.4,0.6-0.5,1.3-0.5,2C235,72.4,235.2,73.1,235.5,73.7z"/>
<path class="st0" d="M242.5,75.5v-7.6c0-0.3,0.2-0.4,0.7-0.4h0.5c0.3,0,0.6,0.1,0.8,0.3l3.1,4.8v-4.7c0-0.3,0.2-0.4,0.7-0.4h0.3
	c0.5,0,0.7,0.1,0.7,0.4v7.6c0,0.3-0.2,0.4-0.7,0.4h-0.4c-0.3,0-0.6-0.1-0.8-0.3l-3.2-4.9v4.8c0,0.3-0.2,0.4-0.7,0.4h-0.3
	C242.8,75.9,242.5,75.8,242.5,75.5z"/>
<path class="st0" d="M252.2,74.9c-1.3-1.9-1.3-4.4,0-6.3c1.6-1.5,4-1.5,5.6,0c1.3,1.9,1.3,4.4,0,6.3
	C256.3,76.3,253.8,76.3,252.2,74.9z M253.6,73.7c0.3,0.5,0.9,0.7,1.4,0.7c0.6,0,1.1-0.2,1.4-0.7c0.4-0.6,0.5-1.3,0.5-2
	c0-0.7-0.1-1.4-0.5-2c-0.3-0.5-0.9-0.7-1.4-0.7c-0.6,0-1.1,0.2-1.4,0.7c-0.4,0.6-0.5,1.3-0.5,2C253.1,72.4,253.2,73.1,253.6,73.7z"
	/>
<path class="st0" d="M260.6,75.5v-7.6c0-0.3,0.2-0.4,0.7-0.4h0.6c0.4,0,0.6,0.1,0.7,0.3l2.1,3.7l2.1-3.7c0.1-0.2,0.4-0.3,0.7-0.3
	h0.6c0.5,0,0.7,0.1,0.7,0.4v7.6c0,0.3-0.2,0.4-0.7,0.4h-0.3c-0.5,0-0.7-0.1-0.7-0.4v-4.9h0l-1.7,3.1c-0.1,0.2-0.3,0.2-0.5,0.2h-0.3
	c-0.2,0-0.4-0.1-0.5-0.2l-1.7-3.1h0v4.9c0,0.3-0.2,0.4-0.7,0.4h-0.3C260.9,75.9,260.6,75.8,260.6,75.5z"/>
<path class="st0" d="M271,75.5v-7.6c0-0.3,0.2-0.4,0.7-0.4h0.4c0.5,0,0.7,0.1,0.7,0.4v7.6c0,0.3-0.2,0.4-0.7,0.4h-0.4
	C271.3,75.9,271,75.8,271,75.5z"/>
<path class="st0" d="M274.6,71.7c-0.1-1.1,0.3-2.3,1-3.1c1.6-1.5,4-1.5,5.6,0c0.7,0.9,1.1,2,1,3.1c0,1.9-0.6,3.1-1.9,3.8v0.1
	l1.8,0.7c0.1,0,0.2,0.1,0.2,0.2c0,0.2-0.1,0.5-0.2,0.7c-0.1,0.3-0.3,0.5-0.4,0.5s-0.6-0.2-1.6-0.6l-3.3-1.3
	c-0.7-0.3-1.3-0.8-1.6-1.4C274.8,73.5,274.6,72.6,274.6,71.7z M277,73.7c0.6,0.8,1.8,0.9,2.6,0.3c0.1-0.1,0.2-0.2,0.3-0.3
	c0.4-0.6,0.5-1.3,0.5-2c0-0.7-0.1-1.4-0.5-2c-0.6-0.8-1.8-0.9-2.6-0.3c-0.1,0.1-0.2,0.2-0.3,0.3c-0.4,0.6-0.5,1.3-0.5,2
	C276.4,72.4,276.6,73.1,277,73.7z"/>
<path class="st0" d="M284,73.1v-5.2c0-0.3,0.2-0.4,0.7-0.4h0.4c0.5,0,0.7,0.1,0.7,0.4V73c0,0.4,0.2,0.8,0.4,1
	c0.3,0.3,0.7,0.4,1.2,0.4c0.4,0,0.8-0.1,1.2-0.4c0.3-0.3,0.5-0.6,0.5-1v-5.1c0-0.3,0.2-0.4,0.7-0.4h0.4c0.5,0,0.7,0.1,0.7,0.4v5.2
	c0,0.8-0.3,1.6-0.9,2.1c-1.5,1-3.5,1-5.1,0C284.3,74.7,283.9,73.9,284,73.1z"/>
<path class="st0" d="M292.9,75.4v-7.3c0-0.2,0.1-0.4,0.3-0.5c0,0,0.1,0,0.1,0h4.3c0.2,0,0.4,0.2,0.4,0.6v0.4c0,0.4-0.1,0.6-0.4,0.6
	h-3v1.7h2.7c0.2,0,0.4,0.2,0.4,0.6v0.4c0,0.4-0.1,0.6-0.4,0.6h-2.7v1.9h3c0.2,0,0.4,0.2,0.4,0.6v0.4c0,0.4-0.1,0.6-0.4,0.6h-4.3
	C293.2,75.9,292.9,75.7,292.9,75.4C292.9,75.4,292.9,75.4,292.9,75.4z"/>
<path class="st0" d="M299.3,74.9c0-0.2,0.1-0.5,0.3-0.7c0.2-0.3,0.3-0.4,0.5-0.4c0.1,0,0.2,0.1,0.3,0.1c0.4,0.3,0.9,0.4,1.4,0.4
	c0.7,0,1.1-0.3,1.1-0.8c0-0.3-0.1-0.5-0.4-0.6c-0.3-0.2-0.5-0.3-0.8-0.5c-0.3-0.1-0.7-0.3-1-0.4c-0.3-0.2-0.6-0.5-0.8-0.8
	c-0.2-0.4-0.4-0.9-0.4-1.3c0-0.5,0.1-1,0.4-1.4c0.6-0.7,1.5-1.1,2.4-1c0.5,0,1,0.1,1.5,0.3c0.4,0.2,0.6,0.4,0.6,0.6
	c0,0.2-0.1,0.5-0.2,0.7c-0.2,0.3-0.3,0.4-0.4,0.4c-0.1,0-0.1,0-0.2-0.1c-0.3-0.1-0.7-0.2-1.1-0.2c-0.3,0-0.6,0.1-0.8,0.2
	c-0.3,0.2-0.3,0.7-0.1,0.9c0.1,0.1,0.1,0.1,0.2,0.2c0.3,0.2,0.5,0.3,0.8,0.4c0.3,0.1,0.7,0.3,1,0.4c0.3,0.2,0.6,0.5,0.8,0.8
	c0.2,0.4,0.4,0.8,0.4,1.3c0,0.4-0.1,0.9-0.2,1.3c-0.1,0.3-0.3,0.6-0.6,0.8c-0.6,0.4-1.2,0.6-1.9,0.6c-0.7,0-1.3-0.1-1.9-0.3
	C299.6,75.4,299.3,75.2,299.3,74.9z"/>
<path class="st0" d="M231.3,93.4v-4.2c0-0.3,0-0.7-0.1-1c-0.1-0.3-0.1-0.4-0.1-0.5s0.1-0.2,0.2-0.2c0.1,0,0.2-0.1,0.4-0.1h0.2
	c0,0,0.1,0,0.1,0.1c0,0,0,0.1,0.1,0.1c0,0,0,0.1,0.1,0.1c0,0.1,0,0.1,0,0.1c0,0.1,0,0.1,0,0.2c0,0,0,0.1,0,0.1
	c0.4-0.5,1.1-0.8,1.8-0.8c0.7-0.1,1.4,0.3,1.7,1c0.4-0.6,1.1-1,1.9-1c0.4,0,0.8,0.1,1.2,0.3c0.2,0.1,0.4,0.4,0.5,0.6
	c0.1,0.3,0.2,0.6,0.2,1v4.1c0,0.2-0.2,0.3-0.5,0.3h-0.1c-0.3,0-0.5-0.1-0.5-0.3v-4c0-0.3-0.1-0.6-0.3-0.8c-0.2-0.2-0.5-0.3-0.8-0.3
	c-0.6,0.1-1.1,0.4-1.5,0.8c0,0.1,0,0.2,0,0.2v4.1c0,0.2-0.2,0.3-0.5,0.3h-0.1c-0.3,0-0.5-0.1-0.5-0.3v-4c0-0.3-0.1-0.6-0.3-0.8
	c-0.2-0.2-0.5-0.3-0.8-0.3c-0.3,0-0.6,0.1-0.8,0.2c-0.2,0.1-0.4,0.2-0.5,0.4l-0.2,0.2v4.3c0,0.2-0.2,0.3-0.5,0.3l0,0
	C231.5,93.6,231.3,93.5,231.3,93.4z"/>
<path class="st0" d="M243.8,93.7c-0.8,0-1.5-0.3-2-0.8c-1-1.4-1-3.3,0-4.7c0.5-0.6,1.3-0.9,2-0.8c0.8,0,1.5,0.3,2,0.8
	c0.5,0.7,0.7,1.5,0.7,2.4c0.1,0.8-0.2,1.7-0.7,2.3C245.3,93.4,244.5,93.7,243.8,93.7z M242.5,92.3c0.3,0.4,0.8,0.6,1.3,0.6
	c0.5,0,1-0.2,1.3-0.6c0.6-1.1,0.6-2.4,0-3.5c-0.3-0.4-0.8-0.6-1.3-0.6c-0.5,0-1,0.2-1.3,0.6C241.9,89.9,241.9,91.2,242.5,92.3
	L242.5,92.3z"/>
<path class="st0" d="M248.1,93.4V85c0-0.2,0.2-0.3,0.5-0.3h0.1c0.3,0,0.5,0.1,0.5,0.3v3c0.5-0.4,1.1-0.6,1.8-0.6
	c0.7,0,1.3,0.3,1.7,0.8c0.5,0.7,0.7,1.5,0.7,2.3v0.1c0,0.8-0.2,1.6-0.6,2.2c-0.4,0.6-1,0.9-1.7,0.8c-0.7,0-1.4-0.3-1.9-0.8l-0.2,0.7
	c0,0.1-0.1,0.1-0.3,0.1h-0.1C248.2,93.6,248.1,93.5,248.1,93.4z M249.1,92c0.4,0.5,0.9,0.8,1.5,0.8c1,0,1.5-0.8,1.5-2.4
	c0-0.6-0.1-1.1-0.4-1.6c-0.3-0.4-0.7-0.6-1.1-0.6h-0.1c-0.5,0-1,0.2-1.4,0.5V92z"/>
<path class="st0" d="M255.3,85.9c-0.3,0-0.5-0.1-0.5-0.3V85c0-0.2,0.2-0.3,0.5-0.3h0.1c0.3,0,0.5,0.1,0.5,0.3v0.7
	c0,0.2-0.2,0.3-0.5,0.3H255.3z M254.9,93.4v-5.7c0-0.2,0.2-0.3,0.5-0.3h0.1c0.3,0,0.5,0.1,0.5,0.3v5.7c0,0.2-0.2,0.3-0.5,0.3h-0.1
	C255.1,93.6,254.9,93.5,254.9,93.4z"/>
<path class="st0" d="M257.9,92V85c0-0.2,0.2-0.3,0.5-0.3h0c0.3,0,0.5,0.1,0.5,0.3v7c0,0.6,0.2,0.8,0.6,0.8c0.1,0,0.2,0,0.3,0h0.2
	c0.1,0,0.1,0.1,0.2,0.2c0,0.1,0.1,0.2,0.1,0.3c0,0.2-0.3,0.4-0.8,0.4c-0.4,0-0.8-0.1-1.1-0.4C258.1,93,257.9,92.5,257.9,92z"/>
<path class="st0" d="M262,85.9c-0.3,0-0.5-0.1-0.5-0.3V85c0-0.2,0.2-0.3,0.5-0.3h0.1c0.3,0,0.5,0.1,0.5,0.3v0.7
	c0,0.2-0.2,0.3-0.5,0.3H262z M261.6,93.4v-5.7c0-0.2,0.2-0.3,0.5-0.3h0.1c0.3,0,0.5,0.1,0.5,0.3v5.7c0,0.2-0.2,0.3-0.5,0.3H262
	C261.7,93.6,261.6,93.5,261.6,93.4z"/>
<path class="st0" d="M264,93c0-0.1,0.1-0.2,0.1-0.4c0.1-0.2,0.2-0.2,0.3-0.2l0.2,0.1c0.2,0.1,0.3,0.2,0.5,0.2
	c0.3,0.1,0.5,0.1,0.8,0.1c0.3,0,0.6-0.1,0.8-0.3c0.2-0.2,0.3-0.5,0.3-0.7c0-0.3-0.1-0.5-0.3-0.7c-0.3-0.2-0.7-0.4-1.1-0.5
	c-0.4-0.1-0.8-0.3-1.1-0.6c-0.3-0.3-0.4-0.7-0.4-1.1c0-0.5,0.2-0.9,0.5-1.2c0.4-0.3,0.9-0.5,1.4-0.5c0.4,0,0.7,0,1.1,0.2
	c0.3,0.1,0.5,0.2,0.5,0.3c0,0.1-0.1,0.3-0.1,0.4c-0.1,0.2-0.2,0.2-0.2,0.2c-0.1,0-0.1,0-0.2-0.1c-0.3-0.1-0.6-0.2-0.9-0.2
	c-0.3,0-0.6,0.1-0.8,0.2c-0.2,0.1-0.3,0.3-0.3,0.5c0,0.2,0.1,0.4,0.2,0.5c0.2,0.2,0.4,0.3,0.7,0.3c0.6,0.1,1.1,0.4,1.5,0.8
	c0.3,0.3,0.4,0.8,0.4,1.2c0,0.5-0.2,1-0.6,1.4c-0.4,0.4-0.9,0.5-1.4,0.5c-0.5,0-1-0.1-1.4-0.2C264.3,93.3,264,93.1,264,93z"/>
<path class="st0" d="M269.9,92.9c-0.5-0.7-0.8-1.5-0.7-2.3c-0.1-0.9,0.2-1.7,0.7-2.4c0.5-0.6,1.2-0.9,2-0.8c1.7,0,2.5,1,2.5,3.1
	c0,0.1-0.1,0.2-0.1,0.3c-0.1,0.1-0.2,0.2-0.3,0.2h-3.7c0,0.5,0.2,1,0.5,1.4c0.4,0.3,0.8,0.5,1.3,0.5c0.5,0,1-0.1,1.5-0.4l0.2-0.1
	c0.1,0,0.2,0.1,0.3,0.2c0.1,0.1,0.1,0.2,0.2,0.4c0,0.2-0.2,0.3-0.6,0.5c-0.5,0.2-1,0.3-1.5,0.3C271.3,93.7,270.5,93.5,269.9,92.9z
	 M273.3,90.1c0-1.2-0.5-1.9-1.4-1.9s-1.6,0.6-1.7,1.9H273.3z"/>
<path class="st0" d="M275.9,93.4v-4.2c0-0.3,0-0.7-0.1-1c-0.1-0.3-0.1-0.4-0.1-0.5s0.1-0.2,0.2-0.2c0.1,0,0.2-0.1,0.4-0.1h0.2
	c0,0,0.1,0,0.1,0.1c0,0,0.1,0.1,0.1,0.1c0,0,0,0.1,0.1,0.1c0,0.1,0,0.1,0,0.1v0.2c0,0,0,0.1,0,0.1c0.3-0.5,0.8-0.8,1.4-0.8
	c0.2,0,0.4,0,0.5,0.1c0.1,0.1,0.2,0.2,0.2,0.3c0,0.1,0,0.3-0.1,0.4c-0.1,0.2-0.1,0.2-0.2,0.2c-0.1,0-0.2,0-0.2-0.1
	c-0.1-0.1-0.3-0.1-0.4-0.1c-0.2,0-0.4,0.1-0.5,0.2c-0.2,0.1-0.3,0.2-0.4,0.4l-0.1,0.2v4.3c0,0.2-0.2,0.3-0.5,0.3h0
	C276.1,93.6,275.9,93.5,275.9,93.4z"/>
<path class="st0" d="M283.4,92.9c-0.5-0.7-0.8-1.5-0.7-2.3c-0.1-0.9,0.2-1.7,0.7-2.4c0.5-0.6,1.2-0.9,2-0.8c1.7,0,2.5,1,2.5,3.1
	c0,0.1-0.1,0.2-0.1,0.3c-0.1,0.1-0.2,0.2-0.3,0.2h-3.7c0,0.5,0.2,1,0.5,1.4c0.4,0.3,0.8,0.5,1.3,0.5c0.5,0,1-0.1,1.5-0.4l0.2-0.1
	c0.1,0,0.2,0.1,0.3,0.2c0.1,0.1,0.1,0.2,0.2,0.4c0,0.2-0.2,0.3-0.6,0.5c-0.5,0.2-1,0.3-1.5,0.3C284.8,93.7,284,93.5,283.4,92.9z
	 M286.9,90.1c0-1.2-0.5-1.9-1.4-1.9s-1.6,0.6-1.7,1.9H286.9z"/>
<path class="st0" d="M289.7,92v-3.8h-0.6c-0.2,0-0.2-0.1-0.2-0.4v-0.1c0-0.2,0.1-0.4,0.2-0.4h0.6l0.1-1.2c0-0.2,0.1-0.3,0.4-0.3h0.1
	c0.2,0,0.4,0.1,0.4,0.3v1.2h1c0.2,0,0.2,0.1,0.2,0.4v0.1c0,0.2-0.1,0.4-0.2,0.4h-1V92c0,0.6,0.2,0.8,0.6,0.8c0.1,0,0.2,0,0.3,0h0.2
	c0.1,0,0.1,0.1,0.2,0.2c0,0.1,0.1,0.2,0.1,0.3c0,0.2-0.3,0.4-0.8,0.4c-0.4,0-0.8-0.1-1.1-0.4C289.8,93,289.6,92.5,289.7,92z"/>
<path class="st0" d="M235.8,108.2c0-0.5,0.1-1,0.2-1.5c0.1-0.4,0.4-0.7,0.7-1c0.5-0.4,1.2-0.6,1.9-0.6c0.4,0,0.8,0.1,1.2,0.2
	c0.4,0.1,0.5,0.2,0.5,0.4c0,0.1-0.1,0.3-0.1,0.4c-0.1,0.2-0.2,0.2-0.2,0.2l0,0h-0.1h0c-0.4-0.2-0.8-0.3-1.3-0.3
	c-1.1,0-1.7,0.8-1.7,2.3c-0.1,0.6,0,1.2,0.3,1.8c0.4,0.4,0.9,0.6,1.4,0.6c0.5,0,0.9-0.1,1.3-0.3h0.1h0.1c0.1,0,0.2,0.1,0.3,0.2
	c0.1,0.1,0.1,0.2,0.1,0.4c0,0.1-0.2,0.3-0.6,0.4c-0.4,0.1-0.9,0.2-1.3,0.2c-0.8,0.1-1.6-0.2-2.2-0.8
	C235.9,110,235.7,109.1,235.8,108.2z"/>
<path class="st0" d="M244.3,111.4c-0.8,0-1.5-0.3-2-0.8c-0.5-0.7-0.8-1.5-0.7-2.3c-0.1-0.8,0.2-1.7,0.7-2.4c0.5-0.6,1.3-0.9,2-0.8
	c0.8,0,1.5,0.3,2,0.8c0.9,1.4,0.9,3.3,0,4.7C245.8,111.2,245,111.5,244.3,111.4z M243,110c0.3,0.4,0.8,0.6,1.3,0.6
	c0.5,0,1-0.2,1.3-0.6c0.6-1.1,0.6-2.4,0-3.5c-0.3-0.4-0.8-0.6-1.3-0.6c-0.5,0-1,0.2-1.3,0.6C242.4,107.6,242.4,108.9,243,110z"/>
<path class="st0" d="M248.6,111.1V107c0-0.3,0-0.7-0.1-1c-0.1-0.3-0.1-0.4-0.1-0.5c0,0,0.1-0.2,0.2-0.2c0.1,0,0.2-0.1,0.4-0.1h0.2
	c0,0,0.1,0,0.1,0.1c0,0,0,0.1,0.1,0.1c0,0,0,0.1,0.1,0.1c0,0.1,0,0.1,0,0.1c0,0.1,0,0.1,0,0.2c0,0,0,0.1,0,0.1
	c0.4-0.5,1.1-0.8,1.8-0.8c0.5,0,1.1,0.1,1.5,0.5c0.4,0.4,0.5,0.9,0.5,1.4v4.1c0,0.2-0.2,0.3-0.5,0.3h-0.1c-0.3,0-0.5-0.1-0.5-0.3v-4
	c0-0.3-0.1-0.6-0.3-0.8c-0.2-0.2-0.6-0.3-0.9-0.3c-0.6,0-1.2,0.3-1.5,0.8v4.3c0,0.2-0.2,0.3-0.5,0.3h0
	C248.8,111.4,248.6,111.3,248.6,111.1z"/>
<path class="st0" d="M255.2,111.1V107c0-0.3,0-0.7-0.1-1c-0.1-0.3-0.1-0.4-0.1-0.5c0-0.1,0.1-0.2,0.2-0.2c0.1,0,0.2-0.1,0.4-0.1h0.2
	c0,0,0.1,0,0.1,0.1c0,0,0.1,0.1,0.1,0.1c0,0,0,0.1,0.1,0.1c0,0.1,0,0.1,0,0.1c0,0,0,0.1,0,0.2c0,0,0,0.1,0,0.1
	c0.4-0.5,1.1-0.8,1.8-0.8c0.5,0,1.1,0.1,1.5,0.5c0.4,0.4,0.5,0.9,0.5,1.4v4.1c0,0.2-0.2,0.3-0.5,0.3h-0.1c-0.3,0-0.5-0.1-0.5-0.3v-4
	c0-0.3-0.1-0.6-0.3-0.8c-0.2-0.2-0.6-0.3-0.9-0.3c-0.6,0-1.2,0.3-1.5,0.8v4.3c0,0.2-0.2,0.3-0.5,0.3h0
	C255.4,111.4,255.2,111.3,255.2,111.1z"/>
<path class="st0" d="M262.2,110.7c-0.5-0.7-0.8-1.5-0.7-2.3c-0.1-0.9,0.2-1.7,0.7-2.4c0.5-0.6,1.2-0.9,2-0.8c1.7,0,2.5,1,2.5,3.1
	c0,0.1-0.1,0.2-0.1,0.3c-0.1,0.1-0.2,0.2-0.3,0.2h-3.7c0,0.5,0.2,1,0.5,1.4c0.4,0.3,0.8,0.5,1.3,0.5c0.5,0,1-0.1,1.5-0.4l0.3-0.1
	c0.1,0,0.2,0.1,0.3,0.2c0.1,0.1,0.1,0.2,0.2,0.4c0,0.2-0.2,0.3-0.6,0.5c-0.5,0.2-1,0.3-1.5,0.3C263.6,111.5,262.8,111.2,262.2,110.7
	z M265.6,107.8c0-1.2-0.5-1.9-1.4-1.9c-0.9,0-1.6,0.6-1.7,1.9H265.6z"/>
<path class="st0" d="M267.8,108.2c0-0.5,0.1-1,0.2-1.5c0.1-0.4,0.4-0.7,0.7-1c0.5-0.4,1.2-0.6,1.9-0.6c0.4,0,0.8,0.1,1.2,0.2
	c0.4,0.1,0.5,0.2,0.5,0.4c0,0.1-0.1,0.3-0.1,0.4c-0.1,0.2-0.2,0.2-0.2,0.2l0,0h0h0c-0.4-0.2-0.8-0.3-1.3-0.3c-1.1,0-1.7,0.8-1.7,2.3
	c-0.1,0.6,0.1,1.3,0.4,1.8c0.4,0.4,0.9,0.6,1.4,0.6c0.5,0,0.9-0.1,1.3-0.3h0.1h0.1c0.1,0,0.2,0.1,0.3,0.2c0.1,0.1,0.1,0.2,0.1,0.4
	c0,0.1-0.2,0.3-0.5,0.4c-0.4,0.1-0.9,0.2-1.3,0.2c-0.8,0.1-1.6-0.2-2.2-0.8C268,110.1,267.7,109.1,267.8,108.2z"/>
<path class="st0" d="M274.2,109.8V106h-0.6c-0.2,0-0.2-0.1-0.2-0.4v-0.1c0-0.2,0.1-0.4,0.2-0.4h0.6l0.1-1.2c0-0.2,0.1-0.3,0.4-0.3
	h0.1c0.2,0,0.4,0.1,0.4,0.3v1.2h1c0.2,0,0.2,0.1,0.2,0.4v0.1c0,0.2-0.1,0.4-0.2,0.4h-1v3.7c0,0.6,0.2,0.8,0.6,0.8c0.1,0,0.2,0,0.3,0
	h0.2c0.1,0,0.1,0.1,0.2,0.2c0,0.1,0.1,0.2,0.1,0.3c0,0.2-0.3,0.4-0.8,0.4c-0.4,0-0.8-0.1-1.1-0.4
	C274.3,110.8,274.1,110.3,274.2,109.8z"/>
<path class="st0" d="M278.3,110.7c-0.5-0.7-0.8-1.5-0.7-2.3c-0.1-0.9,0.2-1.7,0.7-2.4c0.5-0.6,1.2-0.9,2-0.8c1.7,0,2.5,1,2.5,3.1
	c0,0.1-0.1,0.2-0.1,0.3c-0.1,0.1-0.2,0.2-0.2,0.2h-3.7c0,0.5,0.2,1,0.5,1.4c0.4,0.3,0.8,0.5,1.3,0.5c0.5,0,1-0.1,1.5-0.4l0.2-0.1
	c0.1,0,0.2,0.1,0.3,0.2c0.1,0.1,0.1,0.2,0.1,0.4c0,0.2-0.2,0.3-0.6,0.5c-0.5,0.2-1,0.3-1.5,0.3C279.7,111.5,278.9,111.2,278.3,110.7
	z M281.8,107.8c0-1.2-0.5-1.9-1.4-1.9s-1.6,0.6-1.7,1.9H281.8z"/>
<path class="st0" d="M284.4,111.1V107c0-0.3,0-0.7-0.1-1c-0.1-0.3-0.1-0.4-0.1-0.5c0,0,0.1-0.2,0.2-0.2c0.1,0,0.2-0.1,0.3-0.1h0.2
	c0,0,0.1,0,0.1,0.1c0,0,0,0.1,0.1,0.1c0,0,0,0.1,0.1,0.1c0,0.1,0,0.1,0,0.1c0,0.1,0,0.1,0,0.2v0.1c0.3-0.5,0.8-0.8,1.4-0.8
	c0.2,0,0.4,0,0.5,0.1c0.1,0.1,0.2,0.2,0.2,0.3c0,0.1,0,0.3-0.1,0.4c-0.1,0.2-0.1,0.2-0.2,0.2c-0.1,0-0.2,0-0.2-0.1
	c-0.1-0.1-0.3-0.1-0.4-0.1c-0.2,0-0.4,0.1-0.5,0.2c-0.2,0.1-0.3,0.2-0.4,0.4l-0.1,0.2v4.3c0,0.2-0.2,0.3-0.5,0.3h0
	C284.5,111.4,284.4,111.3,284.4,111.1z"/>
<path class="st1" d="M91.7,174.1c-1.8-2.3-4.1-3.5-8-3.9c-0.7-0.1-1.2-0.8-1.2-1.5c0-0.5,1.7-2.2,1.7-2.2c1.7-2,2.7-4.5,2.8-7.2
	c0-3.6-2.9-6.5-6.5-6.5c-3.6,0-6.5,2.9-6.5,6.5c0,0,0,0,0,0c0,2.7,1,5.2,2.8,7.2c0,0,1.7,1.6,1.7,2.1c0,0.8-0.6,1.4-1.4,1.5
	c-3.8,0.4-6.1,1.6-7.9,3.9c-0.5,0.8-0.8,1.8-0.8,2.7c0,0.2,0,3.1,0,3.1c0,1.4,1.1,2.5,2.5,2.5h19.1c1.4,0,2.5-1.1,2.5-2.5
	c0,0,0-2.9,0-3.1c0-1-0.3-1.9-0.8-2.7"/>
<path class="st0" d="M26.8,206.9v-7.5c0-0.2,0.1-0.4,0.3-0.5c0,0,0.1,0,0.1,0h2.5c0.8,0,1.5,0.2,2.1,0.7c0.2,0.2,0.4,0.5,0.5,0.8
	c0.1,0.4,0.2,0.8,0.2,1.1c0,0.4-0.1,0.8-0.2,1.1c-0.1,0.3-0.3,0.5-0.5,0.8c-0.2,0.2-0.5,0.3-0.7,0.4c-0.4,0.2-0.8,0.3-1.2,0.3h-1.2
	v2.7c0,0.3-0.2,0.4-0.7,0.4h-0.4C27,207.2,26.8,207.1,26.8,206.9z M28.6,202.5h1c0.3,0,0.5-0.1,0.7-0.2c0.2-0.2,0.3-0.5,0.3-0.8
	c0-0.3-0.1-0.6-0.3-0.8c-0.2-0.1-0.5-0.2-0.7-0.2h-1V202.5z"/>
<path class="st0" d="M34,206.9v-7.5c0-0.2,0.1-0.4,0.3-0.5c0,0,0.1,0,0.1,0h2.3c2,0,2.9,0.7,2.9,2.2c0,0.4-0.1,0.8-0.4,1.1
	c-0.3,0.3-0.6,0.6-1,0.7v0c0.2,0.1,0.3,0.2,0.5,0.4c0.2,0.2,0.3,0.4,0.4,0.7l1,2.6c0,0.1,0,0.1,0.1,0.2c0,0.2-0.2,0.2-0.7,0.2h-0.5
	c-0.4,0-0.6-0.1-0.7-0.3l-0.9-2.3c-0.1-0.2-0.2-0.4-0.4-0.5c-0.2-0.1-0.5-0.2-0.8-0.2h-0.5v2.9c0,0.3-0.2,0.4-0.7,0.4h-0.4
	C34.2,207.2,34,207.1,34,206.9z M35.8,202.4h1.1c0.2,0,0.5-0.1,0.6-0.3c0.2-0.2,0.3-0.5,0.3-0.7c0-0.2-0.1-0.5-0.3-0.7
	c-0.2-0.2-0.5-0.3-0.7-0.2h-1V202.4z"/>
<path class="st0" d="M42.4,206.2c-1.3-1.9-1.3-4.4,0-6.3c0.7-0.8,1.8-1.2,2.8-1.1c1.1-0.1,2.1,0.3,2.8,1.1c1.3,1.9,1.3,4.4,0,6.3
	c-0.7,0.8-1.8,1.2-2.8,1.1C44.1,207.4,43.1,207,42.4,206.2z M43.8,205.1c0.6,0.8,1.8,0.9,2.6,0.3c0.1-0.1,0.2-0.2,0.3-0.3
	c0.7-1.2,0.7-2.7,0-4c-0.3-0.5-0.9-0.7-1.4-0.7c-0.6,0-1.1,0.2-1.4,0.7C43.1,202.3,43.1,203.8,43.8,205.1z"/>
<path class="st0" d="M50.8,206.9v-7.5c0-0.2,0.1-0.4,0.3-0.5c0,0,0.1,0,0.1,0h4c0.2,0,0.4,0.2,0.4,0.6v0.4c0,0.4-0.1,0.6-0.4,0.6
	h-2.6v1.7h2.5c0.2,0,0.4,0.2,0.4,0.6v0.4c0,0.4-0.1,0.6-0.4,0.6h-2.5v3.1c0,0.3-0.2,0.4-0.7,0.4h-0.4
	C51,207.2,50.8,207.1,50.8,206.9z"/>
<path class="st0" d="M57.2,206.7v-7.3c0-0.2,0.1-0.4,0.3-0.5c0,0,0.1,0,0.1,0H62c0.2,0,0.4,0.2,0.4,0.6v0.4c0,0.4-0.1,0.6-0.4,0.6
	H59v1.7h2.7c0.2,0,0.4,0.2,0.4,0.6v0.4c0,0.4-0.1,0.6-0.4,0.6H59v1.9h3c0.2,0,0.4,0.2,0.4,0.6v0.4c0,0.4-0.1,0.6-0.4,0.6h-4.3
	c-0.2,0.1-0.4-0.1-0.5-0.3C57.2,206.8,57.2,206.8,57.2,206.7z"/>
<path class="st0" d="M63.6,206.3c0-0.2,0.1-0.5,0.3-0.7c0.2-0.3,0.3-0.4,0.5-0.4c0.1,0,0.2,0.1,0.3,0.1c0.4,0.3,0.9,0.4,1.4,0.4
	c0.7,0,1.1-0.3,1.1-0.8c0-0.3-0.1-0.5-0.4-0.6c-0.3-0.2-0.5-0.3-0.8-0.5c-0.3-0.1-0.7-0.3-1-0.4c-0.3-0.2-0.6-0.5-0.8-0.8
	c-0.2-0.4-0.4-0.9-0.4-1.3c0-0.5,0.1-1,0.4-1.4c0.6-0.7,1.5-1.1,2.4-1c0.5,0,1,0.1,1.5,0.3c0.4,0.2,0.6,0.4,0.6,0.6
	c0,0.2-0.1,0.5-0.2,0.6c-0.2,0.3-0.3,0.4-0.4,0.4c-0.1,0-0.2,0-0.2-0.1c-0.3-0.2-0.7-0.2-1.1-0.2c-0.3,0-0.6,0.1-0.8,0.2
	c-0.2,0.1-0.2,0.3-0.2,0.5c0,0.2,0.1,0.4,0.4,0.6c0.3,0.2,0.5,0.3,0.8,0.4c0.3,0.1,0.7,0.3,1,0.4c0.7,0.4,1.2,1.2,1.2,2
	c0,0.4-0.1,0.9-0.2,1.3c-0.1,0.3-0.3,0.6-0.6,0.8c-0.6,0.4-1.2,0.6-1.9,0.6c-0.7,0-1.3-0.1-1.9-0.3
	C63.9,206.7,63.6,206.5,63.6,206.3z"/>
<path class="st0" d="M70,206.3c0-0.2,0.1-0.5,0.3-0.7c0.2-0.3,0.3-0.4,0.5-0.4c0.1,0,0.2,0.1,0.3,0.1c0.4,0.3,0.9,0.4,1.4,0.4
	c0.7,0,1.1-0.3,1.1-0.8c0-0.3-0.1-0.5-0.4-0.6c-0.3-0.2-0.5-0.3-0.8-0.5c-0.3-0.1-0.7-0.3-1-0.4c-0.3-0.2-0.6-0.5-0.8-0.8
	c-0.2-0.4-0.4-0.9-0.4-1.3c0-0.5,0.1-1,0.4-1.4c0.6-0.7,1.5-1.1,2.4-1c0.5,0,1,0.1,1.5,0.3c0.4,0.2,0.6,0.4,0.6,0.6
	c0,0.2-0.1,0.5-0.2,0.6c-0.2,0.3-0.3,0.4-0.4,0.4c-0.1,0-0.2,0-0.2-0.1c-0.3-0.2-0.7-0.2-1.1-0.2c-0.3,0-0.6,0.1-0.8,0.2
	c-0.2,0.1-0.2,0.3-0.2,0.5c0,0.2,0.1,0.4,0.4,0.6c0.3,0.2,0.5,0.3,0.8,0.4c0.3,0.1,0.7,0.3,1,0.4c0.8,0.4,1.2,1.2,1.2,2.1
	c0,0.4-0.1,0.9-0.2,1.3c-0.1,0.3-0.3,0.6-0.6,0.8c-0.6,0.4-1.2,0.6-1.9,0.6c-0.7,0-1.3-0.1-1.9-0.3C70.3,206.7,70,206.5,70,206.3z"
	/>
<path class="st0" d="M76.9,206.9v-7.6c0-0.3,0.2-0.4,0.7-0.4H78c0.5,0,0.7,0.1,0.7,0.4v7.6c0,0.3-0.2,0.4-0.7,0.4h-0.4
	C77.1,207.2,76.9,207.1,76.9,206.9z"/>
<path class="st0" d="M81.4,206.2c-1.3-1.9-1.3-4.4,0-6.3c0.7-0.8,1.8-1.2,2.8-1.1c1.1-0.1,2.1,0.3,2.8,1.1c1.3,1.9,1.3,4.4,0,6.3
	c-0.7,0.8-1.8,1.2-2.8,1.1C83.2,207.4,82.2,207,81.4,206.2z M82.8,205.1c0.3,0.5,0.9,0.7,1.4,0.7c0.6,0,1.1-0.2,1.4-0.7
	c0.6-1.3,0.6-2.7,0-4c-0.3-0.5-0.9-0.7-1.5-0.7c-0.6,0-1.1,0.2-1.4,0.7C82.1,202.3,82.1,203.8,82.8,205.1L82.8,205.1z"/>
<path class="st0" d="M89.9,206.9v-7.6c0-0.3,0.2-0.4,0.7-0.4h0.5c0.3,0,0.6,0.1,0.8,0.3L95,204v-4.7c0-0.3,0.2-0.4,0.7-0.4h0.4
	c0.5,0,0.7,0.1,0.7,0.4v7.6c0,0.3-0.2,0.4-0.7,0.4h-0.5c-0.3,0-0.6-0.1-0.8-0.3l-3.2-4.9v4.8c0,0.3-0.2,0.4-0.7,0.4h-0.4
	C90.1,207.2,89.9,207.1,89.9,206.9z"/>
<path class="st0" d="M98.9,206.9v-7.6c0-0.3,0.2-0.4,0.7-0.4h0.5c0.3,0,0.6,0.1,0.8,0.3l3.1,4.8v-4.7c0-0.3,0.2-0.4,0.7-0.4h0.3
	c0.5,0,0.7,0.1,0.7,0.4v7.6c0,0.3-0.2,0.4-0.7,0.4h-0.4c-0.3,0-0.6-0.1-0.8-0.3l-3.2-4.9v4.8c0,0.3-0.2,0.4-0.7,0.4h-0.3
	C99.1,207.2,98.9,207.1,98.9,206.9z"/>
<path class="st0" d="M107.8,206.7v-7.3c0-0.2,0.1-0.4,0.3-0.5c0,0,0.1,0,0.1,0h4.3c0.2,0,0.4,0.2,0.4,0.6v0.4c0,0.4-0.1,0.6-0.4,0.6
	h-3v1.7h2.7c0.2,0,0.4,0.2,0.4,0.6v0.4c0,0.4-0.1,0.6-0.4,0.6h-2.7v1.9h3c0.2,0,0.4,0.2,0.4,0.6v0.4c0,0.4-0.1,0.6-0.4,0.6h-4.3
	C108.1,207.2,107.9,207,107.8,206.7C107.8,206.8,107.8,206.8,107.8,206.7z"/>
<path class="st0" d="M114.8,206.7v-7.5c0-0.3,0.2-0.4,0.7-0.4h0.4c0.5,0,0.7,0.1,0.7,0.4v6.4h2.6c0.2,0,0.4,0.2,0.4,0.6v0.4
	c0,0.4-0.1,0.6-0.4,0.6h-4c-0.2,0-0.4-0.1-0.5-0.3C114.8,206.8,114.8,206.8,114.8,206.7z"/>
<path class="st0" d="M120.4,206.3c0-0.2,0.1-0.5,0.3-0.7c0.2-0.3,0.3-0.4,0.5-0.4c0.1,0,0.2,0.1,0.3,0.1c0.4,0.3,0.9,0.4,1.4,0.4
	c0.7,0,1.1-0.3,1.1-0.8c0-0.3-0.1-0.5-0.4-0.6c-0.3-0.2-0.5-0.3-0.8-0.5c-0.3-0.1-0.7-0.3-1-0.4c-0.3-0.2-0.6-0.5-0.8-0.8
	c-0.2-0.4-0.4-0.9-0.4-1.3c0-0.5,0.1-1,0.4-1.4c0.6-0.7,1.5-1.1,2.4-1c0.5,0,1,0.1,1.5,0.3c0.4,0.2,0.6,0.4,0.6,0.6
	c0,0.2-0.1,0.5-0.2,0.6c-0.1,0.3-0.3,0.4-0.4,0.4c-0.1,0-0.1,0-0.2-0.1c-0.3-0.2-0.7-0.2-1.1-0.2c-0.3,0-0.6,0.1-0.8,0.2
	c-0.2,0.1-0.2,0.3-0.2,0.5c0,0.2,0.1,0.4,0.4,0.6c0.3,0.2,0.5,0.3,0.8,0.4c0.3,0.1,0.7,0.3,1,0.4c0.8,0.4,1.2,1.2,1.2,2.1
	c0,0.4-0.1,0.9-0.2,1.3c-0.1,0.3-0.4,0.6-0.6,0.8c-0.6,0.4-1.2,0.6-1.9,0.6c-0.7,0-1.3-0.1-1.9-0.3
	C120.7,206.7,120.4,206.5,120.4,206.3z"/>
<path class="st0" d="M130.7,206.7v-7.3c0-0.2,0.1-0.4,0.3-0.5c0,0,0.1,0,0.1,0h2.7c1-0.1,2.1,0.3,2.8,1.1c1.3,1.8,1.3,4.3,0,6.1
	c-0.7,0.7-1.8,1.1-2.8,1.1h-2.7c-0.2,0-0.4-0.1-0.5-0.4C130.7,206.8,130.7,206.8,130.7,206.7z M132.5,205.7h1.3
	c0.6,0,1.1-0.2,1.4-0.7c0.7-1.2,0.7-2.7,0-3.9c-0.3-0.5-0.9-0.7-1.4-0.7h-1.3V205.7z"/>
<path class="st0" d="M139.3,204.4v-5.2c0-0.3,0.2-0.4,0.7-0.4h0.4c0.5,0,0.7,0.1,0.7,0.4v5.1c0,0.4,0.2,0.8,0.4,1
	c0.3,0.3,0.7,0.4,1.2,0.4c0.4,0,0.8-0.1,1.2-0.4c0.3-0.3,0.5-0.6,0.5-1v-5.1c0-0.3,0.2-0.4,0.7-0.4h0.4c0.5,0,0.7,0.1,0.7,0.4v5.2
	c0,0.8-0.3,1.6-0.9,2.1c-0.7,0.5-1.6,0.8-2.5,0.8c-0.9,0.1-1.8-0.2-2.5-0.8C139.6,206,139.3,205.2,139.3,204.4z"/>
<path class="st0" d="M39.8,224.5v-7.3c0-0.2,0.1-0.4,0.3-0.5c0,0,0.1,0,0.1,0h2.3c0.7-0.1,1.5,0.1,2.1,0.6c0.5,0.4,0.7,0.9,0.7,1.5
	c0,0.4-0.1,0.8-0.4,1.1c-0.2,0.3-0.6,0.6-0.9,0.7v0.1c0.9,0.2,1.6,1,1.6,1.9c0,0.7-0.2,1.3-0.7,1.8c-0.6,0.5-1.4,0.7-2.2,0.6h-2.5
	c-0.2,0.1-0.4-0.1-0.5-0.3C39.8,224.6,39.8,224.5,39.8,224.5z M41.6,220h0.8c0.3,0,0.6-0.1,0.8-0.2c0.2-0.2,0.3-0.4,0.3-0.6
	c0-0.6-0.4-0.8-1.1-0.8h-0.8L41.6,220z M41.6,223.4h1.2c0.3,0,0.6-0.1,0.8-0.2c0.2-0.2,0.3-0.4,0.3-0.7c0-0.6-0.4-0.9-1.3-0.9h-1
	V223.4z"/>
<path class="st0" d="M46.4,224.7c0-0.1,0-0.1,0.1-0.2l2.6-7.6c0.1-0.2,0.3-0.2,0.7-0.2h0.6c0.4,0,0.6,0.1,0.7,0.2l2.6,7.6
	c0,0.1,0,0.1,0,0.2c0,0.2-0.2,0.3-0.6,0.3h-0.5c-0.4,0-0.6-0.1-0.7-0.3l-0.4-1.4h-2.8l-0.5,1.4c-0.1,0.2-0.2,0.3-0.5,0.3h-0.5
	C46.7,225,46.4,224.9,46.4,224.7z M48.7,215.9c-0.2,0-0.2,0-0.2-0.1c0-0.1,0-0.1,0.1-0.2l0.8-1.2c0.1-0.2,0.3-0.2,0.7-0.2h0.1
	c0.4,0,0.6,0.1,0.7,0.2l0.8,1.2c0,0.1,0.1,0.1,0.1,0.2c0,0.1-0.1,0.1-0.2,0.1h-0.3c-0.3,0-0.6-0.1-0.8-0.3l-0.3-0.5l-0.3,0.5
	c-0.2,0.2-0.5,0.3-0.8,0.3L48.7,215.9z M49.2,221.7h1.8l-0.7-2.1l-0.2-0.8h0c-0.1,0.4-0.1,0.6-0.2,0.8L49.2,221.7z"/>
<path class="st0" d="M56.5,224.6v-6.4h-1.8c-0.2,0-0.4-0.2-0.4-0.6v-0.4c0-0.4,0.1-0.6,0.4-0.6h5.6c0.2,0,0.4,0.2,0.4,0.6v0.4
	c0,0.4-0.1,0.6-0.4,0.6h-1.9v6.4c0,0.3-0.2,0.4-0.7,0.4h-0.4C56.7,225,56.5,224.9,56.5,224.6z"/>
<path class="st0" d="M61.9,224.6V217c0-0.3,0.2-0.4,0.7-0.4H63c0.5,0,0.7,0.1,0.7,0.4v7.6c0,0.3-0.2,0.4-0.7,0.4h-0.4
	C62.1,225,61.9,224.9,61.9,224.6z"/>
<path class="st0" d="M65.8,224.6V217c0-0.3,0.2-0.4,0.7-0.4h0.6c0.3,0,0.6,0.1,0.7,0.3l2.1,3.7l2.1-3.7c0.2-0.2,0.5-0.4,0.8-0.3h0.6
	c0.5,0,0.7,0.1,0.7,0.4v7.6c0,0.3-0.2,0.4-0.7,0.4h-0.3c-0.5,0-0.7-0.1-0.7-0.4v-4.9h-0.1l-1.7,3.1c-0.1,0.2-0.3,0.2-0.5,0.2h-0.3
	c-0.2,0-0.4-0.1-0.5-0.2l-1.7-3.1h-0.1v4.9c0,0.3-0.2,0.4-0.7,0.4h-0.4C66,225,65.8,224.9,65.8,224.6z"/>
<path class="st0" d="M76.2,224.5v-7.3c0-0.2,0.1-0.4,0.3-0.5c0,0,0.1,0,0.1,0H81c0.2,0,0.4,0.2,0.4,0.6v0.4c0,0.4-0.1,0.6-0.4,0.6
	h-3v1.7h2.7c0.2,0,0.4,0.2,0.4,0.6v0.4c0,0.4-0.1,0.6-0.4,0.6H78v1.9h3c0.2,0,0.4,0.2,0.4,0.6v0.4c0,0.4-0.1,0.6-0.4,0.6h-4.3
	C76.5,225,76.3,224.8,76.2,224.5C76.2,224.5,76.2,224.5,76.2,224.5z"/>
<path class="st0" d="M83.1,224.6V217c0-0.3,0.2-0.4,0.7-0.4h0.5c0.3,0,0.6,0.1,0.8,0.3l3.1,4.8V217c0-0.3,0.2-0.4,0.7-0.4h0.3
	c0.5,0,0.7,0.1,0.7,0.4v7.6c0,0.3-0.2,0.4-0.7,0.4h-0.4c-0.3,0-0.6-0.1-0.8-0.3l-3.2-4.9v4.8c0,0.3-0.2,0.4-0.7,0.4h-0.3
	C83.4,225,83.1,224.9,83.1,224.6z"/>
<path class="st0" d="M93.6,224.6v-6.4h-1.9c-0.2,0-0.4-0.2-0.4-0.6v-0.4c0-0.4,0.1-0.6,0.4-0.6h5.6c0.2,0,0.4,0.2,0.4,0.6v0.4
	c0,0.4-0.1,0.6-0.4,0.6h-1.9v6.4c0,0.3-0.2,0.4-0.7,0.4h-0.4C93.9,225,93.6,224.9,93.6,224.6z"/>
<path class="st0" d="M102.4,224.5v-7.3c0-0.2,0.1-0.4,0.3-0.5c0,0,0.1,0,0.1,0h4.3c0.2,0,0.4,0.2,0.4,0.6v0.4c0,0.4-0.1,0.6-0.4,0.6
	h-3v1.7h2.7c0.2,0,0.4,0.2,0.4,0.6v0.4c0,0.4-0.1,0.6-0.4,0.6h-2.7v1.9h3c0.2,0,0.4,0.2,0.4,0.6v0.4c0,0.4-0.1,0.6-0.4,0.6h-4.3
	C102.7,225,102.4,224.8,102.4,224.5C102.4,224.5,102.4,224.5,102.4,224.5z"/>
<path class="st0" d="M110.9,224.6v-6.4H109c-0.2,0-0.4-0.2-0.4-0.6v-0.4c0-0.4,0.1-0.6,0.4-0.6h5.6c0.2,0,0.4,0.2,0.4,0.6v0.4
	c0,0.4-0.1,0.6-0.4,0.6h-1.9v6.4c0,0.3-0.2,0.4-0.7,0.4h-0.4C111.1,225,110.9,224.9,110.9,224.6z"/>
<path class="st0" d="M119.6,224.5v-7.3c0-0.2,0.1-0.4,0.3-0.5c0,0,0.1,0,0.1,0h2.7c1-0.1,2.1,0.3,2.8,1.1c1.3,1.8,1.3,4.3,0,6.1
	c-0.7,0.7-1.8,1.1-2.8,1.1h-2.7c-0.2,0-0.4-0.1-0.5-0.4C119.6,224.6,119.6,224.5,119.6,224.5z M121.5,223.4h1.3
	c0.6,0,1.1-0.2,1.4-0.7c0.7-1.2,0.7-2.7,0-3.9c-0.3-0.4-0.9-0.7-1.4-0.7h-1.3L121.5,223.4z"/>
<path class="st0" d="M128.3,224.5v-7.3c0-0.2,0.1-0.4,0.3-0.5c0,0,0.1,0,0.1,0h4.3c0.2,0,0.4,0.2,0.4,0.6v0.4c0,0.4-0.1,0.6-0.4,0.6
	h-3v1.7h2.7c0.2,0,0.4,0.2,0.4,0.6v0.4c0,0.4-0.1,0.6-0.4,0.6h-2.7v1.9h3c0.2,0,0.4,0.2,0.4,0.6v0.4c0,0.4-0.1,0.6-0.4,0.6h-4.3
	C128.6,225,128.4,224.8,128.3,224.5C128.3,224.5,128.3,224.5,128.3,224.5z"/>
<path class="st0" d="M48,242.2v-7.5c0-0.3,0.2-0.4,0.7-0.4h0.4c0.5,0,0.7,0.1,0.7,0.4v6.4h2.6c0.2,0,0.4,0.2,0.4,0.6v0.4
	c0,0.4-0.1,0.6-0.4,0.6h-4c-0.2,0-0.4-0.1-0.5-0.4C48,242.3,48,242.3,48,242.2z"/>
<path class="st0" d="M55.5,235.6c-0.2,0.4-0.4,0.8-0.7,1.1c-0.3,0.3-0.5,0.4-0.6,0.4c-0.1,0-0.3,0-0.4-0.1c-0.1,0-0.2-0.1-0.2-0.2
	c0-0.1,0.1-0.3,0.1-0.4c0.3-0.7,0.4-1.4,0.4-2.1c0-0.4,0.2-0.5,0.7-0.5h0.2c0.5,0,0.7,0.2,0.7,0.5C55.8,234.7,55.7,235.2,55.5,235.6
	z"/>
<path class="st0" d="M57.2,242.3v-7.6c0-0.3,0.2-0.4,0.7-0.4h0.4c0.5,0,0.7,0.1,0.7,0.4v7.6c0,0.3-0.2,0.4-0.7,0.4h-0.4
	C57.4,242.7,57.2,242.6,57.2,242.3z"/>
<path class="st0" d="M61,242.3v-7.6c0-0.3,0.2-0.4,0.7-0.4h0.6c0.3,0,0.6,0.1,0.7,0.3l2.1,3.7l2.1-3.7c0.2-0.2,0.5-0.4,0.8-0.3h0.6
	c0.5,0,0.7,0.1,0.7,0.4v7.6c0,0.3-0.2,0.4-0.7,0.4h-0.3c-0.5,0-0.7-0.1-0.7-0.4v-4.9h-0.1l-1.7,3.1c-0.1,0.2-0.3,0.2-0.5,0.2h-0.3
	c-0.2,0-0.4-0.1-0.5-0.2l-1.7-3.1h-0.1v4.9c0,0.3-0.2,0.4-0.7,0.4h-0.3C61.3,242.7,61,242.6,61,242.3z"/>
<path class="st0" d="M71.5,242.3v-7.6c0-0.3,0.2-0.4,0.7-0.4h0.6c0.3,0,0.6,0.1,0.7,0.3l2.1,3.7l2.1-3.7c0.2-0.2,0.5-0.4,0.7-0.3
	h0.6c0.5,0,0.7,0.1,0.7,0.4v7.6c0,0.3-0.2,0.4-0.7,0.4h-0.3c-0.5,0-0.7-0.1-0.7-0.4v-4.9H78l-1.7,3.1c-0.1,0.2-0.3,0.2-0.5,0.2h-0.3
	c-0.2,0-0.4-0.1-0.5-0.2l-1.7-3.1h-0.1v4.9c0,0.3-0.2,0.4-0.7,0.4h-0.3C71.7,242.7,71.5,242.6,71.5,242.3z"/>
<path class="st0" d="M82.6,241.7c-1.3-1.9-1.3-4.4,0-6.3c1.6-1.5,4-1.5,5.6,0c1.3,1.9,1.3,4.4,0,6.3
	C86.7,243.2,84.2,243.2,82.6,241.7z M84,240.6c0.3,0.5,0.9,0.7,1.4,0.7c0.6,0,1.1-0.2,1.4-0.7c0.6-1.3,0.6-2.7,0-4
	c-0.3-0.5-0.9-0.7-1.4-0.7c-0.6,0-1.1,0.2-1.4,0.7C83.3,237.8,83.3,239.3,84,240.6z"/>
<path class="st0" d="M91.1,242.2v-7.3c0-0.2,0.1-0.4,0.3-0.5c0,0,0.1,0,0.1,0h2.3c0.7-0.1,1.5,0.1,2.1,0.6c0.5,0.4,0.7,0.9,0.7,1.5
	c0,0.4-0.1,0.8-0.4,1.1c-0.2,0.3-0.6,0.6-0.9,0.7v0.1c0.5,0.1,0.9,0.3,1.1,0.7c0.3,0.3,0.5,0.8,0.4,1.2c0,0.7-0.2,1.3-0.7,1.8
	c-0.6,0.5-1.4,0.7-2.2,0.6h-2.5C91.2,242.7,91.1,242.5,91.1,242.2C91,242.3,91,242.3,91.1,242.2z M92.9,237.7h0.8
	c0.3,0,0.6-0.1,0.8-0.2c0.2-0.2,0.3-0.4,0.3-0.6c0-0.6-0.4-0.8-1.1-0.8h-0.8L92.9,237.7z M92.9,241.1H94c0.3,0,0.6-0.1,0.8-0.2
	c0.2-0.2,0.3-0.4,0.3-0.7c0-0.6-0.4-0.9-1.3-0.9h-1V241.1z"/>
<path class="st0" d="M98.5,242.3v-7.6c0-0.3,0.2-0.4,0.7-0.4h0.4c0.5,0,0.7,0.1,0.7,0.4v7.6c0,0.3-0.2,0.4-0.7,0.4h-0.4
	C98.7,242.7,98.5,242.6,98.5,242.3z"/>
<path class="st0" d="M102.4,242.2v-7.5c0-0.3,0.2-0.4,0.7-0.4h0.4c0.5,0,0.7,0.1,0.7,0.4v6.4h2.6c0.2,0,0.4,0.2,0.4,0.6v0.4
	c0,0.4-0.1,0.6-0.4,0.6h-4c-0.2,0-0.4-0.1-0.5-0.4C102.3,242.3,102.3,242.3,102.4,242.2z"/>
<path class="st0" d="M108.5,242.3v-7.6c0-0.3,0.2-0.4,0.7-0.4h0.4c0.5,0,0.7,0.1,0.7,0.4v7.6c0,0.3-0.2,0.4-0.7,0.4h-0.4
	C108.7,242.7,108.5,242.6,108.5,242.3z"/>
<path class="st0" d="M112.4,242.2v-7.3c0-0.2,0.1-0.4,0.3-0.5c0,0,0.1,0,0.1,0h4.4c0.2,0,0.4,0.2,0.4,0.6v0.4c0,0.4-0.1,0.6-0.4,0.6
	h-3v1.7h2.7c0.2,0,0.4,0.2,0.4,0.6v0.4c0,0.4-0.1,0.6-0.4,0.6h-2.7v1.9h3c0.2,0,0.4,0.2,0.4,0.6v0.4c0,0.4-0.1,0.6-0.4,0.6h-4.3
	c-0.2,0-0.5-0.1-0.5-0.3C112.4,242.3,112.4,242.3,112.4,242.2z"/>
<path class="st0" d="M119.3,242.3v-7.5c0-0.2,0.1-0.4,0.3-0.5c0,0,0.1,0,0.1,0h2.3c2,0,2.9,0.7,2.9,2.2c0,0.4-0.1,0.8-0.4,1.1
	c-0.3,0.3-0.6,0.6-1,0.7v0c0.2,0.1,0.3,0.2,0.5,0.4c0.2,0.2,0.3,0.4,0.4,0.7l1,2.6c0,0.1,0,0.1,0.1,0.2c0,0.2-0.2,0.2-0.7,0.2h-0.5
	c-0.4,0-0.6-0.1-0.7-0.3l-0.9-2.3c-0.1-0.2-0.2-0.4-0.4-0.5c-0.2-0.1-0.5-0.2-0.8-0.2h-0.5v2.9c0,0.3-0.2,0.4-0.7,0.4H120
	C119.5,242.7,119.3,242.6,119.3,242.3z M121.1,237.9h1.2c0.2,0,0.5-0.1,0.6-0.3c0.2-0.2,0.3-0.5,0.3-0.7c0-0.2-0.1-0.5-0.3-0.7
	c-0.2-0.2-0.5-0.3-0.7-0.2h-1L121.1,237.9z"/>
<path class="st0" d="M28.7,260.2v-4.2c0-0.3,0-0.7-0.1-1c-0.1-0.3-0.1-0.4-0.1-0.5c0,0,0.1-0.2,0.2-0.2c0.1,0,0.2-0.1,0.4-0.1
	c0.1,0,0.1,0,0.2,0c0,0,0.1,0,0.1,0.1c0,0,0.1,0.1,0.1,0.1c0,0,0,0.1,0.1,0.1c0,0,0,0.1,0,0.1c0,0,0,0.1,0,0.2c0,0,0,0.1,0,0.1
	c0.4-0.6,1.1-0.9,1.8-0.9c0.7-0.1,1.4,0.3,1.7,1c0.4-0.6,1.1-1,1.9-1c0.4,0,0.8,0.1,1.2,0.3c0.2,0.2,0.4,0.4,0.5,0.6
	c0.1,0.3,0.2,0.6,0.2,1v4.1c0,0.2-0.2,0.3-0.5,0.3h-0.1c-0.3,0-0.5-0.1-0.5-0.3v-4c0-0.3-0.1-0.6-0.3-0.8c-0.2-0.2-0.5-0.3-0.8-0.3
	c-0.6,0.1-1.1,0.4-1.5,0.8c0,0.1,0,0.1,0,0.2v4.1c0,0.2-0.2,0.3-0.5,0.3h0.1c-0.3,0-0.5-0.1-0.5-0.3v-4c0-0.3-0.1-0.6-0.3-0.8
	c-0.2-0.2-0.5-0.3-0.8-0.3c-0.3,0-0.6,0.1-0.8,0.2c-0.2,0.1-0.4,0.2-0.5,0.4l-0.2,0.2v4.3c0,0.2-0.2,0.3-0.5,0.3h0
	C28.8,260.5,28.7,260.4,28.7,260.2z"/>
<path class="st0" d="M38.6,258.6v-4.1c0-0.2,0.2-0.3,0.5-0.3l0,0c0.3,0,0.5,0.1,0.5,0.3v4c0,0.3,0.1,0.6,0.3,0.8
	c0.2,0.2,0.6,0.3,0.9,0.3c0.6,0,1.2-0.3,1.5-0.8v-4.3c0-0.2,0.2-0.3,0.5-0.3l0,0c0.3,0,0.5,0.1,0.5,0.3v4.2c0,0.3,0,0.7,0.1,1
	c0.1,0.3,0.1,0.4,0.1,0.5c0,0-0.1,0.2-0.2,0.2c-0.1,0-0.2,0.1-0.3,0.1c-0.1,0-0.1,0-0.2,0c0,0-0.1,0-0.1-0.1c0,0,0-0.1-0.1-0.1
	c0,0,0-0.1-0.1-0.1l0-0.2c0-0.1,0-0.1,0-0.2c0-0.1,0-0.1,0-0.2c-0.4,0.5-1.1,0.9-1.8,0.9c-0.5,0-1.1-0.1-1.5-0.5
	C38.8,259.7,38.6,259.1,38.6,258.6z"/>
<path class="st0" d="M45.6,258.9v-3.8H45c-0.2,0-0.2-0.1-0.2-0.4v-0.1c0-0.2,0.1-0.4,0.2-0.4h0.6l0.1-1.2c0-0.2,0.1-0.3,0.4-0.3h0.1
	c0.2,0,0.4,0.1,0.4,0.3v1.2h1c0.2,0,0.2,0.1,0.2,0.4v0.1c0,0.2-0.1,0.4-0.2,0.4h-1v3.7c0,0.6,0.2,0.8,0.6,0.8c0.1,0,0.2,0,0.3,0h0.2
	c0.1,0,0.1,0.1,0.2,0.2c0,0.1,0.1,0.2,0.1,0.3c0,0.2-0.3,0.4-0.8,0.4c-0.4,0-0.8-0.1-1.1-0.4C45.7,259.9,45.5,259.4,45.6,258.9z"/>
<path class="st0" d="M49.2,258.6v-4.1c0-0.2,0.2-0.3,0.5-0.3h0.1c0.3,0,0.5,0.1,0.5,0.3v4c0,0.3,0.1,0.6,0.3,0.8
	c0.2,0.2,0.6,0.3,0.9,0.3c0.6,0,1.2-0.3,1.5-0.8v-4.3c0-0.2,0.2-0.3,0.5-0.3h0.1c0.3,0,0.5,0.1,0.5,0.3v4.2c0,0.3,0,0.7,0.1,1
	c0.1,0.3,0.1,0.4,0.1,0.5c0,0-0.1,0.2-0.2,0.2c-0.1,0-0.2,0.1-0.3,0.1c-0.1,0-0.1,0-0.2,0c0,0-0.1,0-0.1-0.1l-0.1-0.1
	c0,0,0-0.1,0-0.1l0-0.2c0-0.1,0-0.1,0-0.2c0-0.1,0-0.1,0-0.2c-0.4,0.5-1.1,0.9-1.8,0.9c-0.5,0-1.1-0.1-1.5-0.5
	C49.4,259.6,49.2,259.1,49.2,258.6z"/>
<path class="st0" d="M59.5,256.6V256c0-0.7-0.4-1-1.3-1c-0.5,0-1.1,0.1-1.6,0.4c-0.1,0.1-0.2,0.1-0.3,0.1c-0.1,0-0.2-0.1-0.3-0.2
	c-0.1-0.1-0.1-0.2-0.2-0.4c0-0.2,0.2-0.3,0.7-0.5c0.5-0.2,1.1-0.3,1.7-0.3c0.6,0,1.1,0.1,1.6,0.5c0.4,0.3,0.6,0.8,0.6,1.4v2.7
	c0,0.3,0,0.7,0.1,1c0.1,0.3,0.1,0.4,0.1,0.5c0,0-0.1,0.2-0.2,0.2c-0.1,0-0.2,0.1-0.3,0.1c-0.1,0-0.1,0-0.2,0c0,0-0.1,0-0.1-0.1
	c0,0,0-0.1-0.1-0.1c0,0,0-0.1-0.1-0.1V260c0-0.1,0-0.1,0-0.2c0-0.1,0-0.1,0-0.2c-0.5,0.6-1.2,0.9-2,0.9c-0.5,0-1-0.1-1.5-0.4
	c-0.4-0.4-0.6-0.9-0.6-1.4c0-0.5,0.2-1.1,0.6-1.4c0.4-0.3,0.9-0.5,1.5-0.6C58.3,256.7,58.9,256.6,59.5,256.6z M56.6,258.7
	c0,0.7,0.3,1,1,1c0.3,0,0.7-0.1,1-0.2c0.3-0.2,0.6-0.4,0.8-0.6v-1.4c-0.6,0-1.3,0-1.9,0.2c-0.2,0.1-0.3,0.1-0.5,0.2
	C56.7,258,56.6,258.3,56.6,258.7z"/>
<path class="st0" d="M62.4,258.9v-7.1c0-0.2,0.2-0.3,0.5-0.3h0.1c0.3,0,0.5,0.1,0.5,0.3v7c0,0.6,0.2,0.8,0.6,0.8c0.1,0,0.2,0,0.3,0
	h0.2c0.1,0,0.1,0.1,0.2,0.2c0,0.1,0.1,0.2,0.1,0.3c0,0.2-0.3,0.4-0.8,0.4c-0.4,0-0.8-0.1-1.1-0.4C62.5,259.9,62.3,259.4,62.4,258.9z
	"/>
<path class="st0" d="M66.4,252.8c-0.3,0-0.5-0.1-0.5-0.3v-0.7c0-0.2,0.2-0.3,0.5-0.3h0.1c0.3,0,0.5,0.1,0.5,0.3v0.7
	c0,0.2-0.2,0.3-0.5,0.3H66.4z M66,260.2v-5.7c0-0.2,0.2-0.3,0.5-0.3h0c0.3,0,0.5,0.1,0.5,0.3v5.7c0,0.2-0.2,0.3-0.5,0.3l0,0
	C66.1,260.5,66,260.4,66,260.2z"/>
<path class="st0" d="M68.5,259.8c0-0.1,0.1-0.2,0.1-0.4c0.1-0.2,0.2-0.2,0.3-0.2l0.2,0.1c0.2,0.1,0.3,0.2,0.5,0.2
	c0.3,0.1,0.5,0.1,0.8,0.1c0.3,0,0.6-0.1,0.8-0.3c0.2-0.2,0.3-0.5,0.3-0.7c0-0.3-0.1-0.5-0.3-0.7c-0.3-0.2-0.7-0.4-1.1-0.5
	c-0.4-0.1-0.8-0.3-1.1-0.6c-0.3-0.3-0.4-0.7-0.4-1.1c0-0.5,0.2-0.9,0.5-1.2c0.4-0.3,0.9-0.5,1.4-0.5c0.4,0,0.7,0,1.1,0.2
	c0.3,0.1,0.5,0.2,0.5,0.3c0,0.1-0.1,0.3-0.1,0.4c-0.1,0.2-0.2,0.2-0.2,0.2l-0.2-0.1c-0.3-0.1-0.6-0.2-0.9-0.2
	c-0.3,0-0.6,0.1-0.8,0.2c-0.2,0.1-0.3,0.3-0.3,0.5c0,0.2,0.1,0.4,0.2,0.5c0.2,0.2,0.4,0.3,0.7,0.3c0.6,0.1,1.1,0.4,1.5,0.8
	c0.6,0.8,0.5,1.9-0.2,2.6c-0.4,0.4-0.9,0.5-1.4,0.5c-0.5,0-1-0.1-1.4-0.2C68.7,260.1,68.5,260,68.5,259.8z"/>
<path class="st0" d="M74.3,259.8c-0.5-0.7-0.8-1.5-0.7-2.3c-0.1-0.9,0.2-1.7,0.7-2.4c0.5-0.6,1.2-0.9,2-0.8c1.7,0,2.5,1,2.5,3.1
	c0,0.1-0.1,0.2-0.1,0.3c-0.1,0.1-0.2,0.2-0.2,0.2h-3.8c0,0.5,0.2,1,0.5,1.4c0.4,0.3,0.8,0.5,1.3,0.5c0.5,0,1-0.1,1.5-0.4
	c0.1-0.1,0.2-0.1,0.2-0.1c0.1,0,0.2,0.1,0.3,0.2c0.1,0.1,0.1,0.2,0.1,0.4c0,0.2-0.2,0.3-0.6,0.5c-0.5,0.2-1,0.3-1.5,0.3
	C75.7,260.6,74.9,260.3,74.3,259.8z M77.7,256.9c0-1.2-0.5-1.9-1.4-1.9c-0.9,0-1.6,0.6-1.7,1.9H77.7z"/>
<path class="st0" d="M80.4,260.2v-4.2c0-0.3,0-0.7-0.1-1c-0.1-0.3-0.1-0.4-0.1-0.5c0,0,0.1-0.2,0.2-0.2c0.1,0,0.2-0.1,0.4-0.1
	c0.1,0,0.1,0,0.2,0c0,0,0.1,0,0.1,0.1c0,0,0,0.1,0.1,0.1c0,0,0,0.1,0.1,0.1c0,0,0,0.1,0,0.1c0,0.1,0,0.1,0,0.2c0,0.1,0,0.1,0,0.1
	c0.3-0.5,0.8-0.8,1.4-0.9c0.2,0,0.4,0,0.5,0.1c0.1,0.1,0.2,0.2,0.2,0.3c0,0.1,0,0.3-0.1,0.4c-0.1,0.2-0.1,0.2-0.2,0.2
	c-0.1,0-0.2,0-0.2-0.1c-0.1-0.1-0.3-0.1-0.4-0.1c-0.2,0-0.4,0.1-0.5,0.2c-0.2,0.1-0.3,0.2-0.4,0.4l-0.1,0.2v4.3
	c0,0.2-0.2,0.3-0.5,0.3h0C80.5,260.5,80.4,260.4,80.4,260.2z"/>
<path class="st0" d="M87.8,259.8c-0.5-0.7-0.8-1.5-0.7-2.3c-0.1-0.9,0.2-1.7,0.7-2.4c0.5-0.6,1.2-0.9,2-0.8c1.7,0,2.5,1,2.5,3.1
	c0,0.1-0.1,0.2-0.1,0.3c-0.1,0.1-0.2,0.2-0.3,0.2h-3.8c0,0.5,0.2,1,0.5,1.4c0.4,0.3,0.8,0.5,1.3,0.5c0.5,0,1-0.1,1.5-0.4
	c0.1-0.1,0.2-0.1,0.2-0.1c0.1,0,0.2,0.1,0.3,0.2c0.1,0.1,0.1,0.2,0.1,0.4c0,0.2-0.2,0.3-0.6,0.5c-0.5,0.2-1,0.3-1.5,0.3
	C89.2,260.6,88.4,260.3,87.8,259.8z M91.3,256.9c0-1.2-0.5-1.9-1.4-1.9s-1.6,0.6-1.7,1.9H91.3z"/>
<path class="st0" d="M94.1,258.9v-3.8h-0.6c-0.2,0-0.2-0.1-0.2-0.4v-0.1c0-0.2,0.1-0.4,0.2-0.4h0.6l0.1-1.2c0-0.2,0.1-0.3,0.4-0.3
	h0.1c0.2,0,0.4,0.1,0.4,0.3v1.2h1c0.2,0,0.2,0.1,0.2,0.4v0.1c0,0.2-0.1,0.4-0.2,0.4h-1v3.7c0,0.6,0.2,0.8,0.6,0.8c0.1,0,0.2,0,0.3,0
	h0.2c0.1,0,0.1,0.1,0.2,0.2c0,0.1,0.1,0.2,0.1,0.3c0,0.2-0.3,0.4-0.8,0.4c-0.4,0-0.8-0.1-1.1-0.4C94.2,259.9,94.1,259.4,94.1,258.9z
	"/>
<path class="st0" d="M100,254.4c0-0.1,0.2-0.2,0.5-0.2h0.1c0.3,0,0.4,0.1,0.5,0.2l1.6,4.8l1.6-4.8c0-0.1,0.2-0.2,0.5-0.2
	s0.5,0.1,0.5,0.2c0,0.1,0,0.1,0,0.2l-1.9,5.7c0,0.1-0.2,0.2-0.5,0.2h-0.4c-0.3,0-0.4-0.1-0.5-0.2l-1.9-5.7
	C100,254.5,100,254.5,100,254.4z"/>
<path class="st0" d="M110,256.6V256c0-0.7-0.4-1-1.3-1c-0.5,0-1.1,0.1-1.6,0.4c-0.1,0.1-0.2,0.1-0.3,0.1c-0.1,0-0.2-0.1-0.3-0.2
	c-0.1-0.1-0.1-0.2-0.2-0.4c0-0.2,0.2-0.3,0.7-0.5c0.5-0.2,1.1-0.3,1.7-0.3c0.6,0,1.1,0.1,1.6,0.5c0.4,0.3,0.6,0.8,0.6,1.4v2.7
	c0,0.3,0,0.7,0.1,1c0.1,0.3,0.1,0.4,0.1,0.5c0,0-0.1,0.2-0.2,0.2c-0.1,0-0.2,0.1-0.4,0.1c-0.1,0-0.1,0-0.2,0c0,0-0.1,0-0.1-0.1
	c0,0,0-0.1-0.1-0.1c0,0,0-0.1-0.1-0.1c0-0.1,0-0.1,0-0.2v-0.2c0-0.1,0-0.1,0-0.2c-0.5,0.6-1.2,0.9-2,0.9c-0.5,0-1-0.1-1.5-0.4
	c-0.4-0.4-0.6-0.9-0.6-1.4c0-0.5,0.2-1.1,0.6-1.4c0.4-0.3,0.9-0.5,1.5-0.6C108.7,256.6,109.3,256.6,110,256.6z M107.1,258.7
	c-0.1,0.5,0.3,0.9,0.7,1c0.1,0,0.2,0,0.3,0c0.3,0,0.7-0.1,1-0.2c0.3-0.2,0.6-0.4,0.8-0.6v-1.4c-0.6,0-1.3,0-1.9,0.2
	c-0.2,0.1-0.3,0.1-0.5,0.2C107.3,258,107.1,258.3,107.1,258.7z"/>
<path class="st0" d="M112.9,258.9v-7.1c0-0.2,0.2-0.3,0.5-0.3h0.1c0.3,0,0.5,0.1,0.5,0.3v7c0,0.6,0.2,0.8,0.6,0.8c0.1,0,0.2,0,0.3,0
	h0.2c0.1,0,0.1,0.1,0.2,0.2c0,0.1,0.1,0.2,0.1,0.3c0,0.2-0.3,0.4-0.8,0.4c-0.4,0-0.8-0.1-1.1-0.4C113,259.9,112.8,259.4,112.9,258.9
	z"/>
<path class="st0" d="M118.8,260.5c-0.8,0.1-1.5-0.2-2-0.8c-0.5-0.7-0.8-1.5-0.7-2.3c-0.1-0.8,0.2-1.7,0.7-2.4c0.5-0.6,1.3-0.9,2-0.8
	c0.8,0,1.5,0.3,2,0.8c0.5,0.7,0.7,1.5,0.7,2.4c0.1,0.8-0.2,1.7-0.7,2.3C120.3,260.3,119.6,260.6,118.8,260.5z M117.5,259.1
	c0.3,0.4,0.8,0.6,1.3,0.6c0.5,0,1-0.2,1.3-0.6c0.3-0.5,0.5-1.1,0.4-1.7c0-0.6-0.1-1.2-0.4-1.7c-0.6-0.7-1.7-0.8-2.4-0.1
	c-0.1,0-0.1,0.1-0.1,0.1c-0.3,0.5-0.5,1.1-0.4,1.8C117.1,258,117.2,258.6,117.5,259.1L117.5,259.1z"/>
<path class="st0" d="M123.2,260.2v-4.2c0-0.3,0-0.7-0.1-1c-0.1-0.3-0.1-0.4-0.1-0.5c0,0,0.1-0.2,0.2-0.2c0.1,0,0.2-0.1,0.3-0.1
	c0.1,0,0.1,0,0.2,0c0,0,0.1,0,0.1,0.1c0,0,0,0.1,0.1,0.1c0,0,0,0.1,0.1,0.1l0,0.1c0,0.1,0,0.1,0,0.2v0.1c0.3-0.5,0.8-0.8,1.4-0.9
	c0.2,0,0.4,0,0.5,0.1c0.1,0.1,0.2,0.2,0.2,0.3c0,0.1,0,0.3-0.1,0.4c-0.1,0.2-0.1,0.2-0.2,0.2c-0.1,0-0.2,0-0.2-0.1
	c-0.1-0.1-0.3-0.1-0.4-0.1c-0.2,0-0.4,0.1-0.5,0.2c-0.2,0.1-0.3,0.2-0.4,0.4l-0.1,0.2v4.3c0,0.2-0.2,0.3-0.5,0.3h0
	C123.4,260.5,123.2,260.4,123.2,260.2z"/>
<path class="st0" d="M128,252.8c-0.3,0-0.5-0.1-0.5-0.3v-0.7c0-0.2,0.2-0.3,0.5-0.3h0.2c0.3,0,0.5,0.1,0.5,0.3v0.7
	c0,0.2-0.2,0.3-0.5,0.3H128z M127.6,260.2v-5.7c0-0.2,0.2-0.3,0.5-0.3h0c0.3,0,0.5,0.1,0.5,0.3v5.7c0,0.2-0.2,0.3-0.5,0.3h0
	C127.7,260.5,127.6,260.4,127.6,260.2z"/>
<path class="st0" d="M130.1,259.8c0-0.1,0.1-0.2,0.2-0.4c0.1-0.2,0.2-0.2,0.3-0.2l0.2,0.1c0.4,0.2,0.8,0.4,1.3,0.3
	c0.3,0,0.6-0.1,0.8-0.3c0.2-0.2,0.3-0.5,0.3-0.7c0-0.3-0.1-0.5-0.3-0.7c-0.3-0.2-0.7-0.4-1.1-0.5c-0.4-0.1-0.8-0.3-1.1-0.6
	c-0.3-0.3-0.4-0.7-0.4-1.1c0-0.5,0.2-0.9,0.5-1.2c0.4-0.3,0.9-0.5,1.4-0.5c0.4,0,0.7,0,1.1,0.2c0.3,0.1,0.5,0.2,0.5,0.3
	c0,0.1-0.1,0.3-0.1,0.4c-0.1,0.2-0.2,0.2-0.2,0.2l-0.2-0.1c-0.3-0.1-0.6-0.2-0.9-0.2c-0.3,0-0.5,0.1-0.8,0.2
	c-0.2,0.1-0.3,0.3-0.3,0.5c0,0.2,0.1,0.4,0.2,0.5c0.2,0.2,0.5,0.3,0.7,0.3c0.6,0.1,1.1,0.4,1.5,0.8c0.3,0.3,0.4,0.8,0.4,1.2
	c0,0.5-0.2,1-0.6,1.4c-0.4,0.4-0.9,0.5-1.4,0.5c-0.5,0-1-0.1-1.4-0.2C130.3,260.1,130.1,260,130.1,259.8z"/>
<path class="st0" d="M135.9,259.8c-0.5-0.7-0.8-1.5-0.7-2.3c-0.1-0.9,0.2-1.7,0.7-2.4c0.5-0.6,1.2-0.9,2-0.8c1.7,0,2.5,1,2.5,3.1
	c0,0.1-0.1,0.2-0.1,0.3c-0.1,0.1-0.2,0.2-0.2,0.2h-3.7c0,0.5,0.2,1,0.5,1.4c0.4,0.3,0.8,0.5,1.3,0.5c0.5,0,1-0.1,1.5-0.4
	c0.1,0,0.2-0.1,0.2-0.1c0.1,0,0.2,0.1,0.3,0.2c0.1,0.1,0.1,0.2,0.1,0.4c0,0.2-0.2,0.3-0.6,0.5c-0.5,0.2-1,0.3-1.5,0.3
	C137.3,260.6,136.5,260.3,135.9,259.8z M139.3,256.9c0-1.2-0.5-1.9-1.4-1.9c-0.9,0-1.6,0.6-1.7,1.9H139.3z"/>
<path class="st0" d="M142,260.2v-4.2c0-0.3,0-0.7-0.1-1c-0.1-0.3-0.1-0.4-0.1-0.5c0,0,0.1-0.2,0.2-0.2c0.1,0,0.2-0.1,0.3-0.1
	c0.1,0,0.1,0,0.2,0c0,0,0.1,0,0.1,0.1l0.1,0.1v0.1l0,0.1c0,0.1,0,0.1,0,0.2v0.1c0.3-0.5,0.8-0.8,1.4-0.9c0.2,0,0.4,0,0.5,0.1
	c0.1,0.1,0.2,0.2,0.2,0.3c0,0.1,0,0.3-0.1,0.4c-0.1,0.2-0.1,0.2-0.2,0.2c-0.1,0-0.2,0-0.2-0.1c-0.1-0.1-0.3-0.1-0.4-0.1
	c-0.2,0-0.4,0.1-0.5,0.2c-0.2,0.1-0.3,0.2-0.4,0.4l-0.1,0.2v4.3c0,0.2-0.2,0.3-0.5,0.3h-0.1C142.1,260.5,142,260.4,142,260.2z"/>
<path class="st0" d="M232.9,204.4c0-0.1,0-0.1,0-0.2l2.6-7.6c0.1-0.2,0.3-0.2,0.7-0.2h0.6c0.4,0,0.6,0.1,0.7,0.2l2.6,7.6
	c0,0.1,0,0.1,0,0.2c0,0.2-0.2,0.3-0.6,0.3H239c-0.4,0-0.6-0.1-0.7-0.3l-0.5-1.4h-2.8l-0.4,1.4c-0.1,0.2-0.2,0.3-0.5,0.3h-0.5
	C233.1,204.7,232.9,204.6,232.9,204.4z M235.6,201.4h1.8l-0.7-2.1l-0.2-0.8h-0.1c0,0.3-0.1,0.5-0.2,0.8L235.6,201.4z"/>
<path class="st0" d="M241.2,200.5c0-2.8,1.3-4.2,3.9-4.2c0.6,0,1.1,0.1,1.7,0.2c0.5,0.2,0.8,0.4,0.8,0.6c0,0.2-0.1,0.5-0.3,0.7
	c-0.2,0.3-0.3,0.4-0.5,0.4c-0.1,0-0.2-0.1-0.2-0.1c-0.5-0.2-1-0.3-1.5-0.3c-1.4,0-2,0.9-2,2.7c0,1.8,0.7,2.7,2,2.7
	c0.6,0,1.1-0.1,1.6-0.4c0.1-0.1,0.2-0.1,0.3-0.1c0.2,0,0.3,0.1,0.5,0.4c0.1,0.2,0.2,0.4,0.2,0.6c0,0.3-0.3,0.6-0.8,0.7
	c-0.6,0.2-1.2,0.3-1.8,0.3c-1.1,0.1-2.1-0.3-2.9-1C241.4,202.8,241.1,201.6,241.2,200.5z"/>
<path class="st0" d="M250.7,204.3v-6.4h-1.9c-0.2,0-0.4-0.2-0.4-0.6V197c0-0.4,0.1-0.6,0.4-0.6h5.6c0.2,0,0.4,0.2,0.4,0.6v0.4
	c0,0.4-0.1,0.6-0.4,0.6h-1.9v6.4c0,0.3-0.2,0.4-0.7,0.4h-0.4C251,204.7,250.7,204.6,250.7,204.3z"/>
<path class="st0" d="M256.2,204.2v-7.3c0-0.2,0.1-0.4,0.3-0.5c0,0,0.1,0,0.1,0h4.3c0.2,0,0.4,0.2,0.4,0.6v0.4c0,0.4-0.1,0.6-0.4,0.6
	h-3v1.7h2.7c0.2,0,0.4,0.2,0.4,0.6v0.4c0,0.4-0.1,0.6-0.4,0.6H258v1.9h3c0.2,0,0.3,0.2,0.3,0.6v0.4c0,0.4-0.1,0.6-0.3,0.6h-4.3
	C256.5,204.7,256.3,204.5,256.2,204.2C256.2,204.3,256.2,204.2,256.2,204.2z"/>
<path class="st0" d="M263.1,201.9v-5.2c0-0.3,0.2-0.4,0.7-0.4h0.4c0.5,0,0.7,0.1,0.7,0.4v5.1c0,0.4,0.2,0.8,0.4,1
	c0.3,0.3,0.7,0.4,1.2,0.4c0.4,0,0.8-0.1,1.2-0.4c0.3-0.3,0.5-0.6,0.5-1v-5.1c0-0.3,0.2-0.4,0.7-0.4h0.4c0.5,0,0.7,0.1,0.7,0.4v5.2
	c0,0.8-0.3,1.6-0.9,2.1c-1.5,1-3.5,1-5.1,0C263.4,203.5,263.1,202.7,263.1,201.9z"/>
<path class="st0" d="M272.1,204.3v-7.5c0-0.2,0.1-0.4,0.3-0.5c0,0,0.1,0,0.1,0h2.3c2,0,2.9,0.7,2.9,2.2c0,0.4-0.1,0.8-0.4,1.1
	c-0.3,0.3-0.6,0.6-1,0.7v0c0.2,0.1,0.3,0.2,0.5,0.4c0.2,0.2,0.3,0.4,0.4,0.7l1,2.6c0,0.1,0,0.1,0.1,0.2c0,0.2-0.2,0.2-0.7,0.2h-0.5
	c-0.4,0-0.6-0.1-0.7-0.3l-0.9-2.3c-0.1-0.2-0.2-0.4-0.4-0.5c-0.2-0.1-0.5-0.2-0.8-0.2h-0.5v2.9c0,0.3-0.2,0.4-0.7,0.4h-0.4
	C272.3,204.7,272.1,204.6,272.1,204.3z M273.9,199.9h1.1c0.2,0,0.5-0.1,0.6-0.3c0.2-0.2,0.3-0.5,0.3-0.7c0-0.2-0.1-0.5-0.3-0.7
	c-0.2-0.2-0.5-0.3-0.7-0.2h-1L273.9,199.9z"/>
<path class="st0" d="M279.2,203.7c0-0.2,0.1-0.5,0.3-0.7c0.2-0.3,0.3-0.4,0.5-0.4c0.1,0,0.2,0.1,0.3,0.1c0.4,0.3,0.9,0.4,1.4,0.4
	c0.7,0,1.1-0.3,1.1-0.8c0-0.3-0.1-0.5-0.4-0.6c-0.3-0.2-0.5-0.3-0.8-0.5c-0.3-0.1-0.7-0.3-1-0.4c-0.3-0.2-0.6-0.5-0.8-0.8
	c-0.2-0.4-0.4-0.9-0.4-1.3c0-0.5,0.1-1,0.4-1.4c0.6-0.7,1.5-1.1,2.4-1c0.5,0,1,0.1,1.5,0.3c0.4,0.2,0.6,0.4,0.6,0.6
	c0,0.2-0.1,0.5-0.2,0.6c-0.2,0.3-0.3,0.4-0.4,0.4c-0.1,0-0.1,0-0.2-0.1c-0.3-0.2-0.7-0.2-1.1-0.2c-0.3,0-0.6,0.1-0.8,0.2
	c-0.2,0.1-0.3,0.3-0.2,0.5c0,0.2,0.1,0.4,0.4,0.6c0.3,0.2,0.5,0.3,0.8,0.4c0.3,0.1,0.7,0.3,1,0.4c0.8,0.4,1.2,1.2,1.2,2.1
	c0,0.4-0.1,0.9-0.2,1.3c-0.1,0.3-0.3,0.6-0.6,0.8c-0.6,0.4-1.2,0.6-1.9,0.6c-0.7,0-1.3-0.1-1.9-0.3
	C279.5,204.2,279.2,204,279.2,203.7z"/>
<path class="st0" d="M208.3,222.1v-7.6c0-0.3,0.2-0.4,0.7-0.4h0.4c0.5,0,0.7,0.1,0.7,0.4v7.6c0,0.3-0.2,0.4-0.7,0.4H209
	C208.5,222.4,208.3,222.3,208.3,222.1z"/>
<path class="st0" d="M212.1,222.1v-7.6c0-0.3,0.2-0.4,0.7-0.4h0.5c0.3,0,0.6,0.1,0.8,0.3l3.1,4.8v-4.7c0-0.3,0.2-0.4,0.7-0.4h0.3
	c0.5,0,0.7,0.1,0.7,0.4v7.6c0,0.3-0.2,0.4-0.7,0.4h-0.5c-0.3,0-0.6-0.1-0.8-0.3l-3.2-4.9v4.8c0,0.3-0.2,0.4-0.7,0.4h-0.3
	C212.4,222.4,212.1,222.3,212.1,222.1z"/>
<path class="st0" d="M220.6,221.5c0-0.2,0.1-0.5,0.3-0.7c0.2-0.3,0.3-0.4,0.5-0.4c0.1,0,0.2,0.1,0.3,0.1c0.4,0.3,0.9,0.4,1.4,0.4
	c0.7,0,1.1-0.3,1.1-0.8c0-0.3-0.1-0.5-0.4-0.6c-0.3-0.2-0.5-0.3-0.8-0.5c-0.3-0.1-0.7-0.3-1-0.4c-0.3-0.2-0.6-0.5-0.8-0.8
	c-0.2-0.4-0.4-0.9-0.4-1.3c0-0.5,0.1-1,0.4-1.4c0.6-0.7,1.5-1.1,2.4-1c0.5,0,1,0.1,1.5,0.3c0.4,0.2,0.6,0.4,0.6,0.6
	c0,0.2-0.1,0.5-0.2,0.6c-0.2,0.3-0.3,0.4-0.4,0.4c-0.1,0-0.1,0-0.2-0.1c-0.3-0.2-0.7-0.2-1.1-0.2c-0.3,0-0.6,0.1-0.8,0.2
	c-0.2,0.1-0.3,0.3-0.2,0.5c0,0.2,0.1,0.4,0.4,0.6c0.3,0.2,0.5,0.3,0.8,0.4c0.3,0.1,0.7,0.3,1,0.4c0.3,0.2,0.6,0.5,0.8,0.8
	c0.2,0.4,0.4,0.8,0.4,1.3c0,0.4-0.1,0.9-0.2,1.3c-0.1,0.3-0.3,0.6-0.6,0.8c-0.6,0.4-1.2,0.6-1.9,0.6c-0.7,0-1.3-0.1-1.9-0.3
	C220.8,221.9,220.6,221.7,220.6,221.5z"/>
<path class="st0" d="M229,222.1v-6.4h-1.9c-0.2,0-0.4-0.2-0.4-0.6v-0.4c0-0.4,0.1-0.6,0.4-0.6h5.6c0.2,0,0.4,0.2,0.4,0.6v0.4
	c0,0.4-0.1,0.6-0.4,0.6h-1.9v6.4c0,0.3-0.2,0.4-0.7,0.4h-0.4C229.3,222.4,229,222.3,229,222.1z"/>
<path class="st0" d="M234.4,222.1v-7.6c0-0.3,0.2-0.4,0.7-0.4h0.4c0.5,0,0.7,0.1,0.7,0.4v7.6c0,0.3-0.2,0.4-0.7,0.4h-0.4
	C234.7,222.4,234.4,222.3,234.4,222.1z"/>
<path class="st0" d="M239.8,222.1v-6.4h-1.9c-0.2,0-0.4-0.2-0.4-0.6v-0.4c0-0.4,0.1-0.6,0.4-0.6h5.6c0.2,0,0.4,0.2,0.4,0.6v0.4
	c0,0.4-0.1,0.6-0.4,0.6h-1.9v6.4c0,0.3-0.2,0.4-0.7,0.4h-0.4C240,222.4,239.8,222.3,239.8,222.1z"/>
<path class="st0" d="M245.2,219.6v-5.2c0-0.3,0.2-0.4,0.7-0.4h0.4c0.5,0,0.7,0.1,0.7,0.4v5.1c0,0.4,0.2,0.8,0.4,1
	c0.7,0.5,1.6,0.5,2.3,0c0.3-0.3,0.5-0.6,0.4-1v-5.1c0-0.3,0.2-0.4,0.7-0.4h0.4c0.5,0,0.7,0.1,0.7,0.4v5.2c0,0.8-0.3,1.6-0.9,2.1
	c-1.5,1-3.5,1-5.1,0C245.5,221.2,245.2,220.5,245.2,219.6z"/>
<path class="st0" d="M255.7,222.1v-6.4h-1.9c-0.2,0-0.4-0.2-0.4-0.6v-0.4c0-0.4,0.1-0.6,0.4-0.6h5.6c0.2,0,0.4,0.2,0.4,0.6v0.4
	c0,0.4-0.1,0.6-0.4,0.6h-1.9v6.4c0,0.3-0.2,0.4-0.7,0.4h-0.4C255.9,222.4,255.7,222.3,255.7,222.1z"/>
<path class="st0" d="M261,222.1v-7.6c0-0.3,0.2-0.4,0.7-0.4h0.4c0.5,0,0.7,0.1,0.7,0.4v7.6c0,0.3-0.2,0.4-0.7,0.4h-0.4
	C261.3,222.4,261,222.3,261,222.1z"/>
<path class="st0" d="M265.6,221.4c-1.3-1.9-1.3-4.4,0-6.3c1.6-1.5,4-1.5,5.6,0c1.3,1.9,1.3,4.4,0,6.3
	C269.7,222.9,267.2,222.9,265.6,221.4z M267,220.3c0.6,0.8,1.8,0.9,2.6,0.3c0.1-0.1,0.2-0.2,0.3-0.3c0.7-1.2,0.7-2.7,0-4
	c-0.6-0.8-1.8-0.9-2.6-0.3c-0.1,0.1-0.2,0.2-0.3,0.3C266.4,217.5,266.4,219,267,220.3z"/>
<path class="st0" d="M274,222.1v-7.6c0-0.3,0.2-0.4,0.7-0.4h0.5c0.3,0,0.6,0.1,0.8,0.3l3.1,4.8v-4.7c0-0.3,0.2-0.4,0.7-0.4h0.3
	c0.5,0,0.7,0.1,0.7,0.4v7.6c0,0.3-0.2,0.4-0.7,0.4h-0.4c-0.3,0-0.6-0.1-0.8-0.3l-3.2-4.9v4.8c0,0.3-0.2,0.4-0.7,0.4h-0.3
	C274.3,222.4,274,222.3,274,222.1z"/>
<path class="st0" d="M283,222.1v-7.6c0-0.3,0.2-0.4,0.7-0.4h0.5c0.3,0,0.6,0.1,0.8,0.3l3.1,4.8v-4.7c0-0.3,0.2-0.4,0.7-0.4h0.3
	c0.5,0,0.7,0.1,0.7,0.4v7.6c0,0.3-0.2,0.4-0.7,0.4h-0.4c-0.3,0-0.6-0.1-0.8-0.3l-3.2-4.9v4.8c0,0.3-0.2,0.4-0.7,0.4h-0.3
	C283.3,222.4,283,222.3,283,222.1z"/>
<path class="st0" d="M292,221.9v-7.3c0-0.2,0.1-0.4,0.3-0.5c0,0,0.1,0,0.1,0h4.3c0.2,0,0.4,0.2,0.4,0.6v0.4c0,0.4-0.1,0.6-0.4,0.6
	h-3v1.7h2.7c0.2,0,0.4,0.2,0.4,0.6v0.4c0,0.4-0.1,0.6-0.4,0.6h-2.7v1.9h3c0.2,0,0.4,0.2,0.4,0.6v0.4c0,0.4-0.1,0.6-0.4,0.6h-4.3
	C292.3,222.4,292.1,222.3,292,221.9C292,222,292,222,292,221.9z"/>
<path class="st0" d="M298.9,221.9v-7.5c0-0.3,0.2-0.4,0.7-0.4h0.4c0.5,0,0.7,0.1,0.7,0.4v6.4h2.6c0.2,0,0.4,0.2,0.4,0.6v0.4
	c0,0.4-0.1,0.6-0.4,0.6h-4c-0.2,0-0.5-0.1-0.5-0.3C298.9,222,298.9,222,298.9,221.9z"/>
<path class="st0" d="M304.6,221.5c0-0.2,0.1-0.5,0.3-0.7c0.2-0.3,0.3-0.4,0.5-0.4c0.1,0,0.2,0.1,0.3,0.1c0.4,0.3,0.9,0.4,1.4,0.4
	c0.7,0,1.1-0.3,1.1-0.8c0-0.3-0.1-0.5-0.4-0.6c-0.3-0.2-0.5-0.3-0.8-0.5c-0.3-0.1-0.7-0.3-1-0.4c-0.3-0.2-0.6-0.5-0.8-0.8
	c-0.2-0.4-0.4-0.9-0.4-1.3c0-0.5,0.1-1,0.4-1.4c0.6-0.7,1.5-1.1,2.4-1c0.5,0,1,0.1,1.5,0.3c0.4,0.2,0.6,0.4,0.6,0.6
	c0,0.2-0.1,0.4-0.2,0.6c-0.2,0.3-0.3,0.4-0.4,0.4c-0.1,0-0.1,0-0.2-0.1c-0.3-0.2-0.7-0.2-1.1-0.2c-0.3,0-0.6,0.1-0.8,0.2
	c-0.2,0.1-0.2,0.3-0.2,0.5c0,0.2,0.1,0.4,0.4,0.6c0.3,0.2,0.5,0.3,0.8,0.4c0.3,0.1,0.7,0.3,1,0.4c0.3,0.2,0.6,0.5,0.8,0.8
	c0.2,0.4,0.4,0.8,0.4,1.3c0,0.4-0.1,0.9-0.2,1.3c-0.1,0.3-0.3,0.6-0.6,0.8c-0.6,0.4-1.2,0.6-1.9,0.6c-0.7,0-1.3-0.1-1.9-0.3
	C304.8,221.9,304.6,221.7,304.6,221.5z"/>
<path class="st0" d="M203.1,239.3c-0.5,0.5-1.2,0.9-1.9,0.9c-0.7,0-1.3-0.3-1.7-0.8c-0.4-0.7-0.7-1.5-0.6-2.2V237
	c0-0.8,0.2-1.6,0.7-2.3c0.4-0.5,1-0.9,1.7-0.8c0.6,0,1.3,0.2,1.8,0.6v-3c0-0.2,0.2-0.3,0.5-0.3h0c0.3,0,0.5,0.1,0.5,0.3v6.9
	c0,0.3,0,0.7,0.1,1c0.1,0.3,0.1,0.4,0.1,0.5s-0.1,0.2-0.2,0.2c-0.1,0-0.2,0.1-0.4,0.1c-0.1,0-0.1,0-0.2,0c0,0-0.1,0-0.1-0.1
	c0,0,0-0.1-0.1-0.1c0,0,0-0.1-0.1-0.1c0-0.1,0-0.1,0-0.2v-0.2C203.2,239.5,203.2,239.4,203.1,239.3z M200,237c0,1.6,0.5,2.4,1.5,2.4
	c0.6-0.1,1.2-0.4,1.5-0.8v-3.2c-0.4-0.3-0.9-0.5-1.4-0.5h-0.1c-0.5,0-0.9,0.2-1.1,0.6C200.1,235.8,200,236.4,200,237z"/>
<path class="st0" d="M206.4,239.5c-0.5-0.7-0.8-1.5-0.7-2.3c-0.1-0.9,0.2-1.7,0.7-2.4c0.5-0.6,1.2-0.9,2-0.8c1.7,0,2.5,1,2.5,3.1
	c0,0.1-0.1,0.2-0.1,0.3c-0.1,0.1-0.2,0.2-0.2,0.2h-3.7c0,0.5,0.2,1,0.5,1.4c0.4,0.3,0.8,0.5,1.3,0.5c0.5,0,1-0.1,1.5-0.4
	c0.1-0.1,0.2-0.1,0.3-0.1c0.1,0,0.2,0.1,0.3,0.2c0.1,0.1,0.1,0.2,0.2,0.4c0,0.2-0.2,0.3-0.7,0.5c-0.5,0.2-1,0.3-1.5,0.3
	C207.8,240.3,207,240,206.4,239.5z M209.8,236.6c0-1.2-0.5-1.9-1.4-1.9s-1.6,0.6-1.7,1.9H209.8z M209.6,231.6l-0.5,0.5l-0.5,0.6
	c-0.1,0.1-0.3,0.2-0.5,0.2c-0.2,0-0.3,0-0.3-0.1c0.2-0.5,0.4-0.9,0.7-1.3c0.2-0.2,0.5-0.3,0.7-0.3c0.4,0,0.6,0.1,0.6,0.2
	C209.7,231.5,209.7,231.6,209.6,231.6z"/>
<path class="st0" d="M212,237c0-0.5,0.1-1,0.2-1.5c0.1-0.4,0.4-0.7,0.7-1c0.5-0.4,1.2-0.6,1.9-0.6c0.4,0,0.8,0.1,1.2,0.2
	c0.4,0.1,0.5,0.2,0.5,0.4c0,0.1-0.1,0.3-0.1,0.4c-0.1,0.2-0.2,0.2-0.2,0.2l0,0h0h0c-0.4-0.2-0.8-0.3-1.3-0.3c-1.1,0-1.7,0.8-1.7,2.3
	c-0.1,0.6,0.1,1.3,0.4,1.8c0.4,0.4,0.9,0.6,1.4,0.5c0.5,0,0.9-0.1,1.3-0.3h0.1h0.1c0.1,0,0.2,0.1,0.3,0.2c0.1,0.1,0.1,0.2,0.1,0.4
	c0,0.1-0.2,0.3-0.6,0.4c-0.4,0.1-0.9,0.2-1.3,0.2c-0.8,0.1-1.6-0.2-2.2-0.8C212.2,238.9,211.9,238,212,237z"/>
<path class="st0" d="M218.2,239.9v-4.2c0-0.3,0-0.7-0.1-1c-0.1-0.3-0.1-0.4-0.1-0.5c0,0,0.1-0.2,0.2-0.2c0.1,0,0.2-0.1,0.3-0.1
	c0.1,0,0.1,0,0.2,0c0,0,0.1,0,0.1,0.1l0.1,0.1c0,0,0,0.1,0,0.1v0.1c0,0,0,0.1,0,0.2c0,0,0,0.1,0,0.1c0.3-0.5,0.8-0.8,1.4-0.9
	c0.2,0,0.4,0,0.5,0.1c0.1,0.1,0.2,0.2,0.2,0.3c0,0.1,0,0.3-0.1,0.4c0,0.2-0.1,0.2-0.2,0.2c-0.1,0-0.2,0-0.2-0.1
	c-0.1-0.1-0.3-0.1-0.4-0.1c-0.2,0-0.4,0.1-0.5,0.2c-0.2,0.1-0.3,0.2-0.4,0.4l-0.1,0.2v4.3c0,0.2-0.2,0.3-0.5,0.3h-0.1
	C218.4,240.2,218.2,240.1,218.2,239.9z"/>
<path class="st0" d="M221.7,234.2c0-0.1,0.2-0.2,0.5-0.2h0.1c0.3,0,0.4,0.1,0.5,0.2l1.6,4.3l1.6-4.3c0-0.1,0.2-0.2,0.5-0.2
	c0.3,0,0.5,0.1,0.5,0.2c0,0.1,0,0.1,0,0.2l-3,8.1c-0.1,0.2-0.2,0.2-0.5,0.2h-0.2c-0.3,0-0.4-0.1-0.4-0.2s0.4-0.9,1.1-2.6l-2.1-5.6
	C221.7,234.2,221.7,234.2,221.7,234.2z"/>
<path class="st0" d="M229.2,242.4c0,0.2-0.2,0.3-0.5,0.3h-0.1c-0.3,0-0.5-0.1-0.5-0.3v-6.6c0-0.3,0-0.7-0.1-1
	c-0.1-0.3-0.1-0.4-0.1-0.5s0.1-0.2,0.2-0.2c0.1,0,0.2-0.1,0.4-0.1c0.1,0,0.1,0,0.2,0c0,0,0.1,0,0.1,0.1c0,0,0.1,0.1,0.1,0.1
	c0,0,0,0.1,0.1,0.1c0,0,0,0.1,0,0.1v0.2c0,0,0,0.1,0,0.1c0.5-0.6,1.2-0.9,1.9-0.9c0.7,0,1.3,0.3,1.7,0.8c0.4,0.7,0.7,1.5,0.6,2.2
	v0.1c0,0.8-0.2,1.6-0.7,2.3c-0.4,0.5-1,0.9-1.7,0.8c-0.6,0-1.3-0.2-1.8-0.6L229.2,242.4z M230.6,239.4L230.6,239.4
	c0.5,0,1-0.2,1.2-0.6c0.3-0.5,0.4-1.1,0.4-1.7c0-0.6-0.1-1.2-0.4-1.7c-0.2-0.4-0.7-0.6-1.1-0.6c-0.6,0.1-1.2,0.4-1.5,0.8v3.2
	C229.6,239.2,230.1,239.4,230.6,239.4L230.6,239.4z"/>
<path class="st0" d="M235.2,238.6v-3.8h-0.6c-0.2,0-0.2-0.1-0.2-0.4v-0.1c0-0.2,0.1-0.4,0.2-0.4h0.6l0.1-1.2c0-0.2,0.1-0.3,0.4-0.3
	h0.1c0.2,0,0.4,0.1,0.4,0.3v1.2h1c0.2,0,0.2,0.1,0.2,0.4v0.1c0,0.2-0.1,0.4-0.2,0.4h-1v3.7c0,0.6,0.2,0.8,0.6,0.8c0.1,0,0.2,0,0.3,0
	h0.2c0.1,0,0.1,0.1,0.2,0.2c0,0.1,0.1,0.2,0.1,0.3c0,0.2-0.3,0.4-0.8,0.4c-0.4,0-0.8-0.1-1.1-0.4
	C235.3,239.6,235.2,239.1,235.2,238.6z"/>
<path class="st0" d="M239.4,239.5c-0.5-0.7-0.8-1.5-0.7-2.3c-0.1-0.9,0.2-1.7,0.7-2.4c0.5-0.6,1.2-0.9,2-0.8c1.7,0,2.5,1,2.5,3.1
	c0,0.1-0.1,0.2-0.1,0.3c-0.1,0.1-0.2,0.2-0.3,0.2h-3.7c0,0.5,0.2,1,0.5,1.4c0.4,0.3,0.8,0.5,1.3,0.5c0.5,0,1-0.1,1.5-0.4
	c0.1-0.1,0.2-0.1,0.2-0.1c0.1,0,0.2,0.1,0.3,0.2c0.1,0.1,0.1,0.2,0.1,0.4c0,0.2-0.2,0.3-0.6,0.5c-0.5,0.2-1,0.3-1.5,0.3
	C240.8,240.3,240,240,239.4,239.5z M242.8,236.6c0-1.2-0.5-1.9-1.4-1.9s-1.6,0.6-1.7,1.9H242.8z"/>
<path class="st0" d="M245.4,239.9v-4.2c0-0.3,0-0.7-0.1-1c-0.1-0.3-0.1-0.4-0.1-0.5c0,0,0.1-0.2,0.2-0.2c0.1,0,0.2-0.1,0.4-0.1
	c0.1,0,0.1,0,0.2,0c0,0,0.1,0,0.1,0.1c0,0,0,0.1,0.1,0.1c0,0,0,0.1,0.1,0.1c0,0,0,0.1,0,0.1c0,0.1,0,0.1,0,0.2c0,0,0,0.1,0,0.1
	c0.3-0.5,0.8-0.8,1.4-0.9c0.2,0,0.4,0,0.5,0.1c0.1,0.1,0.2,0.2,0.2,0.3c0,0.1,0,0.3-0.1,0.4c-0.1,0.2-0.1,0.2-0.2,0.2
	c-0.1,0-0.2,0-0.2-0.1c-0.1-0.1-0.3-0.1-0.4-0.1c-0.2,0-0.4,0.1-0.5,0.2c-0.2,0.1-0.3,0.2-0.4,0.4l-0.1,0.2v4.3
	c0,0.2-0.2,0.3-0.5,0.3l0,0C245.6,240.2,245.4,240.1,245.4,239.9z"/>
<path class="st0" d="M252.9,239.5c-0.5-0.7-0.8-1.5-0.7-2.3c-0.1-0.9,0.2-1.7,0.7-2.4c0.5-0.6,1.2-0.9,2-0.8c1.7,0,2.5,1,2.5,3.1
	c0,0.1-0.1,0.2-0.1,0.3c-0.1,0.1-0.2,0.2-0.3,0.2h-3.7c0,0.5,0.2,1,0.5,1.4c0.4,0.3,0.8,0.5,1.3,0.5c0.5,0,1-0.1,1.5-0.4
	c0.1-0.1,0.2-0.1,0.2-0.1c0.1,0,0.2,0.1,0.3,0.2c0.1,0.1,0.1,0.2,0.1,0.4c0,0.2-0.2,0.3-0.6,0.5c-0.5,0.2-1,0.3-1.5,0.3
	C254.3,240.3,253.5,240,252.9,239.5z M256.3,236.6c0-1.2-0.5-1.9-1.4-1.9c-0.9,0-1.6,0.6-1.7,1.9H256.3z"/>
<path class="st0" d="M259.2,238.6v-3.8h-0.6c-0.2,0-0.2-0.1-0.2-0.4v-0.1c0-0.2,0.1-0.4,0.2-0.4h0.6l0.1-1.2c0-0.2,0.1-0.3,0.4-0.3
	h0.1c0.2,0,0.4,0.1,0.4,0.3v1.2h1c0.2,0,0.2,0.1,0.2,0.4v0.1c0,0.2-0.1,0.4-0.2,0.4h-1v3.7c0,0.6,0.2,0.8,0.6,0.8c0.1,0,0.2,0,0.3,0
	h0.2c0.1,0,0.1,0.1,0.2,0.2c0,0.1,0.1,0.2,0.1,0.3c0,0.2-0.3,0.4-0.8,0.4c-0.4,0-0.8-0.1-1.1-0.4
	C259.3,239.6,259.1,239.1,259.2,238.6z"/>
<path class="st0" d="M265.4,237c0-0.5,0.1-1,0.2-1.5c0.1-0.4,0.4-0.7,0.7-1c0.5-0.4,1.2-0.6,1.9-0.6c0.4,0,0.8,0.1,1.2,0.2
	c0.4,0.1,0.5,0.2,0.5,0.4c0,0.1-0.1,0.3-0.1,0.4c-0.1,0.2-0.2,0.2-0.2,0.2l0,0h0h0c-0.4-0.2-0.8-0.3-1.3-0.3c-1.1,0-1.7,0.8-1.7,2.3
	c-0.1,0.6,0.1,1.3,0.4,1.8c0.4,0.4,0.9,0.6,1.4,0.5c0.5,0,0.9-0.1,1.3-0.3h0.1h0.1c0.1,0,0.2,0.1,0.3,0.2c0.1,0.1,0.1,0.2,0.1,0.4
	c0,0.1-0.2,0.3-0.5,0.4c-0.4,0.1-0.9,0.2-1.3,0.2c-0.8,0.1-1.6-0.2-2.2-0.8C265.6,238.9,265.3,238,265.4,237z"/>
<path class="st0" d="M273.9,240.2c-0.8,0.1-1.5-0.2-2-0.8c-0.5-0.7-0.8-1.5-0.7-2.3c-0.1-0.8,0.2-1.7,0.7-2.4c0.5-0.6,1.3-0.9,2-0.8
	c0.8,0,1.5,0.3,2,0.8c0.9,1.4,0.9,3.3,0,4.7C275.4,240,274.7,240.3,273.9,240.2z M272.6,238.8c0.3,0.4,0.8,0.6,1.3,0.6
	c0.5,0,1-0.2,1.3-0.6c0.3-0.5,0.5-1.1,0.4-1.7c0-0.6-0.1-1.2-0.4-1.7c-0.6-0.7-1.7-0.8-2.4-0.1c-0.1,0-0.1,0.1-0.1,0.1
	c-0.3,0.5-0.4,1.1-0.4,1.8C272.2,237.7,272.3,238.3,272.6,238.8L272.6,238.8z"/>
<path class="st0" d="M278.3,239.9v-4.2c0-0.3,0-0.7-0.1-1c-0.1-0.3-0.1-0.4-0.1-0.5c0,0,0.1-0.2,0.2-0.2c0.1,0,0.2-0.1,0.3-0.1
	c0.1,0,0.1,0,0.2,0c0,0,0.1,0,0.1,0.1c0,0,0.1,0.1,0.1,0.1c0,0,0,0.1,0.1,0.1c0,0,0,0.1,0,0.1c0,0.1,0,0.1,0,0.2c0,0,0,0.1,0,0.1
	c0.4-0.5,1.1-0.9,1.8-0.9c0.5,0,1.1,0.1,1.5,0.5c0.4,0.4,0.5,0.9,0.5,1.4v4.1c0,0.2-0.2,0.3-0.5,0.3h-0.1c-0.3,0-0.5-0.1-0.5-0.3v-4
	c0-0.3-0.1-0.6-0.3-0.8c-0.2-0.2-0.6-0.3-0.9-0.3c-0.6,0-1.2,0.3-1.5,0.8v4.3c0,0.2-0.2,0.3-0.5,0.3h-0.1
	C278.4,240.2,278.3,240.1,278.3,239.9z"/>
<path class="st0" d="M285.1,238.6v-3.8h-0.6c-0.2,0-0.2-0.1-0.2-0.4v-0.1c0-0.2,0.1-0.4,0.2-0.4h0.6l0.1-1.2c0-0.2,0.1-0.3,0.4-0.3
	h0.1c0.2,0,0.4,0.1,0.4,0.3v1.2h1c0.2,0,0.2,0.1,0.2,0.4v0.1c0,0.2-0.1,0.4-0.2,0.4h-1v3.7c0,0.6,0.2,0.8,0.6,0.8c0.1,0,0.2,0,0.3,0
	h0.2c0.1,0,0.1,0.1,0.2,0.2c0,0.1,0.1,0.2,0.1,0.3c0,0.2-0.3,0.4-0.8,0.4c-0.4,0-0.8-0.1-1.1-0.4
	C285.3,239.6,285.1,239.1,285.1,238.6z"/>
<path class="st0" d="M289,239.9v-4.2c0-0.3,0-0.7-0.1-1c-0.1-0.3-0.1-0.4-0.1-0.5c0,0,0.1-0.2,0.2-0.2c0.1,0,0.2-0.1,0.4-0.1
	c0.1,0,0.1,0,0.2,0c0,0,0.1,0,0.1,0.1c0,0,0.1,0.1,0.1,0.1c0,0,0,0.1,0.1,0.1c0,0,0,0.1,0,0.1c0,0,0,0.1,0,0.2c0,0,0,0.1,0,0.1
	c0.3-0.5,0.8-0.8,1.4-0.9c0.2,0,0.4,0,0.5,0.1c0.1,0.1,0.2,0.2,0.2,0.3c0,0.1,0,0.3-0.1,0.4c-0.1,0.2-0.1,0.2-0.2,0.2
	c-0.1,0-0.2,0-0.2-0.1c-0.1-0.1-0.3-0.1-0.4-0.1c-0.2,0-0.4,0.1-0.5,0.2c-0.2,0.1-0.3,0.2-0.4,0.4l-0.1,0.2v4.3
	c0,0.2-0.2,0.3-0.5,0.3h0C289.1,240.2,289,240.1,289,239.9z"/>
<path class="st0" d="M293.7,232.5c-0.3,0-0.5-0.1-0.5-0.3v-0.7c0-0.2,0.2-0.3,0.5-0.3h0.1c0.3,0,0.5,0.1,0.5,0.3v0.7
	c0,0.2-0.2,0.3-0.5,0.3H293.7z M293.3,239.9v-5.7c0-0.2,0.2-0.3,0.5-0.3h0.1c0.3,0,0.5,0.1,0.5,0.3v5.7c0,0.2-0.2,0.3-0.5,0.3h-0.1
	C293.5,240.2,293.3,240.1,293.3,239.9z"/>
<path class="st0" d="M296.4,239.9v-8.4c0-0.2,0.2-0.3,0.5-0.3h0.1c0.3,0,0.5,0.1,0.5,0.3v3c0.5-0.4,1.1-0.6,1.8-0.6
	c0.7,0,1.3,0.3,1.7,0.8c0.5,0.7,0.7,1.5,0.7,2.3v0.1c0,0.8-0.2,1.6-0.6,2.2c-0.4,0.6-1,0.9-1.7,0.8c-0.7,0-1.4-0.3-1.9-0.9l-0.2,0.7
	c0,0.1-0.1,0.1-0.3,0.1h-0.1C296.5,240.2,296.4,240.1,296.4,239.9z M297.4,238.6c0.4,0.5,0.9,0.8,1.5,0.8c1,0,1.5-0.8,1.5-2.4
	c0-0.6-0.1-1.1-0.4-1.6c-0.3-0.4-0.7-0.6-1.2-0.6h-0.1c-0.5,0-1,0.2-1.4,0.5V238.6z"/>
<path class="st0" d="M303,238.3v-4.1c0-0.2,0.2-0.3,0.5-0.3h0c0.3,0,0.5,0.1,0.5,0.3v4c0,0.3,0.1,0.6,0.3,0.8
	c0.2,0.2,0.6,0.3,0.9,0.3c0.6,0,1.2-0.3,1.5-0.8v-4.3c0-0.2,0.2-0.3,0.5-0.3h0.1c0.3,0,0.5,0.1,0.5,0.3v4.2c0,0.3,0,0.7,0.1,1
	c0.1,0.3,0.1,0.4,0.1,0.5s-0.1,0.2-0.2,0.2c-0.1,0-0.2,0.1-0.3,0.1c-0.1,0-0.1,0-0.2,0c0,0-0.1,0-0.1-0.1l-0.1-0.1c0,0,0-0.1,0-0.1
	l0-0.2c0-0.1,0-0.1,0-0.2c0-0.1,0-0.1,0-0.2c-0.4,0.5-1.1,0.9-1.8,0.9c-0.5,0-1.1-0.1-1.5-0.5C303.2,239.4,303,238.9,303,238.3z"/>
<path class="st0" d="M310.1,239.5c-0.5-0.7-0.8-1.5-0.7-2.3c-0.1-0.9,0.2-1.7,0.7-2.4c0.5-0.6,1.2-0.9,2-0.8c1.7,0,2.5,1,2.5,3.1
	c0,0.1-0.1,0.2-0.1,0.3c-0.1,0.1-0.2,0.2-0.2,0.2h-3.7c0,0.5,0.2,1,0.5,1.4c0.4,0.3,0.8,0.5,1.3,0.5c0.5,0,1-0.1,1.5-0.4
	c0.1,0,0.2-0.1,0.2-0.1c0.1,0,0.2,0.1,0.3,0.2c0.1,0.1,0.1,0.2,0.1,0.4c0,0.2-0.2,0.3-0.6,0.5c-0.5,0.2-1,0.3-1.5,0.3
	C311.5,240.3,310.7,240,310.1,239.5z M313.5,236.6c0-1.2-0.5-1.9-1.4-1.9c-0.9,0-1.6,0.6-1.7,1.9H313.5z"/>
<path class="st0" d="M316.1,239.9v-4.2c0-0.3,0-0.7-0.1-1c-0.1-0.3-0.1-0.4-0.1-0.5c0,0,0.1-0.2,0.2-0.2c0.1,0,0.2-0.1,0.3-0.1
	c0.1,0,0.1,0,0.2,0c0,0,0.1,0,0.1,0.1l0.1,0.1v0.1l0,0.1c0,0.1,0,0.1,0,0.2c0,0.1,0,0.1,0,0.1c0.3-0.5,0.8-0.8,1.4-0.9
	c0.2,0,0.4,0,0.5,0.1c0.1,0.1,0.2,0.2,0.2,0.3c0,0.1,0,0.3-0.1,0.4c-0.1,0.2-0.1,0.2-0.2,0.2c-0.1,0-0.2,0-0.2-0.1
	c-0.1-0.1-0.3-0.1-0.4-0.1c-0.2,0-0.4,0.1-0.5,0.2c-0.2,0.1-0.3,0.2-0.4,0.4l-0.1,0.2v4.3c0,0.2-0.2,0.3-0.5,0.3h0.1
	C316.3,240.2,316.1,240.1,316.1,239.9z"/>
<path class="st1" d="M237.4,160.5c0,3.9,2.4,9.5,6.9,9.5s6.9-5.7,6.9-9.5c0-3.8-3.1-6.9-6.9-6.9
	C240.5,153.5,237.4,156.6,237.4,160.5 M256.3,176.4c-1.3-1.8-3.3-3.1-5.5-3.7l-2.3,7.9c-0.1,0.7-0.7,1.3-1.4,1.2
	c-0.6-0.1-1.2-0.6-1.2-1.2v-6.3c-0.2-0.9-1.1-1.5-2-1.3c-0.7,0.1-1.2,0.7-1.3,1.3v6.3c-0.1,0.7-0.7,1.3-1.4,1.2
	c-0.6-0.1-1.2-0.6-1.2-1.2l-2.3-7.9c-2.2,0.6-4.1,1.8-5.5,3.7c-0.5,0.9-0.8,1.9-0.8,2.9c0,0.2,0,0.4,0,0.7v2.6
	c0,1.5,1.2,2.6,2.6,2.6c0,0,0,0,0,0h20.5c1.5,0,2.6-1.2,2.7-2.6c0,0,0,0,0,0v-2.6c0-0.2,0-0.5,0-0.7
	C257.2,178.2,256.9,177.2,256.3,176.4"/>
<path class="st1" d="M266.2,169.3c-0.7,0.1-1.3,0.2-1.9,0.3c-0.7,0.2-1.2,0.8-1.2,1.6c0,0.3,0.1,0.6,0.2,0.8c3.2,4,9,4.8,13,1.6
	c0.5-0.4,1-0.9,1.5-1.4c0.2-0.3,0.4-0.6,0.4-1c0-0.8-0.6-1.5-1.3-1.6c-0.6-0.1-1.3-0.2-2-0.3c-0.9-0.1-1.6-0.9-1.6-1.8
	c0-0.9,0.7-1.6,1.6-1.7c0.1,0,0.3,0,0.3,0c4.4-0.3,7.3-1.2,9.3-2.9c0.3-0.3,0.4-0.7,0.4-1.1c0-0.8-0.6-1.5-1.5-1.6
	c-2.4-0.4-4.2-2.4-4.2-4.9V155c0-4.7-3.8-8.5-8.5-8.5c-4.7,0-8.5,3.8-8.5,8.5v0.3c-0.1,2.4-1.8,4.5-4.2,4.9
	c-0.9,0.1-1.5,0.9-1.4,1.7c0,0.4,0.2,0.7,0.4,0.9c2,1.7,4.9,2.5,9.3,2.9c0.1,0,0.2,0,0.4,0c0.9,0.1,1.5,0.8,1.5,1.7
	C268,168.4,267.2,169.2,266.2,169.3 M285.3,174.4c-0.9-1.2-2-2.2-3.3-3c-2.8,6.3-10.3,9.1-16.6,6.3c-2.8-1.3-5-3.5-6.3-6.3
	c-1.3,0.8-2.4,1.8-3.3,3c-0.7,1.1-1,2.3-1.1,3.6c0,0.2,0,4,0,4c0,1.8,1.5,3.2,3.2,3.2h25c1.8,0,3.2-1.5,3.2-3.2c0,0,0-3.8,0-4
	C286.3,176.7,285.9,175.5,285.3,174.4"/>
<path class="st1" d="M110,177.6c0,0.8-0.7,1.5-1.5,1.5c-0.8,0-1.5-0.7-1.5-1.5v-3.1c0-0.8,0.7-1.5,1.5-1.5c0.8,0,1.5,0.7,1.5,1.5
	V177.6z M99,177.6c0,0.8-0.7,1.5-1.5,1.5c-0.8,0-1.5-0.7-1.5-1.5v-3.1c0-0.8,0.7-1.5,1.5-1.5c0.8,0,1.5,0.7,1.5,1.5V177.6z
	 M114.1,167.5l-1-0.8v-4c0-0.8-0.7-1.5-1.5-1.5c-0.8,0-1.5,0.7-1.5,1.5v1.4l-5.3-4.4c-1-1-2.5-1-3.5,0c0,0,0,0,0,0l-9.4,7.9
	c-0.5,0.5-0.7,1.1-0.7,1.8v11.4c0,1.1,0.9,2,2,2l0,0h8.4v-8c0-0.8,0.7-1.5,1.5-1.5s1.5,0.7,1.5,1.5v8h8.3c1.1,0,2-0.9,2-2
	c0,0,0,0,0,0v-11.4C114.8,168.6,114.5,167.9,114.1,167.5"/>
<path class="st1" d="M237.9,23.3c2.9,3.8,6.6,6.9,10.8,9.2c1.4,0.7,2.8,1.4,4.2,1.9c0.6,0.2,1.2,0.3,1.7,0.3
	c1.1-0.2,1.8-1.2,1.6-2.2c0-0.1-0.1-0.2-0.1-0.4l0.1,0.1c0.9,0.5,2.1,0.2,2.6-0.8c0.5-0.9,0.2-2.1-0.8-2.6l0.8,0.5
	c0.9,0.5,2.1,0.2,2.6-0.8c0.5-0.9,0.2-2.1-0.8-2.6c0.9,0.5,2.1,0.2,2.6-0.8c0.5-0.9,0.2-2.1-0.8-2.6l0,0l-7.7-4.2
	c-0.6-0.3-0.8-1.1-0.5-1.6l2.5-3.3c0.1-0.1,0.3-0.3,0.3-0.5c0.5-0.9,0.2-2.1-0.8-2.6c-0.8-0.4-1.8-0.3-2.4,0.4l-0.2,0.2
	c-3.2,3.1-7.5,4.8-12,4.8L237.9,23.3z"/>
<path class="st1" d="M277.8,27.6c-2.9,3.8-6.6,6.9-10.8,9.2c-1.4,0.8-2.8,1.4-4.2,1.9c-0.6,0.2-1.2,0.3-1.7,0.3
	c-1.1-0.2-1.8-1.2-1.6-2.3c0-0.1,0-0.2,0.1-0.3l-0.1,0.1c-0.9,0.5-2.1,0.2-2.6-0.8c-0.5-0.9-0.2-2.1,0.8-2.6l-0.8,0.5
	c-0.9,0.5-2.1,0.2-2.6-0.8c-0.5-0.9-0.2-2.1,0.8-2.6c-1,0.4-2.1-0.1-2.5-1.1c-0.3-0.8-0.1-1.8,0.7-2.3l7.7-4.2
	c0.6-0.3,0.8-1,0.5-1.6c0,0,0,0,0,0l-2.5-3.3c-0.1-0.1-0.3-0.3-0.3-0.5c-0.5-0.9-0.2-2.1,0.8-2.6c0.8-0.4,1.8-0.3,2.4,0.4l0.2,0.2
	c3.2,3.1,7.5,4.8,12,4.8"/>
<path class="st2" d="M261.3,39.9c-0.1,0-0.2,0-0.3,0c-1.2-0.2-2.1-1.1-2.3-2.3c-1.6,0.1-2.9-1.1-3-2.7c0-0.1,0-0.2,0-0.3
	c-1.6-0.1-2.8-1.4-2.7-2.9c0-0.2,0-0.4,0.1-0.6c-1.5-0.5-2.3-2-1.8-3.5c0.2-0.7,0.7-1.3,1.4-1.7l7.7-4.2c0.1-0.1,0.2-0.2,0.1-0.4
	l-2.4-3.1c-0.2-0.2-0.3-0.4-0.5-0.6c-0.7-1.4-0.2-3.1,1.2-3.8c1.1-0.6,2.5-0.4,3.4,0.5l0.2,0.2c3.1,2.9,7.2,4.6,11.4,4.6v1.8
	c-4.7,0-9.2-1.8-12.6-5.1l-0.2-0.2c-0.4-0.4-1.1-0.4-1.5,0c-0.3,0.3-0.4,0.8-0.2,1.3c0,0.1,0.1,0.2,0.2,0.3l0.1,0.1l2.5,3.4
	c0.6,1,0.2,2.3-0.8,2.9l-7.7,4.2c-0.5,0.3-0.6,1-0.3,1.5c0.3,0.4,0.8,0.6,1.3,0.4l0.8,1.6c-0.2,0.1-0.4,0.4-0.5,0.6
	c-0.1,0.3-0.1,0.6,0.1,0.8c0.3,0.5,0.9,0.7,1.4,0.4l0.8-0.5l0,0l0.8,1.6c-0.2,0.1-0.4,0.4-0.5,0.6c-0.1,0.3-0.1,0.6,0.1,0.8
	c0.3,0.5,0.9,0.7,1.4,0.4l2.2-1.2l-0.8,2.2c-0.1,0.3-0.1,0.6,0.1,0.8c0.2,0.3,0.4,0.5,0.8,0.5c0.5,0,0.9-0.1,1.3-0.3
	c1.4-0.5,2.8-1.1,4.1-1.9c4.1-2.2,7.7-5.3,10.5-8.9l1.4,1.1c-3,3.9-6.8,7.1-11.1,9.4c-1.4,0.8-2.8,1.4-4.3,2
	C262.5,39.8,261.9,39.9,261.3,39.9z"/>
</svg>
