<svg xmlns="http://www.w3.org/2000/svg" viewBox="0 0 339.85 220.62"><defs><style>.cls-1{fill:#00c4d5;}.cls-2{fill:#737378;}</style></defs><title>salaries</title><g id="Calque_2" data-name="Calque 2"><g id="_0" data-name="0"><path class="cls-1" d="M94.49,19.6v-.34c0-.58.19-.87.58-.87h5.05V2.75L95,3.62c-.17,0-.31-.16-.42-.49a3.25,3.25,0,0,1-.16-.94.6.6,0,0,1,.52-.59L101.65.12a1.15,1.15,0,0,1,.63.17.51.51,0,0,1,.27.44V18.39h4.29c.39,0,.58.29.58.87v.34c0,.58-.19.87-.58.87H95.07C94.68,20.47,94.49,20.18,94.49,19.6Z"/><path class="cls-1" d="M110.06,19a1.66,1.66,0,0,1,.38-.93c.25-.35.46-.53.64-.53l1.53.51a8.74,8.74,0,0,0,2.77.51,6.45,6.45,0,0,0,2.15-.32A3.46,3.46,0,0,0,119.12,17a3.89,3.89,0,0,0,.72-2.42,3.55,3.55,0,0,0-1.12-3,5.18,5.18,0,0,0-3.23-.87h-1c-.39,0-.58-.29-.58-.87V9.54c0-.58.19-.87.58-.87h.84a3.43,3.43,0,0,0,2.93-1.22A4,4,0,0,0,119.23,5a3,3,0,0,0-.79-2.08,3.48,3.48,0,0,0-2.66-.85,8.28,8.28,0,0,0-3.54.69,1.82,1.82,0,0,1-.64.26c-.16,0-.35-.19-.6-.57a2,2,0,0,1-.36-.93q0-.62,1.83-1.08A14.21,14.21,0,0,1,115.83,0a6.56,6.56,0,0,1,4.27,1.31,4.65,4.65,0,0,1,1.59,3.82,3.78,3.78,0,0,1-.85,2.47,5.17,5.17,0,0,1-2.14,1.54v.11a4.75,4.75,0,0,1,2.56,1.8,5.23,5.23,0,0,1,1.1,3.28,6.94,6.94,0,0,1-.6,3.07,4.83,4.83,0,0,1-1.58,1.91,7.33,7.33,0,0,1-4.3,1.34,13.74,13.74,0,0,1-4.11-.54Q110.06,19.57,110.06,19Z"/><path class="cls-2" d="M132,14.14q0-6.41,6-6.41a8.91,8.91,0,0,1,2.54.36q1.23.36,1.23.9a2.15,2.15,0,0,1-.43,1c-.28.44-.53.65-.74.65a1.87,1.87,0,0,1-.38-.14,5.38,5.38,0,0,0-2.27-.43q-3.12,0-3.12,4.07T138,18.26a5.94,5.94,0,0,0,2.49-.54,2,2,0,0,1,.47-.18c.25,0,.49.21.71.62a2.27,2.27,0,0,1,.35.95c0,.48-.45.85-1.33,1.11a9.23,9.23,0,0,1-2.69.4A5.81,5.81,0,0,1,133.49,19Q132,17.46,132,14.14Z"/><path class="cls-2" d="M145.4,19a6.9,6.9,0,0,1-1.5-4.78,6.89,6.89,0,0,1,1.5-4.77,6.32,6.32,0,0,1,8.56,0,6.93,6.93,0,0,1,1.48,4.77A7,7,0,0,1,154,19a6.32,6.32,0,0,1-8.56,0Zm2.09-1.73a2.54,2.54,0,0,0,2.19,1,2.51,2.51,0,0,0,2.18-1,5.28,5.28,0,0,0,.74-3,5.21,5.21,0,0,0-.74-3,2.5,2.5,0,0,0-2.18-1,2.53,2.53,0,0,0-2.19,1,5.21,5.21,0,0,0-.74,3A5.28,5.28,0,0,0,147.49,17.22Z"/><path class="cls-2" d="M158.21,19.93V8.41q0-.57,1.08-.57h.78a1.32,1.32,0,0,1,1.18.48L166,15.61V8.41q0-.57,1.08-.57h.52q1.08,0,1.08.57V19.93c0,.39-.36.58-1.08.58h-.68a1.3,1.3,0,0,1-1.19-.49l-4.83-7.38v7.29c0,.39-.35.58-1.08.58h-.52C158.57,20.51,158.21,20.32,158.21,19.93Z"/><path class="cls-2" d="M171,19a1.9,1.9,0,0,1,.41-1c.28-.4.51-.6.7-.6a1.41,1.41,0,0,1,.47.2,4.44,4.44,0,0,0,2.18.63c1.13,0,1.69-.44,1.69-1.31a1.19,1.19,0,0,0-.54-1,5.86,5.86,0,0,0-1.3-.69,15.72,15.72,0,0,1-1.52-.68,3.45,3.45,0,0,1-1.3-1.2,3.56,3.56,0,0,1-.54-2,3.35,3.35,0,0,1,.65-2.08,4.2,4.2,0,0,1,3.62-1.57,5.78,5.78,0,0,1,2.3.4c.62.26.94.55.94.86a2.16,2.16,0,0,1-.34,1c-.23.39-.45.59-.65.59a1.26,1.26,0,0,1-.33-.13,3.94,3.94,0,0,0-1.66-.32,2,2,0,0,0-1.32.32,1.07,1.07,0,0,0-.37.81,1.05,1.05,0,0,0,.55.86,5.57,5.57,0,0,0,1.29.67,15.46,15.46,0,0,1,1.52.68,3.36,3.36,0,0,1,1.31,1.19,3.42,3.42,0,0,1,.54,1.94A4.81,4.81,0,0,1,179,18.5a3,3,0,0,1-1,1.25,4.78,4.78,0,0,1-2.91.87,7.27,7.27,0,0,1-2.9-.52C171.42,19.75,171,19.39,171,19Z"/><path class="cls-2" d="M181.59,19.75V8.59a.64.64,0,0,1,.72-.72h6.59q.54,0,.54.9v.56q0,.9-.54.9h-4.53v2.61h4q.54,0,.54.9v.56q0,.9-.54.9h-4v2.92h4.55q.54,0,.54.9v.55q0,.9-.54.9h-6.61A.64.64,0,0,1,181.59,19.75Z"/><path class="cls-2" d="M192,19.93V8.41c0-.39.36-.59,1.08-.59h.63c.72,0,1.08.2,1.08.59V19.93q0,.6-1.08.6h-.63Q192,20.53,192,19.93Z"/><path class="cls-2" d="M197.94,19.75V8.41q0-.57,1.08-.57h.61q1.08,0,1.08.57v9.71h4q.54,0,.54.9v.55q0,.9-.54.9h-6.06A.64.64,0,0,1,197.94,19.75Z"/><path class="cls-2" d="M207.37,19.75V8.41q0-.57,1.08-.57h.61q1.08,0,1.08.57v9.71h4q.54,0,.54.9v.55q0,.9-.54.9h-6.07A.64.64,0,0,1,207.37,19.75Z"/><path class="cls-2" d="M216.8,19.75V8.59a.64.64,0,0,1,.72-.72h6.59q.54,0,.54.9v.56q0,.9-.54.9h-4.54v2.61h4.05q.54,0,.54.9v.56q0,.9-.54.9h-4.05v2.92h4.56q.54,0,.54.9v.55q0,.9-.54.9h-6.61A.64.64,0,0,1,216.8,19.75Z"/><path class="cls-2" d="M227.35,19.93V8.59a.64.64,0,0,1,.72-.72h3.51q4.48,0,4.48,3.39A2.84,2.84,0,0,1,235.5,13,3.38,3.38,0,0,1,234,14.12v.07a1.84,1.84,0,0,1,.7.6,4.37,4.37,0,0,1,.59,1.06l1.59,4a1.06,1.06,0,0,1,.09.34q0,.36-1.08.36h-.74c-.6,0-1-.13-1.05-.38l-1.42-3.51a2.16,2.16,0,0,0-.66-.83,2,2,0,0,0-1.16-.25h-.7v4.39c0,.39-.36.58-1.08.58h-.61C227.71,20.51,227.35,20.32,227.35,19.93Zm2.77-6.78h1.71a1.27,1.27,0,0,0,1-.45,1.53,1.53,0,0,0,.42-1.09,1.3,1.3,0,0,0-.41-1,1.61,1.61,0,0,0-1.1-.37h-1.59Z"/><path class="cls-2" d="M238.2,19a1.85,1.85,0,0,1,.42-1c.27-.4.51-.6.7-.6a1.5,1.5,0,0,1,.47.2,4.41,4.41,0,0,0,2.18.63c1.12,0,1.69-.44,1.69-1.31a1.19,1.19,0,0,0-.54-1,6,6,0,0,0-1.31-.69,15.72,15.72,0,0,1-1.52-.68A3.5,3.5,0,0,1,239,13.4a3.56,3.56,0,0,1-.54-2,3.34,3.34,0,0,1,.64-2.08,4.21,4.21,0,0,1,3.62-1.57,5.87,5.87,0,0,1,2.31.4c.62.26.93.55.93.86a2,2,0,0,1-.34,1c-.23.39-.44.59-.65.59a1.25,1.25,0,0,1-.32-.13,4,4,0,0,0-1.67-.32,2,2,0,0,0-1.31.32,1,1,0,0,0-.37.81,1.06,1.06,0,0,0,.54.86,5.45,5.45,0,0,0,1.3.67,15.46,15.46,0,0,1,1.52.68,3.34,3.34,0,0,1,1.3,1.19,3.42,3.42,0,0,1,.54,1.94,4.81,4.81,0,0,1-.35,1.92,2.92,2.92,0,0,1-1,1.25,4.81,4.81,0,0,1-2.92.87,7.27,7.27,0,0,1-2.9-.52C238.59,19.75,238.2,19.39,238.2,19Z"/><path class="cls-1" d="M74.82,58.91A1.68,1.68,0,0,1,75.2,58c.25-.35.46-.52.64-.52l1.45.55a8.43,8.43,0,0,0,3.11.55,4.44,4.44,0,0,0,3-1.12,3.85,3.85,0,0,0,1.31-3.1,3.57,3.57,0,0,0-1.33-3,6.33,6.33,0,0,0-3.89-1H77a.77.77,0,0,1-.63-.2,1,1,0,0,1-.18-.67l.5-8.41a.8.8,0,0,1,.92-.87h7.72c.38,0,.58.29.58.87v.35c0,.58-.2.87-.58.87h-6.3l-.37,6h1.51a8.74,8.74,0,0,1,4.66,1.27,4.59,4.59,0,0,1,1.72,1.87,6.48,6.48,0,0,1,.63,3,7.07,7.07,0,0,1-.61,3,4.44,4.44,0,0,1-1.65,2,8,8,0,0,1-4.46,1.28,12.24,12.24,0,0,1-4.08-.57C75.35,59.71,74.82,59.31,74.82,58.91Z"/><path class="cls-2" d="M94.82,54.14q0-6.41,6-6.41a8.91,8.91,0,0,1,2.54.36q1.23.36,1.23.9a2.05,2.05,0,0,1-.43,1c-.28.44-.53.65-.74.65a1.87,1.87,0,0,1-.38-.14,5.38,5.38,0,0,0-2.27-.43c-2.08,0-3.11,1.36-3.11,4.07s1,4.08,3.07,4.08a5.94,5.94,0,0,0,2.49-.54,2,2,0,0,1,.47-.18c.25,0,.49.21.72.62a2.36,2.36,0,0,1,.34,1c0,.48-.45.85-1.33,1.11a9.23,9.23,0,0,1-2.69.4A5.81,5.81,0,0,1,96.27,59Q94.82,57.47,94.82,54.14Z"/><path class="cls-2" d="M107.39,59.93V48.41c0-.38.36-.57,1.07-.57h.64q1.08,0,1.08.57v4.45H115V48.41q0-.57,1.08-.57h.63c.71,0,1.08.19,1.08.57V59.93c0,.39-.37.58-1.08.58h-.63c-.72,0-1.08-.19-1.08-.58V55.24h-4.86v4.69c0,.39-.36.58-1.08.58h-.64C107.75,60.51,107.39,60.32,107.39,59.93Z"/><path class="cls-2" d="M119.79,60.11a1.53,1.53,0,0,1,.07-.32l4-11.57c.1-.26.44-.38,1-.38h.93c.59,0,.93.12,1,.38l4,11.57a1.39,1.39,0,0,1,0,.32c0,.27-.3.4-.9.4h-.79c-.59,0-.92-.13-1-.38l-.72-2.19h-4.25l-.72,2.19c-.08.25-.36.38-.82.38h-.72C120.15,60.51,119.79,60.38,119.79,60.11Zm4.14-4.55h2.7l-1-3.2-.27-1.16h-.07a10.53,10.53,0,0,1-.27,1.16Z"/><path class="cls-2" d="M132.78,59.93V48.59a.64.64,0,0,1,.72-.72H137q4.49,0,4.49,3.39a2.78,2.78,0,0,1-.57,1.75,3.32,3.32,0,0,1-1.54,1.11v.07a1.77,1.77,0,0,1,.7.6,4.77,4.77,0,0,1,.6,1.06l1.58,4a1.06,1.06,0,0,1,.09.34q0,.36-1.08.36h-.74c-.6,0-.95-.13-1-.38l-1.42-3.51a2.36,2.36,0,0,0-.66-.83,2,2,0,0,0-1.16-.25h-.71v4.39c0,.39-.35.58-1.08.58h-.61C133.14,60.51,132.78,60.32,132.78,59.93Zm2.77-6.78h1.72a1.29,1.29,0,0,0,1-.45,1.57,1.57,0,0,0,.41-1.09,1.3,1.3,0,0,0-.4-1,1.62,1.62,0,0,0-1.11-.37h-1.59Z"/><path class="cls-2" d="M144.05,54.14q0-6.41,6-6.41a9.11,9.11,0,0,1,2.59.37c.84.25,1.26.54,1.26.89a2.11,2.11,0,0,1-.42,1c-.28.44-.53.65-.75.65a2.82,2.82,0,0,1-.39-.14,5.78,5.78,0,0,0-2.34-.43q-3.12,0-3.12,4.07T150,58.26a7.32,7.32,0,0,0,1.41-.13V55.85h-1.59q-.54,0-.54-.9v-.58q0-.9.54-.9h3.66a.64.64,0,0,1,.72.72v5a.89.89,0,0,1-.46.73,3.09,3.09,0,0,1-1.18.44,14.13,14.13,0,0,1-2.56.25A5.79,5.79,0,0,1,145.5,59Q144,57.47,144.05,54.14Z"/><path class="cls-2" d="M157.3,59.75V48.59a.64.64,0,0,1,.72-.72h6.59q.54,0,.54.9v.56q0,.9-.54.9h-4.54v2.61h4.05q.54,0,.54.9v.56q0,.9-.54.9h-4.05v2.92h4.55q.54,0,.54.9v.55q0,.9-.54.9H158A.64.64,0,0,1,157.3,59.75Zm3.2-13.23c-.37,0-.56-.09-.56-.27a1.24,1.24,0,0,1,.27-.57c.17-.27.33-.52.47-.78s.29-.5.43-.75.66-.49,1.44-.49,1.17.09,1.17.25a.45.45,0,0,1-.1.26c-.08.09-.22.25-.44.47s-.36.38-.45.47l-.37.41-.51.55A1.74,1.74,0,0,1,160.5,46.52Z"/><path class="cls-2" d="M167,59a1.9,1.9,0,0,1,.41-1c.28-.4.51-.6.71-.6a1.48,1.48,0,0,1,.46.2,4.44,4.44,0,0,0,2.18.63c1.13,0,1.69-.44,1.69-1.31a1.19,1.19,0,0,0-.54-1,5.86,5.86,0,0,0-1.3-.69,15.72,15.72,0,0,1-1.52-.68,3.45,3.45,0,0,1-1.3-1.2,3.56,3.56,0,0,1-.54-2,3.35,3.35,0,0,1,.65-2.08,4.21,4.21,0,0,1,3.62-1.57,5.78,5.78,0,0,1,2.3.4c.63.26.94.55.94.86a2.16,2.16,0,0,1-.34,1c-.23.39-.45.59-.65.59a1.26,1.26,0,0,1-.33-.13,3.94,3.94,0,0,0-1.66-.32,2,2,0,0,0-1.32.32,1,1,0,0,0,.18,1.67,5.57,5.57,0,0,0,1.29.67,14.47,14.47,0,0,1,1.52.68,3.36,3.36,0,0,1,1.31,1.19,3.42,3.42,0,0,1,.54,1.94A4.81,4.81,0,0,1,175,58.5a3,3,0,0,1-1,1.25,4.78,4.78,0,0,1-2.91.87,7.27,7.27,0,0,1-2.9-.52C167.39,59.75,167,59.39,167,59Z"/><path class="cls-2" d="M182.61,59.75V48.59a.64.64,0,0,1,.72-.72h4a5.5,5.5,0,0,1,4.27,1.63,6.72,6.72,0,0,1,1.49,4.67,6.73,6.73,0,0,1-1.49,4.68,5.5,5.5,0,0,1-4.27,1.62h-4A.64.64,0,0,1,182.61,59.75Zm2.79-1.63h2a2.55,2.55,0,0,0,2.18-1,4.94,4.94,0,0,0,.73-2.94,4.93,4.93,0,0,0-.73-2.93,2.55,2.55,0,0,0-2.18-1h-2Z"/><path class="cls-2" d="M197.77,49.61a6.09,6.09,0,0,1-1,1.64c-.39.41-.7.62-.93.62a1.57,1.57,0,0,1-.6-.1c-.18-.06-.26-.16-.26-.29a2,2,0,0,1,.19-.65,7.93,7.93,0,0,0,.6-3.19c0-.53.36-.79,1.08-.79h.34c.72,0,1.08.26,1.08.79A4.71,4.71,0,0,1,197.77,49.61Z"/><path class="cls-2" d="M200.37,59.75V48.59a.64.64,0,0,1,.72-.72h6.59q.54,0,.54.9v.56q0,.9-.54.9h-4.54v2.61h4.05q.54,0,.54.9v.56q0,.9-.54.9h-4.05v2.92h4.56q.54,0,.54.9v.55q0,.9-.54.9h-6.61A.64.64,0,0,1,200.37,59.75Zm3.21-13.23c-.38,0-.56-.09-.56-.27a1.19,1.19,0,0,1,.26-.57c.17-.27.33-.52.48-.78s.28-.5.43-.75.66-.49,1.44-.49,1.17.09,1.17.25a.47.47,0,0,1-.11.26c-.07.09-.22.25-.43.47l-.45.47-.38.41-.5.55A1.77,1.77,0,0,1,203.58,46.52Z"/><path class="cls-2" d="M213.22,59.93v-9.7h-2.86q-.54,0-.54-.9v-.56q0-.9.54-.9h8.52q.54,0,.54.9v.56q0,.9-.54.9H216v9.7c0,.39-.36.58-1.08.58h-.63C213.58,60.51,213.22,60.32,213.22,59.93Z"/><path class="cls-2" d="M221.47,56.26V48.41q0-.57,1.08-.57h.61q1.08,0,1.08.57v7.67a2,2,0,0,0,.68,1.57,2.87,2.87,0,0,0,3.54,0,2,2,0,0,0,.69-1.57V48.41q0-.57,1.08-.57h.6q1.08,0,1.08.57v7.85a4,4,0,0,1-1.37,3.22,7.09,7.09,0,0,1-7.71,0A4,4,0,0,1,221.47,56.26Z"/><path class="cls-2" d="M235.06,59.75V48.59a.64.64,0,0,1,.72-.72h4a5.5,5.5,0,0,1,4.27,1.63,6.72,6.72,0,0,1,1.49,4.67,6.73,6.73,0,0,1-1.49,4.68,5.5,5.5,0,0,1-4.27,1.62h-4A.64.64,0,0,1,235.06,59.75Zm2.79-1.63h2a2.55,2.55,0,0,0,2.18-1,4.94,4.94,0,0,0,.73-2.94,4.93,4.93,0,0,0-.73-2.93,2.55,2.55,0,0,0-2.18-1h-2Z"/><path class="cls-2" d="M248.29,59.75V48.59a.64.64,0,0,1,.72-.72h6.58c.37,0,.54.3.54.9v.56c0,.6-.17.9-.54.9h-4.53v2.61h4.05q.54,0,.54.9v.56q0,.9-.54.9h-4.05v2.92h4.55q.54,0,.54.9v.55q0,.9-.54.9H249A.64.64,0,0,1,248.29,59.75Z"/><path class="cls-2" d="M258,59a1.9,1.9,0,0,1,.41-1c.28-.4.51-.6.7-.6a1.41,1.41,0,0,1,.47.2,4.44,4.44,0,0,0,2.18.63c1.13,0,1.69-.44,1.69-1.31a1.19,1.19,0,0,0-.54-1,5.86,5.86,0,0,0-1.3-.69,15.72,15.72,0,0,1-1.52-.68,3.45,3.45,0,0,1-1.3-1.2,3.56,3.56,0,0,1-.54-2,3.35,3.35,0,0,1,.65-2.08,4.2,4.2,0,0,1,3.62-1.57,5.78,5.78,0,0,1,2.3.4c.62.26.94.55.94.86a2.08,2.08,0,0,1-.35,1c-.22.39-.44.59-.64.59a1.26,1.26,0,0,1-.33-.13,3.94,3.94,0,0,0-1.66-.32,2,2,0,0,0-1.32.32,1,1,0,0,0,.17,1.67,5.65,5.65,0,0,0,1.3.67,15.46,15.46,0,0,1,1.52.68,3.36,3.36,0,0,1,1.31,1.19,3.42,3.42,0,0,1,.54,1.94,4.81,4.81,0,0,1-.35,1.92,3,3,0,0,1-1,1.25,4.78,4.78,0,0,1-2.91.87,7.23,7.23,0,0,1-2.9-.52C258.38,59.75,258,59.39,258,59Z"/><path class="cls-1" d="M24.64,100.07a2,2,0,0,1-.18-.83c0-.28,0-.46.12-.53q1.25-1.58,4.5-5.62c2.16-2.69,3.53-4.48,4.1-5.35A4.83,4.83,0,0,0,34,85.07a2.69,2.69,0,0,0-1-2.17,3.58,3.58,0,0,0-2.39-.81,6.67,6.67,0,0,0-2.39.37,8.64,8.64,0,0,0-1.52.74,1.86,1.86,0,0,1-.73.37q-.16,0-.54-.57a1.87,1.87,0,0,1-.36-.88c0-.56.62-1.06,1.84-1.48A10.32,10.32,0,0,1,30.35,80a7.06,7.06,0,0,1,4.51,1.32,4.36,4.36,0,0,1,1.67,3.61A6.37,6.37,0,0,1,36,87.58a14.39,14.39,0,0,1-1.65,2.69c-.74,1-2.23,2.84-4.45,5.56l-2.12,2.59h8.35c.39,0,.58.29.58.86v.32c0,.58-.19.87-.58.87H25C24.89,100.47,24.76,100.34,24.64,100.07Z"/><path class="cls-2" d="M44.35,94.14q0-6.4,6-6.41a9,9,0,0,1,2.54.36c.82.24,1.22.54,1.22.9a2.11,2.11,0,0,1-.42,1c-.28.44-.53.65-.74.65a1.87,1.87,0,0,1-.38-.14,5.38,5.38,0,0,0-2.27-.43c-2.08,0-3.11,1.35-3.11,4.07s1,4.08,3.07,4.08a6,6,0,0,0,2.49-.54,2.22,2.22,0,0,1,.46-.18c.26,0,.5.21.73.62a2.32,2.32,0,0,1,.34,1c0,.48-.45.85-1.33,1.11a9.23,9.23,0,0,1-2.69.4A5.81,5.81,0,0,1,45.8,99Q44.35,97.46,44.35,94.14Z"/><path class="cls-2" d="M56.91,99.93V88.41q0-.57,1.08-.57h.63q1.08,0,1.08.57v4.45h4.86V88.41q0-.57,1.08-.57h.63q1.08,0,1.08.57V99.93c0,.39-.36.58-1.08.58h-.63c-.72,0-1.08-.19-1.08-.58V95.24H59.7v4.69c0,.39-.36.58-1.08.58H58C57.27,100.51,56.91,100.32,56.91,99.93Z"/><path class="cls-2" d="M69.32,100.11a1.53,1.53,0,0,1,.07-.32l4-11.57c.09-.26.44-.38,1-.38h.93c.59,0,.93.12,1,.38l4,11.57a1.39,1.39,0,0,1,0,.32c0,.27-.3.4-.9.4h-.79c-.59,0-.93-.13-1-.38l-.72-2.19H72.68L72,100.13c-.08.25-.36.38-.83.38h-.72C69.68,100.51,69.32,100.38,69.32,100.11Zm4.14-4.55h2.7l-1-3.2-.27-1.16h-.07a10.53,10.53,0,0,1-.27,1.16Z"/><path class="cls-2" d="M82.31,99.93V88.59a.64.64,0,0,1,.72-.72h3.51q4.48,0,4.48,3.39A2.86,2.86,0,0,1,90.46,93a3.32,3.32,0,0,1-1.54,1.11v.07a1.77,1.77,0,0,1,.7.6,4.37,4.37,0,0,1,.59,1.06l1.59,4a1.06,1.06,0,0,1,.09.34q0,.36-1.08.36h-.74c-.6,0-.95-.13-1-.38L87.6,96.62a2.38,2.38,0,0,0-.65-.84,2.13,2.13,0,0,0-1.16-.24h-.71v4.39c0,.39-.36.58-1.08.58h-.61C82.67,100.51,82.31,100.32,82.31,99.93Zm2.77-6.78h1.71a1.29,1.29,0,0,0,1-.45,1.57,1.57,0,0,0,.41-1.09,1.33,1.33,0,0,0-.4-1,1.58,1.58,0,0,0-1.11-.37H85.08Z"/><path class="cls-2" d="M93.58,94.14q0-6.4,6-6.41a9,9,0,0,1,2.58.37c.85.24,1.27.54,1.27.89a2.11,2.11,0,0,1-.42,1c-.28.44-.53.65-.75.65a2.82,2.82,0,0,1-.39-.14,5.78,5.78,0,0,0-2.34-.43c-2.08,0-3.12,1.35-3.12,4.07s1,4.08,3.08,4.08a7.32,7.32,0,0,0,1.41-.13V95.85H99.32q-.54,0-.54-.9v-.58q0-.9.54-.9H103a.64.64,0,0,1,.72.72v5a.89.89,0,0,1-.46.73,3.09,3.09,0,0,1-1.18.44,14.13,14.13,0,0,1-2.56.25A5.79,5.79,0,0,1,95,99Q93.58,97.46,93.58,94.14Z"/><path class="cls-2" d="M106.83,99.75V88.59a.64.64,0,0,1,.72-.72h6.58c.37,0,.55.3.55.9v.56c0,.6-.18.9-.55.9H109.6v2.61h4.05q.54,0,.54.9v.56q0,.9-.54.9H109.6v2.92h4.55q.54,0,.54.9v.55q0,.9-.54.9h-6.6A.64.64,0,0,1,106.83,99.75ZM110,86.52c-.37,0-.56-.09-.56-.27a1.3,1.3,0,0,1,.26-.57c.18-.27.34-.52.48-.78s.29-.5.43-.75.66-.49,1.44-.49,1.17.09,1.17.25a.45.45,0,0,1-.1.26c-.08.09-.22.25-.44.47s-.36.38-.45.47l-.38.41c-.16.19-.33.37-.5.55A1.74,1.74,0,0,1,110,86.52Z"/><path class="cls-2" d="M116.53,99a1.9,1.9,0,0,1,.41-1c.28-.4.51-.6.71-.6a1.48,1.48,0,0,1,.46.2,4.44,4.44,0,0,0,2.18.63c1.13,0,1.69-.44,1.69-1.31a1.19,1.19,0,0,0-.54-1,5.86,5.86,0,0,0-1.3-.69c-.51-.2-1-.43-1.52-.68a3.45,3.45,0,0,1-1.3-1.2,3.58,3.58,0,0,1-.54-2,3.35,3.35,0,0,1,.65-2.08,4.21,4.21,0,0,1,3.62-1.57,5.78,5.78,0,0,1,2.3.4c.62.26.94.55.94.86a2.16,2.16,0,0,1-.34,1c-.23.39-.45.59-.65.59a1.26,1.26,0,0,1-.33-.13,3.94,3.94,0,0,0-1.66-.32,2,2,0,0,0-1.32.32,1.07,1.07,0,0,0-.37.81,1.05,1.05,0,0,0,.55.86,5.57,5.57,0,0,0,1.29.67c.5.19,1,.42,1.52.67a3.47,3.47,0,0,1,1.31,1.2,3.42,3.42,0,0,1,.54,1.94,4.81,4.81,0,0,1-.35,1.92,3,3,0,0,1-1,1.25,4.78,4.78,0,0,1-2.91.87,7.27,7.27,0,0,1-2.9-.52C116.92,99.75,116.53,99.39,116.53,99Z"/><path class="cls-2" d="M132.13,99.75V88.59a.64.64,0,0,1,.73-.72h4a5.5,5.5,0,0,1,4.27,1.63,8.06,8.06,0,0,1,0,9.34,5.47,5.47,0,0,1-4.27,1.63h-4A.64.64,0,0,1,132.13,99.75Zm2.8-1.63h2a2.52,2.52,0,0,0,2.17-1,6.19,6.19,0,0,0,0-5.87,2.52,2.52,0,0,0-2.17-1h-2Z"/><path class="cls-2" d="M145.37,99.75V88.59a.63.63,0,0,1,.71-.72h6.59q.54,0,.54.9v.56q0,.9-.54.9h-4.53v2.61h4.05q.54,0,.54.9v.56q0,.9-.54.9h-4.05v2.92h4.55q.54,0,.54.9v.55q0,.9-.54.9h-6.61A.63.63,0,0,1,145.37,99.75Z"/><path class="cls-2" d="M160.52,94.14q0-6.4,6-6.41a9,9,0,0,1,2.54.36c.82.24,1.22.54,1.22.9a2.11,2.11,0,0,1-.42,1c-.28.44-.53.65-.75.65a2.19,2.19,0,0,1-.37-.14,5.38,5.38,0,0,0-2.27-.43c-2.08,0-3.12,1.35-3.12,4.07s1,4.08,3.08,4.08a6,6,0,0,0,2.49-.54,2.22,2.22,0,0,1,.46-.18c.26,0,.5.21.72.62a2.22,2.22,0,0,1,.35,1c0,.48-.45.85-1.34,1.11a9.12,9.12,0,0,1-2.68.4A5.81,5.81,0,0,1,162,99Q160.51,97.46,160.52,94.14Z"/><path class="cls-2" d="M173.88,99a8.37,8.37,0,0,1,0-9.56,6.33,6.33,0,0,1,8.55,0,8.41,8.41,0,0,1,0,9.56,6.31,6.31,0,0,1-8.55,0ZM176,97.22a2.54,2.54,0,0,0,2.19,1,2.51,2.51,0,0,0,2.18-1,5.28,5.28,0,0,0,.74-3,5.21,5.21,0,0,0-.74-3,2.5,2.5,0,0,0-2.18-1,2.53,2.53,0,0,0-2.19,1,5.13,5.13,0,0,0-.74,3A5.2,5.2,0,0,0,176,97.22Z"/><path class="cls-2" d="M186.69,99.93V88.41q0-.57,1.08-.57h1a1.19,1.19,0,0,1,1.13.48L193,94l3.2-5.64a1.2,1.2,0,0,1,1.14-.48h.93q1.08,0,1.08.57V99.93c0,.39-.36.58-1.08.58h-.52c-.72,0-1.08-.19-1.08-.58V92.48l-.07,0L194,97.13a.86.86,0,0,1-.72.34h-.52a.84.84,0,0,1-.72-.34l-2.61-4.67-.08,0v7.45c0,.39-.36.58-1.08.58h-.52C187.05,100.51,186.69,100.32,186.69,99.93Z"/><path class="cls-2" d="M202.59,99.93V88.41q0-.57,1.08-.57h1a1.18,1.18,0,0,1,1.13.48L208.92,94l3.2-5.64a1.2,1.2,0,0,1,1.14-.48h.94q1.08,0,1.08.57V99.93c0,.39-.36.58-1.08.58h-.53c-.72,0-1.08-.19-1.08-.58V92.48l-.07,0-2.61,4.67a.86.86,0,0,1-.72.34h-.52a.86.86,0,0,1-.72-.34l-2.61-4.67-.07,0v7.45c0,.39-.36.58-1.08.58h-.52C203,100.51,202.59,100.32,202.59,99.93Z"/><path class="cls-2" d="M218.43,96.26V88.41q0-.57,1.08-.57h.61q1.08,0,1.08.57v7.67a2,2,0,0,0,.68,1.57,2.87,2.87,0,0,0,3.54,0,2,2,0,0,0,.69-1.57V88.41q0-.57,1.08-.57h.6q1.08,0,1.08.57v7.85a4,4,0,0,1-1.37,3.21,7,7,0,0,1-7.71,0A4,4,0,0,1,218.43,96.26Z"/><path class="cls-2" d="M232,99.93V88.41q0-.57,1.08-.57h.77a1.34,1.34,0,0,1,1.19.48l4.73,7.29v-7.2q0-.57,1.08-.57h.52q1.08,0,1.08.57V99.93c0,.39-.36.58-1.08.58h-.68a1.32,1.32,0,0,1-1.19-.49l-4.82-7.38v7.29c0,.39-.36.58-1.08.58h-.52C232.38,100.51,232,100.32,232,99.93Z"/><path class="cls-2" d="M245.57,99.93V88.41c0-.39.36-.59,1.08-.59h.63c.72,0,1.08.2,1.08.59V99.93q0,.6-1.08.6h-.63Q245.57,100.53,245.57,99.93Z"/><path class="cls-2" d="M251,94.14q0-6.4,6-6.41a8.91,8.91,0,0,1,2.54.36q1.23.36,1.23.9a2.15,2.15,0,0,1-.43,1c-.28.44-.53.65-.74.65a1.87,1.87,0,0,1-.38-.14,5.38,5.38,0,0,0-2.27-.43c-2.08,0-3.12,1.35-3.12,4.07s1,4.08,3.08,4.08a5.94,5.94,0,0,0,2.49-.54,2,2,0,0,1,.47-.18c.25,0,.49.21.71.62a2.22,2.22,0,0,1,.35,1c0,.48-.45.85-1.33,1.11a9.23,9.23,0,0,1-2.69.4A5.81,5.81,0,0,1,252.49,99Q251,97.46,251,94.14Z"/><path class="cls-2" d="M262.09,100.11a2.86,2.86,0,0,1,.07-.32l4-11.57c.1-.26.44-.38,1-.38h.94c.58,0,.93.12,1,.38l4,11.57a1,1,0,0,1,.06.32c0,.27-.3.4-.9.4h-.8c-.58,0-.92-.13-1-.38l-.72-2.19h-4.25l-.72,2.19c-.09.25-.36.38-.83.38h-.72C262.46,100.51,262.09,100.38,262.09,100.11Zm4.14-4.55h2.7l-1-3.2-.27-1.16h-.08a7.24,7.24,0,0,1-.27,1.16Z"/><path class="cls-2" d="M277.39,99.93v-9.7h-2.86q-.54,0-.54-.9v-.56q0-.9.54-.9H283q.54,0,.54.9v.56q0,.9-.54.9h-2.86v9.7c0,.39-.36.58-1.08.58h-.63C277.75,100.51,277.39,100.32,277.39,99.93Z"/><path class="cls-2" d="M285.58,99.93V88.41c0-.39.36-.59,1.08-.59h.63c.72,0,1.08.2,1.08.59V99.93q0,.6-1.08.6h-.63Q285.58,100.53,285.58,99.93Z"/><path class="cls-2" d="M292.55,99a8.37,8.37,0,0,1,0-9.56,6.35,6.35,0,0,1,8.56,0,7,7,0,0,1,1.48,4.78A7,7,0,0,1,301.11,99a6.32,6.32,0,0,1-8.56,0Zm2.1-1.73a2.8,2.8,0,0,0,4.36,0,5.28,5.28,0,0,0,.74-3,5.21,5.21,0,0,0-.74-3,2.82,2.82,0,0,0-4.36,0,5.13,5.13,0,0,0-.75,3A5.2,5.2,0,0,0,294.65,97.22Z"/><path class="cls-2" d="M305.36,99.93V88.41q0-.57,1.08-.57h.78a1.35,1.35,0,0,1,1.19.48l4.73,7.29v-7.2q0-.57,1.08-.57h.52q1.08,0,1.08.57V99.93c0,.39-.36.58-1.08.58h-.68a1.32,1.32,0,0,1-1.19-.49l-4.82-7.38v7.29c0,.39-.36.58-1.08.58h-.53C305.72,100.51,305.36,100.32,305.36,99.93Z"/><path class="cls-1" d="M32.11,139.6v-.34c0-.58.19-.87.58-.87h5V122.75l-5.13.87c-.17,0-.31-.16-.42-.49a3,3,0,0,1-.16-.94.61.61,0,0,1,.52-.6l6.73-1.47a1.09,1.09,0,0,1,.62.17.5.5,0,0,1,.28.43v17.67h4.29c.39,0,.58.29.58.87v.34c0,.58-.19.87-.58.87H32.69C32.3,140.47,32.11,140.18,32.11,139.6Z"/><path class="cls-2" d="M51.81,139a1.85,1.85,0,0,1,.42-1c.27-.4.51-.6.7-.6a1.5,1.5,0,0,1,.47.2,4.4,4.4,0,0,0,2.17.63c1.13,0,1.7-.44,1.7-1.31a1.19,1.19,0,0,0-.54-1,6,6,0,0,0-1.31-.69c-.51-.2-1-.43-1.52-.68a3.52,3.52,0,0,1-1.3-1.2,3.58,3.58,0,0,1-.54-2,3.35,3.35,0,0,1,.65-2.08,4.21,4.21,0,0,1,3.62-1.57,5.78,5.78,0,0,1,2.3.4c.63.26.94.55.94.86a2,2,0,0,1-.34,1c-.23.39-.45.59-.65.59a1.12,1.12,0,0,1-.32-.13,4,4,0,0,0-1.67-.32,2,2,0,0,0-1.31.32,1,1,0,0,0-.37.81,1.06,1.06,0,0,0,.54.86,5.57,5.57,0,0,0,1.29.67c.51.19,1,.42,1.52.67a3.47,3.47,0,0,1,1.31,1.2,3.42,3.42,0,0,1,.54,1.94,4.81,4.81,0,0,1-.35,1.92,3,3,0,0,1-1,1.25,4.78,4.78,0,0,1-2.91.87,7.27,7.27,0,0,1-2.9-.52C52.2,139.75,51.81,139.39,51.81,139Z"/><path class="cls-2" d="M62.38,139.75V128.59a.64.64,0,0,1,.72-.72h6.59c.35,0,.53.3.53.9v.56c0,.6-.18.9-.53.9H65.15v2.61h4q.54,0,.54.9v.56q0,.9-.54.9h-4v2.92H69.7q.54,0,.54.9v.55q0,.9-.54.9H63.1A.64.64,0,0,1,62.38,139.75Z"/><path class="cls-2" d="M72.49,134.14q0-6.4,6-6.41a8.91,8.91,0,0,1,2.54.36q1.23.36,1.23.9a2.05,2.05,0,0,1-.43,1c-.28.44-.53.65-.74.65a2.13,2.13,0,0,1-.38-.14,5.35,5.35,0,0,0-2.27-.43c-2.07,0-3.11,1.35-3.11,4.07s1,4.08,3.08,4.08a5.93,5.93,0,0,0,2.48-.54,2,2,0,0,1,.47-.18c.25,0,.49.21.72.62a2.32,2.32,0,0,1,.34,1c0,.48-.45.85-1.33,1.11a9.21,9.21,0,0,1-2.68.4A5.81,5.81,0,0,1,73.94,139,7.08,7.08,0,0,1,72.49,134.14Z"/><path class="cls-2" d="M84.79,139.93V128.59a.64.64,0,0,1,.72-.72H89c3,0,4.48,1.13,4.48,3.39a2.8,2.8,0,0,1-.57,1.75,3.32,3.32,0,0,1-1.54,1.11v.07a1.77,1.77,0,0,1,.7.6,4.77,4.77,0,0,1,.6,1.06l1.58,4a1.06,1.06,0,0,1,.09.34q0,.36-1.08.36h-.74c-.6,0-.94-.13-1-.38l-1.42-3.51a2.39,2.39,0,0,0-.66-.84,2.11,2.11,0,0,0-1.16-.24h-.7v4.39c0,.39-.36.58-1.08.58h-.61C85.15,140.51,84.79,140.32,84.79,139.93Zm2.77-6.78h1.71a1.29,1.29,0,0,0,1-.45,1.53,1.53,0,0,0,.41-1.09,1.3,1.3,0,0,0-.4-1,1.57,1.57,0,0,0-1.11-.37H87.56Z"/><path class="cls-2" d="M96.49,139.75V128.59a.64.64,0,0,1,.72-.72h6.58q.54,0,.54.9v.56q0,.9-.54.9H99.26v2.61h4q.54,0,.54.9v.56q0,.9-.54.9h-4v2.92h4.55q.54,0,.54.9v.55q0,.9-.54.9h-6.6A.64.64,0,0,1,96.49,139.75Zm3.2-13.23c-.37,0-.56-.09-.56-.27a1.3,1.3,0,0,1,.26-.57c.18-.27.34-.52.48-.78l.43-.75c.18-.33.66-.49,1.44-.49s1.17.09,1.17.25a.41.41,0,0,1-.11.26,5.59,5.59,0,0,1-.43.47c-.21.23-.36.38-.45.47l-.38.41c-.16.19-.33.37-.5.55A1.77,1.77,0,0,1,99.69,126.52Z"/><path class="cls-2" d="M109.34,139.93v-9.7h-2.86q-.54,0-.54-.9v-.56q0-.9.54-.9H115q.54,0,.54.9v.56q0,.9-.54.9h-2.86v9.7c0,.39-.36.58-1.08.58h-.63C109.7,140.51,109.34,140.32,109.34,139.93Z"/><path class="cls-2" d="M116.39,140.11a1.93,1.93,0,0,1,.08-.32l4-11.57c.09-.26.43-.38,1-.38h.94c.59,0,.93.12,1,.38l4,11.57a1,1,0,0,1,.06.32c0,.27-.3.4-.9.4h-.79c-.59,0-.93-.13-1-.38l-.72-2.19h-4.25l-.72,2.19c-.08.25-.36.38-.83.38h-.72C116.76,140.51,116.39,140.38,116.39,140.11Zm4.14-4.55h2.7l-1-3.2-.27-1.16h-.07a10.53,10.53,0,0,1-.27,1.16Z"/><path class="cls-2" d="M129.28,139.93V128.41c0-.39.36-.59,1.08-.59H131c.72,0,1.08.2,1.08.59v11.52q0,.6-1.08.6h-.63Q129.28,140.53,129.28,139.93Z"/><path class="cls-2" d="M135.19,139.93V128.59a.64.64,0,0,1,.72-.72h3.51c3,0,4.48,1.13,4.48,3.39a2.8,2.8,0,0,1-.57,1.75,3.32,3.32,0,0,1-1.54,1.11v.07a1.77,1.77,0,0,1,.7.6,4.77,4.77,0,0,1,.6,1.06l1.58,4a1.06,1.06,0,0,1,.09.34q0,.36-1.08.36h-.74c-.6,0-.94-.13-1-.38l-1.42-3.51a2.51,2.51,0,0,0-.66-.84,2.11,2.11,0,0,0-1.16-.24H138v4.39c0,.39-.36.58-1.08.58h-.61C135.55,140.51,135.19,140.32,135.19,139.93Zm2.77-6.78h1.71a1.29,1.29,0,0,0,1-.45,1.53,1.53,0,0,0,.41-1.09,1.3,1.3,0,0,0-.4-1,1.57,1.57,0,0,0-1.11-.37H138Z"/><path class="cls-2" d="M146.89,139.75V128.59a.63.63,0,0,1,.72-.72h6.58q.54,0,.54.9v.56q0,.9-.54.9h-4.53v2.61h4.05q.54,0,.54.9v.56q0,.9-.54.9h-4.05v2.92h4.55q.54,0,.54.9v.55q0,.9-.54.9h-6.6A.63.63,0,0,1,146.89,139.75Z"/><path class="cls-2" d="M161.23,140.11a1.53,1.53,0,0,1,.07-.32l4-11.57c.1-.26.44-.38,1-.38h.93c.59,0,.93.12,1,.38l4,11.57a1,1,0,0,1,.06.32c0,.27-.31.4-.9.4h-.8c-.59,0-.92-.13-1-.38l-.72-2.19H164.6l-.72,2.19c-.09.25-.36.38-.83.38h-.72C161.6,140.51,161.23,140.38,161.23,140.11Zm4.14-4.55h2.7l-1-3.2-.26-1.16h-.08a10.53,10.53,0,0,1-.27,1.16Z"/><path class="cls-2" d="M174.23,139.75V128.59a.64.64,0,0,1,.72-.72h4a5.5,5.5,0,0,1,4.27,1.63,8.06,8.06,0,0,1,0,9.34,5.47,5.47,0,0,1-4.27,1.63h-4A.64.64,0,0,1,174.23,139.75Zm2.79-1.63h2a2.55,2.55,0,0,0,2.18-1,6.27,6.27,0,0,0,0-5.87,2.55,2.55,0,0,0-2.18-1h-2Z"/><path class="cls-2" d="M187.46,139.93V128.41q0-.57,1.08-.57h1a1.18,1.18,0,0,1,1.13.48l3.17,5.64,3.21-5.64a1.18,1.18,0,0,1,1.13-.48h.94q1.08,0,1.08.57v11.52c0,.39-.36.58-1.08.58h-.53c-.72,0-1.08-.19-1.08-.58v-7.45l-.07,0-2.61,4.67a.86.86,0,0,1-.72.34h-.52a.86.86,0,0,1-.72-.34l-2.61-4.67-.07,0v7.45c0,.39-.36.58-1.08.58h-.52C187.82,140.51,187.46,140.32,187.46,139.93Z"/><path class="cls-2" d="M203.24,139.93V128.41c0-.39.36-.59,1.08-.59H205c.72,0,1.08.2,1.08.59v11.52q0,.6-1.08.6h-.63Q203.24,140.53,203.24,139.93Z"/><path class="cls-2" d="M209.15,139.93V128.41q0-.57,1.08-.57H211a1.34,1.34,0,0,1,1.19.48l4.73,7.29v-7.2q0-.57,1.08-.57h.52q1.08,0,1.08.57v11.52c0,.39-.36.58-1.08.58h-.68a1.32,1.32,0,0,1-1.19-.49l-4.82-7.38v7.29c0,.39-.36.58-1.08.58h-.52C209.51,140.51,209.15,140.32,209.15,139.93Z"/><path class="cls-2" d="M222.7,139.93V128.41c0-.39.36-.59,1.08-.59h.63c.72,0,1.08.2,1.08.59v11.52q0,.6-1.08.6h-.63Q222.7,140.53,222.7,139.93Z"/><path class="cls-2" d="M227.76,139a1.9,1.9,0,0,1,.41-1c.28-.4.51-.6.71-.6a1.48,1.48,0,0,1,.46.2,4.44,4.44,0,0,0,2.18.63c1.13,0,1.69-.44,1.69-1.31a1.19,1.19,0,0,0-.54-1,5.86,5.86,0,0,0-1.3-.69c-.51-.2-1-.43-1.52-.68a3.45,3.45,0,0,1-1.3-1.2,3.58,3.58,0,0,1-.54-2,3.35,3.35,0,0,1,.65-2.08,4.2,4.2,0,0,1,3.62-1.57,5.78,5.78,0,0,1,2.3.4c.62.26.94.55.94.86a2.08,2.08,0,0,1-.35,1c-.22.39-.44.59-.64.59a1.26,1.26,0,0,1-.33-.13,3.94,3.94,0,0,0-1.66-.32,2,2,0,0,0-1.32.32,1,1,0,0,0,.17,1.67,5.65,5.65,0,0,0,1.3.67c.5.19,1,.42,1.52.67a3.47,3.47,0,0,1,1.31,1.2,3.42,3.42,0,0,1,.54,1.94,4.81,4.81,0,0,1-.35,1.92,3,3,0,0,1-1,1.25,4.78,4.78,0,0,1-2.91.87,7.23,7.23,0,0,1-2.9-.52C228.15,139.75,227.76,139.39,227.76,139Z"/><path class="cls-2" d="M240.63,139.93v-9.7h-2.86q-.54,0-.54-.9v-.56q0-.9.54-.9h8.51q.54,0,.54.9v.56q0,.9-.54.9h-2.86v9.7c0,.39-.36.58-1.08.58h-.63C241,140.51,240.63,140.32,240.63,139.93Z"/><path class="cls-2" d="M248.93,139.93V128.59a.64.64,0,0,1,.72-.72h3.51c3,0,4.48,1.13,4.48,3.39a2.8,2.8,0,0,1-.57,1.75,3.32,3.32,0,0,1-1.54,1.11v.07a1.77,1.77,0,0,1,.7.6,4.77,4.77,0,0,1,.6,1.06l1.58,4a1.06,1.06,0,0,1,.09.34q0,.36-1.08.36h-.74c-.6,0-.94-.13-1-.38l-1.42-3.51a2.51,2.51,0,0,0-.66-.84,2.11,2.11,0,0,0-1.16-.24h-.7v4.39c0,.39-.36.58-1.08.58H250C249.29,140.51,248.93,140.32,248.93,139.93Zm2.77-6.78h1.71a1.29,1.29,0,0,0,1-.45,1.53,1.53,0,0,0,.41-1.09,1.3,1.3,0,0,0-.4-1,1.57,1.57,0,0,0-1.11-.37H251.7Z"/><path class="cls-2" d="M259.38,140.11a1.93,1.93,0,0,1,.08-.32l4-11.57c.09-.26.43-.38,1-.38h.94c.59,0,.93.12,1,.38l4,11.57a1,1,0,0,1,.06.32c0,.27-.3.4-.9.4h-.79c-.59,0-.93-.13-1-.38l-.72-2.19h-4.25l-.72,2.19c-.08.25-.36.38-.83.38h-.72C259.75,140.51,259.38,140.38,259.38,140.11Zm4.14-4.55h2.7l-1-3.2-.27-1.16h-.07a10.53,10.53,0,0,1-.27,1.16Z"/><path class="cls-2" d="M274.68,139.93v-9.7h-2.86q-.54,0-.54-.9v-.56q0-.9.54-.9h8.52q.54,0,.54.9v.56q0,.9-.54.9h-2.87v9.7c0,.39-.36.58-1.08.58h-.63C275,140.51,274.68,140.32,274.68,139.93Z"/><path class="cls-2" d="M282.87,139.93V128.41c0-.39.36-.59,1.08-.59h.63c.72,0,1.08.2,1.08.59v11.52q0,.6-1.08.6H284Q282.87,140.53,282.87,139.93Z"/><path class="cls-2" d="M287.62,128.23c0-.26.37-.39,1.1-.39h.6c.6,0,.95.17,1.06.52l2.63,8.42h.07l2.7-8.42c.12-.35.47-.52,1.06-.52h.56q1.08,0,1.08.39a1.39,1.39,0,0,1-.05.33l-3.89,11.57c-.09.25-.42.38-1,.38h-.94c-.59,0-.92-.13-1-.38l-3.88-11.57A1.74,1.74,0,0,1,287.62,128.23Z"/><path class="cls-2" d="M300.6,139.75V128.59a.64.64,0,0,1,.72-.72h6.59q.54,0,.54.9v.56q0,.9-.54.9h-4.53v2.61h4.05c.36,0,.53.3.53.9v.56c0,.6-.17.9-.53.9h-4.05v2.92h4.55q.54,0,.54.9v.55q0,.9-.54.9h-6.61A.64.64,0,0,1,300.6,139.75Z"/><path class="cls-1" d="M.7,175.63c-.16,0-.31-.17-.47-.52a2.34,2.34,0,0,1-.23-.87.78.78,0,0,1,.06-.41L9.6,160.52a1.17,1.17,0,0,1,1-.4h.46q.87,0,.87.63v12.79h1.94c.39,0,.58.29.58.87v.35c0,.58-.19.87-.58.87H11.92v4.26c0,.43-.29.64-.87.64h-.67c-.58,0-.87-.21-.87-.64v-4.26Zm8.81-2.09v-9.22l-.11-.06-6.53,9.28Z"/><path class="cls-2" d="M21.28,179.93V168.59a.64.64,0,0,1,.72-.72h3.51c3,0,4.48,1.13,4.48,3.39a2.8,2.8,0,0,1-.57,1.75,3.32,3.32,0,0,1-1.54,1.11v.07a1.77,1.77,0,0,1,.7.6,4.77,4.77,0,0,1,.6,1.06l1.58,4a1.06,1.06,0,0,1,.09.34q0,.36-1.08.36H29c-.6,0-1-.13-1-.38l-1.42-3.51a2.51,2.51,0,0,0-.66-.84,2.11,2.11,0,0,0-1.16-.24h-.7v4.39c0,.39-.36.58-1.08.58h-.61C21.63,180.51,21.28,180.32,21.28,179.93Zm2.77-6.78h1.71a1.29,1.29,0,0,0,1-.45,1.57,1.57,0,0,0,.41-1.09,1.3,1.3,0,0,0-.4-1,1.57,1.57,0,0,0-1.11-.37H24.05Z"/><path class="cls-2" d="M33,179.75V168.59a.64.64,0,0,1,.73-.72h6.58q.54,0,.54.9v.56q0,.9-.54.9H35.75v2.61h4q.54,0,.54.9v.56q0,.9-.54.9h-4v2.92H40.3q.54,0,.54.9v.55q0,.9-.54.9H33.7A.64.64,0,0,1,33,179.75Z"/><path class="cls-2" d="M42.68,179a1.82,1.82,0,0,1,.41-1c.28-.4.51-.6.7-.6a1.41,1.41,0,0,1,.47.2,4.41,4.41,0,0,0,2.18.63c1.13,0,1.69-.44,1.69-1.31a1.19,1.19,0,0,0-.54-1,5.86,5.86,0,0,0-1.3-.69c-.51-.2-1-.43-1.53-.68a3.5,3.5,0,0,1-1.29-1.2,3.58,3.58,0,0,1-.54-2,3.29,3.29,0,0,1,.65-2.08,4.2,4.2,0,0,1,3.62-1.57,5.78,5.78,0,0,1,2.3.4c.62.26.93.55.93.86a2,2,0,0,1-.34,1c-.22.39-.44.59-.64.59a1.26,1.26,0,0,1-.33-.13,3.94,3.94,0,0,0-1.66-.32,2,2,0,0,0-1.32.32,1,1,0,0,0,.17,1.67,5.65,5.65,0,0,0,1.3.67c.5.19,1,.42,1.52.67A3.46,3.46,0,0,1,51,176.58a4.64,4.64,0,0,1-.35,1.92,2.92,2.92,0,0,1-1,1.25,4.79,4.79,0,0,1-2.92.87,7.22,7.22,0,0,1-2.89-.52C43.07,179.75,42.68,179.39,42.68,179Z"/><path class="cls-2" d="M53.24,179.93V168.59a.64.64,0,0,1,.72-.72h3.78a4.66,4.66,0,0,1,3.26,1,3.17,3.17,0,0,1,.73,1.16,4.66,4.66,0,0,1,.3,1.74,4.08,4.08,0,0,1-.35,1.73,3.36,3.36,0,0,1-.81,1.16,4.56,4.56,0,0,1-1.09.65,4.76,4.76,0,0,1-1.86.4H56v4.17c0,.39-.36.58-1.08.58h-.61C53.6,180.51,53.24,180.32,53.24,179.93ZM56,173.38h1.61a1.76,1.76,0,0,0,1.1-.34,1.43,1.43,0,0,0,.46-1.22,1.47,1.47,0,0,0-.46-1.24,1.76,1.76,0,0,0-1.1-.35H56Z"/><path class="cls-2" d="M65.29,179a8.37,8.37,0,0,1,0-9.56,6.33,6.33,0,0,1,8.55,0,8.41,8.41,0,0,1,0,9.56,6.31,6.31,0,0,1-8.55,0Zm2.09-1.73a2.82,2.82,0,0,0,4.37,0,5.28,5.28,0,0,0,.73-3.05,5.21,5.21,0,0,0-.73-3,2.83,2.83,0,0,0-4.37,0,5.13,5.13,0,0,0-.75,3A5.2,5.2,0,0,0,67.38,177.22Z"/><path class="cls-2" d="M78.1,179.93V168.41q0-.57,1.08-.57H80a1.32,1.32,0,0,1,1.19.48l4.74,7.29v-7.2q0-.57,1.08-.57h.52q1.08,0,1.08.57v11.52c0,.39-.36.58-1.08.58h-.69a1.3,1.3,0,0,1-1.18-.49l-4.83-7.38v7.29c0,.39-.36.58-1.08.58h-.52C78.46,180.51,78.1,180.32,78.1,179.93Z"/><path class="cls-2" d="M90.92,179a1.82,1.82,0,0,1,.41-1c.28-.4.51-.6.7-.6a1.5,1.5,0,0,1,.47.2,4.41,4.41,0,0,0,2.18.63c1.13,0,1.69-.44,1.69-1.31a1.19,1.19,0,0,0-.54-1,5.86,5.86,0,0,0-1.3-.69c-.52-.2-1-.43-1.53-.68a3.5,3.5,0,0,1-1.29-1.2,3.58,3.58,0,0,1-.54-2,3.29,3.29,0,0,1,.65-2.08,4.2,4.2,0,0,1,3.61-1.57,5.83,5.83,0,0,1,2.31.4c.62.26.93.55.93.86a2,2,0,0,1-.34,1c-.23.39-.44.59-.65.59a1.42,1.42,0,0,1-.32-.13,3.94,3.94,0,0,0-1.66-.32,2,2,0,0,0-1.32.32,1,1,0,0,0-.37.81,1.06,1.06,0,0,0,.54.86,5.45,5.45,0,0,0,1.3.67c.5.19,1,.42,1.52.67a3.46,3.46,0,0,1,1.84,3.14,4.64,4.64,0,0,1-.35,1.92,2.92,2.92,0,0,1-1,1.25,4.79,4.79,0,0,1-2.92.87,7.22,7.22,0,0,1-2.89-.52C91.31,179.75,90.92,179.39,90.92,179Z"/><path class="cls-2" d="M100.24,180.11a1.53,1.53,0,0,1,.07-.32l4-11.57c.1-.26.44-.38,1-.38h.93c.59,0,.93.12,1,.38l4,11.57a1,1,0,0,1,0,.32c0,.27-.3.4-.9.4h-.79c-.59,0-.92-.13-1-.38l-.72-2.19h-4.24l-.72,2.19c-.09.25-.36.38-.83.38h-.72C100.61,180.51,100.24,180.38,100.24,180.11Zm4.14-4.55h2.7l-1-3.2-.27-1.16h-.07a10.53,10.53,0,0,1-.27,1.16Z"/><path class="cls-2" d="M113.24,179.75V168.59a.64.64,0,0,1,.72-.72h3.56a5,5,0,0,1,3.22.85,2.84,2.84,0,0,1,1,2.34,2.77,2.77,0,0,1-.55,1.65,3.19,3.19,0,0,1-1.4,1.09l0,.07a3,3,0,0,1,2.43,2.95,3.33,3.33,0,0,1-1.12,2.71,5.16,5.16,0,0,1-3.38.94H114A.64.64,0,0,1,113.24,179.75ZM116,172.9h1.24a1.83,1.83,0,0,0,1.23-.38,1.2,1.2,0,0,0,.44-1c0-.89-.54-1.34-1.63-1.34H116Zm0,5.22h1.76a1.83,1.83,0,0,0,1.23-.38,1.38,1.38,0,0,0,.43-1.08q0-1.41-2-1.41H116Z"/><path class="cls-2" d="M124.63,179.75V168.41q0-.57,1.08-.57h.61q1.08,0,1.08.57v9.71h4q.54,0,.54.9v.55q0,.9-.54.9h-6.07A.64.64,0,0,1,124.63,179.75Z"/><path class="cls-2" d="M134.06,179.75V168.59a.64.64,0,0,1,.72-.72h6.59q.54,0,.54.9v.56q0,.9-.54.9h-4.54v2.61h4q.54,0,.54.9v.56q0,.9-.54.9h-4v2.92h4.56q.54,0,.54.9v.55q0,.9-.54.9h-6.61A.64.64,0,0,1,134.06,179.75Z"/><path class="cls-2" d="M143.76,179a1.85,1.85,0,0,1,.42-1c.27-.4.51-.6.7-.6a1.5,1.5,0,0,1,.47.2,4.41,4.41,0,0,0,2.18.63c1.12,0,1.69-.44,1.69-1.31a1.19,1.19,0,0,0-.54-1,6,6,0,0,0-1.31-.69c-.51-.2-1-.43-1.52-.68a3.6,3.6,0,0,1-1.3-1.2,3.66,3.66,0,0,1-.53-2,3.34,3.34,0,0,1,.64-2.08,4.21,4.21,0,0,1,3.62-1.57,5.78,5.78,0,0,1,2.3.4c.63.26.94.55.94.86a2,2,0,0,1-.34,1c-.23.39-.45.59-.65.59a1.25,1.25,0,0,1-.32-.13,4,4,0,0,0-1.67-.32,2,2,0,0,0-1.31.32,1,1,0,0,0-.37.81,1.06,1.06,0,0,0,.54.86,5.45,5.45,0,0,0,1.3.67c.5.19,1,.42,1.52.67a3.46,3.46,0,0,1,1.84,3.14,4.81,4.81,0,0,1-.35,1.92,3,3,0,0,1-1,1.25,4.81,4.81,0,0,1-2.92.87,7.27,7.27,0,0,1-2.9-.52C144.15,179.75,143.76,179.39,143.76,179Z"/><path class="cls-2" d="M158.13,180.11a1.53,1.53,0,0,1,.07-.32l4-11.57c.09-.26.44-.38,1-.38h.93c.59,0,.93.12,1,.38l4,11.57a1.39,1.39,0,0,1,0,.32c0,.27-.3.4-.9.4h-.79c-.59,0-.93-.13-1-.38l-.72-2.19h-4.25l-.72,2.19c-.08.25-.36.38-.82.38h-.73C158.49,180.51,158.13,180.38,158.13,180.11Zm4.14-4.55H165l-1-3.2-.27-1.16h-.07a10.53,10.53,0,0,1-.27,1.16Z"/><path class="cls-2" d="M171.07,176.26v-7.85q0-.57,1.08-.57h.61q1.08,0,1.08.57v7.67a2,2,0,0,0,.68,1.57,2.87,2.87,0,0,0,3.54,0,2,2,0,0,0,.69-1.57v-7.67q0-.57,1.08-.57h.6q1.08,0,1.08.57v7.85a4,4,0,0,1-1.37,3.21,7,7,0,0,1-7.7,0A3.92,3.92,0,0,1,171.07,176.26Z"/><path class="cls-2" d="M188.85,179a1.85,1.85,0,0,1,.42-1c.27-.4.51-.6.7-.6a1.5,1.5,0,0,1,.47.2,4.41,4.41,0,0,0,2.18.63c1.12,0,1.69-.44,1.69-1.31a1.19,1.19,0,0,0-.54-1,6,6,0,0,0-1.31-.69c-.51-.2-1-.43-1.52-.68a3.52,3.52,0,0,1-1.3-1.2,3.66,3.66,0,0,1-.54-2,3.35,3.35,0,0,1,.65-2.08,4.21,4.21,0,0,1,3.62-1.57,5.78,5.78,0,0,1,2.3.4c.63.26.94.55.94.86a2,2,0,0,1-.34,1c-.23.39-.45.59-.65.59a1.12,1.12,0,0,1-.32-.13,4,4,0,0,0-1.67-.32,2,2,0,0,0-1.31.32,1,1,0,0,0-.37.81,1.06,1.06,0,0,0,.54.86,5.45,5.45,0,0,0,1.3.67c.5.19,1,.42,1.52.67a3.46,3.46,0,0,1,1.84,3.14,4.81,4.81,0,0,1-.35,1.92,3,3,0,0,1-1,1.25,4.83,4.83,0,0,1-2.92.87,7.27,7.27,0,0,1-2.9-.52C189.24,179.75,188.85,179.39,188.85,179Z"/><path class="cls-2" d="M199.42,179.75V168.59a.64.64,0,0,1,.72-.72h6.59q.54,0,.54.9v.56q0,.9-.54.9h-4.54v2.61h4.05q.54,0,.54.9v.56q0,.9-.54.9h-4.05v2.92h4.55q.54,0,.54.9v.55q0,.9-.54.9h-6.6A.64.64,0,0,1,199.42,179.75Z"/><path class="cls-2" d="M209.86,179.93V168.41c0-.39.36-.59,1.08-.59h.63c.72,0,1.08.2,1.08.59v11.52q0,.6-1.08.6h-.63Q209.86,180.53,209.86,179.93Z"/><path class="cls-2" d="M215.76,179.93V168.41q0-.57,1.08-.57h.78a1.32,1.32,0,0,1,1.18.48l4.74,7.29v-7.2q0-.57,1.08-.57h.52q1.08,0,1.08.57v11.52c0,.39-.36.58-1.08.58h-.68a1.3,1.3,0,0,1-1.19-.49l-4.83-7.38v7.29c0,.39-.36.58-1.08.58h-.52C216.12,180.51,215.76,180.32,215.76,179.93Z"/><path class="cls-2" d="M234.46,179.75V168.59a.64.64,0,0,1,.72-.72h4a5.5,5.5,0,0,1,4.27,1.63,8.06,8.06,0,0,1,0,9.34,5.47,5.47,0,0,1-4.27,1.63h-4A.64.64,0,0,1,234.46,179.75Zm2.79-1.63h2a2.52,2.52,0,0,0,2.17-1,6.19,6.19,0,0,0,0-5.87,2.52,2.52,0,0,0-2.17-1h-2Z"/><path class="cls-2" d="M247.69,179.75V168.59a.64.64,0,0,1,.72-.72H255q.54,0,.54.9v.56q0,.9-.54.9h-4.53v2.61h4.05q.54,0,.54.9v.56q0,.9-.54.9h-4.05v2.92H255q.54,0,.54.9v.55q0,.9-.54.9h-6.61A.64.64,0,0,1,247.69,179.75Z"/><path class="cls-2" d="M263.28,179.75V168.41q0-.57,1.08-.57H265q1.08,0,1.08.57v9.71h4q.54,0,.54.9v.55q0,.9-.54.9H264A.64.64,0,0,1,263.28,179.75Z"/><path class="cls-2" d="M274.65,169.61a6.1,6.1,0,0,1-1,1.64c-.39.41-.7.62-.92.62a1.66,1.66,0,0,1-.61-.1c-.17-.06-.26-.16-.26-.29a2.14,2.14,0,0,1,.2-.65,7.93,7.93,0,0,0,.6-3.19c0-.53.35-.79,1.08-.79H274c.72,0,1.08.26,1.08.79A4.87,4.87,0,0,1,274.65,169.61Z"/><path class="cls-2" d="M277.25,179.75V168.59a.64.64,0,0,1,.72-.72h6.59q.54,0,.54.9v.56q0,.9-.54.9H280v2.61h4.05q.54,0,.54.9v.56q0,.9-.54.9H280v2.92h4.55c.37,0,.55.3.55.9v.55c0,.6-.18.9-.55.9H278A.64.64,0,0,1,277.25,179.75Zm3.2-13.23c-.37,0-.56-.09-.56-.27a1.24,1.24,0,0,1,.27-.57c.17-.27.33-.52.47-.78s.29-.5.43-.75.66-.49,1.44-.49,1.17.09,1.17.25a.45.45,0,0,1-.1.26c-.08.09-.22.25-.44.47l-.44.47-.38.41-.51.55A1.74,1.74,0,0,1,280.45,166.52Z"/><path class="cls-2" d="M287.37,174.17a6.92,6.92,0,0,1,1.49-4.78,6.35,6.35,0,0,1,8.56,0,7,7,0,0,1,1.48,4.78c0,2.86-.94,4.77-2.82,5.75V180l2.75,1a.35.35,0,0,1,.25.37,3.37,3.37,0,0,1-.3,1c-.21.5-.44.74-.69.74-.07,0-.89-.31-2.47-.94l-5-2A4.64,4.64,0,0,1,288.2,178,8,8,0,0,1,287.37,174.17Zm3.59,3.1a2.77,2.77,0,0,0,4.36,0,5.39,5.39,0,0,0,.74-3.08,5.26,5.26,0,0,0-.74-3.05,2.82,2.82,0,0,0-4.36,0,5.18,5.18,0,0,0-.75,3.05A5.3,5.3,0,0,0,291,177.27Z"/><path class="cls-2" d="M301.62,176.26v-7.85q0-.57,1.08-.57h.61q1.08,0,1.08.57v7.67a2,2,0,0,0,.69,1.57,2.51,2.51,0,0,0,1.76.61,2.56,2.56,0,0,0,1.77-.61,2,2,0,0,0,.7-1.57v-7.67q0-.57,1.08-.57H311q1.08,0,1.08.57v7.85a4,4,0,0,1-1.37,3.21,7,7,0,0,1-7.7,0A4,4,0,0,1,301.62,176.26Z"/><path class="cls-2" d="M315.1,179.93V168.41c0-.39.36-.59,1.08-.59h.63c.72,0,1.08.2,1.08.59v11.52q0,.6-1.08.6h-.63Q315.1,180.53,315.1,179.93Z"/><path class="cls-2" d="M321,179.93V168.59a.64.64,0,0,1,.72-.72h3.78a4.64,4.64,0,0,1,3.25,1,3.17,3.17,0,0,1,.73,1.16,4.66,4.66,0,0,1,.3,1.74,4.08,4.08,0,0,1-.34,1.73,3.38,3.38,0,0,1-.82,1.16,4.37,4.37,0,0,1-1.09.65,4.72,4.72,0,0,1-1.85.4h-1.91v4.17c0,.39-.36.58-1.08.58h-.61C321.37,180.51,321,180.32,321,179.93Zm2.77-6.55h1.6a1.81,1.81,0,0,0,1.11-.34,1.46,1.46,0,0,0,.46-1.22,1.5,1.5,0,0,0-.46-1.24,1.81,1.81,0,0,0-1.11-.35h-1.6Z"/><path class="cls-2" d="M332,179.75V168.59a.64.64,0,0,1,.72-.72h6.58q.54,0,.54.9v.56q0,.9-.54.9h-4.53v2.61h4.05q.54,0,.54.9v.56q0,.9-.54.9h-4.05v2.92h4.55q.54,0,.54.9v.55q0,.9-.54.9h-6.6A.64.64,0,0,1,332,179.75Z"/><path class="cls-2" d="M108.68,219.75V208.59a.64.64,0,0,1,.72-.72h4a5.52,5.52,0,0,1,4.28,1.63,8.11,8.11,0,0,1,0,9.34,5.49,5.49,0,0,1-4.28,1.63h-4A.64.64,0,0,1,108.68,219.75Zm2.79-1.63h2a2.54,2.54,0,0,0,2.18-1,6.19,6.19,0,0,0,0-5.87,2.54,2.54,0,0,0-2.18-1h-2Z"/><path class="cls-2" d="M121.91,219.75V208.59a.64.64,0,0,1,.72-.72h6.59q.54,0,.54.9v.56q0,.9-.54.9h-4.54v2.61h4q.54,0,.54.9v.56q0,.9-.54.9h-4v2.92h4.56q.54,0,.54.9v.55q0,.9-.54.9h-6.61A.64.64,0,0,1,121.91,219.75Z"/><path class="cls-2" d="M137.5,219.75V208.59a.64.64,0,0,1,.72-.72h4a5.52,5.52,0,0,1,4.28,1.63,8.11,8.11,0,0,1,0,9.34,5.49,5.49,0,0,1-4.28,1.63h-4A.64.64,0,0,1,137.5,219.75Zm2.79-1.63h2a2.54,2.54,0,0,0,2.18-1,6.19,6.19,0,0,0,0-5.87,2.54,2.54,0,0,0-2.18-1h-2Z"/><path class="cls-2" d="M150.62,219.93V208.41c0-.39.36-.59,1.08-.59h.63c.72,0,1.08.2,1.08.59v11.52q0,.6-1.08.6h-.63Q150.62,220.53,150.62,219.93Z"/><path class="cls-2" d="M156.53,219.93V208.59a.64.64,0,0,1,.72-.72h3.51c3,0,4.48,1.13,4.48,3.39a2.8,2.8,0,0,1-.57,1.75,3.32,3.32,0,0,1-1.54,1.11v.07a1.77,1.77,0,0,1,.7.6,4.77,4.77,0,0,1,.6,1.06l1.58,4a1.06,1.06,0,0,1,.09.34q0,.36-1.08.36h-.74c-.6,0-.94-.13-1-.38l-1.42-3.51a2.51,2.51,0,0,0-.66-.84,2.11,2.11,0,0,0-1.16-.24h-.7v4.39c0,.39-.36.58-1.08.58h-.61C156.89,220.51,156.53,220.32,156.53,219.93Zm2.77-6.78H161a1.29,1.29,0,0,0,1-.45,1.53,1.53,0,0,0,.41-1.09,1.3,1.3,0,0,0-.4-1,1.57,1.57,0,0,0-1.11-.37H159.3Z"/><path class="cls-2" d="M168.22,219.75V208.59a.64.64,0,0,1,.73-.72h6.58q.54,0,.54.9v.56q0,.9-.54.9H171v2.61h4.05q.54,0,.54.9v.56q0,.9-.54.9H171v2.92h4.55q.54,0,.54.9v.55q0,.9-.54.9H169A.64.64,0,0,1,168.22,219.75Z"/><path class="cls-2" d="M178.34,214.14q0-6.4,6-6.41a9,9,0,0,1,2.54.36q1.23.36,1.23.9a2.15,2.15,0,0,1-.43,1c-.28.44-.53.65-.74.65a1.87,1.87,0,0,1-.38-.14,5.38,5.38,0,0,0-2.27-.43c-2.08,0-3.12,1.35-3.12,4.07s1,4.08,3.08,4.08a5.94,5.94,0,0,0,2.49-.54,2.22,2.22,0,0,1,.46-.18c.26,0,.5.21.72.62a2.22,2.22,0,0,1,.35,1c0,.48-.45.85-1.33,1.11a9.23,9.23,0,0,1-2.69.4,5.81,5.81,0,0,1-4.47-1.58Q178.33,217.47,178.34,214.14Z"/><path class="cls-2" d="M192.94,219.93v-9.7h-2.86q-.54,0-.54-.9v-.56q0-.9.54-.9h8.51q.54,0,.54.9v.56q0,.9-.54.9h-2.86v9.7c0,.39-.36.58-1.08.58H194C193.3,220.51,192.94,220.32,192.94,219.93Z"/><path class="cls-2" d="M201.13,219.93V208.41c0-.39.36-.59,1.08-.59h.63c.72,0,1.08.2,1.08.59v11.52q0,.6-1.08.6h-.63Q201.13,220.53,201.13,219.93Z"/><path class="cls-2" d="M208.09,219a8.41,8.41,0,0,1,0-9.56,5.51,5.51,0,0,1,4.29-1.66,5.45,5.45,0,0,1,4.27,1.66,8.41,8.41,0,0,1,0,9.56,5.42,5.42,0,0,1-4.27,1.67A5.48,5.48,0,0,1,208.09,219Zm2.1-1.73a2.82,2.82,0,0,0,4.37,0,5.28,5.28,0,0,0,.73-3.05,5.21,5.21,0,0,0-.73-3,2.83,2.83,0,0,0-4.37,0,5.13,5.13,0,0,0-.75,3A5.2,5.2,0,0,0,210.19,217.22Z"/><path class="cls-2" d="M220.91,219.93V208.41q0-.57,1.08-.57h.77a1.32,1.32,0,0,1,1.19.48l4.74,7.29v-7.2q0-.57,1.08-.57h.52q1.08,0,1.08.57v11.52c0,.39-.36.58-1.08.58h-.69a1.3,1.3,0,0,1-1.18-.49l-4.83-7.38v7.29c0,.39-.36.58-1.08.58H222C221.27,220.51,220.91,220.32,220.91,219.93Z"/></g></g></svg>