<?xml version="1.0" encoding="utf-8"?>
<!-- Generator: Adobe Illustrator 22.0.1, SVG Export Plug-In . SVG Version: 6.00 Build 0)  -->
<svg version="1.1" id="Calque_1" xmlns="http://www.w3.org/2000/svg" xmlns:xlink="http://www.w3.org/1999/xlink" x="0px" y="0px"
	 viewBox="0 0 348.2 303" style="enable-background:new 0 0 348.2 303;" xml:space="preserve">
<style type="text/css">
	.st0{opacity:0.4;fill:none;stroke:#00ABB8;stroke-width:3;stroke-miterlimit:10;enable-background:new    ;}
	.st1{fill:#FFFFFF;stroke:#FFFFFF;stroke-width:3;stroke-miterlimit:10;}
	.st2{fill:#737378;}
	.st3{fill:#00BCD4;}
	.st4{fill:#2CAECE;}
</style>
<title>secteurs</title>
<g id="Calque_2_1_">
	<g id="ressources">
		<circle class="st0" cx="171.5" cy="119.4" r="102.1"/>
		<ellipse class="st1" cx="82.4" cy="57.2" rx="32.2" ry="42.2"/>
		<ellipse class="st1" cx="89.3" cy="183.9" rx="32.2" ry="42.2"/>
		
			<ellipse transform="matrix(0.8412 -0.5408 0.5408 0.8412 -64.1248 169.0501)" class="st1" cx="255.7" cy="193.7" rx="54.4" ry="38.7"/>
		<ellipse transform="matrix(0.8436 -0.537 0.537 0.8436 10.6447 144.1121)" class="st1" cx="252.7" cy="53.8" rx="36" ry="42.2"/>
		<path class="st2" d="M234.7,32.2v-6.7c0-0.2,0.1-0.4,0.3-0.4c0,0,0.1,0,0.1,0h3.9c0.2,0,0.3,0.2,0.3,0.5V26c0,0.4-0.1,0.5-0.3,0.5
			h-2.7v1.5h2.4c0.2,0,0.3,0.2,0.3,0.5v0.3c0,0.4-0.1,0.5-0.3,0.5h-2.4v1.8h2.7c0.2,0,0.3,0.2,0.3,0.5v0.3c0,0.4-0.1,0.5-0.3,0.5
			h-3.9C234.9,32.7,234.7,32.5,234.7,32.2C234.7,32.3,234.7,32.3,234.7,32.2z"/>
		<path class="st2" d="M241,32.3v-6.9c0-0.2,0.2-0.3,0.6-0.3h0.5c0.3,0,0.5,0.1,0.7,0.3l2.8,4.4v-4.3c0-0.2,0.2-0.3,0.6-0.3h0.3
			c0.4,0,0.6,0.1,0.6,0.3v6.9c0,0.2-0.2,0.3-0.6,0.3h-0.4c-0.3,0-0.5-0.1-0.7-0.3l-2.9-4.4v4.4c0,0.2-0.2,0.3-0.6,0.3h-0.3
			C241.2,32.7,241,32.6,241,32.3z"/>
		<path class="st2" d="M249.2,32.2v-6.7c0-0.2,0.1-0.4,0.3-0.4c0,0,0.1,0,0.1,0h3.9c0.2,0,0.3,0.2,0.3,0.5V26c0,0.4-0.1,0.5-0.3,0.5
			h-2.7v1.5h2.4c0.2,0,0.3,0.2,0.3,0.5v0.3c0,0.4-0.1,0.5-0.3,0.5h-2.4v1.8h2.7c0.2,0,0.3,0.2,0.3,0.5v0.3c0,0.4-0.1,0.5-0.3,0.5
			h-3.9c-0.2,0-0.4-0.1-0.4-0.3C249.2,32.3,249.2,32.3,249.2,32.2z"/>
		<path class="st2" d="M255.5,32.3v-6.8c0-0.2,0.1-0.4,0.3-0.4c0,0,0.1,0,0.1,0h2.1c1.8,0,2.7,0.7,2.7,2c0,0.4-0.1,0.7-0.3,1
			c-0.2,0.3-0.6,0.5-0.9,0.7v0.1c0.2,0.1,0.3,0.2,0.4,0.4c0.1,0.2,0.3,0.4,0.4,0.6l0.9,2.4c0,0.1,0,0.1,0.1,0.2
			c0,0.1-0.2,0.2-0.6,0.2h-0.4c-0.4,0-0.6-0.1-0.6-0.2l-0.9-2.1c-0.1-0.2-0.2-0.4-0.4-0.5c-0.2-0.1-0.5-0.2-0.7-0.1h-0.4v2.6
			c0,0.2-0.2,0.3-0.6,0.3h-0.4C255.7,32.7,255.5,32.6,255.5,32.3z M257.1,28.3h1c0.2,0,0.4-0.1,0.6-0.3c0.2-0.2,0.2-0.4,0.2-0.7
			c0-0.2-0.1-0.5-0.2-0.6c-0.2-0.2-0.4-0.2-0.7-0.2h-0.9V28.3z"/>
		<path class="st2" d="M262.2,28.9c0-2.6,1.2-3.8,3.6-3.8c0.5,0,1,0.1,1.5,0.2c0.5,0.1,0.8,0.3,0.8,0.5c0,0.2-0.1,0.4-0.3,0.6
			c-0.2,0.3-0.3,0.4-0.4,0.4c-0.1,0-0.2,0-0.2-0.1c-0.4-0.2-0.9-0.3-1.4-0.3c-1.2,0-1.9,0.8-1.9,2.4c0,1.6,0.6,2.4,1.8,2.4
			c0.3,0,0.6,0,0.8-0.1v-1.4h-0.9c-0.2,0-0.3-0.2-0.3-0.5V29c0-0.4,0.1-0.5,0.3-0.5h2.2c0.2,0,0.4,0.1,0.4,0.3c0,0.1,0,0.1,0,0.2v3
			c0,0.2-0.1,0.4-0.3,0.4c-0.2,0.1-0.5,0.2-0.7,0.3c-0.5,0.1-1,0.2-1.5,0.2c-1,0.1-2-0.3-2.7-0.9C262.4,31,262.1,29.9,262.2,28.9z"
			/>
		<path class="st2" d="M270,32.3v-6.9c0-0.2,0.2-0.4,0.6-0.4h0.4c0.4,0,0.6,0.1,0.6,0.4v6.9c0,0.2-0.2,0.4-0.6,0.4h-0.4
			C270.2,32.7,270,32.6,270,32.3z"/>
		<path class="st2" d="M273.6,32.2v-6.7c0-0.2,0.1-0.4,0.3-0.4c0,0,0.1,0,0.1,0h3.9c0.2,0,0.3,0.2,0.3,0.5V26c0,0.4-0.1,0.5-0.3,0.5
			h-2.7v1.5h2.4c0.2,0,0.3,0.2,0.3,0.5v0.3c0,0.4-0.1,0.5-0.3,0.5h-2.4v1.8h2.7c0.2,0,0.3,0.2,0.3,0.5v0.3c0,0.4-0.1,0.5-0.3,0.5
			H274c-0.2,0-0.4-0.1-0.4-0.3C273.6,32.3,273.6,32.3,273.6,32.2z"/>
		<path class="st2" d="M279.4,31.8c0-0.2,0.1-0.4,0.2-0.6c0.2-0.2,0.3-0.4,0.4-0.4c0.1,0,0.2,0.1,0.3,0.1c0.4,0.2,0.8,0.4,1.3,0.4
			c0.7,0,1-0.3,1-0.8c0-0.2-0.1-0.5-0.3-0.6c-0.2-0.2-0.5-0.3-0.8-0.4c-0.3-0.1-0.6-0.3-0.9-0.4c-0.3-0.2-0.6-0.4-0.8-0.7
			c-0.2-0.4-0.3-0.8-0.3-1.2c0-0.4,0.1-0.9,0.4-1.2c0.5-0.7,1.3-1,2.1-1c0.5,0,0.9,0.1,1.4,0.2c0.4,0.2,0.6,0.3,0.6,0.5
			c0,0.2-0.1,0.4-0.2,0.6c-0.1,0.2-0.3,0.4-0.4,0.4c-0.1,0-0.1,0-0.2-0.1c-0.3-0.1-0.7-0.2-1-0.2c-0.3,0-0.5,0-0.8,0.2
			c-0.1,0.1-0.2,0.3-0.2,0.5c0,0.2,0.1,0.4,0.3,0.5c0.2,0.2,0.5,0.3,0.8,0.4c0.3,0.1,0.6,0.3,0.9,0.4c0.3,0.2,0.6,0.4,0.8,0.7
			c0.2,0.3,0.3,0.7,0.3,1.2c0,0.4-0.1,0.8-0.2,1.2c-0.1,0.3-0.3,0.6-0.6,0.8c-0.5,0.4-1.1,0.5-1.7,0.5c-0.6,0-1.2-0.1-1.7-0.3
			C279.6,32.2,279.4,32,279.4,31.8z"/>
		<path class="st2" d="M63.5,16.9V10c0-0.2,0.2-0.3,0.6-0.3h0.4c0.4,0,0.6,0.1,0.6,0.3v2.7h2.9V10c0-0.2,0.2-0.3,0.6-0.3h0.4
			c0.4,0,0.6,0.1,0.6,0.3v6.9c0,0.2-0.2,0.3-0.6,0.3h-0.4c-0.4,0-0.6-0.1-0.6-0.3v-2.8h-2.9v2.8c0,0.2-0.2,0.3-0.6,0.3h-0.4
			C63.7,17.2,63.5,17.1,63.5,16.9z"/>
		<path class="st2" d="M70.9,17c0-0.1,0-0.1,0-0.2l2.4-6.9c0.1-0.2,0.3-0.2,0.6-0.2h0.6c0.4,0,0.6,0.1,0.6,0.2l2.4,6.9
			c0,0.1,0,0.1,0,0.2c0,0.2-0.2,0.2-0.5,0.2h-0.5c-0.4,0-0.6-0.1-0.6-0.2l-0.4-1.3h-2.5L72.5,17c-0.1,0.1-0.2,0.2-0.5,0.2h-0.4
			C71.1,17.2,70.9,17.2,70.9,17z M73.4,14.3H75l-0.6-1.9l-0.2-0.7l0,0c-0.1,0.3-0.1,0.6-0.2,0.7L73.4,14.3z"/>
		<path class="st2" d="M78.7,16.8v-6.7c0-0.2,0.1-0.4,0.3-0.4c0,0,0.1,0,0.1,0h2.1c0.7-0.1,1.4,0.1,1.9,0.5c0.4,0.3,0.6,0.9,0.6,1.4
			c0,0.4-0.1,0.7-0.3,1c-0.2,0.3-0.5,0.5-0.8,0.7v0c0.4,0.1,0.8,0.3,1,0.6c0.3,0.3,0.4,0.7,0.4,1.1c0,0.6-0.2,1.2-0.7,1.6
			c-0.6,0.4-1.3,0.6-2,0.6h-2.3c-0.2,0-0.4-0.1-0.4-0.3C78.7,16.8,78.7,16.8,78.7,16.8z M80.3,12.7h0.8c0.3,0,0.6-0.1,0.8-0.2
			c0.2-0.1,0.3-0.4,0.3-0.6c0-0.5-0.3-0.8-1-0.8h-0.8L80.3,12.7z M80.3,15.8h1.1c0.3,0,0.5-0.1,0.7-0.2c0.2-0.2,0.3-0.4,0.3-0.6
			c0-0.6-0.4-0.8-1.2-0.8h-0.9V15.8z"/>
		<path class="st2" d="M85.4,16.9V10c0-0.2,0.2-0.4,0.6-0.4h0.4c0.4,0,0.6,0.1,0.6,0.4v6.9c0,0.2-0.2,0.4-0.6,0.4h-0.4
			C85.6,17.2,85.4,17.1,85.4,16.9z"/>
		<path class="st2" d="M90.3,16.9v-5.8h-1.7c-0.2,0-0.3-0.2-0.3-0.5v-0.3c0-0.4,0.1-0.5,0.3-0.5h5.1c0.2,0,0.3,0.2,0.3,0.5v0.3
			c0,0.4-0.1,0.5-0.3,0.5H92v5.8c0,0.2-0.2,0.3-0.6,0.3H91C90.5,17.2,90.3,17.1,90.3,16.9z"/>
		<path class="st2" d="M94.5,17c0-0.1,0-0.1,0-0.2l2.4-6.9c0.1-0.2,0.3-0.2,0.6-0.2h0.6c0.4,0,0.6,0.1,0.6,0.2l2.4,6.9
			c0,0.1,0,0.1,0,0.2c0,0.2-0.2,0.2-0.5,0.2h-0.4c-0.3,0-0.6-0.1-0.6-0.2l-0.4-1.3h-2.5L96.1,17c0,0.1-0.2,0.2-0.5,0.2h-0.4
			C94.7,17.2,94.5,17.2,94.5,17z M96.5,9c-0.1,0-0.2,0-0.2-0.1c0-0.1,0-0.1,0.1-0.2l0.7-1.1c0.1-0.1,0.3-0.2,0.7-0.2h0.1
			c0.3,0,0.6,0.1,0.7,0.2l0.7,1.1c0,0,0.1,0.1,0.1,0.2C99.3,9,99.2,9,99.1,9h-0.2c-0.3,0.1-0.6,0-0.8-0.3l-0.3-0.4l-0.3,0.4
			C97.3,8.9,97,9,96.8,9L96.5,9z M97,14.3h1.6L98,12.4l-0.2-0.7h-0.1c0,0.2-0.1,0.5-0.2,0.7L97,14.3z"/>
		<path class="st2" d="M103.7,16.9v-5.8H102c-0.2,0-0.3-0.2-0.3-0.5v-0.3c0-0.4,0.1-0.5,0.3-0.5h5.1c0.2,0,0.3,0.2,0.3,0.5v0.3
			c0,0.4-0.1,0.5-0.3,0.5h-1.7v5.8c0,0.2-0.2,0.3-0.6,0.3h-0.4C103.9,17.2,103.7,17.1,103.7,16.9z"/>
		<path class="st2" d="M70.8,33v-6.8c0-0.2,0.1-0.4,0.3-0.4c0,0,0.1,0,0.1,0h2.3c0.7,0,1.4,0.2,2,0.6c0.2,0.2,0.3,0.4,0.4,0.7
			c0.1,0.3,0.2,0.7,0.2,1.1c0,0.4-0.1,0.7-0.2,1c-0.1,0.3-0.3,0.5-0.5,0.7c-0.2,0.2-0.4,0.3-0.7,0.4c-0.3,0.1-0.7,0.2-1.1,0.2h-1.1
			V33c0,0.2-0.2,0.3-0.6,0.3h-0.4C71,33.4,70.8,33.2,70.8,33z M72.5,29.1h1c0.2,0,0.5-0.1,0.7-0.2c0.2-0.2,0.3-0.5,0.3-0.7
			c0-0.3-0.1-0.6-0.3-0.8c-0.2-0.1-0.4-0.2-0.7-0.2h-1V29.1z"/>
		<path class="st2" d="M77.4,33v-6.8c0-0.2,0.1-0.4,0.3-0.4c0,0,0.1,0,0.1,0h2.1c1.8,0,2.7,0.7,2.7,2c0,0.4-0.1,0.7-0.3,1.1
			c-0.2,0.3-0.6,0.5-0.9,0.7v0c0.2,0.1,0.3,0.2,0.4,0.4c0.1,0.2,0.3,0.4,0.4,0.6l0.9,2.4c0,0.1,0,0.1,0.1,0.2c0,0.1-0.2,0.2-0.6,0.2
			H82c-0.4,0-0.6-0.1-0.6-0.2L80.5,31c-0.1-0.2-0.2-0.4-0.4-0.5c-0.2-0.1-0.5-0.2-0.7-0.1H79V33c0,0.2-0.2,0.3-0.6,0.3H78
			C77.6,33.4,77.4,33.2,77.4,33z M79,28.9h1c0.2,0,0.4-0.1,0.6-0.3c0.2-0.2,0.3-0.4,0.3-0.6c0-0.2-0.1-0.5-0.2-0.6
			c-0.2-0.2-0.4-0.2-0.7-0.2H79V28.9z"/>
		<path class="st2" d="M84.3,33v-6.9c0-0.2,0.2-0.4,0.6-0.4h0.4c0.4,0,0.6,0.1,0.6,0.4V33c0,0.2-0.2,0.4-0.6,0.4h-0.4
			C84.5,33.4,84.3,33.2,84.3,33z"/>
		<path class="st2" d="M87.1,26c0-0.2,0.2-0.2,0.7-0.2h0.4c0.4,0,0.6,0.1,0.6,0.3l1.5,5h0l1.6-5c0.1-0.2,0.3-0.3,0.6-0.3h0.3
			c0.4,0,0.6,0.1,0.6,0.2c0,0.1,0,0.1,0,0.2l-2.3,6.9c-0.1,0.1-0.3,0.2-0.6,0.2h-0.5c-0.4,0-0.6-0.1-0.6-0.2l-2.3-6.9
			C87.2,26.2,87.1,26.1,87.1,26z"/>
		<path class="st2" d="M94.9,32.9v-6.7c0-0.2,0.1-0.4,0.3-0.4c0,0,0.1,0,0.1,0h3.9c0.2,0,0.3,0.2,0.3,0.5v0.3c0,0.4-0.1,0.5-0.3,0.5
			h-2.7v1.5h2.4c0.2,0,0.3,0.2,0.3,0.5v0.3c0,0.4-0.1,0.5-0.3,0.5h-2.4v1.7h2.7c0.2,0,0.3,0.2,0.3,0.5v0.3c0,0.4-0.1,0.5-0.3,0.5
			h-3.9c-0.2,0-0.4-0.1-0.4-0.3C94.9,33,94.9,32.9,94.9,32.9z M96.8,25c-0.2,0-0.3-0.1-0.3-0.2c0-0.1,0.1-0.2,0.2-0.3
			c0.1-0.2,0.2-0.3,0.3-0.5l0.3-0.5c0.1-0.2,0.4-0.3,0.9-0.3s0.7,0,0.7,0.1c0,0.1,0,0.1-0.1,0.2c0,0.1-0.1,0.2-0.3,0.3l-0.3,0.3
			l-0.2,0.2l-0.3,0.3C97.4,24.9,97.1,25,96.8,25z"/>
		<path class="st2" d="M40.2,202.9c0-0.1,0-0.1,0-0.2l2.4-6.9c0.1-0.2,0.3-0.2,0.6-0.2h0.6c0.4,0,0.6,0.1,0.6,0.2l2.4,6.9
			c0,0.1,0,0.1,0,0.2c0,0.2-0.2,0.2-0.5,0.2h-0.4c-0.4,0-0.6-0.1-0.6-0.2l-0.4-1.3h-2.5l-0.4,1.3c-0.1,0.1-0.2,0.2-0.5,0.2h-0.4
			C40.4,203.1,40.2,203,40.2,202.9z M42.7,200.2h1.6l-0.6-1.9l-0.2-0.7l0,0c-0.1,0.3-0.1,0.6-0.2,0.7L42.7,200.2z"/>
		<path class="st2" d="M48,202.8v-6.9c0-0.2,0.2-0.3,0.6-0.3h0.6c0.3,0,0.5,0.1,0.7,0.3l1.9,3.4l1.9-3.4c0.2-0.2,0.4-0.3,0.7-0.3
			h0.6c0.4,0,0.6,0.1,0.6,0.3v6.9c0,0.2-0.2,0.3-0.6,0.3h-0.3c-0.4,0-0.6-0.1-0.6-0.3v-4.4h0l-1.5,2.8c-0.1,0.1-0.3,0.2-0.4,0.2
			h-0.3c-0.2,0-0.3-0.1-0.4-0.2l-1.5-2.8h0v4.4c0,0.2-0.2,0.3-0.6,0.3h-0.3C48.2,203.1,48,203,48,202.8z"/>
		<path class="st2" d="M57.5,202.7V196c0-0.2,0.1-0.4,0.3-0.5c0,0,0.1,0,0.1,0h3.9c0.2,0,0.3,0.2,0.3,0.5v0.3c0,0.4-0.1,0.5-0.3,0.5
			h-2.7v1.5h2.4c0.2,0,0.3,0.2,0.3,0.5v0.4c0,0.4-0.1,0.5-0.3,0.5h-2.4v1.8h2.7c0.2,0,0.3,0.2,0.3,0.5v0.3c0,0.4-0.1,0.5-0.3,0.5h-4
			C57.7,203.1,57.5,203,57.5,202.7C57.5,202.7,57.5,202.7,57.5,202.7z M59.4,194.8c-0.2,0-0.3-0.1-0.3-0.2c0-0.1,0.1-0.2,0.2-0.3
			c0.1-0.2,0.2-0.3,0.3-0.5l0.3-0.4c0.1-0.2,0.4-0.3,0.9-0.3s0.7,0,0.7,0.1c0,0.1,0,0.1-0.1,0.2c-0.1,0.1-0.2,0.2-0.3,0.3l-0.3,0.3
			l-0.2,0.3l-0.3,0.3C60,194.7,59.7,194.8,59.4,194.8z"/>
		<path class="st2" d="M63.8,202.8v-6.9c0-0.2,0.2-0.3,0.6-0.3h0.5c0.3,0,0.5,0.1,0.7,0.3l2.8,4.4v-4.3c0-0.2,0.2-0.3,0.6-0.3h0.3
			c0.4,0,0.6,0.1,0.6,0.3v6.9c0,0.2-0.2,0.3-0.6,0.3H69c-0.3,0-0.5-0.1-0.7-0.3l-2.9-4.4v4.4c0,0.2-0.2,0.3-0.6,0.3h-0.3
			C64,203.1,63.8,203,63.8,202.8z"/>
		<path class="st2" d="M71.2,202.9c0-0.1,0-0.1,0-0.2l2.4-6.9c0.1-0.2,0.3-0.2,0.6-0.2h0.6c0.3,0,0.6,0.1,0.6,0.2l2.4,6.9
			c0,0.1,0,0.1,0,0.2c0,0.2-0.2,0.2-0.5,0.2h-0.5c-0.4,0-0.6-0.1-0.6-0.2l-0.4-1.3h-2.5l-0.4,1.3c0,0.1-0.2,0.2-0.5,0.2h-0.4
			C71.4,203.1,71.2,203,71.2,202.9z M73.7,200.2h1.6l-0.6-1.9l-0.2-0.7h0c0,0.2-0.1,0.5-0.2,0.7L73.7,200.2z"/>
		<path class="st2" d="M78.7,199.3c0-2.6,1.2-3.8,3.6-3.8c0.5,0,1,0.1,1.5,0.2c0.5,0.1,0.8,0.3,0.8,0.5c0,0.2-0.1,0.4-0.3,0.6
			c-0.2,0.3-0.3,0.4-0.4,0.4c-0.1,0-0.2,0-0.2-0.1c-0.4-0.2-0.9-0.3-1.4-0.3c-1.2,0-1.9,0.8-1.9,2.4c0,1.6,0.6,2.4,1.8,2.4
			c0.3,0,0.6,0,0.8-0.1v-1.4h-0.9c-0.2,0-0.3-0.2-0.3-0.5v-0.3c0-0.4,0.1-0.5,0.3-0.5h2.2c0.2-0.1,0.4,0.1,0.5,0.3
			c0,0.1,0,0.1,0,0.2v3c0,0.2-0.1,0.3-0.3,0.4c-0.2,0.1-0.5,0.2-0.7,0.3c-0.5,0.1-1,0.2-1.5,0.2c-1,0.1-2-0.3-2.7-0.9
			C78.9,201.4,78.6,200.4,78.7,199.3z"/>
		<path class="st2" d="M86.6,202.7V196c0-0.2,0.1-0.4,0.3-0.5c0.1,0,0.1,0,0.2,0H91c0.2,0,0.3,0.2,0.3,0.5v0.3
			c0,0.4-0.1,0.5-0.3,0.5h-2.7v1.5h2.4c0.2,0,0.3,0.2,0.3,0.5v0.4c0,0.4-0.1,0.5-0.3,0.5h-2.4v1.8H91c0.2,0,0.3,0.2,0.3,0.5v0.3
			c0,0.4-0.1,0.5-0.3,0.5H87c-0.2,0-0.4-0.1-0.4-0.3C86.6,202.8,86.6,202.7,86.6,202.7z"/>
		<path class="st2" d="M92.9,202.8v-6.9c0-0.2,0.2-0.3,0.6-0.3h0.6c0.3,0,0.5,0.1,0.7,0.3l1.9,3.4l1.9-3.3c0.2-0.2,0.4-0.3,0.7-0.3
			h0.6c0.4,0,0.6,0.1,0.6,0.3v6.9c0,0.2-0.2,0.3-0.6,0.3h-0.3c-0.4,0-0.6-0.1-0.6-0.3v-4.4h0l-1.5,2.8c-0.1,0.1-0.3,0.2-0.4,0.2
			h-0.3c-0.2,0-0.3-0.1-0.4-0.2l-1.5-2.8h0v4.4c0,0.2-0.2,0.3-0.6,0.3h-0.3C93.1,203.1,92.9,203,92.9,202.8z"/>
		<path class="st2" d="M102.4,202.7V196c0-0.2,0.1-0.4,0.3-0.4c0,0,0.1,0,0.1,0h3.9c0.2,0,0.3,0.2,0.3,0.5v0.3
			c0,0.4-0.1,0.5-0.3,0.5H104v1.5h2.4c0.2,0,0.3,0.2,0.3,0.5v0.3c0,0.4-0.1,0.5-0.3,0.5H104v1.8h2.7c0.2,0,0.3,0.2,0.3,0.5v0.3
			c0,0.4-0.1,0.5-0.3,0.5h-3.9C102.6,203.1,102.4,203,102.4,202.7C102.4,202.7,102.4,202.7,102.4,202.7z"/>
		<path class="st2" d="M108.7,202.8v-6.9c0-0.2,0.2-0.3,0.6-0.3h0.5c0.3,0,0.5,0.1,0.7,0.3l2.8,4.4v-4.3c0-0.2,0.2-0.3,0.6-0.3h0.3
			c0.4,0,0.6,0.1,0.6,0.3v6.9c0,0.2-0.2,0.3-0.6,0.3h-0.4c-0.3,0-0.5-0.1-0.7-0.3l-2.9-4.4v4.4c0,0.2-0.2,0.3-0.6,0.3h-0.3
			C108.9,203.1,108.7,203,108.7,202.8z"/>
		<path class="st2" d="M118.2,202.8V197h-1.7c-0.2,0-0.3-0.2-0.3-0.5v-0.3c0-0.4,0.1-0.5,0.3-0.5h5.1c0.2,0,0.3,0.2,0.3,0.5v0.3
			c0,0.4-0.1,0.5-0.3,0.5h-1.7v5.8c0,0.2-0.2,0.3-0.6,0.3h-0.4C118.4,203.1,118.2,203,118.2,202.8z"/>
		<path class="st2" d="M57.7,218.8v-6.7c0-0.2,0.1-0.4,0.3-0.4c0,0,0.1,0,0.1,0h2.4c1-0.1,1.9,0.3,2.6,1c1.2,1.7,1.2,3.9,0,5.6
			c-0.7,0.7-1.6,1-2.6,1h-2.4c-0.2,0-0.4-0.1-0.4-0.3C57.7,218.9,57.7,218.8,57.7,218.8z M59.4,217.8h1.2c0.5,0,1-0.2,1.3-0.6
			c0.3-0.5,0.5-1.1,0.4-1.8c0-0.6-0.1-1.2-0.4-1.8c-0.3-0.4-0.8-0.6-1.3-0.6h-1.2V217.8z"/>
		<path class="st2" d="M65.6,216.7V212c0-0.2,0.2-0.3,0.6-0.3h0.4c0.4,0,0.6,0.1,0.6,0.3v4.6c0,0.4,0.1,0.7,0.4,0.9
			c0.3,0.2,0.7,0.4,1.1,0.4c0.4,0,0.8-0.1,1.1-0.4c0.3-0.2,0.4-0.6,0.4-0.9V212c0-0.2,0.2-0.3,0.6-0.3h0.4c0.4,0,0.6,0.1,0.6,0.3
			v4.7c0,0.7-0.3,1.4-0.8,1.9c-0.7,0.5-1.5,0.7-2.3,0.7c-0.8,0.1-1.6-0.2-2.3-0.7C65.8,218.2,65.5,217.4,65.6,216.7z"/>
		<path class="st2" d="M73.7,218.9v-6.8c0-0.2,0.1-0.4,0.3-0.4c0,0,0.1,0,0.1,0h2.1c1.8,0,2.7,0.7,2.7,2c0,0.4-0.1,0.7-0.3,1
			c-0.2,0.3-0.6,0.5-0.9,0.7v0.1c0.2,0.1,0.3,0.2,0.4,0.4c0.1,0.2,0.3,0.4,0.4,0.6l1,2.3c0,0.1,0,0.1,0.1,0.2c0,0.1-0.2,0.2-0.6,0.2
			h-0.4c-0.4,0-0.6-0.1-0.6-0.2l-0.9-2.1c-0.1-0.2-0.2-0.4-0.4-0.5c-0.2-0.1-0.5-0.2-0.7-0.1h-0.4v2.6c0,0.2-0.2,0.3-0.6,0.3h-0.4
			C73.9,219.2,73.7,219.1,73.7,218.9z M75.3,214.9h1c0.2,0,0.4-0.1,0.6-0.3c0.2-0.2,0.2-0.4,0.2-0.7c0-0.2-0.1-0.5-0.2-0.6
			c-0.2-0.2-0.4-0.2-0.7-0.2h-0.9V214.9z"/>
		<path class="st2" d="M79.9,219c0-0.1,0-0.1,0-0.2l2.4-6.9c0.1-0.2,0.3-0.2,0.6-0.2h0.6c0.4,0,0.6,0.1,0.6,0.2l2.4,6.9
			c0,0.1,0,0.1,0,0.2c0,0.2-0.2,0.2-0.5,0.2h-0.4c-0.4,0-0.6-0.1-0.6-0.2l-0.4-1.3h-2.5l-0.4,1.3c-0.1,0.1-0.2,0.2-0.5,0.2h-0.4
			C80.1,219.2,79.9,219.2,79.9,219z M82.4,216.3h1.6l-0.6-1.9l-0.2-0.7l0,0c-0.1,0.3-0.1,0.6-0.2,0.7L82.4,216.3z"/>
		<path class="st2" d="M87.7,218.8v-6.7c0-0.2,0.1-0.4,0.3-0.4c0,0,0.1,0,0.1,0h2.1c0.7-0.1,1.4,0.1,1.9,0.5
			c0.4,0.3,0.6,0.9,0.6,1.4c0,0.4-0.1,0.7-0.3,1c-0.2,0.3-0.5,0.5-0.8,0.7v0c0.4,0.1,0.8,0.3,1,0.6c0.3,0.3,0.4,0.7,0.4,1.1
			c0,0.6-0.2,1.2-0.7,1.6c-0.6,0.4-1.3,0.6-2,0.6h-2.3C87.9,219.2,87.7,219.1,87.7,218.8C87.7,218.8,87.7,218.8,87.7,218.8z
			 M89.4,214.7h0.8c0.3,0,0.5-0.1,0.8-0.2c0.2-0.1,0.3-0.4,0.3-0.6c0-0.5-0.3-0.8-1-0.8h-0.8V214.7z M89.4,217.8h1.1
			c0.3,0,0.5-0.1,0.7-0.2c0.2-0.2,0.3-0.4,0.3-0.6c0-0.6-0.4-0.8-1.2-0.8h-0.9V217.8z"/>
		<path class="st2" d="M94.5,218.8V212c0-0.2,0.2-0.3,0.6-0.3h0.4c0.4,0,0.6,0.1,0.6,0.3v5.8h2.4c0.2,0,0.3,0.2,0.3,0.5v0.3
			c0,0.4-0.1,0.5-0.3,0.5h-3.6c-0.2,0-0.4-0.1-0.4-0.3C94.5,218.9,94.5,218.8,94.5,218.8z"/>
		<path class="st2" d="M100.1,218.8v-6.7c0-0.2,0.1-0.4,0.3-0.4c0,0,0.1,0,0.1,0h3.9c0.2,0,0.3,0.2,0.3,0.5v0.3
			c0,0.4-0.1,0.5-0.3,0.5h-2.7v1.5h2.4c0.2,0,0.3,0.2,0.3,0.5v0.3c0,0.4-0.1,0.5-0.3,0.5h-2.4v1.8h2.7c0.2,0,0.3,0.2,0.3,0.5v0.3
			c0,0.4-0.1,0.5-0.3,0.5h-3.9c-0.2,0-0.4-0.1-0.4-0.3C100.1,218.9,100.1,218.8,100.1,218.8z"/>
		<path class="st2" d="M234.9,201.4c0-0.1,0-0.1,0-0.2l2.4-6.9c0.1-0.2,0.3-0.2,0.6-0.2h0.6c0.4,0,0.6,0.1,0.6,0.2l2.4,6.9
			c0,0.1,0,0.1,0,0.2c0,0.2-0.2,0.2-0.5,0.2h-0.5c-0.4,0-0.6-0.1-0.6-0.2l-0.4-1.3h-2.5l-0.4,1.3c-0.1,0.1-0.2,0.2-0.5,0.2h-0.4
			C235.1,201.6,234.9,201.5,234.9,201.4z M237.3,198.6h1.6l-0.6-1.9l-0.2-0.7h0c-0.1,0.3-0.1,0.6-0.2,0.7L237.3,198.6z"/>
		<path class="st2" d="M242.4,197.8c0-2.6,1.2-3.8,3.6-3.8c0.5,0,1,0.1,1.5,0.2c0.5,0.1,0.8,0.3,0.8,0.5c0,0.2-0.1,0.4-0.3,0.6
			c-0.2,0.3-0.3,0.4-0.4,0.4l-0.2-0.1c-0.4-0.2-0.9-0.3-1.4-0.3c-1.2,0-1.9,0.8-1.9,2.4s0.6,2.4,1.8,2.4c0.5,0,1-0.1,1.5-0.3
			c0.1,0,0.2-0.1,0.3-0.1c0.2,0,0.3,0.1,0.4,0.4c0.1,0.2,0.2,0.4,0.2,0.6c0,0.3-0.3,0.5-0.8,0.7c-0.5,0.2-1.1,0.2-1.6,0.2
			c-1,0.1-2-0.3-2.7-0.9C242.7,199.9,242.3,198.8,242.4,197.8z"/>
		<path class="st2" d="M251.1,201.2v-5.8h-1.7c-0.2,0-0.3-0.2-0.3-0.5v-0.3c0-0.4,0.1-0.5,0.3-0.5h5.1c0.2,0,0.3,0.2,0.3,0.5v0.3
			c0,0.4-0.1,0.5-0.3,0.5h-1.7v5.8c0,0.2-0.2,0.3-0.6,0.3h-0.4C251.3,201.6,251.1,201.5,251.1,201.2z"/>
		<path class="st2" d="M256,201.1v-6.7c0-0.2,0.1-0.4,0.3-0.4c0,0,0.1,0,0.1,0h3.9c0.2,0,0.3,0.2,0.3,0.5v0.3c0,0.4-0.1,0.5-0.3,0.5
			h-2.7v1.5h2.4c0.2,0,0.3,0.2,0.3,0.5v0.3c0,0.4-0.1,0.5-0.3,0.5h-2.4v1.8h2.7c0.2,0,0.3,0.2,0.3,0.5v0.3c0,0.4-0.1,0.5-0.3,0.5
			h-3.9c-0.2,0-0.4-0.1-0.4-0.3C256,201.2,256,201.2,256,201.1z"/>
		<path class="st2" d="M262.3,199.1v-4.7c0-0.2,0.2-0.3,0.6-0.3h0.4c0.4,0,0.6,0.1,0.6,0.3v4.6c0,0.4,0.1,0.7,0.4,0.9
			c0.3,0.2,0.7,0.4,1.1,0.4c0.4,0,0.8-0.1,1.1-0.4c0.3-0.2,0.4-0.6,0.4-0.9v-4.6c0-0.2,0.2-0.3,0.6-0.3h0.4c0.4,0,0.6,0.1,0.6,0.3
			v4.7c0,0.7-0.3,1.4-0.8,1.9c-1.4,0.9-3.2,0.9-4.6,0C262.6,200.5,262.3,199.8,262.3,199.1z"/>
		<path class="st2" d="M270.4,201.2v-6.8c0-0.2,0.1-0.4,0.3-0.4c0,0,0.1,0,0.1,0h2.1c1.8,0,2.7,0.7,2.7,2c0,0.4-0.1,0.7-0.3,1
			c-0.2,0.3-0.6,0.5-0.9,0.7v0.1c0.2,0.1,0.3,0.2,0.4,0.4c0.1,0.2,0.3,0.4,0.4,0.6l0.9,2.4c0,0.1,0,0.1,0.1,0.2
			c0,0.1-0.2,0.2-0.6,0.2h-0.4c-0.4,0-0.6-0.1-0.6-0.2l-0.8-2.1c-0.1-0.2-0.2-0.4-0.4-0.5c-0.2-0.1-0.5-0.2-0.7-0.1h-0.4v2.6
			c0,0.2-0.2,0.3-0.6,0.3h-0.4C270.6,201.6,270.4,201.5,270.4,201.2z M272.1,197.2h1c0.2,0,0.4-0.1,0.6-0.3c0.2-0.2,0.3-0.4,0.3-0.7
			c0-0.2-0.1-0.5-0.2-0.6c-0.2-0.2-0.4-0.2-0.7-0.2h-1L272.1,197.2z"/>
		<path class="st2" d="M276.9,200.7c0-0.2,0.1-0.4,0.3-0.6c0.2-0.2,0.3-0.4,0.4-0.4c0.1,0,0.2,0.1,0.3,0.1c0.4,0.2,0.8,0.4,1.3,0.4
			c0.7,0,1-0.3,1-0.8c0-0.2-0.1-0.5-0.3-0.6c-0.2-0.2-0.5-0.3-0.8-0.4c-0.3-0.1-0.6-0.3-0.9-0.4c-0.3-0.2-0.6-0.4-0.8-0.7
			c-0.2-0.4-0.3-0.8-0.3-1.2c0-0.4,0.1-0.9,0.4-1.2c0.5-0.6,1.3-1,2.2-0.9c0.5,0,0.9,0.1,1.4,0.2c0.4,0.2,0.6,0.3,0.6,0.5
			c0,0.2-0.1,0.4-0.2,0.6c-0.1,0.2-0.3,0.4-0.4,0.4c-0.1,0-0.1,0-0.2-0.1c-0.3-0.1-0.7-0.2-1-0.2c-0.3,0-0.5,0-0.8,0.2
			c-0.3,0.2-0.3,0.6-0.1,0.8c0.1,0.1,0.1,0.1,0.2,0.2c0.2,0.2,0.5,0.3,0.8,0.4c0.3,0.1,0.6,0.3,0.9,0.4c0.7,0.4,1.1,1.1,1.1,1.9
			c0,0.4-0.1,0.8-0.2,1.2c-0.1,0.3-0.3,0.6-0.6,0.8c-0.5,0.4-1.1,0.5-1.7,0.5c-0.6,0-1.2-0.1-1.7-0.3
			C277.1,201.1,276.9,200.9,276.9,200.7z"/>
		<path class="st2" d="M219.6,217.3v-6.7c0-0.2,0.1-0.4,0.3-0.4c0,0,0.1,0,0.1,0h3.9c0.2,0,0.3,0.2,0.3,0.5v0.3
			c0,0.4-0.1,0.5-0.3,0.5h-2.7v1.5h2.4c0.2,0,0.3,0.2,0.3,0.5v0.3c0,0.4-0.1,0.5-0.3,0.5h-2.4v1.8h2.7c0.2,0,0.3,0.2,0.3,0.5v0.3
			c0,0.4-0.1,0.5-0.3,0.5h-3.9C219.9,217.7,219.7,217.6,219.6,217.3C219.6,217.3,219.6,217.3,219.6,217.3z M221.6,209.4
			c-0.2,0-0.3-0.1-0.3-0.2c0-0.1,0.1-0.2,0.2-0.3c0.1-0.2,0.2-0.3,0.3-0.5c0.1-0.2,0.2-0.3,0.3-0.4c0.1-0.1,0.4-0.3,0.9-0.3
			c0.5,0,0.7,0,0.7,0.1c0,0.1,0,0.1-0.1,0.2c-0.1,0.1-0.2,0.2-0.3,0.3l-0.3,0.3l-0.2,0.3l-0.3,0.3
			C222.1,209.3,221.9,209.4,221.6,209.4z"/>
		<path class="st2" d="M225.7,213.9c0-2.6,1.2-3.8,3.6-3.8c0.5,0,1,0.1,1.5,0.2c0.5,0.1,0.8,0.3,0.8,0.5c0,0.2-0.1,0.4-0.3,0.6
			c-0.2,0.3-0.3,0.4-0.4,0.4c-0.1,0-0.2,0-0.2-0.1c-0.4-0.2-0.9-0.3-1.4-0.3c-1.2,0-1.9,0.8-1.9,2.4s0.6,2.4,1.8,2.4
			c0.5,0,1-0.1,1.5-0.3c0.1,0,0.2-0.1,0.3-0.1c0.2,0,0.3,0.1,0.4,0.4c0.1,0.2,0.2,0.4,0.2,0.6c0,0.3-0.3,0.5-0.8,0.7
			c-0.5,0.2-1.1,0.2-1.6,0.2c-1,0.1-2-0.3-2.7-0.9C226,216,225.6,215,225.7,213.9z"/>
		<path class="st2" d="M233.7,216.8c-1.2-1.7-1.2-4,0-5.7c1.4-1.3,3.7-1.3,5.1,0c1.2,1.7,1.2,4,0,5.7
			C237.4,218.1,235.1,218.1,233.7,216.8z M234.9,215.7c0.6,0.7,1.6,0.8,2.4,0.2c0.1-0.1,0.2-0.2,0.2-0.2c0.6-1.1,0.6-2.5,0-3.6
			c-0.6-0.7-1.7-0.8-2.4-0.2c-0.1,0.1-0.2,0.1-0.2,0.2C234.3,213.3,234.3,214.6,234.9,215.7L234.9,215.7z"/>
		<path class="st2" d="M241.3,217.4v-6.9c0-0.2,0.2-0.3,0.6-0.3h0.5c0.3,0,0.5,0.1,0.7,0.3l2.8,4.4v-4.3c0-0.2,0.2-0.3,0.6-0.3h0.3
			c0.4,0,0.6,0.1,0.6,0.3v6.9c0,0.2-0.2,0.3-0.6,0.3h-0.4c-0.3,0-0.5-0.1-0.7-0.3l-2.9-4.4v4.4c0,0.2-0.2,0.3-0.6,0.3h-0.3
			C241.5,217.7,241.3,217.6,241.3,217.4z"/>
		<path class="st2" d="M250.1,216.8c-1.2-1.7-1.2-4,0-5.7c1.4-1.3,3.7-1.3,5.1,0c1.2,1.7,1.2,4,0,5.7
			C253.8,218.1,251.6,218.1,250.1,216.8z M251.4,215.7c0.6,0.7,1.6,0.8,2.4,0.2c0.1-0.1,0.2-0.2,0.2-0.2c0.6-1.1,0.6-2.5,0-3.6
			c-0.6-0.7-1.7-0.8-2.4-0.2c-0.1,0.1-0.2,0.1-0.2,0.2C250.8,213.3,250.8,214.6,251.4,215.7z"/>
		<path class="st2" d="M257.8,217.4v-6.9c0-0.2,0.2-0.3,0.6-0.3h0.6c0.3,0,0.5,0.1,0.7,0.3l1.9,3.4l1.9-3.4c0.2-0.2,0.4-0.3,0.7-0.3
			h0.6c0.4,0,0.6,0.1,0.6,0.3v6.9c0,0.2-0.2,0.3-0.6,0.3h-0.3c-0.4,0-0.6-0.1-0.6-0.3v-4.4h0l-1.5,2.8c-0.1,0.1-0.3,0.2-0.4,0.2
			h-0.3c-0.2,0-0.3-0.1-0.4-0.2l-1.5-2.8h0v4.4c0,0.2-0.2,0.3-0.6,0.3h-0.3C258,217.7,257.8,217.6,257.8,217.4z"/>
		<path class="st2" d="M267.2,217.4v-6.9c0-0.2,0.2-0.4,0.6-0.4h0.4c0.4,0,0.6,0.1,0.6,0.4v6.9c0,0.2-0.2,0.4-0.6,0.4h-0.4
			C267.4,217.7,267.2,217.6,267.2,217.4z"/>
		<path class="st2" d="M270.5,213.9c-0.1-1,0.2-2,0.9-2.8c1.4-1.3,3.7-1.3,5.1,0c0.6,0.8,1,1.8,0.9,2.8c0,1.7-0.6,2.8-1.7,3.4v0
			l1.6,0.6c0.1,0,0.2,0.1,0.2,0.2c0,0.2-0.1,0.4-0.2,0.6c-0.1,0.3-0.3,0.4-0.4,0.4c-0.2,0-0.5-0.2-1.5-0.6l-3-1.2
			c-0.6-0.2-1.1-0.7-1.5-1.3C270.6,215.5,270.4,214.7,270.5,213.9z M272.6,215.8c0.3,0.4,0.8,0.7,1.3,0.6c0.5,0,1-0.2,1.3-0.6
			c0.3-0.6,0.5-1.2,0.4-1.8c0-0.6-0.1-1.3-0.4-1.8c-0.3-0.4-0.8-0.6-1.3-0.6c-0.5,0-1,0.2-1.3,0.6c-0.3,0.5-0.5,1.2-0.4,1.8
			C272.1,214.6,272.3,215.2,272.6,215.8L272.6,215.8z"/>
		<path class="st2" d="M279,215.2v-4.7c0-0.2,0.2-0.3,0.6-0.3h0.4c0.4,0,0.6,0.1,0.6,0.3v4.6c0,0.4,0.1,0.7,0.4,0.9
			c0.3,0.2,0.7,0.4,1.1,0.4c0.4,0,0.8-0.1,1.1-0.4c0.3-0.2,0.4-0.6,0.4-0.9v-4.6c0-0.2,0.2-0.3,0.6-0.3h0.4c0.4,0,0.6,0.1,0.6,0.3
			v4.7c0,0.7-0.3,1.4-0.8,1.9c-1.4,0.9-3.2,0.9-4.6,0C279.2,216.6,278.9,215.9,279,215.2z"/>
		<path class="st2" d="M287.1,217.3v-6.7c0-0.2,0.1-0.4,0.3-0.4c0,0,0.1,0,0.1,0h3.9c0.2,0,0.3,0.2,0.3,0.5v0.3
			c0,0.4-0.1,0.5-0.3,0.5h-2.7v1.5h2.4c0.2,0,0.3,0.2,0.3,0.5v0.3c0,0.4-0.1,0.5-0.3,0.5h-2.4v1.8h2.7c0.2,0,0.3,0.2,0.3,0.5v0.3
			c0,0.4-0.1,0.5-0.3,0.5h-3.9c-0.2,0-0.4-0.1-0.4-0.3C287.1,217.3,287.1,217.3,287.1,217.3z"/>
		<path class="st2" d="M292.9,216.8c0-0.2,0.1-0.4,0.2-0.6c0.2-0.2,0.3-0.4,0.4-0.4c0.1,0,0.2,0.1,0.3,0.1c0.4,0.2,0.8,0.4,1.3,0.4
			c0.7,0,1-0.3,1-0.8c0-0.2-0.1-0.5-0.3-0.6c-0.2-0.2-0.5-0.3-0.8-0.4c-0.3-0.1-0.6-0.3-0.9-0.4c-0.3-0.2-0.6-0.4-0.8-0.7
			c-0.2-0.4-0.3-0.8-0.3-1.2c0-0.4,0.1-0.9,0.4-1.2c0.5-0.6,1.3-1,2.2-0.9c0.5,0,0.9,0.1,1.4,0.2c0.4,0.2,0.6,0.3,0.6,0.5
			c0,0.2-0.1,0.4-0.2,0.6c-0.1,0.2-0.3,0.4-0.4,0.4c-0.1,0-0.1,0-0.2-0.1c-0.3-0.1-0.7-0.2-1-0.2c-0.3,0-0.5,0-0.8,0.2
			c-0.1,0.1-0.2,0.3-0.2,0.5c0,0.2,0.1,0.4,0.3,0.5c0.2,0.2,0.5,0.3,0.8,0.4c0.3,0.1,0.6,0.3,0.9,0.4c0.7,0.4,1.1,1.1,1.1,1.9
			c0,0.4-0.1,0.8-0.2,1.2c-0.1,0.3-0.3,0.6-0.6,0.8c-0.5,0.4-1.1,0.5-1.7,0.5c-0.6,0-1.2-0.1-1.7-0.3
			C293.1,217.3,292.9,217,292.9,216.8z"/>
		<path class="st0" d="M165.7,75.5c25.5-1.6,47.5,17.7,49.2,43.2c1.6,25.5-17.7,47.5-43.2,49.2c-25.5,1.6-47.5-17.7-49.2-43.2
			c0,0,0,0,0,0"/>
		<path class="st0" d="M101.9,126.3c-2.4-36.9,25.6-68.7,62.5-71c36.9-2.4,68.7,25.6,71,62.5c2.4,36.9-25.6,68.7-62.4,71"/>
		<path class="st2" d="M149.6,105.3c0-2.6,1.2-3.8,3.6-3.8c0.5,0,1,0.1,1.5,0.2c0.5,0.1,0.8,0.3,0.8,0.5c0,0.2-0.1,0.4-0.3,0.6
			c-0.2,0.3-0.3,0.4-0.4,0.4c-0.1,0-0.2,0-0.2-0.1c-0.4-0.2-0.9-0.3-1.4-0.3c-1.2,0-1.9,0.8-1.9,2.4c0,1.6,0.6,2.4,1.8,2.4
			c0.5,0,1-0.1,1.5-0.3c0.1,0,0.2-0.1,0.3-0.1c0.1,0,0.3,0.1,0.4,0.4c0.1,0.2,0.2,0.4,0.2,0.6c0,0.3-0.3,0.5-0.8,0.7
			c-0.5,0.2-1.1,0.2-1.6,0.2c-1,0.1-2-0.3-2.7-0.9C149.9,107.4,149.6,106.4,149.6,105.3z"/>
		<path class="st2" d="M157,108.7v-6.8c0-0.2,0.2-0.3,0.6-0.3h0.4c0.4,0,0.6,0.1,0.6,0.3v5.8h2.4c0.2,0,0.3,0.2,0.3,0.5v0.3
			c0,0.4-0.1,0.5-0.3,0.5h-3.6c-0.2,0-0.4-0.1-0.4-0.3C157,108.7,157,108.7,157,108.7z"/>
		<path class="st2" d="M162.6,108.8v-6.9c0-0.2,0.2-0.4,0.6-0.4h0.4c0.4,0,0.6,0.1,0.6,0.4v6.9c0,0.2-0.2,0.4-0.6,0.4h-0.4
			C162.8,109.1,162.6,109,162.6,108.8z"/>
		<path class="st2" d="M166.1,108.8v-6.9c0-0.2,0.2-0.3,0.6-0.3h0.6c0.3,0,0.5,0.1,0.7,0.3l1.9,3.4l1.9-3.4c0.2-0.2,0.4-0.3,0.7-0.3
			h0.5c0.4,0,0.6,0.1,0.6,0.3v6.9c0,0.2-0.2,0.3-0.6,0.3h-0.3c-0.4,0-0.6-0.1-0.6-0.3v-4.4l0,0l-1.5,2.8c-0.1,0.1-0.3,0.2-0.4,0.2
			h-0.3c-0.2,0-0.3-0.1-0.4-0.2l-1.5-2.8h0v4.4c0,0.2-0.2,0.3-0.6,0.3h-0.3C166.4,109.1,166.1,109,166.1,108.8z"/>
		<path class="st2" d="M174.8,108.9c0-0.1,0-0.1,0-0.2l2.4-6.9c0.1-0.2,0.3-0.2,0.6-0.2h0.6c0.4,0,0.6,0.1,0.6,0.2l2.4,6.9
			c0,0.1,0,0.1,0,0.2c0,0.2-0.2,0.2-0.5,0.2h-0.5c-0.4,0-0.6-0.1-0.6-0.2l-0.4-1.3h-2.5l-0.4,1.3c0,0.1-0.2,0.2-0.5,0.2h-0.4
			C175.1,109.1,174.8,109,174.8,108.9z M177.3,106.1h1.6l-0.6-1.9l-0.2-0.7h0c0,0.2-0.1,0.5-0.2,0.7L177.3,106.1z"/>
		<path class="st2" d="M184,108.8V103h-1.7c-0.2,0-0.3-0.2-0.3-0.5v-0.3c0-0.4,0.1-0.5,0.3-0.5h5.1c0.2,0,0.3,0.2,0.3,0.5v0.3
			c0,0.4-0.1,0.5-0.3,0.5h-1.7v5.8c0,0.2-0.2,0.3-0.6,0.3h-0.4C184.2,109.1,184,109,184,108.8z"/>
		<path class="st3" d="M260,44.7l-5.6,5.6l-2.4-2.4c-0.6-0.6-1.6-0.6-2.2,0c-0.6,0.6-0.6,1.6,0,2.2l0,0l0.3,0.3l-2.7,2.7
			c-3.5,3.3-4.2,8.6-1.7,12.7l-4.6,4.6c-1,1-0.9,2.6,0.1,3.6c1,0.9,2.5,0.9,3.4,0l4.6-4.6c4.1,2.5,9.4,1.8,12.8-1.7l2.7-2.7l0.4,0.4
			c0.6,0.6,1.6,0.6,2.2,0s0.6-1.6,0-2.2l-2.7-2.7l5.9-5.9c0.6-0.6,0.6-1.6,0-2.2c-0.6-0.6-1.6-0.6-2.2,0l-5.9,5.9l-5.7-5.7l5.6-5.6
			c0.6-0.6,0.6-1.6,0-2.2C261.6,44.1,260.6,44.1,260,44.7"/>
		<path class="st3" d="M91.7,56.2c0,0.9-0.7,1.6-1.6,1.6s-1.6-0.7-1.6-1.6v-3.1c0-0.9,0.7-1.6,1.6-1.6s1.6,0.7,1.6,1.6V56.2z
			 M91.7,64.5c0,0.9-0.7,1.6-1.6,1.6s-1.6-0.7-1.6-1.6v-3.1c0-0.9,0.7-1.6,1.6-1.6s1.6,0.7,1.6,1.6V64.5z M91.7,73.1
			c0,0.9-0.7,1.6-1.6,1.6s-1.6-0.7-1.6-1.6v-3.1c0-0.9,0.7-1.6,1.6-1.6s1.6,0.7,1.6,1.6V73.1z M86.1,56.2c0,0.9-0.7,1.6-1.6,1.6
			c-0.9,0-1.6-0.7-1.6-1.6v-3.1c0-0.9,0.7-1.6,1.6-1.6c0.9,0,1.6,0.7,1.6,1.6V56.2z M86.1,64.5c0,0.9-0.7,1.6-1.6,1.6
			c-0.9,0-1.6-0.7-1.6-1.6v-3.1c0-0.9,0.7-1.6,1.6-1.6c0.9,0,1.6,0.7,1.6,1.6V64.5z M80.4,56.2c0,0.9-0.7,1.6-1.6,1.6
			c-0.9,0-1.6-0.7-1.6-1.6v-3.1c0-0.9,0.7-1.6,1.6-1.6c0.9,0,1.6,0.7,1.6,1.6V56.2z M80.4,64.5c0,0.9-0.7,1.6-1.6,1.6
			c-0.9,0-1.6-0.7-1.6-1.6v-3.1c0-0.9,0.7-1.6,1.6-1.6c0.9,0,1.6,0.7,1.6,1.6V64.5z M80.4,73.1c0,0.9-0.7,1.6-1.6,1.6
			c-0.9,0-1.6-0.7-1.6-1.6v-3.1c0-0.9,0.7-1.6,1.6-1.6c0.9,0,1.6,0.7,1.6,1.6V73.1z M94.2,48.1H74.8c-1.4,0-2.5,1.1-2.5,2.5v25.1
			c0,1.4,1.1,2.5,2.5,2.5h8.1v-8.3c0-0.9,0.7-1.6,1.6-1.6c0.9,0,1.6,0.7,1.6,1.6v8.3h8.2c1.4,0,2.5-1.1,2.5-2.5V50.6
			C96.7,49.2,95.6,48.1,94.2,48.1"/>
		<path class="st3" d="M95.2,183H83.3c-0.6,0-1.2-0.5-1.2-1.2v-5.7c3.4-0.8,6.1-3.4,7-6.8c2.7-1.3,3.9-4.6,2.6-7.3
			c-0.6-1.3-1.7-2.2-3-2.7v-0.1c0-3.2-2.6-5.8-5.7-5.8c-2,0-3.8,1-4.8,2.6c-0.6-0.4-1.3-0.6-2-0.6c-1.9,0-3.5,1.6-3.5,3.5v0.1
			c-3,0.5-5,3.4-4.4,6.4c0.3,1.5,1.2,2.8,2.5,3.7c0.8,3.4,3.4,6,6.7,7v5.8c0,0.6-0.5,1.2-1.2,1.2c0,0,0,0,0,0h-6.1
			c-0.8,0-1.5,0.7-1.4,1.5c0,0.8,0.6,1.4,1.4,1.4h25c0.8,0,1.5-0.7,1.4-1.5C96.6,183.6,96,183,95.2,183"/>
		<path class="st4" d="M166.1,119.2c0.9-0.2,1.7-0.3,2.6-0.3c1,0,1.9,0.1,2.9,0.4l-0.5,0.8l0.6,0.6h1.8l0.5-0.5
			c0.4,0.2,0.8,0.5,1.2,0.7l-1.1,0.4l-1.2,1.2l1.2,0.6v0.6h-1.2v1.2c0.5,0.4,1.1,0.6,1.8,0.6c1,0,0.5-1.3,1.2-1.8
			c0.4-0.3,1-0.4,1.5-0.4l0.4,0.1c0.7,1,1.3,2,1.7,3.2v0.1c-0.7-0.4-1.5-0.6-2.4-0.6c-1,0-2,0.2-3,0.6c0,0-1.7,0.5-1.8,1.8
			c-0.2,2.2,0.6,3,0.6,3l3,1.8v5.8c-3,2.5-7.1,3.2-10.8,1.9l3.1-7.1l-0.6-3c0,0-2.4-3-3.6-3s-1.8,1.8-1.8,1.8l-1.2-2.4l3.6-2.4
			l1.8-4.8L166.1,119.2z M157.4,130.2c0-0.9,0.1-1.8,0.3-2.7l2.7,2.7l-0.6,3.6l2.4,2.4v3.3C159.2,137.3,157.4,133.9,157.4,130.2
			 M154.4,130.2c0,7.9,6.4,14.3,14.3,14.3s14.3-6.4,14.3-14.3s-6.4-14.3-14.3-14.3S154.4,122.3,154.4,130.2
			C154.4,130.2,154.4,130.2,154.4,130.2"/>
		<path class="st3" d="M243.7,166.1c0,2.8,1.7,6.8,5,6.8c3.2,0,5-4,5-6.8c0-2.7-2.2-5-4.9-5C245.9,161.2,243.7,163.4,243.7,166.1
			C243.7,166.1,243.7,166.1,243.7,166.1 M257.2,177.5c-1-1.3-2.3-2.2-3.9-2.6l-1.6,5.6c0,0.5-0.4,0.9-0.9,0.9
			c-0.5,0-0.9-0.4-0.9-0.9c0,0,0,0,0,0V176c-0.1-0.7-0.6-1.1-1.3-1.1c-0.6,0-1,0.5-1.1,1.1v4.5c0,0.5-0.4,0.9-0.9,0.9
			c-0.5,0-0.9-0.4-0.9-0.9c0,0,0,0,0,0l-1.6-5.7c-1.6,0.4-2.9,1.3-3.9,2.6c-0.4,0.6-0.6,1.3-0.6,2.1c0,0.1,0,0.3,0,0.5v1.9
			c0,1,0.8,1.9,1.9,1.9h14.6c1,0,1.9-0.8,1.9-1.9v-2.4C257.8,178.8,257.6,178.1,257.2,177.5"/>
		<path class="st3" d="M264.2,172.4c-0.5,0.1-0.9,0.1-1.4,0.2c-0.5,0.1-0.9,0.6-0.9,1.1c0,0.2,0.1,0.4,0.2,0.6
			c2.3,2.9,6.4,3.4,9.3,1.1c0.4-0.3,0.7-0.6,1-1c0.4-0.5,0.3-1.2-0.2-1.6c-0.2-0.1-0.3-0.2-0.5-0.2c-0.5-0.1-0.9-0.2-1.4-0.2
			c-0.6-0.1-1.1-0.6-1.1-1.3c0-0.6,0.5-1.1,1.1-1.2h0.2c3.1-0.2,5.2-0.8,6.6-2c0.2-0.2,0.3-0.5,0.3-0.8c0-0.6-0.4-1.1-1-1.1
			c-1.7-0.3-3-1.7-3-3.5v-0.2c0-3.3-2.7-6-6-6s-6,2.7-6,6v0.2c0,1.7-1.3,3.2-3,3.5c-0.6,0.1-1,0.6-1,1.1c0,0.3,0.1,0.6,0.3,0.8
			c1.4,1.2,3.5,1.8,6.6,2h0.3c0.6,0.1,1.1,0.6,1,1.2C265.5,171.8,264.9,172.4,264.2,172.4 M277.8,176c-0.6-0.9-1.4-1.6-2.3-2.1
			c-2,4.5-7.3,6.5-11.8,4.5c-2-0.9-3.6-2.5-4.5-4.5c-0.9,0.6-1.7,1.3-2.3,2.1c-0.5,0.8-0.7,1.6-0.8,2.5v2.9c0,1.3,1,2.3,2.3,2.3
			h17.9c1.3,0,2.3-1,2.3-2.3c0,0,0-2.7,0-2.9C278.6,177.7,278.3,176.8,277.8,176"/>
	</g>
</g>
<g>
	<path class="st3" d="M46.6,265.4c-0.3,0-0.4-0.2-0.4-0.6v-0.1c0-0.4,0.1-0.6,0.4-0.6h2v-2c0-0.3,0.2-0.4,0.6-0.4h0.2
		c0.4,0,0.7,0.1,0.7,0.4v2h2c0.3,0,0.4,0.2,0.4,0.6v0.1c0,0.4-0.1,0.6-0.4,0.6h-2v2c0,0.3-0.2,0.4-0.7,0.4h-0.2
		c-0.4,0-0.6-0.1-0.6-0.4v-2H46.6z"/>
	<path class="st3" d="M57,267.4v-8.2c0-0.3,0.2-0.5,0.5-0.5H60c2.2,0,3.2,0.8,3.2,2.4c0,0.5-0.1,0.9-0.4,1.3
		c-0.3,0.4-0.6,0.6-1.1,0.8v0.1c0.2,0.1,0.3,0.2,0.5,0.4s0.3,0.5,0.4,0.8l1.1,2.9c0,0.1,0.1,0.2,0.1,0.2c0,0.2-0.3,0.3-0.8,0.3h-0.5
		c-0.4,0-0.7-0.1-0.8-0.3l-1-2.5c-0.1-0.3-0.3-0.5-0.5-0.6s-0.4-0.2-0.8-0.2H59v3.2c0,0.3-0.3,0.4-0.8,0.4h-0.4
		C57.2,267.8,57,267.7,57,267.4z M59,262.5h1.2c0.3,0,0.5-0.1,0.7-0.3s0.3-0.5,0.3-0.8s-0.1-0.6-0.3-0.7c-0.2-0.2-0.5-0.3-0.8-0.3
		H59V262.5z"/>
	<path class="st3" d="M65.4,267c-0.6-0.6-0.8-1.5-0.8-2.6s0.3-2,0.8-2.6c0.6-0.6,1.3-0.9,2.3-0.9s1.7,0.3,2.1,0.9s0.7,1.4,0.7,2.4
		c0,0.1-0.1,0.3-0.3,0.5c-0.2,0.2-0.3,0.3-0.4,0.3h-3.3c0,0.5,0.2,0.8,0.4,1.1c0.3,0.2,0.6,0.3,1,0.3s0.8-0.1,1.1-0.2
		c0.4-0.1,0.5-0.2,0.5-0.2c0.1,0,0.3,0.1,0.4,0.4c0.2,0.3,0.2,0.5,0.2,0.6c0,0.3-0.3,0.5-0.8,0.7s-1.1,0.3-1.5,0.3
		C66.8,267.9,65.9,267.6,65.4,267z M68.6,263.7c0-0.4-0.1-0.7-0.2-1c-0.2-0.2-0.4-0.4-0.7-0.4c-0.6,0-1,0.4-1.2,1.3H68.6z M67,260.1
		c-0.3,0-0.4-0.1-0.4-0.2c0-0.1,0.1-0.2,0.2-0.4s0.2-0.4,0.3-0.6c0.1-0.2,0.2-0.4,0.3-0.5c0.1-0.2,0.5-0.4,1-0.4
		c0.6,0,0.8,0.1,0.8,0.2c0,0.1,0,0.1-0.1,0.2c-0.1,0.1-0.2,0.2-0.3,0.3c-0.2,0.2-0.3,0.3-0.3,0.3c-0.1,0.1-0.2,0.2-0.3,0.3
		c-0.1,0.1-0.2,0.3-0.4,0.4C67.8,260,67.5,260.1,67,260.1z"/>
	<path class="st3" d="M71.4,267c0-0.1,0.1-0.3,0.2-0.6c0.2-0.3,0.3-0.4,0.4-0.4c0,0,0.2,0.1,0.5,0.2c0.3,0.1,0.6,0.2,0.8,0.2
		c0.5,0,0.8-0.2,0.8-0.6c0-0.2-0.1-0.4-0.3-0.5c-0.2-0.1-0.4-0.2-0.6-0.3c-0.3-0.1-0.5-0.2-0.8-0.3c-0.3-0.1-0.5-0.3-0.6-0.6
		c-0.2-0.3-0.3-0.6-0.3-1.1c0-0.7,0.2-1.2,0.6-1.5c0.4-0.4,1-0.6,1.7-0.6c0.3,0,0.7,0,1,0.1c0.6,0.1,0.9,0.4,0.9,0.7
		c0,0.1-0.1,0.3-0.2,0.6c-0.1,0.3-0.3,0.4-0.4,0.4c0,0-0.1,0-0.4-0.1s-0.5-0.1-0.7-0.1c-0.5,0-0.7,0.2-0.7,0.5
		c0,0.2,0.1,0.3,0.3,0.4c0.2,0.1,0.4,0.2,0.6,0.3c0.3,0.1,0.5,0.2,0.8,0.3c0.3,0.1,0.5,0.3,0.6,0.6s0.3,0.6,0.3,1.1
		c0,0.7-0.2,1.2-0.7,1.6c-0.4,0.4-1,0.6-1.7,0.6c-0.7,0-1.2-0.1-1.7-0.2C71.6,267.5,71.4,267.3,71.4,267z"/>
	<path class="st3" d="M77.9,259.9c-0.5,0-0.8-0.1-0.8-0.4v-1.1c0-0.3,0.3-0.4,0.8-0.4h0.4c0.5,0,0.8,0.1,0.8,0.4v1.1
		c0,0.3-0.3,0.4-0.8,0.4H77.9z M77.1,267.4v-6c0-0.3,0.3-0.4,0.8-0.4h0.4c0.5,0,0.8,0.1,0.8,0.4v6c0,0.3-0.3,0.4-0.8,0.4h-0.4
		C77.4,267.8,77.1,267.7,77.1,267.4z"/>
	<path class="st3" d="M83,266.4l0.4-0.1c0.1,0,0.2,0.1,0.3,0.4c0.1,0.3,0.1,0.4,0.1,0.6c0,0.4-0.4,0.6-1.2,0.6
		c-1.3,0-1.9-0.7-1.9-2.1v-7.4c0-0.3,0.3-0.4,0.8-0.4h0.4c0.5,0,0.8,0.1,0.8,0.4v7.4C82.6,266.2,82.7,266.4,83,266.4z"/>
	<path class="st3" d="M85.2,259.9c-0.5,0-0.8-0.1-0.8-0.4v-1.1c0-0.3,0.3-0.4,0.8-0.4h0.4c0.5,0,0.8,0.1,0.8,0.4v1.1
		c0,0.3-0.3,0.4-0.8,0.4H85.2z M84.4,267.4v-6c0-0.3,0.3-0.4,0.8-0.4h0.4c0.5,0,0.8,0.1,0.8,0.4v6c0,0.3-0.3,0.4-0.8,0.4h-0.4
		C84.7,267.8,84.4,267.7,84.4,267.4z"/>
	<path class="st3" d="M88.5,267c-0.6-0.6-0.8-1.5-0.8-2.6s0.3-2,0.8-2.6c0.6-0.6,1.3-0.9,2.3-0.9s1.7,0.3,2.1,0.9s0.7,1.4,0.7,2.4
		c0,0.1-0.1,0.3-0.3,0.5c-0.2,0.2-0.3,0.3-0.4,0.3h-3.3c0,0.5,0.2,0.8,0.4,1.1c0.3,0.2,0.6,0.3,1,0.3s0.8-0.1,1.1-0.2
		c0.4-0.1,0.5-0.2,0.5-0.2c0.1,0,0.3,0.1,0.4,0.4c0.2,0.3,0.2,0.5,0.2,0.6c0,0.3-0.3,0.5-0.8,0.7s-1.1,0.3-1.5,0.3
		C89.9,267.9,89.1,267.6,88.5,267z M91.8,263.7c0-0.4-0.1-0.7-0.2-1c-0.2-0.2-0.4-0.4-0.7-0.4c-0.6,0-1,0.4-1.2,1.3H91.8z"/>
	<path class="st3" d="M94.9,267.4v-4.1c0-0.7,0-1.1-0.1-1.4c-0.1-0.3-0.1-0.4-0.1-0.5c0-0.1,0.2-0.2,0.5-0.3
		c0.4-0.1,0.6-0.1,0.8-0.1s0.3,0,0.3,0.1c0.1,0,0.1,0.1,0.1,0.2c0,0.1,0.1,0.1,0.1,0.2c0,0,0,0.1,0.1,0.2c0,0.1,0,0.2,0,0.2
		c0.2-0.3,0.5-0.5,0.8-0.7c0.3-0.2,0.7-0.3,1.1-0.3c0.6,0,1.1,0.2,1.4,0.5c0.3,0.3,0.5,0.9,0.5,1.6v4.4c0,0.3-0.3,0.4-0.8,0.4h-0.4
		c-0.5,0-0.8-0.1-0.8-0.4v-4.1c0-0.5-0.3-0.8-0.8-0.8c-0.4,0-0.8,0.3-1,0.8v4.2c0,0.3-0.3,0.4-0.8,0.4h-0.4
		C95.2,267.8,94.9,267.7,94.9,267.4z"/>
	<path class="st3" d="M102.7,267.1c-0.5-0.6-0.8-1.4-0.8-2.6s0.3-2.1,0.8-2.7s1.4-0.9,2.5-0.9c0.5,0,1,0.1,1.5,0.2
		c0.5,0.2,0.7,0.4,0.7,0.7c0,0.1-0.1,0.3-0.3,0.6s-0.3,0.4-0.4,0.4c0,0-0.1,0-0.2-0.1c-0.4-0.2-0.8-0.3-1.2-0.3
		c-0.4,0-0.8,0.2-1,0.5c-0.2,0.3-0.4,0.8-0.4,1.5s0.1,1.2,0.3,1.5s0.6,0.5,1,0.5c0.5,0,0.9-0.1,1.3-0.3c0.1-0.1,0.2-0.1,0.2-0.1
		c0.1,0,0.3,0.1,0.4,0.4c0.2,0.3,0.2,0.5,0.2,0.6s-0.1,0.3-0.3,0.4c-0.2,0.1-0.4,0.2-0.7,0.3c-0.6,0.1-1,0.2-1.3,0.2
		C104.1,267.9,103.3,267.6,102.7,267.1z"/>
	<path class="st3" d="M109.1,267c-0.6-0.6-0.8-1.5-0.8-2.6s0.3-2,0.8-2.6c0.6-0.6,1.3-0.9,2.3-0.9s1.7,0.3,2.1,0.9s0.7,1.4,0.7,2.4
		c0,0.1-0.1,0.3-0.3,0.5c-0.2,0.2-0.3,0.3-0.4,0.3h-3.3c0,0.5,0.2,0.8,0.4,1.1c0.3,0.2,0.6,0.3,1,0.3s0.8-0.1,1.1-0.2
		c0.4-0.1,0.5-0.2,0.5-0.2c0.1,0,0.3,0.1,0.4,0.4c0.2,0.3,0.2,0.5,0.2,0.6c0,0.3-0.3,0.5-0.8,0.7s-1.1,0.3-1.5,0.3
		C110.5,267.9,109.6,267.6,109.1,267z M112.3,263.7c0-0.4-0.1-0.7-0.2-1c-0.2-0.2-0.4-0.4-0.7-0.4c-0.6,0-1,0.4-1.2,1.3H112.3z"/>
	<path class="st3" d="M115.2,269.4c-0.2,0-0.3,0-0.4-0.1c-0.1,0-0.2-0.1-0.2-0.2s0-0.2,0.1-0.5c0.3-0.7,0.4-1.4,0.4-2.3
		c0-0.4,0.3-0.6,0.8-0.6h0.2c0.5,0,0.8,0.2,0.8,0.6c0,0.5-0.1,0.9-0.3,1.4c-0.2,0.5-0.5,0.9-0.8,1.2S115.3,269.4,115.2,269.4z"/>
	<path class="st3" d="M121.3,267.3v-8.1c0-0.3,0.2-0.5,0.5-0.5h4.8c0.3,0,0.4,0.2,0.4,0.6v0.4c0,0.4-0.1,0.6-0.4,0.6h-3.3v1.9h2.9
		c0.3,0,0.4,0.2,0.4,0.6v0.4c0,0.4-0.1,0.7-0.4,0.7h-2.9v2.1h3.3c0.3,0,0.4,0.2,0.4,0.7v0.4c0,0.4-0.1,0.7-0.4,0.7h-4.8
		C121.4,267.8,121.3,267.6,121.3,267.3z"/>
	<path class="st3" d="M128.8,267.1c-0.5-0.6-0.8-1.4-0.8-2.6s0.3-2.1,0.8-2.7s1.4-0.9,2.5-0.9c0.5,0,1,0.1,1.5,0.2
		c0.5,0.2,0.7,0.4,0.7,0.7c0,0.1-0.1,0.3-0.3,0.6s-0.3,0.4-0.4,0.4c0,0-0.1,0-0.2-0.1c-0.4-0.2-0.8-0.3-1.2-0.3
		c-0.4,0-0.8,0.2-1,0.5c-0.2,0.3-0.4,0.8-0.4,1.5s0.1,1.2,0.3,1.5s0.6,0.5,1,0.5c0.5,0,0.9-0.1,1.3-0.3c0.1-0.1,0.2-0.1,0.2-0.1
		c0.1,0,0.3,0.1,0.4,0.4c0.2,0.3,0.2,0.5,0.2,0.6s-0.1,0.3-0.3,0.4c-0.2,0.1-0.4,0.2-0.7,0.3c-0.6,0.1-1,0.2-1.3,0.2
		C130.2,267.9,129.4,267.6,128.8,267.1z"/>
	<path class="st3" d="M135.1,267c-0.5-0.6-0.8-1.5-0.8-2.6c0-1.1,0.3-2,0.8-2.6c0.5-0.6,1.3-0.9,2.4-0.9c1,0,1.8,0.3,2.3,0.9
		c0.5,0.6,0.8,1.5,0.8,2.6c0,1.1-0.3,2-0.8,2.6c-0.5,0.6-1.3,0.9-2.3,0.9C136.4,267.9,135.7,267.6,135.1,267z M136.3,264.4
		c0,1.3,0.4,2,1.2,2c0.8,0,1.2-0.7,1.2-2s-0.4-2-1.2-2C136.7,262.4,136.3,263.1,136.3,264.4z"/>
	<path class="st3" d="M142,267.4v-4.1c0-0.7,0-1.1-0.1-1.4c-0.1-0.3-0.1-0.4-0.1-0.5c0-0.1,0.2-0.2,0.5-0.3c0.4-0.1,0.6-0.1,0.8-0.1
		s0.3,0,0.3,0.1c0.1,0,0.1,0.1,0.1,0.2c0,0.1,0.1,0.1,0.1,0.2c0,0,0,0.1,0.1,0.2c0,0.1,0,0.2,0,0.2c0.2-0.3,0.5-0.5,0.8-0.7
		c0.3-0.2,0.7-0.3,1.1-0.3c0.6,0,1.1,0.2,1.4,0.5c0.3,0.3,0.5,0.9,0.5,1.6v4.4c0,0.3-0.3,0.4-0.8,0.4h-0.4c-0.5,0-0.8-0.1-0.8-0.4
		v-4.1c0-0.5-0.3-0.8-0.8-0.8c-0.4,0-0.8,0.3-1,0.8v4.2c0,0.3-0.3,0.4-0.8,0.4h-0.4C142.2,267.8,142,267.7,142,267.4z"/>
	<path class="st3" d="M149.8,267c-0.5-0.6-0.8-1.5-0.8-2.6c0-1.1,0.3-2,0.8-2.6c0.5-0.6,1.3-0.9,2.4-0.9c1,0,1.8,0.3,2.3,0.9
		c0.5,0.6,0.8,1.5,0.8,2.6c0,1.1-0.3,2-0.8,2.6c-0.5,0.6-1.3,0.9-2.3,0.9C151.1,267.9,150.3,267.6,149.8,267z M150.9,264.4
		c0,1.3,0.4,2,1.2,2c0.8,0,1.2-0.7,1.2-2s-0.4-2-1.2-2C151.3,262.4,150.9,263.1,150.9,264.4z"/>
	<path class="st3" d="M156.6,267.4v-4.1c0-0.7,0-1.1-0.1-1.4c-0.1-0.3-0.1-0.4-0.1-0.5c0-0.1,0.2-0.2,0.5-0.3
		c0.4-0.1,0.6-0.1,0.8-0.1s0.3,0,0.3,0.1c0.1,0,0.1,0.1,0.1,0.2c0,0.1,0.1,0.1,0.1,0.2c0,0,0,0.1,0.1,0.2c0,0.1,0,0.2,0,0.2
		c0.2-0.3,0.5-0.5,0.8-0.7c0.3-0.2,0.7-0.3,1.1-0.3c0.9,0,1.5,0.3,1.7,1c0.2-0.3,0.5-0.5,0.9-0.7c0.4-0.2,0.7-0.3,1.1-0.3
		c0.6,0,1.1,0.2,1.4,0.5c0.3,0.3,0.5,0.9,0.5,1.6v4.4c0,0.3-0.3,0.4-0.8,0.4h-0.4c-0.5,0-0.8-0.1-0.8-0.4v-4.1
		c0-0.5-0.3-0.8-0.8-0.8c-0.4,0-0.8,0.3-1,0.8v4.2c0,0.3-0.3,0.4-0.8,0.4h-0.4c-0.5,0-0.8-0.1-0.8-0.4v-4.1c0-0.5-0.3-0.8-0.8-0.8
		c-0.4,0-0.8,0.3-1,0.8v4.2c0,0.3-0.3,0.4-0.8,0.4h-0.4C156.9,267.8,156.6,267.7,156.6,267.4z"/>
	<path class="st3" d="M168.4,259.9c-0.5,0-0.8-0.1-0.8-0.4v-1.1c0-0.3,0.3-0.4,0.8-0.4h0.4c0.5,0,0.8,0.1,0.8,0.4v1.1
		c0,0.3-0.3,0.4-0.8,0.4H168.4z M167.6,267.4v-6c0-0.3,0.3-0.4,0.8-0.4h0.4c0.5,0,0.8,0.1,0.8,0.4v6c0,0.3-0.3,0.4-0.8,0.4h-0.4
		C167.9,267.8,167.6,267.7,167.6,267.4z"/>
	<path class="st3" d="M171.7,267c-0.6-0.6-0.8-1.5-0.8-2.6s0.3-2,0.8-2.6c0.6-0.6,1.3-0.9,2.3-0.9s1.7,0.3,2.1,0.9
		c0.5,0.6,0.7,1.4,0.7,2.4c0,0.1-0.1,0.3-0.3,0.5c-0.2,0.2-0.3,0.3-0.4,0.3h-3.3c0,0.5,0.2,0.8,0.4,1.1c0.3,0.2,0.6,0.3,1,0.3
		s0.8-0.1,1.1-0.2c0.4-0.1,0.5-0.2,0.5-0.2c0.1,0,0.3,0.1,0.4,0.4s0.2,0.5,0.2,0.6c0,0.3-0.3,0.5-0.8,0.7s-1.1,0.3-1.5,0.3
		C173.1,267.9,172.2,267.6,171.7,267z M174.9,263.7c0-0.4-0.1-0.7-0.2-1c-0.2-0.2-0.4-0.4-0.7-0.4c-0.6,0-1,0.4-1.2,1.3H174.9z"/>
	<path class="st3" d="M181.8,267.1c-0.5-0.6-0.8-1.4-0.8-2.6s0.3-2.1,0.8-2.7s1.4-0.9,2.5-0.9c0.5,0,1,0.1,1.5,0.2
		c0.5,0.2,0.7,0.4,0.7,0.7c0,0.1-0.1,0.3-0.3,0.6s-0.3,0.4-0.4,0.4c0,0-0.1,0-0.2-0.1c-0.4-0.2-0.8-0.3-1.2-0.3
		c-0.4,0-0.8,0.2-1,0.5c-0.2,0.3-0.4,0.8-0.4,1.5s0.1,1.2,0.3,1.5s0.6,0.5,1,0.5s0.9-0.1,1.3-0.3c0.1-0.1,0.2-0.1,0.2-0.1
		c0.1,0,0.3,0.1,0.4,0.4s0.2,0.5,0.2,0.6s-0.1,0.3-0.3,0.4c-0.2,0.1-0.4,0.2-0.7,0.3c-0.6,0.1-1,0.2-1.3,0.2
		C183.1,267.9,182.3,267.6,181.8,267.1z"/>
	<path class="st3" d="M188.3,259.9c-0.5,0-0.8-0.1-0.8-0.4v-1.1c0-0.3,0.3-0.4,0.8-0.4h0.4c0.5,0,0.8,0.1,0.8,0.4v1.1
		c0,0.3-0.3,0.4-0.8,0.4H188.3z M187.5,267.4v-6c0-0.3,0.3-0.4,0.8-0.4h0.4c0.5,0,0.8,0.1,0.8,0.4v6c0,0.3-0.3,0.4-0.8,0.4h-0.4
		C187.7,267.8,187.5,267.7,187.5,267.4z"/>
	<path class="st3" d="M191,267.4v-4.1c0-0.7,0-1.1-0.1-1.4c-0.1-0.3-0.1-0.4-0.1-0.5c0-0.1,0.2-0.2,0.5-0.3c0.4-0.1,0.6-0.1,0.8-0.1
		s0.3,0,0.3,0.1c0.1,0,0.1,0.1,0.1,0.2c0,0.1,0.1,0.1,0.1,0.2c0,0,0,0.1,0.1,0.2s0,0.2,0,0.2c0.4-0.7,0.8-1,1.4-1
		c0.3,0,0.5,0.1,0.6,0.2s0.2,0.3,0.2,0.5c0,0.2,0,0.4-0.1,0.7c-0.1,0.3-0.2,0.4-0.3,0.4c-0.1,0-0.1,0-0.3-0.1
		c-0.1,0-0.2-0.1-0.3-0.1c-0.4,0-0.8,0.2-1,0.6v4.2c0,0.3-0.3,0.4-0.8,0.4h-0.4C191.2,267.8,191,267.7,191,267.4z"/>
	<path class="st3" d="M196.3,267.1c-0.5-0.6-0.8-1.4-0.8-2.6s0.3-2.1,0.8-2.7s1.4-0.9,2.5-0.9c0.5,0,1,0.1,1.5,0.2
		c0.5,0.2,0.7,0.4,0.7,0.7c0,0.1-0.1,0.3-0.3,0.6s-0.3,0.4-0.4,0.4c0,0-0.1,0-0.2-0.1c-0.4-0.2-0.8-0.3-1.2-0.3
		c-0.4,0-0.8,0.2-1,0.5c-0.2,0.3-0.4,0.8-0.4,1.5s0.1,1.2,0.3,1.5s0.6,0.5,1,0.5s0.9-0.1,1.3-0.3c0.1-0.1,0.2-0.1,0.2-0.1
		c0.1,0,0.3,0.1,0.4,0.4s0.2,0.5,0.2,0.6s-0.1,0.3-0.3,0.4c-0.2,0.1-0.4,0.2-0.7,0.3c-0.6,0.1-1,0.2-1.3,0.2
		C197.6,267.9,196.8,267.6,196.3,267.1z"/>
	<path class="st3" d="M202,265.8v-4.4c0-0.3,0.3-0.4,0.8-0.4h0.4c0.5,0,0.8,0.1,0.8,0.4v4.1c0,0.5,0.3,0.8,0.8,0.8
		c0.4,0,0.8-0.3,1-0.8v-4.2c0-0.3,0.3-0.4,0.8-0.4h0.4c0.5,0,0.8,0.1,0.8,0.4v4.1c0,0.5,0,1,0.1,1.4l0.1,0.5c0,0.1-0.2,0.2-0.5,0.3
		s-0.6,0.1-0.8,0.1c-0.2,0-0.3,0-0.3-0.1c-0.1,0-0.1-0.1-0.1-0.2c0-0.1-0.1-0.1-0.1-0.2s0-0.1-0.1-0.3s0-0.2,0-0.2
		c-0.2,0.3-0.5,0.5-0.8,0.7c-0.3,0.2-0.7,0.3-1.1,0.3c-0.6,0-1.1-0.2-1.4-0.5C202.1,267,202,266.5,202,265.8z"/>
	<path class="st3" d="M211.7,266.4l0.4-0.1c0.1,0,0.2,0.1,0.3,0.4c0.1,0.3,0.1,0.4,0.1,0.6c0,0.4-0.4,0.6-1.2,0.6
		c-1.3,0-1.9-0.7-1.9-2.1v-7.4c0-0.3,0.3-0.4,0.8-0.4h0.4c0.5,0,0.8,0.1,0.8,0.4v7.4C211.2,266.2,211.4,266.4,211.7,266.4z"/>
	<path class="st3" d="M212.9,266c0-0.2,0-0.5,0.1-0.7c0-0.2,0.1-0.4,0.3-0.6s0.4-0.4,0.6-0.6c0.6-0.4,1.5-0.5,2.7-0.5v-0.4
		c0-0.5-0.3-0.7-1-0.7c-0.5,0-0.9,0.1-1.4,0.3c-0.2,0.1-0.2,0.1-0.3,0.1c-0.1,0-0.3-0.1-0.4-0.4c-0.2-0.3-0.2-0.5-0.2-0.6
		c0-0.2,0.2-0.4,0.7-0.6s1.1-0.3,1.8-0.3c1.9,0,2.8,0.7,2.8,2.2v2.4c0,0.5,0,1,0.1,1.4l0.1,0.5c0,0.1-0.2,0.2-0.5,0.3
		c-0.4,0.1-0.6,0.1-0.8,0.1c-0.2,0-0.3,0-0.3-0.1c-0.1,0-0.1-0.1-0.1-0.2c0-0.1-0.1-0.1-0.1-0.2c0,0,0-0.1-0.1-0.3
		c0-0.1,0-0.2,0-0.2c-0.2,0.3-0.4,0.5-0.8,0.7c-0.4,0.2-0.8,0.3-1.1,0.3c-0.7,0-1.2-0.2-1.5-0.5S212.9,266.6,212.9,266z
		 M214.8,265.8c0,0.2,0.1,0.3,0.2,0.4c0.1,0.1,0.3,0.2,0.5,0.2s0.4-0.1,0.7-0.2c0.2-0.2,0.4-0.4,0.5-0.6v-0.7
		C215.4,264.9,214.8,265.2,214.8,265.8z"/>
	<path class="st3" d="M220.9,259.9c-0.5,0-0.8-0.1-0.8-0.4v-1.1c0-0.3,0.3-0.4,0.8-0.4h0.4c0.5,0,0.8,0.1,0.8,0.4v1.1
		c0,0.3-0.3,0.4-0.8,0.4H220.9z M220.2,267.4v-6c0-0.3,0.3-0.4,0.8-0.4h0.4c0.5,0,0.8,0.1,0.8,0.4v6c0,0.3-0.3,0.4-0.8,0.4h-0.4
		C220.4,267.8,220.2,267.7,220.2,267.4z"/>
	<path class="st3" d="M223.7,267.4v-4.1c0-0.7,0-1.1-0.1-1.4c-0.1-0.3-0.1-0.4-0.1-0.5c0-0.1,0.2-0.2,0.5-0.3
		c0.4-0.1,0.6-0.1,0.8-0.1s0.3,0,0.3,0.1c0.1,0,0.1,0.1,0.1,0.2c0,0.1,0.1,0.1,0.1,0.2c0,0,0,0.1,0.1,0.2s0,0.2,0,0.2
		c0.4-0.7,0.8-1,1.4-1c0.3,0,0.5,0.1,0.6,0.2s0.2,0.3,0.2,0.5c0,0.2,0,0.4-0.1,0.7c-0.1,0.3-0.2,0.4-0.3,0.4c-0.1,0-0.1,0-0.3-0.1
		c-0.1,0-0.2-0.1-0.3-0.1c-0.4,0-0.8,0.2-1,0.6v4.2c0,0.3-0.3,0.4-0.8,0.4h-0.4C223.9,267.8,223.7,267.7,223.7,267.4z"/>
	<path class="st3" d="M229,267c-0.6-0.6-0.8-1.5-0.8-2.6s0.3-2,0.8-2.6c0.6-0.6,1.3-0.9,2.3-0.9s1.7,0.3,2.1,0.9
		c0.5,0.6,0.7,1.4,0.7,2.4c0,0.1-0.1,0.3-0.3,0.5c-0.2,0.2-0.3,0.3-0.4,0.3h-3.3c0,0.5,0.2,0.8,0.4,1.1c0.3,0.2,0.6,0.3,1,0.3
		c0.4,0,0.8-0.1,1.1-0.2c0.4-0.1,0.5-0.2,0.5-0.2c0.1,0,0.3,0.1,0.4,0.4c0.2,0.3,0.2,0.5,0.2,0.6c0,0.3-0.3,0.5-0.8,0.7
		c-0.5,0.2-1.1,0.3-1.5,0.3C230.4,267.9,229.5,267.6,229,267z M232.2,263.7c0-0.4-0.1-0.7-0.2-1s-0.4-0.4-0.7-0.4
		c-0.6,0-1,0.4-1.2,1.3H232.2z"/>
	<path class="st3" d="M235.1,269.4c-0.2,0-0.3,0-0.4-0.1c-0.1,0-0.2-0.1-0.2-0.2s0-0.2,0.1-0.5c0.3-0.7,0.4-1.4,0.4-2.3
		c0-0.4,0.3-0.6,0.8-0.6h0.2c0.5,0,0.8,0.2,0.8,0.6c0,0.5-0.1,0.9-0.3,1.4c-0.2,0.5-0.5,0.9-0.8,1.2
		C235.5,269.3,235.3,269.4,235.1,269.4z"/>
	<path class="st3" d="M241.1,267.4v-8.3c0-0.3,0.3-0.4,0.8-0.4h0.5c0.5,0,0.8,0.1,0.8,0.4v8.3c0,0.3-0.3,0.4-0.8,0.4h-0.5
		C241.4,267.8,241.1,267.7,241.1,267.4z"/>
	<path class="st3" d="M244.8,267.4v-4.1c0-0.7,0-1.1-0.1-1.4c-0.1-0.3-0.1-0.4-0.1-0.5c0-0.1,0.2-0.2,0.5-0.3
		c0.4-0.1,0.6-0.1,0.8-0.1s0.3,0,0.3,0.1c0.1,0,0.1,0.1,0.1,0.2c0,0.1,0.1,0.1,0.1,0.2c0,0,0,0.1,0.1,0.2s0,0.2,0,0.2
		c0.2-0.3,0.5-0.5,0.8-0.7c0.3-0.2,0.7-0.3,1.1-0.3c0.6,0,1.1,0.2,1.4,0.5c0.3,0.3,0.5,0.9,0.5,1.6v4.4c0,0.3-0.3,0.4-0.8,0.4h-0.4
		c-0.5,0-0.8-0.1-0.8-0.4v-4.1c0-0.5-0.3-0.8-0.8-0.8c-0.4,0-0.8,0.3-1,0.8v4.2c0,0.3-0.3,0.4-0.8,0.4h-0.4
		C245,267.8,244.8,267.7,244.8,267.4z"/>
	<path class="st3" d="M252,267.4v-4.1c0-0.7,0-1.1-0.1-1.4c-0.1-0.3-0.1-0.4-0.1-0.5c0-0.1,0.2-0.2,0.5-0.3c0.4-0.1,0.6-0.1,0.8-0.1
		s0.3,0,0.3,0.1c0.1,0,0.1,0.1,0.1,0.2c0,0.1,0.1,0.1,0.1,0.2c0,0,0,0.1,0.1,0.2s0,0.2,0,0.2c0.2-0.3,0.5-0.5,0.8-0.7
		c0.3-0.2,0.7-0.3,1.1-0.3c0.6,0,1.1,0.2,1.4,0.5c0.3,0.3,0.5,0.9,0.5,1.6v4.4c0,0.3-0.3,0.4-0.8,0.4h-0.4c-0.5,0-0.8-0.1-0.8-0.4
		v-4.1c0-0.5-0.3-0.8-0.8-0.8c-0.4,0-0.8,0.3-1,0.8v4.2c0,0.3-0.3,0.4-0.8,0.4h-0.4C252.3,267.8,252,267.7,252,267.4z"/>
	<path class="st3" d="M259.8,267c-0.5-0.6-0.8-1.5-0.8-2.6c0-1.1,0.3-2,0.8-2.6c0.5-0.6,1.3-0.9,2.4-0.9s1.8,0.3,2.3,0.9
		s0.8,1.5,0.8,2.6c0,1.1-0.3,2-0.8,2.6c-0.5,0.6-1.3,0.9-2.3,0.9S260.3,267.6,259.8,267z M260.9,264.4c0,1.3,0.4,2,1.2,2
		s1.2-0.7,1.2-2s-0.4-2-1.2-2S260.9,263.1,260.9,264.4z"/>
	<path class="st3" d="M265.9,261.3c0-0.2,0.3-0.3,0.8-0.3h0.4c0.4,0,0.7,0.1,0.7,0.3l0.8,2.4c0,0.1,0.1,0.6,0.4,1.6h0.1
		c0.2-0.8,0.3-1.3,0.4-1.6l0.8-2.4c0.1-0.2,0.3-0.3,0.7-0.3h0.3c0.5,0,0.8,0.1,0.8,0.3c0,0.1,0,0.1,0,0.2l-2.1,6.1
		c-0.1,0.2-0.3,0.3-0.7,0.3h-0.4c-0.4,0-0.7-0.1-0.7-0.3l-2.1-6.1C266,261.4,265.9,261.3,265.9,261.3z"/>
	<path class="st3" d="M272.7,266c0-0.2,0-0.5,0.1-0.7c0-0.2,0.1-0.4,0.3-0.6s0.4-0.4,0.6-0.6c0.6-0.4,1.5-0.5,2.7-0.5v-0.4
		c0-0.5-0.3-0.7-1-0.7c-0.5,0-0.9,0.1-1.4,0.3c-0.2,0.1-0.2,0.1-0.3,0.1c-0.1,0-0.3-0.1-0.4-0.4c-0.2-0.3-0.2-0.5-0.2-0.6
		c0-0.2,0.2-0.4,0.7-0.6s1.1-0.3,1.8-0.3c1.9,0,2.8,0.7,2.8,2.2v2.4c0,0.5,0,1,0.1,1.4l0.1,0.5c0,0.1-0.2,0.2-0.5,0.3
		c-0.4,0.1-0.6,0.1-0.8,0.1c-0.2,0-0.3,0-0.3-0.1c-0.1,0-0.1-0.1-0.1-0.2c0-0.1-0.1-0.1-0.1-0.2c0,0,0-0.1-0.1-0.3
		c0-0.1,0-0.2,0-0.2c-0.2,0.3-0.4,0.5-0.8,0.7c-0.4,0.2-0.8,0.3-1.1,0.3c-0.7,0-1.2-0.2-1.5-0.5S272.7,266.6,272.7,266z
		 M274.6,265.8c0,0.2,0.1,0.3,0.2,0.4c0.1,0.1,0.3,0.2,0.5,0.2s0.4-0.1,0.7-0.2c0.2-0.2,0.4-0.4,0.5-0.6v-0.7
		C275.2,264.9,274.6,265.2,274.6,265.8z"/>
	<path class="st3" d="M282.6,266.4l0.4-0.1c0.1,0,0.2,0.1,0.3,0.4c0.1,0.3,0.1,0.4,0.1,0.6c0,0.4-0.4,0.6-1.2,0.6
		c-1.3,0-1.9-0.7-1.9-2.1v-3.3H280c-0.3,0-0.4-0.2-0.4-0.6v-0.2c0-0.4,0.1-0.6,0.4-0.6h0.2l0.2-1.2c0-0.3,0.3-0.4,0.7-0.4h0.4
		c0.4,0,0.6,0.1,0.6,0.4v1.2h0.6c0.3,0,0.4,0.2,0.4,0.6v0.2c0,0.4-0.1,0.6-0.4,0.6h-0.6v3.3C282.2,266.2,282.3,266.4,282.6,266.4z"
		/>
	<path class="st3" d="M285.2,259.9c-0.5,0-0.8-0.1-0.8-0.4v-1.1c0-0.3,0.3-0.4,0.8-0.4h0.4c0.5,0,0.8,0.1,0.8,0.4v1.1
		c0,0.3-0.3,0.4-0.8,0.4H285.2z M284.5,267.4v-6c0-0.3,0.3-0.4,0.8-0.4h0.4c0.5,0,0.8,0.1,0.8,0.4v6c0,0.3-0.3,0.4-0.8,0.4h-0.4
		C284.7,267.8,284.5,267.7,284.5,267.4z"/>
	<path class="st3" d="M288.5,267c-0.5-0.6-0.8-1.5-0.8-2.6c0-1.1,0.3-2,0.8-2.6c0.5-0.6,1.3-0.9,2.4-0.9s1.8,0.3,2.3,0.9
		s0.8,1.5,0.8,2.6c0,1.1-0.3,2-0.8,2.6c-0.5,0.6-1.3,0.9-2.3,0.9S289,267.6,288.5,267z M289.6,264.4c0,1.3,0.4,2,1.2,2
		s1.2-0.7,1.2-2s-0.4-2-1.2-2S289.6,263.1,289.6,264.4z"/>
	<path class="st3" d="M295.3,267.4v-4.1c0-0.7,0-1.1-0.1-1.4c-0.1-0.3-0.1-0.4-0.1-0.5c0-0.1,0.2-0.2,0.5-0.3
		c0.4-0.1,0.6-0.1,0.8-0.1s0.3,0,0.3,0.1c0.1,0,0.1,0.1,0.1,0.2c0,0.1,0.1,0.1,0.1,0.2c0,0,0,0.1,0.1,0.2s0,0.2,0,0.2
		c0.2-0.3,0.5-0.5,0.8-0.7c0.3-0.2,0.7-0.3,1.1-0.3c0.6,0,1.1,0.2,1.4,0.5c0.3,0.3,0.5,0.9,0.5,1.6v4.4c0,0.3-0.3,0.4-0.8,0.4h-0.4
		c-0.5,0-0.8-0.1-0.8-0.4v-4.1c0-0.5-0.3-0.8-0.8-0.8c-0.4,0-0.8,0.3-1,0.8v4.2c0,0.3-0.3,0.4-0.8,0.4h-0.4
		C295.6,267.8,295.3,267.7,295.3,267.4z"/>
	<path class="st3" d="M302.3,269.4c-0.2,0-0.3,0-0.4-0.1c-0.1,0-0.2-0.1-0.2-0.2s0-0.2,0.1-0.5c0.3-0.7,0.4-1.4,0.4-2.3
		c0-0.4,0.3-0.6,0.8-0.6h0.2c0.5,0,0.8,0.2,0.8,0.6c0,0.5-0.1,0.9-0.3,1.4c-0.2,0.5-0.5,0.9-0.8,1.2
		C302.7,269.3,302.4,269.4,302.3,269.4z"/>
	<path class="st3" d="M69.9,286.7c-0.7-0.8-1.1-2-1.1-3.5s0.4-2.7,1.1-3.5c0.7-0.8,1.8-1.2,3.1-1.2s2.4,0.4,3.1,1.2
		c0.7,0.8,1.1,2,1.1,3.5s-0.4,2.6-1.1,3.5c-0.7,0.8-1.7,1.2-3.1,1.2S70.6,287.5,69.9,286.7z M71.4,285.4c0.4,0.5,0.9,0.8,1.6,0.8
		s1.2-0.3,1.6-0.8c0.4-0.5,0.5-1.2,0.5-2.2s-0.2-1.7-0.5-2.2c-0.4-0.5-0.9-0.7-1.6-0.7s-1.2,0.2-1.6,0.7c-0.4,0.5-0.5,1.2-0.5,2.2
		S71,284.9,71.4,285.4z"/>
	<path class="st3" d="M78.6,287.4v-9c0-0.3,0.3-0.4,0.8-0.4h0.4c0.5,0,0.8,0.1,0.8,0.4v2.9c0.4-0.3,0.8-0.4,1.3-0.4
		c0.9,0,1.5,0.3,2,0.9c0.5,0.6,0.7,1.5,0.7,2.6c0,1.1-0.2,1.9-0.7,2.6c-0.5,0.6-1,0.9-1.8,0.9c-0.4,0-0.7-0.1-1-0.3
		s-0.5-0.4-0.7-0.7l-0.1,0.6c-0.1,0.2-0.3,0.3-0.8,0.3h-0.2C78.8,287.8,78.6,287.7,78.6,287.4z M81.5,286.3c0.7,0,1.1-0.7,1.1-2
		c0-1.3-0.4-2-1.2-2c-0.3,0-0.6,0.1-0.9,0.2v2.9C80.8,286.1,81.1,286.3,81.5,286.3z"/>
	<path class="st3" d="M85.1,289l0.4,0.1c0.3,0,0.5-0.2,0.5-0.6v-7.1c0-0.3,0.3-0.4,0.8-0.4h0.4c0.5,0,0.8,0.1,0.8,0.4v7.1
		c0,0.7-0.2,1.2-0.5,1.6c-0.4,0.4-0.8,0.5-1.3,0.5c-0.5,0-0.9,0-1.1-0.1s-0.3-0.3-0.3-0.5c0-0.2,0-0.4,0.1-0.6
		C84.9,289.1,85,289,85.1,289z M86.8,279.9c-0.5,0-0.8-0.1-0.8-0.4v-1.1c0-0.3,0.3-0.4,0.8-0.4h0.4c0.5,0,0.8,0.1,0.8,0.4v1.1
		c0,0.3-0.3,0.4-0.8,0.4H86.8z"/>
	<path class="st3" d="M90.1,287c-0.6-0.6-0.8-1.5-0.8-2.6s0.3-2,0.8-2.6c0.6-0.6,1.3-0.9,2.3-0.9s1.7,0.3,2.1,0.9s0.7,1.4,0.7,2.4
		c0,0.1-0.1,0.3-0.3,0.5c-0.2,0.2-0.3,0.3-0.4,0.3h-3.3c0,0.5,0.2,0.8,0.4,1.1c0.3,0.2,0.6,0.3,1,0.3s0.8-0.1,1.1-0.2
		c0.4-0.1,0.5-0.2,0.5-0.2c0.1,0,0.3,0.1,0.4,0.4c0.2,0.3,0.2,0.5,0.2,0.6c0,0.3-0.3,0.5-0.8,0.7s-1.1,0.3-1.5,0.3
		C91.5,287.9,90.6,287.6,90.1,287z M93.3,283.7c0-0.4-0.1-0.7-0.2-1c-0.2-0.2-0.4-0.4-0.7-0.4c-0.6,0-1,0.4-1.2,1.3H93.3z"/>
	<path class="st3" d="M97,287.1c-0.5-0.6-0.8-1.4-0.8-2.6s0.3-2.1,0.8-2.7s1.4-0.9,2.5-0.9c0.5,0,1,0.1,1.5,0.2
		c0.5,0.2,0.7,0.4,0.7,0.7c0,0.1-0.1,0.3-0.3,0.6s-0.3,0.4-0.4,0.4c0,0-0.1,0-0.2-0.1c-0.4-0.2-0.8-0.3-1.2-0.3
		c-0.4,0-0.8,0.2-1,0.5c-0.2,0.3-0.4,0.8-0.4,1.5s0.1,1.2,0.3,1.5s0.6,0.5,1,0.5c0.5,0,0.9-0.1,1.3-0.3c0.1-0.1,0.2-0.1,0.2-0.1
		c0.1,0,0.3,0.1,0.4,0.4c0.2,0.3,0.2,0.5,0.2,0.6s-0.1,0.3-0.3,0.4c-0.2,0.1-0.4,0.2-0.7,0.3c-0.6,0.1-1,0.2-1.3,0.2
		C98.4,287.9,97.6,287.6,97,287.1z"/>
	<path class="st3" d="M105.4,286.4l0.4-0.1c0.1,0,0.2,0.1,0.3,0.4c0.1,0.3,0.1,0.4,0.1,0.6c0,0.4-0.4,0.6-1.2,0.6
		c-1.3,0-1.9-0.7-1.9-2.1v-3.3h-0.2c-0.3,0-0.4-0.2-0.4-0.6v-0.2c0-0.4,0.1-0.6,0.4-0.6h0.2l0.2-1.2c0-0.3,0.3-0.4,0.7-0.4h0.4
		c0.4,0,0.6,0.1,0.6,0.4v1.2h0.6c0.3,0,0.4,0.2,0.4,0.6v0.2c0,0.4-0.1,0.6-0.4,0.6h-0.6v3.3C104.9,286.2,105.1,286.4,105.4,286.4z"
		/>
	<path class="st3" d="M108,279.9c-0.5,0-0.8-0.1-0.8-0.4v-1.1c0-0.3,0.3-0.4,0.8-0.4h0.4c0.5,0,0.8,0.1,0.8,0.4v1.1
		c0,0.3-0.3,0.4-0.8,0.4H108z M107.2,287.4v-6c0-0.3,0.3-0.4,0.8-0.4h0.4c0.5,0,0.8,0.1,0.8,0.4v6c0,0.3-0.3,0.4-0.8,0.4H108
		C107.5,287.8,107.2,287.7,107.2,287.4z"/>
	<path class="st3" d="M113.7,279.5l-0.4-0.1c-0.3,0-0.5,0.2-0.5,0.6v1h0.6c0.3,0,0.4,0.2,0.4,0.6v0.2c0,0.4-0.1,0.6-0.4,0.6h-0.6
		v4.9c0,0.3-0.3,0.4-0.8,0.4h-0.4c-0.5,0-0.8-0.1-0.8-0.4v-4.9h-0.2c-0.3,0-0.4-0.2-0.4-0.6v-0.2c0-0.4,0.1-0.6,0.4-0.6h0.2v-1
		c0-1.4,0.6-2.1,1.9-2.1c0.9,0,1.3,0.2,1.3,0.6c0,0.1,0,0.3-0.1,0.6S113.8,279.5,113.7,279.5z"/>
	<path class="st3" d="M114.5,287c0-0.1,0.1-0.3,0.2-0.6c0.2-0.3,0.3-0.4,0.4-0.4c0,0,0.2,0.1,0.5,0.2c0.3,0.1,0.6,0.2,0.8,0.2
		c0.5,0,0.8-0.2,0.8-0.6c0-0.2-0.1-0.4-0.3-0.5c-0.2-0.1-0.4-0.2-0.6-0.3c-0.3-0.1-0.5-0.2-0.8-0.3c-0.3-0.1-0.5-0.3-0.6-0.6
		c-0.2-0.3-0.3-0.6-0.3-1.1c0-0.7,0.2-1.2,0.6-1.5c0.4-0.4,1-0.6,1.7-0.6c0.3,0,0.7,0,1,0.1c0.6,0.1,0.9,0.4,0.9,0.7
		c0,0.1-0.1,0.3-0.2,0.6c-0.1,0.3-0.3,0.4-0.4,0.4c0,0-0.1,0-0.4-0.1s-0.5-0.1-0.7-0.1c-0.5,0-0.7,0.2-0.7,0.5
		c0,0.2,0.1,0.3,0.3,0.4c0.2,0.1,0.4,0.2,0.6,0.3c0.3,0.1,0.5,0.2,0.8,0.3c0.3,0.1,0.5,0.3,0.6,0.6s0.3,0.6,0.3,1.1
		c0,0.7-0.2,1.2-0.7,1.6c-0.4,0.4-1,0.6-1.7,0.6c-0.7,0-1.2-0.1-1.7-0.2C114.7,287.5,114.5,287.3,114.5,287z"/>
	<path class="st3" d="M125.6,287.9c-0.7,0-1.3-0.3-1.8-0.9c-0.5-0.6-0.7-1.5-0.7-2.6c0-1.1,0.2-1.9,0.7-2.6c0.5-0.6,1.2-0.9,2-0.9
		c0.5,0,1,0.1,1.3,0.4v-2.9c0-0.3,0.3-0.4,0.8-0.4h0.4c0.5,0,0.8,0.1,0.8,0.4v7.1c0,0.5,0,1,0.1,1.4l0.1,0.5c0,0.1-0.2,0.2-0.5,0.3
		s-0.6,0.1-0.8,0.1s-0.3,0-0.3-0.1c-0.1,0-0.1-0.1-0.1-0.2s-0.1-0.1-0.1-0.2c0-0.1,0-0.1-0.1-0.3c0-0.1,0-0.2,0-0.2
		c-0.2,0.3-0.4,0.5-0.7,0.7S126,287.9,125.6,287.9z M126.1,286.3c0.4,0,0.8-0.3,1.1-0.8v-2.9c-0.3-0.2-0.6-0.2-0.9-0.2
		c-0.8,0-1.2,0.7-1.2,2C125.1,285.7,125.4,286.3,126.1,286.3z"/>
	<path class="st3" d="M131.3,287c-0.6-0.6-0.8-1.5-0.8-2.6s0.3-2,0.8-2.6c0.6-0.6,1.3-0.9,2.3-0.9s1.7,0.3,2.1,0.9s0.7,1.4,0.7,2.4
		c0,0.1-0.1,0.3-0.3,0.5c-0.2,0.2-0.3,0.3-0.4,0.3h-3.3c0,0.5,0.2,0.8,0.4,1.1c0.3,0.2,0.6,0.3,1,0.3s0.8-0.1,1.1-0.2
		c0.4-0.1,0.5-0.2,0.5-0.2c0.1,0,0.3,0.1,0.4,0.4c0.2,0.3,0.2,0.5,0.2,0.6c0,0.3-0.3,0.5-0.8,0.7s-1.1,0.3-1.5,0.3
		C132.7,287.9,131.9,287.6,131.3,287z M134.6,283.7c0-0.4-0.1-0.7-0.2-1c-0.2-0.2-0.4-0.4-0.7-0.4c-0.6,0-1,0.4-1.2,1.3H134.6z"/>
	<path class="st3" d="M141,287.3v-8.1c0-0.3,0.2-0.5,0.5-0.5h2.9c1.3,0,2.4,0.4,3.1,1.2c0.7,0.8,1.1,1.9,1.1,3.4s-0.4,2.6-1.1,3.4
		c-0.7,0.8-1.7,1.2-3.1,1.2h-2.9C141.1,287.8,141,287.6,141,287.3z M143,286.1h1.4c0.7,0,1.2-0.2,1.6-0.7s0.5-1.2,0.5-2.1
		s-0.2-1.6-0.5-2.1s-0.9-0.7-1.6-0.7H143V286.1z"/>
	<path class="st3" d="M150.5,287c-0.6-0.6-0.8-1.5-0.8-2.6s0.3-2,0.8-2.6c0.6-0.6,1.3-0.9,2.3-0.9s1.7,0.3,2.1,0.9s0.7,1.4,0.7,2.4
		c0,0.1-0.1,0.3-0.3,0.5c-0.2,0.2-0.3,0.3-0.4,0.3h-3.3c0,0.5,0.2,0.8,0.4,1.1c0.3,0.2,0.6,0.3,1,0.3s0.8-0.1,1.1-0.2
		c0.4-0.1,0.5-0.2,0.5-0.2c0.1,0,0.3,0.1,0.4,0.4c0.2,0.3,0.2,0.5,0.2,0.6c0,0.3-0.3,0.5-0.8,0.7s-1.1,0.3-1.5,0.3
		C151.9,287.9,151,287.6,150.5,287z M153.7,283.7c0-0.4-0.1-0.7-0.2-1c-0.2-0.2-0.4-0.4-0.7-0.4c-0.6,0-1,0.4-1.2,1.3H153.7z
		 M152.2,280.1c-0.3,0-0.4-0.1-0.4-0.2c0-0.1,0.1-0.2,0.2-0.4s0.2-0.4,0.3-0.6c0.1-0.2,0.2-0.4,0.3-0.5c0.1-0.2,0.5-0.4,1-0.4
		c0.6,0,0.8,0.1,0.8,0.2c0,0.1,0,0.1-0.1,0.2c-0.1,0.1-0.2,0.2-0.3,0.3c-0.2,0.2-0.3,0.3-0.3,0.3c-0.1,0.1-0.2,0.2-0.3,0.3
		c-0.1,0.1-0.2,0.3-0.4,0.4C152.9,280,152.6,280.1,152.2,280.1z"/>
	<path class="st3" d="M156.2,281.3c0-0.2,0.3-0.3,0.8-0.3h0.4c0.4,0,0.7,0.1,0.7,0.3l0.8,2.4c0,0.1,0.1,0.6,0.4,1.6h0.1
		c0.2-0.8,0.3-1.3,0.4-1.6l0.8-2.4c0.1-0.2,0.3-0.3,0.7-0.3h0.3c0.5,0,0.8,0.1,0.8,0.3c0,0.1,0,0.1,0,0.2l-2.1,6.1
		c-0.1,0.2-0.3,0.3-0.7,0.3H159c-0.4,0-0.7-0.1-0.7-0.3l-2.1-6.1C156.2,281.4,156.2,281.3,156.2,281.3z"/>
	<path class="st3" d="M163.8,287c-0.6-0.6-0.8-1.5-0.8-2.6s0.3-2,0.8-2.6c0.6-0.6,1.3-0.9,2.3-0.9s1.7,0.3,2.1,0.9s0.7,1.4,0.7,2.4
		c0,0.1-0.1,0.3-0.3,0.5c-0.2,0.2-0.3,0.3-0.4,0.3H165c0,0.5,0.2,0.8,0.4,1.1c0.3,0.2,0.6,0.3,1,0.3s0.8-0.1,1.1-0.2
		c0.4-0.1,0.5-0.2,0.5-0.2c0.1,0,0.3,0.1,0.4,0.4c0.2,0.3,0.2,0.5,0.2,0.6c0,0.3-0.3,0.5-0.8,0.7s-1.1,0.3-1.5,0.3
		C165.2,287.9,164.4,287.6,163.8,287z M167.1,283.7c0-0.4-0.1-0.7-0.2-1c-0.2-0.2-0.4-0.4-0.7-0.4c-0.6,0-1,0.4-1.2,1.3H167.1z"/>
	<path class="st3" d="M172.6,286.4l0.4-0.1c0.1,0,0.2,0.1,0.3,0.4c0.1,0.3,0.1,0.4,0.1,0.6c0,0.4-0.4,0.6-1.2,0.6
		c-1.3,0-1.9-0.7-1.9-2.1v-7.4c0-0.3,0.3-0.4,0.8-0.4h0.4c0.5,0,0.8,0.1,0.8,0.4v7.4C172.2,286.2,172.3,286.4,172.6,286.4z"/>
	<path class="st3" d="M174.6,287c-0.5-0.6-0.8-1.5-0.8-2.6c0-1.1,0.3-2,0.8-2.6c0.5-0.6,1.3-0.9,2.4-0.9s1.8,0.3,2.3,0.9
		s0.8,1.5,0.8,2.6c0,1.1-0.3,2-0.8,2.6c-0.5,0.6-1.3,0.9-2.3,0.9S175.2,287.6,174.6,287z M175.8,284.4c0,1.3,0.4,2,1.2,2
		s1.2-0.7,1.2-2s-0.4-2-1.2-2S175.8,283.1,175.8,284.4z"/>
	<path class="st3" d="M181.6,290.1v-6.8c0-0.7,0-1.1-0.1-1.4s-0.1-0.4-0.1-0.5c0-0.1,0.2-0.2,0.5-0.3c0.4-0.1,0.6-0.1,0.8-0.1
		c0.2,0,0.3,0,0.3,0.1c0.1,0,0.1,0.1,0.1,0.2c0,0.1,0.1,0.1,0.1,0.2c0,0.1,0,0.1,0.1,0.2c0,0.1,0,0.2,0,0.2c0.2-0.3,0.4-0.5,0.7-0.7
		s0.7-0.3,1-0.3c0.7,0,1.3,0.3,1.8,0.9c0.5,0.6,0.7,1.5,0.7,2.6c0,1.1-0.2,1.9-0.7,2.6c-0.5,0.6-1.2,0.9-2,0.9c-0.5,0-1-0.1-1.3-0.4
		v2.6c0,0.3-0.3,0.4-0.8,0.4h-0.4C181.8,290.5,181.6,290.3,181.6,290.1z M184.4,286.4c0.8,0,1.2-0.7,1.2-2c0-1.3-0.4-2-1.1-2
		c-0.4,0-0.8,0.3-1.1,0.8v2.9C183.8,286.3,184.1,286.4,184.4,286.4z"/>
	<path class="st3" d="M189,290.1v-6.8c0-0.7,0-1.1-0.1-1.4s-0.1-0.4-0.1-0.5c0-0.1,0.2-0.2,0.5-0.3c0.4-0.1,0.6-0.1,0.8-0.1
		c0.2,0,0.3,0,0.3,0.1c0.1,0,0.1,0.1,0.1,0.2c0,0.1,0.1,0.1,0.1,0.2c0,0.1,0,0.1,0.1,0.2c0,0.1,0,0.2,0,0.2c0.2-0.3,0.4-0.5,0.7-0.7
		s0.7-0.3,1-0.3c0.7,0,1.3,0.3,1.8,0.9c0.5,0.6,0.7,1.5,0.7,2.6c0,1.1-0.2,1.9-0.7,2.6c-0.5,0.6-1.2,0.9-2,0.9c-0.5,0-1-0.1-1.3-0.4
		v2.6c0,0.3-0.3,0.4-0.8,0.4h-0.4C189.3,290.5,189,290.3,189,290.1z M191.9,286.4c0.8,0,1.2-0.7,1.2-2c0-1.3-0.4-2-1.1-2
		c-0.4,0-0.8,0.3-1.1,0.8v2.9C191.3,286.3,191.6,286.4,191.9,286.4z"/>
	<path class="st3" d="M197,287c-0.6-0.6-0.8-1.5-0.8-2.6s0.3-2,0.8-2.6c0.6-0.6,1.3-0.9,2.3-0.9s1.7,0.3,2.1,0.9
		c0.5,0.6,0.7,1.4,0.7,2.4c0,0.1-0.1,0.3-0.3,0.5c-0.2,0.2-0.3,0.3-0.4,0.3h-3.3c0,0.5,0.2,0.8,0.4,1.1c0.3,0.2,0.6,0.3,1,0.3
		c0.4,0,0.8-0.1,1.1-0.2c0.4-0.1,0.5-0.2,0.5-0.2c0.1,0,0.3,0.1,0.4,0.4c0.2,0.3,0.2,0.5,0.2,0.6c0,0.3-0.3,0.5-0.8,0.7
		c-0.5,0.2-1.1,0.3-1.5,0.3C198.4,287.9,197.5,287.6,197,287z M200.2,283.7c0-0.4-0.1-0.7-0.2-1s-0.4-0.4-0.7-0.4
		c-0.6,0-1,0.4-1.2,1.3H200.2z"/>
	<path class="st3" d="M203.4,287.4v-4.1c0-0.7,0-1.1-0.1-1.4c-0.1-0.3-0.1-0.4-0.1-0.5c0-0.1,0.2-0.2,0.5-0.3
		c0.4-0.1,0.6-0.1,0.8-0.1s0.3,0,0.3,0.1c0.1,0,0.1,0.1,0.1,0.2c0,0.1,0.1,0.1,0.1,0.2c0,0,0,0.1,0.1,0.2s0,0.2,0,0.2
		c0.2-0.3,0.5-0.5,0.8-0.7c0.3-0.2,0.7-0.3,1.1-0.3c0.9,0,1.5,0.3,1.7,1c0.2-0.3,0.5-0.5,0.9-0.7c0.4-0.2,0.7-0.3,1.1-0.3
		c0.7,0,1.1,0.2,1.4,0.5c0.3,0.3,0.5,0.9,0.5,1.6v4.4c0,0.3-0.3,0.4-0.8,0.4h-0.4c-0.5,0-0.8-0.1-0.8-0.4v-4.1
		c0-0.5-0.3-0.8-0.8-0.8c-0.4,0-0.8,0.3-1,0.8v4.2c0,0.3-0.3,0.4-0.8,0.4h-0.4c-0.5,0-0.8-0.1-0.8-0.4v-4.1c0-0.5-0.3-0.8-0.8-0.8
		c-0.4,0-0.8,0.3-1,0.8v4.2c0,0.3-0.3,0.4-0.8,0.4h-0.4C203.7,287.8,203.4,287.7,203.4,287.4z"/>
	<path class="st3" d="M215,287c-0.6-0.6-0.8-1.5-0.8-2.6s0.3-2,0.8-2.6c0.6-0.6,1.3-0.9,2.3-0.9s1.7,0.3,2.1,0.9
		c0.5,0.6,0.7,1.4,0.7,2.4c0,0.1-0.1,0.3-0.3,0.5c-0.2,0.2-0.3,0.3-0.4,0.3h-3.3c0,0.5,0.2,0.8,0.4,1.1c0.3,0.2,0.6,0.3,1,0.3
		c0.4,0,0.8-0.1,1.1-0.2c0.4-0.1,0.5-0.2,0.5-0.2c0.1,0,0.3,0.1,0.4,0.4c0.2,0.3,0.2,0.5,0.2,0.6c0,0.3-0.3,0.5-0.8,0.7
		c-0.5,0.2-1.1,0.3-1.5,0.3C216.4,287.9,215.6,287.6,215,287z M218.2,283.7c0-0.4-0.1-0.7-0.2-1s-0.4-0.4-0.7-0.4
		c-0.6,0-1,0.4-1.2,1.3H218.2z"/>
	<path class="st3" d="M221.4,287.4v-4.1c0-0.7,0-1.1-0.1-1.4c-0.1-0.3-0.1-0.4-0.1-0.5c0-0.1,0.2-0.2,0.5-0.3
		c0.4-0.1,0.6-0.1,0.8-0.1s0.3,0,0.3,0.1c0.1,0,0.1,0.1,0.1,0.2c0,0.1,0.1,0.1,0.1,0.2c0,0,0,0.1,0.1,0.2s0,0.2,0,0.2
		c0.2-0.3,0.5-0.5,0.8-0.7c0.3-0.2,0.7-0.3,1.1-0.3c0.6,0,1.1,0.2,1.4,0.5c0.3,0.3,0.5,0.9,0.5,1.6v4.4c0,0.3-0.3,0.4-0.8,0.4h-0.4
		c-0.5,0-0.8-0.1-0.8-0.4v-4.1c0-0.5-0.3-0.8-0.8-0.8c-0.4,0-0.8,0.3-1,0.8v4.2c0,0.3-0.3,0.4-0.8,0.4h-0.4
		C221.7,287.8,221.4,287.7,221.4,287.4z"/>
	<path class="st3" d="M231.2,286.4l0.4-0.1c0.1,0,0.2,0.1,0.3,0.4c0.1,0.3,0.1,0.4,0.1,0.6c0,0.4-0.4,0.6-1.2,0.6
		c-1.3,0-1.9-0.7-1.9-2.1v-3.3h-0.2c-0.3,0-0.4-0.2-0.4-0.6v-0.2c0-0.4,0.1-0.6,0.4-0.6h0.2l0.2-1.2c0-0.3,0.3-0.4,0.7-0.4h0.4
		c0.4,0,0.6,0.1,0.6,0.4v1.2h0.6c0.3,0,0.4,0.2,0.4,0.6v0.2c0,0.4-0.1,0.6-0.4,0.6h-0.6v3.3C230.8,286.2,230.9,286.4,231.2,286.4z"
		/>
	<path class="st3" d="M236.3,287.3v-8.1c0-0.3,0.2-0.5,0.5-0.5h2.9c1.3,0,2.4,0.4,3.1,1.2c0.7,0.8,1.1,1.9,1.1,3.4s-0.4,2.6-1.1,3.4
		c-0.7,0.8-1.7,1.2-3.1,1.2h-2.9C236.5,287.8,236.3,287.6,236.3,287.3z M238.3,286.1h1.4c0.7,0,1.2-0.2,1.6-0.7
		c0.4-0.5,0.5-1.2,0.5-2.1s-0.2-1.6-0.5-2.1c-0.4-0.5-0.9-0.7-1.6-0.7h-1.4V286.1z"/>
	<path class="st3" d="M245.2,285.8v-4.4c0-0.3,0.3-0.4,0.8-0.4h0.4c0.5,0,0.8,0.1,0.8,0.4v4.1c0,0.5,0.3,0.8,0.8,0.8
		c0.4,0,0.8-0.3,1-0.8v-4.2c0-0.3,0.3-0.4,0.8-0.4h0.4c0.5,0,0.8,0.1,0.8,0.4v4.1c0,0.5,0,1,0.1,1.4l0.1,0.5c0,0.1-0.2,0.2-0.5,0.3
		s-0.6,0.1-0.8,0.1c-0.2,0-0.3,0-0.3-0.1c-0.1,0-0.1-0.1-0.1-0.2c0-0.1-0.1-0.1-0.1-0.2s0-0.1-0.1-0.3s0-0.2,0-0.2
		c-0.2,0.3-0.5,0.5-0.8,0.7c-0.3,0.2-0.7,0.3-1.1,0.3c-0.6,0-1.1-0.2-1.4-0.5C245.4,287,245.2,286.5,245.2,285.8z"/>
	<path class="st3" d="M252.5,287.4v-4.1c0-0.7,0-1.1-0.1-1.4c-0.1-0.3-0.1-0.4-0.1-0.5c0-0.1,0.2-0.2,0.5-0.3
		c0.4-0.1,0.6-0.1,0.8-0.1s0.3,0,0.3,0.1c0.1,0,0.1,0.1,0.1,0.2c0,0.1,0.1,0.1,0.1,0.2c0,0,0,0.1,0.1,0.2s0,0.2,0,0.2
		c0.4-0.7,0.8-1,1.4-1c0.3,0,0.5,0.1,0.6,0.2s0.2,0.3,0.2,0.5c0,0.2,0,0.4-0.1,0.7c-0.1,0.3-0.2,0.4-0.3,0.4c-0.1,0-0.1,0-0.3-0.1
		c-0.1,0-0.2-0.1-0.3-0.1c-0.4,0-0.8,0.2-1,0.6v4.2c0,0.3-0.3,0.4-0.8,0.4h-0.4C252.8,287.8,252.5,287.7,252.5,287.4z"/>
	<path class="st3" d="M257,286c0-0.2,0-0.5,0.1-0.7c0-0.2,0.1-0.4,0.3-0.6s0.4-0.4,0.6-0.6c0.6-0.4,1.5-0.5,2.7-0.5v-0.4
		c0-0.5-0.3-0.7-1-0.7c-0.5,0-0.9,0.1-1.4,0.3c-0.2,0.1-0.2,0.1-0.3,0.1c-0.1,0-0.3-0.1-0.4-0.4c-0.2-0.3-0.2-0.5-0.2-0.6
		c0-0.2,0.2-0.4,0.7-0.6s1.1-0.3,1.8-0.3c1.9,0,2.8,0.7,2.8,2.2v2.4c0,0.5,0,1,0.1,1.4l0.1,0.5c0,0.1-0.2,0.2-0.5,0.3
		c-0.4,0.1-0.6,0.1-0.8,0.1c-0.2,0-0.3,0-0.3-0.1c-0.1,0-0.1-0.1-0.1-0.2c0-0.1-0.1-0.1-0.1-0.2c0,0,0-0.1-0.1-0.3
		c0-0.1,0-0.2,0-0.2c-0.2,0.3-0.4,0.5-0.8,0.7c-0.4,0.2-0.8,0.3-1.1,0.3c-0.7,0-1.2-0.2-1.5-0.5S257,286.6,257,286z M258.9,285.8
		c0,0.2,0.1,0.3,0.2,0.4c0.1,0.1,0.3,0.2,0.5,0.2s0.4-0.1,0.7-0.2c0.2-0.2,0.4-0.4,0.5-0.6v-0.7
		C259.5,284.9,258.9,285.2,258.9,285.8z"/>
	<path class="st3" d="M264.4,287.4v-9c0-0.3,0.3-0.4,0.8-0.4h0.4c0.5,0,0.8,0.1,0.8,0.4v2.9c0.4-0.3,0.8-0.4,1.3-0.4
		c0.9,0,1.5,0.3,2,0.9c0.5,0.6,0.7,1.5,0.7,2.6c0,1.1-0.2,1.9-0.7,2.6c-0.5,0.6-1,0.9-1.8,0.9c-0.4,0-0.7-0.1-1-0.3
		s-0.5-0.4-0.7-0.7l-0.1,0.6c-0.1,0.2-0.3,0.3-0.8,0.3h-0.2C264.7,287.8,264.4,287.7,264.4,287.4z M267.4,286.3c0.7,0,1.1-0.7,1.1-2
		c0-1.3-0.4-2-1.2-2c-0.3,0-0.6,0.1-0.9,0.2v2.9C266.6,286.1,267,286.3,267.4,286.3z"/>
	<path class="st3" d="M274.1,286.4l0.4-0.1c0.1,0,0.2,0.1,0.3,0.4c0.1,0.3,0.1,0.4,0.1,0.6c0,0.4-0.4,0.6-1.2,0.6
		c-1.3,0-1.9-0.7-1.9-2.1v-7.4c0-0.3,0.3-0.4,0.8-0.4h0.4c0.5,0,0.8,0.1,0.8,0.4v7.4C273.7,286.2,273.8,286.4,274.1,286.4z"/>
	<path class="st3" d="M276.2,287c-0.6-0.6-0.8-1.5-0.8-2.6s0.3-2,0.8-2.6c0.6-0.6,1.3-0.9,2.3-0.9s1.7,0.3,2.1,0.9
		c0.5,0.6,0.7,1.4,0.7,2.4c0,0.1-0.1,0.3-0.3,0.5c-0.2,0.2-0.3,0.3-0.4,0.3h-3.3c0,0.5,0.2,0.8,0.4,1.1c0.3,0.2,0.6,0.3,1,0.3
		c0.4,0,0.8-0.1,1.1-0.2c0.4-0.1,0.5-0.2,0.5-0.2c0.1,0,0.3,0.1,0.4,0.4c0.2,0.3,0.2,0.5,0.2,0.6c0,0.3-0.3,0.5-0.8,0.7
		c-0.5,0.2-1.1,0.3-1.5,0.3C277.6,287.9,276.7,287.6,276.2,287z M279.4,283.7c0-0.4-0.1-0.7-0.2-1s-0.4-0.4-0.7-0.4
		c-0.6,0-1,0.4-1.2,1.3H279.4z"/>
</g>
</svg>
