<?xml version="1.0" encoding="utf-8"?>
<!-- Generator: Adobe Illustrator 15.0.0, SVG Export Plug-In . SVG Version: 6.00 Build 0)  -->
<!DOCTYPE svg PUBLIC "-//W3C//DTD SVG 1.1//EN" "http://www.w3.org/Graphics/SVG/1.1/DTD/svg11.dtd">
<svg version="1.1" id="Layer_1" xmlns="http://www.w3.org/2000/svg" xmlns:xlink="http://www.w3.org/1999/xlink" x="0px" y="0px"
	 width="138.014px" height="126.014px" viewBox="0 0 138.014 126.014" enable-background="new 0 0 138.014 126.014"
	 xml:space="preserve">
<g>
	<path fill="#00BCD4" d="M20.771,90.194V35.174c0-0.455,0.057-0.968,0.172-1.538l39.301,39.301c2.221,2.222,4.912,3.332,8.072,3.332
		c3.162,0,5.854-1.11,8.074-3.332l39.301-39.301c0.113,0.513,0.17,1.025,0.17,1.538v55.021c0,2.108-0.74,3.873-2.221,5.297
		s-3.246,2.164-5.297,2.223H28.29c-2.053,0-3.816-0.741-5.299-2.223C21.511,94.01,20.771,92.246,20.771,90.194z M26.154,27.998
		c0.74-0.228,1.453-0.343,2.137-0.343h80.053c0.684,0,1.396,0.115,2.137,0.343L70.923,67.554c-0.74,0.684-1.623,1.025-2.648,1.025
		s-1.879-0.343-2.562-1.025L26.154,27.998z"/>
</g>
</svg>
