<?xml version="1.0" encoding="utf-8"?>
<!-- Generator: Adobe Illustrator 15.0.0, SVG Export Plug-In . SVG Version: 6.00 Build 0)  -->
<!DOCTYPE svg PUBLIC "-//W3C//DTD SVG 1.1//EN" "http://www.w3.org/Graphics/SVG/1.1/DTD/svg11.dtd">
<svg version="1.1" id="Layer_1" xmlns="http://www.w3.org/2000/svg" xmlns:xlink="http://www.w3.org/1999/xlink" x="0px" y="0px"
	 width="138.014px" height="126.014px" viewBox="0 0 138.014 126.014" enable-background="new 0 0 138.014 126.014"
	 xml:space="preserve">
<title>metiers</title>
<g>
	<path fill="#00BCD4" d="M97.267,58.836C97.54,51.094,93.81,43.3,86.181,35.667l-3.656-3.654c-1.307-1.307-3.426-1.307-4.732,0
		l-2.826,2.826c-1.307,1.306-1.307,3.425,0,4.733l3.656,3.653c5.428,5.429,8.109,10.533,7.963,15.176
		c-0.143,4.574-3.199,7.477-3.199,7.477l-0.053,0.047c-0.059,0.049-0.115,0.101-0.168,0.155L68.339,80.906L57.053,69.622
		l-0.098-0.094c-1.473-1.362-2.303-3.238-2.34-5.247c-0.037-2.105,0.775-4.101,2.291-5.616c3.084-3.084,8.104-3.084,11.189,0
		l3.624,3.624c1.309,1.307,3.426,1.307,4.734,0l2.824-2.826c1.309-1.308,1.309-3.426,0-4.731l-3.623-3.624
		c-7.252-7.251-19.053-7.251-26.305,0c-3.586,3.588-5.51,8.335-5.42,13.369c0.086,4.695,1.957,9.104,5.266,12.413
		c0.133,0.131,0.266,0.259,0.4,0.387l16.375,16.383c1.307,1.307,3.428,1.307,4.737,0l19.875-19.876
		C91.794,72.665,96.958,67.419,97.267,58.836"/>
	<path fill="#00BCD4" d="M116.81,62.822L116.81,62.822V58.87c0-1.851-1.496-3.349-3.348-3.349h-3.994
		c-1.852,0-3.35,1.498-3.35,3.349v4.589c-0.416,20.352-17.088,36.781-37.538,36.781c-20.709,0-37.559-16.848-37.559-37.557
		c0-20.544,16.58-37.276,37.061-37.546v0.007h5.167c1.852,0,3.348-1.499,3.348-3.348v-3.992c0-1.85-1.496-3.348-3.348-3.348h-5.167
		v0.006c-26.363,0.269-47.729,21.796-47.729,48.221c0,26.594,21.633,48.229,48.229,48.229
		C95.13,110.912,116.734,89.348,116.81,62.822"/>
</g>
</svg>
