<?xml version="1.0" encoding="utf-8"?>
<!-- Generator: Adobe Illustrator 15.0.0, SVG Export Plug-In . SVG Version: 6.00 Build 0)  -->
<!DOCTYPE svg PUBLIC "-//W3C//DTD SVG 1.1//EN" "http://www.w3.org/Graphics/SVG/1.1/DTD/svg11.dtd">
<svg version="1.1" id="Layer_1" xmlns="http://www.w3.org/2000/svg" xmlns:xlink="http://www.w3.org/1999/xlink" x="0px" y="0px"
	 width="138.014px" height="126.014px" viewBox="0 0 138.014 126.014" enable-background="new 0 0 138.014 126.014"
	 xml:space="preserve">
<g>
	<path fill="#00BCD4" d="M114.535,34.788c-2.53,3.69-5.606,6.869-9.229,9.535v2.358c0,4.991-0.718,9.947-2.153,14.869
		c-1.435,4.922-3.625,9.674-6.562,14.253c-2.94,4.581-6.46,8.58-10.562,11.998c-4.102,3.419-9.022,6.221-14.766,8.408
		s-11.93,3.212-18.561,3.076c-10.322,0-19.757-2.77-28.301-8.307c1.298,0.205,2.77,0.309,4.409,0.309
		c8.613,0,16.269-2.632,22.969-7.896c-4.034-0.136-7.623-1.367-10.767-3.692c-3.146-2.322-5.333-5.365-6.563-9.126
		c1.298,0.139,2.461,0.205,3.487,0.205c1.641,0,3.281-0.205,4.922-0.614c-4.307-0.889-7.862-3.008-10.665-6.357
		c-2.804-3.349-4.204-7.28-4.204-11.792v-0.205c2.597,1.437,5.399,2.222,8.408,2.358c-2.53-1.708-4.547-3.897-6.05-6.563
		c-1.504-2.666-2.257-5.64-2.257-8.921s0.854-6.356,2.563-9.229c4.647,5.675,10.254,10.22,16.816,13.638
		c6.562,3.419,13.671,5.299,21.328,5.64c-0.343-1.436-0.513-2.835-0.513-4.204c0-5.127,1.811-9.467,5.435-13.021
		c3.623-3.554,7.963-5.366,13.022-5.436c5.398,0,9.911,1.948,13.535,5.846c4.169-0.82,8.065-2.323,11.689-4.513
		c-1.368,4.375-4.068,7.793-8.101,10.254C107.424,37.249,110.98,36.292,114.535,34.788z"/>
</g>
</svg>
