<?xml version="1.0" encoding="utf-8"?>
<!-- Generator: Adobe Illustrator 15.0.0, SVG Export Plug-In . SVG Version: 6.00 Build 0)  -->
<!DOCTYPE svg PUBLIC "-//W3C//DTD SVG 1.1//EN" "http://www.w3.org/Graphics/SVG/1.1/DTD/svg11.dtd">
<svg version="1.1" id="Layer_1" xmlns="http://www.w3.org/2000/svg" xmlns:xlink="http://www.w3.org/1999/xlink" x="0px" y="0px"
	 width="138.014px" height="126.014px" viewBox="0 0 138.014 126.014" enable-background="new 0 0 138.014 126.014"
	 xml:space="preserve">
<title>metiers</title>
<g>
	<path fill="#00BCD4" d="M-3193.23,38.223c-2.529,3.69-5.605,6.869-9.229,9.535v2.358c0,4.991-0.718,9.947-2.153,14.869
		c-1.435,4.922-3.625,9.674-6.562,14.253c-2.94,4.581-6.46,8.58-10.562,11.998c-4.102,3.419-9.022,6.221-14.766,8.408
		s-11.931,3.212-18.561,3.076c-10.323,0-19.757-2.77-28.301-8.307c1.298,0.205,2.769,0.309,4.409,0.309
		c8.612,0,16.269-2.632,22.969-7.896c-4.034-0.136-7.623-1.367-10.768-3.692c-3.146-2.322-5.333-5.365-6.562-9.126
		c1.298,0.139,2.461,0.205,3.487,0.205c1.641,0,3.28-0.205,4.922-0.614c-4.307-0.889-7.862-3.008-10.665-6.357
		c-2.804-3.349-4.204-7.28-4.204-11.792v-0.205c2.597,1.437,5.398,2.222,8.408,2.358c-2.53-1.708-4.548-3.897-6.051-6.563
		c-1.504-2.666-2.256-5.64-2.256-8.921s0.854-6.356,2.563-9.229c4.647,5.675,10.254,10.22,16.816,13.638
		c6.562,3.419,13.671,5.299,21.328,5.64c-0.343-1.436-0.513-2.835-0.513-4.204c0-5.127,1.811-9.467,5.435-13.021
		c3.623-3.554,7.963-5.366,13.022-5.436c5.398,0,9.91,1.948,13.534,5.846c4.169-0.82,8.066-2.323,11.69-4.513
		c-1.368,4.375-4.068,7.793-8.102,10.254C-3200.341,40.684-3196.785,39.727-3193.23,38.223z"/>
</g>
<g>
	<path fill="#00BCD4" d="M-3019.906,36.719h-14.2c-0.934,0-1.767,0.5-2.5,1.5s-1.1,2.234-1.1,3.7v10.2h17.8v14.8h-17.8v44.2h-17
		v-44.2h-15.2v-14.8h15.2v-8.6c0-6.267,1.965-11.565,5.899-15.9c3.934-4.333,8.833-6.5,14.7-6.5h14.2V36.719L-3019.906,36.719z"/>
</g>
<g>
	<path fill="#00BCD4" d="M-2803.589,33.861v64.517c0,1.879-0.68,3.497-2.036,4.854c-1.358,1.356-2.976,2.036-4.854,2.036h-64.517
		c-1.879,0-3.498-0.68-4.854-2.036c-1.357-1.358-2.035-2.976-2.035-4.854V33.861c0-1.879,0.678-3.497,2.035-4.854
		c1.357-1.356,2.977-2.035,4.854-2.035h64.517c1.879,0,3.497,0.679,4.854,2.035C-2804.268,30.365-2803.589,31.982-2803.589,33.861z
		 M-2857.301,44.04c-0.992-0.939-2.271-1.41-3.837-1.41c-1.566,0-2.846,0.471-3.836,1.41c-0.992,0.939-1.488,2.167-1.488,3.68
		c0,1.516,0.496,2.716,1.488,3.603c0.99,0.888,2.218,1.384,3.68,1.488c1.67,0,2.987-0.471,3.954-1.409
		c0.965-0.939,1.449-2.087,1.449-3.445C-2855.892,46.337-2856.361,45.032-2857.301,44.04z M-2866.227,89.609h10.022V56.802h-10.022
		V89.609z M-2829.584,89.609h10.101V70.27c0-4.646-1.069-8.169-3.21-10.57c-2.141-2.4-4.933-3.602-8.377-3.602
		c-2.454,0-4.516,0.548-6.186,1.644c-1.671,1.096-2.95,2.323-3.836,3.68h-0.157l-0.47-4.62h-8.691
		c0.156,5.951,0.235,9.448,0.235,10.492v22.315h10.022v-18.87c0-1.096,0.104-1.958,0.312-2.584c1.043-2.557,2.767-3.836,5.168-3.836
		c3.393,0,5.089,2.376,5.089,7.125L-2829.584,89.609L-2829.584,89.609z"/>
</g>
<g>
	<path fill="#00BCD4" d="M-2711.994,93.63V38.609c0-0.455,0.056-0.968,0.171-1.538l39.301,39.301
		c2.222,2.222,4.912,3.332,8.073,3.332s5.854-1.11,8.073-3.332l39.301-39.301c0.113,0.513,0.171,1.025,0.171,1.538V93.63
		c0,2.108-0.741,3.873-2.222,5.297c-1.481,1.424-3.246,2.164-5.297,2.223h-80.054c-2.051,0-3.815-0.741-5.297-2.223
		S-2711.994,95.681-2711.994,93.63z M-2706.611,31.433c0.739-0.228,1.452-0.343,2.136-0.343h80.054c0.684,0,1.396,0.115,2.136,0.343
		l-39.557,39.557c-0.74,0.684-1.623,1.025-2.648,1.025c-1.024,0-1.879-0.343-2.562-1.025L-2706.611,31.433z"/>
</g>
<g>
	<path fill="#00BCD4" d="M-2533.851,104.02V28.219h100v75.801H-2533.851z M-2498.351,88.32l35-22l-35-21.9V88.32z"/>
</g>
<g>
	<path fill="#00BCD4" d="M-1880.78,62.271c0.274-7.742-3.456-15.536-11.086-23.169l-3.655-3.654c-1.308-1.307-3.427-1.307-4.733,0
		l-2.825,2.826c-1.307,1.306-1.307,3.425,0,4.733l3.656,3.653c5.427,5.429,8.108,10.533,7.962,15.176
		c-0.142,4.574-3.199,7.477-3.198,7.477l-0.053,0.047c-0.06,0.049-0.115,0.101-0.168,0.155l-14.826,14.826l-11.286-11.284
		l-0.097-0.094c-1.474-1.362-2.304-3.238-2.34-5.247c-0.038-2.105,0.775-4.101,2.291-5.616c3.083-3.084,8.103-3.084,11.188,0
		l3.624,3.624c1.308,1.307,3.425,1.307,4.733,0l2.825-2.826c1.309-1.308,1.309-3.426,0-4.731l-3.624-3.624
		c-7.252-7.251-19.052-7.251-26.304,0c-3.587,3.588-5.511,8.335-5.42,13.369c0.086,4.695,1.956,9.104,5.266,12.413
		c0.132,0.131,0.266,0.259,0.399,0.387l16.376,16.383c1.307,1.307,3.427,1.307,4.735,0l19.875-19.876
		C-1886.252,76.1-1881.088,70.854-1880.78,62.271"/>
	<path fill="#00BCD4" d="M-1861.237,66.258L-1861.237,66.258v-3.952c0-1.851-1.496-3.349-3.347-3.349h-3.995
		c-1.852,0-3.35,1.498-3.35,3.349v4.589c-0.415,20.352-17.087,36.781-37.536,36.781c-20.709,0-37.56-16.848-37.56-37.557
		c0-20.544,16.58-37.276,37.062-37.546v0.007h5.166c1.851,0,3.348-1.499,3.348-3.348V21.24c0-1.85-1.497-3.348-3.348-3.348h-5.166
		v0.006c-26.364,0.269-47.729,21.796-47.729,48.221c0,26.594,21.634,48.229,48.229,48.229
		C-1882.917,114.347-1861.312,92.784-1861.237,66.258"/>
</g>
<g>
	<path fill="#00BCD4" d="M106.761,30.426v64.517c0,1.879-0.68,3.497-2.037,4.854c-1.357,1.356-2.975,2.036-4.854,2.036H35.352
		c-1.879,0-3.498-0.68-4.854-2.036c-1.357-1.358-2.035-2.976-2.035-4.854V30.426c0-1.879,0.678-3.497,2.035-4.854
		c1.357-1.356,2.977-2.035,4.854-2.035H99.87c1.879,0,3.498,0.679,4.854,2.035C106.081,26.929,106.761,28.547,106.761,30.426z
		 M53.048,40.604c-0.992-0.939-2.271-1.41-3.836-1.41c-1.566,0-2.846,0.471-3.836,1.41c-0.992,0.939-1.488,2.167-1.488,3.68
		c0,1.516,0.496,2.716,1.488,3.603c0.99,0.888,2.217,1.384,3.68,1.488c1.67,0,2.986-0.471,3.953-1.409
		c0.965-0.939,1.449-2.087,1.449-3.445C54.458,42.901,53.987,41.596,53.048,40.604z M44.122,86.174h10.021V53.366H44.122V86.174z
		 M80.765,86.174h10.102V66.835c0-4.646-1.07-8.169-3.209-10.57c-2.143-2.4-4.934-3.602-8.377-3.602
		c-2.455,0-4.518,0.548-6.188,1.644s-2.949,2.323-3.836,3.68H69.1l-0.471-4.62H59.94c0.154,5.951,0.234,9.448,0.234,10.492v22.315
		h10.022v-18.87c0-1.096,0.104-1.958,0.312-2.584c1.043-2.557,2.768-3.836,5.168-3.836c3.393,0,5.09,2.376,5.09,7.125v18.165H80.765
		z"/>
</g>
</svg>
