<?xml version="1.0" encoding="utf-8"?>
<!-- Generator: Adobe Illustrator 22.1.0, SVG Export Plug-In . SVG Version: 6.00 Build 0)  -->
<svg version="1.1" id="Calque_1" xmlns="http://www.w3.org/2000/svg" xmlns:xlink="http://www.w3.org/1999/xlink" x="0px" y="0px"
	 viewBox="0 0 440 440" style="enable-background:new 0 0 440 440;" xml:space="preserve">
<style type="text/css">
	.st0{fill:#FFFFFF;}
</style>
<title>icone_yt</title>
<g>
	
		<image style="overflow:visible;opacity:0.3;" width="490" height="416" xlink:href="87A8D5DB379506BD.png"  transform="matrix(1 0 0 1 -23 14)">
	</image>
	<g>
		<path class="st0" d="M334.4,149.1c-4-6.4-9.5-11-17.4-11.8c-8.4-0.8-16.8-1.7-25.1-1.8c-37.1-0.4-74.2-0.7-111.3-0.6
			c-16.7,0.1-33.3,1.1-50,2c-9.5,0.5-17.4,4.3-21.4,13.2c-3.3,7.4-6.6,15-7.8,22.9c-5,30.7-5.2,62-0.8,92.8c1.5,9.1,4.2,18,7.9,26.4
			c3,7.5,9.9,12.8,17.9,13.7c6.5,0.8,13,1.4,19.6,1.5c25.7,0.6,51.3,1.1,82.1,1.7c23.5-0.7,52-1.4,80.5-2.4
			c17.5-0.6,25.8-7.2,31.1-23.9c1-3.1,1.8-6.3,2.5-9.5c5.7-31.1,5.4-62.4,1.7-93.6C342.6,169.1,340.3,158.5,334.4,149.1z
			 M197.7,266.6v-89.7l69.5,45L197.7,266.6z"/>
	</g>
</g>
</svg>
