<?xml version="1.0" encoding="utf-8"?>
<!-- Generator: Adobe Illustrator 22.0.1, SVG Export Plug-In . SVG Version: 6.00 Build 0)  -->
<svg version="1.1" id="Calque_1" xmlns="http://www.w3.org/2000/svg" xmlns:xlink="http://www.w3.org/1999/xlink" x="0px" y="0px"
	 viewBox="0 0 97.5 97.5" style="enable-background:new 0 0 97.5 97.5;" xml:space="preserve">
<style type="text/css">
	.st0{fill:#E91E63;}
	.st1{fill:#F48FB1;}
</style>
<title>puce_orange</title>
<path class="st0" d="M97.5,48.9L97.5,48.9v-4c0-1.9-1.5-3.4-3.4-3.4h-4c-1.9,0-3.4,1.5-3.4,3.4l0,0v4.6C86.3,70.5,69,87.2,48,86.8
	C27,86.4,10.4,69,10.8,48.1c0.4-20.5,17-37,37.5-37.3h5.2c1.9,0,3.4-1.5,3.4-3.4v-4c0-1.9-1.5-3.4-3.3-3.4l0,0h-5.2
	C21.3,0.3-0.3,22.3,0,49.3s22.3,48.5,49.3,48.3C75.9,97.2,97.4,75.6,97.5,48.9"/>
<circle class="st1" cx="49.2" cy="48.9" r="22"/>
</svg>
